<svg width="164" height="31" viewBox="0 0 164 31" fill="none" xmlns="http://www.w3.org/2000/svg">
<g clip-path="url(#clip0)">
<path d="M0.243134 0H12.1965C14.4734 0 16.181 0.586135 17.4459 1.56303C18.8373 2.73529 19.5962 4.42857 19.5962 6.51261C19.5962 8.92227 18.6476 10.4202 16.7502 11.3319V11.4622C19.28 12.3088 20.7347 14.6534 20.7347 17.4538C20.7347 20.124 19.7227 22.208 18.0783 23.5105C16.6869 24.5525 14.9161 25.0084 12.5127 25.0084H0.243134V0ZM10.9949 9.76891C12.2598 9.76891 13.2085 9.05252 13.2085 7.55462C13.2085 6.12185 12.2598 5.40546 10.9316 5.40546H6.82066V9.70378H10.9949V9.76891ZM11.5641 19.4727C13.0187 19.4727 14.0939 18.5609 14.0939 16.9328C14.0939 15.1744 12.9555 14.3929 11.5641 14.3929H6.88391V19.5378H11.5641V19.4727Z" fill="#FEFEFE"/>
<path d="M21.8098 0H28.0711V25.0735H21.8098V0Z" fill="#FEFEFE"/>
<path d="M29.336 16.1513C29.336 10.4853 32.8778 6.70801 38.3801 6.70801C43.8825 6.70801 47.361 10.5504 47.361 16.1513C47.361 21.8173 43.8825 25.5946 38.3801 25.5946C32.8778 25.5946 29.336 21.8173 29.336 16.1513ZM41.0997 16.1513C41.0997 13.0252 40.151 11.0715 38.2536 11.0715C36.3563 11.0715 35.4708 13.0252 35.4708 16.1513C35.4708 19.2773 36.3563 21.2962 38.2536 21.2962C40.151 21.2311 41.0997 19.2773 41.0997 16.1513Z" fill="#FEFEFE"/>
<path d="M48.0567 16.1513C48.0567 10.4853 51.5984 6.70801 57.1008 6.70801C62.6031 6.70801 66.0184 10.4853 66.0184 16.1513C66.0184 21.8173 62.5399 25.5946 57.0376 25.5946C51.5984 25.5946 48.0567 21.8173 48.0567 16.1513ZM59.8203 16.1513C59.8203 13.0252 58.8717 11.0715 56.9743 11.0715C55.0769 11.0715 54.1915 13.0252 54.1915 16.1513C54.1915 19.2773 55.0769 21.2962 56.9743 21.2962C58.8717 21.2311 59.8203 19.2773 59.8203 16.1513Z" fill="#FEFEFE"/>
<path d="M67.2833 7.16383H73.1019V9.834H73.2284C74.3668 7.74997 75.9479 6.64282 78.4777 6.64282C80.6913 6.64282 82.3357 7.74997 83.1579 9.70375H83.2844C84.6758 7.35921 86.5099 6.64282 88.6603 6.64282C92.708 6.64282 94.4156 9.70375 94.4156 13.8067V25.0084H88.344V14.9138C88.344 13.0903 87.7748 11.918 86.2569 11.918C84.739 11.918 83.9801 13.3508 83.9801 15.3046V25.0084H77.9085V14.9138C77.9085 13.0903 77.3393 11.918 75.8214 11.918C74.3035 11.918 73.5446 13.3508 73.5446 15.3046V25.0084H67.2833V7.16383Z" fill="#FEFEFE"/>
<path d="M102.068 22.6639H102.005V25.0084H96.1865V0H102.258V8.9874H102.385C103.523 7.42437 105.104 6.57773 107.318 6.57773C111.682 6.57773 114.211 10.6155 114.211 16.021C114.211 22.0777 111.492 25.5945 106.938 25.5945C105.041 25.5945 103.08 24.6828 102.068 22.6639ZM107.95 15.9559C107.95 13.0903 106.938 11.2017 105.104 11.2017C103.207 11.2017 102.068 13.0903 102.068 15.9559C102.068 18.8214 103.27 20.7101 105.104 20.7101C106.938 20.7101 107.95 18.8866 107.95 15.9559Z" fill="#FEFEFE"/>
<path d="M114.907 16.0861C114.907 10.4853 118.512 6.64282 123.698 6.64282C126.291 6.64282 128.252 7.48946 129.77 8.98736C131.794 11.0063 132.679 14.1323 132.616 17.7794H120.979C121.232 19.9937 122.244 21.1659 124.078 21.1659C125.153 21.1659 126.102 20.6449 126.481 19.4727H132.363C131.351 23.5756 128.252 25.5945 123.888 25.5945C118.512 25.5294 114.907 21.7521 114.907 16.0861ZM120.979 14.1974H126.544C126.418 12.0483 125.279 10.9411 123.825 10.9411C122.117 10.876 121.168 12.1134 120.979 14.1974Z" fill="#FEFEFE"/>
<path d="M139.51 10.2249H139.636C140.901 7.75008 142.545 6.77319 144.632 6.77319C145.138 6.77319 145.455 6.83832 145.644 6.96857V12.4392H145.518C141.913 11.7879 139.826 13.5463 139.826 17.5841V25.0736H133.691V7.16395H139.51V10.2249Z" fill="#FEFEFE"/>
<path d="M146.277 25.0734H152.159C152.412 25.8549 153.171 26.5713 154.625 26.5713C156.586 26.5713 157.282 25.3339 157.282 23.4453V22.1428H157.155C156.206 23.315 154.878 24.1617 152.981 24.1617C149.249 24.1617 145.961 21.2961 145.961 15.6953C145.961 10.5503 148.617 6.57764 152.665 6.57764C155.005 6.57764 156.396 7.55453 157.345 9.05243H157.471V7.09865H163.29V22.5986C163.29 25.4642 162.341 27.6785 160.887 28.981C159.369 30.3486 157.218 30.9348 154.752 30.9348C150.072 30.9999 146.846 29.0461 146.277 25.0734ZM157.535 15.4348C157.535 13.2205 156.523 11.397 154.752 11.397C153.044 11.397 151.969 12.96 151.969 15.4348C151.969 17.8444 153.044 19.5377 154.752 19.5377C156.459 19.5377 157.535 17.7793 157.535 15.4348Z" fill="#FEFEFE"/>
</g>
<defs>
<clipPath id="clip0">
<rect width="163.047" height="31" fill="white" transform="translate(0.243134)"/>
</clipPath>
</defs>
</svg>
