<svg width="164" height="22" viewBox="0 0 164 22" fill="none" xmlns="http://www.w3.org/2000/svg">
<path d="M4.38703 6.52661C2.89302 7.87371 2.34925 10.9261 5.04252 12.7104L15.7872 20.0527L10.5774 8.1646C9.48573 5.35928 6.49919 4.74753 4.38703 6.52661Z" fill="white" fill-opacity="0.37"/>
<path d="M13.6362 0.746553C11.8897 0.781997 9.26702 2.85356 10.4342 6.01688L15.8225 18.6741L17.7159 5.36113C18.154 2.05316 15.6406 0.526128 13.6362 0.746553Z" fill="white" fill-opacity="0.37"/>
<path d="M18.5563 4.85328H19.5751C19.5751 4.85328 20.1192 4.85328 20.1932 5.10894C19.7923 5.43506 18.701 5.47593 18.8459 7.21791L20.5587 18.6722L25.9101 5.98177C27.0047 3.14823 24.7071 0.781796 22.669 0.709472C22.5739 0.70267 22.4783 0.697144 22.3794 0.697144C20.5501 0.697144 18.4538 2.02129 18.5563 4.85328Z" fill="white" fill-opacity="0.37"/>
<path d="M25.6947 8.27228L20.6331 20.0178L31.3746 12.6367C33.8507 10.8875 33.4513 8.09081 32.0653 6.70842C31.4842 6.05777 30.4174 5.55518 29.2872 5.55518C27.952 5.55491 26.5231 6.26029 25.6947 8.27228Z" fill="white" fill-opacity="0.37"/>
<path d="M30.1721 14.308L20.0846 21.326H32.5053C35.0536 21.326 36.6911 18.7091 35.9632 16.3076C35.4756 14.7981 34.033 13.6132 32.3587 13.6115C31.6539 13.6117 30.9065 13.8232 30.1721 14.308Z" fill="white" fill-opacity="0.37"/>
<path d="M4.09738 21.3262H16.3348L6.24469 14.3082C3.91363 12.8164 1.29255 13.6893 0.346301 16.1648C-0.455795 18.9986 1.54688 21.3262 4.09738 21.3262Z" fill="white" fill-opacity="0.37"/>
<path d="M40.4091 10.9052C40.4091 14.8392 43.6379 22 55.9667 22C67.3336 22 70.9236 16.8049 70.9236 14.4229H62.1236C62.1236 14.4229 61.7056 17.57 56.7415 17.57C51.7742 17.57 50.4308 13.4403 50.4308 11.0523C50.4308 8.6734 51.7742 4.76671 56.7415 4.76671C61.7056 4.76671 62.1236 7.50661 62.1236 7.50661H70.9236C70.9236 5.12177 68.2895 0 55.9667 0C43.6379 0 40.4091 7.62624 40.4091 10.9052Z" fill="#FEFEFE"/>
<path d="M132.699 10.9052C132.699 14.8392 135.931 22 148.257 22C159.622 22 163.214 16.8049 163.214 14.4229H154.42C154.42 14.4229 154 17.57 149.035 17.57C144.067 17.57 142.722 13.4403 142.722 11.0523C142.722 8.6734 144.067 4.76671 149.035 4.76671C154 4.76671 154.42 7.50661 154.42 7.50661H163.214C163.214 5.12177 160.583 0 148.257 0C135.931 0 132.699 7.62624 132.699 10.9052Z" fill="#FEFEFE"/>
<path d="M94.9742 0.367432V13.6849L84.7328 0.367432H73.2121V21.4612H81.1103V7.9907L91.1724 21.4612H102.873V0.367432H94.9742Z" fill="#FEFEFE"/>
<path d="M120.283 16.4219V16.4497H113.702V12.5766H120.283V12.5891C121.688 12.5891 122.824 13.4493 122.824 14.5086C122.824 15.5652 121.688 16.4219 120.283 16.4219ZM113.763 4.47002H120.104V4.47894C121.178 4.47894 122.049 5.18294 122.049 6.04942C122.049 6.91923 121.178 7.6171 120.104 7.6171V7.62655H113.763V4.47002ZM126.747 10.247C128.185 10.247 131.191 8.58451 131.191 5.36379C131.191 0.777586 122.617 0.367432 121.301 0.367432H105.504V21.4612H121.301C128.899 21.4612 131.952 19.0705 131.952 15.0781C131.952 11.0857 126.747 10.247 126.747 10.247Z" fill="#FEFEFE"/>
</svg>
