<svg width="11" height="15" viewBox="0 0 11 15" fill="none" xmlns="http://www.w3.org/2000/svg">
<path d="M6.41667 3.98438V0H0.6875C0.30651 0 0 0.313477 0 0.703125V14.2969C0 14.6865 0.30651 15 0.6875 15H10.3125C10.6935 15 11 14.6865 11 14.2969V4.6875H7.10417C6.72604 4.6875 6.41667 4.37109 6.41667 3.98438ZM8.60664 10.1766L5.84461 12.9803C5.65411 13.1739 5.34646 13.1739 5.15596 12.9803L2.39393 10.1766C2.10318 9.88154 2.30714 9.375 2.7162 9.375H4.58333V7.03125C4.58333 6.77227 4.78844 6.5625 5.04167 6.5625H5.95833C6.21156 6.5625 6.41667 6.77227 6.41667 7.03125V9.375H8.2838C8.69286 9.375 8.89682 9.88154 8.60664 10.1766ZM10.7995 3.07617L7.99505 0.205078C7.86615 0.0732422 7.69141 0 7.50807 0H7.33333V3.75H11V3.57129C11 3.38672 10.9284 3.20801 10.7995 3.07617Z" fill="#E1372F"/>
</svg>
