<svg width="194" height="56" viewBox="0 0 194 56" fill="none" xmlns="http://www.w3.org/2000/svg">
<path fill-rule="evenodd" clip-rule="evenodd" d="M34.847 0V55.3086H20.9082V0H34.847ZM13.9388 41.4815V55.3086H0V41.4815H13.9388ZM55.7553 41.4815V55.3086H41.8165V41.4815H55.7553ZM13.9388 20.7407V34.5679H0V20.7407H13.9388ZM13.9388 0V13.8272H0V0H13.9388ZM55.7553 0V13.8272H41.8165V0H55.7553Z" fill="url(#paint0_linear)"/>
<path d="M62.7247 41.4815V0H100.943V4.66666H67.4366V18.3786H94.3699V23.1029H67.4366V36.8148H100.943V41.4815H62.7247Z" fill="#FEFEFE"/>
<path d="M123.666 41.4815V4.66666H105.052V0H146.935V4.66666H128.378V41.4815H123.666Z" fill="#FEFEFE"/>
<path d="M158.266 41.4815C156.327 41.4815 154.679 40.8093 153.322 39.465C151.964 38.1207 151.286 36.4883 151.286 34.5679V6.91358C151.286 4.99314 151.964 3.36077 153.322 2.01646C154.679 0.672153 156.327 0 158.266 0H193.053V4.66666H158.266C157.646 4.66666 157.103 4.89712 156.637 5.35802C156.211 5.78052 155.997 6.29904 155.997 6.91358V34.5679C155.997 35.1824 156.211 35.7202 156.637 36.1811C157.103 36.6036 157.646 36.8148 158.266 36.8148H193.053V41.4815H158.266Z" fill="#FEFEFE"/>
<path d="M63.4216 53.9329V47.4618H69.6196V48.1898H64.1857V50.3289H68.5536V51.0659H64.1857V53.2049H69.6196V53.9329H63.4216Z" fill="#FEFEFE"/>
<path d="M70.5311 53.9329V53.924L72.8141 51.2816L70.5311 48.7291V48.7201H71.55L73.3235 50.6974L75.1065 48.7201H76.1159V48.7291L73.8329 51.2816L76.1253 53.924V53.9329H75.1065L73.3235 51.8478L71.55 53.9329H70.5311Z" fill="#FEFEFE"/>
<path d="M78.2515 53.9329C77.9371 53.9329 77.6666 53.8281 77.4402 53.6184C77.2201 53.4027 77.11 53.145 77.11 52.8454V49.8076C77.11 49.508 77.2201 49.2534 77.4402 49.0437C77.6666 48.828 77.9371 48.7201 78.2515 48.7201H82.6665V49.4571H78.2515C78.1509 49.4571 78.0628 49.493 77.9874 49.5649C77.9182 49.6309 77.8836 49.7117 77.8836 49.8076V52.8454C77.8836 52.9413 77.9182 53.0252 77.9874 53.0971C78.0628 53.163 78.1509 53.196 78.2515 53.196H82.6854V53.9329H78.2515Z" fill="#FEFEFE"/>
<path d="M83.5595 53.9329V47.0125H84.3331V48.7201H87.9934C88.3016 48.7201 88.5688 48.828 88.7953 49.0437C89.0217 49.2534 89.1349 49.508 89.1349 49.8076V53.9329H88.3613V49.8076C88.3613 49.7117 88.3236 49.6309 88.2481 49.5649C88.1789 49.493 88.094 49.4571 87.9934 49.4571H84.7104C84.6098 49.4571 84.5218 49.493 84.4463 49.5649C84.3708 49.6309 84.3331 49.7117 84.3331 49.8076V53.9329H83.5595Z" fill="#FEFEFE"/>
<path d="M91.0296 53.9329C90.7152 53.9329 90.4448 53.8281 90.2183 53.6184C89.9982 53.4027 89.8882 53.145 89.8882 52.8454V50.958H94.6805V49.8076C94.6805 49.7117 94.6428 49.6309 94.5673 49.5649C94.4981 49.493 94.4132 49.4571 94.3126 49.4571H89.8882V48.7201H94.3126C94.6333 48.7201 94.9038 48.828 95.1239 49.0437C95.3503 49.2534 95.4635 49.508 95.4635 49.8076V53.9329H91.0296ZM91.0296 53.196H94.6805V51.695H90.6617V52.8454C90.6617 52.9413 90.6963 53.0252 90.7655 53.0971C90.841 53.163 90.929 53.196 91.0296 53.196Z" fill="#FEFEFE"/>
<path d="M96.319 53.9329V48.7201H100.753C101.067 48.7201 101.335 48.828 101.555 49.0437C101.781 49.2534 101.894 49.508 101.894 49.8076V53.9329H101.121V49.8076C101.121 49.7117 101.083 49.6309 101.008 49.5649C100.938 49.493 100.854 49.4571 100.753 49.4571H97.4699C97.3693 49.4571 97.2813 49.493 97.2058 49.5649C97.1303 49.6309 97.0926 49.7117 97.0926 49.8076V53.9329H96.319Z" fill="#FEFEFE"/>
<path d="M103.774 55.9911V55.2451H107.189C107.29 55.2451 107.375 55.2092 107.444 55.1373C107.52 55.0714 107.557 54.9905 107.557 54.8946V53.9329H103.906C103.592 53.9329 103.322 53.8281 103.095 53.6184C102.875 53.4027 102.765 53.145 102.765 52.8454V49.8076C102.765 49.508 102.875 49.2534 103.095 49.0437C103.322 48.828 103.592 48.7201 103.906 48.7201H107.189C107.51 48.7201 107.781 48.828 108.001 49.0437C108.221 49.2534 108.331 49.508 108.331 49.8076V54.8946C108.331 55.2002 108.221 55.4579 108.001 55.6676C107.781 55.8833 107.51 55.9911 107.189 55.9911H103.774ZM103.906 53.196H107.189C107.29 53.196 107.375 53.163 107.444 53.0971C107.52 53.0252 107.557 52.9413 107.557 52.8454V49.8076C107.557 49.7117 107.52 49.6309 107.444 49.5649C107.375 49.493 107.29 49.4571 107.189 49.4571H103.906C103.806 49.4571 103.718 49.493 103.642 49.5649C103.573 49.6309 103.539 49.7117 103.539 49.8076V52.8454C103.539 52.9413 103.573 53.0252 103.642 53.0971C103.718 53.163 103.806 53.196 103.906 53.196Z" fill="#FEFEFE"/>
<path d="M110.302 53.9329C109.988 53.9329 109.717 53.8281 109.491 53.6184C109.271 53.4027 109.161 53.145 109.161 52.8454V49.8076C109.161 49.508 109.271 49.2534 109.491 49.0437C109.717 48.828 109.988 48.7201 110.302 48.7201H113.585C113.906 48.7201 114.176 48.828 114.396 49.0437C114.623 49.2534 114.736 49.508 114.736 49.8076V51.695H109.934V52.8454C109.934 52.9413 109.969 53.0252 110.038 53.0971C110.114 53.163 110.202 53.196 110.302 53.196H114.736V53.9329H110.302ZM109.934 50.958H113.953V49.8076C113.953 49.7117 113.915 49.6309 113.84 49.5649C113.771 49.493 113.686 49.4571 113.585 49.4571H110.302C110.202 49.4571 110.114 49.493 110.038 49.5649C109.969 49.6309 109.934 49.7117 109.934 49.8076V50.958Z" fill="#FEFEFE"/>
<path d="M120.989 53.9329V48.1898H117.97V47.4618H124.763V48.1898H121.753V53.9329H120.989Z" fill="#FEFEFE"/>
<path d="M125.43 53.9329V49.8076C125.43 49.508 125.541 49.2534 125.761 49.0437C125.987 48.828 126.257 48.7201 126.572 48.7201H129.647V49.4571H126.572C126.471 49.4571 126.383 49.493 126.308 49.5649C126.239 49.6309 126.204 49.7117 126.204 49.8076V53.9329H125.43Z" fill="#FEFEFE"/>
<path d="M131.399 53.9329C131.085 53.9329 130.814 53.8281 130.588 53.6184C130.368 53.4027 130.258 53.145 130.258 52.8454V50.958H135.05V49.8076C135.05 49.7117 135.012 49.6309 134.937 49.5649C134.868 49.493 134.783 49.4571 134.682 49.4571H130.258V48.7201H134.682C135.003 48.7201 135.273 48.828 135.494 49.0437C135.72 49.2534 135.833 49.508 135.833 49.8076V53.9329H131.399ZM131.399 53.196H135.05V51.695H131.031V52.8454C131.031 52.9413 131.066 53.0252 131.135 53.0971C131.211 53.163 131.299 53.196 131.399 53.196Z" fill="#FEFEFE"/>
<path d="M137.685 53.9329C137.365 53.9329 137.091 53.8281 136.865 53.6184C136.645 53.4027 136.534 53.145 136.534 52.8454V49.8076C136.534 49.508 136.645 49.2534 136.865 49.0437C137.091 48.828 137.365 48.7201 137.685 48.7201H141.336V47.0125H142.11V53.9329H137.685ZM137.685 53.196H140.968C141.069 53.196 141.154 53.163 141.223 53.0971C141.299 53.0252 141.336 52.9413 141.336 52.8454V49.8076C141.336 49.7117 141.299 49.6309 141.223 49.5649C141.154 49.493 141.069 49.4571 140.968 49.4571H137.685C137.585 49.4571 137.497 49.493 137.421 49.5649C137.352 49.6309 137.317 49.7117 137.317 49.8076V52.8454C137.317 52.9413 137.352 53.0252 137.421 53.0971C137.497 53.163 137.585 53.196 137.685 53.196Z" fill="#FEFEFE"/>
<path d="M144.048 53.9329C143.734 53.9329 143.463 53.8281 143.237 53.6184C143.017 53.4027 142.907 53.145 142.907 52.8454V49.8076C142.907 49.508 143.017 49.2534 143.237 49.0437C143.463 48.828 143.734 48.7201 144.048 48.7201H147.331C147.652 48.7201 147.922 48.828 148.142 49.0437C148.369 49.2534 148.482 49.508 148.482 49.8076V51.695H143.68V52.8454C143.68 52.9413 143.715 53.0252 143.784 53.0971C143.859 53.163 143.947 53.196 144.048 53.196H148.482V53.9329H144.048ZM143.68 50.958H147.699V49.8076C147.699 49.7117 147.661 49.6309 147.586 49.5649C147.517 49.493 147.432 49.4571 147.331 49.4571H144.048C143.947 49.4571 143.859 49.493 143.784 49.5649C143.715 49.6309 143.68 49.7117 143.68 49.8076V50.958Z" fill="#FEFEFE"/>
<path d="M150.325 53.9329C150.004 53.9329 149.731 53.8281 149.504 53.6184C149.284 53.4027 149.174 53.145 149.174 52.8454V49.8076C149.174 49.508 149.284 49.2534 149.504 49.0437C149.731 48.828 150.004 48.7201 150.325 48.7201H153.976V47.0125H154.75V53.9329H150.325ZM150.325 53.196H153.608C153.709 53.196 153.794 53.163 153.863 53.0971C153.938 53.0252 153.976 52.9413 153.976 52.8454V49.8076C153.976 49.7117 153.938 49.6309 153.863 49.5649C153.794 49.493 153.709 49.4571 153.608 49.4571H150.325C150.225 49.4571 150.136 49.493 150.061 49.5649C149.992 49.6309 149.957 49.7117 149.957 49.8076V52.8454C149.957 52.9413 149.992 53.0252 150.061 53.0971C150.136 53.163 150.225 53.196 150.325 53.196Z" fill="#FEFEFE"/>
<path d="M159.48 53.9329C159.166 53.9329 158.898 53.8281 158.678 53.6184C158.458 53.4087 158.348 53.154 158.348 52.8544V48.5404C158.348 48.2408 158.458 47.9861 158.678 47.7764C158.898 47.5667 159.166 47.4618 159.48 47.4618H165.121V48.1898H159.48C159.38 48.1898 159.291 48.2258 159.216 48.2977C159.147 48.3636 159.112 48.4445 159.112 48.5404V52.8544C159.112 52.9503 159.147 53.0342 159.216 53.1061C159.291 53.172 159.38 53.2049 159.48 53.2049H165.121V53.9329H159.48Z" fill="#FEFEFE"/>
<path d="M166.067 53.9329V49.8076C166.067 49.508 166.177 49.2534 166.398 49.0437C166.624 48.828 166.894 48.7201 167.209 48.7201H170.284V49.4571H167.209C167.108 49.4571 167.02 49.493 166.945 49.5649C166.876 49.6309 166.841 49.7117 166.841 49.8076V53.9329H166.067Z" fill="#FEFEFE"/>
<path d="M171.81 56.0001V55.2541H175.225C175.326 55.2541 175.41 55.2182 175.48 55.1463C175.555 55.0804 175.593 54.9995 175.593 54.9036V53.9329H171.942C171.627 53.9329 171.357 53.8281 171.131 53.6184C170.911 53.4027 170.8 53.145 170.8 52.8454V48.7381H171.574V52.8454C171.574 52.9413 171.609 53.0252 171.678 53.0971C171.753 53.163 171.841 53.196 171.942 53.196H175.225C175.326 53.196 175.41 53.163 175.48 53.0971C175.555 53.0252 175.593 52.9413 175.593 52.8454V48.7381H176.366V54.9036C176.366 55.2092 176.256 55.4668 176.036 55.6766C175.816 55.8923 175.546 56.0001 175.225 56.0001H171.81Z" fill="#FEFEFE"/>
<path d="M177.372 56.0001V48.7201H181.806C182.12 48.7201 182.387 48.828 182.607 49.0437C182.834 49.2534 182.947 49.508 182.947 49.8076V52.8454C182.947 53.145 182.834 53.4027 182.607 53.6184C182.387 53.8281 182.12 53.9329 181.806 53.9329H178.145V56.0001H177.372ZM178.523 53.196H181.806C181.906 53.196 181.991 53.163 182.06 53.0971C182.136 53.0252 182.173 52.9413 182.173 52.8454V49.8076C182.173 49.7117 182.136 49.6309 182.06 49.5649C181.991 49.493 181.906 49.4571 181.806 49.4571H178.523C178.422 49.4571 178.334 49.493 178.258 49.5649C178.183 49.6309 178.145 49.7117 178.145 49.8076V52.8454C178.145 52.9413 178.183 53.0252 178.258 53.0971C178.334 53.163 178.422 53.196 178.523 53.196Z" fill="#FEFEFE"/>
<path d="M184.768 53.9329C184.448 53.9329 184.177 53.8281 183.957 53.6184C183.737 53.4027 183.627 53.145 183.627 52.8454V47.0125H184.4V48.7201H186.768V49.4571H184.4V52.8454C184.4 52.9413 184.435 53.0252 184.504 53.0971C184.58 53.163 184.668 53.196 184.768 53.196H186.768V53.9329H184.768Z" fill="#FEFEFE"/>
<path d="M188.619 53.9329C188.304 53.9329 188.034 53.8281 187.807 53.6184C187.587 53.4027 187.477 53.145 187.477 52.8454V49.8076C187.477 49.508 187.587 49.2534 187.807 49.0437C188.034 48.828 188.304 48.7201 188.619 48.7201H191.902C192.222 48.7201 192.493 48.828 192.713 49.0437C192.939 49.2534 193.053 49.508 193.053 49.8076V52.8454C193.053 53.145 192.939 53.4027 192.713 53.6184C192.493 53.8281 192.222 53.9329 191.902 53.9329H188.619ZM188.619 53.196H191.902C192.002 53.196 192.087 53.163 192.156 53.0971C192.232 53.0252 192.27 52.9413 192.27 52.8454V49.8076C192.27 49.7117 192.232 49.6309 192.156 49.5649C192.087 49.493 192.002 49.4571 191.902 49.4571H188.619C188.518 49.4571 188.43 49.493 188.355 49.5649C188.285 49.6309 188.251 49.7117 188.251 49.8076V52.8454C188.251 52.9413 188.285 53.0252 188.355 53.0971C188.43 53.163 188.518 53.196 188.619 53.196Z" fill="#FEFEFE"/>
<defs>
<linearGradient id="paint0_linear" x1="27.8776" y1="0" x2="27.8776" y2="55.3086" gradientUnits="userSpaceOnUse">
<stop stop-color="#1B6F7B"/>
<stop offset="1" stop-color="#165B65"/>
</linearGradient>
</defs>
</svg>
