<svg width="178" height="80" viewBox="0 0 178 80" fill="none" xmlns="http://www.w3.org/2000/svg">
<path d="M178 0H0V80H178V0Z" fill="#E1372F"/>
<path fill-rule="evenodd" clip-rule="evenodd" d="M36.49 37.3334H40.94V24.8889H36.49V37.3334ZM44.5 46.2222H48.95V29.3334H44.5V46.2222ZM92.56 37.3334H97.01V28.4445H92.56V37.3334ZM76.54 46.2222H80.99V29.3334H76.54V46.2222ZM84.55 50.6667H89V33.7778H84.55V50.6667ZM28.48 46.2222H32.93V37.3334H28.48V46.2222Z" fill="#F1A4A0"/>
<path fill-rule="evenodd" clip-rule="evenodd" d="M68.53 55.1109H72.98V33.7776H68.53V55.1109Z" fill="white"/>
<path fill-rule="evenodd" clip-rule="evenodd" d="M52.51 29.3332H56.96V20.4443H52.51V29.3332Z" fill="white"/>
<path fill-rule="evenodd" clip-rule="evenodd" d="M52.51 55.1109H56.96V33.7776H52.51V55.1109Z" fill="white"/>
<path fill-rule="evenodd" clip-rule="evenodd" d="M60.52 55.111H64.97V20.4443H60.52V55.111Z" fill="white"/>
<path fill-rule="evenodd" clip-rule="evenodd" d="M68.53 29.3332H72.98V20.4443H68.53V29.3332Z" fill="white"/>
<mask id="mask0" mask-type="alpha" maskUnits="userSpaceOnUse" x="108" y="33" width="48" height="22">
<path fill-rule="evenodd" clip-rule="evenodd" d="M108.589 54.88H155.928V44.0444V33.2178H108.598V54.88H108.589Z" fill="white"/>
</mask>
<g mask="url(#mask0)">
<path fill-rule="evenodd" clip-rule="evenodd" d="M151.879 53.9645V46.1068H151.033V54.7023H155.928V53.9734H151.879V53.9645ZM146.903 49.2357C147.206 49.9734 147.518 50.7645 147.829 51.6179H144.153C144.474 50.7645 144.776 49.9734 145.07 49.2445C145.364 48.5068 145.666 47.7868 145.978 47.0757C146.298 47.7779 146.601 48.5068 146.903 49.2357ZM149.876 54.6934C149.529 53.8045 149.217 52.969 148.924 52.1957C148.639 51.4223 148.354 50.6934 148.069 50.0001C147.793 49.3068 147.509 48.649 147.242 48.009C146.966 47.369 146.681 46.7379 146.378 46.0979H145.631C145.328 46.7379 145.034 47.3779 144.758 48.009C144.483 48.6401 144.207 49.3068 143.931 50.0001C143.655 50.6934 143.37 51.4223 143.076 52.1957C142.783 52.969 142.48 53.8045 142.151 54.6934H143.032C143.183 54.2757 143.334 53.8668 143.468 53.4757C143.602 53.0845 143.744 52.7023 143.886 52.3379H148.087C148.212 52.7023 148.345 53.0845 148.479 53.4757C148.621 53.8668 148.764 54.2668 148.933 54.6934H149.876ZM135.681 46.1068V46.8357H138.44V54.6934H139.285V46.8357H142.044V46.1068H135.681ZM132.957 54.6934H133.803V46.0979H132.957V54.6934ZM128.338 46.8445C128.658 46.8979 128.952 47.0045 129.201 47.1468C129.45 47.289 129.655 47.4845 129.806 47.7334C129.958 47.9823 130.038 48.2934 130.038 48.6757C130.038 49.0757 129.967 49.3957 129.824 49.6534C129.682 49.9112 129.486 50.1068 129.219 50.2579C128.961 50.4001 128.641 50.4979 128.276 50.5512C127.911 50.6045 127.493 50.6312 127.039 50.6312H125.971V46.8445C126.131 46.8268 126.318 46.809 126.531 46.7912C126.754 46.7734 127.021 46.7557 127.332 46.7557C127.679 46.7645 128.009 46.7912 128.338 46.8445ZM126.184 46.089C125.784 46.1245 125.437 46.1868 125.134 46.2668V54.6934H125.979V51.369H127.145C127.733 51.369 128.258 51.3245 128.73 51.2268C129.201 51.129 129.593 50.9779 129.913 50.7645C130.234 50.5512 130.483 50.2757 130.661 49.9379C130.839 49.5912 130.919 49.1823 130.919 48.6934C130.919 47.8401 130.625 47.1823 130.029 46.7201C129.433 46.2579 128.525 46.0268 127.306 46.0268C126.959 46.0268 126.585 46.0445 126.184 46.089ZM120.648 49.2357C120.951 49.9734 121.262 50.7645 121.574 51.6179H117.898C118.219 50.7645 118.521 49.9734 118.815 49.2445C119.109 48.5068 119.411 47.7868 119.723 47.0757C120.043 47.7779 120.346 48.5068 120.648 49.2357ZM123.621 54.6934C123.274 53.8045 122.962 52.969 122.669 52.1957C122.384 51.4223 122.099 50.6934 121.814 50.0001C121.538 49.3068 121.254 48.649 120.987 48.009C120.711 47.369 120.426 46.7379 120.123 46.0979H119.376C119.073 46.7379 118.779 47.3779 118.503 48.009C118.228 48.6401 117.952 49.3068 117.676 50.0001C117.4 50.6934 117.115 51.4223 116.821 52.1957C116.528 52.969 116.225 53.8045 115.896 54.6934H116.777C116.928 54.2757 117.08 53.8668 117.213 53.4757C117.347 53.0845 117.489 52.7023 117.631 52.3379H121.832C121.957 52.7023 122.09 53.0845 122.224 53.4757C122.357 53.8668 122.509 54.2668 122.678 54.6934H123.621ZM113.475 54.8268C113.76 54.7912 114.009 54.7379 114.223 54.6846C114.436 54.6312 114.614 54.569 114.757 54.5157C114.899 54.4623 114.997 54.4179 115.05 54.3734L114.81 53.6534C114.623 53.7601 114.338 53.8668 113.973 53.9734C113.608 54.0801 113.146 54.1246 112.603 54.1246C112.104 54.1246 111.668 54.0357 111.277 53.8668C110.894 53.689 110.565 53.449 110.307 53.1201C110.04 52.8001 109.844 52.409 109.701 51.9468C109.568 51.4846 109.497 50.9779 109.497 50.4001C109.497 49.849 109.568 49.3423 109.701 48.889C109.835 48.4357 110.04 48.0445 110.315 47.7157C110.591 47.3868 110.93 47.129 111.33 46.9512C111.731 46.7734 112.202 46.6757 112.736 46.6757C113.208 46.6757 113.6 46.7379 113.92 46.8534C114.24 46.969 114.499 47.0934 114.712 47.2179L114.988 46.489C114.917 46.4357 114.81 46.3823 114.668 46.3201C114.525 46.2579 114.356 46.1957 114.16 46.1334C113.964 46.0712 113.733 46.0179 113.466 45.9823C113.199 45.9379 112.905 45.9201 112.585 45.9201C112.06 45.9201 111.561 46.0179 111.081 46.2134C110.6 46.409 110.182 46.6934 109.817 47.0757C109.452 47.4579 109.158 47.929 108.945 48.4801C108.722 49.0401 108.616 49.6801 108.616 50.3912C108.616 51.1112 108.714 51.7512 108.918 52.3112C109.123 52.8712 109.399 53.3423 109.746 53.7157C110.102 54.0979 110.511 54.3823 110.983 54.5868C111.464 54.7823 111.971 54.8801 112.532 54.8801C112.888 54.8801 113.199 54.8623 113.475 54.8268ZM118.94 41.8045H120.141V33.209H118.94V41.8045ZM111.063 33.2179V34.2579H113.769V41.8045H114.97V34.2579H117.676V33.2179H111.063ZM108.589 41.8045H109.79V33.209H108.589V41.8045Z" fill="white"/>
</g>
</svg>
