<svg width="191" height="77" viewBox="0 0 191 77" fill="none" xmlns="http://www.w3.org/2000/svg">
<rect y="0.0407715" width="191" height="76.9185" fill="#E1372F"/>
<rect width="146.059" height="37.1629" transform="translate(22.4706 19.0542)" fill="#E1372F"/>
<path d="M82.6858 47.2686H78.0538V28.7529H82.6858V47.2686Z" fill="white" fill-opacity="0.5"/>
<path d="M91.9496 51.6769H87.3176V34.043H91.9496V51.6769Z" fill="white" fill-opacity="0.5"/>
<path d="M101.213 37.57H96.5815V27.8713H101.213V37.57Z" fill="white" fill-opacity="0.5"/>
<path d="M36.3664 37.5699H31.7344V24.3445H36.3664V37.5699Z" fill="white" fill-opacity="0.5"/>
<path d="M45.6302 47.2687H40.9983V29.6348H45.6302V47.2687Z" fill="white" fill-opacity="0.5"/>
<path d="M27.1025 47.2685H22.4706V37.5698H27.1025V47.2685Z" fill="white" fill-opacity="0.5"/>
<path fill-rule="evenodd" clip-rule="evenodd" d="M50.2622 28.7529H54.8941V19.0542H50.2622V28.7529Z" fill="white"/>
<path fill-rule="evenodd" clip-rule="evenodd" d="M50.2622 56.0857H54.8941V33.1616H50.2622V56.0857Z" fill="white"/>
<path fill-rule="evenodd" clip-rule="evenodd" d="M59.5261 56.0855H64.1581V19.0542H59.5261V56.0855Z" fill="white"/>
<path fill-rule="evenodd" clip-rule="evenodd" d="M68.79 28.7529H73.422V19.0542H68.79V28.7529Z" fill="white"/>
<path fill-rule="evenodd" clip-rule="evenodd" d="M68.79 56.0857H73.422V33.1616H68.79V56.0857Z" fill="white"/>
<path d="M115.346 32.3599V41.9784H113.209V32.3599H115.346Z" fill="white"/>
<path d="M116.858 34.0365V32.3599H125.157V34.0365H122.064V41.9784H119.952V34.0365H116.858Z" fill="white"/>
<path d="M128.8 32.3599V41.9784H126.663V32.3599H128.8Z" fill="white"/>
<path d="M121.686 49.4729C121.311 47.5004 119.653 46.3357 117.62 46.3357C115.034 46.3357 113.159 48.2331 113.159 51.2765C113.159 54.3198 115.034 56.2172 117.62 56.2172C119.653 56.2172 121.311 55.0524 121.686 53.0799H120.462C120.166 54.4137 118.962 55.1276 117.62 55.1276C115.785 55.1276 114.343 53.775 114.343 51.2765C114.343 48.7779 115.785 47.4253 117.62 47.4253C118.962 47.4253 120.166 48.1391 120.462 49.4729H121.686Z" fill="white"/>
<path d="M124.216 56.0853L125.234 53.3613H129.319L130.336 56.0853H131.618L127.908 46.4668H126.644L122.933 56.0853H124.216ZM125.618 52.3281L127.236 47.9885H127.316L128.934 52.3281H125.618Z" fill="white"/>
<path d="M133.332 56.0853H134.556V52.5723H136.766C139.12 52.5723 140.181 51.2103 140.181 49.5101C140.181 47.8101 139.12 46.4668 136.747 46.4668H133.332V56.0853ZM134.556 51.5391V47.5001H136.707C138.35 47.5001 138.977 48.3549 138.977 49.5101C138.977 50.6655 138.35 51.5391 136.726 51.5391H134.556Z" fill="white"/>
<path d="M143.515 46.4668H142.291V56.0853H143.515V46.4668Z" fill="white"/>
<path d="M145.555 47.5001H148.734V56.0853H149.957V47.5001H153.135V46.4668H145.555V47.5001Z" fill="white"/>
<path d="M153.701 56.0853L154.718 53.3613H158.803L159.82 56.0853H161.103L157.392 46.4668H156.129L152.418 56.0853H153.701ZM155.102 52.3281L156.721 47.9885H156.8L158.419 52.3281H155.102Z" fill="white"/>
<path d="M162.608 56.0853H168.529V55.0521H163.832V46.4668H162.608V56.0853Z" fill="white"/>
</svg>
