<svg width="166" height="45" viewBox="0 0 166 45" fill="none" xmlns="http://www.w3.org/2000/svg">
<path fill-rule="evenodd" clip-rule="evenodd" d="M10.3846 21.9229H16.1538V5.76904H10.3846V21.9229ZM20.7692 33.4614H26.5385V11.5383H20.7692V33.4614ZM83.0769 21.9229H88.8462V10.3844H83.0769V21.9229ZM62.3077 33.4614H68.0769V11.5383H62.3077V33.4614ZM72.6923 39.2306H78.4615V17.3075H72.6923V39.2306ZM0 33.4614H5.76923V21.9229H0V33.4614Z" fill="#86858D"/>
<path fill-rule="evenodd" clip-rule="evenodd" d="M51.9232 44.9994H57.6924V17.3071H51.9232V44.9994Z" fill="white"/>
<path fill-rule="evenodd" clip-rule="evenodd" d="M31.1539 11.5385H36.9232V0H31.1539V11.5385Z" fill="white"/>
<path fill-rule="evenodd" clip-rule="evenodd" d="M31.1539 44.9994H36.9232V17.3071H31.1539V44.9994Z" fill="white"/>
<path fill-rule="evenodd" clip-rule="evenodd" d="M41.5386 45H47.3078V0H41.5386V45Z" fill="white"/>
<path fill-rule="evenodd" clip-rule="evenodd" d="M51.9232 11.5385H57.6924V0H51.9232V11.5385Z" fill="white"/>
<path fill-rule="evenodd" clip-rule="evenodd" d="M159.981 43.5112V33.3112H158.885V44.4689H165.231V43.5227H159.981V43.5112ZM153.531 37.3727C153.923 38.3304 154.327 39.3573 154.731 40.465H149.966C150.381 39.3573 150.773 38.3304 151.154 37.3842C151.535 36.4265 151.927 35.4919 152.331 34.5689C152.747 35.4804 153.139 36.4266 153.531 37.3727ZM157.385 44.4573C156.935 43.3035 156.531 42.2189 156.15 41.215C155.781 40.2112 155.412 39.265 155.043 38.365C154.685 37.465 154.316 36.6112 153.97 35.7804C153.612 34.9496 153.243 34.1304 152.85 33.2996H151.881C151.489 34.1304 151.108 34.9612 150.75 35.7804C150.393 36.5996 150.035 37.465 149.677 38.365C149.32 39.265 148.95 40.2112 148.57 41.215C148.189 42.2189 147.797 43.3035 147.37 44.4573H148.512C148.708 43.915 148.904 43.3842 149.077 42.8766C149.25 42.3689 149.435 41.8727 149.62 41.3996H155.066C155.227 41.8727 155.4 42.3689 155.573 42.8766C155.758 43.3842 155.943 43.9035 156.162 44.4573H157.385ZM138.981 33.3112V34.2573H142.558V44.4573H143.654V34.2573H147.231V33.3112H138.981ZM135.45 44.4573H136.547V33.2996H135.45V44.4573ZM129.462 34.2689C129.877 34.3381 130.258 34.4766 130.581 34.6612C130.904 34.8458 131.17 35.0996 131.366 35.4227C131.562 35.7458 131.666 36.1496 131.666 36.6458C131.666 37.165 131.573 37.5804 131.389 37.915C131.204 38.2496 130.95 38.5035 130.604 38.6996C130.27 38.8842 129.854 39.0112 129.381 39.0804C128.908 39.1496 128.366 39.1842 127.777 39.1842H126.393V34.2689C126.6 34.2458 126.843 34.2227 127.12 34.1996C127.408 34.1766 127.754 34.1535 128.158 34.1535C128.608 34.165 129.035 34.1996 129.462 34.2689ZM126.67 33.2881C126.15 33.3342 125.7 33.415 125.308 33.5189V44.4573H126.404V40.1419H127.916C128.677 40.1419 129.358 40.0842 129.97 39.9573C130.581 39.8304 131.089 39.6342 131.504 39.3573C131.92 39.0804 132.243 38.7227 132.473 38.2842C132.704 37.8342 132.808 37.3035 132.808 36.6689C132.808 35.5612 132.427 34.7073 131.654 34.1073C130.881 33.5073 129.704 33.2073 128.123 33.2073C127.673 33.2073 127.189 33.2304 126.67 33.2881ZM119.493 37.3727C119.885 38.3304 120.289 39.3573 120.693 40.465H115.927C116.343 39.3573 116.735 38.3304 117.116 37.3842C117.497 36.4265 117.889 35.4919 118.293 34.5689C118.708 35.4804 119.1 36.4266 119.493 37.3727ZM123.347 44.4573C122.897 43.3035 122.493 42.2189 122.112 41.215C121.743 40.2112 121.373 39.265 121.004 38.365C120.647 37.465 120.277 36.6112 119.931 35.7804C119.573 34.9496 119.204 34.1304 118.812 33.2996H117.843C117.45 34.1304 117.07 34.9612 116.712 35.7804C116.354 36.5996 115.997 37.465 115.639 38.365C115.281 39.265 114.912 40.2112 114.531 41.215C114.15 42.2189 113.758 43.3035 113.331 44.4573H114.473C114.67 43.915 114.866 43.3842 115.039 42.8766C115.212 42.3689 115.397 41.8727 115.581 41.3996H121.027C121.189 41.8727 121.362 42.3689 121.535 42.8766C121.708 43.3842 121.904 43.9035 122.123 44.4573H123.347ZM110.193 44.6304C110.562 44.5842 110.885 44.515 111.162 44.4458C111.439 44.3766 111.67 44.2958 111.854 44.2266C112.039 44.1573 112.166 44.0996 112.235 44.0419L111.923 43.1073C111.681 43.2458 111.312 43.3842 110.839 43.5227C110.366 43.6612 109.766 43.7189 109.062 43.7189C108.416 43.7189 107.85 43.6035 107.343 43.3842C106.847 43.1535 106.42 42.8419 106.085 42.415C105.739 41.9996 105.485 41.4919 105.3 40.8919C105.127 40.2919 105.035 39.6342 105.035 38.8842C105.035 38.1689 105.127 37.5112 105.3 36.9227C105.473 36.3342 105.739 35.8265 106.097 35.3996C106.454 34.9727 106.893 34.6381 107.412 34.4073C107.931 34.1765 108.543 34.0496 109.235 34.0496C109.847 34.0496 110.354 34.1304 110.77 34.2804C111.185 34.4304 111.52 34.5919 111.797 34.7535L112.154 33.8073C112.062 33.7381 111.923 33.6689 111.739 33.5881C111.554 33.5073 111.335 33.4265 111.081 33.3458C110.827 33.265 110.527 33.1958 110.181 33.1496C109.835 33.0919 109.454 33.0689 109.039 33.0689C108.358 33.0689 107.712 33.1958 107.089 33.4496C106.466 33.7035 105.923 34.0727 105.45 34.5689C104.977 35.065 104.597 35.6766 104.32 36.3919C104.031 37.1189 103.893 37.9496 103.893 38.8727C103.893 39.8073 104.02 40.6381 104.285 41.365C104.55 42.0919 104.908 42.7035 105.358 43.1881C105.82 43.6842 106.35 44.0535 106.962 44.3189C107.585 44.5727 108.243 44.6996 108.97 44.6996C109.431 44.6996 109.835 44.6766 110.193 44.6304ZM117.277 27.7265H118.835V16.5688H117.277V27.7265ZM107.066 16.5804V17.9304H110.573V27.7265H112.131V17.9304H115.639V16.5804H107.066ZM103.858 27.7265H105.416V16.5688H103.858V27.7265Z" fill="white"/>
</svg>
