<svg width="166" height="33" viewBox="0 0 166 33" fill="none" xmlns="http://www.w3.org/2000/svg">
<g clip-path="url(#clip0)">
<path d="M11.8431 1.839C17.0551 9.39937 33.5087 32.7957 33.5087 32.7957H25.6396C23.9023 32.7957 22.4716 31.774 21.654 30.7524C15.2156 21.5572 0.0904846 -0.102173 0.0904846 -0.102173H7.75523C9.18597 -6.49691e-06 10.9233 0.510824 11.8431 1.839Z" fill="#FEFEFE"/>
<path d="M21.9597 1.839C16.7477 9.39937 0.396271 32.7957 0.396271 32.7957H8.2654C10.0028 32.7957 11.4335 31.774 12.2511 30.7524C18.6894 21.5572 33.8145 -0.102173 33.8145 -0.102173H26.1498C24.6168 -6.49691e-06 22.9817 0.510824 21.9597 1.839Z" fill="#FEFEFE"/>
<path d="M22.1646 16.5511C23.0843 17.8794 24.0041 19.2075 24.9239 20.4335L19.7119 27.8916C18.7921 26.6657 17.9745 25.4397 16.9526 24.0093L22.1646 16.5511Z" fill="#FEFEFE"/>
<path d="M66.4171 7.25388H76.6367V32.8979H85.2212V7.25388H95.3388V0H66.4171V7.25388Z" fill="#FEFEFE"/>
<path d="M46.0796 20.0248H60.285V12.7709H46.0796V7.25388H62.5333V0H37.4951V32.8979H62.5333V25.644H46.0796V20.0248Z" fill="#FEFEFE"/>
<path d="M126.506 10.1146C126.506 3.06504 121.601 0 115.061 0H99.4244V32.8979H108.009V20.4334H110.768L118.638 32.8979H128.346L119.149 19.4117C123.85 18.5945 126.506 14.6099 126.506 10.1146ZM112.199 14.5077H107.907V6.43656H112.199C114.959 6.43656 118.127 6.94739 118.127 10.5232C118.127 14.0991 115.061 14.5077 112.199 14.5077Z" fill="#FEFEFE"/>
<path d="M152.773 0.204346H142.554L130.495 32.8978H139.181L141.123 27.0743H153.999L155.941 32.8978H164.629L152.773 0.204346ZM143.371 20.6378L147.664 8.17338H147.765L151.956 20.6378H143.371Z" fill="#FEFEFE"/>
</g>
<defs>
<clipPath id="clip0">
<rect width="165.047" height="33" fill="white" transform="translate(0.0904846)"/>
</clipPath>
</defs>
</svg>
