<svg width="485" height="191" viewBox="0 0 485 191" fill="none" xmlns="http://www.w3.org/2000/svg">
<path fill-rule="evenodd" clip-rule="evenodd" d="M421 0H424.111C424.111 24.2809 443.518 44.0292 467.666 44.5803V47.6922C441.849 47.1416 421.08 26.0808 421 0.150605V3.11193C396.852 3.66301 377.445 23.4113 377.445 47.6923H374.334C374.334 21.6931 395.133 0.551806 421 0ZM467.666 7.18567C464.148 6.68248 461.444 3.65705 461.444 0H458.333C458.333 5.37735 462.426 9.79876 467.666 10.3191V7.18567ZM467.666 13.4421C460.705 12.9125 455.222 7.09661 455.222 0H452.111C452.111 8.81546 458.986 16.0252 467.666 16.5605V13.4421ZM467.666 19.6767C457.266 19.1374 449 10.5341 449 0H445.889C445.889 12.2526 455.547 22.2493 467.666 22.7914V19.6767ZM467.666 25.9053C453.829 25.361 442.778 13.971 442.778 0H439.666C439.666 15.6894 452.11 28.4725 467.666 29.0186V25.9053ZM467.666 32.1314C450.391 31.584 436.555 17.4078 436.555 0H433.444C433.444 19.1261 448.673 34.6954 467.666 35.2439V32.1314ZM467.666 38.3562C446.954 37.8067 430.333 20.8444 430.333 0H427.222C427.222 22.5627 445.236 40.918 467.666 41.4684V38.3562ZM414.778 47.6923C414.778 44.0352 417.482 41.0098 421 40.5066V37.3732C415.76 37.8935 411.667 42.3149 411.667 47.6923H414.778ZM408.556 47.6923C408.556 40.5956 414.039 34.7797 421 34.2502V31.1317C412.32 31.667 405.445 38.8768 405.445 47.6923H408.556ZM402.334 47.6923C402.334 37.1582 410.6 28.5548 421 28.0156V24.9008C408.881 25.443 399.223 35.4397 399.223 47.6923H402.334ZM396.112 47.6923C396.112 33.7212 407.163 22.3313 421 21.787V18.6737C405.444 19.2197 393.001 32.0028 393.001 47.6923H396.112ZM389.889 47.6923C389.889 30.2845 403.725 16.1083 421 15.5608V12.4483C402.007 12.9969 386.778 28.5662 386.778 47.6923H389.889ZM383.667 47.6923C383.667 26.8479 400.288 9.88557 421 9.33601V6.2239C398.57 6.77427 380.556 25.1296 380.556 47.6923H383.667ZM467.667 47.7144C493.534 48.2662 514.333 69.4074 514.333 95.4066L514.334 92.2947C538.482 91.7436 557.889 71.9953 557.889 47.7144H561C561 73.7136 540.2 94.8549 514.333 95.4066L517.444 95.4065C517.444 119.687 536.851 139.436 560.999 139.987V143.099C535.182 142.548 514.413 121.487 514.333 95.5559V98.5184C490.185 99.0695 470.778 118.818 470.778 143.099H467.667C467.667 117.1 488.467 95.9587 514.333 95.4066H511.222C511.222 71.1256 491.815 51.3773 467.667 50.8262V47.8637C467.587 73.7936 446.82 94.8545 421.003 95.4064H424.11C424.11 119.687 443.517 139.436 467.665 139.987V143.099C441.847 142.548 421.078 121.486 420.999 95.5546V98.5183C396.851 99.0694 377.444 118.818 377.444 143.099H374.333C374.333 117.101 395.13 95.961 420.994 95.4065H417.889C417.889 71.1256 398.482 51.3773 374.334 50.8262V47.7144C400.201 48.2661 421 69.4073 421 95.4064L421.001 92.2946C445.149 91.7436 464.556 71.9953 464.556 47.7143L467.667 47.7144C467.667 47.7144 467.667 47.7144 467.667 47.7144ZM421.001 54.9C424.519 54.3968 427.223 51.3714 427.223 47.7143H430.334C430.334 53.0917 426.241 57.5131 421.001 58.0334V54.9ZM421.001 61.1564C427.962 60.6268 433.445 54.8109 433.445 47.7143H436.556C436.556 56.5298 429.682 63.7396 421.001 64.2749V61.1564ZM421.001 67.391C431.401 66.8517 439.667 58.2484 439.667 47.7143H442.778C442.778 59.9669 433.12 69.9636 421.001 70.5058V67.391ZM421.001 73.6196C434.838 73.0753 445.889 61.6854 445.889 47.7143H449.001C449.001 63.4037 436.557 76.1868 421.001 76.7329V73.6196ZM421.001 79.8457C438.276 79.2983 452.112 65.1221 452.112 47.7143H455.223C455.223 66.8404 439.994 82.4097 421.001 82.9583V79.8457ZM421.001 86.0706C441.713 85.521 458.334 68.5587 458.334 47.7143H461.445C461.445 70.277 443.431 88.6323 421.001 89.1827V86.0706ZM374.334 88.2209C377.852 88.7241 380.556 91.7495 380.556 95.4065H383.667C383.667 90.0292 379.574 85.6078 374.334 85.0875V88.2209ZM374.334 81.9645C381.295 82.494 386.778 88.3099 386.778 95.4065H389.889C389.889 86.5911 383.014 79.3813 374.334 78.846V81.9645ZM374.334 75.7299C384.734 76.2691 393 84.8725 393 95.4065H396.111C396.111 83.1539 386.453 73.1573 374.334 72.6151V75.7299ZM374.334 69.5012C388.171 70.0456 399.222 81.4355 399.222 95.4065H402.334C402.334 79.7171 389.89 66.934 374.334 66.388V69.5012ZM374.334 63.2751C391.609 63.8226 405.445 77.9988 405.445 95.4065H408.556C408.556 76.2805 393.327 60.7112 374.334 60.1626V63.2751ZM374.334 57.0503C395.046 57.5999 411.667 74.5622 411.667 95.4065H414.778C414.778 72.8439 396.764 54.4886 374.334 53.9382V57.0503ZM461.443 95.4064C461.443 99.0635 464.147 102.089 467.665 102.592V105.726C462.425 105.205 458.332 100.784 458.332 95.4064H461.443ZM455.221 95.4064C455.221 102.503 460.704 108.319 467.665 108.848V111.967C458.985 111.432 452.11 104.222 452.11 95.4064H455.221ZM448.999 95.4064C448.999 105.941 457.265 114.544 467.665 115.083V118.198C455.546 117.656 445.888 107.659 445.888 95.4064H448.999ZM442.777 95.4064C442.777 109.377 453.828 120.767 467.665 121.312V124.425C452.109 123.879 439.665 111.096 439.665 95.4064H442.777ZM436.554 95.4064C436.554 112.814 450.39 126.99 467.665 127.538V130.65C448.672 130.102 433.443 114.533 433.443 95.4064H436.554ZM430.332 95.4064C430.332 116.251 446.953 133.213 467.665 133.763V136.875C445.235 136.324 427.221 117.969 427.221 95.4064H430.332ZM420.999 135.913C417.481 136.416 414.777 139.442 414.777 143.099H411.666C411.666 137.721 415.759 133.3 420.999 132.78V135.913ZM420.999 129.657C414.038 130.186 408.555 136.002 408.555 143.099H405.444C405.444 134.283 412.319 127.073 420.999 126.538V129.657ZM420.999 123.422C410.599 123.961 402.333 132.565 402.333 143.099H399.222C399.222 130.846 408.88 120.849 420.999 120.307V123.422ZM420.999 117.193C407.162 117.738 396.111 129.128 396.111 143.099H393C393 127.409 405.443 114.626 420.999 114.08V117.193ZM420.999 110.967C403.724 111.515 389.888 125.691 389.888 143.099H386.777C386.777 123.973 402.006 108.403 420.999 107.855V110.967ZM420.999 104.742C400.287 105.292 383.666 122.254 383.666 143.099H380.555C380.555 120.536 398.569 102.181 420.999 101.63V104.742ZM467.666 143.121C467.666 169.119 446.868 190.26 421.002 190.813H424.11C424.11 215.094 443.517 234.842 467.665 235.393V238.505C441.847 237.954 421.078 216.892 420.999 190.961V193.925C396.851 194.476 377.444 214.224 377.444 238.505H374.333C374.333 212.507 395.131 191.366 420.996 190.813H417.888C417.888 166.532 398.481 146.784 374.333 146.233V143.121C400.2 143.672 420.999 164.814 420.999 190.813L421 187.701C445.148 187.15 464.555 167.402 464.555 143.121H467.666ZM427.222 143.121C427.222 146.778 424.518 149.803 421 150.306V153.44C426.24 152.92 430.333 148.498 430.333 143.121H427.222ZM433.444 143.121C433.444 150.217 427.961 156.033 421 156.563V159.681C429.68 159.146 436.555 151.936 436.555 143.121H433.444ZM439.666 143.121C439.666 153.655 431.4 162.258 421 162.797V165.912C433.119 165.37 442.777 155.373 442.777 143.121H439.666ZM445.888 143.121C445.888 157.092 434.837 168.482 421 169.026V172.139C436.556 171.593 449 158.81 449 143.121H445.888ZM452.111 143.121C452.111 160.529 438.275 174.705 421 175.252V178.365C439.993 177.816 455.222 162.247 455.222 143.121H452.111ZM458.333 143.121C458.333 163.965 441.712 180.927 421 181.477V184.589C443.43 184.039 461.444 165.683 461.444 143.121H458.333ZM380.555 190.813C380.555 187.156 377.851 184.13 374.333 183.627V180.494C379.573 181.014 383.666 185.436 383.666 190.813H380.555ZM386.777 190.813C386.777 183.716 381.294 177.9 374.333 177.371V174.252C383.013 174.788 389.888 181.997 389.888 190.813H386.777ZM392.999 190.813C392.999 180.279 384.733 171.676 374.333 171.136V168.022C386.452 168.564 396.11 178.56 396.11 190.813H392.999ZM399.221 190.813C399.221 176.842 388.17 165.452 374.333 164.908V161.794C389.889 162.34 402.333 175.124 402.333 190.813H399.221ZM405.444 190.813C405.444 173.405 391.608 159.229 374.333 158.682V155.569C393.326 156.118 408.555 171.687 408.555 190.813H405.444ZM411.666 190.813C411.666 169.969 395.045 153.006 374.333 152.457V149.345C396.763 149.895 414.777 168.25 414.777 190.813H411.666ZM467.665 197.999C464.147 197.495 461.443 194.47 461.443 190.813H458.332C458.332 196.19 462.425 200.612 467.665 201.132V197.999ZM467.665 204.255C460.704 203.725 455.221 197.91 455.221 190.813H452.11C452.11 199.628 458.985 206.838 467.665 207.373V204.255ZM467.665 210.49C457.265 209.95 448.999 201.347 448.999 190.813H445.888C445.888 203.065 455.546 213.062 467.665 213.604V210.49ZM467.665 216.718C453.828 216.174 442.777 204.784 442.777 190.813H439.665C439.665 206.502 452.109 219.285 467.665 219.831V216.718ZM467.665 222.944C450.39 222.397 436.554 208.221 436.554 190.813H433.443C433.443 209.939 448.672 225.508 467.665 226.057V222.944ZM467.665 229.169C446.953 228.62 430.332 211.657 430.332 190.813H427.221C427.221 213.376 445.235 231.731 467.665 232.281V229.169ZM414.777 238.505C414.777 234.848 417.481 231.823 420.999 231.319V228.186C415.759 228.706 411.666 233.128 411.666 238.505H414.777ZM408.555 238.505C408.555 231.408 414.038 225.593 420.999 225.063V221.945C412.319 222.48 405.444 229.69 405.444 238.505H408.555ZM402.333 238.505C402.333 227.971 410.599 219.368 420.999 218.828V215.714C408.88 216.256 399.222 226.252 399.222 238.505H402.333ZM396.111 238.505C396.111 224.534 407.162 213.144 420.999 212.6V209.486C405.443 210.033 393 222.816 393 238.505H396.111ZM389.888 238.505C389.888 221.097 403.724 206.921 420.999 206.374V203.261C402.006 203.81 386.777 219.379 386.777 238.505H389.888ZM383.666 238.505C383.666 217.661 400.287 200.698 420.999 200.149V197.037C398.569 197.587 380.555 215.942 380.555 238.505H383.666ZM421 286.219C446.867 285.668 467.666 264.526 467.666 238.527H464.555C464.555 262.808 445.148 282.556 421 283.108V286.219ZM421 286.219C421 260.22 400.2 239.079 374.333 238.527V241.639C398.481 242.19 417.888 261.938 417.888 286.219H420.998C395.131 286.772 374.333 307.913 374.333 333.912H377.444C377.444 309.631 396.851 289.882 420.999 289.331V286.367C421.078 312.299 441.847 333.361 467.665 333.911V330.8C443.517 330.249 424.11 310.5 424.11 286.219L421 286.219ZM421 245.713C424.518 245.21 427.222 242.184 427.222 238.527H430.333C430.333 243.905 426.24 248.326 421 248.846V245.713ZM421 251.969C427.961 251.44 433.444 245.624 433.444 238.527H436.555C436.555 247.343 429.68 254.552 421 255.088V251.969ZM421 258.204C431.4 257.665 439.666 249.061 439.666 238.527H442.777C442.777 250.78 433.119 260.776 421 261.319V258.204ZM421 264.432C434.837 263.888 445.888 252.498 445.888 238.527H449C449 254.217 436.556 267 421 267.546V264.432ZM421 270.659C438.275 270.111 452.111 255.935 452.111 238.527H455.222C455.222 257.653 439.993 273.223 421 273.771V270.659ZM421 276.883C441.712 276.334 458.333 259.372 458.333 238.527H461.444C461.444 261.09 443.43 279.445 421 279.996V276.883ZM374.333 279.034C377.851 279.537 380.555 282.562 380.555 286.219H383.666C383.666 280.842 379.573 276.421 374.333 275.9V279.034ZM374.333 272.777C381.294 273.307 386.777 279.123 386.777 286.219H389.888C389.888 277.404 383.013 270.194 374.333 269.659V272.777ZM374.333 266.543C384.733 267.082 392.999 275.685 392.999 286.219H396.11C396.11 273.967 386.452 263.97 374.333 263.428V266.543ZM374.333 260.314C388.17 260.858 399.221 272.248 399.221 286.219H402.333C402.333 270.53 389.889 257.747 374.333 257.201V260.314ZM374.333 254.088C391.608 254.635 405.444 268.812 405.444 286.219H408.555C408.555 267.093 393.326 251.524 374.333 250.975V254.088ZM374.333 247.863C395.045 248.413 411.666 265.375 411.666 286.219H414.777C414.777 263.657 396.763 245.301 374.333 244.751V247.863ZM467.665 293.405C464.147 292.902 461.443 289.876 461.443 286.219H458.332C458.332 291.597 462.425 296.018 467.665 296.538V293.405ZM467.665 299.661C460.704 299.132 455.221 293.316 455.221 286.219H452.11C452.11 295.035 458.985 302.245 467.665 302.78V299.661ZM467.665 305.896C457.265 305.357 448.999 296.753 448.999 286.219H445.888C445.888 298.472 455.546 308.469 467.665 309.011V305.896ZM467.665 312.125C453.828 311.58 442.777 300.19 442.777 286.219H439.665C439.665 301.909 452.109 314.692 467.665 315.238V312.125ZM467.665 318.351C450.39 317.803 436.554 303.627 436.554 286.219H433.443C433.443 305.345 448.672 320.915 467.665 321.463V318.351ZM467.665 324.576C446.953 324.026 430.332 307.064 430.332 286.219H427.221C427.221 308.782 445.235 327.137 467.665 327.688V324.576ZM414.777 333.912C414.777 330.254 417.481 327.229 420.999 326.726V323.592C415.759 324.113 411.666 328.534 411.666 333.912H414.777ZM408.555 333.912C408.555 326.815 414.038 320.999 420.999 320.469V317.351C412.319 317.886 405.444 325.096 405.444 333.912H408.555ZM402.333 333.912C402.333 323.377 410.599 314.774 420.999 314.235V311.12C408.88 311.662 399.222 321.659 399.222 333.912H402.333ZM396.111 333.912C396.111 319.94 407.162 308.551 420.999 308.006V304.893C405.443 305.439 393 318.222 393 333.912H396.111ZM389.888 333.912C389.888 316.504 403.724 302.328 420.999 301.78V298.668C402.006 299.216 386.777 314.785 386.777 333.912H389.888ZM383.666 333.912C383.666 313.067 400.287 296.105 420.999 295.555V292.443C398.569 292.994 380.555 311.349 380.555 333.912H383.666ZM421 381.626C446.867 381.074 467.666 359.933 467.666 333.934H464.555C464.555 358.215 445.148 377.963 421 378.514V381.626ZM421 341.119C424.518 340.616 427.222 337.591 427.222 333.934H430.333C430.333 339.311 426.24 343.732 421 344.253V341.119ZM421 347.376C427.961 346.846 433.444 341.03 433.444 333.934H436.555C436.555 342.749 429.68 349.959 421 350.494V347.376ZM421 353.61C431.4 353.071 439.666 344.468 439.666 333.934H442.777C442.777 346.186 433.119 356.183 421 356.725V353.61ZM421 359.839C434.837 359.295 445.888 347.905 445.888 333.934H449C449 349.623 436.556 362.406 421 362.952V359.839ZM421 366.065C438.275 365.518 452.111 351.341 452.111 333.934H455.222C455.222 353.06 439.993 368.629 421 369.178V366.065ZM421 372.29C441.712 371.74 458.333 354.778 458.333 333.934H461.444C461.444 356.496 443.43 374.852 421 375.402V372.29ZM374.333 333.934C400.2 334.485 421 355.627 421 381.626H417.888C417.888 357.345 398.481 337.597 374.333 337.046V333.934ZM374.333 374.44C377.851 374.943 380.555 377.969 380.555 381.626H383.666C383.666 376.248 379.573 371.827 374.333 371.307V374.44ZM374.333 368.184C381.294 368.713 386.777 374.529 386.777 381.626H389.888C389.888 372.81 383.013 365.601 374.333 365.065V368.184ZM374.333 361.949C384.733 362.488 392.999 371.092 392.999 381.626H396.11C396.11 369.373 386.452 359.377 374.333 358.834V361.949ZM374.333 355.721C388.17 356.265 399.221 367.655 399.221 381.626H402.333C402.333 365.936 389.889 353.153 374.333 352.607V355.721ZM374.333 349.494C391.608 350.042 405.444 364.218 405.444 381.626H408.555C408.555 362.5 393.326 346.93 374.333 346.382V349.494ZM374.333 343.27C395.045 343.819 411.666 360.781 411.666 381.626H414.777C414.777 359.063 396.763 340.708 374.333 340.157V343.27ZM514.333 3.016e-05H517.444C517.444 24.281 536.851 44.0293 560.999 44.5804V47.6922C535.182 47.1416 514.413 26.0802 514.333 0.149396V3.11193C490.185 3.663 470.778 23.4113 470.778 47.6923L467.666 47.6922C467.666 21.693 488.466 0.551834 514.333 3.016e-05ZM560.999 7.1857C557.481 6.68251 554.777 3.65708 554.777 3.016e-05H551.666C551.666 5.37737 555.759 9.79879 560.999 10.3191V7.1857ZM560.999 13.4421C554.038 12.9125 548.555 7.09664 548.555 3.016e-05H545.444C545.444 8.81549 552.319 16.0253 560.999 16.5606V13.4421ZM560.999 19.6767C550.599 19.1374 542.333 10.5341 542.333 3.016e-05H539.222C539.222 12.2526 548.88 22.2493 560.999 22.7915V19.6767ZM560.999 25.9053C547.162 25.361 536.111 13.9711 536.111 3.016e-05H532.999C532.999 15.6894 545.443 28.4725 560.999 29.0186V25.9053ZM560.999 32.1314C543.724 31.584 529.888 17.4078 529.888 3.016e-05H526.777C526.777 19.1261 542.006 34.6954 560.999 35.244V32.1314ZM560.999 38.3563C540.287 37.8067 523.666 20.8444 523.666 3.016e-05H520.555C520.555 22.5627 538.569 40.918 560.999 41.4684V38.3563ZM508.111 47.6923C508.111 44.0352 510.815 41.0098 514.333 40.5066V37.3732C509.093 37.8935 505 42.3149 505 47.6923H508.111ZM501.889 47.6923C501.889 40.5956 507.372 34.7797 514.333 34.2502V31.1317C505.653 31.667 498.778 38.8768 498.778 47.6923H501.889ZM495.667 47.6923C495.667 37.1582 503.933 28.5548 514.333 28.0156V24.9008C502.214 25.443 492.556 35.4397 492.556 47.6923H495.667ZM489.445 47.6923C489.445 33.7212 500.496 22.3313 514.333 21.7869V18.6737C498.777 19.2197 486.334 32.0028 486.334 47.6923H489.445ZM483.222 47.6923C483.222 30.2845 497.058 16.1083 514.333 15.5608V12.4483C495.34 12.9969 480.111 28.5662 480.111 47.6923H483.222ZM477 47.6923C477 26.8479 493.621 9.88557 514.333 9.33601V6.2239C491.903 6.77427 473.889 25.1296 473.889 47.6923H477ZM514.334 54.9C517.852 54.3968 520.556 51.3714 520.556 47.7144H523.667C523.667 53.0917 519.574 57.5131 514.334 58.0334V54.9ZM514.334 61.1564C521.295 60.6269 526.778 54.811 526.778 47.7144H529.889C529.889 56.5298 523.014 63.7396 514.334 64.2749V61.1564ZM514.334 67.391C524.734 66.8518 533 58.2484 533 47.7144H536.111C536.111 59.967 526.453 69.9636 514.334 70.5058V67.391ZM514.334 73.6197C528.171 73.0753 539.222 61.6854 539.222 47.7144H542.334C542.334 63.4038 529.89 76.1869 514.334 76.7329V73.6197ZM514.334 79.8458C531.609 79.2983 545.445 65.1221 545.445 47.7144H548.556C548.556 66.8404 533.327 82.4097 514.334 82.9583V79.8458ZM514.334 86.0706C535.046 85.521 551.667 68.5587 551.667 47.7144H554.778C554.778 70.277 536.764 88.6323 514.334 89.1827V86.0706ZM467.667 88.2209C471.185 88.7241 473.889 91.7495 473.889 95.4066H477C477 90.0292 472.907 85.6078 467.667 85.0875V88.2209ZM467.667 81.9645C474.628 82.494 480.111 88.3099 480.111 95.4066H483.222C483.222 86.5911 476.347 79.3813 467.667 78.846V81.9645ZM467.667 75.7299C478.067 76.2691 486.333 84.8725 486.333 95.4066H489.444C489.444 83.154 479.786 73.1573 467.667 72.6151V75.7299ZM467.667 69.5013C481.504 70.0456 492.555 81.4355 492.555 95.4066H495.667C495.667 79.7171 483.223 66.934 467.667 66.388V69.5013ZM467.667 63.2751C484.942 63.8226 498.778 77.9988 498.778 95.4066H501.889C501.889 76.2805 486.66 60.7112 467.667 60.1626V63.2751ZM467.667 57.0503C488.379 57.5999 505 74.5622 505 95.4066H508.111C508.111 72.8439 490.097 54.4886 467.667 53.9382V57.0503ZM554.777 95.4065C554.777 99.0636 557.481 102.089 560.999 102.592V105.726C555.759 105.205 551.666 100.784 551.666 95.4065H554.777ZM548.555 95.4065C548.555 102.503 554.038 108.319 560.999 108.849V111.967C552.319 111.432 545.444 104.222 545.444 95.4065H548.555ZM542.333 95.4065C542.333 105.941 550.599 114.544 560.999 115.083V118.198C548.88 117.656 539.222 107.659 539.222 95.4065H542.333ZM536.111 95.4065C536.111 109.378 547.162 120.767 560.999 121.312V124.425C545.443 123.879 532.999 111.096 532.999 95.4065H536.111ZM529.888 95.4065C529.888 112.814 543.724 126.99 560.999 127.538V130.65C542.006 130.102 526.777 114.533 526.777 95.4065H529.888ZM523.666 95.4065C523.666 116.251 540.287 133.213 560.999 133.763V136.875C538.569 136.324 520.555 117.969 520.555 95.4065H523.666ZM514.333 135.913C510.815 136.416 508.111 139.442 508.111 143.099H505C505 137.721 509.093 133.3 514.333 132.78V135.913ZM514.333 129.657C507.372 130.186 501.889 136.002 501.889 143.099H498.778C498.778 134.283 505.653 127.073 514.333 126.538V129.657ZM514.333 123.422C503.933 123.961 495.667 132.565 495.667 143.099H492.556C492.556 130.846 502.214 120.849 514.333 120.307V123.422ZM514.333 117.193C500.496 117.738 489.445 129.128 489.445 143.099H486.334C486.334 127.409 498.777 114.626 514.333 114.08V117.193ZM514.333 110.967C497.058 111.515 483.222 125.691 483.222 143.099H480.111C480.111 123.973 495.34 108.403 514.333 107.855V110.967ZM514.333 104.742C493.621 105.292 477 122.254 477 143.099H473.889C473.889 120.536 491.903 102.181 514.333 101.63V104.742ZM561 143.121C561 169.12 540.201 190.261 514.334 190.813L517.444 190.813C517.444 215.094 536.851 234.842 560.999 235.393V238.505C535.182 237.954 514.413 216.893 514.333 190.962V193.925C490.185 194.476 470.778 214.224 470.778 238.505H467.667C467.667 212.506 488.465 191.366 514.332 190.813H511.222C511.222 166.532 491.815 146.784 467.667 146.233L467.666 143.121C493.533 143.672 514.334 164.814 514.334 190.813V187.701C538.482 187.15 557.889 167.402 557.889 143.121H561ZM520.556 143.121C520.556 146.778 517.852 149.803 514.334 150.306V153.44C519.574 152.92 523.667 148.498 523.667 143.121H520.556ZM526.778 143.121C526.778 150.217 521.295 156.033 514.334 156.563V159.681C523.014 159.146 529.889 151.936 529.889 143.121H526.778ZM533 143.121C533 153.655 524.734 162.258 514.334 162.797V165.912C526.453 165.37 536.111 155.373 536.111 143.121H533ZM539.222 143.121C539.222 157.092 528.171 168.482 514.334 169.026V172.139C529.89 171.593 542.334 158.81 542.334 143.121H539.222ZM545.445 143.121C545.445 160.529 531.609 174.705 514.334 175.252V178.365C533.327 177.816 548.556 162.247 548.556 143.121H545.445ZM551.667 143.121C551.667 163.965 535.046 180.927 514.334 181.477V184.589C536.764 184.039 554.778 165.683 554.778 143.121H551.667ZM473.889 190.813C473.889 187.156 471.185 184.131 467.667 183.627V180.494C472.907 181.014 477 185.436 477 190.813H473.889ZM480.111 190.813C480.111 183.716 474.628 177.9 467.667 177.371V174.252C476.347 174.788 483.222 181.998 483.222 190.813H480.111ZM486.333 190.813C486.333 180.279 478.067 171.676 467.667 171.136V168.022C479.786 168.564 489.444 178.56 489.444 190.813H486.333ZM492.555 190.813C492.555 176.842 481.504 165.452 467.667 164.908V161.794C483.223 162.34 495.667 175.124 495.667 190.813H492.555ZM498.778 190.813C498.778 173.405 484.942 159.229 467.667 158.682V155.569C486.66 156.118 501.889 171.687 501.889 190.813H498.778ZM505 190.813C505 169.969 488.379 153.006 467.667 152.457V149.345C490.097 149.895 508.111 168.25 508.111 190.813H505ZM560.999 197.999C557.481 197.495 554.777 194.47 554.777 190.813H551.666C551.666 196.19 555.759 200.612 560.999 201.132V197.999ZM560.999 204.255C554.038 203.725 548.555 197.91 548.555 190.813H545.444C545.444 199.628 552.319 206.838 560.999 207.373V204.255ZM560.999 210.49C550.599 209.95 542.333 201.347 542.333 190.813H539.222C539.222 203.066 548.88 213.062 560.999 213.604V210.49ZM560.999 216.718C547.162 216.174 536.111 204.784 536.111 190.813H532.999C532.999 206.502 545.443 219.285 560.999 219.831V216.718ZM560.999 222.944C543.724 222.397 529.888 208.221 529.888 190.813H526.777C526.777 209.939 542.006 225.508 560.999 226.057V222.944ZM560.999 229.169C540.287 228.62 523.666 211.657 523.666 190.813H520.555C520.555 213.376 538.569 231.731 560.999 232.281V229.169ZM508.111 238.505C508.111 234.848 510.815 231.823 514.333 231.319V228.186C509.093 228.706 505 233.128 505 238.505H508.111ZM501.889 238.505C501.889 231.409 507.372 225.593 514.333 225.063V221.945C505.653 222.48 498.778 229.69 498.778 238.505H501.889ZM495.667 238.505C495.667 227.971 503.933 219.368 514.333 218.828V215.714C502.214 216.256 492.556 226.253 492.556 238.505H495.667ZM489.445 238.505C489.445 224.534 500.496 213.144 514.333 212.6V209.487C498.777 210.033 486.334 222.816 486.334 238.505H489.445ZM483.222 238.505C483.222 221.097 497.058 206.921 514.333 206.374V203.261C495.34 203.81 480.111 219.379 480.111 238.505H483.222ZM477 238.505C477 217.661 493.621 200.698 514.333 200.149V197.037C491.903 197.587 473.889 215.942 473.889 238.505H477ZM514.334 286.219C540.201 285.668 561 264.526 561 238.527H557.889C557.889 262.808 538.482 282.556 514.334 283.108V286.219ZM514.334 286.219C488.467 286.771 467.667 307.912 467.667 333.912H470.778C470.778 309.631 490.185 289.882 514.333 289.331V286.369C514.413 312.299 535.182 333.361 560.999 333.911V330.8C536.851 330.249 517.444 310.5 517.444 286.219L514.334 286.219ZM511.222 286.219H514.334C514.334 260.22 493.533 239.079 467.666 238.527L467.667 241.639C491.815 242.19 511.222 261.938 511.222 286.219ZM514.334 245.713C517.852 245.21 520.556 242.184 520.556 238.527H523.667C523.667 243.905 519.574 248.326 514.334 248.846V245.713ZM514.334 251.969C521.295 251.44 526.778 245.624 526.778 238.527H529.889C529.889 247.343 523.014 254.552 514.334 255.088V251.969ZM514.334 258.204C524.734 257.665 533 249.061 533 238.527H536.111C536.111 250.78 526.453 260.776 514.334 261.319V258.204ZM514.334 264.432C528.171 263.888 539.222 252.498 539.222 238.527H542.334C542.334 254.217 529.89 267 514.334 267.546V264.432ZM514.334 270.659C531.609 270.111 545.445 255.935 545.445 238.527H548.556C548.556 257.653 533.327 273.223 514.334 273.771V270.659ZM514.334 276.883C535.046 276.334 551.667 259.372 551.667 238.527H554.778C554.778 261.09 536.764 279.445 514.334 279.996V276.883ZM467.667 279.034C471.185 279.537 473.889 282.562 473.889 286.219H477C477 280.842 472.907 276.421 467.667 275.9V279.034ZM467.667 272.777C474.628 273.307 480.111 279.123 480.111 286.219H483.222C483.222 277.404 476.347 270.194 467.667 269.659V272.777ZM467.667 266.543C478.067 267.082 486.333 275.685 486.333 286.219H489.444C489.444 273.967 479.786 263.97 467.667 263.428V266.543ZM467.667 260.314C481.504 260.858 492.555 272.248 492.555 286.219H495.667C495.667 270.53 483.223 257.747 467.667 257.201V260.314ZM467.667 254.088C484.942 254.635 498.778 268.812 498.778 286.219H501.889C501.889 267.093 486.66 251.524 467.667 250.975V254.088ZM467.667 247.863C488.379 248.413 505 265.375 505 286.219H508.111C508.111 263.657 490.097 245.301 467.667 244.751V247.863ZM560.999 293.405C557.481 292.902 554.777 289.876 554.777 286.219H551.666C551.666 291.597 555.759 296.018 560.999 296.538V293.405ZM560.999 299.661C554.038 299.132 548.555 293.316 548.555 286.219H545.444C545.444 295.035 552.319 302.245 560.999 302.78V299.661ZM560.999 305.896C550.599 305.357 542.333 296.753 542.333 286.219H539.222C539.222 298.472 548.88 308.469 560.999 309.011V305.896ZM560.999 312.125C547.162 311.58 536.111 300.19 536.111 286.219H532.999C532.999 301.909 545.443 314.692 560.999 315.238V312.125ZM560.999 318.351C543.724 317.803 529.888 303.627 529.888 286.219H526.777C526.777 305.345 542.006 320.915 560.999 321.463V318.351ZM560.999 324.576C540.287 324.026 523.666 307.064 523.666 286.219H520.555C520.555 308.782 538.569 327.137 560.999 327.688V324.576ZM508.111 333.912C508.111 330.254 510.815 327.229 514.333 326.726V323.592C509.093 324.113 505 328.534 505 333.912H508.111ZM501.889 333.912C501.889 326.815 507.372 320.999 514.333 320.469V317.351C505.653 317.886 498.778 325.096 498.778 333.912H501.889ZM495.667 333.912C495.667 323.377 503.933 314.774 514.333 314.235V311.12C502.214 311.662 492.556 321.659 492.556 333.912H495.667ZM489.445 333.912C489.445 319.941 500.496 308.551 514.333 308.006V304.893C498.777 305.439 486.334 318.222 486.334 333.912H489.445ZM483.222 333.912C483.222 316.504 497.058 302.328 514.333 301.78V298.668C495.34 299.216 480.111 314.785 480.111 333.912H483.222ZM477 333.912C477 313.067 493.621 296.105 514.333 295.555V292.443C491.903 292.994 473.889 311.349 473.889 333.912H477ZM514.334 381.626C540.201 381.074 561 359.933 561 333.934H557.889C557.889 358.215 538.482 377.963 514.334 378.514V381.626ZM514.334 341.119C517.852 340.616 520.556 337.591 520.556 333.934H523.667C523.667 339.311 519.574 343.732 514.334 344.253V341.119ZM514.334 347.376C521.295 346.846 526.778 341.03 526.778 333.934H529.889C529.889 342.749 523.014 349.959 514.334 350.494V347.376ZM514.334 353.61C524.734 353.071 533 344.468 533 333.934H536.111C536.111 346.186 526.453 356.183 514.334 356.725V353.61ZM514.334 359.839C528.171 359.295 539.222 347.905 539.222 333.934H542.334C542.334 349.623 529.89 362.406 514.334 362.952V359.839ZM514.334 366.065C531.609 365.518 545.445 351.341 545.445 333.934H548.556C548.556 353.06 533.327 368.629 514.334 369.178V366.065ZM514.334 372.29C535.046 371.74 551.667 354.778 551.667 333.934H554.778C554.778 356.496 536.764 374.852 514.334 375.402V372.29ZM467.666 333.934C493.533 334.485 514.334 355.627 514.334 381.626L511.222 381.626C511.222 357.345 491.815 337.597 467.667 337.046L467.666 333.934ZM467.667 374.44C471.185 374.943 473.889 377.969 473.889 381.626H477C477 376.249 472.907 371.827 467.667 371.307V374.44ZM467.667 368.184C474.628 368.713 480.111 374.529 480.111 381.626H483.222C483.222 372.81 476.347 365.601 467.667 365.065V368.184ZM467.667 361.949C478.067 362.488 486.333 371.092 486.333 381.626H489.444C489.444 369.373 479.786 359.377 467.667 358.834V361.949ZM467.667 355.721C481.504 356.265 492.555 367.655 492.555 381.626H495.667C495.667 365.936 483.223 353.153 467.667 352.607V355.721ZM467.667 349.494C484.942 350.042 498.778 364.218 498.778 381.626H501.889C501.889 362.5 486.66 346.93 467.667 346.382V349.494ZM467.667 343.27C488.379 343.819 505 360.781 505 381.626H508.111C508.111 359.063 490.097 340.708 467.667 340.158V343.27Z" fill="#F2F2F2"/>
<path fill-rule="evenodd" clip-rule="evenodd" d="M234 0H237.111C237.111 24.2809 256.518 44.0292 280.666 44.5803V47.6922C254.849 47.1416 234.08 26.0808 234 0.150605V3.11193C209.852 3.66301 190.445 23.4113 190.445 47.6923H187.334C187.334 21.6931 208.133 0.551806 234 0ZM280.666 7.18567C277.148 6.68248 274.444 3.65705 274.444 0H271.333C271.333 5.37735 275.426 9.79876 280.666 10.3191V7.18567ZM280.666 13.4421C273.705 12.9125 268.222 7.09661 268.222 0H265.111C265.111 8.81546 271.986 16.0252 280.666 16.5605V13.4421ZM280.666 19.6767C270.266 19.1374 262 10.5341 262 0H258.889C258.889 12.2526 268.547 22.2493 280.666 22.7914V19.6767ZM280.666 25.9053C266.829 25.361 255.778 13.971 255.778 0H252.667C252.667 15.6894 265.11 28.4725 280.666 29.0186V25.9053ZM280.666 32.1314C263.391 31.584 249.555 17.4078 249.555 0H246.444C246.444 19.1261 261.673 34.6954 280.666 35.2439V32.1314ZM280.666 38.3562C259.954 37.8067 243.333 20.8444 243.333 0H240.222C240.222 22.5627 258.236 40.918 280.666 41.4684V38.3562ZM227.778 47.6923C227.778 44.0352 230.482 41.0098 234 40.5066V37.3732C228.76 37.8935 224.667 42.3149 224.667 47.6923H227.778ZM221.556 47.6923C221.556 40.5956 227.039 34.7797 234 34.2502V31.1317C225.32 31.667 218.445 38.8768 218.445 47.6923H221.556ZM215.334 47.6923C215.334 37.1582 223.6 28.5548 234 28.0156V24.9008C221.881 25.443 212.223 35.4397 212.223 47.6923H215.334ZM209.112 47.6923C209.112 33.7212 220.163 22.3313 234 21.787V18.6737C218.444 19.2197 206.001 32.0028 206.001 47.6923H209.112ZM202.889 47.6923C202.889 30.2845 216.725 16.1083 234 15.5608V12.4483C215.007 12.9969 199.778 28.5662 199.778 47.6923H202.889ZM196.667 47.6923C196.667 26.8479 213.289 9.88557 234 9.33601V6.2239C211.57 6.77427 193.556 25.1296 193.556 47.6923H196.667ZM280.667 47.7144C306.534 48.2662 327.333 69.4074 327.333 95.4066L327.334 92.2947C351.482 91.7436 370.889 71.9953 370.889 47.7144H374C374 73.7136 353.2 94.8549 327.333 95.4066L330.444 95.4065C330.444 119.687 349.851 139.436 373.999 139.987V143.099C348.182 142.548 327.413 121.487 327.333 95.5559V98.5184C303.185 99.0695 283.778 118.818 283.778 143.099H280.667C280.667 117.1 301.467 95.9587 327.333 95.4066H324.222C324.222 71.1256 304.815 51.3773 280.667 50.8262V47.8637C280.587 73.7936 259.82 94.8545 234.003 95.4064H237.11C237.11 119.687 256.517 139.436 280.665 139.987V143.099C254.847 142.548 234.078 121.486 233.999 95.5546V98.5183C209.851 99.0694 190.444 118.818 190.444 143.099H187.333C187.333 117.101 208.13 95.961 233.994 95.4065H230.889C230.889 71.1256 211.482 51.3773 187.334 50.8262V47.7144C213.201 48.2661 234 69.4073 234 95.4064L234.001 92.2946C258.149 91.7436 277.556 71.9953 277.556 47.7143L280.667 47.7144C280.667 47.7144 280.667 47.7144 280.667 47.7144ZM234.001 54.9C237.519 54.3968 240.223 51.3714 240.223 47.7143H243.334C243.334 53.0917 239.241 57.5131 234.001 58.0334V54.9ZM234.001 61.1564C240.962 60.6268 246.445 54.8109 246.445 47.7143H249.556C249.556 56.5298 242.682 63.7396 234.001 64.2749V61.1564ZM234.001 67.391C244.401 66.8517 252.667 58.2484 252.667 47.7143H255.778C255.778 59.9669 246.12 69.9636 234.001 70.5058V67.391ZM234.001 73.6196C247.838 73.0753 258.889 61.6854 258.889 47.7143H262.001C262.001 63.4037 249.557 76.1868 234.001 76.7329V73.6196ZM234.001 79.8457C251.276 79.2983 265.112 65.1221 265.112 47.7143H268.223C268.223 66.8404 252.994 82.4097 234.001 82.9583V79.8457ZM234.001 86.0706C254.713 85.521 271.334 68.5587 271.334 47.7143H274.445C274.445 70.277 256.431 88.6323 234.001 89.1827V86.0706ZM187.334 88.2209C190.852 88.7241 193.556 91.7495 193.556 95.4065H196.667C196.667 90.0292 192.574 85.6078 187.334 85.0875V88.2209ZM187.334 81.9645C194.295 82.494 199.778 88.3099 199.778 95.4065H202.889C202.889 86.5911 196.014 79.3813 187.334 78.846V81.9645ZM187.334 75.7299C197.734 76.2691 206 84.8725 206 95.4065H209.111C209.111 83.1539 199.453 73.1573 187.334 72.6151V75.7299ZM187.334 69.5012C201.171 70.0456 212.222 81.4355 212.222 95.4065H215.334C215.334 79.7171 202.89 66.934 187.334 66.388V69.5012ZM187.334 63.2751C204.609 63.8226 218.445 77.9988 218.445 95.4065H221.556C221.556 76.2805 206.327 60.7112 187.334 60.1626V63.2751ZM187.334 57.0503C208.046 57.5999 224.667 74.5622 224.667 95.4065H227.778C227.778 72.8439 209.764 54.4886 187.334 53.9382V57.0503ZM274.443 95.4064C274.443 99.0635 277.147 102.089 280.665 102.592V105.726C275.425 105.205 271.332 100.784 271.332 95.4064H274.443ZM268.221 95.4064C268.221 102.503 273.704 108.319 280.665 108.848V111.967C271.985 111.432 265.11 104.222 265.11 95.4064H268.221ZM261.999 95.4064C261.999 105.941 270.265 114.544 280.665 115.083V118.198C268.546 117.656 258.888 107.659 258.888 95.4064H261.999ZM255.777 95.4064C255.777 109.377 266.828 120.767 280.665 121.312V124.425C265.109 123.879 252.665 111.096 252.665 95.4064H255.777ZM249.554 95.4064C249.554 112.814 263.39 126.99 280.665 127.538V130.65C261.672 130.102 246.443 114.533 246.443 95.4064H249.554ZM243.332 95.4064C243.332 116.251 259.953 133.213 280.665 133.763V136.875C258.235 136.324 240.221 117.969 240.221 95.4064H243.332ZM233.999 135.913C230.481 136.416 227.777 139.442 227.777 143.099H224.666C224.666 137.721 228.759 133.3 233.999 132.78V135.913ZM233.999 129.657C227.038 130.186 221.555 136.002 221.555 143.099H218.444C218.444 134.283 225.319 127.073 233.999 126.538V129.657ZM233.999 123.422C223.599 123.961 215.333 132.565 215.333 143.099H212.222C212.222 130.846 221.88 120.849 233.999 120.307V123.422ZM233.999 117.193C220.162 117.738 209.111 129.128 209.111 143.099H206C206 127.409 218.443 114.626 233.999 114.08V117.193ZM233.999 110.967C216.724 111.515 202.888 125.691 202.888 143.099H199.777C199.777 123.973 215.006 108.403 233.999 107.855V110.967ZM233.999 104.742C213.287 105.292 196.666 122.254 196.666 143.099H193.555C193.555 120.536 211.569 102.181 233.999 101.63V104.742ZM280.666 143.121C280.666 169.119 259.868 190.26 234.002 190.813H237.11C237.11 215.094 256.517 234.842 280.665 235.393V238.505C254.847 237.954 234.078 216.892 233.999 190.961V193.925C209.851 194.476 190.444 214.224 190.444 238.505H187.333C187.333 212.507 208.131 191.366 233.996 190.813H230.888C230.888 166.532 211.481 146.784 187.333 146.233V143.121C213.2 143.672 233.999 164.814 233.999 190.813L234 187.701C258.148 187.15 277.555 167.402 277.555 143.121H280.666ZM240.222 143.121C240.222 146.778 237.518 149.803 234 150.306V153.44C239.24 152.92 243.333 148.498 243.333 143.121H240.222ZM246.444 143.121C246.444 150.217 240.961 156.033 234 156.563V159.681C242.68 159.146 249.555 151.936 249.555 143.121H246.444ZM252.666 143.121C252.666 153.655 244.4 162.258 234 162.797V165.912C246.119 165.37 255.777 155.373 255.777 143.121H252.666ZM258.888 143.121C258.888 157.092 247.837 168.482 234 169.026V172.139C249.556 171.593 262 158.81 262 143.121H258.888ZM265.111 143.121C265.111 160.529 251.275 174.705 234 175.252V178.365C252.993 177.816 268.222 162.247 268.222 143.121H265.111ZM271.333 143.121C271.333 163.965 254.712 180.927 234 181.477V184.589C256.43 184.039 274.444 165.683 274.444 143.121H271.333ZM193.555 190.813C193.555 187.156 190.851 184.13 187.333 183.627V180.494C192.573 181.014 196.666 185.436 196.666 190.813H193.555ZM199.777 190.813C199.777 183.716 194.294 177.9 187.333 177.371V174.252C196.013 174.788 202.888 181.997 202.888 190.813H199.777ZM205.999 190.813C205.999 180.279 197.733 171.676 187.333 171.136V168.022C199.452 168.564 209.11 178.56 209.11 190.813H205.999ZM212.221 190.813C212.221 176.842 201.17 165.452 187.333 164.908V161.794C202.889 162.34 215.333 175.124 215.333 190.813H212.221ZM218.444 190.813C218.444 173.405 204.608 159.229 187.333 158.682V155.569C206.326 156.118 221.555 171.687 221.555 190.813H218.444ZM224.666 190.813C224.666 169.969 208.045 153.006 187.333 152.457V149.345C209.763 149.895 227.777 168.25 227.777 190.813H224.666ZM280.665 197.999C277.147 197.495 274.443 194.47 274.443 190.813H271.332C271.332 196.19 275.425 200.612 280.665 201.132V197.999ZM280.665 204.255C273.704 203.725 268.221 197.91 268.221 190.813H265.11C265.11 199.628 271.985 206.838 280.665 207.373V204.255ZM280.665 210.49C270.265 209.95 261.999 201.347 261.999 190.813H258.888C258.888 203.065 268.546 213.062 280.665 213.604V210.49ZM280.665 216.718C266.828 216.174 255.777 204.784 255.777 190.813H252.665C252.665 206.502 265.109 219.285 280.665 219.831V216.718ZM280.665 222.944C263.39 222.397 249.554 208.221 249.554 190.813H246.443C246.443 209.939 261.672 225.508 280.665 226.057V222.944ZM280.665 229.169C259.953 228.62 243.332 211.657 243.332 190.813H240.221C240.221 213.376 258.235 231.731 280.665 232.281V229.169ZM227.777 238.505C227.777 234.848 230.481 231.823 233.999 231.319V228.186C228.759 228.706 224.666 233.128 224.666 238.505H227.777ZM221.555 238.505C221.555 231.408 227.038 225.593 233.999 225.063V221.945C225.319 222.48 218.444 229.69 218.444 238.505H221.555ZM215.333 238.505C215.333 227.971 223.599 219.368 233.999 218.828V215.714C221.88 216.256 212.222 226.252 212.222 238.505H215.333ZM209.111 238.505C209.111 224.534 220.162 213.144 233.999 212.6V209.486C218.443 210.033 206 222.816 206 238.505H209.111ZM202.888 238.505C202.888 221.097 216.724 206.921 233.999 206.374V203.261C215.006 203.81 199.777 219.379 199.777 238.505H202.888ZM196.666 238.505C196.666 217.661 213.287 200.698 233.999 200.149V197.037C211.569 197.587 193.555 215.942 193.555 238.505H196.666ZM234 286.219C259.867 285.668 280.666 264.526 280.666 238.527H277.555C277.555 262.808 258.148 282.556 234 283.108V286.219ZM234 286.219C234 260.22 213.2 239.079 187.333 238.527V241.639C211.481 242.19 230.888 261.938 230.888 286.219H233.998C208.131 286.772 187.333 307.913 187.333 333.912H190.444C190.444 309.631 209.851 289.882 233.999 289.331V286.367C234.078 312.299 254.847 333.361 280.665 333.911V330.8C256.517 330.249 237.11 310.5 237.11 286.219L234 286.219ZM234 245.713C237.518 245.21 240.222 242.184 240.222 238.527H243.333C243.333 243.905 239.24 248.326 234 248.846V245.713ZM234 251.969C240.961 251.44 246.444 245.624 246.444 238.527H249.555C249.555 247.343 242.68 254.552 234 255.088V251.969ZM234 258.204C244.4 257.665 252.666 249.061 252.666 238.527H255.777C255.777 250.78 246.119 260.776 234 261.319V258.204ZM234 264.432C247.837 263.888 258.888 252.498 258.888 238.527H262C262 254.217 249.556 267 234 267.546V264.432ZM234 270.659C251.275 270.111 265.111 255.935 265.111 238.527H268.222C268.222 257.653 252.993 273.223 234 273.771V270.659ZM234 276.883C254.712 276.334 271.333 259.372 271.333 238.527H274.444C274.444 261.09 256.43 279.445 234 279.996V276.883ZM187.333 279.034C190.851 279.537 193.555 282.562 193.555 286.219H196.666C196.666 280.842 192.573 276.421 187.333 275.9V279.034ZM187.333 272.777C194.294 273.307 199.777 279.123 199.777 286.219H202.888C202.888 277.404 196.013 270.194 187.333 269.659V272.777ZM187.333 266.543C197.733 267.082 205.999 275.685 205.999 286.219H209.11C209.11 273.967 199.452 263.97 187.333 263.428V266.543ZM187.333 260.314C201.17 260.858 212.221 272.248 212.221 286.219H215.333C215.333 270.53 202.889 257.747 187.333 257.201V260.314ZM187.333 254.088C204.608 254.635 218.444 268.812 218.444 286.219H221.555C221.555 267.093 206.326 251.524 187.333 250.975V254.088ZM187.333 247.863C208.045 248.413 224.666 265.375 224.666 286.219H227.777C227.777 263.657 209.763 245.301 187.333 244.751V247.863ZM280.665 293.405C277.147 292.902 274.443 289.876 274.443 286.219H271.332C271.332 291.597 275.425 296.018 280.665 296.538V293.405ZM280.665 299.661C273.704 299.132 268.221 293.316 268.221 286.219H265.11C265.11 295.035 271.985 302.245 280.665 302.78V299.661ZM280.665 305.896C270.265 305.357 261.999 296.753 261.999 286.219H258.888C258.888 298.472 268.546 308.469 280.665 309.011V305.896ZM280.665 312.125C266.828 311.58 255.777 300.19 255.777 286.219H252.665C252.665 301.909 265.109 314.692 280.665 315.238V312.125ZM280.665 318.351C263.39 317.803 249.554 303.627 249.554 286.219H246.443C246.443 305.345 261.672 320.915 280.665 321.463V318.351ZM280.665 324.576C259.953 324.026 243.332 307.064 243.332 286.219H240.221C240.221 308.782 258.235 327.137 280.665 327.688V324.576ZM227.777 333.912C227.777 330.254 230.481 327.229 233.999 326.726V323.592C228.759 324.113 224.666 328.534 224.666 333.912H227.777ZM221.555 333.912C221.555 326.815 227.038 320.999 233.999 320.469V317.351C225.319 317.886 218.444 325.096 218.444 333.912H221.555ZM215.333 333.912C215.333 323.377 223.599 314.774 233.999 314.235V311.12C221.88 311.662 212.222 321.659 212.222 333.912H215.333ZM209.111 333.912C209.111 319.94 220.162 308.551 233.999 308.006V304.893C218.443 305.439 206 318.222 206 333.912H209.111ZM202.888 333.912C202.888 316.504 216.724 302.328 233.999 301.78V298.668C215.006 299.216 199.777 314.785 199.777 333.912H202.888ZM196.666 333.912C196.666 313.067 213.287 296.105 233.999 295.555V292.443C211.569 292.994 193.555 311.349 193.555 333.912H196.666ZM234 381.626C259.867 381.074 280.666 359.933 280.666 333.934H277.555C277.555 358.215 258.148 377.963 234 378.514V381.626ZM234 341.119C237.518 340.616 240.222 337.591 240.222 333.934H243.333C243.333 339.311 239.24 343.732 234 344.253V341.119ZM234 347.376C240.961 346.846 246.444 341.03 246.444 333.934H249.555C249.555 342.749 242.68 349.959 234 350.494V347.376ZM234 353.61C244.4 353.071 252.666 344.468 252.666 333.934H255.777C255.777 346.186 246.119 356.183 234 356.725V353.61ZM234 359.839C247.837 359.295 258.888 347.905 258.888 333.934H262C262 349.623 249.556 362.406 234 362.952V359.839ZM234 366.065C251.275 365.518 265.111 351.341 265.111 333.934H268.222C268.222 353.06 252.993 368.629 234 369.178V366.065ZM234 372.29C254.712 371.74 271.333 354.778 271.333 333.934H274.444C274.444 356.496 256.43 374.852 234 375.402V372.29ZM187.333 333.934C213.2 334.485 234 355.627 234 381.626H230.888C230.888 357.345 211.481 337.597 187.333 337.046V333.934ZM187.333 374.44C190.851 374.943 193.555 377.969 193.555 381.626H196.666C196.666 376.248 192.573 371.827 187.333 371.307V374.44ZM187.333 368.184C194.294 368.713 199.777 374.529 199.777 381.626H202.888C202.888 372.81 196.013 365.601 187.333 365.065V368.184ZM187.333 361.949C197.733 362.488 205.999 371.092 205.999 381.626H209.11C209.11 369.373 199.452 359.377 187.333 358.834V361.949ZM187.333 355.721C201.17 356.265 212.221 367.655 212.221 381.626H215.333C215.333 365.936 202.889 353.153 187.333 352.607V355.721ZM187.333 349.494C204.608 350.042 218.444 364.218 218.444 381.626H221.555C221.555 362.5 206.326 346.93 187.333 346.382V349.494ZM187.333 343.27C208.045 343.819 224.666 360.781 224.666 381.626H227.777C227.777 359.063 209.763 340.708 187.333 340.157V343.27ZM327.333 3.016e-05H330.444C330.444 24.281 349.851 44.0293 373.999 44.5804V47.6922C348.182 47.1416 327.413 26.0802 327.333 0.149396V3.11193C303.185 3.663 283.778 23.4113 283.778 47.6923L280.666 47.6922C280.666 21.693 301.466 0.551834 327.333 3.016e-05ZM373.999 7.1857C370.481 6.68251 367.777 3.65708 367.777 3.016e-05H364.666C364.666 5.37737 368.759 9.79879 373.999 10.3191V7.1857ZM373.999 13.4421C367.038 12.9125 361.555 7.09664 361.555 3.016e-05H358.444C358.444 8.81549 365.319 16.0253 373.999 16.5606V13.4421ZM373.999 19.6767C363.599 19.1374 355.333 10.5341 355.333 3.016e-05H352.222C352.222 12.2526 361.88 22.2493 373.999 22.7915V19.6767ZM373.999 25.9053C360.162 25.361 349.111 13.9711 349.111 3.016e-05H345.999C345.999 15.6894 358.443 28.4725 373.999 29.0186V25.9053ZM373.999 32.1314C356.724 31.584 342.888 17.4078 342.888 3.016e-05H339.777C339.777 19.1261 355.006 34.6954 373.999 35.244V32.1314ZM373.999 38.3563C353.287 37.8067 336.666 20.8444 336.666 3.016e-05H333.555C333.555 22.5627 351.569 40.918 373.999 41.4684V38.3563ZM321.111 47.6923C321.111 44.0352 323.815 41.0098 327.333 40.5066V37.3732C322.093 37.8935 318 42.3149 318 47.6923H321.111ZM314.889 47.6923C314.889 40.5956 320.372 34.7797 327.333 34.2502V31.1317C318.653 31.667 311.778 38.8768 311.778 47.6923H314.889ZM308.667 47.6923C308.667 37.1582 316.933 28.5548 327.333 28.0156V24.9008C315.214 25.443 305.556 35.4397 305.556 47.6923H308.667ZM302.445 47.6923C302.445 33.7212 313.496 22.3313 327.333 21.7869V18.6737C311.777 19.2197 299.333 32.0028 299.333 47.6923H302.445ZM296.222 47.6923C296.222 30.2845 310.058 16.1083 327.333 15.5608V12.4483C308.34 12.9969 293.111 28.5662 293.111 47.6923H296.222ZM290 47.6923C290 26.8479 306.621 9.88557 327.333 9.33601V6.2239C304.903 6.77427 286.889 25.1296 286.889 47.6923H290ZM327.334 54.9C330.852 54.3968 333.556 51.3714 333.556 47.7144H336.667C336.667 53.0917 332.574 57.5131 327.334 58.0334V54.9ZM327.334 61.1564C334.295 60.6269 339.778 54.811 339.778 47.7144H342.889C342.889 56.5298 336.014 63.7396 327.334 64.2749V61.1564ZM327.334 67.391C337.734 66.8518 346 58.2484 346 47.7144H349.111C349.111 59.967 339.453 69.9636 327.334 70.5058V67.391ZM327.334 73.6197C341.171 73.0753 352.222 61.6854 352.222 47.7144H355.334C355.334 63.4038 342.89 76.1869 327.334 76.7329V73.6197ZM327.334 79.8458C344.609 79.2983 358.445 65.1221 358.445 47.7144H361.556C361.556 66.8404 346.327 82.4097 327.334 82.9583V79.8458ZM327.334 86.0706C348.046 85.521 364.667 68.5587 364.667 47.7144H367.778C367.778 70.277 349.764 88.6323 327.334 89.1827V86.0706ZM280.667 88.2209C284.185 88.7241 286.889 91.7495 286.889 95.4066H290C290 90.0292 285.907 85.6078 280.667 85.0875V88.2209ZM280.667 81.9645C287.628 82.494 293.111 88.3099 293.111 95.4066H296.222C296.222 86.5911 289.347 79.3813 280.667 78.846V81.9645ZM280.667 75.7299C291.067 76.2691 299.333 84.8725 299.333 95.4066H302.444C302.444 83.154 292.786 73.1573 280.667 72.6151V75.7299ZM280.667 69.5013C294.504 70.0456 305.555 81.4355 305.555 95.4066H308.667C308.667 79.7171 296.223 66.934 280.667 66.388V69.5013ZM280.667 63.2751C297.942 63.8226 311.778 77.9988 311.778 95.4066H314.889C314.889 76.2805 299.66 60.7112 280.667 60.1626V63.2751ZM280.667 57.0503C301.379 57.5999 318 74.5622 318 95.4066H321.111C321.111 72.8439 303.097 54.4886 280.667 53.9382V57.0503ZM367.777 95.4065C367.777 99.0636 370.481 102.089 373.999 102.592V105.726C368.759 105.205 364.666 100.784 364.666 95.4065H367.777ZM361.555 95.4065C361.555 102.503 367.038 108.319 373.999 108.849V111.967C365.319 111.432 358.444 104.222 358.444 95.4065H361.555ZM355.333 95.4065C355.333 105.941 363.599 114.544 373.999 115.083V118.198C361.88 117.656 352.222 107.659 352.222 95.4065H355.333ZM349.111 95.4065C349.111 109.378 360.162 120.767 373.999 121.312V124.425C358.443 123.879 345.999 111.096 345.999 95.4065H349.111ZM342.888 95.4065C342.888 112.814 356.724 126.99 373.999 127.538V130.65C355.006 130.102 339.777 114.533 339.777 95.4065H342.888ZM336.666 95.4065C336.666 116.251 353.287 133.213 373.999 133.763V136.875C351.569 136.324 333.555 117.969 333.555 95.4065H336.666ZM327.333 135.913C323.815 136.416 321.111 139.442 321.111 143.099H318C318 137.721 322.093 133.3 327.333 132.78V135.913ZM327.333 129.657C320.372 130.186 314.889 136.002 314.889 143.099H311.778C311.778 134.283 318.653 127.073 327.333 126.538V129.657ZM327.333 123.422C316.933 123.961 308.667 132.565 308.667 143.099H305.556C305.556 130.846 315.214 120.849 327.333 120.307V123.422ZM327.333 117.193C313.496 117.738 302.445 129.128 302.445 143.099H299.333C299.333 127.409 311.777 114.626 327.333 114.08V117.193ZM327.333 110.967C310.058 111.515 296.222 125.691 296.222 143.099H293.111C293.111 123.973 308.34 108.403 327.333 107.855V110.967ZM327.333 104.742C306.621 105.292 290 122.254 290 143.099H286.889C286.889 120.536 304.903 102.181 327.333 101.63V104.742ZM374 143.121C374 169.12 353.201 190.261 327.334 190.813L330.444 190.813C330.444 215.094 349.851 234.842 373.999 235.393V238.505C348.182 237.954 327.413 216.893 327.333 190.962V193.925C303.185 194.476 283.778 214.224 283.778 238.505H280.667C280.667 212.506 301.465 191.366 327.332 190.813H324.222C324.222 166.532 304.815 146.784 280.667 146.233L280.666 143.121C306.533 143.672 327.334 164.814 327.334 190.813V187.701C351.482 187.15 370.889 167.402 370.889 143.121H374ZM333.556 143.121C333.556 146.778 330.852 149.803 327.334 150.306V153.44C332.574 152.92 336.667 148.498 336.667 143.121H333.556ZM339.778 143.121C339.778 150.217 334.295 156.033 327.334 156.563V159.681C336.014 159.146 342.889 151.936 342.889 143.121H339.778ZM346 143.121C346 153.655 337.734 162.258 327.334 162.797V165.912C339.453 165.37 349.111 155.373 349.111 143.121H346ZM352.222 143.121C352.222 157.092 341.171 168.482 327.334 169.026V172.139C342.89 171.593 355.334 158.81 355.334 143.121H352.222ZM358.445 143.121C358.445 160.529 344.609 174.705 327.334 175.252V178.365C346.327 177.816 361.556 162.247 361.556 143.121H358.445ZM364.667 143.121C364.667 163.965 348.046 180.927 327.334 181.477V184.589C349.764 184.039 367.778 165.683 367.778 143.121H364.667ZM286.889 190.813C286.889 187.156 284.185 184.131 280.667 183.627V180.494C285.907 181.014 290 185.436 290 190.813H286.889ZM293.111 190.813C293.111 183.716 287.628 177.9 280.667 177.371V174.252C289.347 174.788 296.222 181.998 296.222 190.813H293.111ZM299.333 190.813C299.333 180.279 291.067 171.676 280.667 171.136V168.022C292.786 168.564 302.444 178.56 302.444 190.813H299.333ZM305.555 190.813C305.555 176.842 294.504 165.452 280.667 164.908V161.794C296.223 162.34 308.667 175.124 308.667 190.813H305.555ZM311.778 190.813C311.778 173.405 297.942 159.229 280.667 158.682V155.569C299.66 156.118 314.889 171.687 314.889 190.813H311.778ZM318 190.813C318 169.969 301.379 153.006 280.667 152.457V149.345C303.097 149.895 321.111 168.25 321.111 190.813H318ZM373.999 197.999C370.481 197.495 367.777 194.47 367.777 190.813H364.666C364.666 196.19 368.759 200.612 373.999 201.132V197.999ZM373.999 204.255C367.038 203.725 361.555 197.91 361.555 190.813H358.444C358.444 199.628 365.319 206.838 373.999 207.373V204.255ZM373.999 210.49C363.599 209.95 355.333 201.347 355.333 190.813H352.222C352.222 203.066 361.88 213.062 373.999 213.604V210.49ZM373.999 216.718C360.162 216.174 349.111 204.784 349.111 190.813H345.999C345.999 206.502 358.443 219.285 373.999 219.831V216.718ZM373.999 222.944C356.724 222.397 342.888 208.221 342.888 190.813H339.777C339.777 209.939 355.006 225.508 373.999 226.057V222.944ZM373.999 229.169C353.287 228.62 336.666 211.657 336.666 190.813H333.555C333.555 213.376 351.569 231.731 373.999 232.281V229.169ZM321.111 238.505C321.111 234.848 323.815 231.823 327.333 231.319V228.186C322.093 228.706 318 233.128 318 238.505H321.111ZM314.889 238.505C314.889 231.409 320.372 225.593 327.333 225.063V221.945C318.653 222.48 311.778 229.69 311.778 238.505H314.889ZM308.667 238.505C308.667 227.971 316.933 219.368 327.333 218.828V215.714C315.214 216.256 305.556 226.253 305.556 238.505H308.667ZM302.445 238.505C302.445 224.534 313.496 213.144 327.333 212.6V209.487C311.777 210.033 299.333 222.816 299.333 238.505H302.445ZM296.222 238.505C296.222 221.097 310.058 206.921 327.333 206.374V203.261C308.34 203.81 293.111 219.379 293.111 238.505H296.222ZM290 238.505C290 217.661 306.621 200.698 327.333 200.149V197.037C304.903 197.587 286.889 215.942 286.889 238.505H290ZM327.334 286.219C353.201 285.668 374 264.526 374 238.527H370.889C370.889 262.808 351.482 282.556 327.334 283.108V286.219ZM327.334 286.219C301.467 286.771 280.667 307.912 280.667 333.912H283.778C283.778 309.631 303.185 289.882 327.333 289.331V286.369C327.413 312.299 348.182 333.361 373.999 333.911V330.8C349.851 330.249 330.444 310.5 330.444 286.219L327.334 286.219ZM324.222 286.219H327.334C327.334 260.22 306.533 239.079 280.666 238.527L280.667 241.639C304.815 242.19 324.222 261.938 324.222 286.219ZM327.334 245.713C330.852 245.21 333.556 242.184 333.556 238.527H336.667C336.667 243.905 332.574 248.326 327.334 248.846V245.713ZM327.334 251.969C334.295 251.44 339.778 245.624 339.778 238.527H342.889C342.889 247.343 336.014 254.552 327.334 255.088V251.969ZM327.334 258.204C337.734 257.665 346 249.061 346 238.527H349.111C349.111 250.78 339.453 260.776 327.334 261.319V258.204ZM327.334 264.432C341.171 263.888 352.222 252.498 352.222 238.527H355.334C355.334 254.217 342.89 267 327.334 267.546V264.432ZM327.334 270.659C344.609 270.111 358.445 255.935 358.445 238.527H361.556C361.556 257.653 346.327 273.223 327.334 273.771V270.659ZM327.334 276.883C348.046 276.334 364.667 259.372 364.667 238.527H367.778C367.778 261.09 349.764 279.445 327.334 279.996V276.883ZM280.667 279.034C284.185 279.537 286.889 282.562 286.889 286.219H290C290 280.842 285.907 276.421 280.667 275.9V279.034ZM280.667 272.777C287.628 273.307 293.111 279.123 293.111 286.219H296.222C296.222 277.404 289.347 270.194 280.667 269.659V272.777ZM280.667 266.543C291.067 267.082 299.333 275.685 299.333 286.219H302.444C302.444 273.967 292.786 263.97 280.667 263.428V266.543ZM280.667 260.314C294.504 260.858 305.555 272.248 305.555 286.219H308.667C308.667 270.53 296.223 257.747 280.667 257.201V260.314ZM280.667 254.088C297.942 254.635 311.778 268.812 311.778 286.219H314.889C314.889 267.093 299.66 251.524 280.667 250.975V254.088ZM280.667 247.863C301.379 248.413 318 265.375 318 286.219H321.111C321.111 263.657 303.097 245.301 280.667 244.751V247.863ZM373.999 293.405C370.481 292.902 367.777 289.876 367.777 286.219H364.666C364.666 291.597 368.759 296.018 373.999 296.538V293.405ZM373.999 299.661C367.038 299.132 361.555 293.316 361.555 286.219H358.444C358.444 295.035 365.319 302.245 373.999 302.78V299.661ZM373.999 305.896C363.599 305.357 355.333 296.753 355.333 286.219H352.222C352.222 298.472 361.88 308.469 373.999 309.011V305.896ZM373.999 312.125C360.162 311.58 349.111 300.19 349.111 286.219H345.999C345.999 301.909 358.443 314.692 373.999 315.238V312.125ZM373.999 318.351C356.724 317.803 342.888 303.627 342.888 286.219H339.777C339.777 305.345 355.006 320.915 373.999 321.463V318.351ZM373.999 324.576C353.287 324.026 336.666 307.064 336.666 286.219H333.555C333.555 308.782 351.569 327.137 373.999 327.688V324.576ZM321.111 333.912C321.111 330.254 323.815 327.229 327.333 326.726V323.592C322.093 324.113 318 328.534 318 333.912H321.111ZM314.889 333.912C314.889 326.815 320.372 320.999 327.333 320.469V317.351C318.653 317.886 311.778 325.096 311.778 333.912H314.889ZM308.667 333.912C308.667 323.377 316.933 314.774 327.333 314.235V311.12C315.214 311.662 305.556 321.659 305.556 333.912H308.667ZM302.445 333.912C302.445 319.941 313.496 308.551 327.333 308.006V304.893C311.777 305.439 299.333 318.222 299.333 333.912H302.445ZM296.222 333.912C296.222 316.504 310.058 302.328 327.333 301.78V298.668C308.34 299.216 293.111 314.785 293.111 333.912H296.222ZM290 333.912C290 313.067 306.621 296.105 327.333 295.555V292.443C304.903 292.994 286.889 311.349 286.889 333.912H290ZM327.334 381.626C353.201 381.074 374 359.933 374 333.934H370.889C370.889 358.215 351.482 377.963 327.334 378.514V381.626ZM327.334 341.119C330.852 340.616 333.556 337.591 333.556 333.934H336.667C336.667 339.311 332.574 343.732 327.334 344.253V341.119ZM327.334 347.376C334.295 346.846 339.778 341.03 339.778 333.934H342.889C342.889 342.749 336.014 349.959 327.334 350.494V347.376ZM327.334 353.61C337.734 353.071 346 344.468 346 333.934H349.111C349.111 346.186 339.453 356.183 327.334 356.725V353.61ZM327.334 359.839C341.171 359.295 352.222 347.905 352.222 333.934H355.334C355.334 349.623 342.89 362.406 327.334 362.952V359.839ZM327.334 366.065C344.609 365.518 358.445 351.341 358.445 333.934H361.556C361.556 353.06 346.327 368.629 327.334 369.178V366.065ZM327.334 372.29C348.046 371.74 364.667 354.778 364.667 333.934H367.778C367.778 356.496 349.764 374.852 327.334 375.402V372.29ZM280.666 333.934C306.533 334.485 327.334 355.627 327.334 381.626L324.222 381.626C324.222 357.345 304.815 337.597 280.667 337.046L280.666 333.934ZM280.667 374.44C284.185 374.943 286.889 377.969 286.889 381.626H290C290 376.249 285.907 371.827 280.667 371.307V374.44ZM280.667 368.184C287.628 368.713 293.111 374.529 293.111 381.626H296.222C296.222 372.81 289.347 365.601 280.667 365.065V368.184ZM280.667 361.949C291.067 362.488 299.333 371.092 299.333 381.626H302.444C302.444 369.373 292.786 359.377 280.667 358.834V361.949ZM280.667 355.721C294.504 356.265 305.555 367.655 305.555 381.626H308.667C308.667 365.936 296.223 353.153 280.667 352.607V355.721ZM280.667 349.494C297.942 350.042 311.778 364.218 311.778 381.626H314.889C314.889 362.5 299.66 346.93 280.667 346.382V349.494ZM280.667 343.27C301.379 343.819 318 360.781 318 381.626H321.111C321.111 359.063 303.097 340.708 280.667 340.158V343.27Z" fill="#F2F2F2"/>
<path fill-rule="evenodd" clip-rule="evenodd" d="M47 0H50.1111C50.1111 24.2809 69.5176 44.0292 93.6662 44.5803V47.6922C67.8492 47.1416 47.0804 26.0808 47.0002 0.150605V3.11193C22.8517 3.66301 3.44513 23.4113 3.44513 47.6923H0.334045C0.334045 21.6931 21.1332 0.551806 47 0ZM93.6662 7.18567C90.1483 6.68248 87.444 3.65705 87.444 0H84.333C84.333 5.37735 88.4258 9.79876 93.6662 10.3191V7.18567ZM93.6662 13.4421C86.7052 12.9125 81.2219 7.09661 81.2219 0H78.1108C78.1108 8.81546 84.9855 16.0252 93.6662 16.5605V13.4421ZM93.6662 19.6767C83.2663 19.1374 74.9997 10.5341 74.9997 0H71.8886C71.8886 12.2526 81.5474 22.2493 93.6662 22.7914V19.6767ZM93.6662 25.9053C79.8286 25.361 68.7776 13.971 68.7776 0H65.6665C65.6665 15.6894 78.11 28.4725 93.6662 29.0186V25.9053ZM93.6662 32.1314C76.3914 31.584 62.5554 17.4078 62.5554 0H59.4443C59.4443 19.1261 74.6729 34.6954 93.6662 35.2439V32.1314ZM93.6662 38.3562C72.9544 37.8067 56.3333 20.8444 56.3333 0H53.2222C53.2222 22.5627 71.236 40.918 93.6662 41.4684V38.3562ZM40.7781 47.6923C40.7781 44.0352 43.4824 41.0098 47.0002 40.5066V37.3732C41.7598 37.8935 37.667 42.3149 37.667 47.6923H40.7781ZM34.5559 47.6923C34.5559 40.5956 40.0392 34.7797 47.0002 34.2502V31.1317C38.3196 31.667 31.4448 38.8768 31.4448 47.6923H34.5559ZM28.3337 47.6923C28.3337 37.1582 36.6003 28.5548 47.0002 28.0156V24.9008C34.8814 25.443 25.2227 35.4397 25.2227 47.6923H28.3337ZM22.1116 47.6923C22.1116 33.7212 33.1627 22.3313 47.0002 21.787V18.6737C31.444 19.2197 19.0005 32.0028 19.0005 47.6923H22.1116ZM15.8895 47.6923C15.8895 30.2845 29.7255 16.1083 47.0002 15.5608V12.4483C28.007 12.9969 12.7784 28.5662 12.7784 47.6923H15.8895ZM9.6673 47.6923C9.6673 26.8479 26.2885 9.88557 47.0002 9.33601V6.2239C24.5701 6.77427 6.55621 25.1296 6.55621 47.6923H9.6673ZM93.667 47.7144C119.534 48.2662 140.333 69.4074 140.333 95.4066L140.334 92.2947C164.482 91.7436 183.889 71.9953 183.889 47.7144H187C187 73.7136 166.2 94.8549 140.333 95.4066L143.444 95.4065C143.444 119.687 162.851 139.436 186.999 139.987V143.099C161.182 142.548 140.413 121.487 140.333 95.5559V98.5184C116.185 99.0695 96.7781 118.818 96.7781 143.099H93.667C93.667 117.1 114.466 95.9587 140.333 95.4066H137.222C137.222 71.1256 117.815 51.3773 93.6668 50.8262V47.8637C93.5873 73.7936 72.8195 94.8545 47.0034 95.4064H50.1101C50.1101 119.687 69.5166 139.436 93.6652 139.987V143.099C67.8474 142.548 47.078 121.486 46.9992 95.5546V98.5183C22.8506 99.0694 3.44409 118.818 3.44409 143.099H0.333008C0.333008 117.101 21.1295 95.961 46.994 95.4065H43.8889C43.8889 71.1256 24.4824 51.3773 0.333862 50.8262V47.7144C26.2007 48.2661 46.9999 69.4073 47 95.4064L47.0009 92.2946C71.1494 91.7436 90.556 71.9953 90.556 47.7143L93.667 47.7144C93.667 47.7144 93.667 47.7144 93.667 47.7144ZM47.0009 54.9C50.5187 54.3968 53.223 51.3714 53.223 47.7143H56.3341C56.3341 53.0917 52.2413 57.5131 47.0009 58.0334V54.9ZM47.0009 61.1564C53.9619 60.6268 59.4452 54.8109 59.4452 47.7143H62.5562C62.5562 56.5298 55.6815 63.7396 47.0009 64.2749V61.1564ZM47.0009 67.391C57.4008 66.8517 65.6673 58.2484 65.6673 47.7143H68.7784C68.7784 59.9669 59.1197 69.9636 47.0009 70.5058V67.391ZM47.0009 73.6196C60.8384 73.0753 71.8895 61.6854 71.8895 47.7143H75.0005C75.0005 63.4037 62.5571 76.1868 47.0009 76.7329V73.6196ZM47.0009 79.8457C64.2757 79.2983 78.1116 65.1221 78.1116 47.7143H81.2227C81.2227 66.8404 65.9941 82.4097 47.0009 82.9583V79.8457ZM47.0009 86.0706C67.7126 85.521 84.3338 68.5587 84.3338 47.7143H87.4449C87.4449 70.277 69.431 88.6323 47.0009 89.1827V86.0706ZM0.333862 88.2209C3.85175 88.7241 6.55597 91.7495 6.55597 95.4065H9.66705C9.66705 90.0292 5.57428 85.6078 0.333862 85.0875V88.2209ZM0.333862 81.9645C7.29486 82.494 12.7781 88.3099 12.7781 95.4065H15.8892C15.8892 86.5911 9.01453 79.3813 0.333862 78.846V81.9645ZM0.333862 75.7299C10.7338 76.2691 19.0003 84.8725 19.0003 95.4065H22.1114C22.1114 83.1539 12.4527 73.1573 0.333862 72.6151V75.7299ZM0.333862 69.5012C14.1714 70.0456 25.2225 81.4355 25.2225 95.4065H28.3336C28.3336 79.7171 15.8901 66.934 0.333862 66.388V69.5012ZM0.333862 63.2751C17.6086 63.8226 31.4446 77.9988 31.4446 95.4065H34.5557C34.5557 76.2805 19.3271 60.7112 0.333862 60.1626V63.2751ZM0.333862 57.0503C21.0456 57.5999 37.6667 74.5622 37.6667 95.4065H40.7778C40.7778 72.8439 22.764 54.4886 0.333862 53.9382V57.0503ZM87.443 95.4064C87.443 99.0635 90.1473 102.089 93.6652 102.592V105.726C88.4247 105.205 84.332 100.784 84.332 95.4064H87.443ZM81.2209 95.4064C81.2209 102.503 86.7042 108.319 93.6652 108.848V111.967C84.9845 111.432 78.1098 104.222 78.1098 95.4064H81.2209ZM74.9987 95.4064C74.9987 105.941 83.2653 114.544 93.6652 115.083V118.198C81.5464 117.656 71.8876 107.659 71.8876 95.4064H74.9987ZM68.7766 95.4064C68.7766 109.377 79.8276 120.767 93.6652 121.312V124.425C78.1089 123.879 65.6655 111.096 65.6655 95.4064H68.7766ZM62.5544 95.4064C62.5544 112.814 76.3904 126.99 93.6652 127.538V130.65C74.6719 130.102 59.4433 114.533 59.4433 95.4064H62.5544ZM56.3322 95.4064C56.3322 116.251 72.9534 133.213 93.6652 133.763V136.875C71.235 136.324 53.2212 117.969 53.2212 95.4064H56.3322ZM46.9992 135.913C43.4813 136.416 40.7771 139.442 40.7771 143.099H37.666C37.666 137.721 41.7588 133.3 46.9992 132.78V135.913ZM46.9992 129.657C40.0382 130.186 34.5549 136.002 34.5549 143.099H31.4438C31.4438 134.283 38.3185 127.073 46.9992 126.538V129.657ZM46.9992 123.422C36.5993 123.961 28.3328 132.565 28.3328 143.099H25.2217C25.2217 130.846 34.8804 120.849 46.9992 120.307V123.422ZM46.9992 117.193C33.1616 117.738 22.1106 129.128 22.1106 143.099H18.9995C18.9995 127.409 31.443 114.626 46.9992 114.08V117.193ZM46.9992 110.967C29.7244 111.515 15.8884 125.691 15.8884 143.099H12.7773C12.7773 123.973 28.0059 108.403 46.9992 107.855V110.967ZM46.9992 104.742C26.2875 105.292 9.66626 122.254 9.66626 143.099H6.55518C6.55518 120.536 24.569 102.181 46.9992 101.63V104.742ZM93.666 143.121C93.666 169.119 72.8679 190.26 47.002 190.813H50.1101C50.1101 215.094 69.5166 234.842 93.6652 235.393V238.505C67.8474 237.954 47.078 216.892 46.9992 190.961V193.925C22.8506 194.476 3.44409 214.224 3.44409 238.505H0.333008C0.333008 212.507 21.1307 191.366 46.9962 190.813H43.8879C43.8879 166.532 24.4814 146.784 0.332825 146.233V143.121C26.1997 143.672 46.999 164.814 46.999 190.813L46.9998 187.701C71.1484 187.15 90.5549 167.402 90.5549 143.121H93.666ZM53.222 143.121C53.222 146.778 50.5177 149.803 46.9998 150.306V153.44C52.2402 152.92 56.3331 148.498 56.3331 143.121H53.222ZM59.4442 143.121C59.4442 150.217 53.9608 156.033 46.9998 156.563V159.681C55.6805 159.146 62.5552 151.936 62.5552 143.121H59.4442ZM65.6663 143.121C65.6663 153.655 57.3997 162.258 46.9998 162.797V165.912C59.1187 165.37 68.7774 155.373 68.7774 143.121H65.6663ZM71.8885 143.121C71.8885 157.092 60.8374 168.482 46.9998 169.026V172.139C62.5561 171.593 74.9995 158.81 74.9995 143.121H71.8885ZM78.1106 143.121C78.1106 160.529 64.2746 174.705 46.9998 175.252V178.365C65.9931 177.816 81.2217 162.247 81.2217 143.121H78.1106ZM84.3328 143.121C84.3328 163.965 67.7116 180.927 46.9998 181.477V184.589C69.43 184.039 87.4438 165.683 87.4438 143.121H84.3328ZM6.55493 190.813C6.55493 187.156 3.85071 184.13 0.332825 183.627V180.494C5.57324 181.014 9.66602 185.436 9.66602 190.813H6.55493ZM12.7771 190.813C12.7771 183.716 7.29382 177.9 0.332825 177.371V174.252C9.01349 174.788 15.8882 181.997 15.8882 190.813H12.7771ZM18.9993 190.813C18.9993 180.279 10.7327 171.676 0.332825 171.136V168.022C12.4517 168.564 22.1104 178.56 22.1104 190.813H18.9993ZM25.2214 190.813C25.2214 176.842 14.1704 165.452 0.332825 164.908V161.794C15.889 162.34 28.3325 175.124 28.3325 190.813H25.2214ZM31.4436 190.813C31.4436 173.405 17.6076 159.229 0.332825 158.682V155.569C19.3261 156.118 34.5547 171.687 34.5547 190.813H31.4436ZM37.6658 190.813C37.6658 169.969 21.0446 153.006 0.332825 152.457V149.345C22.763 149.895 40.7769 168.25 40.7769 190.813H37.6658ZM93.6652 197.999C90.1473 197.495 87.443 194.47 87.443 190.813H84.332C84.332 196.19 88.4247 200.612 93.6652 201.132V197.999ZM93.6652 204.255C86.7042 203.725 81.2209 197.91 81.2209 190.813H78.1098C78.1098 199.628 84.9845 206.838 93.6652 207.373V204.255ZM93.6652 210.49C83.2653 209.95 74.9987 201.347 74.9987 190.813H71.8876C71.8876 203.065 81.5464 213.062 93.6652 213.604V210.49ZM93.6652 216.718C79.8276 216.174 68.7766 204.784 68.7766 190.813H65.6655C65.6655 206.502 78.1089 219.285 93.6652 219.831V216.718ZM93.6652 222.944C76.3904 222.397 62.5544 208.221 62.5544 190.813H59.4433C59.4433 209.939 74.6719 225.508 93.6652 226.057V222.944ZM93.6652 229.169C72.9534 228.62 56.3322 211.657 56.3322 190.813H53.2212C53.2212 213.376 71.235 231.731 93.6652 232.281V229.169ZM40.7771 238.505C40.7771 234.848 43.4813 231.823 46.9992 231.319V228.186C41.7588 228.706 37.666 233.128 37.666 238.505H40.7771ZM34.5549 238.505C34.5549 231.408 40.0382 225.593 46.9992 225.063V221.945C38.3185 222.48 31.4438 229.69 31.4438 238.505H34.5549ZM28.3328 238.505C28.3328 227.971 36.5993 219.368 46.9992 218.828V215.714C34.8804 216.256 25.2217 226.252 25.2217 238.505H28.3328ZM22.1106 238.505C22.1106 224.534 33.1616 213.144 46.9992 212.6V209.486C31.443 210.033 18.9995 222.816 18.9995 238.505H22.1106ZM15.8884 238.505C15.8884 221.097 29.7244 206.921 46.9992 206.374V203.261C28.0059 203.81 12.7773 219.379 12.7773 238.505H15.8884ZM9.66626 238.505C9.66626 217.661 26.2875 200.698 46.9992 200.149V197.037C24.569 197.587 6.55518 215.942 6.55518 238.505H9.66626ZM46.9998 286.219C72.8667 285.668 93.666 264.526 93.666 238.527H90.5549C90.5549 262.808 71.1484 282.556 46.9998 283.108V286.219ZM46.9998 286.219C46.9998 260.22 26.1997 239.079 0.332825 238.527V241.639C24.4814 242.19 43.8879 261.938 43.8879 286.219H46.9976C21.1314 286.772 0.333008 307.913 0.333008 333.912H3.44409C3.44409 309.631 22.8506 289.882 46.9992 289.331V286.367C47.078 312.299 67.8474 333.361 93.6652 333.911V330.8C69.5166 330.249 50.1101 310.5 50.1101 286.219L46.9998 286.219ZM46.9998 245.713C50.5177 245.21 53.222 242.184 53.222 238.527H56.3331C56.3331 243.905 52.2402 248.326 46.9998 248.846V245.713ZM46.9998 251.969C53.9608 251.44 59.4442 245.624 59.4442 238.527H62.5552C62.5552 247.343 55.6805 254.552 46.9998 255.088V251.969ZM46.9998 258.204C57.3997 257.665 65.6663 249.061 65.6663 238.527H68.7774C68.7774 250.78 59.1187 260.776 46.9998 261.319V258.204ZM46.9998 264.432C60.8374 263.888 71.8885 252.498 71.8885 238.527H74.9995C74.9995 254.217 62.5561 267 46.9998 267.546V264.432ZM46.9998 270.659C64.2746 270.111 78.1106 255.935 78.1106 238.527H81.2217C81.2217 257.653 65.9931 273.223 46.9998 273.771V270.659ZM46.9998 276.883C67.7116 276.334 84.3328 259.372 84.3328 238.527H87.4438C87.4438 261.09 69.43 279.445 46.9998 279.996V276.883ZM0.332825 279.034C3.85071 279.537 6.55493 282.562 6.55493 286.219H9.66602C9.66602 280.842 5.57324 276.421 0.332825 275.9V279.034ZM0.332825 272.777C7.29382 273.307 12.7771 279.123 12.7771 286.219H15.8882C15.8882 277.404 9.01349 270.194 0.332825 269.659V272.777ZM0.332825 266.543C10.7327 267.082 18.9993 275.685 18.9993 286.219H22.1104C22.1104 273.967 12.4517 263.97 0.332825 263.428V266.543ZM0.332825 260.314C14.1704 260.858 25.2214 272.248 25.2214 286.219H28.3325C28.3325 270.53 15.889 257.747 0.332825 257.201V260.314ZM0.332825 254.088C17.6076 254.635 31.4436 268.812 31.4436 286.219H34.5547C34.5547 267.093 19.3261 251.524 0.332825 250.975V254.088ZM0.332825 247.863C21.0446 248.413 37.6658 265.375 37.6658 286.219H40.7769C40.7769 263.657 22.763 245.301 0.332825 244.751V247.863ZM93.6652 293.405C90.1473 292.902 87.443 289.876 87.443 286.219H84.332C84.332 291.597 88.4247 296.018 93.6652 296.538V293.405ZM93.6652 299.661C86.7042 299.132 81.2209 293.316 81.2209 286.219H78.1098C78.1098 295.035 84.9845 302.245 93.6652 302.78V299.661ZM93.6652 305.896C83.2653 305.357 74.9987 296.753 74.9987 286.219H71.8876C71.8876 298.472 81.5464 308.469 93.6652 309.011V305.896ZM93.6652 312.125C79.8276 311.58 68.7766 300.19 68.7766 286.219H65.6655C65.6655 301.909 78.1089 314.692 93.6652 315.238V312.125ZM93.6652 318.351C76.3904 317.803 62.5544 303.627 62.5544 286.219H59.4433C59.4433 305.345 74.6719 320.915 93.6652 321.463V318.351ZM93.6652 324.576C72.9534 324.026 56.3322 307.064 56.3322 286.219H53.2212C53.2212 308.782 71.235 327.137 93.6652 327.688V324.576ZM40.7771 333.912C40.7771 330.254 43.4813 327.229 46.9992 326.726V323.592C41.7588 324.113 37.666 328.534 37.666 333.912H40.7771ZM34.5549 333.912C34.5549 326.815 40.0382 320.999 46.9992 320.469V317.351C38.3185 317.886 31.4438 325.096 31.4438 333.912H34.5549ZM28.3328 333.912C28.3328 323.377 36.5993 314.774 46.9992 314.235V311.12C34.8804 311.662 25.2217 321.659 25.2217 333.912H28.3328ZM22.1106 333.912C22.1106 319.94 33.1616 308.551 46.9992 308.006V304.893C31.443 305.439 18.9995 318.222 18.9995 333.912H22.1106ZM15.8884 333.912C15.8884 316.504 29.7244 302.328 46.9992 301.78V298.668C28.0059 299.216 12.7773 314.785 12.7773 333.912H15.8884ZM9.66626 333.912C9.66626 313.067 26.2875 296.105 46.9992 295.555V292.443C24.569 292.994 6.55518 311.349 6.55518 333.912H9.66626ZM46.9998 381.626C72.8667 381.074 93.666 359.933 93.666 333.934H90.5549C90.5549 358.215 71.1484 377.963 46.9998 378.514V381.626ZM46.9998 341.119C50.5177 340.616 53.222 337.591 53.222 333.934H56.3331C56.3331 339.311 52.2402 343.732 46.9998 344.253V341.119ZM46.9998 347.376C53.9608 346.846 59.4442 341.03 59.4442 333.934H62.5552C62.5552 342.749 55.6805 349.959 46.9998 350.494V347.376ZM46.9998 353.61C57.3997 353.071 65.6663 344.468 65.6663 333.934H68.7774C68.7774 346.186 59.1187 356.183 46.9998 356.725V353.61ZM46.9998 359.839C60.8374 359.295 71.8885 347.905 71.8885 333.934H74.9995C74.9995 349.623 62.5561 362.406 46.9998 362.952V359.839ZM46.9998 366.065C64.2746 365.518 78.1106 351.341 78.1106 333.934H81.2217C81.2217 353.06 65.9931 368.629 46.9998 369.178V366.065ZM46.9998 372.29C67.7116 371.74 84.3328 354.778 84.3328 333.934H87.4438C87.4438 356.496 69.43 374.852 46.9998 375.402V372.29ZM0.332825 333.934C26.1997 334.485 46.9998 355.627 46.9998 381.626H43.8879C43.8879 357.345 24.4814 337.597 0.332825 337.046V333.934ZM0.332825 374.44C3.85071 374.943 6.55493 377.969 6.55493 381.626H9.66602C9.66602 376.248 5.57324 371.827 0.332825 371.307V374.44ZM0.332825 368.184C7.29382 368.713 12.7771 374.529 12.7771 381.626H15.8882C15.8882 372.81 9.01349 365.601 0.332825 365.065V368.184ZM0.332825 361.949C10.7327 362.488 18.9993 371.092 18.9993 381.626H22.1104C22.1104 369.373 12.4517 359.377 0.332825 358.834V361.949ZM0.332825 355.721C14.1704 356.265 25.2214 367.655 25.2214 381.626H28.3325C28.3325 365.936 15.889 353.153 0.332825 352.607V355.721ZM0.332825 349.494C17.6076 350.042 31.4436 364.218 31.4436 381.626H34.5547C34.5547 362.5 19.3261 346.93 0.332825 346.382V349.494ZM0.332825 343.27C21.0446 343.819 37.6658 360.781 37.6658 381.626H40.7769C40.7769 359.063 22.763 340.708 0.332825 340.157V343.27ZM140.333 3.016e-05H143.444C143.444 24.281 162.851 44.0293 186.999 44.5804V47.6922C161.182 47.1416 140.413 26.0802 140.333 0.149396V3.11193C116.185 3.663 96.7781 23.4113 96.7781 47.6923L93.6662 47.6922C93.6662 21.693 114.466 0.551834 140.333 3.016e-05ZM186.999 7.1857C183.481 6.68251 180.777 3.65708 180.777 3.016e-05H177.666C177.666 5.37737 181.759 9.79879 186.999 10.3191V7.1857ZM186.999 13.4421C180.038 12.9125 174.555 7.09664 174.555 3.016e-05H171.444C171.444 8.81549 178.319 16.0253 186.999 16.5606V13.4421ZM186.999 19.6767C176.599 19.1374 168.333 10.5341 168.333 3.016e-05H165.222C165.222 12.2526 174.88 22.2493 186.999 22.7915V19.6767ZM186.999 25.9053C173.162 25.361 162.111 13.9711 162.111 3.016e-05H158.999C158.999 15.6894 171.443 28.4725 186.999 29.0186V25.9053ZM186.999 32.1314C169.724 31.584 155.888 17.4078 155.888 3.016e-05H152.777C152.777 19.1261 168.006 34.6954 186.999 35.244V32.1314ZM186.999 38.3563C166.287 37.8067 149.666 20.8444 149.666 3.016e-05H146.555C146.555 22.5627 164.569 40.918 186.999 41.4684V38.3563ZM134.111 47.6923C134.111 44.0352 136.815 41.0098 140.333 40.5066V37.3732C135.093 37.8935 131 42.3149 131 47.6923H134.111ZM127.889 47.6923C127.889 40.5956 133.372 34.7797 140.333 34.2502V31.1317C131.653 31.667 124.778 38.8768 124.778 47.6923H127.889ZM121.667 47.6923C121.667 37.1582 129.933 28.5548 140.333 28.0156V24.9008C128.214 25.443 118.556 35.4397 118.556 47.6923H121.667ZM115.445 47.6923C115.445 33.7212 126.496 22.3313 140.333 21.7869V18.6737C124.777 19.2197 112.333 32.0028 112.333 47.6923H115.445ZM109.222 47.6923C109.222 30.2845 123.058 16.1083 140.333 15.5608V12.4483C121.34 12.9969 106.111 28.5662 106.111 47.6923H109.222ZM103 47.6923C103 26.8479 119.621 9.88557 140.333 9.33601V6.2239C117.903 6.77427 99.8892 25.1296 99.8892 47.6923H103ZM140.334 54.9C143.852 54.3968 146.556 51.3714 146.556 47.7144H149.667C149.667 53.0917 145.574 57.5131 140.334 58.0334V54.9ZM140.334 61.1564C147.295 60.6269 152.778 54.811 152.778 47.7144H155.889C155.889 56.5298 149.014 63.7396 140.334 64.2749V61.1564ZM140.334 67.391C150.734 66.8518 159 58.2484 159 47.7144H162.111C162.111 59.967 152.453 69.9636 140.334 70.5058V67.391ZM140.334 73.6197C154.171 73.0753 165.222 61.6854 165.222 47.7144H168.334C168.334 63.4038 155.89 76.1869 140.334 76.7329V73.6197ZM140.334 79.8458C157.609 79.2983 171.445 65.1221 171.445 47.7144H174.556C174.556 66.8404 159.327 82.4097 140.334 82.9583V79.8458ZM140.334 86.0706C161.046 85.521 177.667 68.5587 177.667 47.7144H180.778C180.778 70.277 162.764 88.6323 140.334 89.1827V86.0706ZM93.6668 88.2209C97.1847 88.7241 99.889 91.7495 99.889 95.4066H103C103 90.0292 98.9072 85.6078 93.6668 85.0875V88.2209ZM93.6668 81.9645C100.628 82.494 106.111 88.3099 106.111 95.4066H109.222C109.222 86.5911 102.347 79.3813 93.6668 78.846V81.9645ZM93.6668 75.7299C104.067 76.2691 112.333 84.8725 112.333 95.4066H115.444C115.444 83.154 105.786 73.1573 93.6668 72.6151V75.7299ZM93.6668 69.5013C107.504 70.0456 118.555 81.4355 118.555 95.4066H121.667C121.667 79.7171 109.223 66.934 93.6668 66.388V69.5013ZM93.6668 63.2751C110.942 63.8226 124.778 77.9988 124.778 95.4066H127.889C127.889 76.2805 112.66 60.7112 93.6668 60.1626V63.2751ZM93.6668 57.0503C114.379 57.5999 131 74.5622 131 95.4066H134.111C134.111 72.8439 116.097 54.4886 93.6668 53.9382V57.0503ZM180.777 95.4065C180.777 99.0636 183.481 102.089 186.999 102.592V105.726C181.759 105.205 177.666 100.784 177.666 95.4065H180.777ZM174.555 95.4065C174.555 102.503 180.038 108.319 186.999 108.849V111.967C178.319 111.432 171.444 104.222 171.444 95.4065H174.555ZM168.333 95.4065C168.333 105.941 176.599 114.544 186.999 115.083V118.198C174.88 117.656 165.222 107.659 165.222 95.4065H168.333ZM162.111 95.4065C162.111 109.378 173.162 120.767 186.999 121.312V124.425C171.443 123.879 158.999 111.096 158.999 95.4065H162.111ZM155.888 95.4065C155.888 112.814 169.724 126.99 186.999 127.538V130.65C168.006 130.102 152.777 114.533 152.777 95.4065H155.888ZM149.666 95.4065C149.666 116.251 166.287 133.213 186.999 133.763V136.875C164.569 136.324 146.555 117.969 146.555 95.4065H149.666ZM140.333 135.913C136.815 136.416 134.111 139.442 134.111 143.099H131C131 137.721 135.093 133.3 140.333 132.78V135.913ZM140.333 129.657C133.372 130.186 127.889 136.002 127.889 143.099H124.778C124.778 134.283 131.653 127.073 140.333 126.538V129.657ZM140.333 123.422C129.933 123.961 121.667 132.565 121.667 143.099H118.556C118.556 130.846 128.214 120.849 140.333 120.307V123.422ZM140.333 117.193C126.496 117.738 115.445 129.128 115.445 143.099H112.333C112.333 127.409 124.777 114.626 140.333 114.08V117.193ZM140.333 110.967C123.058 111.515 109.222 125.691 109.222 143.099H106.111C106.111 123.973 121.34 108.403 140.333 107.855V110.967ZM140.333 104.742C119.621 105.292 103 122.254 103 143.099H99.8892C99.8892 120.536 117.903 102.181 140.333 101.63V104.742ZM187 143.121C187 169.12 166.201 190.261 140.334 190.813L143.444 190.813C143.444 215.094 162.851 234.842 186.999 235.393V238.505C161.182 237.954 140.413 216.893 140.333 190.962V193.925C116.185 194.476 96.7781 214.224 96.7781 238.505H93.667C93.667 212.506 114.465 191.366 140.332 190.813H137.222C137.222 166.532 117.815 146.784 93.6668 146.233L93.666 143.121C119.533 143.672 140.334 164.814 140.334 190.813V187.701C164.482 187.15 183.889 167.402 183.889 143.121H187ZM146.556 143.121C146.556 146.778 143.852 149.803 140.334 150.306V153.44C145.574 152.92 149.667 148.498 149.667 143.121H146.556ZM152.778 143.121C152.778 150.217 147.295 156.033 140.334 156.563V159.681C149.014 159.146 155.889 151.936 155.889 143.121H152.778ZM159 143.121C159 153.655 150.734 162.258 140.334 162.797V165.912C152.453 165.37 162.111 155.373 162.111 143.121H159ZM165.222 143.121C165.222 157.092 154.171 168.482 140.334 169.026V172.139C155.89 171.593 168.334 158.81 168.334 143.121H165.222ZM171.445 143.121C171.445 160.529 157.609 174.705 140.334 175.252V178.365C159.327 177.816 174.556 162.247 174.556 143.121H171.445ZM177.667 143.121C177.667 163.965 161.046 180.927 140.334 181.477V184.589C162.764 184.039 180.778 165.683 180.778 143.121H177.667ZM99.889 190.813C99.889 187.156 97.1847 184.131 93.6668 183.627V180.494C98.9072 181.014 103 185.436 103 190.813H99.889ZM106.111 190.813C106.111 183.716 100.628 177.9 93.6668 177.371V174.252C102.347 174.788 109.222 181.998 109.222 190.813H106.111ZM112.333 190.813C112.333 180.279 104.067 171.676 93.6668 171.136V168.022C105.786 168.564 115.444 178.56 115.444 190.813H112.333ZM118.555 190.813C118.555 176.842 107.504 165.452 93.6668 164.908V161.794C109.223 162.34 121.667 175.124 121.667 190.813H118.555ZM124.778 190.813C124.778 173.405 110.942 159.229 93.6668 158.682V155.569C112.66 156.118 127.889 171.687 127.889 190.813H124.778ZM131 190.813C131 169.969 114.379 153.006 93.6668 152.457V149.345C116.097 149.895 134.111 168.25 134.111 190.813H131ZM186.999 197.999C183.481 197.495 180.777 194.47 180.777 190.813H177.666C177.666 196.19 181.759 200.612 186.999 201.132V197.999ZM186.999 204.255C180.038 203.725 174.555 197.91 174.555 190.813H171.444C171.444 199.628 178.319 206.838 186.999 207.373V204.255ZM186.999 210.49C176.599 209.95 168.333 201.347 168.333 190.813H165.222C165.222 203.066 174.88 213.062 186.999 213.604V210.49ZM186.999 216.718C173.162 216.174 162.111 204.784 162.111 190.813H158.999C158.999 206.502 171.443 219.285 186.999 219.831V216.718ZM186.999 222.944C169.724 222.397 155.888 208.221 155.888 190.813H152.777C152.777 209.939 168.006 225.508 186.999 226.057V222.944ZM186.999 229.169C166.287 228.62 149.666 211.657 149.666 190.813H146.555C146.555 213.376 164.569 231.731 186.999 232.281V229.169ZM134.111 238.505C134.111 234.848 136.815 231.823 140.333 231.319V228.186C135.093 228.706 131 233.128 131 238.505H134.111ZM127.889 238.505C127.889 231.409 133.372 225.593 140.333 225.063V221.945C131.653 222.48 124.778 229.69 124.778 238.505H127.889ZM121.667 238.505C121.667 227.971 129.933 219.368 140.333 218.828V215.714C128.214 216.256 118.556 226.253 118.556 238.505H121.667ZM115.445 238.505C115.445 224.534 126.496 213.144 140.333 212.6V209.487C124.777 210.033 112.333 222.816 112.333 238.505H115.445ZM109.222 238.505C109.222 221.097 123.058 206.921 140.333 206.374V203.261C121.34 203.81 106.111 219.379 106.111 238.505H109.222ZM103 238.505C103 217.661 119.621 200.698 140.333 200.149V197.037C117.903 197.587 99.8892 215.942 99.8892 238.505H103ZM140.334 286.219C166.201 285.668 187 264.526 187 238.527H183.889C183.889 262.808 164.482 282.556 140.334 283.108V286.219ZM140.334 286.219C114.467 286.771 93.667 307.912 93.667 333.912H96.7781C96.7781 309.631 116.185 289.882 140.333 289.331V286.369C140.413 312.299 161.182 333.361 186.999 333.911V330.8C162.851 330.249 143.444 310.5 143.444 286.219L140.334 286.219ZM137.222 286.219H140.334C140.334 260.22 119.533 239.079 93.666 238.527L93.6668 241.639C117.815 242.19 137.222 261.938 137.222 286.219ZM140.334 245.713C143.852 245.21 146.556 242.184 146.556 238.527H149.667C149.667 243.905 145.574 248.326 140.334 248.846V245.713ZM140.334 251.969C147.295 251.44 152.778 245.624 152.778 238.527H155.889C155.889 247.343 149.014 254.552 140.334 255.088V251.969ZM140.334 258.204C150.734 257.665 159 249.061 159 238.527H162.111C162.111 250.78 152.453 260.776 140.334 261.319V258.204ZM140.334 264.432C154.171 263.888 165.222 252.498 165.222 238.527H168.334C168.334 254.217 155.89 267 140.334 267.546V264.432ZM140.334 270.659C157.609 270.111 171.445 255.935 171.445 238.527H174.556C174.556 257.653 159.327 273.223 140.334 273.771V270.659ZM140.334 276.883C161.046 276.334 177.667 259.372 177.667 238.527H180.778C180.778 261.09 162.764 279.445 140.334 279.996V276.883ZM93.6668 279.034C97.1847 279.537 99.889 282.562 99.889 286.219H103C103 280.842 98.9072 276.421 93.6668 275.9V279.034ZM93.6668 272.777C100.628 273.307 106.111 279.123 106.111 286.219H109.222C109.222 277.404 102.347 270.194 93.6668 269.659V272.777ZM93.6668 266.543C104.067 267.082 112.333 275.685 112.333 286.219H115.444C115.444 273.967 105.786 263.97 93.6668 263.428V266.543ZM93.6668 260.314C107.504 260.858 118.555 272.248 118.555 286.219H121.667C121.667 270.53 109.223 257.747 93.6668 257.201V260.314ZM93.6668 254.088C110.942 254.635 124.778 268.812 124.778 286.219H127.889C127.889 267.093 112.66 251.524 93.6668 250.975V254.088ZM93.6668 247.863C114.379 248.413 131 265.375 131 286.219H134.111C134.111 263.657 116.097 245.301 93.6668 244.751V247.863ZM186.999 293.405C183.481 292.902 180.777 289.876 180.777 286.219H177.666C177.666 291.597 181.759 296.018 186.999 296.538V293.405ZM186.999 299.661C180.038 299.132 174.555 293.316 174.555 286.219H171.444C171.444 295.035 178.319 302.245 186.999 302.78V299.661ZM186.999 305.896C176.599 305.357 168.333 296.753 168.333 286.219H165.222C165.222 298.472 174.88 308.469 186.999 309.011V305.896ZM186.999 312.125C173.162 311.58 162.111 300.19 162.111 286.219H158.999C158.999 301.909 171.443 314.692 186.999 315.238V312.125ZM186.999 318.351C169.724 317.803 155.888 303.627 155.888 286.219H152.777C152.777 305.345 168.006 320.915 186.999 321.463V318.351ZM186.999 324.576C166.287 324.026 149.666 307.064 149.666 286.219H146.555C146.555 308.782 164.569 327.137 186.999 327.688V324.576ZM134.111 333.912C134.111 330.254 136.815 327.229 140.333 326.726V323.592C135.093 324.113 131 328.534 131 333.912H134.111ZM127.889 333.912C127.889 326.815 133.372 320.999 140.333 320.469V317.351C131.653 317.886 124.778 325.096 124.778 333.912H127.889ZM121.667 333.912C121.667 323.377 129.933 314.774 140.333 314.235V311.12C128.214 311.662 118.556 321.659 118.556 333.912H121.667ZM115.445 333.912C115.445 319.941 126.496 308.551 140.333 308.006V304.893C124.777 305.439 112.333 318.222 112.333 333.912H115.445ZM109.222 333.912C109.222 316.504 123.058 302.328 140.333 301.78V298.668C121.34 299.216 106.111 314.785 106.111 333.912H109.222ZM103 333.912C103 313.067 119.621 296.105 140.333 295.555V292.443C117.903 292.994 99.8892 311.349 99.8892 333.912H103ZM140.334 381.626C166.201 381.074 187 359.933 187 333.934H183.889C183.889 358.215 164.482 377.963 140.334 378.514V381.626ZM140.334 341.119C143.852 340.616 146.556 337.591 146.556 333.934H149.667C149.667 339.311 145.574 343.732 140.334 344.253V341.119ZM140.334 347.376C147.295 346.846 152.778 341.03 152.778 333.934H155.889C155.889 342.749 149.014 349.959 140.334 350.494V347.376ZM140.334 353.61C150.734 353.071 159 344.468 159 333.934H162.111C162.111 346.186 152.453 356.183 140.334 356.725V353.61ZM140.334 359.839C154.171 359.295 165.222 347.905 165.222 333.934H168.334C168.334 349.623 155.89 362.406 140.334 362.952V359.839ZM140.334 366.065C157.609 365.518 171.445 351.341 171.445 333.934H174.556C174.556 353.06 159.327 368.629 140.334 369.178V366.065ZM140.334 372.29C161.046 371.74 177.667 354.778 177.667 333.934H180.778C180.778 356.496 162.764 374.852 140.334 375.402V372.29ZM93.666 333.934C119.533 334.485 140.334 355.627 140.334 381.626L137.222 381.626C137.222 357.345 117.815 337.597 93.6668 337.046L93.666 333.934ZM93.6668 374.44C97.1847 374.943 99.889 377.969 99.889 381.626H103C103 376.249 98.9072 371.827 93.6668 371.307V374.44ZM93.6668 368.184C100.628 368.713 106.111 374.529 106.111 381.626H109.222C109.222 372.81 102.347 365.601 93.6668 365.065V368.184ZM93.6668 361.949C104.067 362.488 112.333 371.092 112.333 381.626H115.444C115.444 369.373 105.786 359.377 93.6668 358.834V361.949ZM93.6668 355.721C107.504 356.265 118.555 367.655 118.555 381.626H121.667C121.667 365.936 109.223 353.153 93.6668 352.607V355.721ZM93.6668 349.494C110.942 350.042 124.778 364.218 124.778 381.626H127.889C127.889 362.5 112.66 346.93 93.6668 346.382V349.494ZM93.6668 343.27C114.379 343.819 131 360.781 131 381.626H134.111C134.111 359.063 116.097 340.708 93.6668 340.158V343.27Z" fill="#F2F2F2"/>
</svg>
