<svg width="201" height="64" viewBox="0 0 201 64" fill="none" xmlns="http://www.w3.org/2000/svg">
<path fill-rule="evenodd" clip-rule="evenodd" d="M185.702 0H15.2983C14.7099 0 14.1286 0 13.5418 0.0032C13.1526 0.00573565 12.7658 0.0120989 12.3753 0.0185244L12.0674 0.02352C10.99 0.0361628 9.91513 0.130682 8.85214 0.306256C7.79065 0.485652 6.76241 0.823864 5.80219 1.30945C4.84316 1.79915 3.96686 2.43546 3.20508 3.19531C2.43931 3.95301 1.80098 4.82882 1.31464 5.78905C0.826955 6.74737 0.488793 7.77429 0.311833 8.83436C0.13319 9.89308 0.0370612 10.964 0.024308 12.0376C0.0141914 12.3709 0.0102225 12.7049 0.00625661 13.0387C0.00438552 13.1962 0.00251509 13.3537 0 13.5109V50.4937C0.00248562 50.6511 0.00434161 50.8069 0.00619085 50.9622C0.0101788 51.297 0.0141355 51.6292 0.024308 51.9687C0.0370651 53.0422 0.133194 54.1131 0.311833 55.1718C0.488304 56.2325 0.826487 57.26 1.31464 58.2186C1.80076 59.1758 2.43918 60.048 3.20508 60.8015C3.96397 61.5647 4.84084 62.2015 5.80219 62.6874C6.7624 63.1743 7.79053 63.5146 8.85214 63.6967C9.91531 63.8709 10.9901 63.9654 12.0674 63.9796C12.5633 63.9905 13.0506 63.9967 13.5418 63.9967C14.1286 63.9999 14.71 63.9999 15.2983 63.9999H185.702C186.29 63.9999 186.871 63.9999 187.458 63.9967C187.949 63.9967 188.437 63.9905 188.933 63.9796C190.01 63.9654 191.085 63.8709 192.148 63.6967C193.209 63.5146 194.238 63.1743 195.198 62.6874C196.159 62.2015 197.036 61.5647 197.795 60.8015C198.561 60.048 199.199 59.1758 199.685 58.2186C200.174 57.26 200.512 56.2325 200.688 55.1718C200.867 54.1131 200.963 53.0422 200.976 51.9687C200.986 51.6292 200.99 51.297 200.994 50.9622C200.995 50.8825 200.996 50.8027 200.997 50.7226C200.998 50.6466 200.999 50.5703 201 50.4937V13.5109L200.999 13.4606L200.997 13.3109L200.996 13.2542L200.994 13.0387V13.0373V13.0368C200.99 12.7036 200.986 12.3702 200.976 12.0376C200.963 10.964 200.867 9.89308 200.688 8.83436C200.511 7.77429 200.173 6.74737 199.685 5.78905C199.199 4.82882 198.561 3.95301 197.795 3.19531C197.033 2.43546 196.157 1.79915 195.198 1.30945C194.238 0.823864 193.209 0.485652 192.148 0.306256C191.085 0.130682 190.01 0.0361628 188.933 0.02352L188.625 0.0185244C188.234 0.0120989 187.847 0.00573565 187.458 0.0032C186.871 0 186.29 0 185.702 0ZM187.45 62.4967C186.868 62.4999 186.291 62.4999 185.702 62.4999H15.2983C14.7093 62.4999 14.132 62.4999 13.55 62.4967H13.5418C13.0634 62.4967 12.5872 62.4906 12.1003 62.4799L12.0871 62.4797C11.0863 62.4666 10.0879 62.3789 9.10017 62.2174C8.18829 62.0603 7.30526 61.7678 6.48057 61.3496L6.47888 61.3487C5.6606 60.9351 4.91441 60.3932 4.26876 59.7439L4.26294 59.738L4.25705 59.7322C3.60664 59.0924 3.06465 58.3518 2.65203 57.5394L2.65133 57.538C2.23273 56.7159 1.94278 55.8349 1.7915 54.9256L1.79092 54.9222C1.62521 53.9401 1.53604 52.9467 1.5242 51.9509L1.52404 51.9374L1.52364 51.9238C1.51387 51.5978 1.51019 51.2881 1.50631 50.9609C1.50447 50.8063 1.50259 50.6478 1.5 50.4819V13.5228C1.50263 13.3562 1.50453 13.1958 1.50639 13.0389C1.51024 12.7133 1.51392 12.4027 1.52362 12.0831L1.52404 12.0692L1.5242 12.0554C1.53603 11.0595 1.62521 10.0661 1.79093 9.08393L1.79136 9.08134C1.94312 8.17223 2.23315 7.29143 2.65149 6.46937L2.65279 6.4668C3.0662 5.65058 3.6089 4.90594 4.26012 4.26158L4.2644 4.25731C4.9147 3.60866 5.66281 3.0652 6.48171 2.64672C7.30583 2.23027 8.1883 1.94 9.09939 1.78574C10.0865 1.62285 11.0845 1.53516 12.085 1.52343L12.091 1.52333L12.4038 1.51826C12.7931 1.51186 13.17 1.50566 13.5508 1.50317C14.1326 1.5 14.7095 1.5 15.2983 1.5H185.702C186.29 1.5 186.867 1.5 187.449 1.50317C187.83 1.50566 188.207 1.51186 188.596 1.51826L188.909 1.52333L188.915 1.52343C189.915 1.53516 190.914 1.62285 191.901 1.78574C192.812 1.94 193.694 2.23027 194.518 2.64672C195.337 3.0652 196.085 3.60866 196.736 4.25731L196.74 4.26158C197.391 4.90594 197.934 5.65058 198.347 6.4668L198.349 6.46937C198.767 7.29143 199.057 8.17223 199.209 9.08134L199.209 9.08393C199.375 10.0661 199.464 11.0595 199.476 12.0554L199.476 12.0692L199.476 12.0831C199.486 12.4027 199.49 12.7133 199.494 13.0389L199.494 13.0465C199.496 13.201 199.497 13.3589 199.5 13.5228V50.4819C199.497 50.6478 199.496 50.8064 199.494 50.9609V50.962C199.49 51.2887 199.486 51.5982 199.476 51.9238L199.476 51.9374L199.476 51.9509C199.464 52.9467 199.375 53.9401 199.209 54.9222L199.208 54.9256C199.057 55.8349 198.767 56.7159 198.349 57.538L198.348 57.5394C197.935 58.3518 197.393 59.0924 196.743 59.7322L196.737 59.738L196.731 59.7439C196.086 60.3932 195.339 60.9351 194.521 61.3487L194.519 61.3496C193.695 61.7678 192.812 62.0603 191.9 62.2174C190.912 62.3789 189.914 62.4666 188.913 62.4797L188.9 62.4799C188.413 62.4906 187.937 62.4967 187.458 62.4967H187.45ZM67.7811 18.0054H69.0577C69.2775 18.0328 69.5005 18.0144 69.7128 17.9512C69.925 17.8881 70.1219 17.7817 70.291 17.6388C70.4601 17.4958 70.5978 17.3193 70.6953 17.1205C70.7928 16.9217 70.8481 16.7048 70.8577 16.4836C70.8577 15.6031 70.1952 15.0344 69.0718 15.0344C68.8466 15.0029 68.6175 15.0169 68.3978 15.0754C68.1781 15.134 67.9725 15.236 67.7929 15.3754C67.6133 15.5148 67.4635 15.6887 67.3522 15.887C67.241 16.0852 67.1706 16.3038 67.1452 16.5297H65.7436C65.7677 16.1196 65.876 15.7189 66.0617 15.3525C66.2474 14.986 66.5066 14.6618 66.823 14.3998C67.1395 14.1379 67.5064 13.9439 67.9011 13.83C68.2958 13.716 68.7097 13.6845 69.117 13.7375C70.9967 13.7375 72.3202 14.7898 72.3202 16.3047C72.3246 16.8121 72.1549 17.3058 71.8392 17.7032C71.5236 18.1006 71.0811 18.3777 70.5858 18.4883V18.6008C71.173 18.6268 71.726 18.8843 72.1239 19.3169C72.5219 19.7495 72.7323 20.322 72.7093 20.9093C72.6658 21.3316 72.5385 21.7409 72.3348 22.1133C72.1311 22.4856 71.8552 22.8136 71.5231 23.078C71.191 23.3423 70.8095 23.5377 70.4009 23.6527C69.9923 23.7677 69.5649 23.8 69.1436 23.7476C68.7215 23.8052 68.2922 23.7771 67.8811 23.6652C67.4701 23.5533 67.0858 23.3597 66.7512 23.0961C66.4165 22.8325 66.1384 22.5042 65.9334 22.1308C65.7283 21.7574 65.6006 21.3465 65.5577 20.9226H66.9812C67.0671 21.8359 67.9062 22.425 69.1436 22.425C70.3811 22.425 71.189 21.7633 71.189 20.8305C71.189 19.8844 70.428 19.3016 69.0983 19.3016H67.7811V18.0054ZM74.3265 21.4789C74.3265 20.182 75.2936 19.4344 77.0061 19.3281L78.9577 19.2156V18.5937C78.9577 17.8328 78.4561 17.4031 77.4827 17.4031C76.689 17.4031 76.1405 17.6945 75.9811 18.2039H74.6046C74.7499 16.9664 75.9155 16.1727 77.5499 16.1727C79.3561 16.1727 80.3749 17.0719 80.3749 18.5937V23.5164H79.0046V22.5039H78.8921C78.6637 22.8671 78.3431 23.1632 77.9629 23.3619C77.5827 23.5606 77.1566 23.6549 76.728 23.6351C76.4256 23.6665 76.1199 23.6343 75.8307 23.5404C75.5414 23.4464 75.2751 23.293 75.0488 23.0898C74.8226 22.8867 74.6414 22.6384 74.517 22.3609C74.3925 22.0834 74.3276 21.783 74.3265 21.4789ZM78.9577 20.8633V20.2609L77.1983 20.3734C76.2061 20.4398 75.7561 20.7773 75.7561 21.4125C75.7561 22.0609 76.3186 22.4382 77.0921 22.4382C77.3187 22.4612 77.5476 22.4383 77.7653 22.371C77.9829 22.3036 78.1847 22.1932 78.3588 22.0463C78.5328 21.8993 78.6756 21.7189 78.7785 21.5156C78.8813 21.3124 78.9423 21.0905 78.9577 20.8633ZM84.1483 23.5164V17.5086L87.4702 17.5085V16.3117H82.7264V23.5164H84.1483ZM96.0874 19.9109C96.0874 22.2 94.9296 23.6351 93.1108 23.6351C92.6643 23.6656 92.2185 23.5679 91.8257 23.3535C91.4329 23.1391 91.1095 22.817 90.8936 22.425H90.7811V25.9117H89.3592V16.3117H90.728V17.5024H90.8343C91.054 17.0967 91.3816 16.7596 91.7808 16.5284C92.1801 16.2972 92.6355 16.1809 93.0967 16.1922C94.9295 16.1922 96.0874 17.6211 96.0874 19.9109ZM94.6249 19.9109C94.6249 18.389 93.9046 17.4695 92.6999 17.4695C91.5031 17.4695 90.7546 18.4086 90.7546 19.9172C90.7546 21.4187 91.503 22.3586 92.6936 22.3586C93.9046 22.3586 94.6249 21.439 94.6249 19.9109ZM97.9812 24.8726V26.0968C98.114 26.1164 98.4515 26.1296 98.5703 26.1297C100.039 26.1297 100.72 25.5672 101.336 23.814L104.022 16.3117H102.514L100.714 22.0343H100.601L98.7952 16.3117H97.2467L99.8545 23.5429L99.7483 23.8937C99.6931 24.1924 99.5296 24.4603 99.2891 24.6458C99.0486 24.8314 98.7481 24.9216 98.4452 24.8992C98.2901 24.9011 98.135 24.8922 97.9812 24.8726ZM105.13 21.4718H106.545C106.684 22.107 107.28 22.4382 108.112 22.4382C109.059 22.4382 109.64 22.021 109.64 21.3726C109.64 20.6781 109.119 20.3469 108.112 20.3469H107.034V19.2422H108.094C108.953 19.2422 109.39 18.9117 109.39 18.3094C109.39 17.7805 108.967 17.3766 108.094 17.3766C107.298 17.3766 106.717 17.7141 106.625 18.2828H105.255C105.357 17.6293 105.712 17.0421 106.243 16.6475C106.774 16.2528 107.438 16.0824 108.094 16.1727C109.806 16.1727 110.786 16.9469 110.786 18.1641C110.794 18.503 110.685 18.8344 110.478 19.1029C110.271 19.3714 109.978 19.5607 109.648 19.6391V19.7516C110.041 19.8022 110.401 19.9953 110.661 20.2941C110.921 20.5929 111.062 20.9767 111.058 21.3727C111.058 22.7423 109.892 23.6484 108.112 23.6484C106.539 23.6484 105.261 22.9273 105.13 21.4718ZM113.105 16.3117V23.5164L114.515 23.5164L117.841 18.5344H117.947V23.5164H119.357V16.3117H117.947L114.627 21.2672H114.515V16.3117H113.105ZM127.121 17.5086H124.852V23.5164H123.429V17.5086H121.16V16.3118H127.121V17.5086ZM133.597 23.1799C134.167 22.7989 134.586 22.2295 134.78 21.571L133.41 21.571C133.243 21.87 132.991 22.1127 132.686 22.2682C132.382 22.4237 132.037 22.4851 131.697 22.4444C131.432 22.4476 131.169 22.3953 130.925 22.2907C130.681 22.1862 130.462 22.0318 130.281 21.8374C130.1 21.643 129.962 21.413 129.876 21.162C129.789 20.9111 129.756 20.6449 129.779 20.3804V20.3008H134.866V19.8046C134.866 17.5422 133.655 16.1726 131.65 16.1726C131.174 16.1685 130.703 16.2668 130.268 16.4607C129.834 16.6547 129.446 16.9397 129.131 17.2967C128.816 17.6536 128.581 18.074 128.443 18.5295C128.304 18.985 128.265 19.4648 128.329 19.9367C128.264 20.407 128.302 20.8859 128.441 21.34C128.579 21.7941 128.815 22.2126 129.132 22.5664C129.448 22.9203 129.838 23.2009 130.274 23.389C130.71 23.577 131.182 23.6679 131.657 23.6554C132.339 23.7292 133.026 23.5609 133.597 23.1799ZM133.416 19.2492H129.779C129.775 19.0032 129.821 18.759 129.914 18.5311C130.006 18.3031 130.143 18.096 130.317 17.922C130.491 17.748 130.698 17.6107 130.926 17.518C131.154 17.4254 131.398 17.3794 131.644 17.3828C131.886 17.3774 132.127 17.4227 132.351 17.5159C132.575 17.6091 132.776 17.748 132.943 17.9237C133.11 18.0995 133.238 18.3082 133.32 18.5365C133.401 18.7647 133.434 19.0075 133.416 19.2492ZM140.808 16.3117H144.057C145.466 16.3117 146.293 17.0258 146.293 18.1437C146.295 18.4984 146.175 18.8431 145.954 19.1202C145.732 19.3972 145.422 19.5897 145.076 19.6656V19.7781C145.496 19.8046 145.891 19.9918 146.178 20.3009C146.464 20.61 146.621 21.0174 146.616 21.439C146.616 22.696 145.671 23.5163 144.09 23.5163H140.808V16.3117ZM142.218 17.4031V19.2687H143.627C144.487 19.2687 144.897 18.9382 144.897 18.3289C144.897 17.7671 144.54 17.4031 143.785 17.4031L142.218 17.4031ZM142.218 20.314V22.425H143.904C144.744 22.425 145.194 22.0539 145.194 21.3726C145.194 20.6516 144.685 20.3141 143.726 20.3141L142.218 20.314ZM123.737 43.2577C123.957 45.2281 125.871 46.5217 128.487 46.5217C130.993 46.5217 132.796 45.228 132.796 43.4514C132.796 41.9092 131.708 40.9858 129.133 40.353L126.558 39.7327C122.91 38.8514 121.216 37.1452 121.216 34.3764C121.216 30.9483 124.204 28.5936 128.446 28.5936C132.644 28.5936 135.523 30.9483 135.619 34.3764H132.618C132.438 32.3936 130.799 31.1967 128.404 31.1967C126.008 31.1967 124.369 32.4077 124.369 34.1702C124.369 35.5749 125.416 36.4014 127.977 37.0342L130.166 37.5717C134.243 38.5357 135.937 40.1733 135.937 43.0795C135.937 46.7967 132.976 49.1248 128.266 49.1248C123.86 49.1248 120.885 46.8513 120.693 43.2576L123.737 43.2577ZM76.6835 43.4234H69.1101L67.2913 48.7937H64.0835L71.2569 28.9249H74.5897L81.7632 48.7937H78.5006L76.6835 43.4234ZM69.8944 40.9452H75.8976L72.9382 32.2296H72.8554L69.8944 40.9452ZM97.2554 41.5515C97.2554 46.0531 94.846 48.9452 91.2101 48.9452C90.289 48.9934 89.373 48.7812 88.567 48.333C87.7609 47.8848 87.0973 47.2187 86.6523 46.4108H86.5835V53.5858H83.61V34.3078H86.4882V36.7171H86.5429C87.0084 35.9132 87.6832 35.2505 88.4954 34.7995C89.3076 34.3486 90.2269 34.1262 91.1554 34.1562C94.8319 34.1562 97.2554 37.0624 97.2554 41.5515ZM94.1991 41.5515C94.1991 38.6187 92.6835 36.6906 90.371 36.6906C88.0991 36.6906 86.571 38.6593 86.571 41.5515C86.571 44.4702 88.0991 46.4249 90.371 46.4249C92.6835 46.4249 94.1991 44.5109 94.1991 41.5515ZM107.154 48.9452C110.79 48.9452 113.199 46.053 113.199 41.5515C113.199 37.0624 110.776 34.1562 107.099 34.1562C106.171 34.1262 105.251 34.3486 104.439 34.7995C103.627 35.2505 102.952 35.9132 102.487 36.7171H102.432V34.3077H99.5538V53.5858H102.527V46.4108H102.596C103.041 47.2186 103.705 47.8848 104.511 48.333C105.317 48.7812 106.233 48.9934 107.154 48.9452ZM106.315 36.6906C108.627 36.6906 110.143 38.6187 110.143 41.5515C110.143 44.5109 108.627 46.4249 106.315 46.4249C104.043 46.4249 102.515 44.4702 102.515 41.5515C102.515 38.6593 104.043 36.6906 106.315 36.6906ZM142.354 34.3078V30.8796H139.366V34.3078H137.26V36.6624H139.366V44.9655C139.366 47.7749 140.51 48.8764 143.443 48.8764C143.997 48.8867 144.55 48.8407 145.094 48.7389V46.3983C144.77 46.4384 144.443 46.4614 144.116 46.4671C142.905 46.4671 142.354 45.889 142.354 44.6484V36.6624H145.108V34.3078H142.354ZM146.704 41.5515C146.704 36.9937 149.388 34.1296 153.574 34.1296C157.774 34.1296 160.446 36.9936 160.446 41.5515C160.446 46.1218 157.788 48.9734 153.574 48.9734C149.361 48.9734 146.704 46.1218 146.704 41.5515ZM157.416 41.5515C157.416 38.4249 155.983 36.5796 153.574 36.5796C151.165 36.5796 149.733 38.439 149.733 41.5515C149.733 44.6906 151.165 46.5218 153.574 46.5218C155.983 46.5218 157.416 44.6906 157.416 41.5515ZM165.733 34.3078H162.897V48.7937H165.871V40.2015C165.822 39.7719 165.867 39.3369 166.002 38.9262C166.137 38.5156 166.359 38.139 166.653 37.8224C166.948 37.5057 167.307 37.2566 167.707 37.0919C168.107 36.9273 168.537 36.8512 168.969 36.8687C169.421 36.8555 169.873 36.9162 170.305 37.0484V34.2671C169.971 34.1922 169.629 34.155 169.287 34.1562C168.494 34.1259 167.714 34.3695 167.08 34.8462C166.445 35.3228 165.994 36.0033 165.802 36.7734H165.733V34.3078ZM184.015 44.539C183.615 47.1687 181.054 48.9734 177.777 48.9734C173.563 48.9734 170.947 46.1499 170.947 41.6202C170.947 37.0765 173.577 34.1296 177.652 34.1296C181.66 34.1296 184.18 36.8828 184.18 41.2749V42.2937H173.949V42.4734C173.902 43.0065 173.969 43.5436 174.145 44.0489C174.321 44.5542 174.603 45.0163 174.971 45.4044C175.34 45.7924 175.787 46.0977 176.283 46.2998C176.778 46.5018 177.311 46.5962 177.846 46.5765C178.549 46.6423 179.254 46.4796 179.856 46.1125C180.459 45.7454 180.927 45.1935 181.191 44.539L184.015 44.539ZM173.963 40.2156H181.205C181.232 39.7362 181.159 39.2565 180.992 38.8066C180.824 38.3566 180.566 37.9462 180.232 37.601C179.898 37.2557 179.497 36.9832 179.053 36.8005C178.609 36.6177 178.132 36.5287 177.652 36.539C177.168 36.5361 176.688 36.6292 176.24 36.8127C175.792 36.9963 175.384 37.2668 175.042 37.6086C174.699 37.9505 174.427 38.3568 174.242 38.8043C174.056 39.2517 173.962 39.7314 173.963 40.2156ZM39.4311 18.9307C40.8053 17.2754 41.4823 15.1478 41.3184 12.9998C39.219 13.221 37.2796 14.2278 35.8869 15.8196C35.2059 16.5973 34.6844 17.5019 34.3521 18.4819C34.0198 19.4619 33.8832 20.4981 33.9502 21.531C35.0003 21.5419 36.0392 21.3135 36.9886 20.8631C37.938 20.4127 38.7731 19.752 39.4311 18.9307ZM44.0568 32.6763C44.075 31.2581 44.4504 29.8676 45.1481 28.6341C45.8458 27.4006 46.8431 26.3642 48.0472 25.6214C47.2823 24.5252 46.2731 23.6231 45.0999 22.9867C43.9268 22.3503 42.6218 21.9971 41.2888 21.9553C39.5495 21.7721 37.8427 22.4518 36.4477 23.0073C35.5622 23.36 34.8023 23.6626 34.2397 23.6626C33.5996 23.6626 32.8179 23.3475 31.9421 22.9945C30.7968 22.533 29.4906 22.0065 28.1293 22.0346C26.5754 22.085 25.0609 22.5384 23.7336 23.3507C22.4062 24.1629 21.3112 25.3064 20.5551 26.6696C17.2802 32.3589 19.723 40.7204 22.8601 45.3193C24.4297 47.5712 26.264 50.0867 28.6642 49.9975C29.753 49.9521 30.5256 49.6259 31.3236 49.2889L31.3236 49.2889C32.247 48.8989 33.2045 48.4946 34.7253 48.4946C36.1594 48.4946 37.0758 48.8863 37.9552 49.2622C38.7983 49.6226 39.6075 49.9685 40.8061 49.9407C43.3264 49.8997 44.9143 47.6788 46.4288 45.4055C47.5565 43.801 48.4243 42.0275 49 40.151C47.5358 39.5296 46.2862 38.4894 45.4072 37.1602C44.5281 35.831 44.0585 34.2715 44.0568 32.6763Z" fill="black"/>
</svg>
