<svg width="159" height="191" viewBox="0 0 159 191" fill="none" xmlns="http://www.w3.org/2000/svg">
<path fill-rule="evenodd" clip-rule="evenodd" d="M69 0H72.1111C72.1111 24.2809 91.5177 44.0292 115.666 44.5803V47.6922C89.8493 47.1416 69.0804 26.0808 69.0002 0.150605V3.11193C44.8517 3.66301 25.4451 23.4113 25.4451 47.6923H22.3341C22.3341 21.6931 43.1332 0.551806 69 0ZM115.666 7.18567C112.148 6.68248 109.444 3.65705 109.444 0H106.333C106.333 5.37735 110.426 9.79876 115.666 10.3191V7.18567ZM115.666 13.4421C108.705 12.9125 103.222 7.09661 103.222 0H100.111C100.111 8.81546 106.986 16.0252 115.666 16.5605V13.4421ZM115.666 19.6767C105.266 19.1374 96.9997 10.5341 96.9997 0H93.8886C93.8886 12.2526 103.547 22.2493 115.666 22.7914V19.6767ZM115.666 25.9053C101.829 25.361 90.7776 13.971 90.7776 0H87.6665C87.6665 15.6894 100.11 28.4725 115.666 29.0186V25.9053ZM115.666 32.1314C98.3914 31.584 84.5554 17.4078 84.5554 0H81.4443C81.4443 19.1261 96.6729 34.6954 115.666 35.2439V32.1314ZM115.666 38.3562C94.9545 37.8067 78.3333 20.8444 78.3333 0H75.2222C75.2222 22.5627 93.236 40.918 115.666 41.4684V38.3562ZM62.7781 47.6923C62.7781 44.0352 65.4823 41.0098 69.0002 40.5066V37.3732C63.7598 37.8935 59.667 42.3149 59.667 47.6923H62.7781ZM56.5559 47.6923C56.5559 40.5956 62.0393 34.7797 69.0002 34.2502V31.1317C60.3196 31.667 53.4449 38.8768 53.4449 47.6923H56.5559ZM50.3338 47.6923C50.3338 37.1582 58.6004 28.5548 69.0002 28.0156V24.9008C56.8814 25.443 47.2227 35.4397 47.2227 47.6923H50.3338ZM44.1116 47.6923C44.1116 33.7212 55.1627 22.3313 69.0002 21.787V18.6737C53.444 19.2197 41.0005 32.0028 41.0005 47.6923H44.1116ZM37.8895 47.6923C37.8895 30.2845 51.7254 16.1083 69.0002 15.5608V12.4483C50.007 12.9969 34.7784 28.5662 34.7784 47.6923H37.8895ZM31.6673 47.6923C31.6673 26.8479 48.2885 9.88557 69.0002 9.33601V6.2239C46.5701 6.77427 28.5562 25.1296 28.5562 47.6923H31.6673ZM115.667 47.7144C141.534 48.2662 162.333 69.4074 162.333 95.4066L162.334 92.2947C186.482 91.7436 205.889 71.9953 205.889 47.7144H209C209 73.7136 188.2 94.8549 162.333 95.4066L165.444 95.4065C165.444 119.687 184.851 139.436 208.999 139.987V143.099C183.182 142.548 162.413 121.487 162.333 95.5559V98.5184C138.185 99.0695 118.778 118.818 118.778 143.099H115.667C115.667 117.1 136.467 95.9587 162.333 95.4066H159.222C159.222 71.1256 139.815 51.3773 115.667 50.8262V47.8637C115.587 73.7936 94.8195 94.8545 69.0033 95.4064H72.1101C72.1101 119.687 91.5166 139.436 115.665 139.987V143.099C89.8474 142.548 69.078 121.486 68.9992 95.5546V98.5183C44.8507 99.0694 25.4441 118.818 25.4441 143.099H22.333C22.333 117.101 43.1295 95.961 68.994 95.4065H65.8889C65.8889 71.1256 46.4824 51.3773 22.3338 50.8262V47.7144C48.2007 48.2661 69 69.4073 69 95.4064L69.0008 92.2946C93.1494 91.7436 112.556 71.9953 112.556 47.7143L115.667 47.7144C115.667 47.7144 115.667 47.7144 115.667 47.7144ZM69.0008 54.9C72.5187 54.3968 75.223 51.3714 75.223 47.7143H78.3341C78.3341 53.0917 74.2413 57.5131 69.0008 58.0334V54.9ZM69.0008 61.1564C75.9618 60.6268 81.4452 54.8109 81.4452 47.7143H84.5562C84.5562 56.5298 77.6815 63.7396 69.0008 64.2749V61.1564ZM69.0008 67.391C79.4007 66.8517 87.6673 58.2484 87.6673 47.7143H90.7784C90.7784 59.9669 81.1197 69.9636 69.0008 70.5058V67.391ZM69.0008 73.6196C82.8384 73.0753 93.8895 61.6854 93.8895 47.7143H97.0006C97.0006 63.4037 84.5571 76.1868 69.0008 76.7329V73.6196ZM69.0008 79.8457C86.2756 79.2983 100.112 65.1221 100.112 47.7143H103.223C103.223 66.8404 87.9941 82.4097 69.0008 82.9583V79.8457ZM69.0008 86.0706C89.7126 85.521 106.334 68.5587 106.334 47.7143H109.445C109.445 70.277 91.431 88.6323 69.0008 89.1827V86.0706ZM22.3338 88.2209C25.8517 88.7241 28.556 91.7495 28.556 95.4065H31.6671C31.6671 90.0292 27.5742 85.6078 22.3338 85.0875V88.2209ZM22.3338 81.9645C29.2948 82.494 34.7781 88.3099 34.7781 95.4065H37.8892C37.8892 86.5911 31.0145 79.3813 22.3338 78.846V81.9645ZM22.3338 75.7299C32.7337 76.2691 41.0003 84.8725 41.0003 95.4065H44.1114C44.1114 83.1539 34.4527 73.1573 22.3338 72.6151V75.7299ZM22.3338 69.5012C36.1714 70.0456 47.2225 81.4355 47.2225 95.4065H50.3335C50.3335 79.7171 37.8901 66.934 22.3338 66.388V69.5012ZM22.3338 63.2751C39.6086 63.8226 53.4446 77.9988 53.4446 95.4065H56.5557C56.5557 76.2805 41.3271 60.7112 22.3338 60.1626V63.2751ZM22.3338 57.0503C43.0456 57.5999 59.6668 74.5622 59.6668 95.4065H62.7779C62.7779 72.8439 44.764 54.4886 22.3338 53.9382V57.0503ZM109.443 95.4064C109.443 99.0635 112.147 102.089 115.665 102.592V105.726C110.425 105.205 106.332 100.784 106.332 95.4064H109.443ZM103.221 95.4064C103.221 102.503 108.704 108.319 115.665 108.848V111.967C106.985 111.432 100.11 104.222 100.11 95.4064H103.221ZM96.9987 95.4064C96.9987 105.941 105.265 114.544 115.665 115.083V118.198C103.546 117.656 93.8876 107.659 93.8876 95.4064H96.9987ZM90.7766 95.4064C90.7766 109.377 101.828 120.767 115.665 121.312V124.425C100.109 123.879 87.6655 111.096 87.6655 95.4064H90.7766ZM84.5544 95.4064C84.5544 112.814 98.3904 126.99 115.665 127.538V130.65C96.6719 130.102 81.4433 114.533 81.4433 95.4064H84.5544ZM78.3322 95.4064C78.3322 116.251 94.9534 133.213 115.665 133.763V136.875C93.235 136.324 75.2212 117.969 75.2212 95.4064H78.3322ZM68.9992 135.913C65.4813 136.416 62.7771 139.442 62.7771 143.099H59.666C59.666 137.721 63.7588 133.3 68.9992 132.78V135.913ZM68.9992 129.657C62.0382 130.186 56.5549 136.002 56.5549 143.099H53.4438C53.4438 134.283 60.3186 127.073 68.9992 126.538V129.657ZM68.9992 123.422C58.5993 123.961 50.3327 132.565 50.3327 143.099H47.2217C47.2217 130.846 56.8804 120.849 68.9992 120.307V123.422ZM68.9992 117.193C55.1616 117.738 44.1106 129.128 44.1106 143.099H40.9995C40.9995 127.409 53.443 114.626 68.9992 114.08V117.193ZM68.9992 110.967C51.7244 111.515 37.8884 125.691 37.8884 143.099H34.7773C34.7773 123.973 50.0059 108.403 68.9992 107.855V110.967ZM68.9992 104.742C48.2875 105.292 31.6663 122.254 31.6663 143.099H28.5552C28.5552 120.536 46.5691 102.181 68.9992 101.63V104.742ZM115.666 143.121C115.666 169.119 94.8679 190.26 69.002 190.813H72.1101C72.1101 215.094 91.5166 234.842 115.665 235.393V238.505C89.8474 237.954 69.078 216.892 68.9992 190.961V193.925C44.8507 194.476 25.4441 214.224 25.4441 238.505H22.333C22.333 212.507 43.1307 191.366 68.9961 190.813H65.8879C65.8879 166.532 46.4814 146.784 22.3328 146.233V143.121C48.1997 143.672 68.999 164.814 68.999 190.813L68.9998 187.701C93.1484 187.15 112.555 167.402 112.555 143.121H115.666ZM75.222 143.121C75.222 146.778 72.5177 149.803 68.9998 150.306V153.44C74.2402 152.92 78.3331 148.498 78.3331 143.121H75.222ZM81.4441 143.121C81.4441 150.217 75.9608 156.033 68.9998 156.563V159.681C77.6805 159.146 84.5552 151.936 84.5552 143.121H81.4441ZM87.6663 143.121C87.6663 153.655 79.3997 162.258 68.9998 162.797V165.912C81.1187 165.37 90.7774 155.373 90.7774 143.121H87.6663ZM93.8885 143.121C93.8885 157.092 82.8374 168.482 68.9998 169.026V172.139C84.5561 171.593 96.9995 158.81 96.9995 143.121H93.8885ZM100.111 143.121C100.111 160.529 86.2746 174.705 68.9998 175.252V178.365C87.9931 177.816 103.222 162.247 103.222 143.121H100.111ZM106.333 143.121C106.333 163.965 89.7116 180.927 68.9998 181.477V184.589C91.43 184.039 109.444 165.683 109.444 143.121H106.333ZM28.555 190.813C28.555 187.156 25.8507 184.13 22.3328 183.627V180.494C27.5732 181.014 31.666 185.436 31.666 190.813H28.555ZM34.7771 190.813C34.7771 183.716 29.2938 177.9 22.3328 177.371V174.252C31.0135 174.788 37.8882 181.997 37.8882 190.813H34.7771ZM40.9993 190.813C40.9993 180.279 32.7327 171.676 22.3328 171.136V168.022C34.4516 168.564 44.1104 178.56 44.1104 190.813H40.9993ZM47.2214 190.813C47.2214 176.842 36.1704 165.452 22.3328 164.908V161.794C37.8891 162.34 50.3325 175.124 50.3325 190.813H47.2214ZM53.4436 190.813C53.4436 173.405 39.6076 159.229 22.3328 158.682V155.569C41.3261 156.118 56.5547 171.687 56.5547 190.813H53.4436ZM59.6658 190.813C59.6658 169.969 43.0446 153.006 22.3328 152.457V149.345C44.763 149.895 62.7768 168.25 62.7768 190.813H59.6658ZM115.665 197.999C112.147 197.495 109.443 194.47 109.443 190.813H106.332C106.332 196.19 110.425 200.612 115.665 201.132V197.999ZM115.665 204.255C108.704 203.725 103.221 197.91 103.221 190.813H100.11C100.11 199.628 106.985 206.838 115.665 207.373V204.255ZM115.665 210.49C105.265 209.95 96.9987 201.347 96.9987 190.813H93.8876C93.8876 203.065 103.546 213.062 115.665 213.604V210.49ZM115.665 216.718C101.828 216.174 90.7766 204.784 90.7766 190.813H87.6655C87.6655 206.502 100.109 219.285 115.665 219.831V216.718ZM115.665 222.944C98.3904 222.397 84.5544 208.221 84.5544 190.813H81.4433C81.4433 209.939 96.6719 225.508 115.665 226.057V222.944ZM115.665 229.169C94.9534 228.62 78.3322 211.657 78.3322 190.813H75.2212C75.2212 213.376 93.235 231.731 115.665 232.281V229.169ZM62.7771 238.505C62.7771 234.848 65.4813 231.823 68.9992 231.319V228.186C63.7588 228.706 59.666 233.128 59.666 238.505H62.7771ZM56.5549 238.505C56.5549 231.408 62.0382 225.593 68.9992 225.063V221.945C60.3186 222.48 53.4438 229.69 53.4438 238.505H56.5549ZM50.3327 238.505C50.3327 227.971 58.5993 219.368 68.9992 218.828V215.714C56.8804 216.256 47.2217 226.252 47.2217 238.505H50.3327ZM44.1106 238.505C44.1106 224.534 55.1616 213.144 68.9992 212.6V209.486C53.443 210.033 40.9995 222.816 40.9995 238.505H44.1106ZM37.8884 238.505C37.8884 221.097 51.7244 206.921 68.9992 206.374V203.261C50.0059 203.81 34.7773 219.379 34.7773 238.505H37.8884ZM31.6663 238.505C31.6663 217.661 48.2875 200.698 68.9992 200.149V197.037C46.5691 197.587 28.5552 215.942 28.5552 238.505H31.6663ZM68.9998 286.219C94.8667 285.668 115.666 264.526 115.666 238.527H112.555C112.555 262.808 93.1484 282.556 68.9998 283.108V286.219ZM68.9998 286.219C68.9998 260.22 48.1997 239.079 22.3328 238.527V241.639C46.4814 242.19 65.8879 261.938 65.8879 286.219H68.9976C43.1314 286.772 22.333 307.913 22.333 333.912H25.4441C25.4441 309.631 44.8507 289.882 68.9992 289.331V286.367C69.078 312.299 89.8474 333.361 115.665 333.911V330.8C91.5166 330.249 72.1101 310.5 72.1101 286.219L68.9998 286.219ZM68.9998 245.713C72.5177 245.21 75.222 242.184 75.222 238.527H78.3331C78.3331 243.905 74.2402 248.326 68.9998 248.846V245.713ZM68.9998 251.969C75.9608 251.44 81.4441 245.624 81.4441 238.527H84.5552C84.5552 247.343 77.6805 254.552 68.9998 255.088V251.969ZM68.9998 258.204C79.3997 257.665 87.6663 249.061 87.6663 238.527H90.7774C90.7774 250.78 81.1187 260.776 68.9998 261.319V258.204ZM68.9998 264.432C82.8374 263.888 93.8885 252.498 93.8885 238.527H96.9995C96.9995 254.217 84.5561 267 68.9998 267.546V264.432ZM68.9998 270.659C86.2746 270.111 100.111 255.935 100.111 238.527H103.222C103.222 257.653 87.9931 273.223 68.9998 273.771V270.659ZM68.9998 276.883C89.7116 276.334 106.333 259.372 106.333 238.527H109.444C109.444 261.09 91.43 279.445 68.9998 279.996V276.883ZM22.3328 279.034C25.8507 279.537 28.555 282.562 28.555 286.219H31.666C31.666 280.842 27.5732 276.421 22.3328 275.9V279.034ZM22.3328 272.777C29.2938 273.307 34.7771 279.123 34.7771 286.219H37.8882C37.8882 277.404 31.0135 270.194 22.3328 269.659V272.777ZM22.3328 266.543C32.7327 267.082 40.9993 275.685 40.9993 286.219H44.1104C44.1104 273.967 34.4516 263.97 22.3328 263.428V266.543ZM22.3328 260.314C36.1704 260.858 47.2214 272.248 47.2214 286.219H50.3325C50.3325 270.53 37.8891 257.747 22.3328 257.201V260.314ZM22.3328 254.088C39.6076 254.635 53.4436 268.812 53.4436 286.219H56.5547C56.5547 267.093 41.3261 251.524 22.3328 250.975V254.088ZM22.3328 247.863C43.0446 248.413 59.6658 265.375 59.6658 286.219H62.7768C62.7768 263.657 44.763 245.301 22.3328 244.751V247.863ZM115.665 293.405C112.147 292.902 109.443 289.876 109.443 286.219H106.332C106.332 291.597 110.425 296.018 115.665 296.538V293.405ZM115.665 299.661C108.704 299.132 103.221 293.316 103.221 286.219H100.11C100.11 295.035 106.985 302.245 115.665 302.78V299.661ZM115.665 305.896C105.265 305.357 96.9987 296.753 96.9987 286.219H93.8876C93.8876 298.472 103.546 308.469 115.665 309.011V305.896ZM115.665 312.125C101.828 311.58 90.7766 300.19 90.7766 286.219H87.6655C87.6655 301.909 100.109 314.692 115.665 315.238V312.125ZM115.665 318.351C98.3904 317.803 84.5544 303.627 84.5544 286.219H81.4433C81.4433 305.345 96.6719 320.915 115.665 321.463V318.351ZM115.665 324.576C94.9534 324.026 78.3322 307.064 78.3322 286.219H75.2212C75.2212 308.782 93.235 327.137 115.665 327.688V324.576ZM62.7771 333.912C62.7771 330.254 65.4813 327.229 68.9992 326.726V323.592C63.7588 324.113 59.666 328.534 59.666 333.912H62.7771ZM56.5549 333.912C56.5549 326.815 62.0382 320.999 68.9992 320.469V317.351C60.3186 317.886 53.4438 325.096 53.4438 333.912H56.5549ZM50.3327 333.912C50.3327 323.377 58.5993 314.774 68.9992 314.235V311.12C56.8804 311.662 47.2217 321.659 47.2217 333.912H50.3327ZM44.1106 333.912C44.1106 319.94 55.1616 308.551 68.9992 308.006V304.893C53.443 305.439 40.9995 318.222 40.9995 333.912H44.1106ZM37.8884 333.912C37.8884 316.504 51.7244 302.328 68.9992 301.78V298.668C50.0059 299.216 34.7773 314.785 34.7773 333.912H37.8884ZM31.6663 333.912C31.6663 313.067 48.2875 296.105 68.9992 295.555V292.443C46.5691 292.994 28.5552 311.349 28.5552 333.912H31.6663ZM68.9998 381.626C94.8667 381.074 115.666 359.933 115.666 333.934H112.555C112.555 358.215 93.1484 377.963 68.9998 378.514V381.626ZM68.9998 341.119C72.5177 340.616 75.222 337.591 75.222 333.934H78.3331C78.3331 339.311 74.2402 343.732 68.9998 344.253V341.119ZM68.9998 347.376C75.9608 346.846 81.4441 341.03 81.4441 333.934H84.5552C84.5552 342.749 77.6805 349.959 68.9998 350.494V347.376ZM68.9998 353.61C79.3997 353.071 87.6663 344.468 87.6663 333.934H90.7774C90.7774 346.186 81.1187 356.183 68.9998 356.725V353.61ZM68.9998 359.839C82.8374 359.295 93.8885 347.905 93.8885 333.934H96.9995C96.9995 349.623 84.5561 362.406 68.9998 362.952V359.839ZM68.9998 366.065C86.2746 365.518 100.111 351.341 100.111 333.934H103.222C103.222 353.06 87.9931 368.629 68.9998 369.178V366.065ZM68.9998 372.29C89.7116 371.74 106.333 354.778 106.333 333.934H109.444C109.444 356.496 91.43 374.852 68.9998 375.402V372.29ZM22.3328 333.934C48.1997 334.485 68.9998 355.627 68.9998 381.626H65.8879C65.8879 357.345 46.4814 337.597 22.3328 337.046V333.934ZM22.3328 374.44C25.8507 374.943 28.555 377.969 28.555 381.626H31.666C31.666 376.248 27.5732 371.827 22.3328 371.307V374.44ZM22.3328 368.184C29.2938 368.713 34.7771 374.529 34.7771 381.626H37.8882C37.8882 372.81 31.0135 365.601 22.3328 365.065V368.184ZM22.3328 361.949C32.7327 362.488 40.9993 371.092 40.9993 381.626H44.1104C44.1104 369.373 34.4516 359.377 22.3328 358.834V361.949ZM22.3328 355.721C36.1704 356.265 47.2214 367.655 47.2214 381.626H50.3325C50.3325 365.936 37.8891 353.153 22.3328 352.607V355.721ZM22.3328 349.494C39.6076 350.042 53.4436 364.218 53.4436 381.626H56.5547C56.5547 362.5 41.3261 346.93 22.3328 346.382V349.494ZM22.3328 343.27C43.0446 343.819 59.6658 360.781 59.6658 381.626H62.7768C62.7768 359.063 44.763 340.708 22.3328 340.157V343.27ZM162.333 3.016e-05H165.444C165.444 24.281 184.851 44.0293 208.999 44.5804V47.6922C183.182 47.1416 162.413 26.0802 162.333 0.149396V3.11193C138.185 3.663 118.778 23.4113 118.778 47.6923L115.666 47.6922C115.666 21.693 136.466 0.551834 162.333 3.016e-05ZM208.999 7.1857C205.481 6.68251 202.777 3.65708 202.777 3.016e-05H199.666C199.666 5.37737 203.759 9.79879 208.999 10.3191V7.1857ZM208.999 13.4421C202.038 12.9125 196.555 7.09664 196.555 3.016e-05H193.444C193.444 8.81549 200.319 16.0253 208.999 16.5606V13.4421ZM208.999 19.6767C198.599 19.1374 190.333 10.5341 190.333 3.016e-05H187.222C187.222 12.2526 196.88 22.2493 208.999 22.7915V19.6767ZM208.999 25.9053C195.162 25.361 184.111 13.9711 184.111 3.016e-05H180.999C180.999 15.6894 193.443 28.4725 208.999 29.0186V25.9053ZM208.999 32.1314C191.724 31.584 177.888 17.4078 177.888 3.016e-05H174.777C174.777 19.1261 190.006 34.6954 208.999 35.244V32.1314ZM208.999 38.3563C188.287 37.8067 171.666 20.8444 171.666 3.016e-05H168.555C168.555 22.5627 186.569 40.918 208.999 41.4684V38.3563ZM156.111 47.6923C156.111 44.0352 158.815 41.0098 162.333 40.5066V37.3732C157.093 37.8935 153 42.3149 153 47.6923H156.111ZM149.889 47.6923C149.889 40.5956 155.372 34.7797 162.333 34.2502V31.1317C153.653 31.667 146.778 38.8768 146.778 47.6923H149.889ZM143.667 47.6923C143.667 37.1582 151.933 28.5548 162.333 28.0156V24.9008C150.214 25.443 140.556 35.4397 140.556 47.6923H143.667ZM137.445 47.6923C137.445 33.7212 148.496 22.3313 162.333 21.7869V18.6737C146.777 19.2197 134.334 32.0028 134.334 47.6923H137.445ZM131.222 47.6923C131.222 30.2845 145.058 16.1083 162.333 15.5608V12.4483C143.34 12.9969 128.111 28.5662 128.111 47.6923H131.222ZM125 47.6923C125 26.8479 141.621 9.88557 162.333 9.33601V6.2239C139.903 6.77427 121.889 25.1296 121.889 47.6923H125ZM162.334 54.9C165.852 54.3968 168.556 51.3714 168.556 47.7144H171.667C171.667 53.0917 167.574 57.5131 162.334 58.0334V54.9ZM162.334 61.1564C169.295 60.6269 174.778 54.811 174.778 47.7144H177.889C177.889 56.5298 171.014 63.7396 162.334 64.2749V61.1564ZM162.334 67.391C172.734 66.8518 181 58.2484 181 47.7144H184.111C184.111 59.967 174.453 69.9636 162.334 70.5058V67.391ZM162.334 73.6197C176.171 73.0753 187.222 61.6854 187.222 47.7144H190.334C190.334 63.4038 177.89 76.1869 162.334 76.7329V73.6197ZM162.334 79.8458C179.609 79.2983 193.445 65.1221 193.445 47.7144H196.556C196.556 66.8404 181.327 82.4097 162.334 82.9583V79.8458ZM162.334 86.0706C183.046 85.521 199.667 68.5587 199.667 47.7144H202.778C202.778 70.277 184.764 88.6323 162.334 89.1827V86.0706ZM115.667 88.2209C119.185 88.7241 121.889 91.7495 121.889 95.4066H125C125 90.0292 120.907 85.6078 115.667 85.0875V88.2209ZM115.667 81.9645C122.628 82.494 128.111 88.3099 128.111 95.4066H131.222C131.222 86.5911 124.347 79.3813 115.667 78.846V81.9645ZM115.667 75.7299C126.067 76.2691 134.333 84.8725 134.333 95.4066H137.444C137.444 83.154 127.786 73.1573 115.667 72.6151V75.7299ZM115.667 69.5013C129.504 70.0456 140.555 81.4355 140.555 95.4066H143.667C143.667 79.7171 131.223 66.934 115.667 66.388V69.5013ZM115.667 63.2751C132.942 63.8226 146.778 77.9988 146.778 95.4066H149.889C149.889 76.2805 134.66 60.7112 115.667 60.1626V63.2751ZM115.667 57.0503C136.379 57.5999 153 74.5622 153 95.4066H156.111C156.111 72.8439 138.097 54.4886 115.667 53.9382V57.0503ZM202.777 95.4065C202.777 99.0636 205.481 102.089 208.999 102.592V105.726C203.759 105.205 199.666 100.784 199.666 95.4065H202.777ZM196.555 95.4065C196.555 102.503 202.038 108.319 208.999 108.849V111.967C200.319 111.432 193.444 104.222 193.444 95.4065H196.555ZM190.333 95.4065C190.333 105.941 198.599 114.544 208.999 115.083V118.198C196.88 117.656 187.222 107.659 187.222 95.4065H190.333ZM184.111 95.4065C184.111 109.378 195.162 120.767 208.999 121.312V124.425C193.443 123.879 180.999 111.096 180.999 95.4065H184.111ZM177.888 95.4065C177.888 112.814 191.724 126.99 208.999 127.538V130.65C190.006 130.102 174.777 114.533 174.777 95.4065H177.888ZM171.666 95.4065C171.666 116.251 188.287 133.213 208.999 133.763V136.875C186.569 136.324 168.555 117.969 168.555 95.4065H171.666ZM162.333 135.913C158.815 136.416 156.111 139.442 156.111 143.099H153C153 137.721 157.093 133.3 162.333 132.78V135.913ZM162.333 129.657C155.372 130.186 149.889 136.002 149.889 143.099H146.778C146.778 134.283 153.653 127.073 162.333 126.538V129.657ZM162.333 123.422C151.933 123.961 143.667 132.565 143.667 143.099H140.556C140.556 130.846 150.214 120.849 162.333 120.307V123.422ZM162.333 117.193C148.496 117.738 137.445 129.128 137.445 143.099H134.334C134.334 127.409 146.777 114.626 162.333 114.08V117.193ZM162.333 110.967C145.058 111.515 131.222 125.691 131.222 143.099H128.111C128.111 123.973 143.34 108.403 162.333 107.855V110.967ZM162.333 104.742C141.621 105.292 125 122.254 125 143.099H121.889C121.889 120.536 139.903 102.181 162.333 101.63V104.742ZM209 143.121C209 169.12 188.201 190.261 162.334 190.813L165.444 190.813C165.444 215.094 184.851 234.842 208.999 235.393V238.505C183.182 237.954 162.413 216.893 162.333 190.962V193.925C138.185 194.476 118.778 214.224 118.778 238.505H115.667C115.667 212.506 136.465 191.366 162.332 190.813H159.222C159.222 166.532 139.815 146.784 115.667 146.233L115.666 143.121C141.533 143.672 162.334 164.814 162.334 190.813V187.701C186.482 187.15 205.889 167.402 205.889 143.121H209ZM168.556 143.121C168.556 146.778 165.852 149.803 162.334 150.306V153.44C167.574 152.92 171.667 148.498 171.667 143.121H168.556ZM174.778 143.121C174.778 150.217 169.295 156.033 162.334 156.563V159.681C171.014 159.146 177.889 151.936 177.889 143.121H174.778ZM181 143.121C181 153.655 172.734 162.258 162.334 162.797V165.912C174.453 165.37 184.111 155.373 184.111 143.121H181ZM187.222 143.121C187.222 157.092 176.171 168.482 162.334 169.026V172.139C177.89 171.593 190.334 158.81 190.334 143.121H187.222ZM193.445 143.121C193.445 160.529 179.609 174.705 162.334 175.252V178.365C181.327 177.816 196.556 162.247 196.556 143.121H193.445ZM199.667 143.121C199.667 163.965 183.046 180.927 162.334 181.477V184.589C184.764 184.039 202.778 165.683 202.778 143.121H199.667ZM121.889 190.813C121.889 187.156 119.185 184.131 115.667 183.627V180.494C120.907 181.014 125 185.436 125 190.813H121.889ZM128.111 190.813C128.111 183.716 122.628 177.9 115.667 177.371V174.252C124.347 174.788 131.222 181.998 131.222 190.813H128.111ZM134.333 190.813C134.333 180.279 126.067 171.676 115.667 171.136V168.022C127.786 168.564 137.444 178.56 137.444 190.813H134.333ZM140.555 190.813C140.555 176.842 129.504 165.452 115.667 164.908V161.794C131.223 162.34 143.667 175.124 143.667 190.813H140.555ZM146.778 190.813C146.778 173.405 132.942 159.229 115.667 158.682V155.569C134.66 156.118 149.889 171.687 149.889 190.813H146.778ZM153 190.813C153 169.969 136.379 153.006 115.667 152.457V149.345C138.097 149.895 156.111 168.25 156.111 190.813H153ZM208.999 197.999C205.481 197.495 202.777 194.47 202.777 190.813H199.666C199.666 196.19 203.759 200.612 208.999 201.132V197.999ZM208.999 204.255C202.038 203.725 196.555 197.91 196.555 190.813H193.444C193.444 199.628 200.319 206.838 208.999 207.373V204.255ZM208.999 210.49C198.599 209.95 190.333 201.347 190.333 190.813H187.222C187.222 203.066 196.88 213.062 208.999 213.604V210.49ZM208.999 216.718C195.162 216.174 184.111 204.784 184.111 190.813H180.999C180.999 206.502 193.443 219.285 208.999 219.831V216.718ZM208.999 222.944C191.724 222.397 177.888 208.221 177.888 190.813H174.777C174.777 209.939 190.006 225.508 208.999 226.057V222.944ZM208.999 229.169C188.287 228.62 171.666 211.657 171.666 190.813H168.555C168.555 213.376 186.569 231.731 208.999 232.281V229.169ZM156.111 238.505C156.111 234.848 158.815 231.823 162.333 231.319V228.186C157.093 228.706 153 233.128 153 238.505H156.111ZM149.889 238.505C149.889 231.409 155.372 225.593 162.333 225.063V221.945C153.653 222.48 146.778 229.69 146.778 238.505H149.889ZM143.667 238.505C143.667 227.971 151.933 219.368 162.333 218.828V215.714C150.214 216.256 140.556 226.253 140.556 238.505H143.667ZM137.445 238.505C137.445 224.534 148.496 213.144 162.333 212.6V209.487C146.777 210.033 134.334 222.816 134.334 238.505H137.445ZM131.222 238.505C131.222 221.097 145.058 206.921 162.333 206.374V203.261C143.34 203.81 128.111 219.379 128.111 238.505H131.222ZM125 238.505C125 217.661 141.621 200.698 162.333 200.149V197.037C139.903 197.587 121.889 215.942 121.889 238.505H125ZM162.334 286.219C188.201 285.668 209 264.526 209 238.527H205.889C205.889 262.808 186.482 282.556 162.334 283.108V286.219ZM162.334 286.219C136.467 286.771 115.667 307.912 115.667 333.912H118.778C118.778 309.631 138.185 289.882 162.333 289.331V286.369C162.413 312.299 183.182 333.361 208.999 333.911V330.8C184.851 330.249 165.444 310.5 165.444 286.219L162.334 286.219ZM159.222 286.219H162.334C162.334 260.22 141.533 239.079 115.666 238.527L115.667 241.639C139.815 242.19 159.222 261.938 159.222 286.219ZM162.334 245.713C165.852 245.21 168.556 242.184 168.556 238.527H171.667C171.667 243.905 167.574 248.326 162.334 248.846V245.713ZM162.334 251.969C169.295 251.44 174.778 245.624 174.778 238.527H177.889C177.889 247.343 171.014 254.552 162.334 255.088V251.969ZM162.334 258.204C172.734 257.665 181 249.061 181 238.527H184.111C184.111 250.78 174.453 260.776 162.334 261.319V258.204ZM162.334 264.432C176.171 263.888 187.222 252.498 187.222 238.527H190.334C190.334 254.217 177.89 267 162.334 267.546V264.432ZM162.334 270.659C179.609 270.111 193.445 255.935 193.445 238.527H196.556C196.556 257.653 181.327 273.223 162.334 273.771V270.659ZM162.334 276.883C183.046 276.334 199.667 259.372 199.667 238.527H202.778C202.778 261.09 184.764 279.445 162.334 279.996V276.883ZM115.667 279.034C119.185 279.537 121.889 282.562 121.889 286.219H125C125 280.842 120.907 276.421 115.667 275.9V279.034ZM115.667 272.777C122.628 273.307 128.111 279.123 128.111 286.219H131.222C131.222 277.404 124.347 270.194 115.667 269.659V272.777ZM115.667 266.543C126.067 267.082 134.333 275.685 134.333 286.219H137.444C137.444 273.967 127.786 263.97 115.667 263.428V266.543ZM115.667 260.314C129.504 260.858 140.555 272.248 140.555 286.219H143.667C143.667 270.53 131.223 257.747 115.667 257.201V260.314ZM115.667 254.088C132.942 254.635 146.778 268.812 146.778 286.219H149.889C149.889 267.093 134.66 251.524 115.667 250.975V254.088ZM115.667 247.863C136.379 248.413 153 265.375 153 286.219H156.111C156.111 263.657 138.097 245.301 115.667 244.751V247.863ZM208.999 293.405C205.481 292.902 202.777 289.876 202.777 286.219H199.666C199.666 291.597 203.759 296.018 208.999 296.538V293.405ZM208.999 299.661C202.038 299.132 196.555 293.316 196.555 286.219H193.444C193.444 295.035 200.319 302.245 208.999 302.78V299.661ZM208.999 305.896C198.599 305.357 190.333 296.753 190.333 286.219H187.222C187.222 298.472 196.88 308.469 208.999 309.011V305.896ZM208.999 312.125C195.162 311.58 184.111 300.19 184.111 286.219H180.999C180.999 301.909 193.443 314.692 208.999 315.238V312.125ZM208.999 318.351C191.724 317.803 177.888 303.627 177.888 286.219H174.777C174.777 305.345 190.006 320.915 208.999 321.463V318.351ZM208.999 324.576C188.287 324.026 171.666 307.064 171.666 286.219H168.555C168.555 308.782 186.569 327.137 208.999 327.688V324.576ZM156.111 333.912C156.111 330.254 158.815 327.229 162.333 326.726V323.592C157.093 324.113 153 328.534 153 333.912H156.111ZM149.889 333.912C149.889 326.815 155.372 320.999 162.333 320.469V317.351C153.653 317.886 146.778 325.096 146.778 333.912H149.889ZM143.667 333.912C143.667 323.377 151.933 314.774 162.333 314.235V311.12C150.214 311.662 140.556 321.659 140.556 333.912H143.667ZM137.445 333.912C137.445 319.941 148.496 308.551 162.333 308.006V304.893C146.777 305.439 134.334 318.222 134.334 333.912H137.445ZM131.222 333.912C131.222 316.504 145.058 302.328 162.333 301.78V298.668C143.34 299.216 128.111 314.785 128.111 333.912H131.222ZM125 333.912C125 313.067 141.621 296.105 162.333 295.555V292.443C139.903 292.994 121.889 311.349 121.889 333.912H125ZM162.334 381.626C188.201 381.074 209 359.933 209 333.934H205.889C205.889 358.215 186.482 377.963 162.334 378.514V381.626ZM162.334 341.119C165.852 340.616 168.556 337.591 168.556 333.934H171.667C171.667 339.311 167.574 343.732 162.334 344.253V341.119ZM162.334 347.376C169.295 346.846 174.778 341.03 174.778 333.934H177.889C177.889 342.749 171.014 349.959 162.334 350.494V347.376ZM162.334 353.61C172.734 353.071 181 344.468 181 333.934H184.111C184.111 346.186 174.453 356.183 162.334 356.725V353.61ZM162.334 359.839C176.171 359.295 187.222 347.905 187.222 333.934H190.334C190.334 349.623 177.89 362.406 162.334 362.952V359.839ZM162.334 366.065C179.609 365.518 193.445 351.341 193.445 333.934H196.556C196.556 353.06 181.327 368.629 162.334 369.178V366.065ZM162.334 372.29C183.046 371.74 199.667 354.778 199.667 333.934H202.778C202.778 356.496 184.764 374.852 162.334 375.402V372.29ZM115.666 333.934C141.533 334.485 162.334 355.627 162.334 381.626L159.222 381.626C159.222 357.345 139.815 337.597 115.667 337.046L115.666 333.934ZM115.667 374.44C119.185 374.943 121.889 377.969 121.889 381.626H125C125 376.249 120.907 371.827 115.667 371.307V374.44ZM115.667 368.184C122.628 368.713 128.111 374.529 128.111 381.626H131.222C131.222 372.81 124.347 365.601 115.667 365.065V368.184ZM115.667 361.949C126.067 362.488 134.333 371.092 134.333 381.626H137.444C137.444 369.373 127.786 359.377 115.667 358.834V361.949ZM115.667 355.721C129.504 356.265 140.555 367.655 140.555 381.626H143.667C143.667 365.936 131.223 353.153 115.667 352.607V355.721ZM115.667 349.494C132.942 350.042 146.778 364.218 146.778 381.626H149.889C149.889 362.5 134.66 346.93 115.667 346.382V349.494ZM115.667 343.27C136.379 343.819 153 360.781 153 381.626H156.111C156.111 359.063 138.097 340.708 115.667 340.158V343.27Z" fill="#F2F2F2"/>
<path fill-rule="evenodd" clip-rule="evenodd" d="M-118 0H-114.889C-114.889 24.2809 -95.4824 44.0292 -71.3338 44.5803V47.6922C-97.1508 47.1416 -117.92 26.0808 -118 0.150605V3.11193C-142.148 3.66301 -161.555 23.4113 -161.555 47.6923H-164.666C-164.666 21.6931 -143.867 0.551806 -118 0ZM-71.3338 7.18567C-74.8517 6.68248 -77.556 3.65705 -77.556 0H-80.667C-80.667 5.37735 -76.5742 9.79876 -71.3338 10.3191V7.18567ZM-71.3338 13.4421C-78.2948 12.9125 -83.7781 7.09661 -83.7781 0H-86.8892C-86.8892 8.81546 -80.0145 16.0252 -71.3338 16.5605V13.4421ZM-71.3338 19.6767C-81.7337 19.1374 -90.0003 10.5341 -90.0003 0H-93.1114C-93.1114 12.2526 -83.4526 22.2493 -71.3338 22.7914V19.6767ZM-71.3338 25.9053C-85.1714 25.361 -96.2224 13.971 -96.2224 0H-99.3335C-99.3335 15.6894 -86.89 28.4725 -71.3338 29.0186V25.9053ZM-71.3338 32.1314C-88.6086 31.584 -102.445 17.4078 -102.445 0H-105.556C-105.556 19.1261 -90.3271 34.6954 -71.3338 35.2439V32.1314ZM-71.3338 38.3562C-92.0456 37.8067 -108.667 20.8444 -108.667 0H-111.778C-111.778 22.5627 -93.764 40.918 -71.3338 41.4684V38.3562ZM-124.222 47.6923C-124.222 44.0352 -121.518 41.0098 -118 40.5066V37.3732C-123.24 37.8935 -127.333 42.3149 -127.333 47.6923H-124.222ZM-130.444 47.6923C-130.444 40.5956 -124.961 34.7797 -118 34.2502V31.1317C-126.68 31.667 -133.555 38.8768 -133.555 47.6923H-130.444ZM-136.666 47.6923C-136.666 37.1582 -128.4 28.5548 -118 28.0156V24.9008C-130.119 25.443 -139.777 35.4397 -139.777 47.6923H-136.666ZM-142.888 47.6923C-142.888 33.7212 -131.837 22.3313 -118 21.787V18.6737C-133.556 19.2197 -145.999 32.0028 -145.999 47.6923H-142.888ZM-149.111 47.6923C-149.111 30.2845 -135.275 16.1083 -118 15.5608V12.4483C-136.993 12.9969 -152.222 28.5662 -152.222 47.6923H-149.111ZM-155.333 47.6923C-155.333 26.8479 -138.711 9.88557 -118 9.33601V6.2239C-140.43 6.77427 -158.444 25.1296 -158.444 47.6923H-155.333ZM-71.333 47.7144C-45.4662 48.2662 -24.667 69.4074 -24.667 95.4066L-24.6662 92.2947C-0.517639 91.7436 18.8889 71.9953 18.8889 47.7144H22C22 73.7136 1.19989 94.8549 -24.667 95.4066L-21.5559 95.4065C-21.5559 119.687 -2.14937 139.436 21.9992 139.987V143.099C-3.81818 142.548 -24.5873 121.487 -24.6668 95.5559V98.5184C-48.8153 99.0695 -68.2219 118.818 -68.2219 143.099H-71.333C-71.333 117.1 -50.5335 95.9587 -24.667 95.4066H-27.7781C-27.7781 71.1256 -47.1846 51.3773 -71.3332 50.8262V47.8637C-71.4127 73.7936 -92.1805 94.8545 -117.997 95.4064H-114.89C-114.89 119.687 -95.4834 139.436 -71.3348 139.987V143.099C-97.1526 142.548 -117.922 121.486 -118.001 95.5546V98.5183C-142.149 99.0694 -161.556 118.818 -161.556 143.099H-164.667C-164.667 117.101 -143.87 95.961 -118.006 95.4065H-121.111C-121.111 71.1256 -140.518 51.3773 -164.666 50.8262V47.7144C-138.799 48.2661 -118 69.4073 -118 95.4064L-117.999 92.2946C-93.8506 91.7436 -74.444 71.9953 -74.444 47.7143L-71.333 47.7144C-71.333 47.7144 -71.333 47.7144 -71.333 47.7144ZM-117.999 54.9C-114.481 54.3968 -111.777 51.3714 -111.777 47.7143H-108.666C-108.666 53.0917 -112.759 57.5131 -117.999 58.0334V54.9ZM-117.999 61.1564C-111.038 60.6268 -105.555 54.8109 -105.555 47.7143H-102.444C-102.444 56.5298 -109.318 63.7396 -117.999 64.2749V61.1564ZM-117.999 67.391C-107.599 66.8517 -99.3327 58.2484 -99.3327 47.7143H-96.2216C-96.2216 59.9669 -105.88 69.9636 -117.999 70.5058V67.391ZM-117.999 73.6196C-104.162 73.0753 -93.1105 61.6854 -93.1105 47.7143H-89.9995C-89.9995 63.4037 -102.443 76.1868 -117.999 76.7329V73.6196ZM-117.999 79.8457C-100.724 79.2983 -86.8884 65.1221 -86.8884 47.7143H-83.7773C-83.7773 66.8404 -99.0059 82.4097 -117.999 82.9583V79.8457ZM-117.999 86.0706C-97.2874 85.521 -80.6662 68.5587 -80.6662 47.7143H-77.5551C-77.5551 70.277 -95.569 88.6323 -117.999 89.1827V86.0706ZM-164.666 88.2209C-161.148 88.7241 -158.444 91.7495 -158.444 95.4065H-155.333C-155.333 90.0292 -159.426 85.6078 -164.666 85.0875V88.2209ZM-164.666 81.9645C-157.705 82.494 -152.222 88.3099 -152.222 95.4065H-149.111C-149.111 86.5911 -155.986 79.3813 -164.666 78.846V81.9645ZM-164.666 75.7299C-154.266 76.2691 -146 84.8725 -146 95.4065H-142.889C-142.889 83.1539 -152.547 73.1573 -164.666 72.6151V75.7299ZM-164.666 69.5012C-150.829 70.0456 -139.778 81.4355 -139.778 95.4065H-136.666C-136.666 79.7171 -149.11 66.934 -164.666 66.388V69.5012ZM-164.666 63.2751C-147.391 63.8226 -133.555 77.9988 -133.555 95.4065H-130.444C-130.444 76.2805 -145.673 60.7112 -164.666 60.1626V63.2751ZM-164.666 57.0503C-143.954 57.5999 -127.333 74.5622 -127.333 95.4065H-124.222C-124.222 72.8439 -142.236 54.4886 -164.666 53.9382V57.0503ZM-77.557 95.4064C-77.557 99.0635 -74.8527 102.089 -71.3348 102.592V105.726C-76.5753 105.205 -80.668 100.784 -80.668 95.4064H-77.557ZM-83.7791 95.4064C-83.7791 102.503 -78.2958 108.319 -71.3348 108.848V111.967C-80.0155 111.432 -86.8902 104.222 -86.8902 95.4064H-83.7791ZM-90.0013 95.4064C-90.0013 105.941 -81.7347 114.544 -71.3348 115.083V118.198C-83.4536 117.656 -93.1124 107.659 -93.1124 95.4064H-90.0013ZM-96.2234 95.4064C-96.2234 109.377 -85.1724 120.767 -71.3348 121.312V124.425C-86.8911 123.879 -99.3345 111.096 -99.3345 95.4064H-96.2234ZM-102.446 95.4064C-102.446 112.814 -88.6096 126.99 -71.3348 127.538V130.65C-90.3281 130.102 -105.557 114.533 -105.557 95.4064H-102.446ZM-108.668 95.4064C-108.668 116.251 -92.0466 133.213 -71.3348 133.763V136.875C-93.765 136.324 -111.779 117.969 -111.779 95.4064H-108.668ZM-118.001 135.913C-121.519 136.416 -124.223 139.442 -124.223 143.099H-127.334C-127.334 137.721 -123.241 133.3 -118.001 132.78V135.913ZM-118.001 129.657C-124.962 130.186 -130.445 136.002 -130.445 143.099H-133.556C-133.556 134.283 -126.681 127.073 -118.001 126.538V129.657ZM-118.001 123.422C-128.401 123.961 -136.667 132.565 -136.667 143.099H-139.778C-139.778 130.846 -130.12 120.849 -118.001 120.307V123.422ZM-118.001 117.193C-131.838 117.738 -142.889 129.128 -142.889 143.099H-146C-146 127.409 -133.557 114.626 -118.001 114.08V117.193ZM-118.001 110.967C-135.276 111.515 -149.112 125.691 -149.112 143.099H-152.223C-152.223 123.973 -136.994 108.403 -118.001 107.855V110.967ZM-118.001 104.742C-138.713 105.292 -155.334 122.254 -155.334 143.099H-158.445C-158.445 120.536 -140.431 102.181 -118.001 101.63V104.742ZM-71.334 143.121C-71.334 169.119 -92.1321 190.26 -117.998 190.813H-114.89C-114.89 215.094 -95.4834 234.842 -71.3348 235.393V238.505C-97.1526 237.954 -117.922 216.892 -118.001 190.961V193.925C-142.149 194.476 -161.556 214.224 -161.556 238.505H-164.667C-164.667 212.507 -143.869 191.366 -118.004 190.813H-121.112C-121.112 166.532 -140.519 146.784 -164.667 146.233V143.121C-138.8 143.672 -118.001 164.814 -118.001 190.813L-118 187.701C-93.8516 187.15 -74.4451 167.402 -74.4451 143.121H-71.334ZM-111.778 143.121C-111.778 146.778 -114.482 149.803 -118 150.306V153.44C-112.76 152.92 -108.667 148.498 -108.667 143.121H-111.778ZM-105.556 143.121C-105.556 150.217 -111.039 156.033 -118 156.563V159.681C-109.32 159.146 -102.445 151.936 -102.445 143.121H-105.556ZM-99.3337 143.121C-99.3337 153.655 -107.6 162.258 -118 162.797V165.912C-105.881 165.37 -96.2226 155.373 -96.2226 143.121H-99.3337ZM-93.1115 143.121C-93.1115 157.092 -104.163 168.482 -118 169.026V172.139C-102.444 171.593 -90.0005 158.81 -90.0005 143.121H-93.1115ZM-86.8894 143.121C-86.8894 160.529 -100.725 174.705 -118 175.252V178.365C-99.0069 177.816 -83.7783 162.247 -83.7783 143.121H-86.8894ZM-80.6672 143.121C-80.6672 163.965 -97.2884 180.927 -118 181.477V184.589C-95.57 184.039 -77.5562 165.683 -77.5562 143.121H-80.6672ZM-158.445 190.813C-158.445 187.156 -161.149 184.13 -164.667 183.627V180.494C-159.427 181.014 -155.334 185.436 -155.334 190.813H-158.445ZM-152.223 190.813C-152.223 183.716 -157.706 177.9 -164.667 177.371V174.252C-155.987 174.788 -149.112 181.997 -149.112 190.813H-152.223ZM-146.001 190.813C-146.001 180.279 -154.267 171.676 -164.667 171.136V168.022C-152.548 168.564 -142.89 178.56 -142.89 190.813H-146.001ZM-139.779 190.813C-139.779 176.842 -150.83 165.452 -164.667 164.908V161.794C-149.111 162.34 -136.667 175.124 -136.667 190.813H-139.779ZM-133.556 190.813C-133.556 173.405 -147.392 159.229 -164.667 158.682V155.569C-145.674 156.118 -130.445 171.687 -130.445 190.813H-133.556ZM-127.334 190.813C-127.334 169.969 -143.955 153.006 -164.667 152.457V149.345C-142.237 149.895 -124.223 168.25 -124.223 190.813H-127.334ZM-71.3348 197.999C-74.8527 197.495 -77.557 194.47 -77.557 190.813H-80.668C-80.668 196.19 -76.5753 200.612 -71.3348 201.132V197.999ZM-71.3348 204.255C-78.2958 203.725 -83.7791 197.91 -83.7791 190.813H-86.8902C-86.8902 199.628 -80.0155 206.838 -71.3348 207.373V204.255ZM-71.3348 210.49C-81.7347 209.95 -90.0013 201.347 -90.0013 190.813H-93.1124C-93.1124 203.065 -83.4536 213.062 -71.3348 213.604V210.49ZM-71.3348 216.718C-85.1724 216.174 -96.2234 204.784 -96.2234 190.813H-99.3345C-99.3345 206.502 -86.8911 219.285 -71.3348 219.831V216.718ZM-71.3348 222.944C-88.6096 222.397 -102.446 208.221 -102.446 190.813H-105.557C-105.557 209.939 -90.3281 225.508 -71.3348 226.057V222.944ZM-71.3348 229.169C-92.0466 228.62 -108.668 211.657 -108.668 190.813H-111.779C-111.779 213.376 -93.765 231.731 -71.3348 232.281V229.169ZM-124.223 238.505C-124.223 234.848 -121.519 231.823 -118.001 231.319V228.186C-123.241 228.706 -127.334 233.128 -127.334 238.505H-124.223ZM-130.445 238.505C-130.445 231.408 -124.962 225.593 -118.001 225.063V221.945C-126.681 222.48 -133.556 229.69 -133.556 238.505H-130.445ZM-136.667 238.505C-136.667 227.971 -128.401 219.368 -118.001 218.828V215.714C-130.12 216.256 -139.778 226.252 -139.778 238.505H-136.667ZM-142.889 238.505C-142.889 224.534 -131.838 213.144 -118.001 212.6V209.486C-133.557 210.033 -146 222.816 -146 238.505H-142.889ZM-149.112 238.505C-149.112 221.097 -135.276 206.921 -118.001 206.374V203.261C-136.994 203.81 -152.223 219.379 -152.223 238.505H-149.112ZM-155.334 238.505C-155.334 217.661 -138.713 200.698 -118.001 200.149V197.037C-140.431 197.587 -158.445 215.942 -158.445 238.505H-155.334ZM-118 286.219C-92.1333 285.668 -71.334 264.526 -71.334 238.527H-74.4451C-74.4451 262.808 -93.8516 282.556 -118 283.108V286.219ZM-118 286.219C-118 260.22 -138.8 239.079 -164.667 238.527V241.639C-140.519 242.19 -121.112 261.938 -121.112 286.219H-118.002C-143.869 286.772 -164.667 307.913 -164.667 333.912H-161.556C-161.556 309.631 -142.149 289.882 -118.001 289.331V286.367C-117.922 312.299 -97.1526 333.361 -71.3348 333.911V330.8C-95.4834 330.249 -114.89 310.5 -114.89 286.219L-118 286.219ZM-118 245.713C-114.482 245.21 -111.778 242.184 -111.778 238.527H-108.667C-108.667 243.905 -112.76 248.326 -118 248.846V245.713ZM-118 251.969C-111.039 251.44 -105.556 245.624 -105.556 238.527H-102.445C-102.445 247.343 -109.32 254.552 -118 255.088V251.969ZM-118 258.204C-107.6 257.665 -99.3337 249.061 -99.3337 238.527H-96.2226C-96.2226 250.78 -105.881 260.776 -118 261.319V258.204ZM-118 264.432C-104.163 263.888 -93.1115 252.498 -93.1115 238.527H-90.0005C-90.0005 254.217 -102.444 267 -118 267.546V264.432ZM-118 270.659C-100.725 270.111 -86.8894 255.935 -86.8894 238.527H-83.7783C-83.7783 257.653 -99.0069 273.223 -118 273.771V270.659ZM-118 276.883C-97.2884 276.334 -80.6672 259.372 -80.6672 238.527H-77.5562C-77.5562 261.09 -95.57 279.445 -118 279.996V276.883ZM-164.667 279.034C-161.149 279.537 -158.445 282.562 -158.445 286.219H-155.334C-155.334 280.842 -159.427 276.421 -164.667 275.9V279.034ZM-164.667 272.777C-157.706 273.307 -152.223 279.123 -152.223 286.219H-149.112C-149.112 277.404 -155.987 270.194 -164.667 269.659V272.777ZM-164.667 266.543C-154.267 267.082 -146.001 275.685 -146.001 286.219H-142.89C-142.89 273.967 -152.548 263.97 -164.667 263.428V266.543ZM-164.667 260.314C-150.83 260.858 -139.779 272.248 -139.779 286.219H-136.667C-136.667 270.53 -149.111 257.747 -164.667 257.201V260.314ZM-164.667 254.088C-147.392 254.635 -133.556 268.812 -133.556 286.219H-130.445C-130.445 267.093 -145.674 251.524 -164.667 250.975V254.088ZM-164.667 247.863C-143.955 248.413 -127.334 265.375 -127.334 286.219H-124.223C-124.223 263.657 -142.237 245.301 -164.667 244.751V247.863ZM-71.3348 293.405C-74.8527 292.902 -77.557 289.876 -77.557 286.219H-80.668C-80.668 291.597 -76.5753 296.018 -71.3348 296.538V293.405ZM-71.3348 299.661C-78.2958 299.132 -83.7791 293.316 -83.7791 286.219H-86.8902C-86.8902 295.035 -80.0155 302.245 -71.3348 302.78V299.661ZM-71.3348 305.896C-81.7347 305.357 -90.0013 296.753 -90.0013 286.219H-93.1124C-93.1124 298.472 -83.4536 308.469 -71.3348 309.011V305.896ZM-71.3348 312.125C-85.1724 311.58 -96.2234 300.19 -96.2234 286.219H-99.3345C-99.3345 301.909 -86.8911 314.692 -71.3348 315.238V312.125ZM-71.3348 318.351C-88.6096 317.803 -102.446 303.627 -102.446 286.219H-105.557C-105.557 305.345 -90.3281 320.915 -71.3348 321.463V318.351ZM-71.3348 324.576C-92.0466 324.026 -108.668 307.064 -108.668 286.219H-111.779C-111.779 308.782 -93.765 327.137 -71.3348 327.688V324.576ZM-124.223 333.912C-124.223 330.254 -121.519 327.229 -118.001 326.726V323.592C-123.241 324.113 -127.334 328.534 -127.334 333.912H-124.223ZM-130.445 333.912C-130.445 326.815 -124.962 320.999 -118.001 320.469V317.351C-126.681 317.886 -133.556 325.096 -133.556 333.912H-130.445ZM-136.667 333.912C-136.667 323.377 -128.401 314.774 -118.001 314.235V311.12C-130.12 311.662 -139.778 321.659 -139.778 333.912H-136.667ZM-142.889 333.912C-142.889 319.94 -131.838 308.551 -118.001 308.006V304.893C-133.557 305.439 -146 318.222 -146 333.912H-142.889ZM-149.112 333.912C-149.112 316.504 -135.276 302.328 -118.001 301.78V298.668C-136.994 299.216 -152.223 314.785 -152.223 333.912H-149.112ZM-155.334 333.912C-155.334 313.067 -138.713 296.105 -118.001 295.555V292.443C-140.431 292.994 -158.445 311.349 -158.445 333.912H-155.334ZM-118 381.626C-92.1333 381.074 -71.334 359.933 -71.334 333.934H-74.4451C-74.4451 358.215 -93.8516 377.963 -118 378.514V381.626ZM-118 341.119C-114.482 340.616 -111.778 337.591 -111.778 333.934H-108.667C-108.667 339.311 -112.76 343.732 -118 344.253V341.119ZM-118 347.376C-111.039 346.846 -105.556 341.03 -105.556 333.934H-102.445C-102.445 342.749 -109.32 349.959 -118 350.494V347.376ZM-118 353.61C-107.6 353.071 -99.3337 344.468 -99.3337 333.934H-96.2226C-96.2226 346.186 -105.881 356.183 -118 356.725V353.61ZM-118 359.839C-104.163 359.295 -93.1115 347.905 -93.1115 333.934H-90.0005C-90.0005 349.623 -102.444 362.406 -118 362.952V359.839ZM-118 366.065C-100.725 365.518 -86.8894 351.341 -86.8894 333.934H-83.7783C-83.7783 353.06 -99.0069 368.629 -118 369.178V366.065ZM-118 372.29C-97.2884 371.74 -80.6672 354.778 -80.6672 333.934H-77.5562C-77.5562 356.496 -95.57 374.852 -118 375.402V372.29ZM-164.667 333.934C-138.8 334.485 -118 355.627 -118 381.626H-121.112C-121.112 357.345 -140.519 337.597 -164.667 337.046V333.934ZM-164.667 374.44C-161.149 374.943 -158.445 377.969 -158.445 381.626H-155.334C-155.334 376.248 -159.427 371.827 -164.667 371.307V374.44ZM-164.667 368.184C-157.706 368.713 -152.223 374.529 -152.223 381.626H-149.112C-149.112 372.81 -155.987 365.601 -164.667 365.065V368.184ZM-164.667 361.949C-154.267 362.488 -146.001 371.092 -146.001 381.626H-142.89C-142.89 369.373 -152.548 359.377 -164.667 358.834V361.949ZM-164.667 355.721C-150.83 356.265 -139.779 367.655 -139.779 381.626H-136.667C-136.667 365.936 -149.111 353.153 -164.667 352.607V355.721ZM-164.667 349.494C-147.392 350.042 -133.556 364.218 -133.556 381.626H-130.445C-130.445 362.5 -145.674 346.93 -164.667 346.382V349.494ZM-164.667 343.27C-143.955 343.819 -127.334 360.781 -127.334 381.626H-124.223C-124.223 359.063 -142.237 340.708 -164.667 340.157V343.27ZM-24.667 3.016e-05H-21.5559C-21.5559 24.281 -2.14937 44.0293 21.9992 44.5804V47.6922C-3.81818 47.1416 -24.5873 26.0802 -24.6668 0.149396V3.11193C-48.8153 3.663 -68.2219 23.4113 -68.2219 47.6923L-71.3338 47.6922C-71.3338 21.693 -50.5338 0.551834 -24.667 3.016e-05ZM21.9992 7.1857C18.4813 6.68251 15.777 3.65708 15.777 3.016e-05H12.6659C12.6659 5.37737 16.7587 9.79879 21.9992 10.3191V7.1857ZM21.9992 13.4421C15.0382 12.9125 9.55486 7.09664 9.55486 3.016e-05H6.44379C6.44379 8.81549 13.3185 16.0253 21.9992 16.5606V13.4421ZM21.9992 19.6767C11.5993 19.1374 3.3327 10.5341 3.3327 3.016e-05H0.221619C0.221619 12.2526 9.88034 22.2493 21.9992 22.7915V19.6767ZM21.9992 25.9053C8.16158 25.361 -2.88947 13.9711 -2.88947 3.016e-05H-6.00053C-6.00053 15.6894 6.44293 28.4725 21.9992 29.0186V25.9053ZM21.9992 32.1314C4.72437 31.584 -9.11162 17.4078 -9.11162 3.016e-05H-12.2227C-12.2227 19.1261 3.00587 34.6954 21.9992 35.244V32.1314ZM21.9992 38.3563C1.28743 37.8067 -15.3338 20.8444 -15.3338 3.016e-05H-18.4449C-18.4449 22.5627 -0.430984 40.918 21.9992 41.4684V38.3563ZM-30.8889 47.6923C-30.8889 44.0352 -28.1847 41.0098 -24.6668 40.5066V37.3732C-29.9072 37.8935 -34 42.3149 -34 47.6923H-30.8889ZM-37.1111 47.6923C-37.1111 40.5956 -31.6278 34.7797 -24.6668 34.2502V31.1317C-33.3474 31.667 -40.2222 38.8768 -40.2222 47.6923H-37.1111ZM-43.3333 47.6923C-43.3333 37.1582 -35.0667 28.5548 -24.6668 28.0156V24.9008C-36.7856 25.443 -46.4443 35.4397 -46.4443 47.6923H-43.3333ZM-49.5554 47.6923C-49.5554 33.7212 -38.5044 22.3313 -24.6668 21.7869V18.6737C-40.223 19.2197 -52.6665 32.0028 -52.6665 47.6923H-49.5554ZM-55.7776 47.6923C-55.7776 30.2845 -41.9416 16.1083 -24.6668 15.5608V12.4483C-43.6601 12.9969 -58.8887 28.5662 -58.8887 47.6923H-55.7776ZM-61.9997 47.6923C-61.9997 26.8479 -45.3785 9.88557 -24.6668 9.33601V6.2239C-47.097 6.77427 -65.1108 25.1296 -65.1108 47.6923H-61.9997ZM-24.6662 54.9C-21.1483 54.3968 -18.444 51.3714 -18.444 47.7144H-15.3329C-15.3329 53.0917 -19.4258 57.5131 -24.6662 58.0334V54.9ZM-24.6662 61.1564C-17.7052 60.6269 -12.2219 54.811 -12.2219 47.7144H-9.11079C-9.11079 56.5298 -15.9855 63.7396 -24.6662 64.2749V61.1564ZM-24.6662 67.391C-14.2663 66.8518 -5.99971 58.2484 -5.99971 47.7144H-2.88864C-2.88864 59.967 -12.5474 69.9636 -24.6662 70.5058V67.391ZM-24.6662 73.6197C-10.8286 73.0753 0.222443 61.6854 0.222443 47.7144H3.33353C3.33353 63.4038 -9.10994 76.1869 -24.6662 76.7329V73.6197ZM-24.6662 79.8458C-7.39139 79.2983 6.44461 65.1221 6.44461 47.7144H9.55568C9.55568 66.8404 -5.67288 82.4097 -24.6662 82.9583V79.8458ZM-24.6662 86.0706C-3.95444 85.521 12.6668 68.5587 12.6668 47.7144H15.7778C15.7778 70.277 -2.23602 88.6323 -24.6662 89.1827V86.0706ZM-71.3332 88.2209C-67.8153 88.7241 -65.111 91.7495 -65.111 95.4066H-62C-62 90.0292 -66.0928 85.6078 -71.3332 85.0875V88.2209ZM-71.3332 81.9645C-64.3722 82.494 -58.8889 88.3099 -58.8889 95.4066H-55.7778C-55.7778 86.5911 -62.6525 79.3813 -71.3332 78.846V81.9645ZM-71.3332 75.7299C-60.9333 76.2691 -52.6667 84.8725 -52.6667 95.4066H-49.5557C-49.5557 83.154 -59.2144 73.1573 -71.3332 72.6151V75.7299ZM-71.3332 69.5013C-57.4956 70.0456 -46.4446 81.4355 -46.4446 95.4066H-43.3335C-43.3335 79.7171 -55.7769 66.934 -71.3332 66.388V69.5013ZM-71.3332 63.2751C-54.0584 63.8226 -40.2224 77.9988 -40.2224 95.4066H-37.1113C-37.1113 76.2805 -52.3399 60.7112 -71.3332 60.1626V63.2751ZM-71.3332 57.0503C-50.6215 57.5999 -34.0002 74.5622 -34.0002 95.4066H-30.8892C-30.8892 72.8439 -48.903 54.4886 -71.3332 53.9382V57.0503ZM15.777 95.4065C15.777 99.0636 18.4813 102.089 21.9992 102.592V105.726C16.7587 105.205 12.6659 100.784 12.6659 95.4065H15.777ZM9.55486 95.4065C9.55486 102.503 15.0382 108.319 21.9992 108.849V111.967C13.3185 111.432 6.44379 104.222 6.44379 95.4065H9.55486ZM3.3327 95.4065C3.3327 105.941 11.5993 114.544 21.9992 115.083V118.198C9.88034 117.656 0.221619 107.659 0.221619 95.4065H3.3327ZM-2.88947 95.4065C-2.88947 109.378 8.16158 120.767 21.9992 121.312V124.425C6.44293 123.879 -6.00053 111.096 -6.00053 95.4065H-2.88947ZM-9.11162 95.4065C-9.11162 112.814 4.72437 126.99 21.9992 127.538V130.65C3.00587 130.102 -12.2227 114.533 -12.2227 95.4065H-9.11162ZM-15.3338 95.4065C-15.3338 116.251 1.28743 133.213 21.9992 133.763V136.875C-0.430984 136.324 -18.4449 117.969 -18.4449 95.4065H-15.3338ZM-24.6668 135.913C-28.1847 136.416 -30.8889 139.442 -30.8889 143.099H-34C-34 137.721 -29.9072 133.3 -24.6668 132.78V135.913ZM-24.6668 129.657C-31.6278 130.186 -37.1111 136.002 -37.1111 143.099H-40.2222C-40.2222 134.283 -33.3474 127.073 -24.6668 126.538V129.657ZM-24.6668 123.422C-35.0667 123.961 -43.3333 132.565 -43.3333 143.099H-46.4443C-46.4443 130.846 -36.7856 120.849 -24.6668 120.307V123.422ZM-24.6668 117.193C-38.5044 117.738 -49.5554 129.128 -49.5554 143.099H-52.6665C-52.6665 127.409 -40.223 114.626 -24.6668 114.08V117.193ZM-24.6668 110.967C-41.9416 111.515 -55.7776 125.691 -55.7776 143.099H-58.8887C-58.8887 123.973 -43.6601 108.403 -24.6668 107.855V110.967ZM-24.6668 104.742C-45.3785 105.292 -61.9997 122.254 -61.9997 143.099H-65.1108C-65.1108 120.536 -47.097 102.181 -24.6668 101.63V104.742ZM22 143.121C22 169.12 1.20071 190.261 -24.6662 190.813L-21.5559 190.813C-21.5559 215.094 -2.14937 234.842 21.9992 235.393V238.505C-3.81818 237.954 -24.5873 216.893 -24.6668 190.962V193.925C-48.8153 194.476 -68.2219 214.224 -68.2219 238.505H-71.333C-71.333 212.506 -50.5346 191.366 -24.6684 190.813H-27.7781C-27.7781 166.532 -47.1846 146.784 -71.3332 146.233L-71.334 143.121C-45.4671 143.672 -24.6662 164.814 -24.6662 190.813V187.701C-0.517639 187.15 18.8889 167.402 18.8889 143.121H22ZM-18.444 143.121C-18.444 146.778 -21.1483 149.803 -24.6662 150.306V153.44C-19.4258 152.92 -15.3329 148.498 -15.3329 143.121H-18.444ZM-12.2219 143.121C-12.2219 150.217 -17.7052 156.033 -24.6662 156.563V159.681C-15.9855 159.146 -9.11079 151.936 -9.11079 143.121H-12.2219ZM-5.99971 143.121C-5.99971 153.655 -14.2663 162.258 -24.6662 162.797V165.912C-12.5474 165.37 -2.88864 155.373 -2.88864 143.121H-5.99971ZM0.222443 143.121C0.222443 157.092 -10.8286 168.482 -24.6662 169.026V172.139C-9.10994 171.593 3.33353 158.81 3.33353 143.121H0.222443ZM6.44461 143.121C6.44461 160.529 -7.39139 174.705 -24.6662 175.252V178.365C-5.67288 177.816 9.55568 162.247 9.55568 143.121H6.44461ZM12.6668 143.121C12.6668 163.965 -3.95444 180.927 -24.6662 181.477V184.589C-2.23602 184.039 15.7778 165.683 15.7778 143.121H12.6668ZM-65.111 190.813C-65.111 187.156 -67.8153 184.131 -71.3332 183.627V180.494C-66.0928 181.014 -62 185.436 -62 190.813H-65.111ZM-58.8889 190.813C-58.8889 183.716 -64.3722 177.9 -71.3332 177.371V174.252C-62.6525 174.788 -55.7778 181.998 -55.7778 190.813H-58.8889ZM-52.6667 190.813C-52.6667 180.279 -60.9333 171.676 -71.3332 171.136V168.022C-59.2144 168.564 -49.5557 178.56 -49.5557 190.813H-52.6667ZM-46.4446 190.813C-46.4446 176.842 -57.4956 165.452 -71.3332 164.908V161.794C-55.7769 162.34 -43.3335 175.124 -43.3335 190.813H-46.4446ZM-40.2224 190.813C-40.2224 173.405 -54.0584 159.229 -71.3332 158.682V155.569C-52.3399 156.118 -37.1113 171.687 -37.1113 190.813H-40.2224ZM-34.0002 190.813C-34.0002 169.969 -50.6215 153.006 -71.3332 152.457V149.345C-48.903 149.895 -30.8892 168.25 -30.8892 190.813H-34.0002ZM21.9992 197.999C18.4813 197.495 15.777 194.47 15.777 190.813H12.6659C12.6659 196.19 16.7587 200.612 21.9992 201.132V197.999ZM21.9992 204.255C15.0382 203.725 9.55486 197.91 9.55486 190.813H6.44379C6.44379 199.628 13.3185 206.838 21.9992 207.373V204.255ZM21.9992 210.49C11.5993 209.95 3.3327 201.347 3.3327 190.813H0.221619C0.221619 203.066 9.88034 213.062 21.9992 213.604V210.49ZM21.9992 216.718C8.16158 216.174 -2.88947 204.784 -2.88947 190.813H-6.00053C-6.00053 206.502 6.44293 219.285 21.9992 219.831V216.718ZM21.9992 222.944C4.72437 222.397 -9.11162 208.221 -9.11162 190.813H-12.2227C-12.2227 209.939 3.00587 225.508 21.9992 226.057V222.944ZM21.9992 229.169C1.28743 228.62 -15.3338 211.657 -15.3338 190.813H-18.4449C-18.4449 213.376 -0.430984 231.731 21.9992 232.281V229.169ZM-30.8889 238.505C-30.8889 234.848 -28.1847 231.823 -24.6668 231.319V228.186C-29.9072 228.706 -34 233.128 -34 238.505H-30.8889ZM-37.1111 238.505C-37.1111 231.409 -31.6278 225.593 -24.6668 225.063V221.945C-33.3474 222.48 -40.2222 229.69 -40.2222 238.505H-37.1111ZM-43.3333 238.505C-43.3333 227.971 -35.0667 219.368 -24.6668 218.828V215.714C-36.7856 216.256 -46.4443 226.253 -46.4443 238.505H-43.3333ZM-49.5554 238.505C-49.5554 224.534 -38.5044 213.144 -24.6668 212.6V209.487C-40.223 210.033 -52.6665 222.816 -52.6665 238.505H-49.5554ZM-55.7776 238.505C-55.7776 221.097 -41.9416 206.921 -24.6668 206.374V203.261C-43.6601 203.81 -58.8887 219.379 -58.8887 238.505H-55.7776ZM-61.9997 238.505C-61.9997 217.661 -45.3785 200.698 -24.6668 200.149V197.037C-47.097 197.587 -65.1108 215.942 -65.1108 238.505H-61.9997ZM-24.6662 286.219C1.20071 285.668 22 264.526 22 238.527H18.8889C18.8889 262.808 -0.517639 282.556 -24.6662 283.108V286.219ZM-24.6662 286.219C-50.533 286.771 -71.333 307.912 -71.333 333.912H-68.2219C-68.2219 309.631 -48.8153 289.882 -24.6668 289.331V286.369C-24.5873 312.299 -3.81818 333.361 21.9992 333.911V330.8C-2.14937 330.249 -21.5559 310.5 -21.5559 286.219L-24.6662 286.219ZM-27.7781 286.219H-24.6662C-24.6662 260.22 -45.4671 239.079 -71.334 238.527L-71.3332 241.639C-47.1846 242.19 -27.7781 261.938 -27.7781 286.219ZM-24.6662 245.713C-21.1483 245.21 -18.444 242.184 -18.444 238.527H-15.3329C-15.3329 243.905 -19.4258 248.326 -24.6662 248.846V245.713ZM-24.6662 251.969C-17.7052 251.44 -12.2219 245.624 -12.2219 238.527H-9.11079C-9.11079 247.343 -15.9855 254.552 -24.6662 255.088V251.969ZM-24.6662 258.204C-14.2663 257.665 -5.99971 249.061 -5.99971 238.527H-2.88864C-2.88864 250.78 -12.5474 260.776 -24.6662 261.319V258.204ZM-24.6662 264.432C-10.8286 263.888 0.222443 252.498 0.222443 238.527H3.33353C3.33353 254.217 -9.10994 267 -24.6662 267.546V264.432ZM-24.6662 270.659C-7.39139 270.111 6.44461 255.935 6.44461 238.527H9.55568C9.55568 257.653 -5.67288 273.223 -24.6662 273.771V270.659ZM-24.6662 276.883C-3.95444 276.334 12.6668 259.372 12.6668 238.527H15.7778C15.7778 261.09 -2.23602 279.445 -24.6662 279.996V276.883ZM-71.3332 279.034C-67.8153 279.537 -65.111 282.562 -65.111 286.219H-62C-62 280.842 -66.0928 276.421 -71.3332 275.9V279.034ZM-71.3332 272.777C-64.3722 273.307 -58.8889 279.123 -58.8889 286.219H-55.7778C-55.7778 277.404 -62.6525 270.194 -71.3332 269.659V272.777ZM-71.3332 266.543C-60.9333 267.082 -52.6667 275.685 -52.6667 286.219H-49.5557C-49.5557 273.967 -59.2144 263.97 -71.3332 263.428V266.543ZM-71.3332 260.314C-57.4956 260.858 -46.4446 272.248 -46.4446 286.219H-43.3335C-43.3335 270.53 -55.7769 257.747 -71.3332 257.201V260.314ZM-71.3332 254.088C-54.0584 254.635 -40.2224 268.812 -40.2224 286.219H-37.1113C-37.1113 267.093 -52.3399 251.524 -71.3332 250.975V254.088ZM-71.3332 247.863C-50.6215 248.413 -34.0002 265.375 -34.0002 286.219H-30.8892C-30.8892 263.657 -48.903 245.301 -71.3332 244.751V247.863ZM21.9992 293.405C18.4813 292.902 15.777 289.876 15.777 286.219H12.6659C12.6659 291.597 16.7587 296.018 21.9992 296.538V293.405ZM21.9992 299.661C15.0382 299.132 9.55486 293.316 9.55486 286.219H6.44379C6.44379 295.035 13.3185 302.245 21.9992 302.78V299.661ZM21.9992 305.896C11.5993 305.357 3.3327 296.753 3.3327 286.219H0.221619C0.221619 298.472 9.88034 308.469 21.9992 309.011V305.896ZM21.9992 312.125C8.16158 311.58 -2.88947 300.19 -2.88947 286.219H-6.00053C-6.00053 301.909 6.44293 314.692 21.9992 315.238V312.125ZM21.9992 318.351C4.72437 317.803 -9.11162 303.627 -9.11162 286.219H-12.2227C-12.2227 305.345 3.00587 320.915 21.9992 321.463V318.351ZM21.9992 324.576C1.28743 324.026 -15.3338 307.064 -15.3338 286.219H-18.4449C-18.4449 308.782 -0.430984 327.137 21.9992 327.688V324.576ZM-30.8889 333.912C-30.8889 330.254 -28.1847 327.229 -24.6668 326.726V323.592C-29.9072 324.113 -34 328.534 -34 333.912H-30.8889ZM-37.1111 333.912C-37.1111 326.815 -31.6278 320.999 -24.6668 320.469V317.351C-33.3474 317.886 -40.2222 325.096 -40.2222 333.912H-37.1111ZM-43.3333 333.912C-43.3333 323.377 -35.0667 314.774 -24.6668 314.235V311.12C-36.7856 311.662 -46.4443 321.659 -46.4443 333.912H-43.3333ZM-49.5554 333.912C-49.5554 319.941 -38.5044 308.551 -24.6668 308.006V304.893C-40.223 305.439 -52.6665 318.222 -52.6665 333.912H-49.5554ZM-55.7776 333.912C-55.7776 316.504 -41.9416 302.328 -24.6668 301.78V298.668C-43.6601 299.216 -58.8887 314.785 -58.8887 333.912H-55.7776ZM-61.9997 333.912C-61.9997 313.067 -45.3785 296.105 -24.6668 295.555V292.443C-47.097 292.994 -65.1108 311.349 -65.1108 333.912H-61.9997ZM-24.6662 381.626C1.20071 381.074 22 359.933 22 333.934H18.8889C18.8889 358.215 -0.517639 377.963 -24.6662 378.514V381.626ZM-24.6662 341.119C-21.1483 340.616 -18.444 337.591 -18.444 333.934H-15.3329C-15.3329 339.311 -19.4258 343.732 -24.6662 344.253V341.119ZM-24.6662 347.376C-17.7052 346.846 -12.2219 341.03 -12.2219 333.934H-9.11079C-9.11079 342.749 -15.9855 349.959 -24.6662 350.494V347.376ZM-24.6662 353.61C-14.2663 353.071 -5.99971 344.468 -5.99971 333.934H-2.88864C-2.88864 346.186 -12.5474 356.183 -24.6662 356.725V353.61ZM-24.6662 359.839C-10.8286 359.295 0.222443 347.905 0.222443 333.934H3.33353C3.33353 349.623 -9.10994 362.406 -24.6662 362.952V359.839ZM-24.6662 366.065C-7.39139 365.518 6.44461 351.341 6.44461 333.934H9.55568C9.55568 353.06 -5.67288 368.629 -24.6662 369.178V366.065ZM-24.6662 372.29C-3.95444 371.74 12.6668 354.778 12.6668 333.934H15.7778C15.7778 356.496 -2.23602 374.852 -24.6662 375.402V372.29ZM-71.334 333.934C-45.4671 334.485 -24.6662 355.627 -24.6662 381.626L-27.7781 381.626C-27.7781 357.345 -47.1846 337.597 -71.3332 337.046L-71.334 333.934ZM-71.3332 374.44C-67.8153 374.943 -65.111 377.969 -65.111 381.626H-62C-62 376.249 -66.0928 371.827 -71.3332 371.307V374.44ZM-71.3332 368.184C-64.3722 368.713 -58.8889 374.529 -58.8889 381.626H-55.7778C-55.7778 372.81 -62.6525 365.601 -71.3332 365.065V368.184ZM-71.3332 361.949C-60.9333 362.488 -52.6667 371.092 -52.6667 381.626H-49.5557C-49.5557 369.373 -59.2144 359.377 -71.3332 358.834V361.949ZM-71.3332 355.721C-57.4956 356.265 -46.4446 367.655 -46.4446 381.626H-43.3335C-43.3335 365.936 -55.7769 353.153 -71.3332 352.607V355.721ZM-71.3332 349.494C-54.0584 350.042 -40.2224 364.218 -40.2224 381.626H-37.1113C-37.1113 362.5 -52.3399 346.93 -71.3332 346.382V349.494ZM-71.3332 343.27C-50.6215 343.819 -34.0002 360.781 -34.0002 381.626H-30.8892C-30.8892 359.063 -48.903 340.708 -71.3332 340.158V343.27Z" fill="#F2F2F2"/>
<path fill-rule="evenodd" clip-rule="evenodd" d="M-305 0H-301.889C-301.889 24.2809 -282.482 44.0292 -258.334 44.5803V47.6922C-284.151 47.1416 -304.92 26.0808 -305 0.150605V3.11193C-329.148 3.66301 -348.555 23.4113 -348.555 47.6923H-351.666C-351.666 21.6931 -330.867 0.551806 -305 0ZM-258.334 7.18567C-261.852 6.68248 -264.556 3.65705 -264.556 0H-267.667C-267.667 5.37735 -263.574 9.79876 -258.334 10.3191V7.18567ZM-258.334 13.4421C-265.295 12.9125 -270.778 7.09661 -270.778 0H-273.889C-273.889 8.81546 -267.014 16.0252 -258.334 16.5605V13.4421ZM-258.334 19.6767C-268.734 19.1374 -277 10.5341 -277 0H-280.111C-280.111 12.2526 -270.453 22.2493 -258.334 22.7914V19.6767ZM-258.334 25.9053C-272.171 25.361 -283.222 13.971 -283.222 0H-286.333C-286.333 15.6894 -273.89 28.4725 -258.334 29.0186V25.9053ZM-258.334 32.1314C-275.609 31.584 -289.445 17.4078 -289.445 0H-292.556C-292.556 19.1261 -277.327 34.6954 -258.334 35.2439V32.1314ZM-258.334 38.3562C-279.046 37.8067 -295.667 20.8444 -295.667 0H-298.778C-298.778 22.5627 -280.764 40.918 -258.334 41.4684V38.3562ZM-311.222 47.6923C-311.222 44.0352 -308.518 41.0098 -305 40.5066V37.3732C-310.24 37.8935 -314.333 42.3149 -314.333 47.6923H-311.222ZM-317.444 47.6923C-317.444 40.5956 -311.961 34.7797 -305 34.2502V31.1317C-313.68 31.667 -320.555 38.8768 -320.555 47.6923H-317.444ZM-323.666 47.6923C-323.666 37.1582 -315.4 28.5548 -305 28.0156V24.9008C-317.119 25.443 -326.777 35.4397 -326.777 47.6923H-323.666ZM-329.888 47.6923C-329.888 33.7212 -318.837 22.3313 -305 21.787V18.6737C-320.556 19.2197 -332.999 32.0028 -332.999 47.6923H-329.888ZM-336.111 47.6923C-336.111 30.2845 -322.275 16.1083 -305 15.5608V12.4483C-323.993 12.9969 -339.222 28.5662 -339.222 47.6923H-336.111ZM-342.333 47.6923C-342.333 26.8479 -325.711 9.88557 -305 9.33601V6.2239C-327.43 6.77427 -345.444 25.1296 -345.444 47.6923H-342.333ZM-258.333 47.7144C-232.466 48.2662 -211.667 69.4074 -211.667 95.4066L-211.666 92.2947C-187.518 91.7436 -168.111 71.9953 -168.111 47.7144H-165C-165 73.7136 -185.8 94.8549 -211.667 95.4066L-208.556 95.4065C-208.556 119.687 -189.149 139.436 -165.001 139.987V143.099C-190.818 142.548 -211.587 121.487 -211.667 95.5559V98.5184C-235.815 99.0695 -255.222 118.818 -255.222 143.099H-258.333C-258.333 117.1 -237.534 95.9587 -211.667 95.4066H-214.778C-214.778 71.1256 -234.185 51.3773 -258.333 50.8262V47.8637C-258.413 73.7936 -279.18 94.8545 -304.997 95.4064H-301.89C-301.89 119.687 -282.483 139.436 -258.335 139.987V143.099C-284.153 142.548 -304.922 121.486 -305.001 95.5546V98.5183C-329.149 99.0694 -348.556 118.818 -348.556 143.099H-351.667C-351.667 117.101 -330.87 95.961 -305.006 95.4065H-308.111C-308.111 71.1256 -327.518 51.3773 -351.666 50.8262V47.7144C-325.799 48.2661 -305 69.4073 -305 95.4064L-304.999 92.2946C-280.851 91.7436 -261.444 71.9953 -261.444 47.7143L-258.333 47.7144C-258.333 47.7144 -258.333 47.7144 -258.333 47.7144ZM-304.999 54.9C-301.481 54.3968 -298.777 51.3714 -298.777 47.7143H-295.666C-295.666 53.0917 -299.759 57.5131 -304.999 58.0334V54.9ZM-304.999 61.1564C-298.038 60.6268 -292.555 54.8109 -292.555 47.7143H-289.444C-289.444 56.5298 -296.318 63.7396 -304.999 64.2749V61.1564ZM-304.999 67.391C-294.599 66.8517 -286.333 58.2484 -286.333 47.7143H-283.222C-283.222 59.9669 -292.88 69.9636 -304.999 70.5058V67.391ZM-304.999 73.6196C-291.162 73.0753 -280.111 61.6854 -280.111 47.7143H-276.999C-276.999 63.4037 -289.443 76.1868 -304.999 76.7329V73.6196ZM-304.999 79.8457C-287.724 79.2983 -273.888 65.1221 -273.888 47.7143H-270.777C-270.777 66.8404 -286.006 82.4097 -304.999 82.9583V79.8457ZM-304.999 86.0706C-284.287 85.521 -267.666 68.5587 -267.666 47.7143H-264.555C-264.555 70.277 -282.569 88.6323 -304.999 89.1827V86.0706ZM-351.666 88.2209C-348.148 88.7241 -345.444 91.7495 -345.444 95.4065H-342.333C-342.333 90.0292 -346.426 85.6078 -351.666 85.0875V88.2209ZM-351.666 81.9645C-344.705 82.494 -339.222 88.3099 -339.222 95.4065H-336.111C-336.111 86.5911 -342.985 79.3813 -351.666 78.846V81.9645ZM-351.666 75.7299C-341.266 76.2691 -333 84.8725 -333 95.4065H-329.889C-329.889 83.1539 -339.547 73.1573 -351.666 72.6151V75.7299ZM-351.666 69.5012C-337.829 70.0456 -326.778 81.4355 -326.778 95.4065H-323.666C-323.666 79.7171 -336.11 66.934 -351.666 66.388V69.5012ZM-351.666 63.2751C-334.391 63.8226 -320.555 77.9988 -320.555 95.4065H-317.444C-317.444 76.2805 -332.673 60.7112 -351.666 60.1626V63.2751ZM-351.666 57.0503C-330.954 57.5999 -314.333 74.5622 -314.333 95.4065H-311.222C-311.222 72.8439 -329.236 54.4886 -351.666 53.9382V57.0503ZM-264.557 95.4064C-264.557 99.0635 -261.853 102.089 -258.335 102.592V105.726C-263.575 105.205 -267.668 100.784 -267.668 95.4064H-264.557ZM-270.779 95.4064C-270.779 102.503 -265.296 108.319 -258.335 108.848V111.967C-267.015 111.432 -273.89 104.222 -273.89 95.4064H-270.779ZM-277.001 95.4064C-277.001 105.941 -268.735 114.544 -258.335 115.083V118.198C-270.454 117.656 -280.112 107.659 -280.112 95.4064H-277.001ZM-283.223 95.4064C-283.223 109.377 -272.172 120.767 -258.335 121.312V124.425C-273.891 123.879 -286.335 111.096 -286.335 95.4064H-283.223ZM-289.446 95.4064C-289.446 112.814 -275.61 126.99 -258.335 127.538V130.65C-277.328 130.102 -292.557 114.533 -292.557 95.4064H-289.446ZM-295.668 95.4064C-295.668 116.251 -279.047 133.213 -258.335 133.763V136.875C-280.765 136.324 -298.779 117.969 -298.779 95.4064H-295.668ZM-305.001 135.913C-308.519 136.416 -311.223 139.442 -311.223 143.099H-314.334C-314.334 137.721 -310.241 133.3 -305.001 132.78V135.913ZM-305.001 129.657C-311.962 130.186 -317.445 136.002 -317.445 143.099H-320.556C-320.556 134.283 -313.681 127.073 -305.001 126.538V129.657ZM-305.001 123.422C-315.401 123.961 -323.667 132.565 -323.667 143.099H-326.778C-326.778 130.846 -317.12 120.849 -305.001 120.307V123.422ZM-305.001 117.193C-318.838 117.738 -329.889 129.128 -329.889 143.099H-333C-333 127.409 -320.557 114.626 -305.001 114.08V117.193ZM-305.001 110.967C-322.276 111.515 -336.112 125.691 -336.112 143.099H-339.223C-339.223 123.973 -323.994 108.403 -305.001 107.855V110.967ZM-305.001 104.742C-325.713 105.292 -342.334 122.254 -342.334 143.099H-345.445C-345.445 120.536 -327.431 102.181 -305.001 101.63V104.742ZM-258.334 143.121C-258.334 169.119 -279.132 190.26 -304.998 190.813H-301.89C-301.89 215.094 -282.483 234.842 -258.335 235.393V238.505C-284.153 237.954 -304.922 216.892 -305.001 190.961V193.925C-329.149 194.476 -348.556 214.224 -348.556 238.505H-351.667C-351.667 212.507 -330.869 191.366 -305.004 190.813H-308.112C-308.112 166.532 -327.519 146.784 -351.667 146.233V143.121C-325.8 143.672 -305.001 164.814 -305.001 190.813L-305 187.701C-280.852 187.15 -261.445 167.402 -261.445 143.121H-258.334ZM-298.778 143.121C-298.778 146.778 -301.482 149.803 -305 150.306V153.44C-299.76 152.92 -295.667 148.498 -295.667 143.121H-298.778ZM-292.556 143.121C-292.556 150.217 -298.039 156.033 -305 156.563V159.681C-296.32 159.146 -289.445 151.936 -289.445 143.121H-292.556ZM-286.334 143.121C-286.334 153.655 -294.6 162.258 -305 162.797V165.912C-292.881 165.37 -283.223 155.373 -283.223 143.121H-286.334ZM-280.112 143.121C-280.112 157.092 -291.163 168.482 -305 169.026V172.139C-289.444 171.593 -277 158.81 -277 143.121H-280.112ZM-273.889 143.121C-273.889 160.529 -287.725 174.705 -305 175.252V178.365C-286.007 177.816 -270.778 162.247 -270.778 143.121H-273.889ZM-267.667 143.121C-267.667 163.965 -284.288 180.927 -305 181.477V184.589C-282.57 184.039 -264.556 165.683 -264.556 143.121H-267.667ZM-345.445 190.813C-345.445 187.156 -348.149 184.13 -351.667 183.627V180.494C-346.427 181.014 -342.334 185.436 -342.334 190.813H-345.445ZM-339.223 190.813C-339.223 183.716 -344.706 177.9 -351.667 177.371V174.252C-342.987 174.788 -336.112 181.997 -336.112 190.813H-339.223ZM-333.001 190.813C-333.001 180.279 -341.267 171.676 -351.667 171.136V168.022C-339.548 168.564 -329.89 178.56 -329.89 190.813H-333.001ZM-326.779 190.813C-326.779 176.842 -337.83 165.452 -351.667 164.908V161.794C-336.111 162.34 -323.667 175.124 -323.667 190.813H-326.779ZM-320.556 190.813C-320.556 173.405 -334.392 159.229 -351.667 158.682V155.569C-332.674 156.118 -317.445 171.687 -317.445 190.813H-320.556ZM-314.334 190.813C-314.334 169.969 -330.955 153.006 -351.667 152.457V149.345C-329.237 149.895 -311.223 168.25 -311.223 190.813H-314.334ZM-258.335 197.999C-261.853 197.495 -264.557 194.47 -264.557 190.813H-267.668C-267.668 196.19 -263.575 200.612 -258.335 201.132V197.999ZM-258.335 204.255C-265.296 203.725 -270.779 197.91 -270.779 190.813H-273.89C-273.89 199.628 -267.015 206.838 -258.335 207.373V204.255ZM-258.335 210.49C-268.735 209.95 -277.001 201.347 -277.001 190.813H-280.112C-280.112 203.065 -270.454 213.062 -258.335 213.604V210.49ZM-258.335 216.718C-272.172 216.174 -283.223 204.784 -283.223 190.813H-286.335C-286.335 206.502 -273.891 219.285 -258.335 219.831V216.718ZM-258.335 222.944C-275.61 222.397 -289.446 208.221 -289.446 190.813H-292.557C-292.557 209.939 -277.328 225.508 -258.335 226.057V222.944ZM-258.335 229.169C-279.047 228.62 -295.668 211.657 -295.668 190.813H-298.779C-298.779 213.376 -280.765 231.731 -258.335 232.281V229.169ZM-311.223 238.505C-311.223 234.848 -308.519 231.823 -305.001 231.319V228.186C-310.241 228.706 -314.334 233.128 -314.334 238.505H-311.223ZM-317.445 238.505C-317.445 231.408 -311.962 225.593 -305.001 225.063V221.945C-313.681 222.48 -320.556 229.69 -320.556 238.505H-317.445ZM-323.667 238.505C-323.667 227.971 -315.401 219.368 -305.001 218.828V215.714C-317.12 216.256 -326.778 226.252 -326.778 238.505H-323.667ZM-329.889 238.505C-329.889 224.534 -318.838 213.144 -305.001 212.6V209.486C-320.557 210.033 -333 222.816 -333 238.505H-329.889ZM-336.112 238.505C-336.112 221.097 -322.276 206.921 -305.001 206.374V203.261C-323.994 203.81 -339.223 219.379 -339.223 238.505H-336.112ZM-342.334 238.505C-342.334 217.661 -325.713 200.698 -305.001 200.149V197.037C-327.431 197.587 -345.445 215.942 -345.445 238.505H-342.334ZM-305 286.219C-279.133 285.668 -258.334 264.526 -258.334 238.527H-261.445C-261.445 262.808 -280.852 282.556 -305 283.108V286.219ZM-305 286.219C-305 260.22 -325.8 239.079 -351.667 238.527V241.639C-327.519 242.19 -308.112 261.938 -308.112 286.219H-305.002C-330.869 286.772 -351.667 307.913 -351.667 333.912H-348.556C-348.556 309.631 -329.149 289.882 -305.001 289.331V286.367C-304.922 312.299 -284.153 333.361 -258.335 333.911V330.8C-282.483 330.249 -301.89 310.5 -301.89 286.219L-305 286.219ZM-305 245.713C-301.482 245.21 -298.778 242.184 -298.778 238.527H-295.667C-295.667 243.905 -299.76 248.326 -305 248.846V245.713ZM-305 251.969C-298.039 251.44 -292.556 245.624 -292.556 238.527H-289.445C-289.445 247.343 -296.32 254.552 -305 255.088V251.969ZM-305 258.204C-294.6 257.665 -286.334 249.061 -286.334 238.527H-283.223C-283.223 250.78 -292.881 260.776 -305 261.319V258.204ZM-305 264.432C-291.163 263.888 -280.112 252.498 -280.112 238.527H-277C-277 254.217 -289.444 267 -305 267.546V264.432ZM-305 270.659C-287.725 270.111 -273.889 255.935 -273.889 238.527H-270.778C-270.778 257.653 -286.007 273.223 -305 273.771V270.659ZM-305 276.883C-284.288 276.334 -267.667 259.372 -267.667 238.527H-264.556C-264.556 261.09 -282.57 279.445 -305 279.996V276.883ZM-351.667 279.034C-348.149 279.537 -345.445 282.562 -345.445 286.219H-342.334C-342.334 280.842 -346.427 276.421 -351.667 275.9V279.034ZM-351.667 272.777C-344.706 273.307 -339.223 279.123 -339.223 286.219H-336.112C-336.112 277.404 -342.987 270.194 -351.667 269.659V272.777ZM-351.667 266.543C-341.267 267.082 -333.001 275.685 -333.001 286.219H-329.89C-329.89 273.967 -339.548 263.97 -351.667 263.428V266.543ZM-351.667 260.314C-337.83 260.858 -326.779 272.248 -326.779 286.219H-323.667C-323.667 270.53 -336.111 257.747 -351.667 257.201V260.314ZM-351.667 254.088C-334.392 254.635 -320.556 268.812 -320.556 286.219H-317.445C-317.445 267.093 -332.674 251.524 -351.667 250.975V254.088ZM-351.667 247.863C-330.955 248.413 -314.334 265.375 -314.334 286.219H-311.223C-311.223 263.657 -329.237 245.301 -351.667 244.751V247.863ZM-258.335 293.405C-261.853 292.902 -264.557 289.876 -264.557 286.219H-267.668C-267.668 291.597 -263.575 296.018 -258.335 296.538V293.405ZM-258.335 299.661C-265.296 299.132 -270.779 293.316 -270.779 286.219H-273.89C-273.89 295.035 -267.015 302.245 -258.335 302.78V299.661ZM-258.335 305.896C-268.735 305.357 -277.001 296.753 -277.001 286.219H-280.112C-280.112 298.472 -270.454 308.469 -258.335 309.011V305.896ZM-258.335 312.125C-272.172 311.58 -283.223 300.19 -283.223 286.219H-286.335C-286.335 301.909 -273.891 314.692 -258.335 315.238V312.125ZM-258.335 318.351C-275.61 317.803 -289.446 303.627 -289.446 286.219H-292.557C-292.557 305.345 -277.328 320.915 -258.335 321.463V318.351ZM-258.335 324.576C-279.047 324.026 -295.668 307.064 -295.668 286.219H-298.779C-298.779 308.782 -280.765 327.137 -258.335 327.688V324.576ZM-311.223 333.912C-311.223 330.254 -308.519 327.229 -305.001 326.726V323.592C-310.241 324.113 -314.334 328.534 -314.334 333.912H-311.223ZM-317.445 333.912C-317.445 326.815 -311.962 320.999 -305.001 320.469V317.351C-313.681 317.886 -320.556 325.096 -320.556 333.912H-317.445ZM-323.667 333.912C-323.667 323.377 -315.401 314.774 -305.001 314.235V311.12C-317.12 311.662 -326.778 321.659 -326.778 333.912H-323.667ZM-329.889 333.912C-329.889 319.94 -318.838 308.551 -305.001 308.006V304.893C-320.557 305.439 -333 318.222 -333 333.912H-329.889ZM-336.112 333.912C-336.112 316.504 -322.276 302.328 -305.001 301.78V298.668C-323.994 299.216 -339.223 314.785 -339.223 333.912H-336.112ZM-342.334 333.912C-342.334 313.067 -325.713 296.105 -305.001 295.555V292.443C-327.431 292.994 -345.445 311.349 -345.445 333.912H-342.334ZM-305 381.626C-279.133 381.074 -258.334 359.933 -258.334 333.934H-261.445C-261.445 358.215 -280.852 377.963 -305 378.514V381.626ZM-305 341.119C-301.482 340.616 -298.778 337.591 -298.778 333.934H-295.667C-295.667 339.311 -299.76 343.732 -305 344.253V341.119ZM-305 347.376C-298.039 346.846 -292.556 341.03 -292.556 333.934H-289.445C-289.445 342.749 -296.32 349.959 -305 350.494V347.376ZM-305 353.61C-294.6 353.071 -286.334 344.468 -286.334 333.934H-283.223C-283.223 346.186 -292.881 356.183 -305 356.725V353.61ZM-305 359.839C-291.163 359.295 -280.112 347.905 -280.112 333.934H-277C-277 349.623 -289.444 362.406 -305 362.952V359.839ZM-305 366.065C-287.725 365.518 -273.889 351.341 -273.889 333.934H-270.778C-270.778 353.06 -286.007 368.629 -305 369.178V366.065ZM-305 372.29C-284.288 371.74 -267.667 354.778 -267.667 333.934H-264.556C-264.556 356.496 -282.57 374.852 -305 375.402V372.29ZM-351.667 333.934C-325.8 334.485 -305 355.627 -305 381.626H-308.112C-308.112 357.345 -327.519 337.597 -351.667 337.046V333.934ZM-351.667 374.44C-348.149 374.943 -345.445 377.969 -345.445 381.626H-342.334C-342.334 376.248 -346.427 371.827 -351.667 371.307V374.44ZM-351.667 368.184C-344.706 368.713 -339.223 374.529 -339.223 381.626H-336.112C-336.112 372.81 -342.987 365.601 -351.667 365.065V368.184ZM-351.667 361.949C-341.267 362.488 -333.001 371.092 -333.001 381.626H-329.89C-329.89 369.373 -339.548 359.377 -351.667 358.834V361.949ZM-351.667 355.721C-337.83 356.265 -326.779 367.655 -326.779 381.626H-323.667C-323.667 365.936 -336.111 353.153 -351.667 352.607V355.721ZM-351.667 349.494C-334.392 350.042 -320.556 364.218 -320.556 381.626H-317.445C-317.445 362.5 -332.674 346.93 -351.667 346.382V349.494ZM-351.667 343.27C-330.955 343.819 -314.334 360.781 -314.334 381.626H-311.223C-311.223 359.063 -329.237 340.708 -351.667 340.157V343.27ZM-211.667 3.016e-05H-208.556C-208.556 24.281 -189.149 44.0293 -165.001 44.5804V47.6922C-190.818 47.1416 -211.587 26.0802 -211.667 0.149396V3.11193C-235.815 3.663 -255.222 23.4113 -255.222 47.6923L-258.334 47.6922C-258.334 21.693 -237.534 0.551834 -211.667 3.016e-05ZM-165.001 7.1857C-168.519 6.68251 -171.223 3.65708 -171.223 3.016e-05H-174.334C-174.334 5.37737 -170.241 9.79879 -165.001 10.3191V7.1857ZM-165.001 13.4421C-171.962 12.9125 -177.445 7.09664 -177.445 3.016e-05H-180.556C-180.556 8.81549 -173.681 16.0253 -165.001 16.5606V13.4421ZM-165.001 19.6767C-175.401 19.1374 -183.667 10.5341 -183.667 3.016e-05H-186.778C-186.778 12.2526 -177.12 22.2493 -165.001 22.7915V19.6767ZM-165.001 25.9053C-178.838 25.361 -189.889 13.9711 -189.889 3.016e-05H-193.001C-193.001 15.6894 -180.557 28.4725 -165.001 29.0186V25.9053ZM-165.001 32.1314C-182.276 31.584 -196.112 17.4078 -196.112 3.016e-05H-199.223C-199.223 19.1261 -183.994 34.6954 -165.001 35.244V32.1314ZM-165.001 38.3563C-185.713 37.8067 -202.334 20.8444 -202.334 3.016e-05H-205.445C-205.445 22.5627 -187.431 40.918 -165.001 41.4684V38.3563ZM-217.889 47.6923C-217.889 44.0352 -215.185 41.0098 -211.667 40.5066V37.3732C-216.907 37.8935 -221 42.3149 -221 47.6923H-217.889ZM-224.111 47.6923C-224.111 40.5956 -218.628 34.7797 -211.667 34.2502V31.1317C-220.347 31.667 -227.222 38.8768 -227.222 47.6923H-224.111ZM-230.333 47.6923C-230.333 37.1582 -222.067 28.5548 -211.667 28.0156V24.9008C-223.786 25.443 -233.444 35.4397 -233.444 47.6923H-230.333ZM-236.555 47.6923C-236.555 33.7212 -225.504 22.3313 -211.667 21.7869V18.6737C-227.223 19.2197 -239.667 32.0028 -239.667 47.6923H-236.555ZM-242.778 47.6923C-242.778 30.2845 -228.942 16.1083 -211.667 15.5608V12.4483C-230.66 12.9969 -245.889 28.5662 -245.889 47.6923H-242.778ZM-249 47.6923C-249 26.8479 -232.379 9.88557 -211.667 9.33601V6.2239C-234.097 6.77427 -252.111 25.1296 -252.111 47.6923H-249ZM-211.666 54.9C-208.148 54.3968 -205.444 51.3714 -205.444 47.7144H-202.333C-202.333 53.0917 -206.426 57.5131 -211.666 58.0334V54.9ZM-211.666 61.1564C-204.705 60.6269 -199.222 54.811 -199.222 47.7144H-196.111C-196.111 56.5298 -202.986 63.7396 -211.666 64.2749V61.1564ZM-211.666 67.391C-201.266 66.8518 -193 58.2484 -193 47.7144H-189.889C-189.889 59.967 -199.547 69.9636 -211.666 70.5058V67.391ZM-211.666 73.6197C-197.829 73.0753 -186.778 61.6854 -186.778 47.7144H-183.666C-183.666 63.4038 -196.11 76.1869 -211.666 76.7329V73.6197ZM-211.666 79.8458C-194.391 79.2983 -180.555 65.1221 -180.555 47.7144H-177.444C-177.444 66.8404 -192.673 82.4097 -211.666 82.9583V79.8458ZM-211.666 86.0706C-190.954 85.521 -174.333 68.5587 -174.333 47.7144H-171.222C-171.222 70.277 -189.236 88.6323 -211.666 89.1827V86.0706ZM-258.333 88.2209C-254.815 88.7241 -252.111 91.7495 -252.111 95.4066H-249C-249 90.0292 -253.093 85.6078 -258.333 85.0875V88.2209ZM-258.333 81.9645C-251.372 82.494 -245.889 88.3099 -245.889 95.4066H-242.778C-242.778 86.5911 -249.653 79.3813 -258.333 78.846V81.9645ZM-258.333 75.7299C-247.933 76.2691 -239.667 84.8725 -239.667 95.4066H-236.556C-236.556 83.154 -246.214 73.1573 -258.333 72.6151V75.7299ZM-258.333 69.5013C-244.496 70.0456 -233.445 81.4355 -233.445 95.4066H-230.333C-230.333 79.7171 -242.777 66.934 -258.333 66.388V69.5013ZM-258.333 63.2751C-241.058 63.8226 -227.222 77.9988 -227.222 95.4066H-224.111C-224.111 76.2805 -239.34 60.7112 -258.333 60.1626V63.2751ZM-258.333 57.0503C-237.621 57.5999 -221 74.5622 -221 95.4066H-217.889C-217.889 72.8439 -235.903 54.4886 -258.333 53.9382V57.0503ZM-171.223 95.4065C-171.223 99.0636 -168.519 102.089 -165.001 102.592V105.726C-170.241 105.205 -174.334 100.784 -174.334 95.4065H-171.223ZM-177.445 95.4065C-177.445 102.503 -171.962 108.319 -165.001 108.849V111.967C-173.681 111.432 -180.556 104.222 -180.556 95.4065H-177.445ZM-183.667 95.4065C-183.667 105.941 -175.401 114.544 -165.001 115.083V118.198C-177.12 117.656 -186.778 107.659 -186.778 95.4065H-183.667ZM-189.889 95.4065C-189.889 109.378 -178.838 120.767 -165.001 121.312V124.425C-180.557 123.879 -193.001 111.096 -193.001 95.4065H-189.889ZM-196.112 95.4065C-196.112 112.814 -182.276 126.99 -165.001 127.538V130.65C-183.994 130.102 -199.223 114.533 -199.223 95.4065H-196.112ZM-202.334 95.4065C-202.334 116.251 -185.713 133.213 -165.001 133.763V136.875C-187.431 136.324 -205.445 117.969 -205.445 95.4065H-202.334ZM-211.667 135.913C-215.185 136.416 -217.889 139.442 -217.889 143.099H-221C-221 137.721 -216.907 133.3 -211.667 132.78V135.913ZM-211.667 129.657C-218.628 130.186 -224.111 136.002 -224.111 143.099H-227.222C-227.222 134.283 -220.347 127.073 -211.667 126.538V129.657ZM-211.667 123.422C-222.067 123.961 -230.333 132.565 -230.333 143.099H-233.444C-233.444 130.846 -223.786 120.849 -211.667 120.307V123.422ZM-211.667 117.193C-225.504 117.738 -236.555 129.128 -236.555 143.099H-239.667C-239.667 127.409 -227.223 114.626 -211.667 114.08V117.193ZM-211.667 110.967C-228.942 111.515 -242.778 125.691 -242.778 143.099H-245.889C-245.889 123.973 -230.66 108.403 -211.667 107.855V110.967ZM-211.667 104.742C-232.379 105.292 -249 122.254 -249 143.099H-252.111C-252.111 120.536 -234.097 102.181 -211.667 101.63V104.742ZM-165 143.121C-165 169.12 -185.799 190.261 -211.666 190.813L-208.556 190.813C-208.556 215.094 -189.149 234.842 -165.001 235.393V238.505C-190.818 237.954 -211.587 216.893 -211.667 190.962V193.925C-235.815 194.476 -255.222 214.224 -255.222 238.505H-258.333C-258.333 212.506 -237.535 191.366 -211.668 190.813H-214.778C-214.778 166.532 -234.185 146.784 -258.333 146.233L-258.334 143.121C-232.467 143.672 -211.666 164.814 -211.666 190.813V187.701C-187.518 187.15 -168.111 167.402 -168.111 143.121H-165ZM-205.444 143.121C-205.444 146.778 -208.148 149.803 -211.666 150.306V153.44C-206.426 152.92 -202.333 148.498 -202.333 143.121H-205.444ZM-199.222 143.121C-199.222 150.217 -204.705 156.033 -211.666 156.563V159.681C-202.986 159.146 -196.111 151.936 -196.111 143.121H-199.222ZM-193 143.121C-193 153.655 -201.266 162.258 -211.666 162.797V165.912C-199.547 165.37 -189.889 155.373 -189.889 143.121H-193ZM-186.778 143.121C-186.778 157.092 -197.829 168.482 -211.666 169.026V172.139C-196.11 171.593 -183.666 158.81 -183.666 143.121H-186.778ZM-180.555 143.121C-180.555 160.529 -194.391 174.705 -211.666 175.252V178.365C-192.673 177.816 -177.444 162.247 -177.444 143.121H-180.555ZM-174.333 143.121C-174.333 163.965 -190.954 180.927 -211.666 181.477V184.589C-189.236 184.039 -171.222 165.683 -171.222 143.121H-174.333ZM-252.111 190.813C-252.111 187.156 -254.815 184.131 -258.333 183.627V180.494C-253.093 181.014 -249 185.436 -249 190.813H-252.111ZM-245.889 190.813C-245.889 183.716 -251.372 177.9 -258.333 177.371V174.252C-249.653 174.788 -242.778 181.998 -242.778 190.813H-245.889ZM-239.667 190.813C-239.667 180.279 -247.933 171.676 -258.333 171.136V168.022C-246.214 168.564 -236.556 178.56 -236.556 190.813H-239.667ZM-233.445 190.813C-233.445 176.842 -244.496 165.452 -258.333 164.908V161.794C-242.777 162.34 -230.333 175.124 -230.333 190.813H-233.445ZM-227.222 190.813C-227.222 173.405 -241.058 159.229 -258.333 158.682V155.569C-239.34 156.118 -224.111 171.687 -224.111 190.813H-227.222ZM-221 190.813C-221 169.969 -237.621 153.006 -258.333 152.457V149.345C-235.903 149.895 -217.889 168.25 -217.889 190.813H-221ZM-165.001 197.999C-168.519 197.495 -171.223 194.47 -171.223 190.813H-174.334C-174.334 196.19 -170.241 200.612 -165.001 201.132V197.999ZM-165.001 204.255C-171.962 203.725 -177.445 197.91 -177.445 190.813H-180.556C-180.556 199.628 -173.681 206.838 -165.001 207.373V204.255ZM-165.001 210.49C-175.401 209.95 -183.667 201.347 -183.667 190.813H-186.778C-186.778 203.066 -177.12 213.062 -165.001 213.604V210.49ZM-165.001 216.718C-178.838 216.174 -189.889 204.784 -189.889 190.813H-193.001C-193.001 206.502 -180.557 219.285 -165.001 219.831V216.718ZM-165.001 222.944C-182.276 222.397 -196.112 208.221 -196.112 190.813H-199.223C-199.223 209.939 -183.994 225.508 -165.001 226.057V222.944ZM-165.001 229.169C-185.713 228.62 -202.334 211.657 -202.334 190.813H-205.445C-205.445 213.376 -187.431 231.731 -165.001 232.281V229.169ZM-217.889 238.505C-217.889 234.848 -215.185 231.823 -211.667 231.319V228.186C-216.907 228.706 -221 233.128 -221 238.505H-217.889ZM-224.111 238.505C-224.111 231.409 -218.628 225.593 -211.667 225.063V221.945C-220.347 222.48 -227.222 229.69 -227.222 238.505H-224.111ZM-230.333 238.505C-230.333 227.971 -222.067 219.368 -211.667 218.828V215.714C-223.786 216.256 -233.444 226.253 -233.444 238.505H-230.333ZM-236.555 238.505C-236.555 224.534 -225.504 213.144 -211.667 212.6V209.487C-227.223 210.033 -239.667 222.816 -239.667 238.505H-236.555ZM-242.778 238.505C-242.778 221.097 -228.942 206.921 -211.667 206.374V203.261C-230.66 203.81 -245.889 219.379 -245.889 238.505H-242.778ZM-249 238.505C-249 217.661 -232.379 200.698 -211.667 200.149V197.037C-234.097 197.587 -252.111 215.942 -252.111 238.505H-249ZM-211.666 286.219C-185.799 285.668 -165 264.526 -165 238.527H-168.111C-168.111 262.808 -187.518 282.556 -211.666 283.108V286.219ZM-211.666 286.219C-237.533 286.771 -258.333 307.912 -258.333 333.912H-255.222C-255.222 309.631 -235.815 289.882 -211.667 289.331V286.369C-211.587 312.299 -190.818 333.361 -165.001 333.911V330.8C-189.149 330.249 -208.556 310.5 -208.556 286.219L-211.666 286.219ZM-214.778 286.219H-211.666C-211.666 260.22 -232.467 239.079 -258.334 238.527L-258.333 241.639C-234.185 242.19 -214.778 261.938 -214.778 286.219ZM-211.666 245.713C-208.148 245.21 -205.444 242.184 -205.444 238.527H-202.333C-202.333 243.905 -206.426 248.326 -211.666 248.846V245.713ZM-211.666 251.969C-204.705 251.44 -199.222 245.624 -199.222 238.527H-196.111C-196.111 247.343 -202.986 254.552 -211.666 255.088V251.969ZM-211.666 258.204C-201.266 257.665 -193 249.061 -193 238.527H-189.889C-189.889 250.78 -199.547 260.776 -211.666 261.319V258.204ZM-211.666 264.432C-197.829 263.888 -186.778 252.498 -186.778 238.527H-183.666C-183.666 254.217 -196.11 267 -211.666 267.546V264.432ZM-211.666 270.659C-194.391 270.111 -180.555 255.935 -180.555 238.527H-177.444C-177.444 257.653 -192.673 273.223 -211.666 273.771V270.659ZM-211.666 276.883C-190.954 276.334 -174.333 259.372 -174.333 238.527H-171.222C-171.222 261.09 -189.236 279.445 -211.666 279.996V276.883ZM-258.333 279.034C-254.815 279.537 -252.111 282.562 -252.111 286.219H-249C-249 280.842 -253.093 276.421 -258.333 275.9V279.034ZM-258.333 272.777C-251.372 273.307 -245.889 279.123 -245.889 286.219H-242.778C-242.778 277.404 -249.653 270.194 -258.333 269.659V272.777ZM-258.333 266.543C-247.933 267.082 -239.667 275.685 -239.667 286.219H-236.556C-236.556 273.967 -246.214 263.97 -258.333 263.428V266.543ZM-258.333 260.314C-244.496 260.858 -233.445 272.248 -233.445 286.219H-230.333C-230.333 270.53 -242.777 257.747 -258.333 257.201V260.314ZM-258.333 254.088C-241.058 254.635 -227.222 268.812 -227.222 286.219H-224.111C-224.111 267.093 -239.34 251.524 -258.333 250.975V254.088ZM-258.333 247.863C-237.621 248.413 -221 265.375 -221 286.219H-217.889C-217.889 263.657 -235.903 245.301 -258.333 244.751V247.863ZM-165.001 293.405C-168.519 292.902 -171.223 289.876 -171.223 286.219H-174.334C-174.334 291.597 -170.241 296.018 -165.001 296.538V293.405ZM-165.001 299.661C-171.962 299.132 -177.445 293.316 -177.445 286.219H-180.556C-180.556 295.035 -173.681 302.245 -165.001 302.78V299.661ZM-165.001 305.896C-175.401 305.357 -183.667 296.753 -183.667 286.219H-186.778C-186.778 298.472 -177.12 308.469 -165.001 309.011V305.896ZM-165.001 312.125C-178.838 311.58 -189.889 300.19 -189.889 286.219H-193.001C-193.001 301.909 -180.557 314.692 -165.001 315.238V312.125ZM-165.001 318.351C-182.276 317.803 -196.112 303.627 -196.112 286.219H-199.223C-199.223 305.345 -183.994 320.915 -165.001 321.463V318.351ZM-165.001 324.576C-185.713 324.026 -202.334 307.064 -202.334 286.219H-205.445C-205.445 308.782 -187.431 327.137 -165.001 327.688V324.576ZM-217.889 333.912C-217.889 330.254 -215.185 327.229 -211.667 326.726V323.592C-216.907 324.113 -221 328.534 -221 333.912H-217.889ZM-224.111 333.912C-224.111 326.815 -218.628 320.999 -211.667 320.469V317.351C-220.347 317.886 -227.222 325.096 -227.222 333.912H-224.111ZM-230.333 333.912C-230.333 323.377 -222.067 314.774 -211.667 314.235V311.12C-223.786 311.662 -233.444 321.659 -233.444 333.912H-230.333ZM-236.555 333.912C-236.555 319.941 -225.504 308.551 -211.667 308.006V304.893C-227.223 305.439 -239.667 318.222 -239.667 333.912H-236.555ZM-242.778 333.912C-242.778 316.504 -228.942 302.328 -211.667 301.78V298.668C-230.66 299.216 -245.889 314.785 -245.889 333.912H-242.778ZM-249 333.912C-249 313.067 -232.379 296.105 -211.667 295.555V292.443C-234.097 292.994 -252.111 311.349 -252.111 333.912H-249ZM-211.666 381.626C-185.799 381.074 -165 359.933 -165 333.934H-168.111C-168.111 358.215 -187.518 377.963 -211.666 378.514V381.626ZM-211.666 341.119C-208.148 340.616 -205.444 337.591 -205.444 333.934H-202.333C-202.333 339.311 -206.426 343.732 -211.666 344.253V341.119ZM-211.666 347.376C-204.705 346.846 -199.222 341.03 -199.222 333.934H-196.111C-196.111 342.749 -202.986 349.959 -211.666 350.494V347.376ZM-211.666 353.61C-201.266 353.071 -193 344.468 -193 333.934H-189.889C-189.889 346.186 -199.547 356.183 -211.666 356.725V353.61ZM-211.666 359.839C-197.829 359.295 -186.778 347.905 -186.778 333.934H-183.666C-183.666 349.623 -196.11 362.406 -211.666 362.952V359.839ZM-211.666 366.065C-194.391 365.518 -180.555 351.341 -180.555 333.934H-177.444C-177.444 353.06 -192.673 368.629 -211.666 369.178V366.065ZM-211.666 372.29C-190.954 371.74 -174.333 354.778 -174.333 333.934H-171.222C-171.222 356.496 -189.236 374.852 -211.666 375.402V372.29ZM-258.334 333.934C-232.467 334.485 -211.666 355.627 -211.666 381.626L-214.778 381.626C-214.778 357.345 -234.185 337.597 -258.333 337.046L-258.334 333.934ZM-258.333 374.44C-254.815 374.943 -252.111 377.969 -252.111 381.626H-249C-249 376.249 -253.093 371.827 -258.333 371.307V374.44ZM-258.333 368.184C-251.372 368.713 -245.889 374.529 -245.889 381.626H-242.778C-242.778 372.81 -249.653 365.601 -258.333 365.065V368.184ZM-258.333 361.949C-247.933 362.488 -239.667 371.092 -239.667 381.626H-236.556C-236.556 369.373 -246.214 359.377 -258.333 358.834V361.949ZM-258.333 355.721C-244.496 356.265 -233.445 367.655 -233.445 381.626H-230.333C-230.333 365.936 -242.777 353.153 -258.333 352.607V355.721ZM-258.333 349.494C-241.058 350.042 -227.222 364.218 -227.222 381.626H-224.111C-224.111 362.5 -239.34 346.93 -258.333 346.382V349.494ZM-258.333 343.27C-237.621 343.819 -221 360.781 -221 381.626H-217.889C-217.889 359.063 -235.903 340.708 -258.333 340.158V343.27Z" fill="#F2F2F2"/>
</svg>
