<svg width="181" height="35" viewBox="0 0 181 35" fill="none" xmlns="http://www.w3.org/2000/svg">
<path d="M170.709 29.1813C170.709 26.511 172.885 24.4341 175.456 24.4341C178.126 24.4341 180.203 26.6099 180.203 29.1813C180.203 31.7528 178.027 33.9286 175.456 33.9286C172.885 33.9286 170.709 31.8517 170.709 29.1813Z" fill="#86BC25"/>
<path fill-rule="evenodd" clip-rule="evenodd" d="M65.0829 0.5H56.8741V33.533H65.0829V0.5ZM28.0937 16.4232C28.0937 21.9616 26.7091 26.1155 23.7421 29.0825C20.775 32.0495 16.6212 33.5331 11.2805 33.5331H0.796997V0.598998H11.8739C17.1157 0.598998 21.0717 1.88471 23.841 4.65394C26.7091 7.32427 28.0937 11.2803 28.0937 16.4232ZM18.9948 16.7199C18.9948 13.6539 18.4014 11.4781 17.2146 9.9946C16.1267 8.60999 14.2475 7.81878 11.8739 7.81878H9.50029V26.2144H11.4783C14.1486 26.2144 16.0278 25.4232 17.3135 23.8408C18.4014 22.2583 18.9948 19.8847 18.9948 16.7199ZM89.0169 30.566C91.1927 28.2913 92.1817 25.1265 92.1817 21.1704C92.1817 18.599 91.7861 16.4232 90.5993 14.3463C89.6103 12.4671 88.3246 10.9836 86.4454 9.9946C84.6652 9.00559 82.5883 8.51109 80.2147 8.51109C76.4564 8.51109 73.4894 9.599 71.3136 11.8737C69.1378 14.0495 68.1487 17.2144 68.1487 21.1704C68.1487 25.0276 69.2367 28.0935 71.4125 30.4671C73.5883 32.8408 76.4564 33.9287 80.1158 33.9287C83.874 33.9287 86.8411 32.8408 89.0169 30.566ZM77.4454 25.9177C76.9509 24.8298 76.6542 23.3463 76.6542 21.1704C76.6542 18.9946 76.9509 17.5111 77.4454 16.4232C78.0389 15.3353 79.0279 14.8408 80.2147 14.8408C81.5993 14.8408 82.4894 15.4342 82.9839 16.4232C83.4784 17.5111 83.7751 18.9946 83.7751 21.1704C83.7751 23.1484 83.4784 24.8298 82.9839 25.9177C82.3905 27.0056 81.5993 27.5001 80.2147 27.5001C78.8301 27.5001 77.94 27.0056 77.4454 25.9177ZM103.753 8.90659H95.5441V33.4341H103.753V8.90659ZM95.5441 0.5H103.753V6.03846H95.5441V0.5ZM120.467 27.2032C121.555 27.2032 122.94 26.9065 124.423 26.412V32.6428C123.335 33.1373 122.247 33.434 121.258 33.6318C120.269 33.8296 119.083 33.9285 117.698 33.9285C114.929 33.9285 112.951 33.2362 111.665 31.7527C110.478 30.368 109.786 28.1922 109.786 25.3241V15.2362H106.918V8.9065H109.786V2.77463L118.094 1.39001V9.1043H123.434V15.3351H118.094V24.8296C118.291 26.5109 118.984 27.2032 120.467 27.2032ZM143.61 26.412C142.127 26.9065 140.742 27.2032 139.654 27.2032C138.171 27.2032 137.38 26.5109 137.281 24.8296V15.3351H142.621V9.1043H137.281V1.39001L128.973 2.67573V8.9065H126.105V15.2362H128.973V25.3241C128.973 28.1922 129.665 30.368 130.852 31.7527C132.138 33.2362 134.116 33.9285 136.885 33.9285C138.27 33.9285 139.457 33.8296 140.446 33.6318C141.435 33.434 142.522 33.1373 143.61 32.6428V26.412ZM165.764 11.3792C163.786 9.4012 161.017 8.51109 157.456 8.51109C153.698 8.51109 150.731 9.599 148.654 11.8737C146.577 14.1484 145.588 17.3133 145.588 21.4671C145.588 25.4232 146.676 28.588 148.852 30.7638C151.127 32.9397 154.193 34.0276 158.149 34.0276C160.127 34.0276 161.709 33.9287 163.094 33.632C164.379 33.3353 165.863 32.9397 167.05 32.2473L165.863 26.7089C164.973 27.1045 163.984 27.4012 163.193 27.599C162.006 27.8957 160.621 27.9946 159.236 27.9946C157.654 27.9946 156.368 27.599 155.478 26.9067C154.588 26.1155 154.094 25.0276 154.094 23.643H168.83V19.7858C168.731 16.1265 167.643 13.3572 165.764 11.3792ZM154.094 18.2034C154.193 16.9177 154.588 15.8298 155.182 15.2364C155.775 14.643 156.566 14.3463 157.654 14.3463C158.643 14.3463 159.632 14.643 160.225 15.3353C160.819 16.0276 161.116 16.9177 161.214 18.2034H154.094ZM42.4345 8.51109C45.9949 8.51109 48.6652 9.4012 50.7421 11.3792C52.6213 13.3572 53.7092 16.1265 53.8081 19.7858V23.5441H39.0718C39.0718 24.9287 39.5663 26.0166 40.4564 26.8078C41.3465 27.5001 42.6323 27.8957 44.2147 27.8957C45.5993 27.8957 46.9839 27.7968 48.1707 27.5001C48.9619 27.3023 49.9509 27.0056 50.841 26.61L52.0279 32.2473C50.841 32.9397 49.3575 33.3353 48.0718 33.632C46.6872 33.9287 45.1048 34.0276 43.1268 34.0276C39.1707 34.0276 36.1048 32.9397 33.8301 30.7638C31.6542 28.588 30.5663 25.4232 30.5663 21.4671C30.5663 17.3133 31.5553 14.1484 33.6323 11.8737C35.7092 9.599 38.6762 8.51109 42.4345 8.51109ZM40.0608 15.2364C39.4674 15.8298 39.0718 16.9177 38.9729 18.2034H46.0938C45.9949 16.9177 45.6982 16.0276 45.1048 15.3353C44.5114 14.643 43.6213 14.3463 42.5334 14.3463C41.4454 14.3463 40.6542 14.643 40.0608 15.2364Z" fill="#979797"/>
</svg>
