<svg width="216" height="64" viewBox="0 0 216 64" fill="none" xmlns="http://www.w3.org/2000/svg">
<path fill-rule="evenodd" clip-rule="evenodd" d="M8 1.5H208C211.59 1.5 214.5 4.41015 214.5 8V56C214.5 59.5899 211.59 62.5 208 62.5H8C4.41015 62.5 1.5 59.5899 1.5 56V8C1.5 4.41015 4.41015 1.5 8 1.5ZM208 0H8C3.58172 0 0 3.58172 0 8V56C0 60.4183 3.58172 64 8 64H208C212.418 64 216 60.4183 216 56V8C216 3.58172 212.418 0 208 0ZM93.1517 10.8319C92.4732 10.813 91.7981 10.9336 91.1681 11.1861C90.5366 11.4393 89.964 11.8196 89.4858 12.3035L89.484 12.3053C88.5323 13.2999 88.0011 14.6234 88.0011 15.9999C88.0011 17.3765 88.5323 18.7 89.484 19.6946L89.4859 19.6964C89.9564 20.1721 90.5182 20.5477 91.1376 20.8006C91.7562 21.0531 92.4195 21.1781 93.0876 21.168C93.8621 21.1806 94.6295 21.0168 95.3314 20.6889L95.3332 20.688C95.9699 20.3809 96.5336 19.9412 96.9865 19.3984L97.0811 19.2851L95.985 18.2093L95.8744 18.3483C95.5466 18.7606 95.1326 19.0962 94.6615 19.3317C94.1905 19.5672 93.6737 19.697 93.1472 19.712C92.6767 19.724 92.2088 19.6392 91.7723 19.4631C91.3368 19.2873 90.9418 19.0241 90.6118 18.6899C89.9508 17.9625 89.5845 17.0149 89.5845 16.0319C89.5845 15.049 89.9508 14.1014 90.6118 13.374C90.9418 13.0397 91.3368 12.7766 91.7723 12.6008C92.2089 12.4246 92.677 12.3399 93.1476 12.3519L93.159 12.3518C93.6448 12.3296 94.129 12.4243 94.5707 12.6279C95.0124 12.8316 95.3987 13.1382 95.6974 13.5222L95.8076 13.6639L96.8884 12.6034L96.7951 12.4902C96.3535 11.9543 95.7952 11.5263 95.163 11.2389C94.5322 10.9522 93.8443 10.813 93.1517 10.8319ZM79.9814 11.2215C80.6035 10.9633 81.2705 10.8304 81.944 10.8304C82.6175 10.8304 83.2844 10.9633 83.9065 11.2215C84.5286 11.4797 85.0937 11.8581 85.5693 12.335C86.0465 12.8173 86.4229 13.3907 86.6754 14.0205C86.9274 14.6492 87.0514 15.3219 87.04 15.9991C87.059 16.6778 86.9385 17.3533 86.6858 17.9835C86.4327 18.6148 86.0525 19.1873 85.5688 19.6654C85.0933 20.1421 84.5284 20.5203 83.9065 20.7784C83.2844 21.0366 82.6175 21.1695 81.944 21.1695C81.2705 21.1695 80.6035 21.0366 79.9814 20.7784C79.3594 20.5202 78.7943 20.1418 78.3187 19.6649L78.3164 19.6626C77.3725 18.6769 76.8457 17.3647 76.8457 16C76.8457 14.6352 77.3726 13.3231 78.3164 12.3373L78.3187 12.3349C78.7943 11.858 79.3594 11.4797 79.9814 11.2215ZM135.405 11.2215C136.027 10.9633 136.694 10.8304 137.368 10.8304C138.041 10.8304 138.708 10.9633 139.33 11.2215C139.952 11.4797 140.517 11.8581 140.993 12.335L140.996 12.3379C141.932 13.3274 142.454 14.6378 142.454 16C142.454 17.2416 142.02 18.4402 141.235 19.3919H141.282L141.009 19.665C140.532 20.1424 139.966 20.5211 139.342 20.7795C138.719 21.0378 138.051 21.1708 137.376 21.1708C136.701 21.1708 136.033 21.0378 135.409 20.7795C134.786 20.5211 134.22 20.1424 133.743 19.665L133.74 19.6626C132.796 18.6768 132.27 17.3647 132.27 16C132.27 14.6352 132.796 13.3231 133.74 12.3373L133.743 12.335C134.218 11.8581 134.783 11.4797 135.405 11.2215ZM152.874 11.816C152.309 11.3093 151.574 11.0325 150.815 11.0399H147.184V20.9628L151.008 20.896C151.806 20.9098 152.578 20.6141 153.163 20.0709C153.458 19.8139 153.693 19.4951 153.852 19.137C154.01 18.7789 154.088 18.3903 154.08 17.9988C154.083 17.4744 153.915 16.9634 153.6 16.5439L153.598 16.5415C153.35 16.2239 153.035 15.9675 152.677 15.7901C152.953 15.6157 153.193 15.3862 153.38 15.1146L153.382 15.1106C153.632 14.7227 153.764 14.2702 153.76 13.8088C153.767 13.4322 153.691 13.0586 153.538 12.7144C153.385 12.3699 153.158 12.0632 152.874 11.816ZM68.2076 11.0399H74.9276V19.4559H75.9996V22.9759H74.4956V20.9599H67.5356V22.9919H66.0476V19.4719H67.1287C67.5361 19.0154 67.8435 18.4784 68.031 17.8955C68.2096 17.3401 68.2085 16.8892 68.2068 16.2109V16.2088C68.2067 16.171 68.2066 16.1325 68.2065 16.0932C68.2065 16.0626 68.2064 16.0315 68.2064 15.9999L68.2076 11.0399ZM97.8078 11.0399H104.72V12.5439H102.048V20.9599H100.496V12.5439H97.8078V11.0399ZM105.176 11.0399H106.985L109.247 16.2968L111.478 11.0399H113.287L109.559 19.3502C109.464 19.6925 109.297 20.0105 109.068 20.2826C108.837 20.558 108.549 20.7799 108.224 20.9328C107.898 21.0857 107.543 21.1661 107.184 21.1683C106.824 21.1705 106.469 21.0945 106.141 20.9456L106.016 20.8887L106.429 19.4249L106.606 19.5245C106.779 19.6217 106.973 19.6751 107.172 19.68L107.176 19.6801C107.376 19.6902 107.575 19.6392 107.745 19.5341C107.914 19.3911 108.044 19.2072 108.122 18.9998L108.126 18.9891L108.448 18.2874L105.176 11.0399ZM114.272 11.0399H121.536V20.9599H119.984V12.5439H115.824V20.9599H114.272V11.0399ZM123.408 11.0399H124.96V15.1519H129.44V11.0399H131.008V20.9599H129.44V16.6239H124.96V20.9599H123.408V11.0399ZM83.2929 12.5771C82.8644 12.3983 82.4034 12.3107 81.9392 12.3199L81.9338 12.32C81.4696 12.3136 81.0091 12.4024 80.5807 12.5811C80.1532 12.7595 79.7667 13.0235 79.4451 13.357C78.7924 14.0826 78.4313 15.024 78.4313 16C78.4313 16.9759 78.7924 17.9173 79.4451 18.6429C79.7667 18.9764 80.1532 19.2404 80.5807 19.4188C81.0091 19.5975 81.4696 19.6864 81.9338 19.68L81.9392 19.6799C82.4034 19.6891 82.8644 19.6016 83.2929 19.4228C83.721 19.2442 84.1073 18.9785 84.4272 18.6426C85.0898 17.9221 85.4576 16.9789 85.4576 16C85.4576 15.021 85.0898 14.0778 84.4272 13.3573C84.1073 13.0214 83.721 12.7557 83.2929 12.5771ZM137.373 12.3199C136.908 12.3107 136.447 12.3983 136.019 12.5771C135.591 12.7557 135.204 13.0214 134.885 13.3574C134.222 14.0779 133.854 15.0211 133.854 16C133.854 16.9788 134.222 17.922 134.885 18.6425C135.204 18.9785 135.591 19.2442 136.019 19.4228C136.447 19.6016 136.908 19.6892 137.373 19.68L137.378 19.68C137.842 19.6864 138.303 19.5975 138.731 19.4188C139.159 19.2404 139.545 18.9764 139.867 18.6429C140.519 17.9173 140.88 16.9759 140.88 16C140.88 15.024 140.519 14.0826 139.867 13.357C139.545 13.0235 139.159 12.7595 138.731 12.5811C138.303 12.4024 137.842 12.3135 137.378 12.3199L137.373 12.3199ZM151.453 12.6033C151.289 12.535 151.112 12.5037 150.935 12.5118L150.928 12.5121L148.781 12.5119L148.739 15.1519H150.825C151.011 15.1627 151.196 15.1316 151.368 15.0605C151.54 14.9893 151.693 14.8803 151.816 14.7415L151.824 14.7334C152.065 14.4971 152.203 14.1753 152.208 13.8377L152.208 13.8336C152.222 13.4939 152.104 13.1619 151.88 12.9061C151.762 12.7749 151.616 12.6715 151.453 12.6033ZM69.7596 12.5439V15.9955C69.8267 17.2181 69.5502 18.4331 68.9642 19.5039H73.3276V12.5439H69.7596ZM151.599 16.7326C151.413 16.6557 151.213 16.6187 151.012 16.6239L151.008 16.6239H148.736V19.4559H151.077C151.27 19.4624 151.463 19.4262 151.64 19.3498C151.818 19.2734 151.976 19.1587 152.104 19.0139L152.107 19.0106C152.355 18.7456 152.494 18.3967 152.496 18.0337C152.487 17.6737 152.343 17.3302 152.093 17.071C151.954 16.9253 151.785 16.8095 151.599 16.7326ZM76.3841 36.896V39.776H83.2961C83.1878 41.1325 82.6239 42.4124 81.6961 43.408C81.0028 44.1144 80.1689 44.6674 79.2483 45.0312C78.3278 45.395 77.3411 45.5615 76.3521 45.52C74.3153 45.52 72.3618 44.7108 70.9216 43.2706C69.4813 41.8303 68.6721 39.8768 68.6721 37.84C68.6721 35.8031 69.4813 33.8497 70.9216 32.4094C72.3618 30.9691 74.3153 30.16 76.3521 30.16C78.3049 30.1309 80.1904 30.8725 81.6001 32.224L83.6321 30.192C82.6785 29.2488 81.5462 28.5054 80.3017 28.0054C79.0571 27.5053 77.7252 27.2587 76.3841 27.28C74.9617 27.2246 73.5428 27.457 72.2123 27.9631C70.8819 28.4693 69.6673 29.2388 68.6413 30.2256C67.6154 31.2124 66.7992 32.3961 66.2417 33.7059C65.6842 35.0157 65.3969 36.4245 65.3969 37.848C65.3969 39.2715 65.6842 40.6803 66.2417 41.9901C66.7992 43.2998 67.6154 44.4836 68.6413 45.4704C69.6673 46.4571 70.8819 47.2267 72.2123 47.7328C73.5428 48.239 74.9617 48.4713 76.3841 48.416C77.7528 48.4706 79.1176 48.2352 80.3888 47.725C81.66 47.2149 82.8089 46.4416 83.7601 45.456C85.4403 43.6102 86.3356 41.1827 86.2561 38.688C86.2619 38.0875 86.2137 37.4878 86.1121 36.896H76.3841ZM148.88 39.136C148.463 37.9084 147.683 36.8364 146.643 36.0621C145.603 35.2878 144.352 34.8477 143.056 34.8C142.181 34.7983 141.315 34.9761 140.511 35.3224C139.707 35.6688 138.983 36.1763 138.383 36.8136C137.783 37.451 137.321 38.2045 137.024 39.0278C136.726 39.851 136.601 40.7265 136.656 41.6C136.642 43.0605 137.102 44.4863 137.965 45.6644C138.829 46.8425 140.05 47.7096 141.447 48.1362C142.844 48.5628 144.341 48.5261 145.716 48.0315C147.09 47.5369 148.267 46.6109 149.072 45.392L146.752 43.792C146.406 44.3684 145.916 44.8444 145.329 45.1728C144.743 45.5012 144.08 45.6705 143.408 45.664C142.715 45.6926 142.029 45.5108 141.44 45.1424C140.852 44.7741 140.389 44.2364 140.112 43.6L149.216 39.84L148.88 39.136ZM139.6 41.408C139.568 40.911 139.635 40.4125 139.797 39.9418C139.96 39.471 140.215 39.0374 140.547 38.6664C140.879 38.2954 141.282 37.9944 141.732 37.7811C142.182 37.5677 142.671 37.4463 143.168 37.424C143.684 37.3925 144.197 37.5139 144.644 37.7729C145.091 38.0319 145.451 38.417 145.68 38.88L139.6 41.408ZM132.208 48H135.2V28H132.208V48ZM127.312 36.32H127.2C126.753 35.8109 126.202 35.4045 125.583 35.1283C124.964 34.8522 124.294 34.7129 123.616 34.72C121.868 34.8048 120.219 35.559 119.011 36.8265C117.804 38.094 117.13 39.7774 117.13 41.528C117.13 43.2785 117.804 44.962 119.011 46.2294C120.219 47.4969 121.868 48.2512 123.616 48.336C124.294 48.3496 124.967 48.2132 125.587 47.9366C126.207 47.6601 126.757 47.2501 127.2 46.736H127.312V47.712C127.312 50.32 125.92 51.712 123.68 51.712C122.932 51.6955 122.205 51.4571 121.593 51.0269C120.98 50.5968 120.51 49.9943 120.24 49.296L117.648 50.368C118.127 51.5716 118.961 52.6014 120.038 53.3213C121.115 54.0412 122.385 54.4174 123.68 54.4C127.184 54.4 130.08 52.336 130.08 47.312V35.2H127.312V36.32ZM123.872 45.728C122.824 45.6626 121.84 45.2001 121.121 44.4346C120.401 43.6692 120.001 42.6583 120.001 41.608C120.001 40.5576 120.401 39.5468 121.121 38.7813C121.84 38.0158 122.824 37.5533 123.872 37.488C124.385 37.5101 124.887 37.635 125.35 37.8554C125.813 38.0757 126.227 38.387 126.568 38.7707C126.908 39.1543 127.168 39.6025 127.331 40.0885C127.495 40.5746 127.559 41.0886 127.52 41.6C127.564 42.1131 127.503 42.6297 127.341 43.1186C127.179 43.6075 126.92 44.0586 126.579 44.4444C126.238 44.8303 125.823 45.143 125.357 45.3636C124.892 45.5842 124.387 45.7082 123.872 45.728ZM162.896 28H155.728V48H158.72V40.416H162.896C163.749 40.4772 164.605 40.3622 165.411 40.0779C166.218 39.7937 166.957 39.3464 167.583 38.764C168.208 38.1815 168.707 37.4764 169.049 36.6925C169.39 35.9087 169.566 35.0629 169.566 34.208C169.566 33.3531 169.39 32.5073 169.049 31.7234C168.707 30.9396 168.208 30.2344 167.583 29.652C166.957 29.0695 166.218 28.6222 165.411 28.338C164.605 28.0538 163.749 27.9387 162.896 28ZM162.896 37.6H158.72V30.784H162.96C163.41 30.784 163.855 30.8725 164.27 31.0446C164.686 31.2167 165.063 31.4689 165.381 31.7868C165.699 32.1048 165.951 32.4822 166.124 32.8977C166.296 33.3131 166.384 33.7583 166.384 34.208C166.384 34.6576 166.296 35.1029 166.124 35.5183C165.951 35.9337 165.699 36.3112 165.381 36.6291C165.063 36.9471 164.686 37.1993 164.27 37.3713C163.855 37.5434 163.41 37.632 162.96 37.632L162.896 37.6ZM181.36 34.736C180.271 34.6688 179.185 34.9225 178.238 35.4656C177.291 36.0087 176.524 36.8175 176.032 37.792L178.672 38.896C178.939 38.415 179.339 38.0216 179.825 37.7632C180.31 37.5048 180.86 37.3926 181.408 37.44C181.788 37.3956 182.173 37.4273 182.54 37.5333C182.908 37.6392 183.25 37.8173 183.548 38.0571C183.846 38.2969 184.093 38.5936 184.275 38.9299C184.457 39.2663 184.57 39.6354 184.608 40.016V40.208C183.646 39.7022 182.575 39.4386 181.488 39.44C178.64 39.44 175.728 41.04 175.728 43.952C175.756 44.5709 175.909 45.1779 176.176 45.7369C176.443 46.2958 176.82 46.7953 177.284 47.2058C177.749 47.6162 178.29 47.9291 178.878 48.126C179.465 48.3229 180.086 48.3998 180.704 48.352C181.455 48.3935 182.203 48.2346 182.872 47.8916C183.542 47.5486 184.108 47.0338 184.512 46.4H184.608V48H187.488V40.304C187.488 36.8 184.832 34.768 181.424 34.768L181.36 34.736ZM180.992 45.696C180.016 45.696 178.656 45.2 178.656 44C178.656 42.4 180.352 41.856 181.856 41.856C182.807 41.8325 183.746 42.0646 184.576 42.528C184.476 43.3969 184.064 44.1999 183.416 44.7883C182.769 45.3767 181.931 45.7105 181.056 45.728L180.992 45.696ZM197.984 35.2L194.56 43.872H194.464L190.912 35.2H187.712L193.04 47.328L190 54.064H193.12L201.312 35.2H197.984ZM171.104 48H174.08V28H171.104V48ZM90.3284 35.9577C91.4475 35.2061 92.7644 34.8032 94.1125 34.8001C95.0117 34.7828 95.9052 34.9467 96.7398 35.2819C97.5744 35.6171 98.333 36.1168 98.9705 36.7513C99.608 37.3857 100.111 38.142 100.45 38.975C100.789 39.808 100.958 40.7008 100.944 41.6001C100.948 42.9481 100.551 44.2669 99.8047 45.3895C99.0583 46.5121 97.9959 47.3883 96.7516 47.9071C95.5074 48.4259 94.1373 48.5641 92.8145 48.3042C91.4917 48.0443 90.2757 47.398 89.3202 46.447C88.3647 45.496 87.7127 44.283 87.4466 42.9615C87.1805 41.6399 87.3123 40.2691 87.8252 39.0225C88.3382 37.7758 89.2093 36.7092 90.3284 35.9577ZM92.0495 45.1821C92.7652 45.5992 93.5897 45.7913 94.416 45.7335C94.9413 45.7213 95.4589 45.6041 95.9381 45.3887C96.4174 45.1733 96.8487 44.8641 97.2066 44.4794C97.5645 44.0946 97.8417 43.6421 98.022 43.1486C98.2022 42.655 98.2818 42.1303 98.256 41.6055C98.254 40.7772 98.0028 39.9687 97.5352 39.285C97.0676 38.6014 96.4051 38.0742 95.6339 37.772C94.8627 37.4699 94.0184 37.4067 93.2108 37.5907C92.4032 37.7748 91.6697 38.1975 91.1055 38.804C90.5414 39.4104 90.1727 40.1726 90.0475 40.9913C89.9222 41.8101 90.0462 42.6476 90.4032 43.395C90.7603 44.1424 91.3339 44.7651 92.0495 45.1821ZM109.021 34.8001C107.673 34.8032 106.356 35.2061 105.237 35.9577C104.118 36.7092 103.246 37.7758 102.733 39.0225C102.22 40.2691 102.089 41.6399 102.355 42.9615C102.621 44.283 103.273 45.496 104.228 46.447C105.184 47.398 106.4 48.0443 107.723 48.3042C109.045 48.5641 110.416 48.4259 111.66 47.9071C112.904 47.3883 113.967 46.5121 114.713 45.3895C115.459 44.2669 115.856 42.9481 115.853 41.6001C115.866 40.7008 115.698 39.808 115.359 38.975C115.019 38.142 114.516 37.3857 113.879 36.7513C113.241 36.1168 112.483 35.6171 111.648 35.2819C110.813 34.9467 109.92 34.7828 109.021 34.8001ZM109.324 45.7335C108.498 45.7913 107.673 45.5992 106.958 45.1821C106.242 44.7651 105.668 44.1424 105.311 43.395C104.954 42.6476 104.83 41.8101 104.956 40.9913C105.081 40.1726 105.45 39.4104 106.014 38.804C106.578 38.1975 107.311 37.7748 108.119 37.5907C108.927 37.4067 109.771 37.4699 110.542 37.772C111.313 38.0742 111.976 38.6014 112.443 39.285C112.911 39.9687 113.162 40.7772 113.164 41.6055C113.19 42.1303 113.11 42.655 112.93 43.1486C112.75 43.6421 112.473 44.0946 112.115 44.4794C111.757 44.8641 111.326 45.1733 110.846 45.3887C110.367 45.6041 109.85 45.7213 109.324 45.7335Z" fill="black"/>
<path d="M16.7589 12.0637C16.2316 12.6871 15.9626 13.4884 16.0069 14.3037V49.6957C15.9524 50.5123 16.2227 51.3173 16.7589 51.9357L16.8709 52.0637L36.6949 32.2397V31.7597L16.8709 11.9517L16.7589 12.0637Z" fill="url(#paint0_linear)"/>
<path d="M43.2553 38.8479L36.6953 32.2399V31.7599L43.2553 25.1519L43.3993 25.2479L51.2553 29.6959C53.4953 30.9599 53.4953 33.0399 51.2553 34.3199L43.4313 38.7679L43.2553 38.8479Z" fill="url(#paint1_linear)"/>
<path d="M43.4458 38.752L36.6938 32L16.7578 51.936C17.2099 52.3384 17.7886 52.57 18.3936 52.5904C18.9985 52.6109 19.5915 52.419 20.0698 52.048L43.4458 38.752Z" fill="url(#paint2_linear)"/>
<path d="M43.4458 25.2479L20.0698 11.9679C19.5947 11.5917 19.0021 11.3951 18.3963 11.4127C17.7906 11.4303 17.2104 11.6608 16.7578 12.0639L36.6938 31.9999L43.4458 25.2479Z" fill="url(#paint3_linear)"/>
<defs>
<linearGradient id="paint0_linear" x1="34.9349" y1="13.9357" x2="8.08688" y2="40.7837" gradientUnits="userSpaceOnUse">
<stop stop-color="#00A0FF"/>
<stop offset="0.01" stop-color="#00A1FF"/>
<stop offset="0.26" stop-color="#00BEFF"/>
<stop offset="0.51" stop-color="#00D2FF"/>
<stop offset="0.76" stop-color="#00DFFF"/>
<stop offset="1" stop-color="#00E3FF"/>
</linearGradient>
<linearGradient id="paint1_linear" x1="54.1833" y1="31.9999" x2="15.4793" y2="31.9999" gradientUnits="userSpaceOnUse">
<stop stop-color="#FFE000"/>
<stop offset="0.41" stop-color="#FFBD00"/>
<stop offset="0.78" stop-color="#FFA500"/>
<stop offset="1" stop-color="#FF9C00"/>
</linearGradient>
<linearGradient id="paint2_linear" x1="39.7818" y1="35.68" x2="3.36581" y2="72.08" gradientUnits="userSpaceOnUse">
<stop stop-color="#FF3A44"/>
<stop offset="1" stop-color="#C31162"/>
</linearGradient>
<linearGradient id="paint3_linear" x1="11.7338" y1="0.287855" x2="27.9898" y2="16.5439" gradientUnits="userSpaceOnUse">
<stop stop-color="#32A071"/>
<stop offset="0.07" stop-color="#2DA771"/>
<stop offset="0.48" stop-color="#15CF74"/>
<stop offset="0.8" stop-color="#06E775"/>
<stop offset="1" stop-color="#00F076"/>
</linearGradient>
</defs>
</svg>
