<svg xmlns="http://www.w3.org/2000/svg" width="342" height="328" fill="none">
  <circle cx="164" cy="164" r="160" fill="#fff" stroke="#EBEBEB" stroke-width="8"/>
  <mask id="a" width="320" height="320" x="4" y="4" maskUnits="userSpaceOnUse">
    <circle cx="164" cy="164" r="160" fill="#fff"/>
  </mask>
  <g mask="url(#a)">
    <circle cx="164" cy="164" r="160" fill="#fff"/>
    <path fill="#EBF4FF" d="M8.47619 260C6.4254 259.333 2.25905 258 2 258v78.5h340V135h-7.771l-15.219-11-13.6 10-12.953-10-14.571-23-42.096 31.5-14.571-25-15.219 33-12.952 35.5-14.248-3-41.124 11-15.219-9.5-14.571 27.5-13.6003-7-70.5905 64.5-15.21901.5z"/>
    <path fill="#000" fill-opacity=".08" fill-rule="evenodd" d="M324 56H4v1h320v-1zM4 110h320v1H4v-1zm320 54H4v1h320v-1zM4 218h320v1H4v-1zm0 54h320v1H4v-1z" clip-rule="evenodd"/>
    <path fill="#7C7C85" d="M159.029 264.139c2.059.025 3.401-1.526 3.401-3.42 0-1.969-1.457-3.381-3.202-3.381-1.049 0-1.949.512-2.506 1.352h-.079c.005-2.5.969-3.937 2.545-3.937 1.074 0 1.721.676 1.949 1.611h1.213c-.248-1.601-1.451-2.705-3.162-2.705-2.292 0-3.698 2.029-3.698 5.648 0 3.763 1.869 4.812 3.539 4.832zm0-1.094c-1.277 0-2.212-1.088-2.207-2.306.005-1.218.984-2.307 2.247-2.307 1.248 0 2.168 1.024 2.168 2.287 0 1.292-.96 2.326-2.208 2.326zm8.965 1.094c1.939 0 3.361-1.432 3.361-3.38 0-1.974-1.372-3.421-3.241-3.421-.686 0-1.353.244-1.77.577h-.06l.358-3.003h4.256v-1.094h-5.29l-.617 5.012 1.154.139c.422-.304 1.143-.522 1.77-.517 1.297.01 2.247.994 2.247 2.326 0 1.308-.915 2.267-2.168 2.267-1.044 0-1.874-.671-1.968-1.59h-1.194c.075 1.551 1.412 2.684 3.162 2.684zM156.345 210h1.292l4.534-9.028v-1.154h-6.522v1.094h5.25v.079L156.345 210zm11.689.139c2.247 0 3.54-1.904 3.54-5.23 0-3.301-1.313-5.23-3.54-5.23-2.227 0-3.54 1.929-3.54 5.23 0 3.326 1.293 5.23 3.54 5.23zm0-1.094c-.527 0-.979-.188-1.337-.551l3.177-6.439c.328.701.507 1.661.507 2.854 0 2.65-.865 4.136-2.347 4.136zm-1.849-1.307c-.323-.691-.497-1.641-.497-2.829 0-2.645.874-4.156 2.346-4.156.517 0 .965.189 1.323.547l-3.172 6.438zM156.345 156h1.292l4.534-9.028v-1.154h-6.522v1.094h5.25v.079L156.345 156zm11.649.139c1.939 0 3.361-1.432 3.361-3.38 0-1.974-1.372-3.421-3.241-3.421-.686 0-1.353.244-1.77.577h-.06l.358-3.003h4.256v-1.094h-5.29l-.617 5.012 1.154.139c.422-.304 1.143-.522 1.77-.517 1.297.01 2.247.994 2.247 2.326 0 1.308-.915 2.267-2.168 2.267-1.044 0-1.874-.671-1.968-1.59h-1.194c.075 1.551 1.412 2.684 3.162 2.684zM158.97 102.139c2.033 0 3.45-1.188 3.46-2.8435-.01-1.2877-.87-2.3814-1.969-2.5853v-.0596c.955-.2486 1.581-1.1833 1.591-2.2671-.01-1.5511-1.312-2.7045-3.082-2.7045-1.79 0-3.093 1.1534-3.083 2.7045-.01 1.0838.617 2.0185 1.591 2.2671v.0596c-1.118.2039-1.979 1.2976-1.969 2.5853-.01 1.6555 1.407 2.8435 3.461 2.8435zm0-1.094c-1.397 0-2.257-.715-2.248-1.8092-.009-1.1484.94-1.9688 2.248-1.9688 1.287 0 2.237.8204 2.247 1.9688-.01 1.0942-.87 1.8092-2.247 1.8092zm0-4.8319c-1.114 0-1.9-.6961-1.89-1.75-.01-1.0341.746-1.7103 1.89-1.7103 1.123 0 1.879.6762 1.889 1.7103-.01 1.0539-.796 1.75-1.889 1.75zm9.064 5.9259c2.247 0 3.54-1.904 3.54-5.2299 0-3.3011-1.313-5.2301-3.54-5.2301-2.227 0-3.54 1.929-3.54 5.2301 0 3.3259 1.293 5.2299 3.54 5.2299zm0-1.094c-.527 0-.979-.188-1.337-.551l3.177-6.4386c.328.701.507 1.6605.507 2.8537 0 2.6498-.865 4.1359-2.347 4.1359zm-1.849-1.3071c-.323-.691-.497-1.6406-.497-2.8288 0-2.6449.874-4.1563 2.346-4.1563.517 0 .965.189 1.323.5469l-3.172 6.4382zM142.919 48.1392c2.033 0 3.45-1.1882 3.46-2.8437-.01-1.2877-.87-2.3814-1.969-2.5853v-.0596c.955-.2486 1.581-1.1833 1.591-2.2671-.01-1.5511-1.312-2.7045-3.082-2.7045-1.79 0-3.092 1.1534-3.083 2.7045-.009 1.0838.617 2.0185 1.591 2.2671v.0596c-1.118.2039-1.978 1.2976-1.968 2.5853-.01 1.6555 1.407 2.8437 3.46 2.8437zm0-1.0937c-1.397 0-2.257-.716-2.247-1.8097-.01-1.1484.939-1.9688 2.247-1.9688 1.287 0 2.237.8204 2.247 1.9688-.01 1.0937-.87 1.8097-2.247 1.8097zm0-4.8324c-1.114 0-1.899-.6961-1.889-1.75-.01-1.0341.745-1.7103 1.889-1.7103 1.123 0 1.879.6762 1.889 1.7103-.01 1.0539-.795 1.75-1.889 1.75zm9.025 5.9261c1.938 0 3.36-1.4318 3.36-3.3807 0-1.9737-1.372-3.4204-3.241-3.4204-.686 0-1.352.2436-1.77.5767h-.06l.358-3.0029h4.256v-1.0937h-5.29l-.616 5.0113 1.153.1393c.423-.3033 1.144-.5221 1.77-.5171 1.298.0099 2.247.9943 2.247 2.3267 0 1.3075-.915 2.2671-2.167 2.2671-1.044 0-1.875-.6712-1.969-1.591h-1.193c.074 1.5512 1.412 2.6847 3.162 2.6847zm9.581 2.7244h1.173v-4.0369h.1c.258.4176.755 1.3324 2.227 1.3324 1.909 0 3.242-1.5313 3.242-3.9574 0-2.4062-1.333-3.9375-3.262-3.9375-1.491 0-1.949.9148-2.207 1.3125h-.139v-1.2131h-1.134v10.5zm1.153-6.6818c0-1.7102.756-2.8636 2.188-2.8636 1.491 0 2.227 1.2528 2.227 2.8636 0 1.6307-.755 2.9233-2.227 2.9233-1.412 0-2.188-1.1932-2.188-2.9233zm7.821 6.7813c1.074 0 1.809-.5569 2.247-1.7301l3.281-8.8694h-1.273l-2.108 6.0853h-.079l-2.108-6.0853h-1.273l2.824 7.6762-.258.7159c-.413 1.1434-.955 1.2528-1.81 1.0341l-.298 1.0341c.119.0596.457.1392.855.1392zM183.243 37.5c-.372.3132-.929.3132-1.71.3082-.253 0-.532 0-.835.01-2.327.0596-3.48 1.8295-3.48 5.2301v.8153c0 2.8239 1.372 4.2955 3.42 4.2955 2.044 0 3.401-1.4815 3.401-3.8779 0-2.4062-1.377-3.6789-3.162-3.6789-1.049 0-2.028.4375-2.546 1.392h-.099c.159-1.9687.895-3.0227 2.486-3.0824 1.412-.0596 2.426-.0199 3.122-.696l-.597-.7159zm-2.605 9.6051c-1.392 0-2.247-1.1136-2.247-2.8239.025-1.6704.865-2.625 2.227-2.625 1.397 0 2.248.9546 2.248 2.625 0 1.7202-.846 2.8239-2.228 2.8239zm6.051.9744c.492 0 .895-.4027.895-.8948 0-.4922-.403-.8949-.895-.8949s-.895.4027-.895.8949c0 .4921.403.8948.895.8948z"/>
  </g>
  <path stroke="#388AE9" stroke-width="4" d="M2 258c.25905 0 4.4254 1.333 6.47619 2l15.21901-.5L94.2857 195l13.6003 7 14.571-27.5 15.219 9.5 41.124-11 14.248 3L206 140.5l15.219-33 14.571 25 42.096-31.5 14.571 23 12.953 10 13.6-10 15.219 11H342"/>
  <rect width="72" height="72" x="4" y="18" fill="#F04F48" rx="36"/>
  <path fill="#fff" d="M50.836 60.607c0-6.044-5.798-7.185-10.032-8.017-4.951-.974-7.121-1.692-7.121-4.492 0-2.413 2.563-4.099 6.234-4.099 3.658 0 6.416 1.889 6.416 4.393h4c0-4.045-3.207-7.24-7.785-8.134V36h-4v4.07c-5.21.483-8.865 3.707-8.865 8.028 0 6.382 5.981 7.558 10.349 8.417 5.105 1.004 6.804 1.735 6.804 4.092 0 2.381-3.168 4.393-6.918 4.393S33 62.988 33 60.607h-4c0 4.348 4.097 7.819 9.549 8.323V73h4v-4.246c4.809-.884 8.287-4.142 8.287-8.147z"/>
</svg>