<svg width="92" height="8" viewBox="0 0 92 8" fill="none" xmlns="http://www.w3.org/2000/svg">
<path d="M1 3.5C0.723858 3.5 0.5 3.72386 0.5 4C0.5 4.27614 0.723858 4.5 1 4.5V3.5ZM91.3536 4.35355C91.5488 4.15829 91.5488 3.84171 91.3536 3.64645L88.1716 0.464466C87.9763 0.269204 87.6597 0.269204 87.4645 0.464466C87.2692 0.659728 87.2692 0.976311 87.4645 1.17157L90.2929 4L87.4645 6.82843C87.2692 7.02369 87.2692 7.34027 87.4645 7.53553C87.6597 7.7308 87.9763 7.7308 88.1716 7.53553L91.3536 4.35355ZM2.53409 4.5C2.81023 4.5 3.03409 4.27614 3.03409 4C3.03409 3.72386 2.81023 3.5 2.53409 3.5V4.5ZM7.64773 3.5C7.37159 3.5 7.14773 3.72386 7.14773 4C7.14773 4.27614 7.37159 4.5 7.64773 4.5V3.5ZM10.7159 4.5C10.9921 4.5 11.2159 4.27614 11.2159 4C11.2159 3.72386 10.9921 3.5 10.7159 3.5V4.5ZM15.8295 3.5C15.5534 3.5 15.3295 3.72386 15.3295 4C15.3295 4.27614 15.5534 4.5 15.8295 4.5V3.5ZM18.8977 4.5C19.1739 4.5 19.3977 4.27614 19.3977 4C19.3977 3.72386 19.1739 3.5 18.8977 3.5V4.5ZM24.0114 3.5C23.7352 3.5 23.5114 3.72386 23.5114 4C23.5114 4.27614 23.7352 4.5 24.0114 4.5V3.5ZM27.0795 4.5C27.3557 4.5 27.5795 4.27614 27.5795 4C27.5795 3.72386 27.3557 3.5 27.0795 3.5V4.5ZM32.1932 3.5C31.917 3.5 31.6932 3.72386 31.6932 4C31.6932 4.27614 31.917 4.5 32.1932 4.5V3.5ZM35.2614 4.5C35.5375 4.5 35.7614 4.27614 35.7614 4C35.7614 3.72386 35.5375 3.5 35.2614 3.5V4.5ZM40.375 3.5C40.0989 3.5 39.875 3.72386 39.875 4C39.875 4.27614 40.0989 4.5 40.375 4.5V3.5ZM43.4432 4.5C43.7193 4.5 43.9432 4.27614 43.9432 4C43.9432 3.72386 43.7193 3.5 43.4432 3.5V4.5ZM48.5568 3.5C48.2807 3.5 48.0568 3.72386 48.0568 4C48.0568 4.27614 48.2807 4.5 48.5568 4.5V3.5ZM51.625 4.5C51.9011 4.5 52.125 4.27614 52.125 4C52.125 3.72386 51.9011 3.5 51.625 3.5V4.5ZM56.7386 3.5C56.4625 3.5 56.2386 3.72386 56.2386 4C56.2386 4.27614 56.4625 4.5 56.7386 4.5V3.5ZM59.8068 4.5C60.083 4.5 60.3068 4.27614 60.3068 4C60.3068 3.72386 60.083 3.5 59.8068 3.5V4.5ZM64.9204 3.5C64.6443 3.5 64.4204 3.72386 64.4204 4C64.4204 4.27614 64.6443 4.5 64.9204 4.5V3.5ZM67.9886 4.5C68.2648 4.5 68.4886 4.27614 68.4886 4C68.4886 3.72386 68.2648 3.5 67.9886 3.5V4.5ZM73.1023 3.5C72.8261 3.5 72.6023 3.72386 72.6023 4C72.6023 4.27614 72.8261 4.5 73.1023 4.5V3.5ZM76.1705 4.5C76.4466 4.5 76.6705 4.27614 76.6705 4C76.6705 3.72386 76.4466 3.5 76.1705 3.5V4.5ZM81.2841 3.5C81.008 3.5 80.7841 3.72386 80.7841 4C80.7841 4.27614 81.008 4.5 81.2841 4.5V3.5ZM84.3523 4.5C84.6284 4.5 84.8523 4.27614 84.8523 4C84.8523 3.72386 84.6284 3.5 84.3523 3.5V4.5ZM89.4659 3.5C89.1898 3.5 88.9659 3.72386 88.9659 4C88.9659 4.27614 89.1898 4.5 89.4659 4.5V3.5ZM1 4.5H2.53409V3.5H1V4.5ZM7.64773 4.5H10.7159V3.5H7.64773V4.5ZM15.8295 4.5H18.8977V3.5H15.8295V4.5ZM24.0114 4.5H27.0795V3.5H24.0114V4.5ZM32.1932 4.5H35.2614V3.5H32.1932V4.5ZM40.375 4.5H43.4432V3.5H40.375V4.5ZM48.5568 4.5H51.625V3.5H48.5568V4.5ZM56.7386 4.5H59.8068V3.5H56.7386V4.5ZM64.9204 4.5H67.9886V3.5H64.9204V4.5ZM73.1023 4.5H76.1705V3.5H73.1023V4.5ZM81.2841 4.5H84.3523V3.5H81.2841V4.5ZM89.4659 4.5H91V3.5H89.4659V4.5Z" fill="#565661"/>
</svg>
