<svg width="222" height="100" viewBox="0 0 222 100" fill="none" xmlns="http://www.w3.org/2000/svg">
<rect width="222" height="100" fill="#EC231A"/>
<path d="M133.263 69.6715C132.54 69.6715 131.865 69.5419 131.239 69.2828C130.624 69.0238 130.084 68.646 129.62 68.1494C129.167 67.6529 128.805 67.043 128.535 66.3197C128.276 65.5857 128.146 64.7491 128.146 63.81C128.146 62.8709 128.287 62.0397 128.567 61.3164C128.859 60.5824 129.242 59.9671 129.717 59.4706C130.192 58.974 130.743 58.6016 131.369 58.3533C131.995 58.0943 132.648 57.9647 133.328 57.9647C133.749 57.9647 134.132 57.9917 134.477 58.0457C134.823 58.0997 135.125 58.1698 135.384 58.2562C135.643 58.3318 135.865 58.4127 136.048 58.4991C136.232 58.5746 136.372 58.6448 136.469 58.7096L136.113 59.6649C135.843 59.503 135.498 59.3464 135.077 59.1953C134.666 59.0334 134.154 58.9524 133.538 58.9524C132.837 58.9524 132.221 59.0712 131.692 59.3087C131.174 59.5461 130.737 59.8808 130.381 60.3126C130.025 60.7443 129.755 61.2571 129.571 61.8508C129.399 62.4445 129.312 63.103 129.312 63.8262C129.312 64.571 129.399 65.2457 129.571 65.8502C129.755 66.4439 130.019 66.9512 130.365 67.3722C130.71 67.7932 131.131 68.117 131.628 68.3437C132.135 68.5704 132.713 68.6837 133.36 68.6837C134.073 68.6837 134.666 68.619 135.141 68.4894C135.627 68.3491 135.994 68.2088 136.242 68.0685L136.55 69.0076C136.474 69.0616 136.345 69.1263 136.161 69.2019C135.978 69.2667 135.746 69.3368 135.465 69.4124C135.185 69.4879 134.861 69.5473 134.494 69.5905C134.127 69.6445 133.716 69.6715 133.263 69.6715ZM146.862 69.4286C146.657 68.8781 146.462 68.3491 146.279 67.8418C146.095 67.3344 145.917 66.8379 145.744 66.3521H140.288C140.104 66.8379 139.921 67.3344 139.737 67.8418C139.554 68.3491 139.365 68.8781 139.17 69.4286H138.021C138.453 68.2628 138.857 67.1779 139.235 66.174C139.613 65.1593 139.98 64.204 140.336 63.308C140.703 62.4013 141.065 61.5323 141.421 60.7012C141.777 59.87 142.155 59.0388 142.555 58.2076H143.526C143.925 59.0388 144.303 59.87 144.66 60.7012C145.016 61.5323 145.372 62.4013 145.728 63.308C146.095 64.204 146.468 65.1593 146.845 66.174C147.223 67.1779 147.633 68.2628 148.076 69.4286H146.862ZM143.008 59.4706C142.598 60.3989 142.198 61.3434 141.81 62.3042C141.432 63.2649 141.038 64.3012 140.628 65.413H145.404C144.994 64.3012 144.595 63.2649 144.206 62.3042C143.818 61.3434 143.418 60.3989 143.008 59.4706ZM153.008 58.1105C154.595 58.1105 155.777 58.4127 156.554 59.0172C157.332 59.6217 157.72 60.4799 157.72 61.5917C157.72 62.2286 157.607 62.7737 157.38 63.2271C157.154 63.6697 156.83 64.0313 156.409 64.3119C155.988 64.5818 155.47 64.7815 154.854 64.911C154.25 65.0298 153.564 65.0892 152.798 65.0892H151.276V69.4286H150.175V58.4181C150.563 58.3102 151.017 58.2346 151.535 58.1914C152.064 58.1374 152.555 58.1105 153.008 58.1105ZM153.057 59.0658C152.647 59.0658 152.296 59.082 152.005 59.1144C151.724 59.1359 151.481 59.1575 151.276 59.1791V64.1338H152.668C153.262 64.1338 153.796 64.1015 154.271 64.0367C154.757 63.9611 155.167 63.8316 155.502 63.6481C155.847 63.4538 156.112 63.1893 156.295 62.8547C156.479 62.52 156.571 62.0937 156.571 61.5755C156.571 61.079 156.468 60.6688 156.263 60.3449C156.069 60.0211 155.804 59.7674 155.47 59.5839C155.146 59.3896 154.773 59.2547 154.352 59.1791C153.931 59.1036 153.5 59.0658 153.057 59.0658ZM160.243 58.2076H161.344V69.4286H160.243V58.2076ZM171.869 58.2076V59.1629H168.275V69.4286H167.174V59.1629H163.579V58.2076H171.869ZM180.809 69.4286C180.604 68.8781 180.409 68.3491 180.226 67.8418C180.042 67.3344 179.864 66.8379 179.692 66.3521H174.235C174.051 66.8379 173.868 67.3344 173.684 67.8418C173.501 68.3491 173.312 68.8781 173.118 69.4286H171.968C172.4 68.2628 172.805 67.1779 173.182 66.174C173.56 65.1593 173.927 64.204 174.284 63.308C174.651 62.4013 175.012 61.5323 175.368 60.7012C175.725 59.87 176.102 59.0388 176.502 58.2076H177.473C177.873 59.0388 178.251 59.87 178.607 60.7012C178.963 61.5323 179.319 62.4013 179.675 63.308C180.042 64.204 180.415 65.1593 180.793 66.174C181.17 67.1779 181.581 68.2628 182.023 69.4286H180.809ZM176.955 59.4706C176.545 60.3989 176.146 61.3434 175.757 62.3042C175.379 63.2649 174.985 64.3012 174.575 65.413H179.352C178.941 64.3012 178.542 63.2649 178.153 62.3042C177.765 61.3434 177.365 60.3989 176.955 59.4706ZM190.502 68.4733V69.4286H184.122V58.2076H185.223V68.4733H190.502Z" fill="white"/>
<path d="M128.438 39.0011H130.963V50.2221H128.438V39.0011Z" fill="white"/>
<path d="M142.369 39.0011V41.1547H138.985V50.2221H136.459V41.1547H133.075V39.0011H142.369Z" fill="white"/>
<path d="M144.478 39.0011H147.004V50.2221H144.478V39.0011Z" fill="white"/>
<path fill-rule="evenodd" clip-rule="evenodd" d="M39.9996 51.1429H45.7139V34.7143H39.9996V51.1429ZM99.999 64.7143H105.713V48.2857H99.999V64.7143ZM49.9992 60.4286H55.7135V39H49.9992V60.4286ZM89.9995 60.4286H95.7137V39H89.9995V60.4286ZM30 60.4286H35.7143V49H30V60.4286ZM110.001 50.4286H115.715V39H110.001V50.4286Z" fill="white" fill-opacity="0.6"/>
<path fill-rule="evenodd" clip-rule="evenodd" d="M65.7143 39.7143H60V29H65.7143V39.7143ZM65.7143 69.7143H60V44H65.7143V69.7143ZM70 69.7143H75.7143V29H70V69.7143ZM80 39.7143H85.7143V29H80V39.7143ZM80 69.7143H85.7143V44H80V69.7143Z" fill="white"/>
</svg>
