<svg width="104" height="104" viewBox="0 0 104 104" fill="none" xmlns="http://www.w3.org/2000/svg">
<g filter="url(#filter0_ii)">
<path fill-rule="evenodd" clip-rule="evenodd" d="M0 52C0 80.6709 23.3291 104 52 104C80.6709 104 104 80.6709 104 52C104 23.3291 80.6709 0 52 0C23.3291 0 0 23.3291 0 52Z" fill="url(#paint0_radial)"/>
</g>
<path d="M39.2628 72H64.956V67.625H46.0241V67.3068L55.1719 57.5227C62.1719 50.0256 64.2401 46.5256 64.2401 42.0114C64.2401 35.7273 59.1491 30.7159 51.9901 30.7159C44.8509 30.7159 39.4219 35.5682 39.4219 42.7273H44.1151C44.1151 38.0938 47.1179 35.0114 51.831 35.0114C56.2457 35.0114 59.6264 37.7159 59.6264 42.0114C59.6264 45.7699 57.419 48.554 52.706 53.7045L39.2628 68.4205V72Z" fill="#575762"/>
<defs>
<filter id="filter0_ii" x="0" y="0" width="140.602" height="160.133" filterUnits="userSpaceOnUse" color-interpolation-filters="sRGB">
<feFlood flood-opacity="0" result="BackgroundImageFix"/>
<feBlend mode="normal" in="SourceGraphic" in2="BackgroundImageFix" result="shape"/>
<feColorMatrix in="SourceAlpha" type="matrix" values="0 0 0 0 0 0 0 0 0 0 0 0 0 0 0 0 0 0 127 0" result="hardAlpha"/>
<feOffset dx="36.6016" dy="56.1328"/>
<feGaussianBlur stdDeviation="45.6055"/>
<feComposite in2="hardAlpha" operator="arithmetic" k2="-1" k3="1"/>
<feColorMatrix type="matrix" values="0 0 0 0 1 0 0 0 0 1 0 0 0 0 1 0 0 0 0.7 0"/>
<feBlend mode="normal" in2="shape" result="effect1_innerShadow"/>
<feColorMatrix in="SourceAlpha" type="matrix" values="0 0 0 0 0 0 0 0 0 0 0 0 0 0 0 0 0 0 127 0" result="hardAlpha"/>
<feOffset dx="7.8125" dy="14.2969"/>
<feGaussianBlur stdDeviation="9.76562"/>
<feComposite in2="hardAlpha" operator="arithmetic" k2="-1" k3="1"/>
<feColorMatrix type="matrix" values="0 0 0 0 1 0 0 0 0 1 0 0 0 0 1 0 0 0 1 0"/>
<feBlend mode="normal" in2="effect1_innerShadow" result="effect2_innerShadow"/>
</filter>
<radialGradient id="paint0_radial" cx="0" cy="0" r="1" gradientUnits="userSpaceOnUse" gradientTransform="translate(43.1429 23.2739) rotate(80.765) scale(81.8951 68.4682)">
<stop stop-color="white"/>
<stop offset="0.171875" stop-color="white"/>
<stop offset="0.479167" stop-color="#E7F5FF"/>
<stop offset="0.817612" stop-color="#80B3EF"/>
<stop offset="0.99097" stop-color="#9DD0FF"/>
</radialGradient>
</defs>
</svg>
