<svg width="166" height="53" viewBox="0 0 166 53" fill="none" xmlns="http://www.w3.org/2000/svg">
<path fill-rule="evenodd" clip-rule="evenodd" d="M12.6344 0H153.366C153.851 0 154.332 0 154.816 0.00264278C155.138 0.00473691 155.457 0.00999214 155.78 0.0152988L156.034 0.0194245C156.924 0.0298658 157.811 0.107926 158.689 0.252928C159.566 0.401085 160.415 0.680405 161.208 1.08144C162 1.48587 162.724 2.01138 163.353 2.63891C163.985 3.26468 164.513 3.98798 164.914 4.781C165.317 5.57245 165.596 6.42056 165.742 7.29604C165.89 8.17041 165.969 9.05486 165.98 9.94146C165.988 10.215 165.992 10.4895 165.995 10.7635L165.995 10.7671V10.7683L165.997 10.9463L165.998 10.9931L165.999 11.1167L166 11.1583V41.8456L165.997 42.0347L165.995 42.2325V42.2333C165.992 42.5095 165.988 42.7836 165.98 43.0638C165.969 43.9504 165.89 44.8348 165.742 45.7091C165.597 46.5851 165.317 47.4337 164.914 48.2254C164.513 49.0159 163.986 49.7363 163.353 50.3585C162.726 50.9889 162.002 51.5147 161.208 51.9161C160.415 52.3182 159.566 52.5992 158.689 52.7496C157.811 52.8934 156.924 52.9715 156.034 52.9832C155.624 52.9922 155.222 52.9974 154.816 52.9974C154.332 53 153.851 53 153.366 53H12.6344C12.1485 53 11.6684 53 11.1838 52.9974C10.7781 52.9974 10.3757 52.9922 9.9661 52.9832C9.07637 52.9715 8.18876 52.8934 7.31072 52.7496C6.43397 52.5992 5.58487 52.3182 4.79186 51.9161C3.9979 51.5147 3.27373 50.9889 2.64699 50.3585C2.01445 49.7363 1.4872 49.0159 1.08572 48.2254C0.682571 47.4337 0.403276 46.5851 0.257534 45.7091C0.110001 44.8348 0.030611 43.9504 0.0200753 43.0638C0.0116741 42.7834 0.00840639 42.509 0.00511284 42.2325C0.0035856 42.1043 0.0020528 41.9756 0 41.8456V11.1583C0.00207708 11.0284 0.00362179 10.8984 0.00516703 10.7683L0.00516715 10.7683C0.00844247 10.4926 0.0117202 10.2167 0.0200753 9.94146C0.0306077 9.05486 0.109998 8.17041 0.257534 7.29604C0.40368 6.42056 0.682958 5.57245 1.08572 4.781C1.48738 3.98798 2.01456 3.26468 2.64699 2.63891C3.27611 2.01138 3.99982 1.48587 4.79186 1.08144C5.58487 0.680405 6.43407 0.401085 7.31072 0.252928C8.18861 0.107926 9.07631 0.0298658 9.9661 0.0194245L10.2204 0.0152988C10.5429 0.00999214 10.8623 0.00473691 11.1838 0.00264278C11.6684 0 12.1485 0 12.6344 0ZM153.366 51.7612C153.852 51.7612 154.329 51.7612 154.809 51.7586H154.816C155.211 51.7586 155.605 51.7535 156.007 51.7447L156.018 51.7445C156.844 51.7337 157.669 51.6612 158.484 51.5278C159.238 51.3981 159.967 51.1565 160.648 50.8112L160.649 50.8105C161.325 50.4689 161.941 50.0213 162.475 49.4851L162.479 49.4802L162.484 49.4754C163.021 48.947 163.469 48.3354 163.81 47.6644L163.81 47.6633C164.156 46.9844 164.396 46.2568 164.52 45.5058L164.521 45.503C164.658 44.6919 164.731 43.8715 164.741 43.0491L164.741 43.0379L164.742 43.0267C164.75 42.7578 164.753 42.5013 164.756 42.2315C164.757 42.1038 164.759 41.9729 164.761 41.8359V11.1681C164.759 11.0327 164.757 10.9023 164.756 10.7747L164.756 10.7685C164.753 10.4995 164.75 10.243 164.742 9.97904L164.741 9.96761L164.741 9.95618C164.731 9.13373 164.658 8.31327 164.521 7.50215L164.521 7.50001C164.395 6.7492 164.156 6.02178 163.81 5.34286L163.809 5.34074C163.468 4.66665 163.02 4.05167 162.482 3.51951L162.478 3.51599C161.941 2.98028 161.323 2.53146 160.647 2.18585C159.966 1.84192 159.238 1.60219 158.485 1.47479C157.67 1.34027 156.846 1.26784 156.019 1.25816L156.014 1.25808L155.756 1.25389C155.435 1.2486 155.123 1.24348 154.809 1.24143C154.328 1.23881 153.852 1.23881 153.366 1.23881H12.6344C12.1482 1.23881 11.6717 1.23881 11.1912 1.24143C10.8767 1.24348 10.5654 1.2486 10.2439 1.25389H10.2439L9.98564 1.25808L9.98063 1.25816C9.1544 1.26784 8.33011 1.34027 7.51492 1.47479C6.76248 1.60219 6.03367 1.84192 5.35305 2.18585C4.67675 2.53146 4.05891 2.98028 3.52184 3.51599L3.51831 3.51951C2.98048 4.05167 2.53228 4.66665 2.19086 5.34074L2.18979 5.34286C1.84429 6.02178 1.60477 6.7492 1.47943 7.50001L1.47907 7.50215C1.34221 8.31327 1.26856 9.13373 1.25879 9.95618L1.25866 9.96761L1.25831 9.97904C1.2503 10.243 1.24726 10.4995 1.24408 10.7685C1.24255 10.898 1.24098 11.0305 1.23881 11.1681V41.8359C1.24095 41.9729 1.2425 42.1038 1.24402 42.2315L1.24402 42.2315C1.24722 42.5017 1.25026 42.7575 1.25833 43.0267L1.25866 43.0379L1.25879 43.0491C1.26857 43.8715 1.34221 44.6919 1.47907 45.503L1.47955 45.5058C1.60449 46.2568 1.84394 46.9844 2.18965 47.6633L2.19023 47.6644C2.53101 48.3354 2.97862 48.947 3.51577 49.4754L3.52063 49.4802L3.52545 49.4851C4.05867 50.0213 4.67492 50.4689 5.35072 50.8105L5.35211 50.8112C6.0332 51.1565 6.76247 51.3981 7.51557 51.5278C8.33127 51.6612 9.15583 51.7337 9.98237 51.7445L9.99327 51.7447C10.3954 51.7535 10.7887 51.7586 11.1838 51.7586H11.1906C11.6712 51.7612 12.148 51.7612 12.6344 51.7612H153.366ZM57.0327 14.8701H55.9784V15.9406H57.0663C58.1644 15.9406 58.7929 16.4219 58.7929 17.2033C58.7929 17.9737 58.1257 18.5201 57.1037 18.5201C56.0817 18.5201 55.3887 18.0336 55.3178 17.2794H54.1422C54.1776 17.6294 54.2831 17.9687 54.4524 18.2771C54.6218 18.5855 54.8515 18.8566 55.1278 19.0744C55.4042 19.2921 55.7216 19.4519 56.061 19.5444C56.4005 19.6368 56.7551 19.66 57.1037 19.6124C57.4516 19.6557 57.8046 19.629 58.142 19.534C58.4794 19.4391 58.7945 19.2777 59.0688 19.0594C59.3431 18.8411 59.571 18.5702 59.7392 18.2627C59.9074 17.9551 60.0126 17.6171 60.0484 17.2684C60.0675 16.7833 59.8937 16.3105 59.565 15.9532C59.2364 15.5959 58.7797 15.3833 58.2948 15.3618V15.2689C58.7038 15.1776 59.0692 14.9487 59.3299 14.6205C59.5906 14.2923 59.7308 13.8846 59.7271 13.4655C59.7271 12.2144 58.6341 11.3454 57.0817 11.3454C56.7453 11.3016 56.4035 11.3276 56.0775 11.4217C55.7516 11.5159 55.4485 11.6761 55.1871 11.8924C54.9258 12.1087 54.7118 12.3765 54.5584 12.6791C54.405 12.9817 54.3156 13.3127 54.2957 13.6513H55.4532C55.4742 13.4648 55.5323 13.2843 55.6242 13.1206C55.7161 12.9568 55.8398 12.8132 55.9881 12.6981C56.1364 12.5829 56.3063 12.4987 56.4877 12.4503C56.6691 12.402 56.8584 12.3904 57.0443 12.4164C57.9721 12.4164 58.5193 12.8861 58.5193 13.6133C58.5114 13.796 58.4657 13.9751 58.3852 14.1393C58.3046 14.3035 58.191 14.4492 58.0513 14.5673C57.9116 14.6854 57.749 14.7733 57.5737 14.8254C57.3984 14.8775 57.2142 14.8927 57.0327 14.8701ZM63.5971 15.9625C62.1828 16.0502 61.384 16.6677 61.384 17.7387C61.385 17.9899 61.4386 18.238 61.5414 18.4672C61.6441 18.6963 61.7938 18.9014 61.9806 19.0692C62.1675 19.2369 62.3874 19.3637 62.6263 19.4413C62.8652 19.5188 63.1176 19.5455 63.3674 19.5195C63.7213 19.5359 64.0733 19.458 64.3873 19.2939C64.7012 19.1297 64.966 18.8852 65.1546 18.5853H65.2475V19.4215H66.3793V15.356C66.3793 14.0991 65.5379 13.3565 64.0462 13.3565C62.6964 13.3565 61.7337 14.012 61.6137 15.034H62.7506C62.8822 14.6134 63.3351 14.3727 63.9907 14.3727C64.7946 14.3727 65.2088 14.7276 65.2088 15.356V15.8696L63.5971 15.9625ZM65.2088 16.7329V17.2303C65.1961 17.418 65.1458 17.6012 65.0608 17.7691C64.9758 17.9369 64.858 18.086 64.7142 18.2073C64.5704 18.3287 64.4037 18.4199 64.224 18.4755C64.0443 18.5311 63.8552 18.55 63.6681 18.5311C63.0292 18.5311 62.5647 18.2194 62.5647 17.6839C62.5647 17.1593 62.9363 16.8806 63.7558 16.8258L65.2088 16.7329ZM69.4956 14.4598V19.4214H68.3213V13.4713H72.2391V14.4597L69.4956 14.4598ZM76.8975 19.5195C78.3995 19.5195 79.3557 18.3343 79.3557 16.4438C79.3557 14.5527 78.3995 13.3726 76.8858 13.3726C76.5049 13.3633 76.1288 13.4594 75.7991 13.6503C75.4693 13.8412 75.1988 14.1196 75.0173 14.4547H74.9296V13.4713H73.7992V21.3997H74.9734V18.5201H75.0664C75.2447 18.8438 75.5117 19.1099 75.8361 19.287C76.1605 19.464 76.5287 19.5447 76.8975 19.5195ZM76.5581 14.4275C77.553 14.4275 78.1479 15.1869 78.1479 16.4438C78.1479 17.7058 77.553 18.4652 76.5529 18.4653C75.5696 18.4653 74.9515 17.6891 74.9515 16.449C74.9515 15.2031 75.5697 14.4275 76.5581 14.4275ZM80.9197 21.5526V20.5415C81.0468 20.5577 81.1749 20.565 81.3029 20.5635C81.5531 20.582 81.8014 20.5075 82 20.3542C82.1986 20.201 82.3336 19.9798 82.3792 19.7331L82.4669 19.4434L80.3132 13.4713H81.592L83.0838 18.1975H83.1767L84.6633 13.4713H85.9085L83.6903 19.6673C83.1819 21.1151 82.6193 21.5797 81.4063 21.5797C81.3082 21.5797 81.0294 21.5687 80.9197 21.5526ZM87.9925 17.7329H86.8234C86.9318 18.935 87.9873 19.5305 89.2868 19.5305C90.7566 19.5305 91.7192 18.7821 91.7192 17.651C91.7229 17.324 91.6064 17.0071 91.3919 16.7603C91.1773 16.5135 90.8796 16.3541 90.5553 16.3122V16.2193C90.8277 16.1546 91.0696 15.9982 91.2406 15.7765C91.4116 15.5548 91.5013 15.2811 91.4947 15.0011C91.4947 13.9959 90.6856 13.3565 89.2713 13.3565C88.7301 13.2819 88.1812 13.4227 87.7428 13.7486C87.3043 14.0745 87.0112 14.5595 86.9266 15.0992H88.0583C88.1345 14.6295 88.6145 14.3508 89.2713 14.3508C89.9927 14.3508 90.3424 14.6843 90.3424 15.1211C90.3424 15.6186 89.981 15.8915 89.2713 15.8915H88.3964V16.8038H89.2868C90.1178 16.8038 90.5488 17.0774 90.5488 17.651C90.5488 18.1865 90.0688 18.531 89.2868 18.531C88.599 18.531 88.1073 18.2575 87.9925 17.7329ZM93.4103 19.4214V13.4713H94.5743V17.5639H94.6672L97.4093 13.4713H98.5733V19.4215H97.4093V15.307H97.3216L94.5743 19.4215L93.4103 19.4214ZM103.112 14.4598H104.985V13.4714H100.062V14.4598H101.936V19.4214H103.112V14.4598ZM111.311 17.8149C111.151 18.3586 110.805 18.8289 110.333 19.1436C109.862 19.4582 109.295 19.5972 108.731 19.5363C108.339 19.5466 107.95 19.4715 107.59 19.3162C107.23 19.1609 106.908 18.9291 106.646 18.6369C106.385 18.3447 106.19 17.9991 106.075 17.6241C105.961 17.249 105.929 16.8535 105.983 16.4651C105.931 16.0754 105.963 15.6791 106.077 15.3029C106.191 14.9268 106.385 14.5795 106.645 14.2848C106.905 13.99 107.226 13.7546 107.585 13.5944C107.944 13.4342 108.333 13.3531 108.726 13.3564C110.382 13.3564 111.382 14.4876 111.382 16.356V16.7658H107.18V16.8316C107.162 17.05 107.189 17.2698 107.26 17.4771C107.332 17.6843 107.446 17.8743 107.595 18.0348C107.744 18.1954 107.926 18.3229 108.127 18.4092C108.328 18.4956 108.546 18.5388 108.765 18.5362C109.046 18.5697 109.33 18.5191 109.582 18.3906C109.834 18.2622 110.042 18.0618 110.179 17.8148L111.311 17.8149ZM107.18 15.8973H110.184C110.199 15.6977 110.172 15.4972 110.105 15.3087C110.038 15.1202 109.932 14.9478 109.794 14.8026C109.656 14.6575 109.49 14.5428 109.305 14.4658C109.12 14.3889 108.921 14.3514 108.721 14.3559C108.518 14.3531 108.316 14.3911 108.128 14.4676C107.94 14.5441 107.769 14.6575 107.625 14.8012C107.482 14.9449 107.368 15.116 107.292 15.3042C107.215 15.4925 107.177 15.6941 107.18 15.8973ZM118.972 13.4713H116.29V19.4214H118.999C120.305 19.4214 121.086 18.7439 121.086 17.7058C121.09 17.3576 120.96 17.0212 120.724 16.7659C120.487 16.5106 120.161 16.356 119.814 16.3341V16.2412C120.1 16.1786 120.356 16.0196 120.539 15.7908C120.722 15.562 120.821 15.2773 120.819 14.9843C120.819 14.061 120.136 13.4713 118.972 13.4713ZM117.453 15.9134V14.3727L118.748 14.3727C119.371 14.3727 119.667 14.6733 119.667 15.1372C119.667 15.6405 119.327 15.9134 118.617 15.9134H117.453ZM117.453 18.5201V16.7767L118.699 16.7767C119.491 16.7767 119.912 17.0555 119.912 17.651C119.912 18.2136 119.54 18.5201 118.846 18.5201H117.453ZM106.113 38.4209C103.953 38.4209 102.372 37.3525 102.19 35.7253L99.6766 35.7251C99.8354 38.6931 102.292 40.5707 105.931 40.5707C109.821 40.5707 112.266 38.648 112.266 35.578C112.266 33.1779 110.867 31.8255 107.5 31.0293L105.693 30.5854C103.578 30.0628 102.713 29.3802 102.713 28.2201C102.713 26.7645 104.067 25.7644 106.045 25.7644C108.023 25.7644 109.377 26.7529 109.525 28.3904H112.004C111.924 25.5593 109.547 23.6146 106.08 23.6146C102.576 23.6146 100.109 25.5593 100.109 28.3904C100.109 30.6771 101.508 32.0862 104.521 32.814L106.648 33.3263C108.774 33.8489 109.672 34.6116 109.672 35.8852C109.672 37.3524 108.183 38.4209 106.113 38.4209ZM57.076 35.8621H63.3306L64.8314 40.2972H67.5258L61.6015 23.8882H58.849L52.9247 40.2972H55.5739L57.076 35.8621ZM62.6816 33.8154H57.7237L60.1691 26.6175H60.2375L62.6816 33.8154ZM75.3277 40.4224C78.3305 40.4224 80.3203 38.0338 80.3203 34.3161C80.3203 30.6087 78.3189 28.2086 75.2825 28.2086C74.5157 28.1838 73.7565 28.3674 73.0857 28.7399C72.415 29.1123 71.8577 29.6596 71.4732 30.3236H71.4281V28.3337H69.0511V44.2549H71.5067V38.3293H71.5636C71.9311 38.9965 72.4791 39.5466 73.1448 39.9168C73.8105 40.287 74.567 40.4622 75.3277 40.4224ZM74.6348 30.3016C76.5446 30.3016 77.7963 31.894 77.7963 34.3161C77.7963 36.7602 76.5446 38.341 74.6348 38.341C72.7585 38.341 71.4964 36.7266 71.4964 34.3161C71.4964 31.9276 72.7585 30.3016 74.6348 30.3016ZM93.4878 34.3161C93.4878 38.0338 91.498 40.4224 88.4952 40.4224C87.7345 40.4622 86.978 40.287 86.3123 39.9168C85.6466 39.5466 85.0986 38.9965 84.731 38.3293H84.6742V44.2549H82.2185V28.3337H84.5955V30.3235H84.6406C85.0251 29.6596 85.5824 29.1123 86.2531 28.7399C86.9239 28.3674 87.6831 28.1838 88.45 28.2086C91.4864 28.2086 93.4878 30.6087 93.4878 34.3161ZM90.9637 34.3161C90.9637 31.894 89.712 30.3016 87.8022 30.3016C85.9259 30.3016 84.6639 31.9276 84.6639 34.3161C84.6639 36.7266 85.9259 38.3409 87.8022 38.3409C89.712 38.3409 90.9637 36.7602 90.9637 34.3161ZM117.566 25.5026V28.3337H119.841V30.2784H117.566V36.8737C117.566 37.8983 118.021 38.3758 119.021 38.3758C119.291 38.3711 119.561 38.3521 119.829 38.319V40.252C119.379 40.336 118.922 40.3741 118.465 40.3656C116.043 40.3656 115.098 39.4558 115.098 37.1357V30.2784H113.359V28.3337H115.098V25.5026H117.566ZM126.832 28.1866C123.375 28.1866 121.158 30.552 121.158 34.3161C121.158 38.0906 123.353 40.4456 126.832 40.4456C130.312 40.4456 132.508 38.0906 132.508 34.3161C132.508 30.5519 130.301 28.1866 126.832 28.1866ZM126.832 30.21C128.822 30.21 130.005 31.734 130.005 34.3161C130.005 36.9086 128.822 38.421 126.832 38.421C124.842 38.421 123.66 36.9086 123.66 34.3161C123.66 31.7456 124.842 30.21 126.832 30.21ZM134.532 28.3337H136.874V30.37H136.931C137.09 29.734 137.462 29.172 137.986 28.7784C138.51 28.3848 139.154 28.1835 139.809 28.2086C140.092 28.2076 140.374 28.2383 140.65 28.3002V30.5971C140.293 30.488 139.92 30.4378 139.547 30.4487C139.19 30.4343 138.834 30.4972 138.504 30.6331C138.174 30.7691 137.877 30.9749 137.634 31.2363C137.391 31.4978 137.207 31.8088 137.096 32.148C136.984 32.4872 136.947 32.8464 136.988 33.2012V40.2972H134.532V28.3337ZM146.821 40.4456C149.527 40.4456 151.642 38.9552 151.972 36.7834L149.64 36.7834C149.423 37.324 149.036 37.7797 148.538 38.0829C148.04 38.3861 147.458 38.5205 146.878 38.4661C146.436 38.4824 145.996 38.4045 145.587 38.2376C145.177 38.0707 144.808 37.8186 144.504 37.4981C144.199 37.1776 143.967 36.796 143.821 36.3787C143.675 35.9613 143.62 35.5178 143.659 35.0775V34.9291H152.109V34.0877C152.109 30.4603 150.028 28.1866 146.718 28.1866C143.352 28.1866 141.18 30.6204 141.18 34.3729C141.18 38.1138 143.341 40.4456 146.821 40.4456ZM149.652 33.2128H143.671C143.67 32.8129 143.748 32.4168 143.901 32.0473C144.054 31.6777 144.278 31.3421 144.562 31.0598C144.845 30.7775 145.181 30.5541 145.551 30.4025C145.921 30.2509 146.318 30.1741 146.718 30.1765C147.114 30.1679 147.508 30.2415 147.875 30.3924C148.241 30.5433 148.573 30.7684 148.848 31.0535C149.124 31.3386 149.337 31.6776 149.476 32.0492C149.614 32.4208 149.674 32.8169 149.652 33.2128ZM34.1236 10.7361C34.259 12.5101 33.6999 14.2672 32.565 15.6343C32.0216 16.3125 31.3318 16.8582 30.5478 17.2302C29.7637 17.6022 28.9057 17.7908 28.0385 17.7818C27.9831 16.9287 28.0959 16.073 28.3704 15.2637C28.6448 14.4543 29.0755 13.7072 29.6379 13.0649C30.7882 11.7503 32.3898 10.9188 34.1236 10.7361ZM37.2865 23.648C36.7103 24.6667 36.4002 25.8151 36.3852 26.9863C36.3866 28.3038 36.7745 29.5917 37.5004 30.6895C38.2264 31.7872 39.2584 32.6463 40.4677 33.1595C39.9922 34.7093 39.2755 36.1739 38.3442 37.4991C37.0934 39.3765 35.782 41.2107 33.7005 41.2446C32.7106 41.2675 32.0424 40.9818 31.3461 40.6842C30.6198 40.3738 29.8629 40.0502 28.6786 40.0502C27.4226 40.0502 26.6318 40.3842 25.8692 40.7062L25.8691 40.7063C25.2101 40.9845 24.5721 41.254 23.6729 41.2914C21.6907 41.3651 20.1757 39.2876 18.8795 37.4278C16.2887 33.6297 14.2712 26.7243 16.9759 22.0256C17.6002 20.8998 18.5046 19.9554 19.6008 19.2846C20.6971 18.6138 21.9478 18.2393 23.2311 18.1977C24.3554 18.1745 25.4342 18.6093 26.38 18.9905C27.1033 19.282 27.7489 19.5422 28.2775 19.5422C28.7422 19.5422 29.3697 19.2923 30.1011 19.001C31.2531 18.5422 32.6628 17.9809 34.0992 18.1322C35.2001 18.1667 36.2778 18.4584 37.2467 18.984C38.2156 19.5096 39.049 20.2546 39.6808 21.1599C38.6863 21.7734 37.8627 22.6293 37.2865 23.648Z" fill="black"/>
</svg>
