<svg width="179" height="52" viewBox="0 0 179 52" fill="none" xmlns="http://www.w3.org/2000/svg">
<path fill-rule="evenodd" clip-rule="evenodd" d="M172.37 1.24306H6.62963C3.65471 1.24306 1.24306 3.65471 1.24306 6.62963V45.3704C1.24306 48.3453 3.65471 50.7569 6.62963 50.7569H172.37C175.345 50.7569 177.757 48.3453 177.757 45.3704V6.62963C177.757 3.65471 175.345 1.24306 172.37 1.24306ZM6.62963 0H172.37C176.032 0 179 2.96819 179 6.62963V45.3704C179 49.0318 176.032 52 172.37 52H6.62963C2.96819 52 0 49.0318 0 45.3704V6.62963C0 2.96819 2.96819 0 6.62963 0ZM75.5125 10.0962C76.0346 9.88689 76.5941 9.78697 77.1563 9.80262C77.7303 9.78695 78.3003 9.9023 78.8231 10.1399C79.347 10.3781 79.8096 10.7327 80.1756 11.1769L80.2529 11.2707L79.3572 12.1495L79.2659 12.0321C79.0184 11.7139 78.6982 11.4598 78.3322 11.291C77.9662 11.1222 77.565 11.0438 77.1623 11.0622L77.1529 11.0623C76.7629 11.0523 76.375 11.1225 76.0132 11.2685C75.6523 11.4142 75.325 11.6323 75.0515 11.9093C74.5037 12.512 74.2001 13.2974 74.2001 14.1119C74.2001 14.9265 74.5037 15.7118 75.0515 16.3146C75.325 16.5916 75.6523 16.8096 76.0132 16.9553C76.3749 17.1013 76.7627 17.1715 77.1526 17.1616C77.5889 17.1492 78.0171 17.0416 78.4075 16.8465C78.7979 16.6513 79.1409 16.3731 79.4126 16.0315L79.5043 15.9164L80.4126 16.8079L80.3342 16.9018C79.9589 17.3516 79.4917 17.7159 78.9641 17.9705L78.9626 17.9712C78.3809 18.2429 77.7451 18.3787 77.1031 18.3682C76.5495 18.3766 75.9999 18.273 75.4872 18.0637C74.9739 17.8542 74.5083 17.5429 74.1184 17.1487L74.1169 17.1472C73.3282 16.3229 72.888 15.2262 72.888 14.0854C72.888 12.9446 73.3282 11.8479 74.1169 11.0237L74.1184 11.0221C74.5147 10.6212 74.9892 10.306 75.5125 10.0962ZM67.8684 9.80143C67.3103 9.80143 66.7576 9.91156 66.2421 10.1255C65.7265 10.3395 65.2583 10.653 64.8641 11.0482L64.8623 11.0502C64.0801 11.8671 63.6435 12.9544 63.6435 14.0854C63.6435 15.2164 64.0801 16.3038 64.8622 17.1207L64.8642 17.1226C65.2583 17.5178 65.7265 17.8314 66.2421 18.0453C66.7576 18.2593 67.3103 18.3694 67.8684 18.3694C68.4266 18.3694 68.9793 18.2593 69.4948 18.0453C70.0102 17.8314 70.4783 17.518 70.8724 17.123C71.2732 16.7268 71.5883 16.2524 71.798 15.7292C72.0074 15.2069 72.1073 14.6472 72.0916 14.0847C72.1009 13.5235 71.9982 12.9661 71.7894 12.4451C71.5801 11.9231 71.2682 11.448 70.8727 11.0482C70.4786 10.653 70.0103 10.3395 69.4948 10.1255C68.9793 9.91156 68.4266 9.80143 67.8684 9.80143ZM113.798 9.80143C113.24 9.80143 112.688 9.91156 112.172 10.1255C111.656 10.3395 111.188 10.653 110.794 11.0482L110.792 11.0502C110.01 11.8671 109.573 12.9544 109.573 14.0854C109.573 15.2164 110.01 16.3038 110.792 17.1207L110.794 17.1227C111.189 17.5183 111.659 17.8321 112.175 18.0462C112.692 18.2603 113.246 18.3705 113.805 18.3705C114.364 18.3705 114.918 18.2603 115.435 18.0462C115.951 17.8321 116.421 17.5183 116.816 17.1227L117.042 16.8964H117.003C117.654 16.1077 118.013 15.1144 118.013 14.0854C118.013 12.9566 117.581 11.8706 116.805 11.0507L116.803 11.0482C116.409 10.653 115.94 10.3395 115.425 10.1255C114.909 9.91156 114.357 9.80143 113.798 9.80143ZM124.942 9.97504C125.571 9.96889 126.18 10.1983 126.648 10.6181C126.884 10.823 127.072 11.0772 127.199 11.3627C127.326 11.6479 127.388 11.9575 127.383 12.2696C127.386 12.652 127.277 13.027 127.07 13.3484L127.068 13.3517C126.913 13.5768 126.714 13.767 126.485 13.9115C126.782 14.0586 127.043 14.271 127.248 14.5342L127.25 14.5362C127.511 14.8839 127.65 15.3073 127.648 15.7419C127.655 16.0663 127.59 16.3884 127.459 16.6851C127.327 16.9818 127.133 17.246 126.888 17.4591C126.403 17.9092 125.763 18.1542 125.102 18.1428L121.933 18.1981V9.97504H124.942ZM62.054 9.97504H56.4851L56.4841 14.0854L56.4841 14.1627L56.4844 14.2585V14.2602C56.4857 14.8223 56.4867 15.196 56.3387 15.6562C56.1833 16.1393 55.9285 16.5843 55.591 16.9627H54.6951V19.8797H55.9282V18.1958H61.696V19.8664H62.9423V16.9494H62.054V9.97504ZM86.7428 9.97504H81.0148V11.2214H83.2424V18.1958H84.5285V11.2214H86.7428V9.97504ZM88.62 9.97504H87.1208L89.8323 15.9811L89.5654 16.5625L89.5621 16.5714C89.4977 16.7433 89.3903 16.8957 89.2502 17.0142C89.1087 17.1013 88.9441 17.1435 88.778 17.1352L88.7747 17.1351C88.6103 17.131 88.4493 17.0868 88.306 17.0062L88.1591 16.9236L87.8174 18.1367L87.9209 18.1839C88.1921 18.3073 88.4869 18.3703 88.7848 18.3684C89.0828 18.3666 89.3767 18.3 89.6464 18.1733C89.916 18.0465 90.1549 17.8627 90.3465 17.6345C90.5357 17.4089 90.6743 17.1454 90.7528 16.8617L93.8423 9.97504H92.3432L90.4942 14.3314L88.62 9.97504ZM100.678 9.97504H94.6587V18.1958H95.9448V11.2214H99.3922V18.1958H100.678V9.97504ZM103.516 9.97504H102.23V18.1958H103.516V14.6025H107.228V18.1958H108.528V9.97504H107.228V13.3827H103.516V9.97504ZM67.8644 11.0358C68.2491 11.0281 68.6312 11.1007 68.9863 11.2489C69.3411 11.3969 69.6612 11.6171 69.9263 11.8955C70.4754 12.4926 70.7802 13.2742 70.7802 14.0854C70.7802 14.8967 70.4754 15.6783 69.9263 16.2754C69.6612 16.5538 69.3411 16.774 68.9863 16.922C68.6312 17.0701 68.2491 17.1426 67.8644 17.135L67.86 17.1351C67.4753 17.1404 67.0937 17.0667 66.7387 16.9186C66.3844 16.7708 66.0641 16.552 65.7976 16.2756C65.2567 15.6744 64.9575 14.8942 64.9575 14.0854C64.9575 13.2766 65.2567 12.4965 65.7976 11.8952C66.0641 11.6189 66.3844 11.4 66.7387 11.2522C67.0937 11.1041 67.4753 11.0305 67.86 11.0359L67.8644 11.0358ZM112.681 11.2489C113.036 11.1007 113.418 11.0281 113.802 11.0358L113.807 11.0358C114.191 11.0304 114.573 11.1041 114.928 11.2522C115.282 11.4 115.603 11.6189 115.869 11.8952C116.41 12.4965 116.709 13.2766 116.709 14.0854C116.709 14.8942 116.41 15.6744 115.869 16.2756C115.603 16.552 115.282 16.7708 114.928 16.9186C114.573 17.0667 114.191 17.1404 113.807 17.1351L113.802 17.1351C113.418 17.1427 113.036 17.0701 112.681 16.922C112.326 16.774 112.006 16.5538 111.74 16.2753C111.191 15.6782 110.887 14.8966 110.887 14.0854C110.887 13.2742 111.191 12.4926 111.74 11.8955C112.006 11.6171 112.326 11.3969 112.681 11.2489ZM125.042 11.1948C125.188 11.1881 125.335 11.214 125.47 11.2706C125.606 11.3271 125.727 11.4128 125.825 11.5215C126.01 11.7335 126.108 12.0086 126.097 12.2902L126.096 12.2935C126.092 12.5733 125.978 12.84 125.778 13.0358L125.772 13.0426C125.67 13.1576 125.543 13.2479 125.4 13.3069C125.258 13.3658 125.104 13.3916 124.951 13.3827H123.221L123.257 11.1949L125.036 11.195L125.042 11.1948ZM57.7712 14.0818V11.2214H60.728V16.9892H57.1121C57.5977 16.1017 57.8268 15.0949 57.7712 14.0818ZM125.105 14.6025C125.272 14.5982 125.438 14.6289 125.592 14.6926C125.746 14.7563 125.886 14.8522 126.001 14.973C126.208 15.1878 126.327 15.4725 126.335 15.7708C126.334 16.0716 126.219 16.3607 126.013 16.5803L126.01 16.5831C125.904 16.7031 125.773 16.7981 125.626 16.8615C125.479 16.9248 125.32 16.9548 125.159 16.9494H123.219V14.6025H125.102L125.105 14.6025ZM63.261 33.7887V31.402H71.3226C71.4067 31.8925 71.4467 32.3895 71.4419 32.8871C71.5078 34.9544 70.7659 36.9662 69.3735 38.4957C68.5852 39.3125 67.6331 39.9534 66.5796 40.3761C65.5262 40.7989 64.3952 40.994 63.261 40.9487C62.0822 40.9946 60.9063 40.802 59.8038 40.3826C58.7012 39.9631 57.6947 39.3254 56.8445 38.5077C55.9943 37.6899 55.3179 36.7089 54.8559 35.6235C54.3939 34.5381 54.1558 33.3706 54.1558 32.191C54.1558 31.0113 54.3939 29.8438 54.8559 28.7584C55.3179 27.673 55.9943 26.692 56.8445 25.8743C57.6947 25.0565 58.7012 24.4188 59.8038 23.9993C60.9063 23.5799 62.0822 23.3873 63.261 23.4332C64.3723 23.4156 65.4761 23.62 66.5074 24.0344C67.5388 24.4487 68.4771 25.0648 69.2674 25.8464L67.5835 27.5303C66.4152 26.4103 64.8527 25.7958 63.2344 25.8199C61.5465 25.8199 59.9277 26.4904 58.7341 27.684C57.5405 28.8775 56.87 30.4964 56.87 32.1843C56.87 33.8723 57.5405 35.4911 58.7341 36.6847C59.9277 37.8782 61.5465 38.5488 63.2344 38.5488C64.054 38.5832 64.8717 38.4452 65.6345 38.1437C66.3974 37.8422 67.0885 37.384 67.663 36.7985C68.4319 35.9735 68.8992 34.9128 68.989 33.7887H63.261ZM121.484 30.711C122.346 31.3527 122.993 32.241 123.339 33.2583L123.617 33.8417L116.073 36.9577C116.302 37.485 116.686 37.9306 117.173 38.2359C117.661 38.5412 118.229 38.6918 118.804 38.6681C119.361 38.6735 119.91 38.5332 120.396 38.2611C120.882 37.989 121.289 37.5945 121.575 37.1168L123.498 38.4427C122.831 39.4529 121.855 40.2202 120.716 40.6301C119.577 41.04 118.336 41.0704 117.179 40.7169C116.021 40.3633 115.009 39.6447 114.293 38.6684C113.578 37.6922 113.197 36.5106 113.209 35.3003C113.163 34.5764 113.267 33.8509 113.513 33.1687C113.759 32.4864 114.143 31.8619 114.64 31.3338C115.137 30.8056 115.737 30.385 116.403 30.098C117.069 29.811 117.787 29.6636 118.512 29.6651C119.586 29.7046 120.623 30.0694 121.484 30.711ZM115.812 33.9261C115.677 34.3162 115.621 34.7293 115.648 35.1411L120.687 33.0462C120.497 32.6625 120.198 32.3434 119.828 32.1287C119.458 31.9141 119.032 31.8135 118.605 31.8396C118.193 31.8581 117.788 31.9587 117.415 32.1355C117.042 32.3123 116.708 32.5617 116.433 32.8692C116.158 33.1767 115.947 33.536 115.812 33.9261ZM112.002 40.604H109.523V24.0299H112.002V40.604ZM105.372 30.9247H105.465V29.9965H107.759V40.0338C107.759 44.1972 105.359 45.9077 102.455 45.9077C101.382 45.9221 100.329 45.6104 99.4367 45.0138C98.5442 44.4172 97.8537 43.5638 97.4566 42.5663L99.6046 41.678C99.8278 42.2566 100.218 42.7559 100.726 43.1124C101.233 43.4689 101.835 43.6665 102.455 43.6801C104.312 43.6801 105.465 42.5265 105.465 40.3653V39.5565H105.372C105.005 39.9825 104.549 40.3223 104.036 40.5515C103.522 40.7807 102.964 40.8937 102.402 40.8824C100.953 40.8121 99.5869 40.1871 98.5863 39.1367C97.5856 38.0864 97.0275 36.6913 97.0275 35.2406C97.0275 33.7899 97.5856 32.3948 98.5863 31.3445C99.5869 30.2941 100.953 29.669 102.402 29.5988C102.964 29.5929 103.52 29.7083 104.032 29.9372C104.545 30.166 105.002 30.5029 105.372 30.9247ZM100.334 37.6493C100.93 38.2837 101.746 38.667 102.614 38.7211C103.041 38.7047 103.46 38.602 103.845 38.4192C104.231 38.2364 104.575 37.9772 104.858 37.6575C105.14 37.3377 105.355 36.9639 105.489 36.5588C105.623 36.1536 105.674 35.7255 105.638 35.3003C105.67 34.8765 105.617 34.4505 105.481 34.0477C105.346 33.6449 105.13 33.2735 104.848 32.9556C104.566 32.6377 104.223 32.3797 103.839 32.1971C103.456 32.0145 103.039 31.9109 102.614 31.8926C101.746 31.9468 100.93 32.3301 100.334 32.9644C99.7382 33.5988 99.4064 34.4365 99.4064 35.3069C99.4064 36.1773 99.7382 37.015 100.334 37.6493ZM129.014 24.0299H134.954C135.66 23.9791 136.37 24.0745 137.038 24.31C137.706 24.5456 138.319 24.9162 138.837 25.3989C139.356 25.8816 139.77 26.466 140.052 27.1155C140.335 27.7651 140.481 28.466 140.481 29.1745C140.481 29.8829 140.335 30.5838 140.052 31.2334C139.77 31.883 139.356 32.4674 138.837 32.95C138.319 33.4327 137.706 33.8034 137.038 34.0389C136.37 34.2745 135.66 34.3698 134.954 34.3191H131.493V40.604H129.014V24.0299ZM131.493 31.9854H134.954L135.007 32.012C135.379 32.012 135.748 31.9386 136.093 31.796C136.437 31.6534 136.75 31.4444 137.013 31.1809C137.277 30.9174 137.486 30.6046 137.628 30.2603C137.771 29.9161 137.844 29.5471 137.844 29.1745C137.844 28.8018 137.771 28.4329 137.628 28.0886C137.486 27.7444 137.277 27.4316 137.013 27.1681C136.75 26.9046 136.437 26.6956 136.093 26.553C135.748 26.4104 135.379 26.337 135.007 26.337H131.493V31.9854ZM147.668 30.2167C148.453 29.7666 149.352 29.5564 150.255 29.612L150.308 29.6385C153.132 29.6385 155.333 31.3225 155.333 34.2262V40.604H152.947V39.278H152.867C152.532 39.8033 152.063 40.2299 151.508 40.5141C150.954 40.7984 150.334 40.9301 149.711 40.8957C149.199 40.9353 148.685 40.8716 148.198 40.7084C147.711 40.5453 147.262 40.2859 146.877 39.9458C146.493 39.6057 146.18 39.1917 145.959 38.7285C145.737 38.2653 145.611 37.7623 145.588 37.2494C145.588 34.8362 148.001 33.5103 150.361 33.5103C151.262 33.5091 152.149 33.7276 152.947 34.1467V33.9876C152.915 33.6722 152.821 33.3663 152.671 33.0876C152.52 32.8089 152.315 32.563 152.068 32.3643C151.821 32.1656 151.537 32.018 151.233 31.9302C150.928 31.8424 150.61 31.8161 150.295 31.8528C149.841 31.8136 149.385 31.9066 148.983 32.1207C148.58 32.3348 148.248 32.6609 148.027 33.0594L145.84 32.1445C146.247 31.337 146.883 30.6668 147.668 30.2167ZM148.014 37.2891C148.014 38.2836 149.141 38.6946 149.95 38.6946L150.003 38.7211C150.728 38.7067 151.423 38.43 151.959 37.9424C152.495 37.4548 152.837 36.7894 152.92 36.0693C152.232 35.6853 151.454 35.493 150.666 35.5124C149.42 35.5124 148.014 35.9632 148.014 37.2891ZM161.194 37.1831L164.031 29.9965H166.789L160.001 45.6292H157.415L159.934 40.0471L155.519 29.9965H158.171L161.114 37.1831H161.194ZM144.222 40.604H141.756V24.0299H144.222V40.604ZM77.9525 29.6651C76.8354 29.6678 75.7441 30.0016 74.8167 30.6245C73.8892 31.2473 73.1673 32.1311 72.7422 33.1643C72.3172 34.1974 72.208 35.3334 72.4285 36.4285C72.649 37.5237 73.1893 38.5289 73.9811 39.317C74.7729 40.1051 75.7806 40.6407 76.8768 40.8561C77.973 41.0714 79.1085 40.9569 80.1396 40.527C81.1707 40.097 82.0512 39.371 82.6697 38.4407C83.2881 37.5103 83.6168 36.4175 83.6142 35.3003C83.625 34.5551 83.4858 33.8153 83.2047 33.1249C82.9237 32.4346 82.5066 31.8079 81.9784 31.2821C81.4501 30.7563 80.8214 30.3422 80.1298 30.0644C79.4382 29.7866 78.6977 29.6508 77.9525 29.6651ZM78.204 38.7257C77.5193 38.7736 76.836 38.6144 76.2429 38.2688C75.6499 37.9232 75.1745 37.4071 74.8786 36.7878C74.5827 36.1684 74.48 35.4744 74.5838 34.7959C74.6876 34.1174 74.9931 33.4858 75.4606 32.9832C75.9282 32.4806 76.5361 32.1303 77.2053 31.9778C77.8746 31.8253 78.5742 31.8776 79.2133 32.128C79.8524 32.3784 80.4014 32.8153 80.7889 33.3818C81.1765 33.9484 81.3846 34.6184 81.3863 35.3048C81.4076 35.7397 81.3417 36.1745 81.1923 36.5836C81.043 36.9926 80.8132 37.3676 80.5166 37.6864C80.22 38.0052 79.8626 38.2615 79.4654 38.44C79.0683 38.6185 78.6394 38.7156 78.204 38.7257ZM87.1711 30.6245C88.0985 30.0016 89.1898 29.6678 90.307 29.6651C91.0522 29.6508 91.7927 29.7866 92.4843 30.0644C93.1759 30.3422 93.8046 30.7563 94.3328 31.2821C94.8611 31.8079 95.2782 32.4346 95.5592 33.1249C95.8403 33.8153 95.9795 34.5551 95.9687 35.3003C95.9713 36.4175 95.6426 37.5103 95.0241 38.4407C94.4057 39.371 93.5252 40.097 92.4941 40.527C91.463 40.9569 90.3275 41.0714 89.2313 40.8561C88.1351 40.6407 87.1274 40.1051 86.3356 39.317C85.5438 38.5289 85.0035 37.5237 84.783 36.4285C84.5624 35.3334 84.6716 34.1974 85.0967 33.1643C85.5218 32.1311 86.2437 31.2473 87.1711 30.6245ZM88.5974 38.2688C89.1905 38.6144 89.8738 38.7736 90.5585 38.7257C90.9939 38.7156 91.4227 38.6185 91.8199 38.44C92.2171 38.2615 92.5745 38.0052 92.8711 37.6864C93.1677 37.3676 93.3974 36.9926 93.5468 36.5836C93.6962 36.1745 93.7621 35.7397 93.7407 35.3048C93.7391 34.6184 93.5309 33.9484 93.1434 33.3818C92.7559 32.8153 92.2069 32.3784 91.5678 32.128C90.9287 31.8776 90.229 31.8253 89.5598 31.9778C88.8905 32.1303 88.2826 32.4806 87.8151 32.9832C87.3476 33.4858 87.0421 34.1174 86.9383 34.7959C86.8345 35.4744 86.9372 36.1684 87.2331 36.7878C87.529 37.4071 88.0044 37.9232 88.5974 38.2688Z" fill="black"/>
<path d="M13.888 9.47734C13.4511 9.99395 13.2282 10.658 13.2649 11.3336V40.6631C13.2197 41.3398 13.4437 42.007 13.888 42.5194L13.9809 42.6255L30.4091 26.1973V25.7995L13.9809 9.38452L13.888 9.47734Z" fill="url(#paint0_linear)"/>
<path d="M35.8451 31.6734L30.4088 26.1973V25.7996L35.8451 20.3235L35.9644 20.403L42.4747 24.0891C44.331 25.1366 44.331 26.8603 42.4747 27.921L35.991 31.6071L35.8451 31.6734Z" fill="url(#paint1_linear)"/>
<path d="M36.0041 31.5939L30.4087 25.9985L13.8877 42.5196C14.2624 42.8531 14.7419 43.0449 15.2433 43.0619C15.7446 43.0788 16.236 42.9198 16.6324 42.6124L36.0041 31.5939Z" fill="url(#paint2_linear)"/>
<path d="M36.0041 20.403L16.6324 9.39784C16.2386 9.08613 15.7475 8.92324 15.2455 8.93779C14.7435 8.95234 14.2627 9.14341 13.8877 9.4774L30.4087 25.9984L36.0041 20.403Z" fill="url(#paint3_linear)"/>
<defs>
<linearGradient id="paint0_linear" x1="28.9506" y1="11.0287" x2="6.70152" y2="33.2777" gradientUnits="userSpaceOnUse">
<stop stop-color="#00A0FF"/>
<stop offset="0.01" stop-color="#00A1FF"/>
<stop offset="0.26" stop-color="#00BEFF"/>
<stop offset="0.51" stop-color="#00D2FF"/>
<stop offset="0.76" stop-color="#00DFFF"/>
<stop offset="1" stop-color="#00E3FF"/>
</linearGradient>
<linearGradient id="paint1_linear" x1="44.9012" y1="25.9984" x2="12.827" y2="25.9984" gradientUnits="userSpaceOnUse">
<stop stop-color="#FFE000"/>
<stop offset="0.41" stop-color="#FFBD00"/>
<stop offset="0.78" stop-color="#FFA500"/>
<stop offset="1" stop-color="#FF9C00"/>
</linearGradient>
<linearGradient id="paint2_linear" x1="32.9678" y1="29.0482" x2="2.78969" y2="59.213" gradientUnits="userSpaceOnUse">
<stop stop-color="#FF3A44"/>
<stop offset="1" stop-color="#C31162"/>
</linearGradient>
<linearGradient id="paint3_linear" x1="9.72429" y1="-0.281417" x2="23.1957" y2="13.19" gradientUnits="userSpaceOnUse">
<stop stop-color="#32A071"/>
<stop offset="0.07" stop-color="#2DA771"/>
<stop offset="0.48" stop-color="#15CF74"/>
<stop offset="0.8" stop-color="#06E775"/>
<stop offset="1" stop-color="#00F076"/>
</linearGradient>
</defs>
</svg>
