<svg width="58" height="58" viewBox="0 0 58 58" fill="none" xmlns="http://www.w3.org/2000/svg">
<g clip-path="url(#clip0)">
<path d="M0 20.8438C0 13.5477 0 9.89974 1.4199 7.11304C2.66887 4.6618 4.6618 2.66887 7.11304 1.4199C9.89974 0 13.5477 0 20.8438 0H37.1562C44.4523 0 48.1003 0 50.887 1.4199C53.3382 2.66887 55.3311 4.6618 56.5801 7.11304C58 9.89974 58 13.5477 58 20.8438V37.1562C58 44.4523 58 48.1003 56.5801 50.887C55.3311 53.3382 53.3382 55.3311 50.887 56.5801C48.1003 58 44.4523 58 37.1562 58H20.8438C13.5477 58 9.89974 58 7.11304 56.5801C4.6618 55.3311 2.66887 53.3382 1.4199 50.887C0 48.1003 0 44.4523 0 37.1562V20.8438Z" fill="white"/>
<path fill-rule="evenodd" clip-rule="evenodd" d="M6.34375 29C6.34375 41.4918 16.5082 51.6562 29 51.6562C41.4918 51.6562 51.6563 41.4918 51.6563 29C51.6563 16.5082 41.4918 6.34375 29 6.34375C16.5082 6.34375 6.34375 16.5082 6.34375 29ZM37.2696 31.0391L33.7578 24.9219L24.2422 41.2344L18.3516 31.0391L14.6133 31.0515V26.9609H20.7305L24.2422 33.0781L33.7578 16.7656L39.6484 26.9609H43.3867V31.0391H37.2696Z" fill="#3E4A64"/>
<path d="M0.330078 20.8438C0.330078 17.1904 0.330334 14.4701 0.506471 12.3143C0.68229 10.1624 1.03173 8.60184 1.71406 7.2627C2.93144 4.87347 4.87396 2.93095 7.26319 1.71357C8.60233 1.03124 10.1629 0.681801 12.3148 0.505982C14.4706 0.329846 17.1909 0.32959 20.8443 0.32959H37.1568C40.8102 0.32959 43.5305 0.329846 45.6863 0.505982C47.8382 0.681801 49.3987 1.03124 50.7379 1.71357C53.1271 2.93095 55.0696 4.87347 56.287 7.2627C56.9693 8.60184 57.3188 10.1624 57.4946 12.3143C57.6707 14.4701 57.671 17.1904 57.671 20.8438V37.1563C57.671 40.8097 57.6707 43.53 57.4946 45.6858C57.3188 47.8377 56.9693 49.3983 56.287 50.7374C55.0696 53.1266 53.1271 55.0691 50.7379 56.2866C49.3987 56.9688 47.8382 57.3183 45.6863 57.4941C43.5305 57.6702 40.8102 57.6705 37.1568 57.6705H20.8443C17.1909 57.6705 14.4706 57.6702 12.3148 57.4941C10.1629 57.3183 8.60233 56.9688 7.26319 56.2866C4.87396 55.0691 2.93144 53.1266 1.71406 50.7374C1.03173 49.3983 0.68229 47.8377 0.506471 45.6858C0.330334 43.53 0.330078 40.8097 0.330078 37.1563V20.8438Z" stroke="black" stroke-opacity="0.07" stroke-width="1.20615"/>
</g>
<defs>
<clipPath id="clip0">
<rect width="58" height="58" fill="white"/>
</clipPath>
</defs>
</svg>
