<svg width="355" height="154" viewBox="0 0 355 154" fill="none" xmlns="http://www.w3.org/2000/svg"><path d="M115.7 49.4c-3.8-1.7-7.8-2.7-11.3-2.7-5.2 0-7.8 1.1-7.8 3.2 0 5.8 23.1 1.1 23.1 13.7 0 5.2-4.7 9.2-14.2 9.2-5.6 0-10-1.1-15.1-4.1l2-4.7c4.5 2.5 8.6 3.7 13.1 3.7 5.6 0 8.6-1.7 8.6-4.2 0-6.5-23.1-1.7-23.1-13.4 0-5.1 4.7-8.5 13.2-8.5 5.1 0 9.4 1.1 13.5 3.3l-2 4.5zM141.5 72.9c-9.3 0-16.9-6.4-16.9-15.8 0-9.3 7.6-15.8 16.9-15.8 9.3 0 16.9 6.5 16.9 15.8-.1 9.6-7.6 15.8-16.9 15.8zm0-26.4c-6.7 0-11.3 4.7-11.3 10.7 0 6.1 4.5 10.7 11.3 10.7 6.8 0 11.3-4.6 11.3-10.7-.1-6-4.4-10.7-11.3-10.7zM180.4 72.9c-9.8 0-17-6.4-17-15.8 0-9.3 7.5-15.8 17-15.8 5.7 0 9.8 1.7 13.5 4.5l-2.8 4.5c-2.7-2.2-6-3.7-10.6-3.7-7.1 0-11.4 4.6-11.4 10.6 0 6.1 4.5 10.6 11.6 10.6 4.5 0 8-1.5 10.7-3.6l2.9 4.3c-3.8 2.8-8.2 4.4-13.9 4.4zM200.1 42.3h5.3V72h-5.3V42.3zM213.5 72.2V42.3h26.4v5h-21.1v7.2h16.4v5h-16.4v7.8h22v5h-27.3M260.9 47.2v24.9h-5.3V47.2h-11.8v-5h29.1V47l-12 .2zM277.2 72.2V42.3h26.4v5h-21.1v7.2h16.4v5h-16.4v7.8h22v5h-27.3M106.9 107.4c2.9 0 6-.6 8.3-1.8V97h5.2v11.6c-3.7 2.5-8.8 4.1-13.7 4.1-9.7 0-17-6.4-17-15.8 0-9.3 7.4-15.8 17-15.8 5.6 0 9.8 1.7 13.5 4.5l-2.9 4.3c-2.7-2.2-6.1-3.6-10.6-3.6-7.1-.1-11.4 4.6-11.4 10.4.1 6.2 4.5 10.7 11.6 10.7zM127.5 111.7V82H154v5h-21.1v7.2h16.4v5h-16.4v7.8h22v5l-27.4-.3zM165.5 111.7h-5.3V82h5.5l18.9 22.5h.1c-.4-5.6-.4-10.2-.4-14.6v-7.8h5.2v29.8H184l-18.8-22.4h-.1c.3 4.5.3 12.1.3 14.6l.1 7.6zM197.3 111.7V82h26.4v5h-21.1v7.2H219v5h-16.4v7.8h22v5l-27.3-.3zM244.5 100.8h-8.6v10.9h-5.3V82h18.7c6.2 0 10 3.9 10 9.5 0 5.3-3.8 8.5-8.4 9.2l8.6 11.1h-6.7l-8.3-11zm3.9-5c3.3 0 5.2-1.8 5.2-4.3 0-2.8-1.7-4.6-4.7-4.6h-13.2v8.9h12.7zM270.4 104.6l-3.3 7.2h-5.8L275.4 82h5.7l14.1 29.8h-5.8l-3.3-7.2h-15.7zm2.3-4.8h11.2l-5.6-12.1-5.6 12.1zM299.3 111.7V82h5.3v24.9h19.5v5h-24.8M327.7 111.7V82h26.4v5H333v7.2h16.4v5H333v7.8h22v5l-27.3-.3z" fill="#5D5D5D"/><path d="M0 41.4h69.4v36.4H0V41.4z" fill="#999"/><path d="M0 77h69.4v35.6H0V77z" fill="#5D5D5D"/><path d="M12.1 77h45.1" stroke="#fff" stroke-width="1.725" stroke-miterlimit="10"/></svg>