<svg width="355" height="154" viewBox="0 0 355 154" fill="none" xmlns="http://www.w3.org/2000/svg"><path d="M77.3514 27.5432c0 1.5488-1.2047 2.7535-2.7536 2.7535-1.5488 0-2.7535-1.2047-2.7535-2.7535 0-1.5489 1.2047-2.7535 2.7535-2.7535 1.5489.086 2.7536 1.2046 2.7536 2.7535z" fill="#3BABE1"/><path d="M113.061 91.9066l-1.377 1.0326v5.593c0 4.5608-1.549 6.9698-4.646 6.9698-3.098 0-4.647-2.323-4.647-6.8837V79.6018c0-4.5605 1.549-6.8838 4.647-6.8838 2.409 0 3.872 1.3768 4.302 4.0443.172.8604.258 3.0977.258 6.7977l8.003-8.2605c1.721-1.721 3.269-2.5815 4.818-2.5815 1.119 0 2.065.3442 2.84 1.0326.774.6884 1.204 1.5489 1.204 2.6675 0 1.5488-.774 3.0977-2.409 4.5605l-6.281 5.9373 8.777 10.4117c1.204 1.4628 1.893 3.0114 1.893 4.5604 0 1.033-.517 2.065-1.291 2.754-.947.688-1.979 1.118-3.098 1.118-1.893 0-3.528-.946-4.819-2.839l-8.174-11.0144zM153.417 81.0646h-6.453c-1.119 0-2.066.9465-2.066 2.0652v14.1117c0 2.2372-.688 4.0445-1.979 5.1625-1.29 1.291-3.183 1.893-5.421 1.893-2.065 0-3.528-.172-4.216-.43-1.463-.516-2.151-1.549-2.151-3.184 0-1.5484.516-2.581 1.549-3.0973.688-.3442 1.979-.5163 3.786-.5163V83.0437c0-3.7.86-6.1954 2.581-7.6582 1.549-1.3768 4.217-2.1512 8.089-2.1512h10.584c1.72 0 2.925.6023 3.614 1.8931.43.8604.688 2.3232.688 4.1302v18.3281c0 4.3023-1.463 6.5393-4.216 6.5393-1.721 0-2.926-.688-3.614-2.065-.431-1.032-.689-2.4952-.689-4.3883V81.0646h-.086zM181.555 92.0787h-4.217v6.5396c0 4.3887-1.549 6.6257-4.646 6.6257-3.098 0-4.647-2.237-4.647-6.7118V79.946c0-4.3884 1.635-6.6256 4.647-6.6256 3.011 0 4.646 2.2372 4.646 6.6256v6.1094h4.475c.516-4.0442 2.151-7.1419 4.732-9.6373 2.668-2.4954 5.938-3.7001 10.068-3.7001 4.733 0 8.519 1.635 11.272 4.8187 2.582 3.0117 3.872 6.7977 3.872 11.6164 0 4.6465-1.29 8.5187-3.958 11.4439-2.753 3.098-6.453 4.561-11.186 4.561-4.044 0-7.486-1.205-10.154-3.614-2.667-2.4094-4.13-5.5932-4.646-9.6374l-.258.1721zm9.035-3.0977c0 4.9907 1.721 7.5722 5.076 7.5722 3.528 0 5.163-2.5815 5.163-7.5722 0-2.0651-.344-3.7861-1.032-5.0768-.861-1.807-2.324-2.7535-4.045-2.7535-1.893 0-3.269.9465-4.044 2.7535-.774 1.2907-1.118 3.0117-1.118 5.0768zM225.439 91.9066l-1.377 1.0326v5.593c0 4.5608-1.549 6.9698-4.647 6.9698-3.183 0-4.646-2.323-4.646-6.8837V79.6018c0-4.5605 1.549-6.8838 4.646-6.8838 2.41 0 3.873 1.3768 4.303 4.0443.172.8604.258 3.0977.258 6.7977l8.002-8.2605c1.721-1.721 3.356-2.5815 4.819-2.5815 1.119 0 2.065.3442 2.84 1.0326.774.6884 1.204 1.5489 1.204 2.6675 0 1.5488-.774 3.0977-2.409 4.5605l-6.282 5.9373 8.777 10.4117c1.205 1.4628 1.893 3.0114 1.893 4.5604 0 1.119-.43 2.151-1.29 2.754-.947.688-1.979 1.118-3.184 1.118-1.893 0-3.528-.946-4.819-2.839l-8.088-11.0144zM249.618 104.9c-3.442 0-5.077-1.979-5.077-5.8515V79.2576c0-3.9582 1.721-5.8512 5.077-5.8512h8.089c4.044 0 7.055.5163 9.035 1.6349 2.667 1.4628 3.958 4.0442 3.958 7.7443 0 2.6674-1.291 4.5605-3.786 5.9372 3.097 1.6349 4.56 3.9582 4.56 6.7978 0 3.786-1.377 6.3674-4.13 7.7444-2.065 1.032-5.077 1.549-9.207 1.549l-8.519.086zm3.442-25.5563v6.7977h3.614c1.463 0 2.495-.1721 3.184-.6023.86-.5163 1.29-1.4628 1.29-2.8396 0-2.3233-1.634-3.4419-4.732-3.4419h-3.356v.0861zm0 12.735v6.7977h3.614c3.442 0 4.991-1.1186 4.991-3.4419 0-1.4628-.517-2.4093-1.635-2.9256-.689-.3442-1.893-.5163-3.528-.5163h-3.442v.0861zM295.395 101.63c-1.893 2.323-4.302 3.442-7.572 3.442-4.044 0-7.4-1.721-10.067-4.991-2.41-3.0976-3.614-6.7116-3.614-11.014s1.29-7.9163 3.786-11.1001c2.667-3.4419 6.023-4.9907 10.239-4.9907 3.012 0 5.421 1.1186 7.228 3.2698 1.033-1.8931 2.496-2.9256 4.217-2.9256 3.011 0 4.388 2.2372 4.388 6.5396v18.328c0 4.388-1.463 6.626-4.388 6.626-1.893.086-3.27-1.033-4.217-3.184zm-11.616-12.649c0 1.9791.43 3.7 1.377 4.9907 1.118 1.5489 2.581 2.4093 4.388 2.4093 1.893 0 3.356-.7744 4.302-2.4093.861-1.3767 1.377-3.0977 1.377-4.9907 0-1.9791-.43-3.7001-1.377-4.9908-1.032-1.5488-2.495-2.3233-4.302-2.3233-1.893 0-3.356.7745-4.302 2.3233-1.033 1.3768-1.463 3.0977-1.463 4.9908z" fill="#C3C3C3"/><path d="M77.3514 27.5432c0 1.5488-1.2047 2.7535-2.7536 2.7535-1.5488 0-2.7535-1.2047-2.7535-2.7535 0-1.5489 1.2047-2.7535 2.7535-2.7535 1.5489.086 2.7536 1.2046 2.7536 2.7535z" fill="#929292"/><path d="M99.5516 19.1106L69.8652 9.2151c-.086-2.5814-.9465-5.1628-3.4418-6.5396-2.8396-1.5488-7.4001-1.721-19.7909 9.035-8.1745 7.0559-16.9513 16.6071-24.0072 26.1584-24.0933 32.5259-27.4491 61.7819-9.121 80.2821 12.1326 12.305 34.1607 14.886 50.4237 14.886 11.014 0 19.3606-1.204 20.1351-1.291 1.6349-.258 3.0977-1.376 3.7-2.925l4.2163-10.928c.9465-2.409-.2581-5.077-2.6675-6.023-2.4093-.947-5.0767.258-6.0233 2.667l-3.2698 8.261c-9.9815 1.032-45.1748 3.7-60.061-11.273-9.035-9.293-11.2722-21.7696-6.3675-37.2581C22.2811 46.4736 49.7302 19.6268 60.4 12.8291c3.7001-2.7535 7.142.086 3.1838 4.0442l27.1909 9.121.5163.1721c.6024.2582 1.0326.9466 1.0326 1.6349v.3442l-.1721.4303c-1.0326 3.1837-2.0651 5.2488-2.6675 6.1954-1.1186 1.7209-4.1302 4.0442-7.1419 5.2489-4.6465 1.979-10.0675 4.2163-12.735 9.2931-5.5931 10.4117-.2581 32.0956 3.614 44.4004l.2581.9465c0 .7744-.6023 1.4628-1.3767 1.7209H60.8303l-3.1838-17.4676c-.4302-2.5814-2.9256-4.2163-5.3349-3.786-2.5814.5162-4.1303 2.9256-3.7861 5.4209l3.8721 20.3937c.4303 2.237 2.3233 3.872 4.4745 3.872h22.8025c1.5489.086 3.0117-.689 3.8722-1.979.8604-1.291.9465-2.668.5163-4.3028-.6024-2.2372-2.2373-7.4-3.528-12.0466-3.614-12.5629-6.1093-27.191-3.0977-32.8701 1.1186-2.1512 4.6466-3.7 8.1745-5.0768 4.1303-1.807 8.2606-4.6465 11.0141-8.3466 1.807-2.4093 4.216-9.2931 5.851-15.5745.775-2.2372-.602-4.7326-2.9254-5.507z" fill="#5C5C5C"/></svg>