<svg width="355" height="154" viewBox="0 0 355 154" fill="none" xmlns="http://www.w3.org/2000/svg"><path d="M73.8 60.1c-1-1.6-.4-3.8 1.3-4.7l15.5-9c.5-.3 1.2-.3 1.7 0l15.5 9c1.6 1 2.2 3.1 1.3 4.7-1 1.6-3.1 2.2-4.7 1.3l-13-7.5-13 7.5c-1.5.9-3.6.3-4.6-1.3z" fill="#C3C3C3"/><path d="M106.1 65.1H77c-.9 0-1.7.8-1.7 1.7v16.8c0 2.1 1.7 3.9 3.9 3.9 2.1 0 3.9-1.7 3.9-3.9V72h4.6v11.6c0 2.1 1.7 3.9 3.9 3.9s3.9-1.7 3.9-3.9V72h4.6v11.6c0 2.1 1.7 3.9 3.9 3.9 2.1 0 3.9-1.7 3.9-3.9V66.8c-.1-.9-.9-1.7-1.8-1.7zM20.7 76.3c-.6-.4-1.2-.7-1.7-.9 1.2-.6 2.8-2 2.8-4.5 0-.9 0-5.9-7-5.9H4.4c-.4 0-.6.3-.6.6v21.1c0 .4.3.6.6.6h11c7.1 0 7.6-5.3 7.6-6.4 0-2.3-1.1-3.7-2.3-4.6zm-10.1-6.1h2.3c.5 0 1.1 0 1.6.3.5.2.8.6.8 1.5 0 1-.7 1.7-2.5 1.7h-2.3v-3.5h.1zm2.6 12.2h-2.6v-3.7h2.6c1.9 0 2.9.8 2.9 1.8 0 1.2-.9 1.9-2.9 1.9zm219-19c3.4 0 5.6-1.4 6.9-3.3.2-.3.1-.7-.2-.9l-3.3-1.7c-.3-.1-.6 0-.8.3-.7.9-1.6 1.4-2.6 1.4s-1.9-.5-2.6-1.4c-.2-.3-.6-.4-.8-.3l-3.3 1.7c-.3.2-.4.6-.2.9 1.3 1.9 3.5 3.3 6.9 3.3zm-169.6 7c1.7 0 3.3.8 4.4 2.2.2.2.7.2.9 0l3.1-3.9c.2-.2.2-.7 0-.9-2.2-1.9-5.2-3-8.4-3-6.5 0-11.4 4.5-11.4 11.6C51.2 81.1 54 88 62.6 88c3.7 0 6.4-1.3 8.4-3.1.2-.3.2-.7 0-1l-3-3.7c-.2-.2-.7-.2-.9 0-1.2 1.4-3 2.1-4.5 2.1-2.3 0-4.6-1.9-4.6-5.9 0-3.4 1.7-6 4.6-6zm-25.5-5.7c-6.5 0-11.4 4.5-11.4 11.6 0 4.7 2.8 11.6 11.4 11.6 8.6 0 11.4-6.9 11.4-11.6 0-7.1-4.8-11.6-11.4-11.6zm0 17.6c-2.3 0-4.6-1.9-4.6-6 0-3.4 1.7-6 4.6-6 2.9 0 4.6 2.7 4.6 6 .1 4.1-2.3 6-4.6 6zm145.3-17.2h-5.5c-.4 0-.6.3-.6.6v7.8h-6.6v-7.8c0-.4-.3-.6-.6-.6h-5.5c-.3 0-.6.3-.6.6v21.1c0 .4.3.6.6.6h5.5c.4 0 .6-.3.6-.6v-8.2h6.6v8.2c0 .4.3.6.6.6h5.5c.4 0 .6-.3.6-.6V65.7c0-.3-.2-.6-.6-.6zm59.2 0h-5.8c-.2 0-.4.1-.6.3L229 77V65.7c0-.4-.3-.6-.6-.6h-5.5c-.3 0-.6.3-.6.6v21.1c0 .4.3.6.6.6h5.8c.2 0 .5-.1.6-.3l6.2-11.6v11.3c0 .4.3.6.6.6h5.5c.4 0 .6-.3.6-.6V65.7c0-.3-.3-.6-.6-.6zm-118.4-.4c-6.5 0-11.4 4.5-11.4 11.6 0 4.7 2.8 11.6 11.4 11.6 8.6 0 11.4-6.9 11.4-11.6 0-7.1-4.9-11.6-11.4-11.6zm0 17.6c-2.3 0-4.6-1.9-4.6-6 0-3.4 1.7-6 4.6-6 2.9 0 4.6 2.7 4.6 6 0 4.1-2.3 6-4.6 6zm93.1-17.2h-5.5c-.4 0-.6.3-.6.6v21.1c0 .4.3.6.6.6h5.5c.4 0 .6-.3.6-.6V65.7c.1-.3-.2-.6-.6-.6zm-18 8.2h-3.2v-7.5c0-.4-.3-.6-.6-.6H189c-.4 0-.6.3-.6.6v21.1c0 .4.3.6.6.6h9.4c5.8 0 8.9-2.5 8.9-7.2-.1-4.7-3.2-7-9-7zm-.6 9.1h-2.6v-4h2.6c.5 0 1.2 0 1.7.3.5.2.9.7.9 1.6.1 1.7-1.6 2.1-2.6 2.1zm-40.8-17.3h-5.5c-.4 0-.6.3-.6.6v9.2c-5.3.8-6.2-1.1-6.2-2.7v-6.5c0-.4-.3-.6-.6-.6h-5.5c-.3 0-.5.2-.6.5V70c0 2.4.1 5 .2 5.9.5 3 3.2 4.2 6 4.5 2.5.3 5.2 0 6.9-.5v6.8c0 .4.3.6.6.6h5.5c.4 0 .6-.3.6-.6v-21c-.1-.3-.4-.6-.8-.6zm168.8 0h-5.5c-.4 0-.6.3-.6.6v7.8H313v-7.8c0-.4-.3-.6-.6-.6h-5.5c-.4 0-.6.3-.6.6v21.1c0 .4.3.6.6.6h5.5c.4 0 .6-.3.6-.6v-8.2h6.6v8.2c0 .4.3.6.6.6h5.5c.4 0 .6-.3.6-.6V65.7c0-.3-.3-.6-.6-.6zm-54.8 8.4h-4.8v-3.3h10.2c.4 0 .6-.3.6-.6v-3.8c0-.4-.3-.6-.6-.6h-16.4c-.4 0-.6.3-.6.6v21.1c0 .4.3.6.6.6h11c7.1 0 7.6-5.2 7.6-7 0-1.8-.5-7-7.6-7zm-2.3 8.9H266v-3.8h2.6c2 0 2.9.7 2.9 1.9s-.8 1.9-2.9 1.9zm75.7-6.1l6.8-10.2c.1-.1.1-.2.1-.4 0-.4-.3-.6-.6-.6h-5.9c-.2 0-.4.1-.5.3l-5.8 9.5v-9.2c0-.4-.3-.6-.6-.6h-5.5c-.4 0-.6.3-.6.6v21.1c0 .4.3.6.6.6h5.5c.4 0 .6-.3.6-.6v-9.2l5.8 9.5c.1.2.3.3.5.3h5.9c.4 0 .6-.3.6-.6 0-.1 0-.3-.1-.4l-6.8-10.1zm-49.2-10.8c-.1-.2-.3-.4-.6-.4h-5.9c-.3 0-.5.2-.6.4l-8 21.1v.2c0 .4.3.6.6.6h5.8c.3 0 .5-.2.6-.5l1-3.3h7.1l1 3.3c.1.3.3.5.6.5h5.8c.4 0 .6-.3.6-.6v-.2l-8-21.1zm-5.6 13.1l2-6.8 2 6.8h-4z" fill="#3A3A3A"/></svg>