<svg width="355" height="154" viewBox="0 0 355 154" fill="none" xmlns="http://www.w3.org/2000/svg"><path d="M101.8 115.8v2.8h3.3v1.2h-3.3v3.6h4.5v1.2h-5.8v-9.9h5.9v1.2h-4.6v-.1z" fill="#9C9C9C"/><path d="M112.4 124.5l-2.5-3.9-2.3 3.9h-1.4l2.9-5.1-2.7-4.8h1.3l2.1 3.7 2.4-3.7h1.4l-3.1 4.8 3.2 5.1h-1.3zM120.6 114.9l-.5 1.2c-.6-.4-1.3-.5-2-.5-.4 0-.8.1-1.2.3-.4.2-.7.5-.9.8-.6.9-.8 1.9-.8 2.9s.2 1.9.8 2.7c.2.3.6.6.9.8.4.2.8.3 1.2.3.4 0 .8-.1 1.2-.2.4-.2.7-.4 1-.8l.7 1c-.4.4-.9.7-1.4.9-.5.2-1.1.3-1.6.3-.6 0-1.2-.1-1.7-.3-.5-.2-1-.6-1.4-1.1-.8-1.1-1.2-2.4-1.1-3.7 0-1.3.4-2.6 1.2-3.7.4-.5.8-.8 1.4-1.1.5-.3 1.1-.4 1.7-.4.8.1 1.7.2 2.5.6zM127.5 124.5v-4.8h-4.3v4.8h-1.4v-9.9h1.4v3.9h4.3v-3.9h1.4v9.9h-1.4zM135.8 124.5l-.7-2.1h-3.7l-.7 2.1h-1.5l4-10h.4l3.7 10h-1.5zm-2.5-7.5l-1.5 4.4h2.9l-1.4-4.4zM144.1 124.6l-5.1-7.2v7.1h-1.3v-9.9h.5l5 6.9v-6.9h1.3v10h-.4zM152.7 115.3l-.6 1.1c-.6-.5-1.3-.7-2-.8-.5 0-.9.1-1.4.3-.4.2-.8.5-1.1.8-.6.8-1 1.9-.9 2.9 0 1 .3 2 .9 2.8.3.3.7.6 1.1.8.4.2.9.3 1.3.2.3 0 .6 0 .9-.1.3-.1.6-.3.8-.5v-2.4h-1.4v-1.1h2.7v4.3c-.4.3-1 .6-1.5.7-.6.2-1.2.3-1.9.3-.6 0-1.2-.1-1.8-.3-.6-.2-1.1-.6-1.5-1.1-.8-1-1.3-2.4-1.2-3.7-.1-1.4.4-2.7 1.3-3.7.4-.5 1-.9 1.6-1.1.6-.2 1.3-.4 1.9-.3 1.2-.1 2.1.2 2.8.9zM155.9 115.8v2.8h3.3v1.2h-3.3v3.6h4.5v1.2h-5.8v-9.9h5.9v1.2h-4.6v-.1z" fill="#9C9C9C"/><path d="M129.8 24.4c-2.1.6-4.3.6-6.4-.1-2.1-.7-3.9-1.9-5.2-3.6-1.4-1.7-2.2-3.8-2.3-5.9-.2-2.2.3-4.3 1.3-6.2 1.1-1.9 2.6-3.4 4.6-4.4 1.9-1 4.1-1.4 6.3-1.1 2.2.2 4.2 1.1 5.9 2.5 1.7 1.4 2.9 3.3 3.5 5.4.4 1.4.5 2.8.4 4.3-.2 1.4-.6 2.8-1.3 4.1-.7 1.3-1.6 2.4-2.8 3.3-1.3.6-2.6 1.3-4 1.7z" fill="#58585A"/><path d="M126.5 12.1c2.9 15.9-13.4 46.7-41 75.2-32.8 33.9-69.1 51.9-81.1 40.2-5.4-5.2-5-15.6 0-28.5-3.3 10.2-3 18.3 1.9 22.6 12.2 10.7 48.1-7 80.2-39.5 26.3-26.5 41.8-54.7 40-70z" fill="#9C9C9C"/><path d="M61.1 87.8c.1 3.5-.7 7-2.2 10.2-1.4 2.9-3.4 5.4-5.9 7.4-2.6 2-5.6 3.5-8.7 4.4-3.5 1-7 1.5-10.6 1.5-2.4 0-4.8-.2-7.1-.6-2-.4-3.9-.9-5.8-1.5-1.5-.5-2.9-1.1-4.2-1.9-.9-.5-1.7-1.1-2.4-1.7-.6-.6-.9-1.3-1.1-2.1-.2-1.3-.3-2.7-.3-4 0-1.2 0-2.2.1-3 0-.7.2-1.3.4-1.9.1-.4.4-.8.7-1.1.3-.2.6-.3 1-.3.8.1 1.6.4 2.3.9 1.2.8 2.5 1.5 3.8 2.1 1.8.9 3.6 1.6 5.5 2.1 2.4.7 4.8 1 7.3.9 1.7 0 3.3-.2 4.9-.7 1.3-.4 2.6-1 3.7-1.9 1-.8 1.8-1.8 2.4-3 .5-1.2.8-2.6.8-3.9 0-1.6-.4-3.1-1.4-4.3-1-1.3-2.2-2.4-3.6-3.2-1.6-1-3.3-1.9-5-2.6-1.9-.8-3.8-1.7-5.8-2.6-2-.9-3.9-2-5.8-3.2-1.9-1.2-3.6-2.6-5-4.2-1.5-1.7-2.7-3.7-3.6-5.8-1-2.5-1.4-5.2-1.4-8-.1-3.2.6-6.4 2-9.4 1.3-2.6 3.1-4.9 5.3-6.7 2.4-1.8 5-3.2 7.9-4 3.1-.9 6.4-1.3 9.7-1.3 3.5 0 6.9.5 10.2 1.5 1.4.4 2.8.9 4.1 1.6.9.4 1.6.8 2.4 1.4.3.3.6.6.8 1 .2.3.3.7.3 1.1.1.5.2 1.1.2 1.7 0 .7.1 1.5.1 2.5 0 1.1 0 2-.1 2.8 0 .6-.1 1.3-.3 1.9-.1.4-.3.8-.6 1.1-.2.2-.3.3-.7.3-.8-.1-1.6-.4-2.3-.8-.9-.5-2-1.1-3.4-1.7-1.5-.7-3.1-1.3-4.6-1.7-1.9-.5-3.8-.8-5.8-.8-1.5 0-2.9.2-4.3.6-1.1.3-2.2.9-3.1 1.7-.8.7-1.4 1.6-1.8 2.6-.4 1-.6 2.1-.6 3.2 0 1.5.4 3 1.3 4.3 1 1.3 2.2 2.4 3.6 3.2 1.6 1 3.4 1.9 5.1 2.6 1.9.8 3.9 1.7 5.9 2.6 2 .9 4 2 5.9 3.2 1.9 1.1 3.6 2.6 5.1 4.2 1.5 1.7 2.7 3.6 3.6 5.6.7 2.4 1.1 5.1 1.1 7.7zM113.4 58.4c.1 3.8-.6 7.5-2 11-1.2 3.1-3.2 5.9-5.7 8.1-2.7 2.3-5.8 4-9.2 5.1-4.1 1.2-8.4 1.8-12.8 1.7h-6.1V108c0 .4-.1.7-.4 1-.3.4-.8.6-1.2.8-.7.2-1.5.4-2.3.5-1.2.1-2.4.2-3.7.2-1.2 0-2.4 0-3.6-.2-.8-.1-1.6-.2-2.4-.5-.5-.1-.9-.4-1.2-.8-.2-.3-.3-.7-.3-1V41.3c-.1-.7 0-1.5.3-2.2.2-.7.6-1.3 1.1-1.9.5-.5 1.1-.8 1.7-1 .6-.2 1.3-.3 2-.3h17.5c1.8 0 3.4.1 5 .2 1.9.2 3.8.5 5.7.9 2.3.5 4.6 1.3 6.7 2.4 2.2 1.1 4.2 2.7 5.8 4.5 1.6 1.9 2.9 4 3.7 6.4 1 2.6 1.5 5.3 1.4 8.1zm-15.7 1.1c.1-2.2-.4-4.4-1.4-6.4-.8-1.5-1.9-2.8-3.4-3.8-1.3-.8-2.7-1.3-4.2-1.5-1.5-.2-3-.3-4.6-.3h-6.4v25.2h6.8c2.1.1 4.1-.3 6.1-1 1.5-.6 2.9-1.5 4-2.7 1.1-1.2 1.9-2.6 2.4-4.2.4-1.7.7-3.5.7-5.3z" fill="#58585A"/><path d="M166.4 87.8c0 2.4-.3 4.9-1.1 7.2-.7 2-1.7 4-3 5.7-1.3 1.7-2.8 3.1-4.6 4.2-1.8 1.2-3.8 2.2-5.9 2.9-2.2.8-4.5 1.4-6.9 1.7-2.7.4-5.4.6-8.1.5h-19.7c-1.2 0-2.3-.4-3.2-1.1-.9-.8-1.3-2-1.3-3.6V40.6c0-1.7.4-2.9 1.3-3.6.9-.7 2-1.1 3.2-1.1h18.6c3.9-.1 7.8.3 11.6 1.1 2.9.6 5.6 1.8 8 3.5 2.1 1.5 3.8 3.5 5 5.9 1.2 2.6 1.7 5.5 1.7 8.3 0 1.7-.2 3.4-.7 5.1-.4 1.5-1.1 3-2 4.3-.9 1.3-2 2.5-3.2 3.4-1.3 1-2.8 1.8-4.4 2.4 2 .4 4 1 5.8 2 1.8.9 3.3 2.2 4.6 3.7 1.4 1.6 2.4 3.4 3.2 5.3.8 2.3 1.2 4.6 1.1 6.9zm-19.5-31.2c0-1.4-.2-2.7-.7-4-.4-1.1-1.1-2.2-2.1-3-1-.8-2.2-1.4-3.5-1.8-1.8-.5-3.7-.7-5.6-.6h-7.6v19.3h8.4c1.8.1 3.5-.2 5.2-.8 1.2-.5 2.3-1.2 3.2-2.1.9-.9 1.5-2 1.9-3.2.6-1.2.8-2.5.8-3.8zm3.9 31.7c0-1.6-.3-3.1-.9-4.6-.5-1.3-1.4-2.5-2.5-3.4-1.3-1-2.7-1.7-4.2-2.1-2.2-.5-4.5-.8-6.7-.7h-8.9v21.1h10.9c1.8 0 3.6-.2 5.3-.7 1.4-.4 2.6-1.1 3.7-2 1.1-.9 1.9-2 2.5-3.2.5-1.3.8-2.8.8-4.4z" fill="#58585A"/></svg>