<svg width="355" height="154" viewBox="0 0 355 154" fill="none" xmlns="http://www.w3.org/2000/svg"><path fill-rule="evenodd" clip-rule="evenodd" d="M71.4463 51c-5.7942 0-11.7563 1.9185-15.955 5.9224-5.1224 4.9214-7.4737 12.095-7.6416 19.0183-.1679 5.9224 1.0077 11.9282 4.1987 17.0164 2.4352 4.0038 6.382 7.1739 10.9166 8.6749 5.0384 1.668 10.5807 1.752 15.7031.417 5.5423-1.585 10.2448-5.4217 12.764-10.4265 3.359-6.1726 4.0307-13.4296 3.0231-20.2696-.8398-5.4218-3.191-10.8437-7.3058-14.6808-4.0307-3.7536-9.573-5.5887-15.1153-5.6721-.1679.0834-.3358 0-.5878 0zM2 52.9185v48.2965h8.3134V68.7671l25.2761 32.4479h6.8859V52.9185h-7.8936v26.609l-20.9934-26.609H2zm108.83 0L93.1956 101.215h8.5654l11.924-32.6147 12.176 32.6147h12.932l-18.306-48.2131h-9.657v-.0834zm18.474 0l-3.023 8.258 4.367 11.5111 1.595-4.1707 11.841 32.6151h13.435l-18.222-48.2135h-9.993zm29.391 0c0 11.1775-.084 22.3549 0 33.5323.252 4.421 1.68 8.9253 5.039 11.9282 3.442 3.17 8.397 4.337 13.099 4.588 4.451.167 8.986-.251 13.016-2.252 3.779-1.8355 6.466-5.4223 7.558-9.3428 1.344-4.5043.672-9.3423.84-14.0135V52.9185h-8.817v31.6138c0 3.0863-.336 6.5897-2.772 8.9253-2.519 2.1687-6.13 2.1687-9.237 1.7517-2.939-.4171-5.29-2.7527-5.878-5.5053-1.008-3.8371-.42-7.7575-.588-11.5945V53.0019c-4.114-.0834-8.145-.0834-12.26-.0834zm47.613 0v48.2135h12.176V59.675c2.604.0834 5.291-.2502 7.81.2503 2.435.417 4.619 2.1687 5.29 4.5877.924 2.5024.924 5.5053-.084 8.0077-1.007 2.419-3.61 3.6702-6.13 4.1707-1.595.3337-3.275.5005-4.87.6673 4.199 7.9243 8.397 15.932 12.596 23.8563h13.016c-3.863-7.0901-7.642-14.1803-11.505-21.2704 3.275-1.1678 6.466-2.9195 8.146-6.0058 1.511-2.6693 1.763-5.839 1.595-8.7585-.419-4.0038-2.771-7.8409-6.298-9.8428-3.023-2.0019-6.801-2.419-10.328-2.2522-7.222-.1668-14.276-.1668-21.414-.1668zm60.126 0l-19.063 48.2965h8.314l5.206-13.3461h17.467l5.29 13.3461H297l-19.398-48.2131h-11.168v-.0834zM71.7822 57.6731c.7558 0 1.5116.1668 2.1834.4171 4.0307 1.2512 6.5499 4.9214 7.6416 8.675 1.2596 3.7536 1.5115 7.7575 1.4275 11.6779-.1679 5.2551-1.1756 10.8438-4.8705 14.9311-1.7634 1.7516-4.1147 3.1697-6.7179 3.0863-4.5345.0834-8.0615-3.6702-9.657-7.5073-2.1833-5.3384-2.4352-11.1774-1.8474-16.7661.5878-4.5044 2.0154-9.2589 5.6263-12.3452 1.7634-1.5015 4.0307-2.2522 6.214-2.1688zm197.8428 8.1745l5.962 15.1813h-11.925l5.963-15.1813zM117.044 84.3655l-6.214 16.8495h7.81l2.351-6.3394-3.947-10.5101z" fill="#58585A"/></svg>