<svg width="355" height="154" viewBox="0 0 355 154" fill="none" xmlns="http://www.w3.org/2000/svg"><path d="M35.3 61.3V91c0 .9.7 1.6 1.6 1.6.9 0 1.6-.7 1.6-1.6v-9.7H50.2c1.1 0 2.2-.2 3.3-.5.7-.2 1.6-.5 2.4-1.1 1.1-.7 2.2-1.6 2.9-3.1.7-1.3 1.1-2.9 1.1-4.7 0-2.4-.5-4.4-1.5-5.8-.7-1.1-1.5-2-2.4-2.7-1.3-.9-2.7-1.5-3.8-1.6-.7-.4-1.6-.4-1.8-.4H35.3v-.1zm15.1 3.5s.5 0 1.3.2c.5.2 1.1.2 1.6.5.9.4 1.6.9 2.4 2 .7.9 1.1 2.4 1.1 4.6 0 1.3-.2 2.2-.5 2.9-.2.5-.5.9-.9 1.3-.5.5-1.3.9-2.2 1.3-.9.4-1.8.4-2.7.5H39V65.2l11.4-.4z" fill="#2E2D30"/><path d="M60 115.1c0-2.4-.5-4.4-1.5-5.8-.7-1.1-1.5-2-2.4-2.7-1.3-.9-2.7-1.5-3.8-1.6-1.1-.1-2-.2-2.2-.2h-15v29.7c0 .9.7 1.6 1.6 1.6.9 0 1.6-.7 1.6-1.6v-9.7H50c.9 0 2-.2 3.1-.4 1.6-.5 3.3-1.3 4.6-2.9.7-.7 1.1-1.6 1.6-2.7.6-1.4.7-2.5.7-3.7zm-4 2.7c-.4.5-.5 1.1-1.1 1.5-.5.5-1.5 1.1-2.2 1.3-.9.4-1.6.4-2.4.4H38.6v-13h11.7s.5 0 1.3.2c.5.2 1.1.2 1.6.5.9.4 1.6.9 2.4 2 .7.9 1.1 2.4 1.1 4.6-.1.9-.3 1.8-.7 2.5z" fill="#87888A"/><path d="M68.1 92.7c.9 0 1.6-.7 1.6-1.6v-9.7H79l10.9 10.9c.7.7 1.8.7 2.4 0 .7-.7.7-1.8 0-2.4l-8.7-8.7c.4 0 .5-.2.9-.2 1.6-.5 3.3-1.3 4.6-2.9.7-.7 1.1-1.6 1.6-2.7.4-1.1.5-2.2.5-3.5 0-2.4-.5-4.4-1.5-5.8-.7-1.1-1.5-2-2.4-2.7-1.3-.9-2.7-1.5-3.8-1.6-1.1-.4-1.8-.4-2.2-.4H66.2V91c0 .9.8 1.7 1.9 1.7zm13.3-27.9c.2 0 .5 0 1.3.2.5.2 1.1.2 1.6.5.9.4 1.6.9 2.4 2 .7.9 1.1 2.4 1.1 4.6 0 1.3-.2 2.2-.5 2.9-.4.5-.5 1.1-1.1 1.5-.5.5-1.5 1.1-2.2 1.3-.9.4-1.6.4-2.4.4H69.9v-13h11.5v-.4z" fill="#2E2D30"/><path d="M117.4 124c.4 0 .5-.2.9-.2 1.6-.5 3.3-1.3 4.6-2.9.7-.7 1.1-1.6 1.6-2.7.4-1.1.5-2.2.5-3.5 0-2.4-.5-4.4-1.5-5.8-.7-1.1-1.5-2-2.4-2.7-1.3-.9-2.7-1.5-3.8-1.6-1.1-.2-2-.2-2.2-.2H100V134c0 .9.7 1.6 1.6 1.6.9 0 1.6-.7 1.6-1.6v-9.7h9.1l10.9 10.9c.7.7 1.8.7 2.4 0 .7-.7.7-1.8 0-2.4l-8.2-8.8zm-13.8-3.1V108h11.7s.5 0 1.3.2c.5.2 1.1.2 1.6.5.9.4 1.6.9 2.4 2 .7.9 1.1 2.4 1.1 4.6 0 1.3-.2 2.2-.5 2.9-.4.5-.5 1.1-1.1 1.5-.5.5-1.5 1.1-2.2 1.3-.9.4-1.6.4-2.4.4-7.2-.5-10.3-.5-11.9-.5zM251.8 124.2c.4 0 .5-.2.9-.2 1.6-.5 3.3-1.3 4.6-2.9.7-.7 1.1-1.6 1.6-2.7.4-1.1.5-2.2.5-3.5 0-2.4-.5-4.4-1.5-5.8-.7-1.1-1.5-2-2.4-2.7-1.3-.9-2.7-1.5-3.8-1.6-1.1-.1-2-.2-2.2-.2h-15.1v29.7c0 .9.7 1.6 1.6 1.6.9 0 1.6-.7 1.6-1.6v-9.7h9.1l10.9 10.9c.7.7 1.8.7 2.4 0 .7-.7.7-1.8 0-2.4l-8.2-8.9zm-13.6-3.3V108h11.7s.5 0 1.3.2c.5.2 1.1.2 1.6.5.9.4 1.6.9 2.4 2 .7.9 1.1 2.4 1.1 4.6 0 1.3-.2 2.2-.5 2.9-.4.5-.5 1.1-1.1 1.5-.5.5-1.5 1.1-2.2 1.3-.9.4-1.6.4-2.4.4h-11.3c-.4-.5-.6-.5-.6-.5z" fill="#87888A"/><path d="M102.5 61.3c-.9 0-1.6.7-1.6 1.6V91c0 .9.7 1.6 1.6 1.6.9 0 1.6-.7 1.6-1.6V63c0-.9-.7-1.7-1.6-1.7z" fill="#2E2D30"/><path d="M92.3 49.3c.9 0 1.6-.7 1.6-1.6 0-.9-.7-1.6-1.6-1.6H73V20.2c0-.9-.7-1.6-1.6-1.6-.9 0-1.6.7-1.6 1.6v29.1h22.5z" fill="#58585A"/><path d="M115.2 61.5c-.7.2-1.1.9-1.1 1.6v28.1c0 .9.7 1.6 1.6 1.6.9 0 1.6-.7 1.6-1.6V67.3l13.1 13.1c.7.7 1.8.7 2.4 0L146 67.3v24.2c0 .9.7 1.6 1.6 1.6.9 0 1.6-.7 1.6-1.6V63.2c0-.7-.4-1.3-1.1-1.6-.7-.2-1.5-.2-1.8.4l-14.8 14.8L116.6 62c-.1-.7-.8-.7-1.4-.5zM181.2 64.8c.9 0 1.6-.7 1.6-1.6 0-.9-.7-1.6-1.6-1.6H157V93h24.2c.9 0 1.6-.7 1.6-1.6 0-.9-.7-1.6-1.6-1.6h-20.8V79.2h16.4c.9 0 1.6-.7 1.6-1.6 0-.9-.7-1.6-1.6-1.6h-16.4V65.5h20.8v-.7z" fill="#2E2D30"/><path d="M226 108c.9 0 1.6-.7 1.6-1.6 0-.9-.7-1.6-1.6-1.6h-24.2V136H226c.9 0 1.6-.7 1.6-1.6 0-.9-.7-1.6-1.6-1.6h-20.8v-10.6h16.4c.9 0 1.6-.7 1.6-1.6 0-.9-.7-1.6-1.6-1.6h-16.4v-10.4H226v-.6z" fill="#87888A"/><path d="M10.5 18.3c-.9 0-1.6.7-1.6 1.6v114c0 .9.7 1.6 1.6 1.6.9 0 1.6-.7 1.6-1.6V20c0-.9-.7-1.7-1.6-1.7z" fill="#2E2D30"/><path d="M158 104.5h-27.9c-.9 0-1.6.7-1.6 1.6 0 .9.7 1.6 1.6 1.6h12.2v26c0 .9.7 1.6 1.6 1.6.9 0 1.6-.7 1.6-1.6V108h12.2c.9 0 1.6-.7 1.6-1.6 0-.9-.2-1.9-1.3-1.9zM292.1 125.8c-.2-1.1-.5-2.2-1.3-2.9-.9-1.3-2.2-2.2-3.6-2.9-1.5-.7-3.1-1.1-4.7-1.3-1.6-.2-3.3-.4-4.7-.7-2.4-.5-4.4-1.3-5.8-2.2-.7-.4-1.1-.9-1.5-1.3-.4-.4-.4-.7-.4-1.1v-.2c0-.9.2-1.6.7-2.2.4-.4.7-.9 1.3-1.3.9-.5 2-1.1 3.5-1.3 1.3-.4 2.9-.4 4.4-.4 1.6 0 3.5.2 4.9.5 1.5.4 2.9.9 3.6 1.5.7.5 1.8.2 2.4-.5.5-.7.2-1.8-.5-2.4-1.3-.9-2.9-1.5-4.7-1.8-1.8-.3-3.8-.5-5.8-.5-3.1 0-6.2.5-8.7 1.8-1.3.7-2.4 1.5-3.3 2.7-.9 1.1-1.3 2.6-1.3 4.2v.4c0 .7.2 1.5.5 2.2.5 1.3 1.5 2.2 2.6 2.9 1.6 1.1 3.6 1.8 5.8 2.6 2.2.5 4.6.9 6.7 1.3 1.8.2 3.5.7 4.6 1.5.5.4 1.1.7 1.3 1.3.4.4.5.9.5 1.5v.5c0 .5-.2 1.1-.4 1.6-.4.9-1.3 1.6-2.7 2.4-1.5.7-3.3 1.1-6 1.1-2.9 0-6.4-.5-10.7-2-.9-.4-1.8.2-2.2 1.1-.4.9.2 1.8 1.1 2.2 4.7 1.5 8.6 2.2 11.8 2.2 4 0 7.1-.9 9.3-2.6 1.1-.7 1.8-1.8 2.4-2.7.5-1.1.9-2.2.9-3.3.2-1.2 0-1.5 0-1.9zM193.6 104.5c-.9 0-1.6.7-1.6 1.6v23.5L167.6 105c-.5-.5-1.3-.7-1.8-.4-.7.2-1.1.9-1.1 1.6v27.9c0 .9.7 1.6 1.6 1.6.9 0 1.6-.7 1.6-1.6v-23.7l24.4 24.8c.5.5 1.3.7 1.8.4.5-.3 1.1-.9 1.1-1.6v-27.9c.2-.9-.7-1.6-1.6-1.6zM78.6 105.6c-.4-.5-.9-.9-1.5-.9-.5 0-1.1.4-1.5.9l-16.4 27.7c-.5.9-.2 1.8.5 2.4.7.5 1.8.2 2.4-.5l4-6.7H88l4 6.7c.5.9 1.5 1.1 2.4.5.9-.5 1.1-1.5.5-2.4l-16.3-27.7zm-10.4 19.3l8.9-14.9 8.9 14.9H68.2z" fill="#87888A"/><path d="M202.3 46.9L185.9 19c-.4-.5-.9-.9-1.5-.9-.5 0-1.1.4-1.5.9l-16.4 27.9c-.5.9-.2 1.8.5 2.4.9.5 1.8.2 2.4-.5l4.2-6.9h21.7l4.2 6.9c.5.9 1.5 1.1 2.4.5.6-.5.8-1.4.4-2.4zm-26.8-8.7l8.7-14.8 8.7 14.8h-17.4zM230.9 46h-19.5V19.8c0-.9-.7-1.6-1.6-1.6-.9 0-1.6.7-1.6 1.6v29.7h23c.9 0 1.6-.7 1.6-1.6 0-.9-.8-1.9-1.9-1.9zM111.6 49.1c4.4 0 8.2-1.8 10.9-4.6 2.7-2.7 4.6-6.7 4.6-11.1 0-4.4-1.8-8.2-4.6-11.1-2.7-2.7-6.7-4.6-10.9-4.6-4.4 0-8.2 1.8-10.9 4.6-2.7 2.8-4.6 6.7-4.6 11.1 0 4.4 1.8 8.2 4.6 11.1 2.9 2.8 6.7 4.6 10.9 4.6zm-8.4-24.2c2.2-2.2 5.3-3.5 8.6-3.6 3.3 0 6.4 1.3 8.6 3.6 2.2 2.2 3.5 5.3 3.5 8.6s-1.3 6.4-3.5 8.6c-2.2 2.2-5.3 3.5-8.6 3.6-3.3 0-6.4-1.3-8.6-3.6-2.2-2.2-3.5-5.3-3.5-8.6-.1-3.3 1.3-6.4 3.5-8.6zM49.3 49.1c4.2 0 7.8-1.6 10.6-4.2l.5-.5-.2-12H49.5c-.9 0-1.6.7-1.6 1.6 0 .9.7 1.6 1.6 1.6h7.3v7.1c-2.2 1.8-4.7 2.9-7.7 2.9-3.3 0-6.4-1.3-8.6-3.6-2.2-2.2-3.5-5.3-3.5-8.6s1.3-6.4 3.5-8.6c2.2-2.2 5.3-3.5 8.6-3.6 3.3 0 6.2 1.3 8.4 3.5.7.7 1.8.7 2.4 0 .7-.7.7-1.8 0-2.4-2.7-2.7-6.6-4.6-10.9-4.6-4.3 0-8.2 1.8-10.9 4.6-2.7 2.7-4.6 6.7-4.6 11.1 0 4.4 1.8 8.2 4.6 11.1 3 2.8 6.8 4.6 11.2 4.6zM153.3 49.5c.2 0 2.2-.2 4.4-1.1 1.1-.5 2.4-1.3 3.3-2.6.9-1.1 1.6-2.7 1.8-4.7v-.7c0-1.6-.4-3.1-1.1-4.4-.5-.9-1.1-1.6-1.8-2.2-.4-.2-.5-.4-.9-.5.5-.4 1.3-.7 1.8-1.3.5-.5 1.1-1.3 1.5-2.2.4-.9.5-1.8.7-2.9 0-1.8-.5-3.5-1.5-4.6-.7-.9-1.5-1.6-2.4-2.2-1.3-.7-2.6-1.1-3.8-1.5-1.1-.2-2.2-.2-2.7-.2h-18v31.1h18.7zM152 21.8h.5c.4 0 1.1 0 1.8.2.5.2 1.3.2 1.8.5.9.4 1.6.7 2.2 1.5.4.4.5.7.7 1.3.2.2.2.7.4 1.5 0 .5-.2.9-.4 1.5-.4.7-.7 1.3-1.3 1.6-.9.7-2.2 1.1-3.5 1.5-.5.2-1.1.2-1.6.2H137.7v-9.7H152v-.1zm-14.2 13.1H153.1c.4 0 1.1 0 1.8.4 1.1.4 2.2.9 2.9 1.6.4.4.7.9.9 1.5.2.5.4 1.3.4 2.2v.5c-.2 1.3-.5 2-1.1 2.7-.4.5-.9.9-1.5 1.3-.9.5-1.8.7-2.6.9-.4 0-.7.2-.9.2h-15.5l.3-11.3z" fill="#58585A"/></svg>