<svg width="355" height="154" viewBox="0 0 355 154" fill="none" xmlns="http://www.w3.org/2000/svg"><g clip-path="url(#clip0)"><path d="M128.4 59.6l-6.9 10-6.9-10V73h-4.3V51.4h3.4l7.8 11.1 7.9-11.1h3.3V73h-4.3V59.6zM147.8 73.6c-1.6 0-3.1-.3-4.4-.9-1.3-.5-2.6-1.3-3.6-2.4-1-1-1.8-2.2-2.4-3.6-.5-1.4-.8-2.9-.8-4.5s.3-3.2.8-4.5c.5-1.4 1.3-2.6 2.4-3.6 1.1-1 2.2-1.8 3.6-2.4 1.3-.5 2.8-.9 4.4-.9 1.6 0 3.1.3 4.4.9 1.3.5 2.6 1.3 3.6 2.4 1 1 1.8 2.2 2.4 3.6.5 1.4.9 2.9.9 4.5s-.3 3.2-.9 4.5c-.5 1.4-1.3 2.6-2.4 3.6-1 1-2.2 1.8-3.6 2.4-1.3.5-2.8.9-4.4.9zm0-18.5c-.9 0-1.8.2-2.7.5-.8.3-1.5.9-2.2 1.5-.6.6-1.1 1.3-1.4 2.2-.3.9-.5 1.8-.5 2.9 0 1.1.2 2 .5 2.9.3.9.8 1.6 1.4 2.3.6.6 1.3 1.1 2.2 1.5.8.3 1.8.5 2.7.5 1 0 1.9-.2 2.7-.5.8-.3 1.5-.9 2.2-1.5.6-.6 1.1-1.3 1.4-2.2.3-.9.5-1.8.5-2.9 0-1.1-.2-2-.5-2.9-.3-.9-.8-1.6-1.4-2.2-.6-.6-1.3-1.1-2.2-1.5-.8-.5-1.7-.6-2.7-.6zM183.2 67.6c-.5.9-1.1 1.8-1.8 2.6-.7.7-1.4 1.3-2.1 1.8-.9.6-1.8 1-2.8 1.3-.9.3-2 .3-3.2.3-1.5 0-3-.2-4.3-.7-1.4-.5-2.7-1.3-3.8-2.5-.9-.9-1.6-2-2.2-3.4-.6-1.3-.9-2.9-.9-4.6 0-1.5.3-3 .8-4.4.5-1.5 1.3-2.8 2.4-3.8.3-.3.8-.7 1.3-1.1.5-.3 1.1-.7 1.8-1 .7-.3 1.4-.5 2.3-.7.9-.2 1.8-.3 2.9-.3 1.1 0 2.2.1 3.2.4 1 .3 1.8.6 2.6 1.1.7.4 1.3.9 2 1.5s1.2 1.3 1.8 2.1l-3.6 2.6c-.3-.5-.7-.9-1.1-1.4-.4-.5-.9-.9-1.3-1.1-.4-.3-.9-.5-1.5-.6-.6-.1-1.3-.3-2-.3-1 0-2 .1-2.8.5-.8.3-1.5.8-2.2 1.4-.5.5-1 1.2-1.4 2.1-.4.9-.6 2-.6 3.2 0 1.1.2 2.2.6 3 .4.9.9 1.6 1.5 2.2.5.5 1.2.9 2 1.3.8.3 1.7.5 2.7.5.8 0 1.5-.1 2.2-.3.7-.2 1.3-.5 1.9-1 .5-.3.9-.8 1.3-1.3.5-.5.8-1.1 1.1-1.8l3.2 2.4zM195.4 62.3l-3.7 3.2V73h-4.3V51.4h4.3v9l10.4-9h5.7l-9.2 8.1 9.8 13.5h-5.2l-7.8-10.7zM220.6 73.6c-1.6 0-3.1-.3-4.4-.9-1.3-.5-2.6-1.3-3.6-2.4-1-1-1.8-2.2-2.4-3.6-.5-1.4-.8-2.9-.8-4.5s.3-3.2.8-4.5c.5-1.4 1.3-2.6 2.4-3.6 1.1-1 2.2-1.8 3.6-2.4 1.3-.5 2.8-.9 4.4-.9 1.6 0 3.1.3 4.4.9 1.3.5 2.6 1.3 3.6 2.4 1 1 1.8 2.2 2.4 3.6.5 1.4.9 2.9.9 4.5s-.3 3.2-.9 4.5c-.5 1.4-1.3 2.6-2.4 3.6-1 1-2.2 1.8-3.6 2.4-1.3.5-2.8.9-4.4.9zm0-18.5c-.9 0-1.8.2-2.7.5-.8.3-1.5.9-2.2 1.5-.6.6-1.1 1.3-1.4 2.2-.3.9-.5 1.8-.5 2.9 0 1.1.2 2 .5 2.9.3.9.8 1.6 1.4 2.3.6.6 1.3 1.1 2.2 1.5.8.3 1.8.5 2.7.5 1 0 1.9-.2 2.7-.5.8-.3 1.5-.9 2.2-1.5.7-.6 1.1-1.3 1.4-2.2.3-.9.5-1.8.5-2.9 0-1.1-.2-2-.5-2.9-.3-.9-.8-1.6-1.4-2.2-.6-.6-1.3-1.1-2.2-1.5-.9-.5-1.7-.6-2.7-.6zM249.5 51.5c.5.1 1.1.1 1.6.3.5.1 1.1.3 1.6.5.5.3.9.5 1.4 1 .6.6.9 1.2 1.1 1.9.1.7.3 1.2.3 1.7 0 .7-.1 1.2-.2 1.7s-.3.9-.5 1.2c-.2.3-.4.6-.6.8-.2.2-.4.3-.5.5.4.1.8.4 1.2.7.4.3.8.8 1.2 1.4.3.5.5 1.1.7 1.6.1.5.2 1.1.2 1.7 0 1.1-.2 2.2-.5 2.9-.4.7-.8 1.3-1.3 1.8-.9.9-1.8 1.5-2.8 1.7-1 .2-2 .3-3 .3h-13.3V51.4H248c.4 0 .9 0 1.5.1zm-.1 7.9c.4-.1.7-.1.9-.3l.5-.5c.2-.3.3-.7.3-1.2 0-.2-.1-.5-.1-.8-.1-.3-.3-.6-.7-.8-.1-.1-.3-.1-.5-.2s-.4-.1-.6-.1c-.2 0-.4-.1-.5-.1h-8.3v4.2h8c.3-.1.6-.1 1-.2zm.9 9.6c.5-.1.9-.2 1.3-.5.3-.3.5-.6.7-1 .1-.4.3-.9.3-1.3 0-.6-.1-1.1-.3-1.4-.2-.3-.3-.5-.5-.5-.3-.3-.7-.5-1.2-.5-.5-.1-.9-.1-1.4-.1h-8.7v5.6h8.5c.3-.3.8-.3 1.3-.3zM281.6 67.6c-.5.9-1.1 1.8-1.8 2.6-.7.7-1.4 1.3-2.1 1.8-.9.6-1.8 1-2.8 1.3-1 .3-2 .3-3.2.3-1.5 0-3-.2-4.3-.7-1.4-.5-2.7-1.3-3.8-2.5-.9-.9-1.6-2-2.2-3.4-.6-1.3-.9-2.9-.9-4.6 0-1.5.3-3 .8-4.4.5-1.5 1.3-2.8 2.4-3.8.3-.3.8-.7 1.3-1.1.5-.4 1.1-.7 1.8-1 .7-.3 1.4-.5 2.3-.7.9-.2 1.8-.3 2.9-.3 1.1 0 2.2.1 3.2.4 1 .3 1.8.6 2.6 1.1.7.4 1.3.9 2 1.5s1.2 1.3 1.8 2.1l-3.6 2.6c-.3-.5-.7-.9-1.1-1.4-.4-.5-.9-.9-1.3-1.1-.4-.3-.9-.5-1.5-.6-.6-.1-1.3-.3-2-.3-1 0-2 .1-2.8.5-.8.3-1.5.8-2.2 1.4-.5.5-1 1.2-1.4 2.1-.4.9-.6 2-.6 3.2 0 1.1.2 2.2.6 3 .4.9.9 1.6 1.5 2.2.5.5 1.2.9 2 1.3.8.3 1.7.5 2.7.5.8 0 1.5-.1 2.2-.3.7-.2 1.3-.5 1.9-1 .5-.3.9-.8 1.3-1.3.5-.5.8-1.1 1.1-1.8l3.2 2.4zM293.9 62.3l-3.7 3.2V73h-4.3V51.4h4.3v9l10.4-9h5.7l-9.2 8.1 9.8 13.5h-5.2l-7.8-10.7zM325.7 67.6h-9.8l-2.6 5.4h-4.7l10.6-21.6h3.2L333.1 73h-4.7l-2.7-5.4zm-7.8-4.1h5.7l-2.9-5.8-2.8 5.8zM339.9 73h-5.1l5.7-9c-.7-.1-1.3-.3-2-.7-.7-.3-1.2-.7-1.7-1.2-.6-.6-1-1.3-1.2-2.1-.2-.7-.3-1.5-.3-2.2 0-.7.1-1.5.3-2.3.2-.8.7-1.5 1.3-2.3.5-.5 1-.9 1.5-1.1.5-.3 1.1-.5 1.6-.6.5-.1 1.1-.2 1.5-.2.4 0 .9-.1 1.4-.1h12V73h-4.3v-8.6h-5.5l-5.2 8.6zm2.8-17.6c-.3 0-.7 0-1.1.1-.3.1-.7.2-1 .5-.2.1-.4.3-.6.7-.2.3-.3.7-.3 1.1 0 .8.3 1.4.8 1.9.5.4 1.3.7 2.4.7h7.9v-4.9h-8.1v-.1zM128.8 81.2v4.1h-14.2v3.8h6.2c.9 0 1.7 0 2.4.1.8 0 1.5.1 2.2.2.7.1 1.3.3 2 .6.6.3 1.1.7 1.7 1.1.7.7 1.1 1.3 1.4 2.2.3.8.4 1.7.4 2.6 0 1.3-.2 2.3-.7 3.1-.4.8-.9 1.4-1.4 1.9-.5.5-1.2.9-2.1 1.3-.9.4-2.1.6-3.4.6h-13V81.2h18.5zm-5.7 17.6c.3 0 .7-.1 1.2-.1.5-.1.9-.3 1.3-.6.3-.3.5-.5.7-.9.1-.4.3-.8.3-1.2 0-.4-.1-.9-.3-1.2-.1-.4-.4-.7-.7-.9-.3-.3-.7-.5-1.1-.5-.4-.1-.9-.1-1.2-.1h-8.7v5.6l8.5-.1zM138.3 102.9h-3V81.2h4.3v14l11-14h3v21.6h-4.3v-14l-11 14.1zM171.2 81.2c1.4 0 2.6.2 3.4.6.9.4 1.5.8 2 1.3.4.4.8 1 1.2 1.8.3.7.5 1.8.5 3s-.2 2.2-.5 3c-.4.8-.8 1.4-1.2 1.9-.4.4-.9.8-1.3 1-.5.3-.9.4-1.3.5-.4.1-.9.2-1.3.3-.4.1-.7.1-1.1.1h-8.4v8.3H159V81.2h12.2zm-.3 9.2c.3 0 .7 0 1.1-.1.5-.1.8-.3 1.1-.5.1-.1.3-.3.5-.6s.3-.8.3-1.4c0-.5-.1-.9-.3-1.2-.2-.3-.3-.5-.5-.6-.3-.3-.7-.5-1-.5-.4-.1-.7-.1-1.1-.1h-7.8v5.1l7.7-.1zM189.8 92.9l-5.9 10h-5.3l8.2-13-7.6-8.7h5.2l7.5 8.8v-8.8h4.2V90l7.5-8.8h5.3l-7.6 8.7 8.2 13h-5.3l-5.9-10-2.1 2.3v7.7H192V95l-2.2-2.1zM227.8 97.5H218l-2.6 5.4h-4.7l10.6-21.6h3.2l10.7 21.6h-4.7l-2.7-5.4zm-7.8-4.1h5.7l-2.9-5.8-2.8 5.8z" fill="#000"/><path d="M88.8 32.5h-89v89h89v-89z" fill="#C8C8C8"/><path d="M21.8 61.1v31.6l7.5 4.9 15-15 15 15 7.5-4.9V61.1l-7.5-4.2-15 15-15-15-7.5 4.2zm27.9 16.1l9.6-9.6v19.3l-9.6-9.7zm-20.3 9.6V67.6l9.6 9.6-9.6 9.6z" fill="#fff"/><path d="M47.1 74.5l-5.4 5.4-7.3-7.3 5.3-5.3 7.4 7.2z" fill="url(#paint0_linear)"/><path d="M41.7 79.9l5.4-5.4 7.3 7.3-5.3 5.3-7.4-7.2z" fill="url(#paint1_linear)"/><path d="M48.1 68.2l5.3 5.4-12.7 12.6-5.3-5.3 12.7-12.7z" fill="#fff"/></g><defs><linearGradient id="paint0_linear" x1="37.1366" y1="69.9286" x2="44.3795" y2="77.1715" gradientUnits="userSpaceOnUse"><stop stop-color="#fff"/><stop offset="1" stop-color="#C8C8C8"/></linearGradient><linearGradient id="paint1_linear" x1="51.6792" y1="84.4712" x2="44.4366" y2="77.2285" gradientUnits="userSpaceOnUse"><stop stop-color="#fff"/><stop offset="1" stop-color="#C8C8C8"/></linearGradient><clipPath id="clip0"><path fill="#fff" d="M0 0h355v154H0z"/></clipPath></defs></svg>