<svg width="355" height="154" viewBox="0 0 355 154" fill="none" xmlns="http://www.w3.org/2000/svg"><g clip-path="url(#clip0)" fill="#3A3A3A"><path d="M104.152 20l-9.9716 10.0626V20h-9.972L66.9841 36.8617v43.8766h6.3458V40.4878L86.928 27.071v53.6673h7.2524V40.4878L107.779 27.071v53.6673h6.345V20h-9.972zM19.8439 27.4336v46.9589H6.2458v-33.542l13.5981-13.4169zM-.1 80.7383h27.1963V20h-9.972L-.1 36.8617v43.8766zM39.7878 27.2523H53.386v47.1402H39.7878V27.2523zM60.6383 20H33.4421v60.7383h27.1962V20zM114.124 87.9907H-.1v6.3458h114.224v-6.3458zM39.7879 121.533H6.2458v-13.598h33.5421v13.598zM-.1 100.682v33.542h6.3458v-6.345h40.7944v-27.197H-.1zM106.872 121.533H86.928v-13.598h19.944v13.598zm-46.2337-13.598h19.9439v13.598H60.6383v-13.598zm-7.2523-7.253v27.197h27.1962v6.345h6.3458v-6.345h27.196v-27.197H53.386zM219.283 82.5514h-5.439v8.1589h5.802c2.538 0 4.079-1.6318 4.079-4.0795 0-2.4476-1.541-4.0794-4.079-4.0794h-.363zm.907 13.5981h-12.692V66.2336h19.944v4.5328h-13.598v6.3457h6.164c6.074 0 9.791 3.8982 9.791 9.4281 0 5.5299-3.717 9.428-9.791 9.428M247.93 74.3019l-3.808 10.9691h7.525l-3.717-10.9691zm7.071 21.8476l-1.813-5.4392h-10.879l-1.813 5.4392h-5.892l10.878-29.9159h4.533l10.878 29.9159h-5.892zM282.832 96.1495V83.4579h-9.972v12.6916h-5.439V66.2336h5.439v11.7851h9.972V66.2336h6.346v29.9159h-6.346zM298.243 96.1495V66.2336h5.439v14.2328l8.884-14.2328h6.527l-9.246 14.0514L320 96.1495h-6.527l-9.791-15.5925v15.5925h-5.439zM167.61 20h-6.346v114.224h6.346V20z"/></g><defs><clipPath id="clip0"><path fill="#fff" d="M0 0h355v154H0z"/></clipPath></defs></svg>