<svg width="355" height="154" viewBox="0 0 355 154" fill="none" xmlns="http://www.w3.org/2000/svg"><path d="M97.5 77.8c5.4 0 8.3-4.2 8.3-8 0-4-2.9-8-8.3-8H88v16h9.5zM81.7 56.2h16.4c8.3 0 13.9 6.9 13.9 13.7 0 6.9-5.6 13.9-13.9 13.9H87.9V95h-6.2V56.2zM135.2 77.8c0-2.9-2.3-6.7-7.2-6.7-4.8 0-7.5 3.4-7.7 6.7h14.9zm-21.4 3c0-8.2 5.6-14.7 14.3-14.7 8.9 0 13.3 7.6 13.3 15.2v1.5H120c.8 4.8 5 7.6 10.6 7.6 3.5 0 6.4-1.1 8.9-2.5V93c-2.3 1.7-6 2.7-10.1 2.7-8.7 0-15.6-5.9-15.6-14.9zM146.7 66.7h6.3v10.9h14V66.7h6.3v28.2H167V83.1h-14v11.8h-6.3V66.7zM199.8 77.8c0-2.9-2.3-6.7-7.2-6.7-4.8 0-7.5 3.4-7.7 6.7h14.9zm-21.4 3c0-8.2 5.6-14.7 14.3-14.7 8.9 0 13.3 7.6 13.3 15.2v1.5h-21.3c.8 4.8 5 7.6 10.6 7.6 3.5 0 6.4-1.1 8.9-2.5V93c-2.3 1.7-6 2.7-10.1 2.7-8.8 0-15.7-5.9-15.7-14.9zM209.5 80.8c0-8.8 6.8-14.7 15.1-14.7 3.3 0 5.8.6 8.3 1.9v5.3c-2.5-1.3-4.8-1.9-7.5-1.9-5.4 0-9.9 3.8-9.9 9.5s4.3 9.5 9.9 9.5c3.1 0 5.6-.6 7.9-2.1v5.3c-2.7 1.5-5.4 2.3-8.9 2.3-8.1-.2-14.9-6.3-14.9-15.1zM236.4 80.8c0-8.8 6.8-14.7 15.1-14.7 3.3 0 5.8.6 8.3 1.9v5.3c-2.5-1.3-4.8-1.9-7.5-1.9-5.4 0-9.9 3.8-9.9 9.5s4.3 9.5 9.9 9.5c3.1 0 5.6-.6 7.9-2.1v5.3c-2.7 1.5-5.4 2.3-8.9 2.3-7.8-.2-14.9-6.3-14.9-15.1zM284 82.7h-7.2c-3.9 0-6.6.8-6.6 3.6 0 3.2 2.7 4.2 6 4.2s6.4-1.7 7.9-3.4v-4.4h-.1zm10.2 6.9v4.6c-.8.6-2.3.8-3.5.8-2.7 0-5-1.3-5.8-4-2.1 2.3-5.4 4.4-10.1 4.4-5.8 0-10.4-3.4-10.4-9.5 0-6.3 4.6-8.2 10.6-8.2h9.5v-.4c0-4.8-3.9-6.1-8.1-6.1-3.3 0-6.6 1.3-8.7 2.5v-5.5c2.1-1.1 5.2-2.3 10.1-2.3 7.5 0 12.8 3.6 12.8 10.7v10.5c0 1.7 1 2.7 2.3 2.7 0 .3.7.3 1.3-.2zM298.5 66.7h6.2v10.9h14.1V66.7h6.2v28.2h-6.2V83.1h-14.1v11.8h-6.2V66.7zM330.2 80.8c0-8.8 6.8-14.7 15.1-14.7 3.3 0 5.8.6 8.3 1.9v5.3c-2.5-1.3-4.8-1.9-7.5-1.9-5.4 0-9.9 3.8-9.9 9.5s4.3 9.5 9.9 9.5c3.1 0 5.6-.6 7.9-2.1v5.3c-2.7 1.5-5.4 2.3-8.9 2.3-8.1-.2-14.9-6.3-14.9-15.1z" fill="#040505"/><path d="M81.7 110.1h2.9v5.4l5-5.4h3.5l-5.8 6.3 6.9 7.5h-3.6l-5.8-6.3v6.3h-3.1v-13.8zM103.7 115.9c1.2 0 2.1-.6 2.1-1.7s-.8-1.7-2.1-1.7h-2.9v3.4h2.9zm-5.8-5.8h6c2.9 0 4.8 1.7 4.8 4.2s-1.9 4.2-4.8 4.2h-3.1v5.5h-2.9v-13.9zM112.8 110.1h9.9v2.5h-7.2v2.7h5.8v2.5h-5.8v3.6h7.6v2.5h-10.3v-13.8zM136.8 121.4v-8.8h-3.9c0 2.9-.2 5.9-1.4 8.8h5.3zm-9.9 0h1.2c1.2-1.9 1.9-4.4 1.9-9.1v-2.1h9.5v11.4h1.9v5.5h-2.7v-2.7h-9.3v2.7h-2.7v-5.7h.2zM145.7 110.1h2.9v9l6.6-9h2.5v13.8H155v-9l-7 9h-2.3v-13.8zM173 110.1v2.5h-4.3v11.3h-2.9v-11.3h-4.3v-2.5H173z" fill="#1D1E1E"/><path d="M55.6 46.9H25c-2.9.1-6 .7-8.7 1.7-2.6 1-4.9 2.5-7 4.3-3.8 3.3-6.4 7.5-7.6 12.4-.3.9-.7 3.3-.7 5.3v39h9V71.1c0-.8 0-1.6.2-2.4.5-3.1 1.8-5.7 3.8-8 1.4-1.5 3.2-2.8 5.1-3.6 1.8-.8 3.6-1.2 5.5-1.2h21.6v14.8s0 1.3-.1 1.9c-.5 3.8-2.3 7-5.2 9.5-2.9 2.4-6.3 3.6-10.1 3.6H19.2l-3.4 9h15.6c.8 0 1.6 0 2.4-.1 2.5-.3 4.8-.9 7.1-1.8 3.4-1.5 6.3-3.6 8.8-6.4 1.9-2.2 3.4-4.7 4.4-7.4.9-2.4 1.5-4.8 1.5-7.4V46.9z" fill="url(#paint0_linear)"/><defs><linearGradient id="paint0_linear" x1=".9706" y1="78.2494" x2="55.581" y2="78.2494" gradientUnits="userSpaceOnUse"><stop stop-color="#767676"/><stop offset="1" stop-color="#8E8F8F"/></linearGradient></defs></svg>