<svg width="355" height="154" viewBox="0 0 355 154" fill="none" xmlns="http://www.w3.org/2000/svg"><path d="M51.9 77c0 14.2-11.6 25.8-25.8 25.8C11.9 102.8.2 91.2.2 77 .2 62.8 11.8 51.2 26 51.2c14.2 0 25.9 11.6 25.9 25.8z" fill="#3F3F3F"/><path d="M24.7 62.8s2.1 1.3.7 3C24 67.5 23 67.9 22.9 69c0 0-.9-1 .3-2.4 1.3-1.5 2.3-2.2 1.5-3.8z" fill="#fff"/><path d="M26.1 65.6s-.1 1.1-1.8 2.1-.9 1.4-.9 1.3c.1-.1 2.3-.2 2.7-3.4zM22.6 62.2s.9-.1.9.3c.1 1-1 1.9-2.3 3-1.6 1.3-1.4 1.8-1.4 1.9 0 .1-1-1.1.2-2.3 0-.2 2.2-1.7 2.6-2.9zM22.3 62.2L19.4 65c0-.1-.2-2.3 2.9-2.8zM44.8 90.4h-5c-.2 0-.4-.2-.4-.5V78.4c0-3.4-.5-4.5-2.4-4.5-1.2 0-3.1 1.1-4.5 2.6v13.4c0 .2-.2.4-.5.5h-4.1c-.2 0-.4-.2-.5-.5V71c0-.2.2-.4.5-.5H32c.2 0 .4.2.5.5v1.9c2.1-1.7 4.5-3 6.7-3 4.1 0 6.1 2.3 6.1 7.2v12.8c0 .3-.2.5-.5.5zM18.3 62.5c-.9-.2-1.7-.3-2.6-.3-5.7 0-7 3.3-7 7.2v20.5c0 .2.2.4.5.5h4.1c.2 0 .4-.2.5-.5V74.5h2.6c.2-.2.4-.4.4-.7V71c.1-.2-.4-.5-.4-.5h-2.7v-1.2c0-2.5.7-3.3 2.7-3.3.3 0 .6 0 1 .1.2 0 .5-.1.6-.4 0-.2.6-2.1.8-3-.2.1-.3-.1-.5-.2zM26.5 89.9V70.6c0-.3-.2-.5-.4-.5-2.4-.3-4.6-.3-7 0-.2.1-.4.3-.4.5v2.9c0 .2.2.4.4.4.9-.1 1.7-.1 2.6-.1V90c0 .2.2.4.4.5h4.1c.1-.1.3-.3.3-.6z" fill="#fff"/><path d="M82.6 75.8c-1.7-1.5-4.3-2.3-7.5-2.3h-5v-7.9H82v-4H66.1v29.7h9.1c3.4 0 5.9-.8 7.5-2.3 1.6-1.5 2.5-3.8 2.5-6.7 0-2.9-.9-5-2.6-6.5zm-7.8 11.6H70v-9.9h4.7c1.4-.1 2.7.3 3.8 1.2.9.8 1.4 2 1.4 3.8 0 1.8-.5 3.1-1.4 3.8-.9.8-2.3 1.2-3.7 1.1zM96.1 69.7c-1.5 0-3 .2-4.3.8-1.2.6-2.2 1.4-3 2.5l-.2.3.3.2 2.3 1.6.3.2.2-.3c.5-.6 1.1-1.2 1.9-1.5.7-.4 1.6-.6 2.4-.6 1-.1 2.1.3 2.9 1 .7.7 1 1.8 1 3.3-1.3 0-2.6.1-3.9.3-1.4.2-2.7.6-4 1.2-1.2.5-2.2 1.3-3.1 2.3-.8 1.1-1.3 2.4-1.2 3.8 0 1 .2 2 .7 2.9.4.8.9 1.5 1.6 2.1.7.6 1.5 1 2.3 1.2.9.3 1.8.4 2.7.4 1.1 0 2.1-.2 3.1-.6.7-.3 1.4-.7 2-1.2l-.1 1h4v-13c-.2-2.8-.9-4.7-2.2-5.9-1.4-1.4-3.4-2-5.7-2zm3.6 10.7V86c-.6.5-1.3 1-2 1.3-.8.4-1.7.6-2.6.6-.4 0-.9-.1-1.3-.2s-.8-.3-1.1-.6c-.4-.3-.6-.6-.9-1-.2-.5-.4-1-.3-1.5 0-.8.2-1.6.8-2.2.6-.6 1.3-1 2.1-1.3.9-.3 1.8-.5 2.8-.7.8.1 1.7.1 2.5 0zM121.8 70.6h-.3V78.5h-8.9V70.6H108.6V91.3h4v-9.8h8.9v9.8H125.4V70.6H121.8zM140.6 79.8c.3-.4.6-.8.8-1.2.3-.6.7-1.5 1.3-2.6.3-.8.8-1.5 1.4-2 .5-.3 1.1-.5 1.7-.5h1.6v-3H145c-.7 0-1.4.1-2.1.2-.3.1-.7.2-.9.4-.6.4-1.1.9-1.5 1.5-.5.7-.9 1.4-1.2 2.1-.4.8-.7 1.5-1 2-.2.4-.4.8-.7 1.1-.2.2-.4.4-.6.5-.2.1-.5.1-.7.1h-2.1v-7.9h-4v19.8h4v-8.9h2.7l6.2 8.8.1.1h4.5l-.4-.5-6.7-10zM172.9 65.7v-4.1h-4v4.1c-3.5.2-6.2 1.2-8.1 3-1.9 1.8-3.1 4.5-3.1 7.8 0 3.4 1 5.9 3 7.8 2 1.9 4.6 2.9 8.2 3.1v4h4v-4c3.6-.2 6.3-1.2 8.2-3.1 1.9-1.9 3-4.5 3-7.8s-1-5.9-3-7.8c-1.9-1.8-4.6-2.8-8.2-3zm-11.3 10.8c0-2.4.7-4.2 2.1-5.4 1.5-1.2 3.4-1.9 5.2-1.9v14.5c-1.9 0-3.8-.7-5.1-1.9-1.5-1-2.2-2.9-2.2-5.3zm18.6 0c0 2.5-.7 4.4-2.1 5.5-1.5 1.2-3.4 1.9-5.2 1.8V69.3c.9 0 1.9.2 2.8.5.9.3 1.7.8 2.4 1.4.7.6 1.2 1.4 1.6 2.3.3.8.5 1.9.5 3zM202 70.6h-.4V73.2l-8.9 10.4v-13h-4V91.3h4V88.7l8.9-10.4v13h3.9V70.6H202zM223.6 70.6h-.3V78.5h-8.9V70.6H210.5V91.3h3.9v-9.8h8.9v9.8H227.3V70.6H223.6zM246.8 84.4l-.3-.2-.2.3c-.5 1-1.2 1.9-2.2 2.6-.8.5-1.7.7-2.6.8-.8 0-1.6-.2-2.3-.5-.7-.3-1.4-.8-1.9-1.4-.6-.7-1-1.5-1.3-2.4-.7-2.1-.7-4.3 0-6.3.3-.9.7-1.7 1.3-2.4.5-.6 1.1-1.1 1.8-1.4.6-.3 1.3-.5 2-.5.9 0 1.8.3 2.6.8 1 .7 1.7 1.6 2.2 2.7l.2.4.3-.2 2.4-1.5.2-.1-.1-.3c-.2-.6-.5-1.1-.9-1.6-.4-.6-1-1.2-1.5-1.7-.7-.6-1.5-1-2.3-1.3-1-.4-2-.5-3.1-.5-1.2 0-2.3.2-3.4.6-1.2.4-2.2 1.1-3.1 2-1 1-1.7 2.1-2.2 3.4-.6 1.6-.9 3.3-.8 4.9 0 1.6.2 3.2.8 4.7.5 1.2 1.2 2.4 2.2 3.3.9.9 2 1.6 3.1 2 1.2.4 2.4.7 3.6.7 1.6 0 3.1-.4 4.5-1.2 1.5-.9 2.7-2.2 3.4-3.8l.1-.3-.3-.2-2.2-1.4zM267.7 72.5c-.8-1-1.8-1.7-2.9-2.2-1.3-.5-2.7-.8-4.1-.8-1.3 0-2.6.2-3.8.8-1.1.5-2.1 1.3-2.9 2.2-.8 1-1.5 2.2-1.9 3.4-.5 1.4-.7 2.9-.7 4.4 0 3.6.9 6.2 2.7 8.1 1.8 1.9 4.3 2.8 7.3 2.8 1.8.1 3.5-.4 4.9-1.3 1.2-.8 2.3-2 3-3.3l.2-.3-.3-.2-2.2-1.4-.3-.2-.2.3c-.5.8-1.2 1.6-2.1 2.1-.9.6-1.9.9-3 .8-1.8.1-3.5-.6-4.6-2-1.1-1.5-1.7-3.4-1.6-5.2h14.3v-.3c.1-1.5-.1-2.9-.5-4.3 0-1.3-.6-2.5-1.3-3.4zm-7 .5c.6 0 1.2.1 1.7.3 1.2.4 2.1 1.3 2.6 2.4.3.6.4 1.2.4 1.8h-9.6c.2-1.3.8-2.5 1.8-3.4.8-.7 1.9-1.1 3.1-1.1zM290 72.4c-.7-1-1.6-1.8-2.7-2.4-1.3-.6-2.6-.9-4-.9-1.1 0-2.2.2-3.2.5-.9.3-1.7.7-2.5 1.2l-.2-.9v-.3h-3.8v28.7h4v-8c1.2.4 2.4.5 3.7.5 1.4 0 2.9-.3 4.2-.8 1.3-.5 2.4-1.3 3.4-2.3 1-1 1.7-2.2 2.2-3.5.6-1.5.8-3 .8-4.5 0-1.4-.1-2.7-.5-4-.2-1.2-.7-2.4-1.4-3.3zm-2.3 8c0 1.1-.2 2.2-.5 3.3-.3.9-.8 1.7-1.5 2.4-.6.6-1.4 1.1-2.2 1.5-.9.4-1.9.5-2.8.5-.6 0-1.3-.1-1.9-.3-.4-.1-.8-.3-1.1-.5V74.8c.6-.6 1.3-1 2.1-1.4.8-.4 1.6-.6 2.5-.6.9 0 1.8.2 2.6.7.7.4 1.3 1 1.7 1.7.4.7.8 1.6.9 2.4.1 1 .2 1.9.2 2.8zM310.8 81.6c-.4-.4-.9-.7-1.4-.9-.2-.1-.3-.1-.5-.2.6-.3 1.1-.8 1.4-1.3.7-1 1-2.2 1-3.4.1-1.5-.6-3-1.7-4-1.1-.9-2.8-1.4-4.9-1.4h-9.1v20.8h9.9c.9 0 1.8-.1 2.7-.4.8-.3 1.5-.7 2.1-1.2.6-.5 1.1-1.2 1.4-1.9.4-.8.5-1.7.5-2.6 0-.7-.1-1.5-.4-2.2-.3-.4-.6-.9-1-1.3zm-6.8-3.1h-4.5v-4.9h4.8c1.8 0 2.6.7 2.6 2.3.1 1.4-.9 2.6-2.3 2.7-.1-.1-.3-.1-.6-.1zm-4.5 3h5.6c1-.1 2 .2 2.8.9.6.5 1 1.3 1 2.1 0 .7-.1 1.3-.5 1.9-.1.1-.2.3-.3.4-.4.3-.8.5-1.3.6-.4.1-.9.2-1.3.1h-6v-6zM329.6 70.6h-.4V73.2l-8.9 10.4v-13h-4V91.3h4V88.7l8.9-10.4v13h3.9V70.6h-3.5zM354.7 85.9l-2.3-1.4-.3-.2-.2.3c-.5 1-1.2 1.9-2.2 2.6-.8.5-1.7.7-2.6.8-.8 0-1.6-.2-2.3-.5-.7-.3-1.4-.8-1.9-1.5-.6-.7-1-1.5-1.3-2.4-.7-2.1-.7-4.3 0-6.3.3-.9.7-1.7 1.3-2.4.5-.6 1.1-1.1 1.8-1.4.6-.3 1.3-.5 2-.5.9 0 1.8.3 2.6.8.9.7 1.7 1.6 2.1 2.7l.2.4.3-.2 2.4-1.5.2-.1-.1-.3c-.2-.6-.5-1.1-.9-1.6-.9-1.4-2.3-2.4-3.8-3-1-.4-2-.5-3.1-.5-1.2 0-2.3.2-3.4.6-1.2.4-2.2 1.1-3.1 2-1 1-1.7 2.1-2.2 3.4-.6 1.6-.9 3.3-.8 4.9 0 1.6.2 3.2.8 4.7.5 1.3 1.2 2.4 2.2 3.4.9.9 2 1.6 3.1 2 1.2.4 2.4.7 3.6.7 1.6 0 3.1-.4 4.5-1.2 1.5-.9 2.7-2.2 3.4-3.8l.1-.3-.1-.2z" fill="#3B3B3B"/></svg>