<svg width="355" height="154" viewBox="0 0 355 154" fill="none" xmlns="http://www.w3.org/2000/svg"><path d="M43.4 87.9h-5.7V60.4h5.7v27.5zM64.8 68.7c1.3 1.1 2 2.9 2 5.5v13.7h-5.5V75.6c0-1.1-.2-1.9-.4-2.4-.6-1-1.5-1.6-3-1.6-1.8 0-3 .8-3.7 2.3-.3.8-.6 1.8-.6 3.1v11h-5.3V67.6h5.1v3c.7-1 1.3-1.8 1.9-2.3 1.1-.8 2.4-1.3 4.2-1.3 2.2.1 3.9.6 5.3 1.7zM69.4 71.6v-3.8h2.8v-5.7h5.3v5.7h3.3v3.8h-3.3v10.7c0 .9.1 1.3.3 1.6.2.2.9.3 2 .3H81v3.9l-2.7.1c-2.5.1-4.3-.3-5.1-1.3-.6-.6-.9-1.6-.9-2.8V71.6h-2.9zM97.2 68c1.4.6 2.6 1.7 3.6 3 .9 1.2 1.3 2.6 1.7 4.2.2.9.2 2.3.2 4h-15c.1 2.1.8 3.5 2.1 4.3.8.5 1.8.8 2.9.8 1.2 0 2.2-.3 2.9-.9.4-.3.8-.8 1.1-1.4h5.5c-.2 1.2-.8 2.4-2 3.7-1.8 2-4.3 3-7.7 3-2.7 0-5.1-.9-7.2-2.5-2.1-1.7-3.1-4.4-3.1-8.1 0-3.6.9-6.2 2.8-8.1 1.9-1.9 4.3-2.8 7.3-2.8 1.9-.1 3.4.2 4.9.8zm-8 4.6c-.8.8-1.3 1.8-1.4 3.2H97c-.1-1.4-.6-2.4-1.4-3.2-.9-.7-1.9-1.1-3.2-1.1-1.4-.1-2.4.3-3.2 1.1zM116.9 67.1h.5v5.5c-.3 0-.6-.1-.9-.1h-.6c-2.1 0-3.6.7-4.3 2.1-.4.8-.6 2-.6 3.6v9.7h-5.4V67.6h5.1v3.6c.8-1.3 1.5-2.3 2.1-2.8 1-.9 2.3-1.3 3.9-1.3h.2zM128.5 75.6c1-.2 1.7-.3 2.1-.5.8-.3 1.2-.8 1.2-1.5 0-.9-.3-1.4-.9-1.7-.6-.3-1.4-.5-2.6-.5-1.3 0-2.2.3-2.7.9-.4.5-.6 1.1-.8 1.9h-5.1c.1-1.8.6-3.2 1.5-4.4 1.4-1.8 3.9-2.7 7.3-2.7 2.2 0 4.3.5 6 1.3 1.7.9 2.6 2.5 2.6 5V85.1c0 .7.2 1.2.3 1.4.2.2.5.5.8.6v.8h-5.8c-.2-.4-.2-.8-.3-1.2-.1-.4-.1-.8-.2-1.3-.7.8-1.6 1.5-2.5 2.1-1.2.6-2.4 1-3.9 1-1.8 0-3.4-.6-4.6-1.6-1.2-1-1.8-2.5-1.8-4.5 0-2.5.9-4.3 2.9-5.5 1.1-.6 2.6-1 4.7-1.3h1.8zm3.3 2.4c-.3.2-.7.4-1 .6-.3.2-.8.2-1.4.4l-1.2.2c-1.1.2-2 .5-2.4.7-.9.5-1.3 1.3-1.3 2.3 0 .9.2 1.6.8 2 .5.4 1.1.6 1.9.6 1.2 0 2.2-.3 3.2-1 .9-.7 1.5-1.9 1.5-3.7l-.1-2.1zM153.8 74.9c-.1-.8-.3-1.4-.8-2.1-.6-.8-1.5-1.3-2.8-1.3-1.8 0-3 .9-3.7 2.7-.3.9-.6 2.2-.6 3.8 0 1.5.2 2.7.6 3.6.6 1.7 1.8 2.5 3.6 2.5 1.3 0 2.1-.3 2.7-1 .6-.7.9-1.6.9-2.6h5.5c-.2 1.7-.7 3.2-1.7 4.6-1.7 2.3-4.1 3.5-7.4 3.5-3.3 0-5.7-.9-7.3-2.9-1.6-2-2.3-4.5-2.3-7.6 0-3.5.9-6.2 2.5-8.1 1.7-2 4-2.9 7.1-2.9 2.5 0 4.7.6 6.2 1.7 1.6 1.2 2.6 3.2 2.9 6.1h-5.4zM161 71.6v-3.8h2.8v-5.7h5.3v5.7h3.3v3.8h-3.3v10.7c0 .9.1 1.3.3 1.6.2.2.9.3 2 .3h1.2v3.9l-2.6.1c-2.5.1-4.3-.3-5.1-1.3-.6-.6-.9-1.6-.9-2.8V71.6h-3zM181.4 65.2H176v-4.9h5.4v4.9zm-5.5 2.4h5.4V88h-5.4V67.6zM198.7 67.6h5.7L197 88h-5.6l-7.3-20.4h6l4.3 15 4.3-15zM219.9 68c1.4.6 2.6 1.7 3.6 3 .9 1.2 1.3 2.6 1.7 4.2.2.9.2 2.3.2 4h-14.9c.1 2.1.8 3.5 2.1 4.3.8.5 1.8.8 2.9.8 1.2 0 2.2-.3 2.9-.9.4-.3.8-.8 1.1-1.4h5.5c-.2 1.2-.8 2.4-2 3.7-1.8 2-4.3 3-7.7 3-2.7 0-5.1-.9-7.2-2.5-2.1-1.7-3.1-4.4-3.1-8.1 0-3.6.9-6.2 2.8-8.1 1.9-1.9 4.3-2.8 7.3-2.8 1.8-.1 3.4.2 4.8.8zm-8 4.6c-.8.8-1.3 1.8-1.4 3.2h9.2c-.1-1.4-.6-2.4-1.4-3.2-.9-.7-1.9-1.1-3.2-1.1-1.3-.1-2.4.3-3.2 1.1zM228.8 60.5h11.8c3.2 0 5.5.9 6.9 2.8.8 1.1 1.2 2.4 1.2 3.9 0 1.7-.5 3.2-1.5 4.3-.5.6-1.3 1.1-2.2 1.6 1.4.6 2.4 1.1 3.2 1.8 1.3 1.2 1.8 2.8 1.8 5 0 1.7-.6 3.4-1.7 4.8-1.7 2.1-4.3 3.2-8 3.2h-11.7V60.5h.2zm10.5 11.6c1.6 0 2.8-.2 3.7-.6 1.4-.7 2.1-1.9 2.1-3.7 0-1.8-.7-3-2.2-3.6-.9-.3-2.1-.6-3.7-.6h-6.7v8.5h6.8zm1.2 12.7c2.3 0 3.9-.6 4.9-2 .6-.9.9-1.8.9-3 0-2-.9-3.3-2.7-4.1-.9-.4-2.2-.6-3.8-.6h-7.4v9.6l8.1.1zM254 67.9h3.2v3.5c.2-.7.9-1.5 1.9-2.4 1-.9 2.2-1.4 3.6-1.4h.3c.2 0 .4 0 .8.1v3.6c-.2 0-.4-.1-.6-.1h-.6c-1.7 0-3 .6-3.9 1.7-.9 1.1-1.3 2.4-1.3 3.8v11.5H254V67.9zM281 69.9c1.7 1.7 2.7 4.3 2.7 7.6 0 3.2-.8 5.9-2.4 8-1.6 2.1-3.9 3.2-7.3 3.2-2.8 0-4.9-.9-6.5-2.8-1.6-1.9-2.4-4.3-2.4-7.5 0-3.4.9-6 2.5-8.1 1.7-2 3.9-3 6.8-3 2.6.1 4.8 1 6.6 2.6zm-2.2 13.4c.8-1.7 1.3-3.6 1.3-5.6 0-1.9-.3-3.4-.9-4.6-.9-1.8-2.5-2.8-4.8-2.8-2.1 0-3.5.8-4.4 2.4-.9 1.6-1.4 3.5-1.4 5.7 0 2.1.5 3.9 1.4 5.3.9 1.4 2.4 2.1 4.4 2.1 2.2 0 3.7-.9 4.4-2.5zM287.4 60.5h3.2v16l8.6-8.5h4.3l-7.7 7.4 8.1 12.6h-4.3l-6.3-10.2-2.8 2.7V88h-3.2l.1-27.5zM318 68.5c1.3.6 2.4 1.5 3 2.6.6 1 1.1 2.2 1.3 3.6.2.9.3 2.4.3 4.4h-14.5c.1 2.1.6 3.6 1.4 4.9.9 1.3 2.3 1.8 4.1 1.8 1.7 0 3.2-.6 4.2-1.7.6-.7 1-1.4 1.3-2.4h3.3c-.1.7-.4 1.6-.9 2.4-.5.9-1 1.7-1.7 2.2-1 1-2.3 1.7-3.8 2.1-.8.2-1.7.3-2.8.3-2.4 0-4.6-.9-6.3-2.7-1.7-1.8-2.6-4.3-2.6-7.6 0-3.2.9-5.8 2.6-7.8 1.7-2 4-3 6.8-3 1.6-.1 2.9.3 4.3.9zm1.2 7.9c-.2-1.4-.5-2.6-.9-3.5-.9-1.7-2.4-2.4-4.6-2.4-1.5 0-2.8.6-3.9 1.7-1 1.1-1.6 2.5-1.7 4.3l11.1-.1zM326.6 67.9h3.2v3.5c.2-.7.9-1.5 1.9-2.4 1-.9 2.2-1.4 3.6-1.4h.3c.2 0 .4 0 .8.1v3.6c-.2 0-.4-.1-.6-.1h-.6c-1.7 0-3 .6-3.9 1.7-.9 1.1-1.3 2.4-1.3 3.8v11.5h-3.4V67.9zM341.3 81.7c.1 1.1.4 2 .9 2.6.9 1.1 2.4 1.7 4.5 1.7 1.3 0 2.4-.2 3.4-.8.9-.6 1.4-1.3 1.4-2.5 0-.9-.4-1.5-1.2-2-.5-.2-1.5-.6-2.9-.9l-2.7-.7c-1.7-.4-3-.9-3.9-1.4-1.5-.9-2.2-2.1-2.2-3.8 0-1.9.7-3.4 2.1-4.6 1.3-1.2 3.2-1.7 5.6-1.7 3.1 0 5.3.9 6.6 2.7.9 1.1 1.3 2.4 1.3 3.6H351c-.1-.8-.3-1.4-.8-2.1-.8-.9-2.1-1.3-4.1-1.3-1.3 0-2.3.2-2.9.7-.6.5-1 1.1-1 1.9 0 .9.5 1.6 1.3 2.1.5.3 1.3.6 2.2.8l2.3.6c2.4.6 4.1 1.2 5 1.7 1.3.9 2 2.2 2 4 0 1.8-.7 3.3-2.1 4.6-1.3 1.3-3.5 2-6.2 2-3 0-5.1-.7-6.4-2.1-1.3-1.3-1.9-3-2.1-5.1h3.1z" fill="#000"/><path d="M0 87.9V63.3l22.4 24.6H0z" fill="url(#paint0_linear)"/><path d="M25.9971 69.3043c.0276-3.7003-2.9497-6.7224-6.65-6.75-3.7003-.0276-6.7224 2.9497-6.75 6.65-.0276 3.7003 2.9497 6.7224 6.65 6.75 3.7003.0276 6.7224-2.9497 6.75-6.65zM0 63.3v24.6l22.4-50.6L0 63.3z" fill="#D8D8D8"/><defs><linearGradient id="paint0_linear" x1="22.4052" y1="75.5996" x2="-.0292" y2="75.5996" gradientUnits="userSpaceOnUse"><stop stop-color="#D8D8D8"/><stop offset="1" stop-color="#969696"/></linearGradient></defs></svg>