<svg width="355" height="154" viewBox="0 0 355 154" fill="none" xmlns="http://www.w3.org/2000/svg"><path d="M1.6 118.7v-14.6h2v6.1h7.9v-6.1h2v14.6h-2v-7H3.6v7h-2zM16 118.7l5.8-14.6H24l6.3 14.6h-2.2l-1.8-4.5H20l-1.6 4.5H16zm4.2-6h5.2l-1.6-4c-.4-1.1-.9-2.2-1.1-2.9-.2.9-.4 1.8-.9 2.7l-1.6 4.2zM32.6 104.1h2v12.8h7.9v-12.8h2v12.8h1.3v5.8H44v-4H32.6v-14.6zM49 104.1h1.8v11.5l8.1-11.5h2v14.6h-1.8V107L51 118.7h-2v-14.6zM64.6 111.5c0-2.5.7-4.3 2-5.6 1.3-1.3 3.1-2 5.2-2 1.3 0 2.7.2 3.8.9 1.1.7 2 1.6 2.5 2.7.7 1.1.9 2.5.9 3.8 0 1.6-.2 2.7-.9 4-.7 1.1-1.6 2-2.7 2.7-1.1.7-2.5.9-3.6.9-1.3 0-2.7-.2-3.8-.9-1.1-.7-2-1.6-2.5-2.7-.7-1.3-.9-2.4-.9-3.8zm2 0c0 1.8.4 3.1 1.6 4.3.9 1.1 2.2 1.6 3.6 1.6 1.6 0 2.7-.4 3.8-1.6.9-1.1 1.6-2.5 1.6-4.3 0-1.1-.2-2.2-.7-3.1-.4-.9-1.1-1.6-1.8-2-.9-.4-1.8-.7-2.7-.7-1.3 0-2.7.4-3.6 1.3-1.4.7-1.8 2.3-1.8 4.5zM82.6 118.7v-14.6h2v6.1h7.9v-6.1h2v14.6h-2v-7h-7.9v7h-2zM97 118.7l5.8-14.6h2.2l6.3 14.6h-2.2l-1.8-4.5h-6.7l-1.6 4.5h-2zm4.2-6h5.2l-1.6-4c-.4-1.1-.9-2.2-1.1-2.9-.2.9-.4 1.8-.9 2.7l-1.6 4.2zM115 104.1h9.4v14.6h-2v-12.8H117v7.4c0 1.6 0 2.7-.2 3.4-.2.7-.4 1.3-.9 1.6-.4.4-1.1.7-1.8.7-.4 0-.9 0-1.6-.2l.4-1.8c.2.2.7.2.9.2.4 0 .9-.2 1.1-.4.2-.2.4-1.1.4-2.2v-10.5h-.3zM128.7 104.1h2v6.3h3.6c1.8 0 2.9.2 3.6.7.7.4 1.3.9 1.6 1.6.2.7.4 1.3.4 2 0 1.1-.4 2-1.1 2.9-.7.9-2.2 1.3-4.5 1.3h-5.8v-14.8h.2zm2 12.8h3.6c1.6 0 2.5-.2 2.9-.7.4-.5.7-1.1.7-1.8s-.2-1.1-.4-1.6c-.2-.4-.7-.7-1.3-.9-.7-.2-1.6-.2-2.7-.2h-2.7c-.1.1-.1 5.2-.1 5.2zM143.5 118.7v-14.6h2v6.1h7.9v-6.1h2v14.6h-2v-7h-7.9v7h-2zM157.9 118.7l5.8-14.6h2.2l6.3 14.6H170l-1.8-4.5H162l-1.6 4.5h-2.5zm4.3-6h5.2l-1.6-4c-.4-1.1-.9-2.2-1.1-2.9-.2.9-.4 1.8-.9 2.7l-1.6 4.2zM184.5 118.7v-6.5H181.2c-.2 0-.7.2-.9.4-.2.2-.7.4-1.1.9-.4.4-.9 1.1-1.3 2l-2 3.1h-2.5l2.7-4c.4-.7 1.1-1.3 1.6-2 .2-.2.7-.4 1.1-.7-1.3-.2-2.5-.7-3.1-1.3-.6-.6-1.1-1.6-1.1-2.7 0-.9.2-1.6.7-2.2.4-.7.9-1.1 1.8-1.3.7-.2 1.8-.4 3.1-.4h6.7v14.6h-2.2v.1h-.2zm0-13h-4.7c-1.1 0-2 .2-2.5.7-.4.4-.7 1.1-.7 1.8 0 .4.2.9.4 1.3s.7.7 1.1.9c.4.2 1.1.2 2.2.2h4.3v-4.9h-.1zM195.5 118.7l5.8-14.6h2.2l6.3 14.6h-2.2l-1.8-4.5h-6.5l-1.6 4.5h-2.2zm4.5-6h5.2l-1.6-4c-.4-1.1-.9-2.2-1.1-2.9-.2.9-.4 1.8-.9 2.7l-1.6 4.2zM222.9 113.6l2 .4c-.4 1.6-1.1 2.7-2.2 3.6-1.1.9-2.5 1.3-4 1.3-1.6 0-2.9-.2-4-.9s-1.8-1.6-2.5-2.7c-.4-1.1-.9-2.5-.9-3.8 0-1.6.2-2.9.9-4s1.6-2 2.7-2.5c1.1-.7 2.5-.9 3.8-.9 1.6 0 2.9.4 3.8 1.1 1.1.7 1.8 1.8 2.2 3.1l-2 .4c-.4-1.1-.9-1.8-1.6-2.2-.7-.4-1.6-.7-2.5-.7-1.1 0-2.2.2-2.9.9-.9.4-1.3 1.3-1.6 2.2-.2.9-.4 1.8-.4 2.7 0 1.3.2 2.2.7 3.1.4.9.9 1.6 1.8 2 .9.4 1.6.7 2.7.7s2-.2 2.9-.9c.2-.9.7-1.8 1.1-2.9zM239.1 113.6l2 .4c-.4 1.6-1.1 2.7-2.2 3.6-1.1.9-2.5 1.3-4 1.3-1.6 0-2.9-.2-4-.9s-1.8-1.6-2.5-2.7c-.4-1.1-.9-2.5-.9-3.8 0-1.6.2-2.9.9-4s1.6-2 2.7-2.5c1.1-.7 2.5-.9 3.8-.9 1.6 0 2.9.4 3.8 1.1 1.1.7 1.8 1.8 2.2 3.1l-2 .4c-.4-1.1-.9-1.8-1.6-2.2-.7-.4-1.6-.7-2.5-.7-1.1 0-2.2.2-2.9.9-.9.4-1.3 1.3-1.6 2.2-.2.9-.4 1.8-.4 2.7 0 1.3.2 2.2.7 3.1.4.9.9 1.6 1.8 2 .9.4 1.6.7 2.7.7s2-.2 2.9-.9c.5-.9.9-1.8 1.1-2.9zM243.4 111.5c0-2.5.7-4.3 2-5.6 1.3-1.3 3.1-2 5.4-2 1.3 0 2.7.2 3.8.9 1.1.7 2 1.6 2.7 2.7.7 1.1.9 2.5.9 3.8 0 1.6-.2 2.7-.9 4-.7 1.1-1.6 2-2.7 2.7-1.1.7-2.5.9-3.8.9-1.3 0-2.7-.2-3.8-.9-1.1-.7-2-1.6-2.5-2.7-.9-1.3-1.1-2.4-1.1-3.8zm2 0c0 1.8.4 3.1 1.6 4.3.9 1.1 2.2 1.6 3.8 1.6 1.6 0 2.7-.4 3.8-1.6.9-1.1 1.6-2.5 1.6-4.3 0-1.1-.2-2.2-.7-3.1-.4-.9-1.1-1.6-1.8-2-.9-.4-1.8-.7-2.7-.7-1.3 0-2.7.4-3.6 1.3-1.3.7-2 2.3-2 4.5zM261.6 104.1h2v12.8h8.1v-12.8h2v12.8h1.3v5.8h-1.8v-4h-11.7v-14.6h.1zM278.3 104.1h1.8v11.5l8.1-11.5h2v14.6h-1.8V107l-8.1 11.5h-2v-14.4zM292.7 118.7l5.8-14.6h2.2l6.3 14.6h-2.2l-1.8-4.5h-6.5l-1.6 4.5h-2.2zm4.5-6h5.2l-1.6-4c-.4-1.1-.9-2.2-1.1-2.9-.2.9-.4 1.8-.9 2.7l-1.6 4.2zM309.6 104.1h2v12.8h8.1v-12.8h2v12.8h1.3v5.8h-1.8v-4h-11.7v-14.6h.1zM326.2 104.1h1.8v11.5l8.1-11.5h2v14.6h-1.8V107l-8.1 11.5h-2v-14.4zM352.5 118.7v-6.5H349.2c-.2 0-.7.2-.9.4-.2.2-.7.4-1.1.9-.4.4-.9 1.1-1.6 2l-2 3.1h-2.5l2.7-4c.4-.7 1.1-1.3 1.6-2 .2-.2.7-.4 1.1-.7-1.6-.2-2.5-.7-3.4-1.3-.7-.7-1.1-1.6-1.1-2.7 0-.9.2-1.6.7-2.2.5-.6.9-1.1 1.8-1.3.7-.2 1.8-.4 3.1-.4h6.7v14.6h-1.8v.1zm0-13h-4.9c-1.1 0-2 .2-2.5.7-.4.4-.9 1.1-.9 1.8 0 .4.2.9.4 1.3s.7.7 1.1.9c.4.2 1.3.2 2.2.2h4.3v-4.9h.3zM0 125.9h2l4.9 9 4.3-9h2l-5.8 11.5c-.7 1.3-1.3 2.2-1.8 2.7-.2.4-.9.7-1.8.7-.4 0-1.1-.2-2-.4v-1.6c.4.2 1.1.4 1.8.4.4 0 .9-.2 1.3-.4s.7-.9 1.1-2l-6-10.9zM25.4 140.6h-2v-5.8c-1.8.7-3.4.9-4.7.9-1.1 0-2-.2-2.9-.7-.9-.4-1.3-1.1-1.6-1.8-.2-.7-.4-1.8-.4-2.9V126h2v4c0 1.6.2 2.7.9 3.1.7.7 1.3.9 2.2.9 1.3 0 2.9-.2 4.5-.9v-7.2h2v14.7zM26.5 140.6l5.8-14.6h2.2l6.3 14.6h-2.2l-1.8-4.5h-6.5l-1.6 4.5h-2.2zm4.5-5.9h5.2l-1.6-4c-.4-1.1-.9-2.2-1.1-2.9-.2.9-.4 1.8-.9 2.7l-1.6 4.2zM52.4 135.6l2 .4c-.4 1.6-1.1 2.7-2.2 3.6-1.1.9-2.5 1.1-4 1.1-1.6 0-2.9-.2-4-.9s-1.8-1.6-2.5-2.7c-.4-1.1-.9-2.5-.9-3.8 0-1.6.2-2.9.9-4s1.6-2 2.7-2.5c1.1-.7 2.5-.9 3.8-.9 1.6 0 2.9.4 3.8 1.1 1.1.7 1.8 1.8 2.2 3.1l-2 .4c-.4-1.1-.9-1.8-1.6-2.2-.7-.4-1.6-.7-2.5-.7-1.1 0-2.2.2-2.9.9-.9.4-1.3 1.3-1.6 2.2-.2.9-.4 1.8-.4 2.7 0 1.3.2 2.2.7 3.1.4.9.9 1.6 1.8 2 .9.4 1.6.7 2.7.7s2-.2 2.9-.9c.2-.7.9-1.6 1.1-2.7zM59.6 140.6v-12.8h-4.9V126h12.1v1.8h-5.2v12.8h-2zM68.2 140.6V126h2v6.1h7.9V126h2.2v14.6h-2v-7h-7.9v7h-2.2zM83 125.9h1.8v11.5l8.1-11.5h2v14.6h-1.8V129L85 140.6h-2v-14.7zM97.9 125.9h2v6.3c.9 0 1.6-.2 2-.4.4-.4.9-1.1 1.3-2.5.4-.9.7-1.6 1.1-2 .2-.4.7-.7 1.1-.9.4-.2 1.1-.4 1.6-.4h1.1v1.6h-.8c-.7 0-1.1.2-1.3.4-.2.2-.7.9-1.1 2-.4 1.1-.9 2-1.3 2.2-.4.2-.7.7-1.3.7.9.2 2 1.1 2.9 2.7l3.1 4.9h-2.5l-2.5-4c-.7-1.1-1.3-1.8-1.8-2.2-.4-.4-1.1-.7-1.8-.7v6.7h-2v-14.4h.2zM108.9 133.6c0-2.5.7-4.3 2-5.6 1.3-1.3 3.1-2 5.4-2 1.3 0 2.7.2 3.8.9 1.1.7 2 1.6 2.7 2.7.7 1.1.9 2.5.9 3.8 0 1.6-.2 2.7-.9 4-.7 1.1-1.6 2-2.7 2.7-1.1.7-2.5.9-3.8.9-1.3 0-2.7-.2-3.8-.9-1.1-.7-2-1.6-2.5-2.7-.9-1.3-1.1-2.7-1.1-3.8zm2 0c0 1.8.4 3.1 1.6 4.3.9 1.1 2.2 1.6 3.8 1.6 1.6 0 2.7-.4 3.8-1.6.9-1.1 1.6-2.5 1.6-4.3 0-1.1-.2-2.2-.7-3.1-.4-.9-1.1-1.6-1.8-2-.9-.4-1.8-.7-2.7-.7-1.3 0-2.7.4-3.6 1.3-1.5.7-2 2.2-2 4.5zM125.5 140.6V126h5.8c1.1 0 2 .2 2.9.4.7.2 1.3.7 1.6 1.3.4.7.7 1.3.7 2s-.2 1.1-.4 1.8c-.4.4-.9.9-1.6 1.3.9.2 1.6.7 2.2 1.3.4.7.7 1.3.7 2.2 0 .7-.2 1.3-.4 1.8-.2.7-.7 1.1-1.1 1.3-.4.2-.9.4-1.6.7-.7.2-1.6.2-2.5.2 0 .3-6.3.3-6.3.3zm2.1-8.4h3.4c.9 0 1.6 0 2-.2.4-.2.9-.4 1.1-.7.2-.4.4-.7.4-1.3 0-.4-.2-.9-.4-1.3s-.7-.7-1.1-.7c-.4-.2-1.1-.2-2.2-.2h-3.1v4.4h-.1zm0 6.8h5.1c.4 0 .9-.2 1.1-.4.2-.2.7-.4.7-.9.2-.4.2-.7.2-1.1 0-.4-.2-1.1-.4-1.3-.2-.4-.7-.7-1.1-.9-.4-.2-1.3-.2-2.2-.2h-3.4v4.8zM151.2 127.7v-1.8h1.8v1.8c1.8 0 3.4.7 4.5 1.6 1.1 1.1 1.6 2.2 1.6 3.8 0 1.6-.4 2.7-1.6 3.8-1.1 1.1-2.5 1.6-4.5 1.8v1.8h-1.8v-1.8c-1.8 0-3.1-.7-4.3-1.6-1.1-.9-1.8-2.2-1.8-3.8 0-1.6.7-2.9 1.8-3.8 1.1-1.1 2.5-1.8 4.3-1.8zm0 1.8c-1.1 0-2.2.4-2.9 1.1-.7.7-1.1 1.6-1.1 2.7s.4 2 1.1 2.7c.7.7 1.8 1.1 2.9 1.1v-7.6zm1.8-.2v7.6c1.3 0 2.2-.4 2.9-1.1.7-.7 1.1-1.6 1.1-2.7s-.4-2-1.1-2.7c-.7-.6-1.6-.9-2.9-1.1zM161.5 133.6c0-2.5.7-4.3 2-5.6 1.3-1.3 2.9-2 4.9-2 1.3 0 2.5.2 3.6.9s1.8 1.6 2.5 2.7.9 2.5.9 3.8c0 1.6-.2 2.7-.9 4-.7 1.3-1.3 2-2.5 2.7-1.1.7-2.2.9-3.6.9s-2.7-.2-3.6-.9c-1.1-.7-1.8-1.6-2.5-2.7-.5-1.3-.8-2.7-.8-3.8zm2.1 0c0 1.8.4 3.1 1.3 4.3.9 1.2 2 1.6 3.6 1.6 1.3 0 2.7-.4 3.6-1.6.9-1.1 1.3-2.5 1.3-4.3 0-1.1-.2-2.2-.7-3.1-.4-.9-.9-1.6-1.8-2-.7-.4-1.6-.7-2.7-.7-1.3 0-2.5.4-3.6 1.3-.6.7-1 2.2-1 4.5zM178.8 140.6V126h2v6.1h7.4V126h2v14.6h-2v-7h-7.6v7h-1.8zM195.5 125.9h9v12.8h1.3v5.2H204v-3.4h-9.7v3.4h-1.6v-5.2h1.1c1.1-1.8 1.8-5.4 1.8-10.8v-2h-.1zm7 1.8h-5.2v.7c0 1.3 0 2.9-.2 5.2-.2 2.2-.7 3.8-1.3 5.4h6.7v-11.3zM208.3 133.6c0-2.5.7-4.3 2-5.6 1.3-1.3 2.9-2 4.9-2 1.3 0 2.5.2 3.6.9s1.8 1.6 2.5 2.7.9 2.5.9 3.8c0 1.6-.2 2.7-.9 4-.7 1.3-1.3 2-2.5 2.7-1.1.7-2.2.9-3.6.9s-2.7-.2-3.6-.9c-1.1-.7-1.8-1.6-2.5-2.7-.6-1.3-.8-2.7-.8-3.8zm2 0c0 1.8.4 3.1 1.3 4.3.9 1.1 2 1.6 3.6 1.6 1.3 0 2.7-.4 3.6-1.6.9-1.1 1.3-2.5 1.3-4.3 0-1.1-.2-2.2-.7-3.1-.4-.9-.9-1.6-1.8-2-.7-.4-1.6-.7-2.7-.7-1.3 0-2.5.4-3.6 1.3-.5.7-1 2.2-1 4.5zM225.4 140.6V126h5.4c1.1 0 2 .2 2.7.4.7.2 1.1.7 1.6 1.3.4.7.7 1.3.7 2s-.2 1.1-.4 1.8c-.4.4-.9.9-1.6 1.3.9.2 1.6.7 2 1.3.4.7.7 1.3.7 2.2 0 .7-.2 1.3-.4 1.8-.2.7-.7 1.1-1.1 1.3-.4.2-.9.4-1.6.7-.7.2-1.3.2-2.2.2-.2.3-5.8.3-5.8.3zm2-8.4h3.1c.9 0 1.6 0 1.8-.2.4-.2.9-.4 1.1-.7.2-.4.4-.7.4-1.3 0-.4-.2-.9-.4-1.3s-.7-.7-.9-.7c-.4-.2-1.1-.2-2.2-.2h-2.9v4.4zm0 6.8h4.9c.4 0 .9-.2 1.1-.4.2-.2.4-.4.7-.9.2-.4.2-.7.2-1.1 0-.4-.2-1.1-.4-1.3-.2-.4-.7-.7-1.1-.9-.4-.2-1.1-.2-2.2-.2h-3.4v4.9h.2v-.1zM238.7 133.6c0-2.5.7-4.3 2-5.6 1.3-1.3 2.9-2 4.9-2 1.3 0 2.5.2 3.6.9s1.8 1.6 2.5 2.7.9 2.5.9 3.8c0 1.6-.2 2.7-.9 4-.7 1.1-1.3 2-2.5 2.7-1.1.7-2.2.9-3.6.9s-2.7-.2-3.6-.9c-1.1-.7-1.8-1.6-2.5-2.7-.6-1.3-.8-2.7-.8-3.8zm1.8 0c0 1.8.4 3.1 1.3 4.3.9 1.1 2 1.6 3.6 1.6 1.3 0 2.7-.4 3.6-1.6.9-1.1 1.3-2.5 1.3-4.3 0-1.1-.2-2.2-.7-3.1-.4-.9-.9-1.6-1.8-2-.7-.4-1.6-.7-2.7-.7-1.3 0-2.5.4-3.6 1.3-.3.7-1 2.2-1 4.5zM255.8 125.9h9.4v1.8h-7.4v12.8h-2v-14.6zM265.9 133.6c0-2.5.7-4.3 2-5.6 1.3-1.3 2.9-2 4.9-2 1.3 0 2.5.2 3.6.9s1.8 1.6 2.5 2.7.9 2.5.9 3.8c0 1.6-.2 2.7-.9 4-.7 1.3-1.3 2-2.5 2.7-1.1.7-2.2.9-3.6.9-1.3 0-2.7-.2-3.6-.9-1.1-.7-1.8-1.6-2.5-2.7-.6-1.3-.8-2.7-.8-3.8zm2 0c0 1.8.4 3.1 1.3 4.3.9 1.1 2 1.6 3.6 1.6 1.3 0 2.7-.4 3.6-1.6.9-1.1 1.3-2.5 1.3-4.3 0-1.1-.2-2.2-.7-3.1-.4-.9-.9-1.6-1.8-2-.7-.4-1.6-.7-2.7-.7-1.3 0-2.5.4-3.6 1.3-.5.7-1 2.2-1 4.5zM288 140.6V126h5.2c.9 0 1.6 0 2 .2.7.2 1.1.4 1.6.7.4.2.9.9 1.1 1.3.2.7.4 1.3.4 2 0 1.3-.4 2.2-1.1 3.1-.7.9-2 1.3-4 1.3h-3.4v5.8c0 .2-1.8.2-1.8.2zm1.8-7.7h3.4c1.1 0 2-.2 2.5-.7.4-.4.7-1.1.7-2 0-.7-.2-1.1-.4-1.6-.2-.4-.7-.7-1.1-.9-.2 0-.9-.2-1.6-.2h-3.4l-.1 5.4zM301 125.9h1.8v6.3h3.1c2 0 3.4.4 4 1.3.7.9.9 1.8.9 2.9 0 1.1-.4 2-1.1 2.9-.7.9-2 1.3-4 1.3h-5.2v-14.8h.5v.1zm1.8 13.1h3.1c1.1 0 2-.2 2.5-.7.4-.4.7-1.1.7-2 0-.7-.2-1.1-.4-1.6-.2-.4-.7-.7-1.1-.9-.4-.2-1.3-.2-2.5-.2h-2.5v5.4h.2zm9.9-13.1h1.8v14.6h-1.8v-14.6zM318.1 140.6V126h1.8v6.1h7V126h1.8v14.6h-1.8v-7h-7v7h-1.8zM332.1 125.9h1.8v6.3c.9 0 1.3-.2 1.8-.4.2-.4.7-1.1 1.3-2.5.4-.9.7-1.6.9-2 .2-.4.7-.7 1.1-.9.4-.2.9-.4 1.6-.4h1.1v1.6h-.8c-.7 0-.9.2-1.3.4-.2.2-.7.9-.9 2-.4 1.1-.9 2-1.1 2.2-.2.2-.7.7-1.1.7.9.2 1.8 1.1 2.5 2.7l2.7 4.9h-2.2l-2.2-4c-.7-1.1-1.1-1.8-1.6-2.2-.4-.4-.9-.7-1.6-.7v6.7h-1.8l-.2-14.4zM342 140.6l5.2-14.6h2l5.4 14.6h-2l-1.6-4.5h-5.6l-1.6 4.5H342zm3.8-5.9h4.5l-1.3-4c-.4-1.1-.7-2.2-.9-2.9-.2.9-.4 1.8-.7 2.7l-1.6 4.2zM1.1 44.3h10.6V87H.7s.6-42.9.4-42.7zM158.4 44.3l-16.2 23.4L126 44.3h-12.8l22 33.5-1.1 1.6-6.5.2V87h15.5l28.1-42.7h-12.8zM42.7 44.1v16h-31l6.3 9.2h24.5c-.2 9.2-.2 17.3-.2 17.3h11V44.1H42.7zM228.6 47.9h-18.7v-3.6h-10.3v3.6h-18c-4.9 0-8.8 4-8.8 9V74c0 4.9 4 9 8.8 9h17.3v4h11V57.3h14.8c1.1 0 2.2 1.1 2.2 2.2v11.7c0 1.3-.9 2.2-2.2 2.2h-14.2l4.7 9.4h13.5c4.9 0 8.8-4 8.8-9V56.9c-.2-5-4-9-8.9-9zm-29.5 33.7l-4-8.1h-9.4c-1.1 0-2.2-1.1-2.2-2.2V59.6c0-1.3.9-2.2 2.2-2.2h13.9c-.3 8-.5 18.2-.5 24.2zM343.5 44.3h-35.9c.2-.2-.4 42.7-.4 42.7h11V53.3h21.6c2.7 0 4.9 2.2 4.9 4.9v2.7c0 2.7-2.2 4.9-4.9 4.9H320l4.7 9.2h19.1c6.3 0 11.2-5.2 11.2-11.2v-8.1c-.2-6.2-5.2-11.4-11.5-11.4zM286.8 44.5h-30.1c-6.5 0-11.7 5.2-11.7 11.5v19.3c0 6.3 5.2 11.5 11.7 11.5h30.1c6.5 0 11.7-5.2 11.7-11.5V56c0-6.3-5.1-11.5-11.7-11.5zm-.4 28.6c0 2.9-2.5 5.4-5.6 5.4H263c-3.1 0-5.6-2.5-5.6-5.4v-14c0-2.9 2.5-5.4 5.6-5.4h17.8c3.1 0 5.6 2.5 5.6 5.4v14zM69.7 86.8H57.1l22.3-42.5h15.7l24.5 42.5h-12.8l-4-6.3H84.6l-4.5-9.2h18.2L87.7 53.1l-18 33.7z" fill="#666769"/></svg>