<svg width="355" height="154" viewBox="0 0 355 154" fill="none" xmlns="http://www.w3.org/2000/svg"><path d="M67.2 26H46.9v20.4h20.3V26z" fill="#A0A0A0"/><path d="M.9 26v60.6l20.4-19V46.4h21.5V26H.9z" fill="#7F7F7F"/><path d="M46.7 51.4v22.7H22.1L.9 94.5h66.3V51.4H46.7z" fill="#535353"/><path d="M99.7 46.5c2.7 0 5.1.3 7.2.8 2 .5 3.7 1.2 5.1 1.9 1.4.8 2.5 1.7 3.4 2.8.9 1.1 1.5 2.1 2 3.2s.8 2.2 1 3.3c.2 1.1.3 2.1.3 3.1 0 1.2-.2 2.5-.6 4-.4 1.5-1.1 2.9-2 4.3-1 1.4-2.3 2.6-4.1 3.8-1.8 1.2-3.9 1.9-6.6 2.4l14 19h-8.7L96.9 76.4h-5.3v18.5h-7.2V46.5h15.3zm-8.1 3.2v23.5h4.1c2.3 0 4.4-.2 6.3-.7 1.8-.4 3.5-1.1 4.8-2 1.4-1 2.3-2.1 3.1-3.7.7-1.5 1.1-3.4 1.1-5.5 0-2.4-.4-4.4-1.3-5.9s-2-2.7-3.4-3.6c-1.5-.9-3-1.5-4.8-1.7-1.8-.2-3.7-.5-5.6-.5l-4.3.1zM131.9 49.7h-9.6v-3.2H139v37.9c0 3.2-.4 6-1.2 8.4-.8 2.4-1.9 4.4-3.5 6.1-1.5 1.6-3.4 3.1-5.7 4.2-2.2 1.1-4.8 1.9-7.7 2.5l-1.1-2.8c1.3-.3 2.6-.8 4.1-1.4 1.5-.6 2.6-1.3 3.8-2.1 1.2-.9 2.1-1.8 2.9-3.1.8-1.3 1.3-2.6 1.4-4.2l-.1-42.3zM171.2 95.8c-2.4 0-4.6-.3-6.9-.9-2.2-.6-4.3-1.5-6.2-2.5-1.9-1.1-3.7-2.4-5.2-4-1.5-1.5-2.9-3.3-4.1-5.1-1.2-1.8-2-3.9-2.6-6.1-.6-2.1-1-4.4-1-6.8 0-2.4.3-4.5 1-6.7.6-2.1 1.5-4.2 2.6-6 1.2-1.8 2.5-3.6 4.1-5.1 1.5-1.5 3.3-2.9 5.2-4 1.9-1.1 4-1.9 6.2-2.5 2.2-.6 4.4-.9 6.9-.9 2.3 0 4.6.3 6.9.9 2.3.6 4.3 1.5 6.2 2.5 1.9 1 3.7 2.4 5.2 4 1.5 1.5 2.9 3.3 4.1 5.1 1.2 1.8 2 3.9 2.6 6 .6 2.1 1 4.4 1 6.7s-.3 4.6-1 6.8c-.6 2.1-1.5 4.2-2.6 6.1-1.2 1.8-2.4 3.6-4.1 5.1-1.5 1.5-3.3 2.9-5.2 4-1.9 1.1-4 1.9-6.2 2.5-2.2.6-4.6.9-6.9.9zm0-3.2c3 0 5.5-.6 7.8-1.7 2.2-1.2 4.2-2.7 5.7-4.7s2.7-4.4 3.5-7.1c.8-2.7 1.2-5.6 1.2-8.7 0-3.1-.4-6-1.2-8.6-.8-2.7-1.9-5-3.5-7-1.5-1.9-3.4-3.6-5.7-4.6-2.3-1.2-4.9-1.7-7.8-1.7-3 0-5.7.6-7.9 1.7-2.2 1.2-4.2 2.7-5.7 4.6-1.5 1.9-2.7 4.4-3.5 7-.8 2.7-1.2 5.6-1.2 8.6 0 3.1.4 6 1.2 8.7.8 2.7 1.9 5 3.5 7.1 1.5 2 3.4 3.6 5.7 4.7 2.3 1.1 4.9 1.7 7.9 1.7z" fill="#7F7F7F"/><path d="M201.2 46.4h6.7v5.2c0 .9-.2 1.7-.5 2.4s-.8 1.3-1.4 1.7c-.6.5-1.3.9-2 1.2-.7.3-1.5.4-2.5.4h-3.3v-3c.7 0 1.2 0 1.5-.1.4 0 .7-.1.9-.3.2-.2.3-.5.4-.8.1-.4.1-.9.1-1.5l.1-5.2c-.1 0 0 0 0 0zM217.4 95.3V46.4h15.3c2.6 0 4.9.3 6.8.7 1.9.5 3.5 1.2 4.6 2 1.3.9 2.1 2 2.7 3.3.6 1.3.9 2.7.9 4.3 0 1.1-.2 2-.6 3-.4 1-1 1.9-1.8 2.7-.9.9-2 1.5-3.4 2.1-1.5.6-3.2 1.1-5.3 1.3v.1c5.1.8 9 2.4 11.5 4.8 2.5 2.5 3.7 5.8 3.7 9.9 0 2-.3 4-1 5.7-.7 1.7-1.7 3.3-3.2 4.6-1.5 1.4-3.4 2.3-5.8 3.1-2.4.8-5.3 1.2-8.8 1.2h-15.6v.1zm7.2-45.7v14.8h4.9c1.5 0 2.9-.1 4.3-.4 1.3-.3 2.4-.7 3.4-1.4 1-.6 1.7-1.4 2.2-2.4.6-1 .9-2.2.9-3.7 0-1.4-.3-2.4-.8-3.4-.5-.9-1.2-1.6-2.1-2.2-1-.6-2-1-3.4-1.2-1.4-.2-2.8-.4-4.4-.4h-4.9l-.1.3zm0 18.1V92h6.5c2 0 3.9-.3 5.4-.8 1.5-.5 2.9-1.3 4-2.3 1.1-1 1.8-2.2 2.4-3.7.6-1.5.9-3.1.9-4.9 0-2.2-.4-4.1-1.2-5.7-.8-1.6-1.9-2.9-3.4-4s-3.3-1.8-5.4-2.3c-2.1-.5-4.4-.8-7.1-.8l-2.1.2zM265.6 66.8c.9-.6 1.6-1.2 2.3-1.5.7-.4 1.3-.7 1.8-1 .5-.2 1.1-.4 1.5-.5.5-.1.9-.1 1.4-.1 1.7 0 3 .6 3.8 1.7.9 1.2 1.4 2.9 1.5 5l-5.8 1.7c-.2-1.5-.5-2.7-.9-3.4-.4-.7-1-1-1.7-1-.5 0-1 .1-1.6.3-.6.2-1.4.5-2.2 1v26.1H259V64.3h6.7l-.1 2.5z" fill="#8F8F8F"/><path d="M288.9 55.2h-6.7v3.9h6.7v-3.9zM273.4 120.3h-3.7v3.9h3.7v-3.9z" fill="#7F7F7F"/><path d="M288.9 64.3h-6.7v30.9h6.7V64.3zM310.1 63.7c2.2 0 4.2.4 5.7 1.3s2.8 1.9 3.8 3.4 1.6 3 2.1 4.8c.4 1.8.7 3.8.7 5.8v1.5h-20.3c0 1.3.2 2.5.6 4 .4 1.5 1.1 2.7 1.9 4 .9 1.2 2 2.2 3.5 3 1.5.8 3.2 1.2 5.2 1.2h6.9v2.7h-7c-3.1 0-5.7-.4-7.9-1.1-2.2-.7-4.1-1.7-5.5-3.1-1.4-1.4-2.5-3-3.2-4.9-.7-1.9-1.1-4.2-1.1-6.6 0-2 .3-4.1 1-6 .7-1.9 1.5-3.7 2.8-5.1 1.3-1.5 2.8-2.7 4.5-3.6 1.8-.8 3.9-1.3 6.3-1.3zm-.4 3c-1.4 0-2.5.3-3.5 1-1 .6-1.7 1.5-2.4 2.4-.6 1.1-1.1 2.2-1.4 3.6-.3 1.4-.5 2.7-.5 4.2h13.9v-1.5c0-1.3-.2-2.5-.4-3.7-.2-1.2-.5-2.2-1-3.1-.5-.9-1.1-1.6-1.8-2.1s-1.6-.8-2.9-.8zM335 66.9c1.5-.6 2.7-1.2 3.9-1.5 1.2-.3 2.3-.8 3.3-1 1.1-.3 2-.4 2.9-.5.9-.1 1.7-.2 2.6-.2 2 0 3.7.6 4.7 1.6 1.1 1.1 1.6 2.8 1.6 5.2v24.8h-6.7V71.5c0-.5-.1-1-.2-1.5s-.3-1-.6-1.4c-.3-.4-.6-.7-1.1-1-.5-.3-1.1-.4-1.7-.4-1.2 0-2.4.1-3.9.4-1.5.3-3.1.9-5 1.7v25.8h-6.7V64.4h6.7l.2 2.5z" fill="#8F8F8F"/><path d="M119.3 117.9c-.2-.4-.6-.7-1-.8-.4-.2-.8-.3-1.3-.3-.3 0-.6 0-.9.1-.3.1-.6.2-.8.4l-.6.6c-.2.3-.2.6-.2.9 0 .3 0 .5.1.7.1.2.2.4.4.6.2.2.5.3.8.5.3.1.7.3 1.2.4.5.1.9.3 1.4.5.4.2.8.4 1.2.7.3.3.6.6.8 1 .2.4.3.9.3 1.5s-.1 1.1-.4 1.5c-.2.4-.6.8-1 1.1-.4.3-.9.5-1.4.7-.5.1-1 .2-1.5.2-.4 0-.7 0-1.1-.1-.4-.1-.7-.2-1-.3-.3-.1-.6-.3-.9-.5-.3-.2-.5-.5-.7-.8l1.2-1c.3.4.6.8 1.1 1 .5.2 1 .3 1.5.3.3 0 .6 0 .9-.1.3-.1.6-.2.8-.4.3-.2.5-.4.6-.7.2-.3.2-.6.2-.9 0-.4-.1-.7-.2-.9-.1-.2-.3-.4-.6-.6-.3-.2-.6-.3-1-.5-.4-.1-.9-.3-1.4-.5-.4-.1-.8-.3-1.2-.5-.4-.2-.7-.4-1-.7-.3-.3-.5-.6-.6-.9-.2-.4-.2-.8-.2-1.3 0-.6.1-1.1.3-1.5.2-.4.5-.8.9-1.1.4-.3.8-.5 1.3-.7.5-.1 1-.2 1.5-.2.7 0 1.3.1 1.8.3.6.2 1.1.6 1.5 1.1l-.8 1.2zM130 126.2c-.5.6-1 1.1-1.5 1.3-.5.2-1.2.4-1.9.4-.6 0-1.2-.1-1.6-.3-.5-.2-.9-.5-1.3-.9s-.6-.8-.8-1.3c-.2-.5-.3-1.1-.3-1.6s.1-1.2.3-1.6c.2-.5.5-1 .9-1.3.4-.4.8-.7 1.3-.9.5-.2 1.1-.3 1.5-.3.6 0 1.1.1 1.5.3.5.2.9.5 1.2.8.3.4.6.8.8 1.3.2.5.3 1.1.3 1.7v.4h-6.3c0 .3.1.7.3 1 .1.3.3.6.6.8.2.2.5.4.8.6.3.1.6.2 1 .2.6 0 1.1-.1 1.5-.3.4-.2.8-.5 1.1-.9l.6.6zm-1.1-3.2c0-.7-.2-1.2-.7-1.6-.4-.4-1-.6-1.7-.6s-1.3.2-1.7.6c-.5.4-.7 1-.8 1.6h4.9zM132.6 121.6v-1-.9h1.3v1.4c.1-.2.2-.4.4-.6.2-.2.4-.4.6-.5.2-.1.5-.3.8-.3.3-.1.6-.1.9-.1h.3c.1 0 .2 0 .3.1l-.1 1.4c-.2-.1-.5-.1-.7-.1-.8 0-1.4.3-1.7.8-.4.5-.6 1.3-.6 2.1v3.8h-1.3l-.2-6.1zM142.9 127.5h-1.5l-3.1-7.7h1.5l2.4 6.1h.1l2.3-6.1h1.4l-3.1 7.7zM147.5 116.7c0-.3.1-.5.3-.7.2-.2.4-.3.7-.3.3 0 .5.1.7.3.2.2.3.4.3.7 0 .3-.1.5-.3.7-.2.2-.4.3-.7.3-.3 0-.5-.1-.7-.3-.2-.1-.3-.4-.3-.7zm.3 3.1h1.3v7.7h-1.3v-7.7zM157.6 121.7c-.3-.3-.6-.6-.9-.7-.3-.2-.7-.2-1.1-.2-.4 0-.8.1-1.2.2-.3.2-.6.4-.8.6-.2.3-.4.6-.5 1-.1.4-.2.7-.2 1.2 0 .4.1.8.2 1.2.1.4.3.7.5 1 .2.3.5.5.9.6.3.2.7.2 1.1.2.9 0 1.5-.3 1.9-1l1 .9c-.4.4-.8.8-1.4 1-.5.2-1.1.3-1.6.3-.6 0-1.2-.1-1.6-.3-.5-.2-1-.5-1.3-.9-.4-.4-.6-.8-.8-1.3-.2-.5-.3-1.1-.3-1.6s.1-1.2.3-1.6c.2-.5.5-1 .8-1.3.4-.4.8-.7 1.3-.9.5-.2 1.1-.3 1.6-.3.6 0 1.2.1 1.6.3.5.2 1 .5 1.4 1l-.9.6zM167.2 126.2c-.5.6-1 1.1-1.5 1.3-.5.2-1.2.4-1.9.4-.6 0-1.2-.1-1.6-.3-.5-.2-.9-.5-1.3-.9s-.6-.8-.8-1.3c-.2-.5-.3-1.1-.3-1.6s.1-1.2.3-1.6c.2-.5.5-1 .9-1.3.4-.4.8-.7 1.3-.9.5-.2 1.1-.3 1.5-.3.6 0 1.1.1 1.5.3.5.2.9.5 1.2.8.3.4.6.8.8 1.3.2.5.3 1.1.3 1.7v.4h-6.3c0 .3.1.7.3 1 .1.3.3.6.6.8.2.2.5.4.8.6.3.1.6.2 1 .2.6 0 1.1-.1 1.5-.3.4-.2.8-.5 1.1-.9l.6.6zm-1.1-3.2c0-.7-.2-1.2-.7-1.6-.4-.4-1-.6-1.7-.6s-1.3.2-1.7.6c-.5.4-.7 1-.8 1.6h4.9zM173.9 116.7c0-.3.1-.5.3-.7.2-.2.4-.3.7-.3.3 0 .5.1.7.3.2.2.3.4.3.7 0 .3-.1.5-.3.7-.2.2-.4.3-.7.3-.3 0-.5-.1-.7-.3-.2-.1-.3-.4-.3-.7zm.3 3.1h1.3v7.7h-1.3v-7.7zM178.7 125.5c.3.3.6.6.9.8.3.2.7.3 1.2.3.2 0 .4 0 .6-.1.2 0 .4-.1.6-.2.2-.1.3-.2.4-.4.1-.2.2-.3.2-.6 0-.2-.1-.4-.1-.5-.1-.1-.2-.3-.4-.4-.2-.1-.3-.2-.5-.2-.2-.1-.4-.1-.6-.2-.4-.1-.7-.2-1.1-.3-.3-.1-.6-.2-.9-.4-.3-.2-.5-.4-.6-.6-.2-.3-.2-.6-.2-1s.1-.7.3-1c.2-.3.4-.5.7-.7.3-.2.6-.3 1-.4.4-.1.7-.2 1.1-.2.6 0 1.1.1 1.5.3.5.2.9.6 1.1 1.1l-1.1.7c-.2-.3-.4-.5-.7-.7-.3-.2-.6-.3-1-.3-.2 0-.4 0-.6.1-.2 0-.4.1-.5.2-.1.1-.3.2-.4.3-.1.1-.1.3-.1.5s.1.3.2.4c.1.1.3.2.4.3.2.1.4.2.7.2.2.1.5.1.8.2.4.1.7.2 1 .3.3.1.6.3.8.4.2.2.4.4.6.7.1.3.2.6.2 1 0 .5-.1.8-.3 1.2-.2.3-.4.6-.7.8-.3.2-.6.3-1 .4-.4.1-.8.1-1.2.1-.7 0-1.3-.1-1.7-.3-.4-.2-.9-.6-1.4-1.2l.8-.6zM189.8 123.7c0-.6.1-1.2.3-1.6.2-.5.5-1 .9-1.3.4-.4.8-.7 1.4-.9.5-.2 1.1-.3 1.6-.3s1.2.1 1.6.3c.5.2 1 .5 1.4.9.4.4.7.8.9 1.3.2.5.3 1.1.3 1.6s-.1 1.2-.3 1.6c-.2.5-.5 1-.9 1.3-.4.4-.8.7-1.4.9-.5.2-1.1.3-1.6.3s-1.2-.1-1.6-.3c-.5-.2-1-.5-1.4-.9-.4-.4-.7-.8-.9-1.3-.2-.5-.3-1.1-.3-1.6zm1.3 0c0 .4.1.8.2 1.2.1.4.3.7.6.9.3.3.6.5.9.6.4.2.7.2 1.2.2.4 0 .8-.1 1.2-.2l.9-.6c.3-.3.4-.6.6-.9.1-.4.2-.8.2-1.2 0-.4-.1-.8-.2-1.2-.1-.4-.3-.7-.6-.9-.3-.3-.6-.5-.9-.6-.4-.2-.7-.2-1.2-.2-.4 0-.8.1-1.2.2l-.9.6c-.3.3-.4.6-.6.9-.1.4-.2.8-.2 1.2zM207.2 125.7v1.9h-1.3v-.7-.7c-.1.2-.2.4-.4.6-.2.2-.4.3-.6.5-.2.1-.5.3-.8.3-.3.1-.6.1-.9.1-.5 0-1-.1-1.4-.2-.4-.2-.7-.4-1-.7-.3-.3-.4-.6-.6-1-.1-.4-.2-.8-.2-1.3v-4.8h1.3v4.6c0 .7.2 1.2.4 1.5.3.4.8.6 1.4.6.4 0 .8-.1 1.1-.2.3-.2.6-.4.8-.6.2-.3.3-.6.4-1 .1-.4.1-.8.1-1.3v-3.8h1.3v6c0 .2.4.2.4.2zM210 121.6v-1-.9h1.3v1.4c.1-.2.2-.4.4-.6.2-.2.4-.4.6-.5.2-.1.5-.3.8-.3.3-.1.6-.1.9-.1h.3c.1 0 .2 0 .3.1l-.1 1.4c-.2-.1-.5-.1-.7-.1-.8 0-1.4.3-1.7.8-.4.5-.6 1.3-.6 2.1v3.8h-1.3l-.2-6.1zM224.7 120.9h-2.3v4.6c0 .2.1.4.1.6.1.2.2.3.4.4.2.1.4.1.7.1.2 0 .4 0 .6-.1.2 0 .4-.1.6-.2l.1 1.2c-.2.1-.5.2-.8.2-.3 0-.5.1-.8.1-.5 0-.9-.1-1.2-.2-.3-.1-.5-.3-.7-.5-.2-.2-.3-.5-.3-.9-.1-.3-.1-.7-.1-1.1v-4.3h-1.7v-1.1h1.7v-2.1h1.3v2.2h2.3l.1 1.1zM226.6 121.6v-1-.9h1.3v1.4c.1-.2.2-.4.4-.6.2-.2.4-.4.6-.5.2-.1.5-.3.8-.3.3-.1.6-.1.9-.1h.3c.1 0 .2 0 .3.1l-.1 1.4c-.2-.1-.5-.1-.7-.1-.8 0-1.4.3-1.7.8-.4.5-.6 1.3-.6 2.1v3.8h-1.3l-.2-6.1zM232.8 120.8c.4-.4.9-.7 1.5-.9.6-.2 1.1-.3 1.6-.3 1.2 0 2 .3 2.5.8.5.6.8 1.4.8 2.5v4.1c0 .2.1.5.1.7H238c0-.2-.1-.4-.1-.6v-.6c-.3.4-.6.8-1.1 1-.4.3-1 .4-1.5.4-.4 0-.8-.1-1.2-.2-.4-.1-.7-.3-.9-.5-.3-.2-.5-.5-.6-.7-.2-.3-.2-.6-.2-1 0-.7.2-1.2.5-1.5.3-.3.8-.7 1.3-.8.5-.2 1.1-.3 1.6-.3.6 0 1.1-.1 1.5-.1h.5v-.2c0-.6-.2-1-.5-1.3-.3-.3-.8-.4-1.5-.4-.4 0-.9.1-1.3.2s-.8.4-1.1.7l-.6-1zm3.8 3.1c-.9 0-1.5.1-1.9.4-.5.2-.8.6-.8 1.2 0 .5.2.9.5 1.1.3.2.8.3 1.3.3.4 0 .7-.1 1-.2.3-.1.5-.3.7-.5.2-.2.3-.5.4-.8.1-.3.2-.6.2-.9v-.5l-1.4-.1zM248.4 126.2c-.3.5-.7.8-1.2 1.2-.5.3-1.2.5-1.8.5-.6 0-1.1-.1-1.5-.3-.5-.2-.9-.5-1.3-.9s-.6-.8-.9-1.3c-.2-.5-.3-1.1-.3-1.6s.1-1.2.3-1.6c.2-.5.5-1 .9-1.3.4-.4.8-.7 1.3-.9.5-.2 1.1-.3 1.6-.3.6 0 1.1.1 1.5.4.5.2.9.6 1.3 1v-5.9h1.3v12.6h-1.3l.1-1.6zm0-2.5c0-.4-.1-.8-.2-1.2-.1-.4-.3-.7-.6-.9-.3-.3-.6-.5-.9-.6-.3-.2-.7-.2-1.2-.2-.4 0-.8.1-1.2.2-.4.2-.7.4-.9.6-.3.3-.4.6-.6.9-.1.4-.2.8-.2 1.2 0 .4.1.8.2 1.2.1.4.3.7.6.9.3.3.6.5.9.6.3.2.7.2 1.2.2.4 0 .8-.1 1.2-.2.4-.2.7-.4.9-.6.3-.3.4-.6.6-.9.1-.5.2-.8.2-1.2zM259.3 126.2c-.5.6-1 1.1-1.5 1.3-.5.2-1.2.4-1.9.4-.6 0-1.2-.1-1.6-.3-.5-.2-.9-.5-1.3-.9s-.6-.8-.8-1.3c-.2-.5-.3-1.1-.3-1.6s.1-1.2.3-1.6c.2-.5.5-1 .9-1.3.4-.4.8-.7 1.3-.9.5-.2 1.1-.3 1.5-.3.6 0 1.1.1 1.5.3.5.2.9.5 1.2.8.3.4.6.8.8 1.3.2.5.3 1.1.3 1.7v.4h-6.2c0 .3.1.7.2 1 .1.3.3.6.6.8.2.2.5.4.8.6.3.1.6.2 1 .2.6 0 1.1-.1 1.5-.3.4-.2.8-.5 1.1-.9l.6.6zm-1-3.2c0-.7-.2-1.2-.7-1.6-.4-.4-1-.6-1.7-.6s-1.3.2-1.7.6c-.5.4-.7 1-.8 1.6h4.9z" fill="#7F7F7F"/><path d="M289.3 119.1c-.2-.3-.5-.6-.8-.7-.3-.2-.7-.2-1.1-.2-.3 0-.6 0-.8.1-.3.1-.5.2-.7.3-.2.1-.4.3-.5.6-.1.2-.2.5-.2.8 0 .2 0 .5.1.6.1.2.2.3.4.5.2.1.4.3.7.4.3.1.6.3 1.1.4.4.1.8.3 1.2.4.4.1.7.3 1 .6.3.2.5.5.7.9.2.3.3.8.3 1.3s-.1 1-.3 1.4c-.2.4-.5.7-.8 1-.3.3-.7.4-1.2.6-.4.1-.9.2-1.4.2-.3 0-.6 0-.9-.1-.3-.1-.6-.1-.9-.3-.3-.1-.5-.3-.8-.4-.3-.2-.5-.4-.6-.7l1.1-.9c.2.4.5.7 1 .9.4.2.8.3 1.3.3.3 0 .5 0 .8-.1.3-.1.5-.2.7-.4.2-.2.4-.3.5-.6.1-.2.2-.5.2-.8 0-.3-.1-.6-.2-.8-.1-.2-.3-.4-.5-.5-.2-.2-.5-.3-.9-.4-.3-.1-.8-.3-1.2-.4-.4-.1-.7-.3-1-.4-.3-.2-.6-.3-.8-.6-.2-.2-.4-.5-.6-.8-.1-.3-.2-.7-.2-1.1 0-.5.1-.9.3-1.3.2-.4.5-.7.8-.9.3-.3.7-.4 1.1-.6.4-.1.9-.2 1.3-.2.6 0 1.1.1 1.5.3.5.2.9.5 1.3 1l-1 .6zM292.4 118.2c0-.2.1-.4.2-.6.2-.2.4-.3.6-.3.2 0 .4.1.6.3.2.2.2.4.2.6 0 .3-.1.5-.2.6-.2.2-.4.2-.6.2-.2 0-.5-.1-.6-.2-.1-.1-.2-.4-.2-.6zm.3 2.6h1.2v6.8h-1.2v-6.8zM296.4 122.4v-.9-.8h1.1v1.2c.1-.2.2-.3.3-.5.1-.2.3-.3.5-.4.2-.1.4-.2.7-.3.3-.1.5-.1.8-.1.5 0 .9.1 1.2.2.3.1.6.3.8.6.2.2.4.5.5.9.1.4.2.7.2 1.2v4.2h-1.2v-4.1c0-.6-.1-1.1-.4-1.4-.3-.3-.7-.5-1.2-.5-.4 0-.7.1-1 .2-.3.1-.5.3-.7.6-.2.2-.3.5-.4.8-.1.3-.1.7-.1 1.1v3.3h-1.2l.1-5.3zM309.5 122.5c-.2-.3-.5-.5-.8-.6-.3-.1-.6-.2-1-.2s-.7.1-1 .2c-.3.1-.5.3-.7.6-.2.2-.3.5-.4.8-.1.3-.2.6-.2 1s.1.7.2 1c.1.3.3.6.5.8.2.2.4.4.7.6.3.1.6.2 1 .2.8 0 1.4-.3 1.7-.9l.9.8c-.3.4-.7.7-1.2.8-.5.2-.9.3-1.4.3-.5 0-1-.1-1.5-.3-.4-.2-.8-.4-1.1-.8-.3-.3-.6-.7-.7-1.2-.2-.4-.3-.9-.3-1.5 0-.5.1-1 .3-1.5.2-.4.4-.8.7-1.2.3-.3.7-.6 1.1-.8.4-.2.9-.3 1.5-.3.5 0 1 .1 1.5.3.5.2.9.5 1.2.8l-1 1.1zM317.9 126.4c-.4.5-.9.9-1.4 1.1-.5.2-1.1.3-1.6.3s-1-.1-1.5-.3c-.4-.2-.8-.5-1.1-.8-.3-.3-.5-.7-.7-1.2-.2-.4-.2-.9-.2-1.4 0-.5.1-1 .3-1.5.2-.5.4-.8.7-1.2.3-.3.7-.6 1.1-.8.4-.2.9-.3 1.4-.3.5 0 .9.1 1.3.2.4.2.8.4 1.1.7.3.3.5.7.7 1.1.2.5.2 1 .2 1.5v.4h-5.4c0 .3.1.6.2.9.1.3.3.5.5.7.2.2.4.4.7.5.3.1.6.2.9.2.5 0 .9-.1 1.3-.3.3-.2.7-.4.9-.8l.6 1zm-.9-2.8c0-.6-.2-1.1-.6-1.4-.4-.4-.9-.5-1.5-.5s-1.2.2-1.5.5c-.4.4-.6.8-.7 1.4h4.3zM328.1 127.5h-1.3v-8.6l-1.8 1.6-.7-.9 2.7-2.2h1.1v10.1zM335.5 123.3c-.2.1-.5.2-.7.2-.3 0-.5.1-.7.1-.5 0-.9-.1-1.3-.2-.4-.2-.7-.4-1-.7-.3-.3-.5-.6-.7-1-.2-.4-.2-.9-.2-1.4 0-.5.1-1 .3-1.4.2-.4.4-.8.7-1 .3-.3.7-.5 1.1-.7.4-.2.9-.2 1.4-.2.5 0 1 .1 1.4.2.4.2.8.4 1.1.7.3.3.6.6.7 1 .2.4.3.9.3 1.4 0 .3 0 .6-.1.9 0 .3-.1.5-.2.7-.1.2-.2.5-.3.7-.1.2-.3.5-.4.7l-2.7 4.4h-1.5l2.8-4.4zm-1-.8c.3 0 .6-.1.9-.2.3-.1.5-.3.7-.4.2-.2.4-.4.5-.7.1-.3.2-.6.2-.9 0-.3-.1-.6-.2-.9-.1-.3-.3-.5-.5-.7-.2-.2-.4-.3-.7-.4-.3-.1-.6-.2-.9-.2-.3 0-.6.1-.9.2-.3.1-.5.3-.7.4-.2.2-.4.4-.5.7-.1.3-.2.6-.2.9 0 .4.1.7.2.9.1.3.3.5.5.7.2.2.4.3.7.4.3.2.6.2.9.2zM343.8 127.5h-1.3v-8.6l-1.8 1.6-.7-.9 2.7-2.2h1.1v10.1zM352.1 124.1h1.5v1.2h-1.5v2.3h-1.3v-2.3h-4.4v-1.4l4.1-6.6h1.5l.1 6.8zm-1.2-5.4l-3.3 5.3h3.3v-5.3z" fill="#8F8F8F"/></svg>