<svg width="355" height="154" viewBox="0 0 355 154" fill="none" xmlns="http://www.w3.org/2000/svg"><path fill-rule="evenodd" clip-rule="evenodd" d="M4.3 50.4c2.6-.4 5.2-.1 7.9-.2h26.4c1.3 0 2.7.2 3.9 1 1.3.9 2.2 2.3 2.4 3.8.1.9 0 1.7.1 2.6v31.8c0 2.5-1.8 4.9-4.3 5.5-1 .2-2 .2-3 .2H5.9C3 95.2.2 92.6.2 89.6v-34c-.1-2.4 1.7-4.6 4.1-5.2z" fill="#B3B3B3"/><path fill-rule="evenodd" clip-rule="evenodd" d="M55.9 51.7h23.5c.1 14.3 0 28.5 0 42.8h-6.9c0-12.1.1-24.2-.1-36.3h-9.7c-.1 12.1-.1 24.2 0 36.3h-6.9c-.2-2.5-.1-5-.2-7.5V56.6c.1-1.7.2-3.3.3-4.9zM176.3 53.2c3.1-2 7-1.8 10.5-1.5 3.2.7 6.3 2.8 7.5 5.9.9 1.9 1 3.9 1 6-2.3.3-4.5.5-6.8.7-.3-2-.6-4.2-2-5.6-2-1.6-5.4-1.4-7 .6-1.1 1.2-1.2 2.9-1.2 4.4v19.5c0 2.2 1.1 4.7 3.3 5.3 1.8.5 4 .4 5.5-.9 1.4-1.3 1.6-3.3 1.9-5.1 2.2.4 4.5.4 6.7.7.2 3.5-1 7.4-4 9.4-3.2 2.5-7.6 2.5-11.5 2-4.6-.8-8.6-4.9-8.7-9.7-.1-7.6-.1-15.2 0-22.8-.2-3.6 1.7-7.1 4.8-8.9zM253 51.7c7.6 0 15.2-.1 22.8 0-.1 2.1-.1 4.2 0 6.4-5.2.1-10.5-.1-15.7.1V67c3.8 0 7.8-.4 11.5.9 3 1.1 5.2 3.9 5.9 7 1.1 4.5 1 9.4-.7 13.7-1.4 3.7-5.4 5.8-9.2 5.8-4.9.1-9.7 0-14.6 0 .1-14.2.1-28.5 0-42.7zm7.1 21.8v14.6c2.7-.1 5.5.4 8.1-.4 2.2-.7 2.7-3.3 2.6-5.3-.1-2.6.5-5.6-1.3-7.8-2.8-1.7-6.3-1.2-9.4-1.1zM206.5 63.7c3-.4 6.2-.4 8.8 1.2 3 1.5 4.9 4.9 4.7 8.2 0 4.5.1 9 0 13.5-.4 5-5.5 8.6-10.3 8.3-3.8.4-7.9-1.3-10-4.6-1.7-3-1.2-6.7-1.3-10 .1-3.1-.2-6.2.3-9.2.6-3.9 4.1-6.8 7.8-7.4zm1.3 6.2c-1.5.5-2.3 2.1-2.4 3.5-.2 2.4 0 4.8-.1 7.2 0 2-.2 4.1.5 6.1 1.1 2.3 4.5 2.7 6.3 1 .9-1 1.1-2.4 1.1-3.7v-9.3c0-1.4-.1-3-1.2-4.1-1.1-1-2.8-1-4.2-.7zM84.4 64h5.9c.3 1.2.5 2.3.8 3.5 2.2-4.1 8.4-5.3 12-2.3 1.9 2 2.5 4.8 2.4 7.5v14.8c0 2.9-1.8 5.7-4.7 6.6-3.3 1.2-6.7-.3-9.5-1.9-.1 3.9 0 7.8-.1 11.7h-6.9c.1-13.4 0-26.7.1-39.9zm9.2 5.5c-1.6.4-3.1 1.8-2.9 3.5.1 4.5-.1 9 .1 13.5 1.2 2.1 4.4 2.6 6.4 1.3 1.3-1 1.4-2.7 1.4-4.2v-11c0-2.4-2.8-3.7-5-3.1zM109.8 64c2.3-.1 4.6 0 6.9-.1.4 6 0 12.1.2 18.2.6-.4 1-.9 1.3-1.6 1.5-2.9 3-5.8 4.5-8.6 1.4-2.6 2.7-5.4 4.2-8h6.4c.1 10.2 0 20.3 0 30.5h-6.8c-.1-5.7.1-11.4-.1-17-1.5 1.1-2.2 2.9-3.1 4.5-2.3 4.2-4.5 8.4-6.9 12.5-2.2.2-4.5.1-6.7 0 .1-10.1.1-20.3.1-30.4zM138.4 63.9h6.1c1.7 3.2 3.4 6.5 5 9.7 1 1.9 1.8 4 3.1 5.8 1.7-2.8 2.9-5.8 4.5-8.6 1.3-2.2 2.1-4.8 3.7-6.9 2-.1 4 0 6-.1v30.5H160V80.5c0-.8-.2-1.5-.5-2.1-1.8 2.4-3 5.3-4.6 7.9-.6 1.1-2.1.7-3.2.8-1.7 0-2.1-2-2.9-3.2-1.2-1.8-1.7-4.1-3.6-5.2-.2 5.2 0 10.5-.1 15.7h-6.9c.1-10.1.1-20.3.2-30.5zM223.8 63.9h6.9c.1 8-.1 16.1.1 24.1 2.6.1 5.2.1 7.8 0 .1-8 0-16.1 0-24.1h6.8c.1 8 0 16.1 0 24.1 1.3 0 2.6.1 3.9 0-.1 4.1-.1 8.3-.5 12.4-1.7.3-3.5.2-5.3.1 0-2 .1-4-.2-6-6.5-.2-13.1 0-19.6-.1.1-10.1.1-20.3.1-30.5zM281.2 71.1c1.4-3.4 4.2-6.6 8-7.4 3.1-.5 6.5-.3 9.4 1.3 2.8 1.6 4 5 4 8v21.4h-6c-.2-1-.4-1.9-.6-2.9-1.9 1.3-3.7 2.8-6 3.2-2.3.2-4.9.2-6.7-1.5-2-2.1-2.4-5.2-2.4-8 0-2.9.9-6.1 3.5-7.7 3.3-2.2 7.5-1.5 11.2-1.7.1-2 .5-4.5-1.1-6-1.3-.9-3.2-.9-4.6-.3-1.3.7-2 2.1-2.8 3.3-2.1-.4-4.1-.8-5.9-1.7zm8.4 10.7c-2.4.8-2.2 4-1.3 5.9.7 1.5 2.7 1.4 4.1 1.1 1.3-.4 2.7-.9 3.6-2 .1-1.7 0-3.5.1-5.2-2.1-.4-4.3-.2-6.5.2zM305.9 64c2.3-.1 4.6 0 6.9-.1.2 3.8 0 7.7.1 11.5h7.8c.1-3.8-.2-7.7.2-11.5h6.6c.3 1.9.2 3.8.2 5.7v19c0 1.9.1 3.8-.2 5.7h-6.8c-.2-4.1 0-8.3-.1-12.4-2.6-.3-5.2-.3-7.8 0-.1 4.1.1 8.3-.1 12.4h-6.9c.2-10 .2-20.2.1-30.3zM332 63.9h6.8c0 4-.1 8 .1 12 1.5-.1 3.3.3 4.6-.9 1.5-1 2.1-2.8 2.4-4.5.4-2.2.8-4.4 1.5-6.6 2.2 0 4.5-.1 6.7 0-.5 2.6-1.2 5.1-1.8 7.7-.3 1.5-.7 3-1.7 4.2-.9 1-2.1 1.6-3.2 2.4 1.3.7 2.7 1.1 3.8 2.1 1.3 1.4 1.6 3.3 2 5.1.6 3 1.4 6 1.8 9.1h-6.8c-.6-3.2-.9-6.4-1.9-9.5-1.2-2.9-4.7-3.4-7.4-3-.2 4.2-.1 8.4-.1 12.6h-6.9c.1-10.3.1-20.5.1-30.7z" fill="#8A8A8A"/><path fill-rule="evenodd" clip-rule="evenodd" d="M21.7 81.2c-1.1.3-2 1.3-2.1 2.4-.2 1.3.7 2.6 1.9 3 1.2.4 2.6-.1 3.2-1.2.9-1.2.4-3.1-.9-3.9-.5-.4-1.3-.4-2.1-.3zm-8.9-22.3c-1.5.7-2.1 2.8-1.1 4.2.9 1.2 2.8 1.5 4 .6 1-.7 1.4-2.2.9-3.4-.5-1.4-2.4-2.1-3.8-1.4zm8.5-.1c-1.3.6-2 2.2-1.5 3.5.4 1.3 1.9 2 3.2 1.8 1.4-.2 2.5-1.7 2.2-3.1-.2-1.7-2.3-2.8-3.9-2.2zm8.6 0c-1.1.4-1.9 1.5-1.8 2.7 0 1.4 1.1 2.7 2.5 2.7 1.5.2 3-1 3-2.5.3-2-1.9-3.7-3.7-2.9zm-12.4 5.5c1.3-.4 2.9.3 3.3 1.7.6 1.4-.1 3-1.5 3.6-1.3.4-3 0-3.6-1.3-.8-1.5.1-3.5 1.8-4zm8.1.1c1.4-.5 3.2.2 3.7 1.7.7 1.6-.6 3.7-2.4 3.7-1.6.2-3.2-1.3-3-2.9 0-1.1.7-2.1 1.7-2.5zm-4 5.6c-.9.3-1.7 1.2-1.9 2.2-.3 1.6 1.1 3.4 2.7 3.3 1.3.1 2.6-1 2.8-2.3.2-1.1-.4-2.2-1.3-2.9-.7-.5-1.6-.5-2.3-.3zm-4.1 5.6c1-.2 2.1 0 2.8.7 1.1 1.1 1.1 3.2-.2 4.1-1.3 1.2-3.6.7-4.3-1-.8-1.4.1-3.4 1.7-3.8zm8.5-.1c.8-.1 1.8 0 2.4.6.7.6 1.2 1.5 1.1 2.5-.2 1-.9 2-1.9 2.4-.9.2-1.9.2-2.6-.4-1.2-.9-1.5-2.8-.5-4 .3-.6.9-.9 1.5-1.1zm-12.8 5.7c-1.5.4-2.4 2.2-1.8 3.6.4 1 1.2 1.8 2.3 1.9 1.4.2 2.7-.9 3-2.2.2-.8 0-1.7-.5-2.3-.6-1-1.9-1.3-3-1zm17.1-.1c-1.3.3-2.3 1.6-2.2 2.9 0 1 .7 1.9 1.5 2.4 1 .6 2.4.3 3.3-.5 1.2-1.1 1.1-3.3-.3-4.2-.7-.6-1.6-.7-2.3-.6z" fill="#FEFEFE"/></svg>