<svg width="48" height="48" viewBox="0 0 48 48" fill="none" xmlns="http://www.w3.org/2000/svg">
<g clip-path="url(#clip0)">
<path d="M0 17.25C0 11.2119 0 8.19289 1.17509 5.88665C2.20872 3.85804 3.85804 2.20872 5.88665 1.17509C8.19289 0 11.2119 0 17.25 0H30.75C36.7881 0 39.8071 0 42.1133 1.17509C44.1419 2.20872 45.7913 3.85804 46.8249 5.88665C48 8.19289 48 11.2119 48 17.25V30.75C48 36.7881 48 39.8071 46.8249 42.1133C45.7913 44.1419 44.1419 45.7913 42.1133 46.8249C39.8071 48 36.7881 48 30.75 48H17.25C11.2119 48 8.19289 48 5.88665 46.8249C3.85804 45.7913 2.20872 44.1419 1.17509 42.1133C0 39.8071 0 36.7881 0 30.75V17.25Z" fill="white"/>
<path fill-rule="evenodd" clip-rule="evenodd" d="M5.24971 24.0003C5.24971 34.3383 13.6617 42.7503 23.9997 42.7503C34.3378 42.7503 42.7497 34.3383 42.7497 24.0003C42.7497 13.6622 34.3378 5.25029 23.9997 5.25029C13.6617 5.25029 5.24971 13.6622 5.24971 24.0003ZM30.8435 25.6878L27.9372 20.6253L20.0622 34.1253L15.1872 25.6878L12.0935 25.6981V22.3128H17.1559L20.0622 27.3753L27.9372 13.8753L32.8122 22.3128H35.906V25.6878H30.8435Z" fill="#3E4A64"/>
<path d="M0.272964 17.25C0.272964 14.2264 0.273177 11.9752 0.418945 10.1911C0.56445 8.41015 0.853639 7.11868 1.41833 6.01042C2.42581 4.03313 4.03342 2.42552 6.01071 1.41804C7.11897 0.853349 8.41044 0.56416 10.1913 0.418655C11.9755 0.272887 14.2267 0.272675 17.2502 0.272675H30.7502C33.7738 0.272675 36.025 0.272887 37.8091 0.418655C39.59 0.56416 40.8815 0.853349 41.9898 1.41804C43.967 2.42552 45.5747 4.03313 46.5822 6.01042C47.1468 7.11868 47.436 8.41015 47.5816 10.1911C47.7273 11.9752 47.7275 14.2264 47.7275 17.25V30.75C47.7275 33.7735 47.7273 36.0247 47.5816 37.8088C47.436 39.5898 47.1468 40.8812 46.5822 41.9895C45.5747 43.9668 43.967 45.5744 41.9898 46.5819C40.8815 47.1465 39.59 47.4357 37.8091 47.5813C36.025 47.727 33.7738 47.7272 30.7502 47.7272H17.2502C14.2267 47.7272 11.9755 47.727 10.1913 47.5813C8.41044 47.4357 7.11897 47.1465 6.01071 46.5819C4.03342 45.5744 2.42581 43.9668 1.41833 41.9895C0.853639 40.8812 0.56445 39.5898 0.418945 37.8088C0.273177 36.0247 0.272964 33.7735 0.272964 30.75V17.25Z" stroke="black" stroke-opacity="0.07" stroke-width="0.998197"/>
</g>
<defs>
<clipPath id="clip0">
<rect width="48" height="48" fill="white"/>
</clipPath>
</defs>
</svg>
