<svg width="125" height="125" viewBox="0 0 125 125" fill="none" xmlns="http://www.w3.org/2000/svg">
<path fill-rule="evenodd" clip-rule="evenodd" d="M0 0H35V3.33333V5V30V31.6667V35H0V31.6667V30V5V3.33333V0ZM5 5H30V30H5V5ZM25 10H10V25H25V10ZM0 90H35V93.3333V95V120V121.667V125H0V121.667V120V95V93.3333V90ZM5 95H30V120H5V95ZM25 100H10V115H25V100ZM125 0H90V3.33333V5V30V31.6667V35H125V31.6667V30V5V3.33333V0ZM120 5H95V30H120V5ZM100 10H115V25H100V10ZM40 10H45V25H50V30H45V35H50V40H55V35H60V45H55V50H50V55H45V40H40V10ZM55 60V50H58.3333H60V45H65V50H70V30H75V35H80V40H75V50H85V55H60V60H55ZM50 65H55V60H50V65ZM60 85V80V75H65V70H50V65H45V70H30V65H40V60H30V65H25V60H20V65H15V60H10V55H25V50H30V55H40V50H30V45H35V40H10V45H5V40H0V45V50H5V55V60H0V65H5V70V85H5.83333H10H35V80H10V70H15V75H25V70H30V75H45V80H50V85H40V90H45V95H40V115H45V120H40V125H45V120H50V125H65V120H60V115H70V120H75V125H80V120H85V125H90V120H85V115.833V115V110H95V105H100V110H105V115H110V105H115V110H120V120H110V125H120H121.667H125V105V100H120V95H125V90H115V93.3333V95V100H110V105H105V90H110V85H115V80H125V75V70H120V65H125V60V55V50H115V45V40H90V45H95V50H100V45H105V50H115V55H120V60H110V55H85V60H60V65H95V70H100V75H95V80H80V70H75H70V85H60ZM75 105V100H80V85V81.6667V80H75V90H70H60V85H50V90H55V95H50V110H45V115H55V110H70V105H75ZM75 105H80V115H75V110V105ZM70 105V100H65V95H60V100V105H70ZM100 65H110V70H100V65ZM100 65V60H95V65H100ZM115 80V75H105V80H115ZM50 80V75H55V80H50ZM5 65H10V60H5V65ZM25 70H20V65H25V70ZM80 40H85V45H80V40ZM80 20H85V35H80V30H75V25H80V20ZM80 15H85V0H80H75V5H70V15H65V10H60V15H55H50V25H55V30H50V35H55V30H60V35H65V30H60V25H70H75V20H80V15ZM80 15V10H75V15H80ZM60 25H55V20H60V25ZM45 10V0H50V10H45ZM10 50V45H20V50H10ZM90.8333 100H95H100V90V85H85V100H90.8333ZM55 0H65V5H55V0ZM85 70H90V75H85V70ZM90 90H95V95H90V90Z" fill="#333333"/>
</svg>
