<svg width="64" height="64" viewBox="0 0 64 64" fill="none" xmlns="http://www.w3.org/2000/svg">
<rect width="64" height="64" rx="32" fill="#FFED00"/>
<path fill-rule="evenodd" clip-rule="evenodd" d="M32.4662 36.5494L21.5518 47.3999L17.2213 43.0998L28.1364 32.2455L25.8595 29.9799V25.5074L24.2787 23.9334V27.8337L22.9023 29.2031L17.368 23.6993L16 25.0605C16.0091 24.0337 16.2151 21.0628 18.7489 18.5875C21.4834 15.9723 24.436 17.1503 25.446 18.1558L30.9773 23.6568L29.566 25.0574L32.4662 27.9416L35.3656 25.0574L33.955 23.6568L39.4848 18.1558C40.4956 17.1503 43.4474 15.9723 46.1819 18.5875C48.7165 21.0636 48.9224 24.0337 48.9331 25.0605L47.5643 23.7001L42.03 29.2031L40.6544 27.8337V23.9334L39.0713 25.5066V29.9799L36.7944 32.2448L47.7102 43.0998L43.3805 47.3999L32.4662 36.5494Z" fill="black"/>
</svg>
