<svg xmlns="http://www.w3.org/2000/svg" version="1.1" id="Layer_3" x="0" y="0" viewBox="0 0 1420 680" xml:space="preserve" enable-background="new 0 0 1420 680"><style>.st2{fill-rule:evenodd;clip-rule:evenodd;fill:#fff}</style><path fill="#e0372f" d="M0 0h1420v680H0z"/><path d="M291.9 318.7h35.4v-99.2h-35.4v99.2zm63.8 70.9h35.4V255h-35.4v134.6zm382.6-70.9h35.4v-70.9h-35.4v70.9zm-127.5 70.9h35.4V255h-35.4v134.6zm63.8 35.4H710V290.4h-35.4V425zm-446.5-35.4h35.4v-70.9h-35.4v70.9z" fill-rule="evenodd" clip-rule="evenodd" fill="#f0a4a0"/><path class="st2" d="M547 460.5h35.4V290.4H547v170.1zM419.4 255h35.4v-70.9h-35.4V255zM419.4 460.5h35.4V290.4h-35.4v170.1zM483.2 460.5h35.4V184.1h-35.4v276.4zM547 255h35.4v-70.9H547V255z"/><defs><filter id="Adobe_OpacityMaskFilter" filterUnits="userSpaceOnUse" x="866" y="285.9" width="376.9" height="172.7"><feColorMatrix values="1 0 0 0 0 0 1 0 0 0 0 0 1 0 0 0 0 0 1 0"/></filter></defs><mask maskUnits="userSpaceOnUse" x="866" y="285.9" width="376.9" height="172.7" id="mask0_1_"><path d="M866 458.6h376.9V285.8H866v172.8z" fill-rule="evenodd" clip-rule="evenodd" fill="#fff" filter="url(#Adobe_OpacityMaskFilter)"/></mask><g mask="url(#mask0_1_)"><path class="st2" d="M1210.7 451.3v-62.7h-6.7v68.5h38.9v-5.8h-32.2zm-39.6-37.6c2.4 5.9 4.9 12.2 7.4 19h-29.2c2.5-6.8 4.9-13.1 7.3-19 2.4-5.9 4.8-11.6 7.2-17.3 2.4 5.6 4.9 11.4 7.3 17.3zm23.6 43.5c-2.8-7.1-5.3-13.8-7.6-19.9-2.3-6.2-4.6-12-6.8-17.5s-4.4-10.8-6.6-15.9c-2.2-5.1-4.5-10.1-6.9-15.2h-5.9c-2.4 5.1-4.7 10.2-6.9 15.2-2.2 5.1-4.4 10.3-6.6 15.8-2.2 5.5-4.5 11.3-6.8 17.5-2.3 6.2-4.8 12.8-7.4 19.9h7c1.2-3.3 2.4-6.6 3.5-9.7 1.1-3.1 2.2-6.1 3.4-9.1h33.5c1 2.9 2 6 3.1 9.1 1.1 3.1 2.3 6.3 3.6 9.7h7.4zm-113-68.5v5.8h21.9v62.7h6.7v-62.7h21.9v-5.8h-50.5zm-21.7 68.5h6.7v-68.5h-6.7v68.5zm-36.8-62.6c2.6.5 4.9 1.3 6.9 2.4 2 1.2 3.6 2.7 4.8 4.7 1.2 2 1.8 4.5 1.8 7.5 0 3.2-.6 5.8-1.7 7.8s-2.7 3.6-4.8 4.8c-2.1 1.2-4.6 1.9-7.5 2.4-2.9.4-6.2.6-9.8.6h-8.5v-30.2c1.3-.1 2.8-.3 4.5-.4 1.7-.2 3.9-.2 6.4-.2 2.7-.1 5.3.1 7.9.6zm-17.1-6.1c-3.2.3-6 .8-8.4 1.4v67.2h6.7v-26.5h9.3c4.7 0 8.9-.4 12.6-1.1 3.7-.8 6.9-2 9.4-3.7 2.6-1.7 4.5-3.9 5.9-6.6 1.4-2.7 2.1-6 2.1-9.9 0-6.8-2.4-12-7.1-15.7-4.8-3.7-12-5.5-21.7-5.5-2.7 0-5.7.1-8.8.4zM962 413.7c2.4 5.9 4.9 12.2 7.4 19h-29.2c2.5-6.8 5-13.1 7.3-19s4.8-11.6 7.2-17.3c2.5 5.6 4.9 11.4 7.3 17.3zm23.7 43.5c-2.7-7.1-5.3-13.8-7.6-19.9-2.3-6.2-4.6-12-6.8-17.5s-4.4-10.8-6.6-15.9c-2.2-5.1-4.5-10.1-6.9-15.2h-5.9c-2.4 5.1-4.7 10.2-6.9 15.2-2.2 5.1-4.4 10.3-6.6 15.8-2.2 5.5-4.5 11.3-6.8 17.5-2.3 6.2-4.8 12.8-7.4 19.9h7c1.2-3.3 2.4-6.6 3.5-9.7 1.1-3.1 2.2-6.1 3.4-9.1h33.5c1 2.9 2 6 3.1 9.1 1.1 3.1 2.3 6.3 3.6 9.7h7.4zm-80.8 1c2.2-.3 4.2-.7 5.9-1.1 1.7-.5 3.1-.9 4.3-1.3 1.1-.4 1.9-.8 2.4-1.1l-1.9-5.7c-1.5.9-3.7 1.7-6.7 2.5-2.9.8-6.6 1.2-10.9 1.2-4 0-7.5-.7-10.5-2.1-3.1-1.4-5.6-3.4-7.8-5.9-2.1-2.6-3.7-5.7-4.8-9.3-1.1-3.7-1.6-7.8-1.6-12.3 0-4.4.5-8.4 1.6-12.1 1.1-3.6 2.7-6.8 4.9-9.4 2.2-2.6 4.9-4.7 8.1-6.1 3.2-1.5 6.9-2.2 11.2-2.2 3.8 0 6.9.5 9.4 1.4 2.5 1 4.6 1.9 6.3 2.9l2.2-5.8c-.6-.4-1.4-.8-2.6-1.3-1.1-.5-2.5-1-4.1-1.5-1.6-.5-3.4-.9-5.5-1.2-2.1-.3-4.4-.5-7-.5-4.2 0-8.1.8-12 2.3-3.8 1.6-7.2 3.8-10.1 6.9-2.9 3-5.2 6.8-7 11.2-1.7 4.5-2.6 9.5-2.6 15.3 0 5.7.8 10.8 2.4 15.3 1.6 4.4 3.8 8.2 6.6 11.2s6.1 5.3 9.9 6.9c3.8 1.6 7.9 2.4 12.3 2.4 2.9-.2 5.4-.3 7.6-.6zm43.5-103.8h9.6v-68.5h-9.6v68.5zm-62.7-68.5v8.3h21.5v60.2h9.6v-60.2h21.5v-8.3h-52.6zM866 354.4h9.6v-68.5H866v68.5z"/></g></svg>