<svg width="66" height="66" viewBox="0 0 66 66" fill="none" xmlns="http://www.w3.org/2000/svg">
<rect x="1" y="1" width="64" height="64" rx="32" fill="white"/>
<path d="M36.0492 36.1875C43.5246 36.1875 47 31.6055 47 26.0938C47 20.582 43.5246 16 36.0492 16H24.3115V32.5352H19V36.1875H24.3115V39.375H19V43.0273H24.3115V50H28.377V43.0273H35.7869V39.375H28.377V36.1875H36.0492ZM28.377 32.5352V19.6523H36.0492C40.7705 19.6523 43 22.375 43 26.0938C43 29.8125 40.7705 32.5352 36.0492 32.5352H28.377Z" fill="#F04F48"/>
<rect x="0.5" y="0.5" width="65" height="65" rx="32.5" stroke="black" stroke-opacity="0.08"/>
</svg>
