<svg width="64" height="64" viewBox="0 0 64 64" fill="none" xmlns="http://www.w3.org/2000/svg">
<rect width="64" height="64" rx="32" fill="#F1F1F1"/>
<path d="M48.4547 19.3151C49.4383 20.5857 50.258 21.9792 50.9548 23.4546L32.0196 37.4306L24.0685 32.4304V26.4465L31.9786 31.4057L48.4547 19.3151Z" fill="#21A038"/>
<path d="M15.9949 32.0206C15.9949 31.7337 15.9949 31.4878 16.0358 31.2009L11.2406 30.955C11.2406 31.2828 11.1996 31.6517 11.1996 31.9796C11.1996 37.7175 13.5357 42.9226 17.3064 46.6932L20.7082 43.2915C17.7982 40.4225 15.9949 36.447 15.9949 32.0206Z" fill="url(#paint0_linear)"/>
<path d="M31.9785 16.0362C32.2654 16.0362 32.5113 16.0362 32.7982 16.0772L33.0441 11.282C32.7162 11.282 32.3474 11.241 32.0195 11.241C26.2815 11.241 21.0764 13.5771 17.3058 17.3477L20.7076 20.7495C23.5765 17.8396 27.5931 16.0362 31.9785 16.0362Z" fill="url(#paint1_linear)"/>
<path d="M31.9793 48.0048C31.6924 48.0048 31.4465 48.0048 31.1596 47.9638L30.9137 52.7591C31.2416 52.7591 31.6104 52.8001 31.9383 52.8001C37.6763 52.8001 42.8814 50.4639 46.652 46.6933L43.2502 43.2915C40.3813 46.2424 36.4057 48.0048 31.9793 48.0048Z" fill="url(#paint2_linear)"/>
<path d="M40.9962 18.8232L45.0538 15.8313C41.4881 12.9624 36.9387 11.2 31.9795 11.2V15.9953C35.3403 16.0363 38.4552 17.0609 40.9962 18.8232Z" fill="url(#paint3_linear)"/>
<path d="M52.7994 32.0205C52.7994 30.7499 52.6764 29.5204 52.4715 28.2908L48.0041 31.6106C48.0041 31.7336 48.0041 31.8975 48.0041 32.0205C48.0041 36.7338 45.9549 40.9552 42.717 43.8652L45.9549 47.4309C50.1354 43.6603 52.7994 38.1273 52.7994 32.0205Z" fill="#21A038"/>
<path d="M31.979 48.0047C27.2657 48.0047 23.0443 45.9554 20.1343 42.7176L16.5686 45.9554C20.3802 50.1769 25.8722 52.7999 31.979 52.7999V48.0047Z" fill="url(#paint4_linear)"/>
<path d="M21.2822 20.1758L18.0444 16.61C13.8229 20.4217 11.1998 25.9137 11.1998 32.0205H15.9951C15.9951 27.3481 18.0444 23.0857 21.2822 20.1758Z" fill="url(#paint5_linear)"/>
<defs>
<linearGradient id="paint0_linear" x1="16.8104" y1="46.1098" x2="11.9023" y2="31.968" gradientUnits="userSpaceOnUse">
<stop offset="0.1444" stop-color="#F2E913"/>
<stop offset="0.3037" stop-color="#E7E518"/>
<stop offset="0.5823" stop-color="#CADB26"/>
<stop offset="0.891" stop-color="#A3CD39"/>
</linearGradient>
<linearGradient id="paint1_linear" x1="18.6727" y1="16.7918" x2="31.1137" y2="12.0659" gradientUnits="userSpaceOnUse">
<stop offset="0.0592" stop-color="#0FA8E0"/>
<stop offset="0.5385" stop-color="#0099F9"/>
<stop offset="0.9234" stop-color="#0291EB"/>
</linearGradient>
<linearGradient id="paint2_linear" x1="30.6321" y1="48.7096" x2="45.4563" y2="45.3699" gradientUnits="userSpaceOnUse">
<stop offset="0.1226" stop-color="#A3CD39"/>
<stop offset="0.2846" stop-color="#86C339"/>
<stop offset="0.8693" stop-color="#21A038"/>
</linearGradient>
<linearGradient id="paint3_linear" x1="30.9942" y1="14.2681" x2="43.3238" y2="18.0602" gradientUnits="userSpaceOnUse">
<stop offset="0.0566" stop-color="#0291EB"/>
<stop offset="0.79" stop-color="#0C8ACB"/>
</linearGradient>
<linearGradient id="paint4_linear" x1="17.7879" y1="46.7343" x2="31.029" y2="51.6658" gradientUnits="userSpaceOnUse">
<stop offset="0.1324" stop-color="#F2E913"/>
<stop offset="0.2977" stop-color="#EBE716"/>
<stop offset="0.5306" stop-color="#D9E01F"/>
<stop offset="0.8023" stop-color="#BBD62D"/>
<stop offset="0.9829" stop-color="#A3CD39"/>
</linearGradient>
<linearGradient id="paint5_linear" x1="14.8486" y1="32.5997" x2="20.1556" y2="18.8383" gradientUnits="userSpaceOnUse">
<stop offset="0.0698" stop-color="#A3CD39"/>
<stop offset="0.2599" stop-color="#81C55F"/>
<stop offset="0.9216" stop-color="#0FA8E0"/>
</linearGradient>
</defs>
</svg>
