<svg xmlns="http://www.w3.org/2000/svg" width="165" height="60" fill="none" viewBox="0 0 165 60">
    <path fill="#6AA4DE" d="M154.71 24.735C154.71 14.388 146.322 6 135.975 6H28.735C18.388 6 10 14.388 10 24.735v2.53C10 37.612 18.388 46 28.735 46h107.24c10.347 0 18.735-8.388 18.735-18.735v-2.53z" filter="url(#a)"/>
    <path d="M34.433 35.92H54.87V15.48H34.433V35.92zM60.1 35.92H80.54V15.48H60.1V35.92zM85.768 35.92h20.439V15.48H85.768V35.92zM111.436 35.92h20.439V15.48h-20.439V35.92z"/>
    <path fill="#6AA4DE" d="M160 45.947c-3.329-2.664-5.039-6.637-5.331-7.895V26.3L133.343 45.53h7.146c3.854 0 7.175-1.804 8.343-2.914 3.328 3.196 8.832 3.552 11.168 3.33z"/>
    <defs>
        <filter id="a" width="164.711" height="60" x="0" y="0" color-interpolation-filters="sRGB" filterUnits="userSpaceOnUse">
            <feFlood flood-opacity="0" result="BackgroundImageFix"/>
            <feColorMatrix in="SourceAlpha" values="0 0 0 0 0 0 0 0 0 0 0 0 0 0 0 0 0 0 127 0"/>
            <feOffset dy="4"/>
            <feGaussianBlur stdDeviation="5"/>
            <feColorMatrix values="0 0 0 0 0 0 0 0 0 0 0 0 0 0 0 0 0 0 0.15 0"/>
            <feBlend in2="BackgroundImageFix" result="effect1_dropShadow"/>
            <feBlend in="SourceGraphic" in2="effect1_dropShadow" result="shape"/>
        </filter>
    </defs>
</svg>
