<svg width="72" height="72" viewBox="0 0 72 72" fill="none" xmlns="http://www.w3.org/2000/svg">
<path d="M36 72C55.8823 72 72 55.8823 72 36C72 16.1177 55.8823 0 36 0C16.1177 0 0 16.1177 0 36C0 55.8823 16.1177 72 36 72Z" fill="#66B759"/>
<path d="M17.4375 51.7502H26.4375V33.7502H17.4375V51.7502ZM42.5019 29.2502L45.0506 19.7349C45.5338 17.9355 44.4662 16.0855 42.6645 15.6017L41.5789 15.3092L30.1939 34.8752L30.204 34.878C29.2444 36.5329 28.6875 38.4493 28.6875 40.5002C28.6875 46.713 33.7236 51.7502 39.9375 51.7502H46.0193C49.1946 51.7502 51.8501 49.5548 52.5701 46.6011L52.5774 46.5955L57.2169 29.2502H42.5019Z" fill="white"/>
</svg>
