<svg width="31" height="31" viewBox="0 0 31 31" fill="none" xmlns="http://www.w3.org/2000/svg">
<path d="M24.1743 0.079834L30.3344 6.50125V30.9203H7.32251V31H30.413V6.58207L24.1743 0.079834Z" fill="#909090"/>
<path d="M24.0979 0H7.2439V30.9202H30.3344V6.50223L24.0968 0" fill="#F4F4F4"/>
<path d="M7.07462 1.66077H0V9.21921H22.2535V1.66077H7.07462Z" fill="#7A7B7C"/>
<path d="M22.3717 9.09071H0.143677V1.52673H22.3717V9.09071Z" fill="#DD2025"/>
<path d="M7.51393 2.80554H6.06689V8.11981H7.20503V6.32735L7.45636 6.34175C7.70056 6.33754 7.94247 6.2938 8.17267 6.21221C8.37451 6.14279 8.56019 6.03319 8.71849 5.89003C8.87958 5.75366 9.00659 5.58154 9.08939 5.38739C9.20043 5.06466 9.24009 4.72167 9.20564 4.38211C9.19872 4.13954 9.1562 3.89931 9.07942 3.66911C9.00953 3.50294 8.90581 3.35313 8.77486 3.22924C8.64391 3.10534 8.4886 3.01006 8.31882 2.94947C8.17202 2.89633 8.02035 2.85776 7.866 2.83433C7.74911 2.81629 7.63108 2.80667 7.51282 2.80554H7.51393ZM7.30357 5.34532H7.20503V3.70675H7.41871C7.51302 3.69995 7.60765 3.71443 7.69561 3.74912C7.78357 3.7838 7.86261 3.83781 7.92689 3.90715C8.0601 4.08541 8.13126 4.3024 8.1295 4.52493C8.1295 4.79729 8.1295 5.04418 7.88371 5.218C7.70664 5.31539 7.50509 5.35924 7.30357 5.34421" fill="#464648"/>
<path d="M11.368 2.79119C11.2451 2.79119 11.1255 2.80005 11.0414 2.80337L10.7779 2.81001H9.91431V8.12428H10.9307C11.3191 8.13493 11.7058 8.0691 12.0688 7.93053C12.361 7.81464 12.6197 7.62782 12.8217 7.38693C13.018 7.14386 13.159 6.86086 13.2346 6.55768C13.3216 6.21432 13.364 5.86119 13.3608 5.507C13.3823 5.08868 13.3499 4.66933 13.2645 4.25926C13.1834 3.95741 13.0316 3.67922 12.8217 3.44772C12.6569 3.2608 12.4552 3.11001 12.2293 3.00487C12.0353 2.9151 11.8313 2.84893 11.6215 2.8078C11.5381 2.79402 11.4536 2.78772 11.3691 2.78898L11.368 2.79119ZM11.1676 7.14779H11.0569V3.75551H11.0713C11.2995 3.72925 11.5305 3.77043 11.7356 3.87397C11.8857 3.99391 12.0081 4.145 12.0943 4.31683C12.1872 4.49766 12.2408 4.69614 12.2515 4.89918C12.2614 5.14275 12.2515 5.34204 12.2515 5.507C12.256 5.69703 12.2438 5.88708 12.2149 6.07497C12.1808 6.26786 12.1177 6.45449 12.0278 6.62854C11.9261 6.79035 11.7886 6.9267 11.6259 7.02711C11.4893 7.11545 11.3276 7.15667 11.1654 7.14446" fill="#464648"/>
<path d="M16.7896 2.80994H14.0992V8.12421H15.2374V6.01621H16.6767V5.02864H15.2374V3.7975H16.7874V2.80994" fill="#464648"/>
<path d="M21.6069 20.2109C21.6069 20.2109 25.1365 19.571 25.1365 20.7767C25.1365 21.9824 22.9499 21.4919 21.6069 20.2109ZM18.9974 20.3028C18.4366 20.4268 17.8901 20.6082 17.3666 20.8442L17.8094 19.8478C18.2523 18.8514 18.7118 17.4929 18.7118 17.4929C19.2402 18.3823 19.8551 19.2175 20.5474 19.9862C20.0253 20.0641 19.5078 20.1705 18.9974 20.3051V20.3028ZM17.6002 13.1064C17.6002 12.0558 17.9401 11.769 18.2047 11.769C18.4693 11.769 18.7671 11.8963 18.7771 12.8086C18.6909 13.7259 18.4988 14.6302 18.2047 15.5034C17.8018 14.7703 17.5933 13.9462 17.5991 13.1098L17.6002 13.1064ZM12.4531 24.7491C11.3703 24.1014 14.7238 22.1075 15.3317 22.0433C15.3283 22.0444 13.5868 25.4267 12.4531 24.7491ZM26.1672 20.9195C26.1562 20.8088 26.0565 19.5832 23.8755 19.6352C22.9664 19.6206 22.0577 19.6847 21.1597 19.8268C20.2897 18.9504 19.5406 17.9618 18.9321 16.8873C19.3155 15.7795 19.5475 14.6251 19.6218 13.4552C19.5897 12.1266 19.272 11.3649 18.2534 11.376C17.2348 11.387 17.0865 12.2783 17.2204 13.6046C17.3517 14.4959 17.5992 15.3662 17.9567 16.1931C17.9567 16.1931 17.4862 17.6579 16.8639 19.1149C16.2417 20.5719 15.8166 21.3358 15.8166 21.3358C14.7346 21.688 13.7161 22.2113 12.7996 22.8858C11.8874 23.735 11.5165 24.3871 11.997 25.0392C12.411 25.6016 13.8603 25.7289 15.1556 24.0317C15.8439 23.1551 16.4727 22.2333 17.0378 21.2727C17.0378 21.2727 19.0129 20.7313 19.6274 20.5829C20.2418 20.4346 20.9847 20.3172 20.9847 20.3172C20.9847 20.3172 22.7883 22.1318 24.5276 22.0676C26.2669 22.0034 26.1827 21.028 26.1717 20.9217" fill="#DD2025"/>
<path d="M24.0128 0.0853271V6.58756H30.2493L24.0128 0.0853271Z" fill="#909090"/>
<path d="M24.0979 0V6.50223H30.3344L24.0979 0Z" fill="#F4F4F4"/>
<path d="M7.42884 2.72009H5.98181V8.03436H7.12438V6.24301L7.37681 6.2574C7.62101 6.2532 7.86292 6.20946 8.09313 6.12787C8.29495 6.05842 8.48062 5.94883 8.63895 5.80569C8.79883 5.66895 8.92467 5.49686 9.00652 5.30305C9.11756 4.98032 9.15722 4.63733 9.12277 4.29777C9.11585 4.0552 9.07333 3.81497 8.99655 3.58477C8.92666 3.4186 8.82294 3.26879 8.69199 3.14489C8.56104 3.021 8.40573 2.92572 8.23595 2.86513C8.08848 2.81147 7.93605 2.77253 7.78091 2.74888C7.66403 2.73084 7.546 2.72122 7.42774 2.72009H7.42884ZM7.21849 5.25987H7.11995V3.6213H7.33474C7.42904 3.6145 7.52367 3.62898 7.61163 3.66367C7.69959 3.69835 7.77863 3.75236 7.84291 3.8217C7.97612 3.99996 8.04728 4.21695 8.04552 4.43948C8.04552 4.71184 8.04552 4.95873 7.79974 5.13255C7.62267 5.22994 7.42112 5.27379 7.21959 5.25876" fill="white"/>
<path d="M11.2826 2.70574C11.1597 2.70574 11.0402 2.7146 10.956 2.71792L10.6958 2.72456H9.83228V8.03883H10.8486C11.237 8.04948 11.6238 7.98365 11.9868 7.84508C12.279 7.72919 12.5377 7.54237 12.7396 7.30148C12.936 7.05841 13.0769 6.77541 13.1526 6.47223C13.2396 6.12887 13.282 5.77574 13.2788 5.42155C13.3003 5.00323 13.2679 4.58388 13.1825 4.17381C13.1014 3.87196 12.9496 3.59377 12.7396 3.36227C12.5749 3.17535 12.3732 3.02456 12.1473 2.91942C11.9533 2.82965 11.7492 2.76348 11.5395 2.72235C11.4561 2.70857 11.3716 2.70227 11.2871 2.70353L11.2826 2.70574ZM11.0856 7.06234H10.9748V3.67006H10.9892C11.2175 3.6438 11.4484 3.68498 11.6535 3.78852C11.8037 3.90846 11.9261 4.05955 12.0122 4.23138C12.1052 4.41221 12.1588 4.61069 12.1694 4.81373C12.1794 5.05731 12.1694 5.25659 12.1694 5.42155C12.174 5.61158 12.1617 5.80163 12.1329 5.98952C12.0988 6.18241 12.0357 6.36904 11.9458 6.54309C11.844 6.7049 11.7066 6.84125 11.5439 6.94166C11.4073 7.03001 11.2456 7.07122 11.0833 7.05901" fill="white"/>
<path d="M16.7043 2.72461H14.0139V8.03888H15.1521V5.93089H16.5913V4.94332H15.1521V3.71218H16.7021V2.72461" fill="white"/>
</svg>
