<svg width="154" height="66" viewBox="0 0 154 66" fill="none" xmlns="http://www.w3.org/2000/svg">
	<rect width="154" height="66" fill="#EC231A"/>
	<path fill-rule="evenodd" clip-rule="evenodd" d="M29.7022 31.0787H33.502V20.2126H29.7022V31.0787ZM37.3017 38.316H41.1018V23.8344H37.3017V38.316ZM82.9027 31.0787H86.703V23.8346H82.9027V31.0787ZM67.7024 38.3296H71.5024V23.8411H67.7024V38.3296ZM75.303 41.9516H79.103V27.4634H75.303V41.9516ZM22.1019 38.3228H25.9019V31.0787H22.1019V38.3228Z" fill="white" fill-opacity="0.6"/>
	<path fill-rule="evenodd" clip-rule="evenodd" d="M60.1025 45.5674H63.9025V27.4569H60.1025V45.5674Z" fill="white"/>
	<path fill-rule="evenodd" clip-rule="evenodd" d="M44.9024 23.8346H48.7021V16.5903H44.9024V23.8346Z" fill="white"/>
	<path fill-rule="evenodd" clip-rule="evenodd" d="M44.9024 45.5674H48.7021V27.4569H44.9024V45.5674Z" fill="white"/>
	<path fill-rule="evenodd" clip-rule="evenodd" d="M52.5025 45.5674H56.3023V16.5905H52.5025V45.5674Z" fill="white"/>
	<path fill-rule="evenodd" clip-rule="evenodd" d="M60.1025 23.8346H63.9023V16.5903H60.1025V23.8346Z" fill="white"/>
	<mask id="mask0" mask-type="alpha" maskUnits="userSpaceOnUse" x="94" y="27" width="43" height="19">
	<path fill-rule="evenodd" clip-rule="evenodd" d="M94.303 45.7238H136.124V36.59V27.4562H94.303V45.7238Z" fill="white"/>
	</mask>
	<g mask="url(#mask0)">
	<path fill-rule="evenodd" clip-rule="evenodd" d="M132.549 44.9501V38.3226H131.803V45.5667H136.124V44.9501H132.549ZM128.155 40.9671C128.421 41.5876 128.695 42.2566 128.975 42.9746H125.731C126.01 42.2574 126.28 41.5892 126.54 40.97C126.801 40.3505 127.069 39.7399 127.344 39.1381C127.619 39.737 127.89 40.3468 128.155 40.9671V40.9671ZM130.783 45.5667C130.477 44.8138 130.197 44.1109 129.943 43.4586C129.688 42.806 129.437 42.1899 129.19 41.6093C128.942 41.0281 128.698 40.4696 128.457 39.9324C128.216 39.3958 127.962 38.8592 127.694 38.3226H127.037C126.768 38.8616 126.513 39.3987 126.269 39.9348C126.026 40.4706 125.781 41.0289 125.534 41.6103C125.287 42.1912 125.035 42.8073 124.778 43.4586C124.522 44.1099 124.249 44.8127 123.96 45.5667H124.739C124.875 45.2131 125.003 44.8714 125.125 44.543C125.246 44.2146 125.37 43.8936 125.497 43.5808H129.21C129.321 43.8917 129.438 44.2118 129.559 44.5407C129.681 44.8688 129.815 45.211 129.96 45.5667H130.783ZM118.235 38.3226V38.9395H120.67V45.5667H121.416V38.9395H123.851V38.3226H118.235ZM115.833 45.5667H116.579V38.3226H115.833V45.5667ZM111.748 38.9499C112.033 38.9987 112.287 39.0841 112.51 39.2059C112.733 39.3281 112.912 39.4936 113.048 39.7026C113.183 39.9116 113.25 40.1767 113.25 40.4969C113.25 40.8316 113.188 41.1068 113.064 41.3228C112.94 41.5389 112.762 41.708 112.532 41.8297C112.302 41.9517 112.024 42.0351 111.698 42.0807C111.373 42.1261 111.009 42.1485 110.607 42.1485H109.664V38.9499C109.803 38.9361 109.969 38.9202 110.163 38.903C110.357 38.8853 110.592 38.8767 110.871 38.8767C111.17 38.8767 111.463 38.9012 111.748 38.9499V38.9499ZM109.845 38.3072C109.49 38.3385 109.181 38.3888 108.918 38.4587V45.5667H109.664V42.7653H110.695C111.214 42.7653 111.68 42.7255 112.093 42.6452C112.506 42.5652 112.856 42.4359 113.141 42.2585C113.426 42.0807 113.645 41.8475 113.799 41.5579C113.953 41.2689 114.029 40.9186 114.029 40.5074C114.029 39.7896 113.766 39.2356 113.24 38.8454C112.713 38.455 111.912 38.2601 110.838 38.2601C110.531 38.2601 110.2 38.2757 109.845 38.3072V38.3072ZM104.956 40.9671C105.222 41.5876 105.495 42.2566 105.776 42.9746H102.531C102.81 42.2574 103.08 41.5892 103.341 40.97C103.602 40.3505 103.87 39.7399 104.145 39.1381C104.42 39.737 104.69 40.3468 104.956 40.9671V40.9671ZM107.583 45.5667C107.278 44.8138 106.998 44.1109 106.743 43.4586C106.489 42.806 106.238 42.1899 105.99 41.6093C105.743 41.0281 105.499 40.4696 105.258 39.9324C105.017 39.3958 104.763 38.8592 104.495 38.3226H103.837C103.569 38.8616 103.313 39.3987 103.07 39.9348C102.826 40.4706 102.581 41.0289 102.335 41.6103C102.088 42.1912 101.836 42.8073 101.579 43.4586C101.322 44.1099 101.05 44.8127 100.761 45.5667H101.54C101.675 45.2131 101.804 44.8714 101.925 44.543C102.047 44.2146 102.17 43.8936 102.297 43.5808H106.01C106.122 43.8917 106.238 44.2118 106.36 44.5407C106.482 44.8688 106.615 45.211 106.76 45.5667H107.583ZM98.6229 45.6767C98.8714 45.6454 99.091 45.6053 99.281 45.5566C99.471 45.5078 99.6285 45.4606 99.7526 45.415C99.8771 45.3697 99.9645 45.3301 100.016 45.2949L99.8073 44.6887C99.6394 44.7794 99.3923 44.8685 99.0672 44.9556C98.7418 45.0424 98.3377 45.0859 97.8551 45.0859C97.4165 45.0859 97.0272 45.0126 96.687 44.8667C96.3471 44.7202 96.0601 44.5107 95.826 44.2389C95.5922 43.9673 95.4145 43.6384 95.2942 43.2511C95.1736 42.8646 95.1132 42.4307 95.1132 41.9499C95.1132 41.4831 95.1736 41.0578 95.2942 40.6747C95.4145 40.2916 95.5958 39.9603 95.8369 39.6817C96.0781 39.4029 96.3761 39.1868 96.7308 39.0336C97.0857 38.8801 97.5005 38.8035 97.9759 38.8035C98.3926 38.8035 98.7418 38.854 99.0234 38.9551C99.3048 39.0563 99.5369 39.1589 99.7198 39.2637L99.961 38.6466C99.8951 38.6049 99.8002 38.558 99.6755 38.5053C99.5514 38.4532 99.4016 38.4011 99.2263 38.3489C99.0505 38.2966 98.846 38.253 98.6119 38.2179C98.3779 38.1832 98.1184 38.166 97.8332 38.166C97.3728 38.166 96.9304 38.2478 96.506 38.4115C96.0819 38.5754 95.7093 38.8175 95.3874 39.1381C95.0656 39.4586 94.808 39.854 94.6142 40.3244C94.4203 40.7951 94.3233 41.3333 94.3233 41.9395C94.3233 42.5459 94.4129 43.0843 94.5923 43.5548C94.7714 44.0249 95.0164 44.4205 95.327 44.7408C95.6379 45.0616 96.0035 45.3053 96.4237 45.4729C96.8442 45.6397 97.2995 45.7239 97.7892 45.7239C98.0962 45.7239 98.3743 45.7077 98.6229 45.6767V45.6767ZM103.446 34.7006H104.51V27.4565H103.446V34.7006ZM96.4871 27.4562V28.3345H98.8777V34.7006H99.9418V28.3345H102.333V27.4562H96.4871ZM94.303 34.7003H95.3669V27.4562H94.303V34.7003Z" fill="white"/>
	</g>
</svg>
