<svg width="20" height="20" viewBox="0 0 20 20" fill="none" xmlns="http://www.w3.org/2000/svg">
<path d="M10 20C15.5228 20 20 15.5228 20 10C20 4.47715 15.5228 0 10 0C4.47715 0 0 4.47715 0 10C0 15.5228 4.47715 20 10 20Z" fill="#5F94C8"/>
<path d="M10.577 8.01551V14.6H9.41998V8.01551H10.577ZM10.824 5.94851C10.824 6.06117 10.8001 6.16734 10.7525 6.26701C10.7091 6.36234 10.6485 6.44901 10.5705 6.52701C10.4968 6.60067 10.408 6.65917 10.304 6.70251C10.2043 6.74584 10.0981 6.76751 9.98548 6.76751C9.87281 6.76751 9.76664 6.74584 9.66698 6.70251C9.57164 6.65917 9.48714 6.60067 9.41348 6.52701C9.33981 6.44901 9.28131 6.36234 9.23798 6.26701C9.19464 6.16734 9.17298 6.06117 9.17298 5.94851C9.17298 5.83584 9.19464 5.72967 9.23798 5.63001C9.28131 5.52601 9.33981 5.43717 9.41348 5.36351C9.48714 5.28551 9.57164 5.22484 9.66698 5.18151C9.76664 5.13817 9.87281 5.11651 9.98548 5.11651C10.0981 5.11651 10.2043 5.13817 10.304 5.18151C10.408 5.22484 10.4968 5.28551 10.5705 5.36351C10.6485 5.43717 10.7091 5.52601 10.7525 5.63001C10.8001 5.72967 10.824 5.83584 10.824 5.94851Z" fill="white"/>
</svg>
