<svg width="192" height="88" viewBox="0 0 192 88" fill="none" xmlns="http://www.w3.org/2000/svg">
<rect width="192" height="88" fill="#EC231A"/>
<path d="M118.27 53.1563C117.885 51.028 116.182 49.7713 114.094 49.7713C111.439 49.7713 109.513 51.8185 109.513 55.1022C109.513 58.3859 111.439 60.4331 114.094 60.4331C116.182 60.4331 117.885 59.1764 118.27 57.0481H117.013C116.709 58.4872 115.473 59.2575 114.094 59.2575C112.209 59.2575 110.73 57.798 110.73 55.1022C110.73 52.4063 112.209 50.9469 114.094 50.9469C115.473 50.9469 116.709 51.7172 117.013 53.1563H118.27ZM121.154 60.2912L122.198 57.3521H126.394L127.438 60.2912H128.756L124.945 49.9132H123.648L119.837 60.2912H121.154ZM122.594 56.2373L124.256 51.555H124.337L125.999 56.2373H122.594ZM130.8 60.2912H132.057V56.5008H134.327C136.744 56.5008 137.834 55.0312 137.834 53.1968C137.834 51.3624 136.744 49.9132 134.307 49.9132H130.8V60.2912ZM132.057 55.386V51.028H134.266C135.954 51.028 136.597 51.9503 136.597 53.1968C136.597 54.4434 135.954 55.386 134.287 55.386H132.057ZM141.543 49.9132H140.286V60.2912H141.543V49.9132ZM143.923 51.028H147.187V60.2912H148.443V51.028H151.707V49.9132H143.923V51.028ZM153.288 60.2912L154.332 57.3521H158.527L159.571 60.2912H160.889L157.078 49.9132H155.781L151.97 60.2912H153.288ZM154.727 56.2373L156.389 51.555H156.47L158.132 56.2373H154.727ZM162.933 60.2912H169.014V59.1764H164.19V49.9132H162.933V60.2912Z" fill="white"/>
<path d="M112.149 34.0496H109.331V44.4276H112.149V34.0496ZM113.628 36.3198H116.75V44.4276H119.527V36.3198H122.648V34.0496H113.628V36.3198ZM126.954 34.0496H124.137V44.4276H126.954V34.0496Z" fill="white"/>
<path fill-rule="evenodd" clip-rule="evenodd" d="M31.8134 44.5144H36.8494V30.036H31.8134V44.5144ZM84.6896 56.4749H89.7256V41.9965H84.6896V56.4749ZM40.6254 52.6978H45.6614V33.8129H40.6254V52.6978ZM75.8767 52.6978H80.9127V33.8129H75.8767V52.6978ZM23 52.6975H28.036V42.6256H23V52.6975ZM93.5045 43.8848H98.5404V33.8129H93.5045V43.8848Z" fill="white" fill-opacity="0.6"/>
<path fill-rule="evenodd" clip-rule="evenodd" d="M54.4738 34.4424H49.4379V25H54.4738V34.4424ZM54.4738 60.8813H49.4379V38.2194H54.4738V60.8813ZM58.2508 60.8813H63.2868V25H58.2508V60.8813ZM67.0638 34.4424H72.0997V25H67.0638V34.4424ZM67.0638 60.8813H72.0997V38.2194H67.0638V60.8813Z" fill="white"/>
</svg>
