<svg width="250" height="113" viewBox="0 0 250 113" fill="none" xmlns="http://www.w3.org/2000/svg">
<path d="M250 0H0V112.269H250V0Z" fill="white"/>
<path d="M113.426 65.9723H107.639V41.6667H113.426V65.9723Z" fill="#D0D0D3"/>
<path d="M125 71.7592H119.213V48.6111H125V71.7592Z" fill="#D0D0D3"/>
<path d="M136.574 53.2408H130.787V40.5093H136.574V53.2408Z" fill="#D0D0D3"/>
<path d="M55.5556 53.2407H49.7686V35.8796H55.5556V53.2407Z" fill="#D0D0D3"/>
<path d="M67.1297 65.9721H61.3427V42.824H67.1297V65.9721Z" fill="#D0D0D3"/>
<path d="M43.9815 65.9722H38.1945V53.2407H43.9815V65.9722Z" fill="#D0D0D3"/>
<path fill-rule="evenodd" clip-rule="evenodd" d="M72.9166 41.6668H78.7037V28.9353H72.9166V41.6668Z" fill="#E1372F"/>
<path fill-rule="evenodd" clip-rule="evenodd" d="M72.9167 77.5462H78.7037V47.4536H72.9167V77.5462Z" fill="#E1372F"/>
<path fill-rule="evenodd" clip-rule="evenodd" d="M84.4907 77.5464H90.2778V28.9353H84.4907V77.5464Z" fill="#E1372F"/>
<path fill-rule="evenodd" clip-rule="evenodd" d="M96.0648 41.6668H101.852V28.9353H96.0648V41.6668Z" fill="#E1372F"/>
<path fill-rule="evenodd" clip-rule="evenodd" d="M96.0648 77.5462H101.852V47.4536H96.0648V77.5462Z" fill="#E1372F"/>
<path d="M154.23 46.4016V59.0279H151.56V46.4016H154.23Z" fill="#E1372F"/>
<path d="M156.119 48.6026V46.4016H166.489V48.6026H162.623V59.0279H159.984V48.6026H156.119Z" fill="#E1372F"/>
<path d="M171.04 46.4016V59.0279H168.37V46.4016H171.04Z" fill="#E1372F"/>
<path d="M162.152 68.8656C161.684 66.2763 159.612 64.7473 157.072 64.7473C153.841 64.7473 151.499 67.238 151.499 71.2331C151.499 75.2281 153.841 77.7188 157.072 77.7188C159.612 77.7188 161.684 76.1899 162.152 73.6005H160.623C160.253 75.3514 158.749 76.2885 157.072 76.2885C154.779 76.2885 152.978 74.5129 152.978 71.2331C152.978 67.9532 154.779 66.1776 157.072 66.1776C158.749 66.1776 160.253 67.1147 160.623 68.8656H162.152Z" fill="#E1372F"/>
<path d="M165.314 77.5462L166.584 73.9704H171.689L172.959 77.5462H174.562L169.926 64.9199H168.348L163.711 77.5462H165.314ZM167.065 72.6141L169.087 66.9175H169.186L171.208 72.6141H167.065Z" fill="#E1372F"/>
<path d="M176.702 77.5462H178.231V72.9347H180.993C183.934 72.9347 185.26 71.1468 185.26 68.915C185.26 66.6832 183.934 64.9199 180.969 64.9199H176.702V77.5462ZM178.231 71.5783V66.2763H180.919C182.972 66.2763 183.755 67.3983 183.755 68.915C183.755 70.4316 182.972 71.5783 180.944 71.5783H178.231Z" fill="#E1372F"/>
<path d="M189.425 64.9199H187.896V77.5462H189.425V64.9199Z" fill="#E1372F"/>
<path d="M191.974 66.2763H195.944V77.5462H197.473V66.2763H201.444V64.9199H191.974V66.2763Z" fill="#E1372F"/>
<path d="M202.151 77.5462L203.421 73.9704H208.526L209.796 77.5462H211.399L206.763 64.9199H205.184L200.548 77.5462H202.151ZM203.902 72.6141L205.924 66.9175H206.023L208.045 72.6141H203.902Z" fill="#E1372F"/>
<path d="M213.279 77.5462H220.677V76.1899H214.808V64.9199H213.279V77.5462Z" fill="#E1372F"/>
</svg>
