<svg width="50" height="51" viewBox="0 0 50 51" fill="none" xmlns="http://www.w3.org/2000/svg">
<path d="M10.4166 30.2101H47.9166V40.6267H10.4166V30.2101Z" fill="#7CB342"/>
<path d="M2.00012 9.37671H4.08346V11.46H2.00012V9.37671ZM4.08346 11.46H6.16679V13.5434H4.08346V11.46ZM6.16679 9.37671H8.25012V11.46H6.16679V9.37671ZM8.25012 11.46H10.3335V13.5434H8.25012V11.46ZM2.00012 13.5434H4.08346V15.6267H2.00012V13.5434ZM4.08346 15.6267H6.16679V17.71H4.08346V15.6267ZM6.16679 13.5434H8.25012V15.6267H6.16679V13.5434ZM8.25012 15.6267H10.3335V17.71H8.25012V15.6267ZM2.00012 17.71H4.08346V19.7934H2.00012V17.71ZM4.08346 19.7934H6.16679V21.8767H4.08346V19.7934ZM6.16679 17.71H8.25012V19.7934H6.16679V17.71ZM8.25012 19.7934H10.3335V21.8767H8.25012V19.7934ZM2.00012 21.8767H4.08346V23.96H2.00012V21.8767ZM4.08346 23.96H6.16679V26.0434H4.08346V23.96ZM6.16679 21.8767H8.25012V23.96H6.16679V21.8767ZM8.25012 23.96H10.3335V26.0434H8.25012V23.96ZM2.00012 26.0434H4.08346V28.1267H2.00012V26.0434ZM4.08346 28.1267H6.16679V30.21H4.08346V28.1267ZM6.16679 26.0434H8.25012V28.1267H6.16679V26.0434ZM8.25012 28.1267H10.3335V30.21H8.25012V28.1267ZM2.00012 30.21H4.08346V32.2934H2.00012V30.21ZM4.08346 32.2934H6.16679V34.3767H4.08346V32.2934ZM6.16679 30.21H8.25012V32.2934H6.16679V30.21ZM8.25012 32.2934H10.3335V34.3767H8.25012V32.2934ZM2.00012 34.3767H4.08346V36.46H2.00012V34.3767ZM4.08346 36.46H6.16679V38.5434H4.08346V36.46ZM6.16679 34.3767H8.25012V36.46H6.16679V34.3767ZM8.25012 36.46H10.3335V38.5434H8.25012V36.46ZM2.00012 38.5434H4.08346V40.6267H2.00012V38.5434ZM6.16679 38.5434H8.25012V40.6267H6.16679V38.5434ZM10.3335 9.37671H47.8335V30.21H10.3335V9.37671Z" fill="#FF3D00"/>
</svg>
