<svg width="42" height="29" viewBox="0 0 42 29" fill="none" xmlns="http://www.w3.org/2000/svg">
<path d="M42 12.6256V15.4708L29.7073 22.545L17.4146 15.4708V12.6256H42ZM31.7561 25.9018H27.6585V23.4886L17.4146 17.594V26.923C17.4146 28.0505 18.3325 28.9655 19.4634 28.9655H39.9512C41.0832 28.9655 42 28.0505 42 26.923V17.593L31.7561 23.4876V25.9018ZM33.9688 10.5831L32.7866 8.54066H26.63L25.4479 10.5831H33.9688ZM11.3206 0L9.87201 1.44404L13.9184 5.47796H0V7.51942H13.9184L9.87201 11.5533L11.3206 12.9974L17.8398 6.49818L11.3206 0Z" fill="#F04F48"/>
</svg>
