<svg width="28" height="32" viewBox="0 0 28 32" fill="none" xmlns="http://www.w3.org/2000/svg">
<path d="M24.2576 4.6592L23.0624 9.12319L27.5264 7.92639L24.2576 4.6592ZM12.8 6.4C5.7424 6.4 0 12.1424 0 19.2C0 26.2576 5.7424 32 12.8 32C19.8576 32 25.6 26.2576 25.6 19.2C25.6 12.1424 19.8576 6.4 12.8 6.4ZM13.6 19.2C13.6 19.6424 13.2424 20 12.8 20C12.3576 20 12 19.6424 12 19.2V9.6H13.6V19.2ZM12.8 4.8C14.1248 4.8 15.2 3.7248 15.2 2.4V0H10.4V2.4C10.4 3.7248 11.4752 4.8 12.8 4.8Z" fill="#F04F48"/>
</svg>
