<svg width="32" height="28" viewBox="0 0 32 28" fill="none" xmlns="http://www.w3.org/2000/svg">
<path d="M11.4282 9.14286H3.82618L4.13699 8.832C7.62144 5.34857 12.2532 3.42857 17.1799 3.42857C22.1066 3.42857 26.7373 5.34742 30.2217 8.832L31.8378 7.21599C27.9225 3.30057 22.7169 1.14401 17.1799 1.14401C11.6418 1.14401 6.43641 3.30057 2.52112 7.21599L2.28563 7.45142V0H0V11.4286H11.4282V9.14286ZM20.5707 16V18.2857H28.1018L27.791 18.5965C24.3066 22.08 19.6748 24 14.7481 24C9.82141 24 5.19072 22.0811 1.70627 18.5965L0.0902591 20.2125C4.00555 24.128 9.21114 26.2846 14.7481 26.2846C20.2862 26.2846 25.4917 24.128 29.407 20.2125L29.7144 19.9051V27.4286H32V16H20.5707Z" fill="#F04F48"/>
</svg>
