<svg width="31" height="51" viewBox="0 0 31 51" fill="none" xmlns="http://www.w3.org/2000/svg">
<path d="M2.08337 9.37671H47.9167V40.6267H2.08337V9.37671Z" fill="#00BCD4"/>
<path d="M27.6145 18.0163C26.4824 18.0163 25.3966 18.4646 24.5961 19.2626C23.7955 20.0606 23.3458 21.1429 23.3458 22.2715C23.3458 23.4001 23.7955 24.4824 24.5961 25.2804C25.3966 26.0784 26.4824 26.5267 27.6145 26.5267C28.7467 26.5267 29.8325 26.0784 30.633 25.2804C31.4336 24.4824 31.8833 23.4001 31.8833 22.2715C31.8833 21.1429 31.4336 20.0606 30.633 19.2626C29.8325 18.4646 28.7467 18.0163 27.6145 18.0163ZM27.6145 17.4361C27.8687 17.433 27.9635 17.2746 27.9635 17.085C27.9635 16.8319 27.6145 15.6267 27.6145 15.6267C27.6145 15.6267 27.2656 16.8319 27.2656 17.085C27.2656 17.2746 27.3604 17.4361 27.6145 17.4361ZM32.4656 22.2715C32.4687 22.5246 32.627 22.6194 32.8177 22.6194C33.0718 22.6194 34.2802 22.2715 34.2802 22.2715C34.2802 22.2715 33.0708 21.9236 32.8177 21.9236C32.627 21.9236 32.4656 22.0184 32.4656 22.2715ZM27.6145 27.108C27.3604 27.1111 27.2656 27.2694 27.2656 27.459C27.2656 27.7121 27.6145 28.9173 27.6145 28.9173C27.6145 28.9173 27.9635 27.7121 27.9635 27.459C27.9635 27.2694 27.8677 27.108 27.6145 27.108ZM22.7625 22.2715C22.7593 22.0184 22.601 21.9236 22.4104 21.9236C22.1562 21.9236 20.9479 22.2715 20.9479 22.2715C20.9479 22.2715 22.1573 22.6194 22.4104 22.6194C22.601 22.6194 22.7625 22.5246 22.7625 22.2715ZM29.4708 17.8038C29.7062 17.8975 29.8552 17.7882 29.9281 17.6121C30.025 17.3788 30.1656 16.1319 30.1656 16.1319C30.1656 16.1319 29.3802 17.1121 29.2833 17.3455C29.2104 17.5215 29.2364 17.7069 29.4708 17.8038ZM32.0968 24.1225C32.0031 24.358 32.1125 24.5059 32.2885 24.5788C32.5229 24.6757 33.7739 24.8152 33.7739 24.8152C33.7739 24.8152 32.7906 24.033 32.5562 23.9361C32.3791 23.8632 32.1937 23.8882 32.0968 24.1225ZM25.7583 26.7392C25.5229 26.6455 25.3739 26.7548 25.301 26.9309C25.2041 27.1642 25.0635 28.4111 25.0635 28.4111C25.0635 28.4111 25.8489 27.4309 25.9458 27.1975C26.0187 27.0215 25.9927 26.8361 25.7583 26.7392ZM23.1323 20.4215C23.226 20.1861 23.1166 20.0382 22.9406 19.9653C22.7062 19.8684 21.4552 19.7288 21.4552 19.7288C21.4552 19.7288 22.4385 20.5111 22.6729 20.608C22.8489 20.6809 23.0354 20.6548 23.1323 20.4215ZM31.0447 18.8528C31.226 19.0298 31.4062 18.985 31.5406 18.8507C31.7197 18.6715 32.3281 17.5736 32.3281 17.5736C32.3281 17.5736 31.226 18.1798 31.0468 18.359C30.9125 18.4923 30.8656 18.6736 31.0447 18.8528ZM31.0447 25.6913C30.8677 25.8725 30.9125 26.0517 31.0468 26.185C31.226 26.3642 32.3281 26.9705 32.3281 26.9705C32.3281 26.9705 31.7197 25.8725 31.5406 25.6934C31.4062 25.559 31.2239 25.5121 31.0447 25.6913ZM24.1843 25.6913C24.0031 25.5142 23.8229 25.559 23.6885 25.6934C23.5093 25.8725 22.901 26.9705 22.901 26.9705C22.901 26.9705 24.0031 26.3642 24.1823 26.185C24.3166 26.0517 24.3635 25.8705 24.1843 25.6913ZM24.1843 18.8528C24.3614 18.6715 24.3166 18.4923 24.1823 18.359C24.0031 18.1798 22.901 17.5736 22.901 17.5736C22.901 17.5736 23.5093 18.6715 23.6885 18.8507C23.8229 18.984 24.0041 19.0309 24.1843 18.8528ZM32.0968 20.4215C32.1968 20.6538 32.3802 20.6809 32.5562 20.609C32.7906 20.5121 33.7739 19.7298 33.7739 19.7298C33.7739 19.7298 32.5239 19.8694 32.2885 19.9663C32.1125 20.0382 31.9989 20.1871 32.0968 20.4215ZM29.4708 26.7392C29.2375 26.8392 29.2104 27.0215 29.2833 27.1965C29.3802 27.4298 30.1656 28.41 30.1656 28.41C30.1656 28.41 30.025 27.1632 29.9281 26.9298C29.8552 26.7559 29.7052 26.6423 29.4708 26.7392ZM23.1323 24.1225C23.0323 23.8903 22.8489 23.8632 22.6729 23.935C22.4385 24.0319 21.4552 24.8142 21.4552 24.8142C21.4552 24.8142 22.7052 24.6746 22.9406 24.5778C23.1166 24.5059 23.2291 24.3559 23.1323 24.1225ZM25.7583 17.8038C25.9916 17.7038 26.0187 17.5215 25.9458 17.3465C25.8489 17.1132 25.0635 16.133 25.0635 16.133C25.0635 16.133 25.2041 17.3798 25.301 17.6132C25.3739 17.7882 25.5229 17.9007 25.7583 17.8038ZM28.5604 17.5288C28.8104 17.5746 28.9343 17.4382 28.9718 17.2528C29.0218 17.0048 28.9145 15.7548 28.9145 15.7548C28.9145 15.7548 28.3364 16.8684 28.2864 17.1173C28.25 17.3028 28.3114 17.4798 28.5604 17.5288ZM32.3729 23.2153C32.326 23.4642 32.4635 23.5882 32.65 23.6246C32.8989 23.6736 34.1531 23.5673 34.1531 23.5673C34.1531 23.5673 33.0354 22.9913 32.7864 22.9413C32.5989 22.9059 32.4218 22.9673 32.3729 23.2153ZM26.6677 27.0153C26.4177 26.9694 26.2937 27.1059 26.2562 27.2913C26.2062 27.5392 26.3135 28.7892 26.3135 28.7892C26.3135 28.7892 26.8916 27.6757 26.9416 27.4267C26.9791 27.2413 26.9166 27.0642 26.6677 27.0153ZM22.8562 21.3288C22.9031 21.0798 22.7656 20.9559 22.5791 20.9194C22.3302 20.8705 21.076 20.9767 21.076 20.9767C21.076 20.9767 22.1937 21.5528 22.4427 21.6027C22.6291 21.6382 22.8062 21.5767 22.8562 21.3288ZM30.3093 18.2507C30.5218 18.3882 30.6895 18.31 30.7947 18.1517C30.9354 17.9413 31.3177 16.7465 31.3177 16.7465C31.3177 16.7465 30.3562 17.5548 30.2145 17.7652C30.1093 17.9236 30.0989 18.11 30.3093 18.2507Z" fill="#FFEE58"/>
<path d="M31.6479 24.958C31.5094 25.1705 31.5885 25.3371 31.7469 25.4423C31.9583 25.583 33.1573 25.9632 33.1573 25.9632C33.1573 25.9632 32.3458 25.0048 32.1354 24.8642C31.9771 24.759 31.7896 24.7486 31.6479 24.958ZM24.9188 26.2923C24.7063 26.1548 24.5385 26.233 24.4333 26.3913C24.2927 26.6017 23.9104 27.7965 23.9104 27.7965C23.9104 27.7965 24.8719 26.9882 25.0136 26.7777C25.1198 26.6205 25.1302 26.433 24.9188 26.2923ZM23.5802 19.585C23.7188 19.3725 23.6396 19.2059 23.4813 19.1007C23.2698 18.96 22.0708 18.5798 22.0708 18.5798C22.0708 18.5798 22.8823 19.5382 23.0927 19.6788C23.2521 19.785 23.4396 19.7955 23.5802 19.585ZM31.6479 19.585C31.7917 19.7934 31.9761 19.785 32.1344 19.6788C32.3458 19.5382 33.1563 18.5798 33.1563 18.5798C33.1563 18.5798 31.9573 18.96 31.7458 19.1007C31.5885 19.2059 31.5073 19.3746 31.6479 19.585ZM30.3094 26.2923C30.1 26.435 30.1094 26.6194 30.2146 26.7777C30.3552 26.9882 31.3177 27.7965 31.3177 27.7965C31.3177 27.7965 30.9365 26.6017 30.7948 26.3913C30.6896 26.234 30.5208 26.1517 30.3094 26.2923ZM23.5802 24.958C23.4365 24.7496 23.2521 24.758 23.0938 24.8642C22.8823 25.0048 22.0719 25.9632 22.0719 25.9632C22.0719 25.9632 23.2708 25.583 23.4823 25.4423C23.6396 25.3371 23.7219 25.1684 23.5802 24.958ZM24.9188 18.2507C25.1281 18.108 25.1188 17.9236 25.0136 17.7652C24.8729 17.5548 23.9104 16.7465 23.9104 16.7465C23.9104 16.7465 24.2917 17.9413 24.4333 18.1517C24.5385 18.31 24.7083 18.3913 24.9188 18.2507ZM32.3729 21.3288C32.426 21.5767 32.6 21.6382 32.7865 21.6017C33.0354 21.5527 34.1531 20.9757 34.1531 20.9757C34.1531 20.9757 32.899 20.8694 32.65 20.9184C32.4635 20.9559 32.3229 21.0798 32.3729 21.3288ZM28.5604 27.0152C28.3125 27.0673 28.25 27.2413 28.2865 27.4277C28.3365 27.6757 28.9146 28.7902 28.9146 28.7902C28.9146 28.7902 29.0208 27.5402 28.9719 27.2923C28.9344 27.1048 28.8094 26.9652 28.5604 27.0152ZM22.8563 23.2152C22.8031 22.9673 22.6292 22.9059 22.4427 22.9423C22.1938 22.9913 21.076 23.5684 21.076 23.5684C21.076 23.5684 22.3302 23.6746 22.5792 23.6257C22.7656 23.5882 22.9063 23.4632 22.8563 23.2152ZM26.6677 17.5288C26.9156 17.4767 26.9781 17.3027 26.9417 17.1163C26.8917 16.8684 26.3135 15.7538 26.3135 15.7538C26.3135 15.7538 26.2073 17.0038 26.2563 17.2517C26.2938 17.4382 26.4188 17.5777 26.6677 17.5288ZM26.8531 31.4902C26.7385 31.4965 26.6281 31.5111 26.5188 31.5465C26.3698 31.5663 26.2271 31.6184 26.0792 31.6423L26.0198 31.6517L25.9208 31.6611C25.9271 31.6882 25.9313 31.7163 25.9313 31.7434C25.9313 31.7715 25.9281 31.7996 25.9208 31.8225C25.9146 31.8444 25.8948 31.8725 25.8781 31.8892C25.8573 31.9121 25.8344 31.9319 25.8083 31.9455C25.7833 31.958 25.7542 31.9632 25.7261 31.9652C25.6979 31.9663 25.6677 31.9652 25.6406 31.9548C25.6125 31.9454 25.5854 31.9277 25.5615 31.9059C25.5323 31.9132 25.5011 31.9184 25.4729 31.9215C25.4438 31.9246 25.4156 31.9246 25.3896 31.9215C25.3604 31.9132 25.3292 31.9038 25.301 31.8923C25.2729 31.8809 25.2448 31.8663 25.2188 31.8496C25.1104 31.9132 24.9906 31.9725 24.925 32.084C24.8875 32.135 24.8802 32.1923 24.8719 32.2527C24.8667 32.3267 24.8854 32.4048 24.9177 32.4736C24.9292 32.4934 24.9385 32.4007 24.975 32.3882C25.0354 32.3382 25.1104 32.3027 25.1865 32.2829C25.2511 32.2507 25.2427 32.285 25.2156 32.3361C25.2094 32.3621 25.1729 32.4621 25.2219 32.4121C25.4365 32.3173 25.675 32.2986 25.9063 32.2798C26.2427 32.2454 26.5802 32.2382 26.9177 32.233C27.2354 32.2371 27.5521 32.2413 27.8698 32.2527C28.0208 32.2569 28.1729 32.2902 28.3229 32.2652C28.3594 32.2559 28.4146 32.2538 28.4365 32.233C28.3688 32.1944 28.2896 32.1934 28.2146 32.1829H27.6094C27.4417 32.1663 27.2656 32.1642 27.1073 32.1007C27.0646 32.084 27.0261 32.0434 26.9854 32.0871C26.925 32.108 26.8604 32.1225 26.7969 32.1267C26.6854 32.135 26.575 32.1121 26.4719 32.0704C26.5458 31.9684 26.6344 31.8788 26.7167 31.784C26.6511 31.7736 26.5875 31.76 26.5219 31.7444C26.6333 31.6642 26.7406 31.5746 26.8531 31.4902Z" fill="#FFEE58"/>
<path d="M31.7937 32.583C31.5635 32.7205 31.3885 32.4767 31.1958 32.4038C31.0583 32.4777 31.0458 32.7267 30.9177 32.8444C30.7646 33.0184 30.576 32.7955 30.5906 32.6246C30.4073 32.7788 30.3146 33.1277 30.0177 33.0819C29.8771 32.9673 29.7729 32.7277 29.6656 33.0007C29.5781 33.134 29.3448 33.3246 29.2239 33.1225C29.1864 32.9444 29.0969 32.735 29 33.0184C28.9333 33.2184 28.7187 33.3652 28.5125 33.2777C28.3989 33.185 28.6031 32.8434 28.4594 32.8684C28.2437 33.0111 28.1177 33.3632 27.8166 33.335C27.7 33.2038 27.8875 32.983 27.7594 32.8371C27.6083 33.0309 27.4396 33.3142 27.1781 33.335C27.0521 33.233 27.1833 32.9392 27.1021 32.8965C26.8333 33.0569 26.55 33.3434 26.2125 33.2538C26.3437 32.7517 26.8948 32.5757 27.3573 32.5361C28.1531 32.4382 28.9906 32.6184 29.7573 32.3319C29.8812 32.2569 30.1812 32.1507 30.0739 31.9767C29.9791 31.8392 30.3198 31.8934 30.3531 31.7319C30.3333 31.5288 30.5094 31.5569 30.6823 31.5392C31.4552 31.5059 32.2198 31.6684 32.9906 31.6955C33.0489 32.0705 32.6323 32.333 32.2969 32.2173C32.1364 32.2434 31.8958 31.8496 31.9437 32.1361C31.9094 32.284 31.9312 32.483 31.7937 32.583ZM25.2135 31.8163C25.3927 31.9798 25.5177 31.785 25.6854 31.7142C26.2469 31.5215 26.7364 31.185 27.2198 30.8496C27.5125 30.608 27.7656 30.2955 28.1594 30.2173C28.926 29.9861 29.7406 30.0142 30.5104 29.8017C31.0958 29.0017 32.0916 28.7173 32.925 28.2569C33.1125 28.1986 33.1844 28.0455 33.2437 27.8757C33.5614 27.3746 33.9958 26.9309 34.5083 26.6288C34.751 26.4965 35.0406 26.4205 35.3146 26.4809C35.2948 26.8069 35.1073 27.0955 34.8812 27.3215C35.0666 27.3173 35.226 27.2007 35.4135 27.2069C35.4781 27.5413 35.1156 27.7163 34.9229 27.9246C35.0302 27.9496 35.4416 27.9809 35.2177 28.0882C34.9323 28.2861 34.6052 28.4215 34.3416 28.6507C34.5854 28.6944 34.6125 28.7455 34.3656 28.834C34.2312 28.9246 33.9739 28.9559 33.9489 29.133C34.1323 29.2455 33.8646 29.3569 33.7604 29.3944C33.5625 29.4402 33.3541 29.5257 33.6177 29.6757C33.5177 29.8257 33.3052 29.858 33.1302 29.8423C33.1833 30.0121 33.2594 30.2017 33.0385 30.2767C32.5427 30.6507 31.9614 30.9215 31.3375 30.984C32.1156 31.0434 32.9177 30.8996 33.5833 30.4777C33.6708 30.3746 34.1312 30.2632 33.8739 30.1757C33.7531 30.1257 33.4927 30.0694 33.475 29.9777C33.8354 29.7559 34.2896 29.835 34.6771 29.7038C34.6875 29.5788 34.3823 29.6132 34.2687 29.585C33.9979 29.5632 34.0135 29.4944 34.275 29.4684C34.6052 29.3809 34.9802 29.3642 35.2583 29.1486C35.0323 29.0444 34.7469 29.1361 34.5052 29.0507C34.9146 28.8715 35.3979 28.8538 35.7656 28.5861C35.9333 28.4007 35.551 28.458 35.4396 28.4632C35.2125 28.5027 35.1083 28.3944 35.3656 28.3007C35.8062 27.9767 36.3625 27.7673 36.6719 27.2986C36.7448 27.1934 36.8437 26.8777 36.6104 26.9913C36.3031 27.0934 36.0333 27.4371 35.6833 27.3309C36.3729 26.7986 37.0291 26.1913 37.5 25.4548C37.5239 25.2423 37.1896 25.2194 37.1021 25.3861C36.6594 25.8121 36.2583 26.3142 35.6906 26.5809C36.2344 26.058 36.6833 25.4392 37.075 24.7975C37.1594 24.6069 37.3844 24.3777 37.2625 24.1652C37.0646 24.0027 36.8177 24.1517 36.7156 24.3465C36.3708 24.7944 36.1094 25.3173 35.6667 25.683C36.0542 24.9455 36.4562 24.16 36.4656 23.309C36.4646 23.134 36.4291 22.8757 36.1906 22.909C36.001 22.9423 36.0469 23.2246 35.9687 23.3673C35.7969 23.9486 35.7166 24.5777 35.3646 25.0871C35.4437 24.6152 35.5823 24.1225 35.476 23.6455C35.426 23.4319 35.0812 23.5236 35.125 23.735C34.7125 25.8184 33.3104 27.6402 31.476 28.6934C30.6364 29.1673 29.6989 29.4725 28.7448 29.6111C28.4885 29.6673 28.2104 29.634 27.9656 29.7215C27.3708 30.1757 27.0114 30.9361 26.2583 31.1746C25.9208 31.3413 25.4812 31.3757 25.2396 31.6882C25.2166 31.7257 25.2125 31.7715 25.2135 31.8163Z" fill="#FFEE58"/>
<path d="M27.4667 29.7028C27.3552 29.9038 27.2906 30.1351 27.1479 30.3142C26.7188 29.9246 26.0958 29.9371 25.55 29.9111C25.1 29.8871 24.6115 29.8455 24.2625 29.5257C23.8969 29.2267 23.5979 28.8382 23.1886 28.5965C22.8156 28.4955 22.4386 28.3684 22.1386 28.1132C21.4969 27.5924 21.1292 26.8184 20.5031 26.2809C20.3833 26.1632 20.2427 26.0726 20.1083 25.9736C19.9813 26.0049 20.0386 26.2778 19.8833 26.1382C19.799 26.0778 19.5865 26.0726 19.5677 26.1559C19.7594 26.408 19.9511 26.6955 19.9781 27.0174C19.8479 27.0309 19.6146 26.9903 19.55 27.0382C19.724 27.2976 19.9458 27.5278 20.199 27.7111C20.0781 27.7309 19.8386 27.7194 19.7927 27.7684C20.0438 27.9726 20.3125 28.1809 20.6417 28.233C20.7094 28.3215 20.5438 28.4924 20.6823 28.5674C20.7636 28.6007 21.0292 28.6549 20.8458 28.7465C20.7198 28.8309 20.7667 29.0288 20.9281 29.0236C21.0302 29.0757 21.2583 29.0882 21.2771 29.1778C21.1865 29.2694 20.9063 29.3778 21.1448 29.4642C21.3677 29.5882 21.6229 29.6674 21.8781 29.6767C21.75 29.784 21.5927 29.8455 21.4604 29.9455C22.049 30.2892 22.7011 30.5153 23.3458 30.734C23.6021 30.8194 23.8625 30.8996 24.1281 30.9496C23.3552 30.9049 22.6073 30.6767 21.9031 30.3642C21.5386 30.2049 21.1708 30.0507 20.7969 29.9132C20.9604 29.8278 21.1511 29.8069 21.3208 29.734C20.9677 29.6632 20.5823 29.6403 20.2719 29.4465C20.3198 29.3621 20.5 29.358 20.6 29.3153C20.7875 29.2705 20.9042 29.2163 20.6396 29.1996C20.3729 29.1278 20.0667 29.1601 19.8323 28.9996C19.8479 28.9038 20.0938 28.9371 20.1938 28.8955C20.3198 28.8736 20.4604 28.8559 20.5615 28.7715C20.149 28.6007 19.6104 28.7215 19.2865 28.359C19.2115 28.2205 19.5177 28.3319 19.6052 28.309C19.8261 28.309 20.0646 28.3788 20.275 28.2903C19.674 28.0278 19.0313 27.7809 18.5729 27.2944C18.5219 27.2163 18.3698 27.0028 18.4927 26.9767C18.849 27.0236 19.1073 27.4121 19.4886 27.3517C19.5396 27.284 19.2667 27.1726 19.199 27.0746C18.6427 26.5986 18.1031 26.083 17.7136 25.459C17.6865 25.2507 18.0146 25.2194 18.1011 25.3809C18.5261 25.7892 18.9104 26.2653 19.4406 26.5444C19.6281 26.6351 19.3323 26.4371 19.2938 26.3653C18.8042 25.7986 18.3386 25.2007 17.9958 24.533C17.9344 24.4132 17.8333 24.1955 18.0167 24.1309C18.2 24.0392 18.3813 24.1642 18.474 24.3205C18.8333 24.7726 19.099 25.3111 19.5469 25.6871C19.1646 24.9486 18.7573 24.1705 18.7469 23.3205C18.7563 23.1559 18.7667 22.9059 18.9906 22.9132C19.1792 22.8851 19.149 23.1246 19.2104 23.2392C19.3958 23.8642 19.4771 24.5403 19.849 25.0913C19.7667 24.6278 19.6458 24.1507 19.7261 23.6799C19.7448 23.5257 19.9188 23.4788 20.0333 23.5715C20.125 23.7965 20.1448 24.0736 20.2292 24.3142C20.7073 25.9434 21.7802 27.3767 23.1781 28.3382C24.3292 29.1257 25.6958 29.5955 27.0906 29.6778C27.2136 29.6913 27.3406 29.6944 27.4667 29.7028ZM25.6958 31.7132C25.676 31.7132 25.6569 31.7211 25.6428 31.7352C25.6287 31.7492 25.6208 31.7683 25.6208 31.7882C25.6208 31.8081 25.6287 31.8272 25.6428 31.8412C25.6569 31.8553 25.676 31.8632 25.6958 31.8632C25.7157 31.8632 25.7348 31.8553 25.7489 31.8412C25.7629 31.8272 25.7708 31.8081 25.7708 31.7882C25.7708 31.7683 25.7629 31.7492 25.7489 31.7352C25.7348 31.7211 25.7157 31.7132 25.6958 31.7132ZM6.25002 11.0059C6.25002 11.0059 5.91668 10.7413 5.80314 10.8736C5.62085 11.0871 6.36356 12.1507 6.36356 12.5246C6.36356 13.1392 5.92918 13.3069 5.39272 13.3944C5.03231 13.4538 4.44585 13.3694 4.44585 13.3694C4.55627 13.2299 4.62814 13.1882 4.8146 13.1767C4.60731 13.0767 4.39585 12.8559 4.39585 12.5132C4.39585 11.984 4.62606 11.7663 4.62606 11.1705C4.6271 10.8392 4.3396 10.4184 4.3396 10.4184C4.84793 10.4663 5.09897 10.9101 4.95627 11.2653C5.03752 11.2767 5.11043 11.259 5.17397 11.2028C5.21147 11.3007 5.1521 11.4153 5.07397 11.5132C5.13752 11.5455 5.18335 11.5257 5.28439 11.5059C5.27502 11.6069 5.21043 11.7153 5.05314 11.8163C5.50939 11.7049 5.79064 12.0049 5.79064 12.3194C5.79064 12.5569 5.6146 12.7267 5.44168 12.7267C5.38647 12.7267 5.30418 12.7049 5.25835 12.6726C5.22606 12.7382 5.24272 12.8257 5.27606 12.8913C5.15002 12.8601 5.06981 12.7892 5.1271 12.6413C5.03022 12.633 4.95314 12.6017 4.90002 12.5434C4.95314 12.4788 5.03439 12.4424 5.1271 12.4455C5.05627 12.308 5.13543 12.2309 5.25002 12.1684C5.25002 12.1684 5.1771 12.4455 5.36356 12.4455C5.44689 12.4455 5.52397 12.4194 5.52397 12.3028C5.52397 12.2017 5.43022 12.0611 5.21252 12.0694C4.99481 12.0788 4.81877 12.2111 4.81877 12.5382C4.81877 12.8403 5.0771 12.9903 5.41668 12.9996C5.72293 13.009 5.95522 12.8517 5.95522 12.5528C5.95522 12.1549 5.34689 11.2496 5.34689 10.8955C5.34689 10.6299 5.60002 10.4809 5.84793 10.4809C6.16877 10.4809 6.44064 10.7809 6.44064 10.7809L6.25002 11.0059Z" fill="#FFEE58"/>
<path d="M6.31975 18.1902C6.31975 18.8548 5.68746 19.1954 5.19163 19.1954C4.52288 19.1954 4.16663 18.8183 4.16663 18.3236C4.16663 18.0434 4.22079 17.8673 4.35829 17.5996C4.35829 17.5996 5.46142 15.434 5.89163 14.5965C5.94475 14.4923 5.96246 14.3736 5.96246 14.1986C5.96246 13.9288 5.68538 13.709 5.39579 13.7027C5.13121 13.6965 4.84267 13.935 4.84267 14.2079C4.84267 14.5392 5.02496 14.6861 5.21142 14.6861C5.44163 14.6861 5.53225 14.5965 5.53225 14.4444C5.53225 14.3381 5.47808 14.2923 5.39996 14.2923C5.20308 14.2923 5.25829 14.5423 5.25829 14.5423C5.16038 14.5225 5.08017 14.4277 5.126 14.31C5.05413 14.2954 4.98746 14.26 4.93433 14.2027C4.98746 14.1548 5.04788 14.1173 5.126 14.1048C5.08017 13.9611 5.14163 13.8913 5.27496 13.8611C5.24788 13.9163 5.24683 13.9673 5.25621 14.0152C5.46558 13.959 5.78746 14.0486 5.78746 14.3902C5.78746 14.7298 5.53746 15.0163 5.06975 14.9444C5.18121 14.9944 5.23746 15.0975 5.24892 15.2121C5.1635 15.1808 5.06975 15.1767 5.06975 15.1767C5.12496 15.2673 5.201 15.3465 5.19683 15.5256C5.11038 15.4881 5.02913 15.4194 4.91767 15.4631C5.09267 15.7871 4.87808 16.234 4.33225 16.3392C4.53225 16.1183 4.63017 15.8798 4.63017 15.6423C4.63017 14.8725 4.40308 14.7433 4.40308 14.2079C4.40308 13.984 4.52496 13.7423 4.76663 13.5777V13.5871C4.60725 13.5465 4.50413 13.4725 4.44579 13.3715C4.81038 13.2736 5.34163 13.2756 5.626 13.3819C5.95413 13.4163 6.18225 13.6538 6.24996 13.7736C6.31767 13.8933 6.44788 14.3288 6.24996 14.7215C6.03329 15.1506 5.01038 17.1975 4.69058 17.8413C4.62288 17.9777 4.58225 18.1225 4.58225 18.2798C4.58225 18.6736 4.96454 18.8121 5.18225 18.8121C5.44163 18.8121 5.70621 18.6256 5.70621 18.3923C5.70621 18.2444 5.62079 18.1558 5.49788 18.1558C5.20413 18.1558 5.22183 18.3913 5.28017 18.5402C5.09788 18.4631 4.99163 18.3246 5.02079 18.1777C4.91767 18.1642 4.81871 18.1183 4.72808 18.0215C4.79996 17.9361 4.88642 17.8715 5.02079 17.8694C4.96246 17.6433 5.12288 17.5475 5.28017 17.4944C5.23017 17.6611 5.19788 17.8517 5.49788 17.8517C5.71663 17.8517 5.8885 17.8871 5.98954 18.0215C5.99579 17.8423 6.0135 17.1361 6.0135 17.1361C6.026 16.8704 5.63746 16.8788 5.38954 16.9569C5.48329 16.6517 5.67392 16.4861 6.11663 16.5277C6.01038 16.485 5.89579 16.3892 5.89579 16.2048C5.89579 15.9558 6.10933 15.6798 6.24996 15.5986L6.31975 18.1902Z" fill="#FFEE58"/>
<path d="M6.31975 20.1819C6.31975 19.5174 5.68746 19.1767 5.19163 19.1767C4.52288 19.1767 4.16663 19.5538 4.16663 20.0486C4.16663 20.3288 4.22079 20.5049 4.35829 20.7726C4.35829 20.7726 5.46142 22.9382 5.89163 23.7757C5.94475 23.8799 5.96246 23.9986 5.96246 24.1736C5.96246 24.4434 5.68538 24.6632 5.39579 24.6694C5.13121 24.6757 4.84267 24.4371 4.84267 24.1642C4.84267 23.833 5.02496 23.6861 5.21142 23.6861C5.44163 23.6861 5.53225 23.7757 5.53225 23.9278C5.53225 24.034 5.47808 24.0799 5.39996 24.0799C5.20308 24.0799 5.25829 23.8299 5.25829 23.8299C5.16038 23.8496 5.08017 23.9444 5.126 24.0621C5.05413 24.0767 4.98746 24.1121 4.93433 24.1694C4.98746 24.2174 5.04788 24.2549 5.126 24.2674C5.08017 24.4111 5.14163 24.4809 5.27496 24.5111C5.24788 24.4559 5.24683 24.4049 5.25621 24.3569C5.46558 24.4132 5.78746 24.3236 5.78746 23.9819C5.78746 23.6424 5.53746 23.3559 5.06975 23.4278C5.18121 23.3778 5.23746 23.2746 5.24892 23.1601C5.1635 23.1913 5.06975 23.1955 5.06975 23.1955C5.12496 23.1049 5.201 23.0257 5.19683 22.8465C5.11038 22.884 5.02913 22.9528 4.91767 22.909C5.09267 22.5851 4.87808 22.1382 4.33225 22.033C4.53225 22.2538 4.63017 22.4924 4.63017 22.7299C4.63017 23.4996 4.40308 23.6288 4.40308 24.1642C4.40308 24.3882 4.52496 24.6299 4.76663 24.7944V24.7851C4.60725 24.8267 4.50413 24.9007 4.44579 25.0017C4.81038 25.0996 5.34163 25.0976 5.626 24.9913C5.95413 24.9559 6.18225 24.7184 6.24996 24.5986C6.31767 24.4788 6.44788 24.0434 6.24996 23.6507C6.03329 23.2215 5.01038 21.1746 4.69058 20.5309C4.62288 20.3944 4.58225 20.2496 4.58225 20.0924C4.58225 19.6986 4.96454 19.5601 5.18225 19.5601C5.44163 19.5601 5.70621 19.7465 5.70621 19.9799C5.70621 20.1278 5.62079 20.2163 5.49788 20.2163C5.20413 20.2163 5.22183 19.9809 5.28017 19.8319C5.09788 19.909 4.99163 20.0476 5.02079 20.1944C4.91767 20.208 4.81871 20.2538 4.72808 20.3507C4.79996 20.4361 4.88642 20.5007 5.02079 20.5028C4.96246 20.7288 5.12288 20.8246 5.28017 20.8778C5.23121 20.7132 5.19892 20.5226 5.49892 20.5226C5.71767 20.5226 5.88954 20.4871 5.99058 20.3528C5.99683 20.5319 6.01454 21.2382 6.01454 21.2382C6.02704 21.5038 5.6385 21.4955 5.39058 21.4174C5.48433 21.7226 5.67496 21.8882 6.11767 21.8465C6.01038 21.8871 5.89579 21.983 5.89579 22.1674C5.89579 22.4163 6.10933 22.6924 6.24996 22.7736L6.31975 20.1819ZM6.24996 11.0059C6.24996 11.0059 6.58329 10.7413 6.69683 10.8736C6.87913 11.0871 6.13642 12.1507 6.13642 12.5246C6.13642 13.1392 6.57079 13.3069 7.10725 13.3944C7.46767 13.4538 8.05413 13.3694 8.05413 13.3694C7.94371 13.2309 7.87183 13.1892 7.68642 13.1778C7.89371 13.0767 8.10413 12.8559 8.10413 12.5132C8.10413 11.984 7.87392 11.7663 7.87392 11.1705C7.87288 10.8392 8.16038 10.4184 8.16038 10.4184C7.65204 10.4663 7.401 10.9101 7.54371 11.2653C7.46246 11.2767 7.38954 11.259 7.326 11.2028C7.2885 11.3007 7.34788 11.4153 7.426 11.5132C7.36246 11.5455 7.31663 11.5257 7.21558 11.5059C7.22496 11.6069 7.28954 11.7153 7.44683 11.8163C6.99058 11.7049 6.70933 12.0049 6.70933 12.3194C6.70933 12.5569 6.88538 12.7267 7.05829 12.7267C7.1135 12.7267 7.19579 12.7049 7.24163 12.6726C7.27392 12.7382 7.25725 12.8257 7.22392 12.8913C7.34996 12.8601 7.43017 12.7892 7.37288 12.6413C7.46975 12.633 7.54683 12.6017 7.59996 12.5434C7.54683 12.4788 7.46558 12.4424 7.37288 12.4455C7.44371 12.308 7.36454 12.2309 7.24996 12.1684C7.24996 12.1684 7.32288 12.4455 7.13642 12.4455C7.05308 12.4455 6.976 12.4194 6.976 12.3028C6.976 12.2017 7.06975 12.0611 7.28746 12.0694C7.50517 12.0788 7.68121 12.2111 7.68121 12.5382C7.68121 12.8403 7.42288 12.9903 7.08329 12.9996C6.77704 13.009 6.54475 12.8517 6.54475 12.5528C6.54475 12.1549 7.15308 11.2496 7.15308 10.8955C7.15308 10.6299 6.89996 10.4809 6.65204 10.4809C6.33121 10.4809 6.05933 10.7809 6.05933 10.7809L6.24996 11.0059Z" fill="#FFEE58"/>
<path d="M6.18025 18.1902C6.18025 18.8548 6.81254 19.1954 7.30837 19.1954C7.97712 19.1954 8.33337 18.8183 8.33337 18.3236C8.33337 18.0434 8.2792 17.8673 8.1417 17.5996C8.1417 17.5996 7.03858 15.434 6.60837 14.5965C6.55525 14.4923 6.53754 14.3736 6.53754 14.1986C6.53754 13.9288 6.81462 13.709 7.10421 13.7027C7.36879 13.6965 7.65733 13.935 7.65733 14.2079C7.65733 14.5392 7.47504 14.6861 7.28858 14.6861C7.05837 14.6861 6.96775 14.5965 6.96775 14.4444C6.96775 14.3381 7.02191 14.2923 7.10004 14.2923C7.29691 14.2923 7.24171 14.5423 7.24171 14.5423C7.33962 14.5225 7.41983 14.4277 7.374 14.31C7.44587 14.2954 7.51254 14.26 7.56566 14.2027C7.51254 14.1548 7.45212 14.1173 7.374 14.1048C7.41983 13.9611 7.35837 13.8913 7.22504 13.8611C7.25212 13.9163 7.25316 13.9673 7.24379 14.0152C7.03441 13.959 6.71254 14.0486 6.71254 14.3902C6.71254 14.7298 6.96254 15.0163 7.43025 14.9444C7.31879 14.9944 7.26254 15.0975 7.25108 15.2121C7.3365 15.1808 7.43025 15.1767 7.43025 15.1767C7.37504 15.2673 7.299 15.3465 7.30316 15.5256C7.38962 15.4881 7.47087 15.4194 7.58233 15.4631C7.40733 15.7871 7.62191 16.234 8.16775 16.3392C7.96775 16.1183 7.86983 15.8798 7.86983 15.6423C7.86983 14.8725 8.09691 14.7433 8.09691 14.2079C8.09691 13.984 7.97504 13.7423 7.73337 13.5777V13.5871C7.89275 13.5465 7.99587 13.4725 8.0542 13.3715C7.68962 13.2736 7.15837 13.2756 6.874 13.3819C6.54587 13.4163 6.31775 13.6538 6.25004 13.7736C6.18233 13.8933 6.05212 14.3288 6.25004 14.7215C6.46671 15.1506 7.48962 17.1975 7.80941 17.8413C7.87712 17.9777 7.91775 18.1225 7.91775 18.2798C7.91775 18.6736 7.53545 18.8121 7.31775 18.8121C7.05837 18.8121 6.79379 18.6256 6.79379 18.3923C6.79379 18.2444 6.87921 18.1558 7.00212 18.1558C7.29587 18.1558 7.27816 18.3913 7.21983 18.5402C7.40212 18.4631 7.50837 18.3246 7.4792 18.1777C7.58233 18.1642 7.68129 18.1183 7.77191 18.0215C7.70004 17.9361 7.61358 17.8715 7.4792 17.8694C7.53754 17.6433 7.37712 17.5475 7.21983 17.4944C7.26983 17.6611 7.30212 17.8517 7.00212 17.8517C6.78337 17.8517 6.6115 17.8871 6.51046 18.0215C6.50421 17.8423 6.4865 17.1361 6.4865 17.1361C6.474 16.8704 6.86254 16.8788 7.11046 16.9569C7.01671 16.6517 6.82608 16.4861 6.38337 16.5277C6.49066 16.485 6.60525 16.3902 6.60525 16.2058C6.60525 15.9569 6.3917 15.6808 6.25108 15.5996L6.18025 18.1902Z" fill="#FFEE58"/>
<path d="M6.18022 20.1819C6.18022 19.5173 6.81252 19.1767 7.30835 19.1767C7.9771 19.1767 8.33335 19.5538 8.33335 20.0486C8.33335 20.3288 8.27918 20.5048 8.14168 20.7725C8.14168 20.7725 7.03856 22.9382 6.60835 23.7757C6.55522 23.8798 6.53752 23.9986 6.53752 24.1736C6.53752 24.4434 6.8146 24.6632 7.10418 24.6694C7.36877 24.6757 7.65731 24.4371 7.65731 24.1642C7.65731 23.8329 7.47502 23.6861 7.28856 23.6861C7.05835 23.6861 6.96772 23.7757 6.96772 23.9277C6.96772 24.034 7.02189 24.0798 7.10002 24.0798C7.29689 24.0798 7.24168 23.8298 7.24168 23.8298C7.3396 23.8496 7.41981 23.9444 7.37397 24.0621C7.44585 24.0767 7.51252 24.1121 7.56564 24.1694C7.51252 24.2173 7.4521 24.2548 7.37397 24.2673C7.41981 24.4111 7.35835 24.4809 7.22502 24.5111C7.2521 24.4559 7.25314 24.4048 7.24377 24.3569C7.03439 24.4132 6.71252 24.3236 6.71252 23.9819C6.71252 23.6423 6.96252 23.3559 7.43022 23.4277C7.31877 23.3777 7.26252 23.2746 7.25106 23.16C7.33647 23.1913 7.43022 23.1954 7.43022 23.1954C7.37502 23.1048 7.29897 23.0257 7.30314 22.8465C7.3896 22.884 7.47085 22.9527 7.58231 22.909C7.40731 22.585 7.62189 22.1382 8.16772 22.0329C7.96772 22.2538 7.86981 22.4923 7.86981 22.7298C7.86981 23.4996 8.09689 23.6288 8.09689 24.1642C8.09689 24.3882 7.97502 24.6298 7.73335 24.7944V24.785C7.89272 24.8257 7.99585 24.8996 8.05418 25.0007C7.6896 25.0986 7.15835 25.0965 6.87397 24.9902C6.54585 24.9559 6.31772 24.7184 6.25002 24.5986C6.18231 24.4788 6.0521 24.0434 6.25002 23.6507C6.46668 23.2215 7.4896 21.1746 7.80939 20.5309C7.8771 20.3944 7.91772 20.2496 7.91772 20.0923C7.91772 19.6986 7.53543 19.56 7.31772 19.56C7.05835 19.56 6.79377 19.7465 6.79377 19.9798C6.79377 20.1277 6.87918 20.2163 7.0021 20.2163C7.29585 20.2163 7.27814 19.9809 7.21981 19.8319C7.4021 19.909 7.50835 20.0475 7.47918 20.1944C7.58231 20.2079 7.68127 20.2538 7.77189 20.3507C7.70002 20.4361 7.61356 20.5007 7.47918 20.5027C7.53752 20.7288 7.3771 20.8246 7.21981 20.8777C7.26981 20.7111 7.3021 20.5204 7.0021 20.5204C6.78335 20.5204 6.61147 20.485 6.51043 20.3507C6.50418 20.5298 6.48647 21.2361 6.48647 21.2361C6.47397 21.5017 6.86252 21.4934 7.11043 21.4152C7.01668 21.7204 6.82606 21.8861 6.38335 21.8444C6.4896 21.8871 6.60418 21.9829 6.60418 22.1673C6.60418 22.4163 6.39064 22.6923 6.25002 22.7736L6.18022 20.1819ZM6.25002 38.9975C6.25002 38.9975 5.91668 39.2621 5.80314 39.1298C5.62085 38.9163 6.36356 37.8527 6.36356 37.4788C6.36356 36.8642 5.92918 36.6965 5.39272 36.609C5.03231 36.5496 4.44585 36.634 4.44585 36.634C4.55627 36.7736 4.62814 36.8152 4.8146 36.8267C4.60731 36.9267 4.39585 37.1475 4.39585 37.4902C4.39585 38.0194 4.62606 38.2371 4.62606 38.8329C4.6271 39.1642 4.3396 39.585 4.3396 39.585C4.84793 39.5371 5.09897 39.0934 4.95627 38.7382C5.03752 38.7267 5.11043 38.7444 5.17397 38.8007C5.21147 38.7027 5.1521 38.5882 5.07397 38.4902C5.13752 38.4579 5.18335 38.4777 5.28439 38.4975C5.27502 38.3965 5.21043 38.2882 5.05314 38.1871C5.50939 38.2986 5.79064 37.9986 5.79064 37.684C5.79064 37.4465 5.6146 37.2767 5.44168 37.2767C5.38647 37.2767 5.30418 37.2986 5.25835 37.3309C5.22606 37.2652 5.24272 37.1777 5.27606 37.1121C5.15002 37.1434 5.06981 37.2142 5.1271 37.3621C5.03022 37.3704 4.95314 37.4017 4.90002 37.46C4.95314 37.5246 5.03439 37.5611 5.1271 37.5579C5.05627 37.6954 5.13543 37.7725 5.25002 37.835C5.25002 37.835 5.1771 37.5579 5.36356 37.5579C5.44689 37.5579 5.52397 37.584 5.52397 37.7007C5.52397 37.8017 5.43022 37.9423 5.21252 37.934C4.99481 37.9246 4.81877 37.7923 4.81877 37.4652C4.81877 37.1632 5.0771 37.0132 5.41668 37.0038C5.72293 36.9944 5.95522 37.1517 5.95522 37.4507C5.95522 37.8486 5.34689 38.7538 5.34689 39.1079C5.34689 39.3736 5.60002 39.5225 5.84793 39.5225C6.16877 39.5225 6.44064 39.2225 6.44064 39.2225L6.25002 38.9975Z" fill="#FFEE58"/>
<path d="M6.31975 31.8132C6.31975 31.1486 5.68746 30.808 5.19163 30.808C4.52288 30.808 4.16663 31.1851 4.16663 31.6799C4.16663 31.9601 4.22079 32.1361 4.35829 32.4038C4.35829 32.4038 5.46142 34.5694 5.89163 35.4069C5.94475 35.5111 5.96246 35.6299 5.96246 35.8049C5.96246 36.0746 5.68538 36.2944 5.39579 36.3007C5.13121 36.3069 4.84267 36.0684 4.84267 35.7955C4.84267 35.4642 5.02496 35.3174 5.21142 35.3174C5.44163 35.3174 5.53225 35.4069 5.53225 35.559C5.53225 35.6653 5.47808 35.7111 5.39996 35.7111C5.20308 35.7111 5.25829 35.4611 5.25829 35.4611C5.16038 35.4809 5.08017 35.5757 5.126 35.6934C5.05413 35.708 4.98746 35.7434 4.93433 35.8007C4.98746 35.8486 5.04788 35.8861 5.126 35.8986C5.08017 36.0424 5.14163 36.1122 5.27496 36.1424C5.24788 36.0872 5.24683 36.0361 5.25621 35.9882C5.46558 36.0444 5.78746 35.9549 5.78746 35.6132C5.78746 35.2736 5.53746 34.9871 5.06975 35.059C5.18121 35.009 5.23746 34.9059 5.24892 34.7913C5.1635 34.8226 5.06975 34.8267 5.06975 34.8267C5.12496 34.7361 5.201 34.6569 5.19683 34.4778C5.11038 34.5153 5.02913 34.584 4.91767 34.5403C5.09267 34.2163 4.87808 33.7694 4.33225 33.6642C4.53225 33.8851 4.63017 34.1236 4.63017 34.3611C4.63017 35.1309 4.40308 35.2601 4.40308 35.7955C4.40308 36.0194 4.52496 36.2611 4.76663 36.4257V36.4163C4.60725 36.4569 4.50413 36.5309 4.44579 36.6319C4.81038 36.7299 5.34163 36.7278 5.626 36.6226C5.95413 36.5871 6.18225 36.3496 6.24996 36.2299C6.31767 36.1101 6.44788 35.6747 6.24996 35.2819C6.03329 34.8528 5.01038 32.8059 4.69058 32.1622C4.62288 32.0257 4.58225 31.8809 4.58225 31.7236C4.58225 31.3299 4.96454 31.1913 5.18225 31.1913C5.44163 31.1913 5.70621 31.3778 5.70621 31.6111C5.70621 31.759 5.62079 31.8476 5.49788 31.8476C5.20413 31.8476 5.22183 31.6121 5.28017 31.4632C5.09788 31.5403 4.99163 31.6788 5.02079 31.8257C4.91767 31.8392 4.81871 31.8851 4.72808 31.9819C4.79996 32.0674 4.88642 32.1319 5.02079 32.134C4.96246 32.3601 5.12288 32.4559 5.28017 32.509C5.23017 32.3424 5.19788 32.1517 5.49788 32.1517C5.71663 32.1517 5.8885 32.1163 5.98954 31.9819C5.99579 32.1611 6.0135 32.8674 6.0135 32.8674C6.026 33.133 5.63746 33.1247 5.38954 33.0465C5.48329 33.3517 5.67392 33.5174 6.11663 33.4757C6.01038 33.5184 5.89579 33.6142 5.89579 33.7986C5.89579 34.0476 6.10933 34.3236 6.24996 34.4049L6.31975 31.8132Z" fill="#FFEE58"/>
<path d="M6.31975 29.8215C6.31975 30.4861 5.68746 30.8267 5.19163 30.8267C4.52288 30.8267 4.16663 30.4496 4.16663 29.9548C4.16663 29.6746 4.22079 29.4986 4.35829 29.2309C4.35829 29.2309 5.46142 27.0653 5.89163 26.2278C5.94475 26.1236 5.96246 26.0048 5.96246 25.8298C5.96246 25.5601 5.68538 25.3403 5.39579 25.334C5.13121 25.3278 4.84267 25.5663 4.84267 25.8392C4.84267 26.1705 5.02496 26.3173 5.21142 26.3173C5.44163 26.3173 5.53225 26.2278 5.53225 26.0757C5.53225 25.9694 5.47808 25.9236 5.39996 25.9236C5.20308 25.9236 5.25829 26.1736 5.25829 26.1736C5.16038 26.1538 5.08017 26.059 5.126 25.9413C5.05413 25.9267 4.98746 25.8913 4.93433 25.834C4.98746 25.7861 5.04788 25.7486 5.126 25.7361C5.08017 25.5923 5.14163 25.5226 5.27496 25.4923C5.24788 25.5476 5.24683 25.5986 5.25621 25.6465C5.46558 25.5903 5.78746 25.6798 5.78746 26.0215C5.78746 26.3611 5.53746 26.6476 5.06975 26.5757C5.18121 26.6257 5.23746 26.7288 5.24892 26.8434C5.1635 26.8121 5.06975 26.808 5.06975 26.808C5.12496 26.8986 5.201 26.9778 5.19683 27.1569C5.11038 27.1194 5.02913 27.0507 4.91767 27.0944C5.09267 27.4184 4.87808 27.8653 4.33225 27.9705C4.53225 27.7496 4.63017 27.5111 4.63017 27.2736C4.63017 26.5038 4.40308 26.3746 4.40308 25.8392C4.40308 25.6153 4.52496 25.3736 4.76663 25.209V25.2184C4.60725 25.1767 4.50413 25.1028 4.44579 25.0017C4.81038 24.9038 5.34163 24.9059 5.626 25.0121C5.95413 25.0476 6.18225 25.2851 6.24996 25.4048C6.31767 25.5246 6.44788 25.9601 6.24996 26.3528C6.03329 26.7819 5.01038 28.8288 4.69058 29.4726C4.62288 29.609 4.58225 29.7538 4.58225 29.9111C4.58225 30.3048 4.96454 30.4434 5.18225 30.4434C5.44163 30.4434 5.70621 30.2569 5.70621 30.0236C5.70621 29.8757 5.62079 29.7871 5.49788 29.7871C5.20413 29.7871 5.22183 30.0226 5.28017 30.1715C5.09788 30.0944 4.99163 29.9559 5.02079 29.809C4.91767 29.7955 4.81871 29.7496 4.72808 29.6528C4.79996 29.5673 4.88642 29.5028 5.02079 29.5007C4.96246 29.2746 5.12288 29.1788 5.28017 29.1257C5.23121 29.2903 5.19892 29.4809 5.49892 29.4809C5.71767 29.4809 5.88954 29.5163 5.99058 29.6507C5.99683 29.4715 6.01454 28.7653 6.01454 28.7653C6.02704 28.4996 5.6385 28.508 5.39058 28.5861C5.48433 28.2809 5.67496 28.1153 6.11767 28.1569C6.01038 28.1163 5.89579 28.0205 5.89579 27.8361C5.89579 27.5871 6.10933 27.3111 6.24996 27.2298L6.31975 29.8215ZM6.24996 38.9976C6.24996 38.9976 6.58329 39.2621 6.69683 39.1298C6.87913 38.9163 6.13642 37.8528 6.13642 37.4788C6.13642 36.8642 6.57079 36.6965 7.10725 36.609C7.46767 36.5496 8.05413 36.634 8.05413 36.634C7.94371 36.7726 7.87183 36.8142 7.68642 36.8257C7.89371 36.9267 8.10413 37.1476 8.10413 37.4903C8.10413 38.0194 7.87392 38.2371 7.87392 38.833C7.87288 39.1642 8.16038 39.5851 8.16038 39.5851C7.65204 39.5371 7.401 39.0934 7.54371 38.7382C7.46246 38.7267 7.38954 38.7444 7.326 38.8007C7.2885 38.7028 7.34788 38.5882 7.426 38.4903C7.36246 38.458 7.31663 38.4778 7.21558 38.4976C7.22496 38.3965 7.28954 38.2882 7.44683 38.1871C6.99058 38.2986 6.70933 37.9986 6.70933 37.684C6.70933 37.4465 6.88538 37.2767 7.05829 37.2767C7.1135 37.2767 7.19579 37.2986 7.24163 37.3309C7.27392 37.2653 7.25725 37.1778 7.22392 37.1121C7.34996 37.1434 7.43017 37.2142 7.37288 37.3621C7.46975 37.3705 7.54683 37.4017 7.59996 37.4601C7.54683 37.5246 7.46558 37.5611 7.37288 37.558C7.44371 37.6955 7.36454 37.7726 7.24996 37.8351C7.24996 37.8351 7.32288 37.558 7.13642 37.558C7.05308 37.558 6.976 37.584 6.976 37.7007C6.976 37.8017 7.06975 37.9423 7.28746 37.934C7.50517 37.9246 7.68121 37.7923 7.68121 37.4653C7.68121 37.1632 7.42288 37.0132 7.08329 37.0038C6.77704 36.9944 6.54475 37.1517 6.54475 37.4507C6.54475 37.8486 7.15308 38.7538 7.15308 39.108C7.15308 39.3736 6.89996 39.5226 6.65204 39.5226C6.33121 39.5226 6.05933 39.2226 6.05933 39.2226L6.24996 38.9976Z" fill="#FFEE58"/>
<path d="M6.18025 31.8132C6.18025 31.1486 6.81254 30.808 7.30837 30.808C7.97712 30.808 8.33337 31.1851 8.33337 31.6799C8.33337 31.9601 8.2792 32.1361 8.1417 32.4038C8.1417 32.4038 7.03858 34.5694 6.60837 35.4069C6.55525 35.5111 6.53754 35.6299 6.53754 35.8049C6.53754 36.0746 6.81462 36.2944 7.10421 36.3007C7.36879 36.3069 7.65733 36.0684 7.65733 35.7955C7.65733 35.4642 7.47504 35.3174 7.28858 35.3174C7.05837 35.3174 6.96775 35.4069 6.96775 35.559C6.96775 35.6653 7.02191 35.7111 7.10004 35.7111C7.29691 35.7111 7.24171 35.4611 7.24171 35.4611C7.33962 35.4809 7.41983 35.5757 7.374 35.6934C7.44587 35.708 7.51254 35.7434 7.56566 35.8007C7.51254 35.8486 7.45212 35.8861 7.374 35.8986C7.41983 36.0424 7.35837 36.1122 7.22504 36.1424C7.25212 36.0872 7.25316 36.0361 7.24379 35.9882C7.03441 36.0444 6.71254 35.9549 6.71254 35.6132C6.71254 35.2736 6.96254 34.9871 7.43025 35.059C7.31879 35.009 7.26254 34.9059 7.25108 34.7913C7.3365 34.8226 7.43025 34.8267 7.43025 34.8267C7.37504 34.7361 7.299 34.6569 7.30316 34.4778C7.38962 34.5153 7.47087 34.584 7.58233 34.5403C7.40733 34.2163 7.62191 33.7694 8.16775 33.6642C7.96775 33.8851 7.86983 34.1236 7.86983 34.3611C7.86983 35.1309 8.09691 35.2601 8.09691 35.7955C8.09691 36.0194 7.97504 36.2611 7.73337 36.4257V36.4163C7.89275 36.4569 7.99587 36.5309 8.0542 36.6319C7.68962 36.7299 7.15837 36.7278 6.874 36.6226C6.54587 36.5871 6.31775 36.3496 6.25004 36.2299C6.18233 36.1101 6.05212 35.6747 6.25004 35.2819C6.46671 34.8528 7.48962 32.8059 7.80941 32.1622C7.87712 32.0257 7.91775 31.8809 7.91775 31.7236C7.91775 31.3299 7.53545 31.1913 7.31775 31.1913C7.05837 31.1913 6.79379 31.3778 6.79379 31.6111C6.79379 31.759 6.87921 31.8476 7.00212 31.8476C7.29587 31.8476 7.27816 31.6121 7.21983 31.4632C7.40212 31.5403 7.50837 31.6788 7.4792 31.8257C7.58233 31.8392 7.68129 31.8851 7.77191 31.9819C7.70004 32.0674 7.61358 32.1319 7.4792 32.134C7.53754 32.3601 7.37712 32.4559 7.21983 32.509C7.26983 32.3424 7.30212 32.1517 7.00212 32.1517C6.78337 32.1517 6.6115 32.1163 6.51046 31.9819C6.50421 32.1611 6.4865 32.8674 6.4865 32.8674C6.474 33.133 6.86254 33.1247 7.11046 33.0465C7.01671 33.3517 6.82608 33.5174 6.38337 33.4757C6.49066 33.5184 6.60525 33.6132 6.60525 33.7976C6.60525 34.0465 6.3917 34.3226 6.25108 34.4038L6.18025 31.8132Z" fill="#FFEE58"/>
<path d="M6.18025 29.8215C6.18025 30.4861 6.81254 30.8267 7.30837 30.8267C7.97712 30.8267 8.33337 30.4496 8.33337 29.9548C8.33337 29.6746 8.2792 29.4986 8.1417 29.2309C8.1417 29.2309 7.03858 27.0653 6.60837 26.2278C6.55525 26.1236 6.53754 26.0048 6.53754 25.8298C6.53754 25.5601 6.81462 25.3403 7.10421 25.334C7.36879 25.3278 7.65733 25.5663 7.65733 25.8392C7.65733 26.1705 7.47504 26.3173 7.28858 26.3173C7.05837 26.3173 6.96775 26.2278 6.96775 26.0757C6.96775 25.9694 7.02191 25.9236 7.10004 25.9236C7.29691 25.9236 7.24171 26.1736 7.24171 26.1736C7.33962 26.1538 7.41983 26.059 7.374 25.9413C7.44587 25.9267 7.51254 25.8913 7.56566 25.834C7.51254 25.7861 7.45212 25.7486 7.374 25.7361C7.41983 25.5923 7.35837 25.5226 7.22504 25.4923C7.25212 25.5476 7.25316 25.5986 7.24379 25.6465C7.03441 25.5903 6.71254 25.6798 6.71254 26.0215C6.71254 26.3611 6.96254 26.6476 7.43025 26.5757C7.31879 26.6257 7.26254 26.7288 7.25108 26.8434C7.3365 26.8121 7.43025 26.808 7.43025 26.808C7.37504 26.8986 7.299 26.9778 7.30316 27.1569C7.38962 27.1194 7.47087 27.0507 7.58233 27.0944C7.40733 27.4184 7.62191 27.8653 8.16775 27.9705C7.96775 27.7496 7.86983 27.5111 7.86983 27.2736C7.86983 26.5038 8.09691 26.3746 8.09691 25.8392C8.09691 25.6153 7.97504 25.3736 7.73337 25.209V25.2184C7.89275 25.1778 7.99587 25.1038 8.0542 25.0028C7.68962 24.9048 7.15837 24.9069 6.874 25.0132C6.54587 25.0476 6.31775 25.2851 6.25004 25.4048C6.18233 25.5246 6.05212 25.9601 6.25004 26.3528C6.46671 26.7819 7.48962 28.8288 7.80941 29.4726C7.87712 29.609 7.91775 29.7538 7.91775 29.9111C7.91775 30.3048 7.53545 30.4434 7.31775 30.4434C7.05837 30.4434 6.79379 30.2569 6.79379 30.0236C6.79379 29.8757 6.87921 29.7871 7.00212 29.7871C7.29587 29.7871 7.27816 30.0226 7.21983 30.1715C7.40212 30.0944 7.50837 29.9559 7.4792 29.809C7.58233 29.7955 7.68129 29.7496 7.77191 29.6528C7.70004 29.5673 7.61358 29.5028 7.4792 29.5007C7.53754 29.2746 7.37712 29.1788 7.21983 29.1257C7.26983 29.2923 7.30212 29.483 7.00212 29.483C6.78337 29.483 6.6115 29.5184 6.51046 29.6528C6.50421 29.4736 6.4865 28.7673 6.4865 28.7673C6.474 28.5017 6.86254 28.5101 7.11046 28.5882C7.01671 28.283 6.82608 28.1173 6.38337 28.159C6.48962 28.1163 6.60421 28.0205 6.60421 27.8361C6.60421 27.5871 6.39066 27.3111 6.25004 27.2298L6.18025 29.8215Z" fill="#FFEE58"/>
</svg>
