<svg width="144" height="39" fill="none" xmlns="http://www.w3.org/2000/svg"><path fill-rule="evenodd" clip-rule="evenodd" d="M9 19h5V5H9v14zm9 10h5V10h-5v19zm54-10h5V9h-5v10zM54 29h5V10h-5v19zm9 5h5V15h-5v19zM0 29h5V19H0v10z" fill="#898D8F"/><path fill-rule="evenodd" clip-rule="evenodd" d="M45 39h5V15h-5v24zM27 10h5V0h-5v10zm0 29h5V15h-5v24zm9 0h5V0h-5v39zm9-29h5V0h-5v10z" fill="#fff"/><mask id="a" maskUnits="userSpaceOnUse" x="90" y="14" width="54" height="25"><path fill-rule="evenodd" clip-rule="evenodd" d="M90 38.6999h53.2v-24.3H90v24.3z" fill="#fff"/></mask><g mask="url(#a)"><path fill-rule="evenodd" clip-rule="evenodd" d="M138.6 37.6998v-8.8h-.9v9.7h5.5v-.8h-4.6v-.1zm-5.5-5.3c.3.8.7 1.7 1 2.7H130c.4-1 .7-1.8 1-2.7.3-.8.7-1.6 1-2.4.4.8.7 1.6 1.1 2.4zm3.3 6.1c-.4-1-.7-1.9-1.1-2.8-.3-.9-.6-1.7-1-2.5-.3-.8-.6-1.5-.9-2.2-.3-.7-.6-1.4-1-2.1h-.8c-.3.7-.7 1.4-1 2.2-.3.7-.6 1.5-.9 2.2-.3.8-.6 1.6-1 2.5-.3.9-.7 1.8-1 2.8h1c.2-.5.3-.9.5-1.4.2-.4.3-.9.5-1.3h4.7c.1.4.3.8.4 1.3.2.4.3.9.5 1.4h1.1v-.1zm-16-9.6v.8h3.1v8.8h.9v-8.8h3.1v-.8h-7.1zm-3 9.6h.9v-9.7h-.9v9.7zm-5.2-8.8c.4.1.7.2 1 .3.3.2.5.4.7.7.2.3.3.6.3 1.1 0 .4-.1.8-.2 1.1-.2.3-.4.5-.7.7-.3.2-.6.3-1.1.3-.4.1-.9.1-1.4.1h-1.2v-4.3c.2 0 .4 0 .6-.1h.9c.4 0 .7 0 1.1.1zm-2.4-.9c-.5 0-.8.1-1.2.2v9.5h.9v-3.7h1.3c.7 0 1.3-.1 1.8-.2s1-.3 1.3-.5c.4-.2.6-.5.8-.9.2-.4.3-.9.3-1.4 0-1-.3-1.7-1-2.2-.7-.5-1.7-.8-3.1-.8h-1.1zm-6.2 3.6c.3.8.7 1.7 1 2.7h-4.1c.4-1 .7-1.8 1-2.7.3-.8.7-1.6 1-2.4.4.8.7 1.6 1.1 2.4zm3.3 6.1c-.4-1-.7-1.9-1.1-2.8-.3-.9-.6-1.7-1-2.5-.3-.8-.6-1.5-.9-2.2-.3-.7-.6-1.4-1-2.1h-.8c-.3.7-.7 1.4-1 2.2-.3.7-.6 1.5-.9 2.2-.3.8-.6 1.6-1 2.5-.3.9-.7 1.8-1 2.8h1c.2-.5.3-.9.5-1.4.2-.4.3-.9.5-1.3h4.7c.1.4.3.8.4 1.3.2.4.3.9.5 1.4h1.1v-.1zm-11.4.2c.3 0 .6-.1.8-.2.2-.1.4-.1.6-.2.2-.1.3-.1.3-.2l-.2-.7c-.2.1-.5.2-.9.4-.4.1-.9.2-1.5.2s-1.1-.1-1.5-.3c-.4-.2-.8-.5-1.1-.8-.3-.4-.5-.8-.7-1.3-.2-.5-.2-1.1-.2-1.7 0-.6.1-1.2.2-1.7.2-.5.4-1 .7-1.3.3-.4.7-.7 1.1-.9.5-.2 1-.3 1.6-.3.5 0 1 .1 1.3.2.4.1.7.3.9.4l.3-.8c-.1-.1-.2-.1-.4-.2s-.3-.1-.6-.2c-.2-.1-.5-.1-.8-.2-.3 0-.6-.1-1-.1-.6 0-1.1.1-1.7.3-.5.2-1 .5-1.4 1-.4.4-.7 1-1 1.6-.2.6-.4 1.3-.4 2.2 0 .8.1 1.5.3 2.2.2.6.5 1.2.9 1.6.4.4.9.8 1.4 1 .5.2 1.1.3 1.7.3.6-.3 1-.3 1.3-.3zm6.1-14.7h1.4v-9.7h-1.4v9.7zm-8.8-9.6v1.2h3v8.4h1.4v-8.5h3v-1.2h-7.4v.1zm-2.8 9.6h1.4v-9.7H90v9.7z" fill="#fff"/></g></svg>