<svg width="167" height="60" viewBox="0 0 167 60" fill="none" xmlns="http://www.w3.org/2000/svg">
<rect width="166.303" height="60" fill="#F04F48"/>
<path fill-rule="evenodd" clip-rule="evenodd" d="M37.4515 29.9336H33.8516V19.1052H37.4515V29.9336ZM44.6516 37.1473H41.0514V22.7159H44.6516V37.1473ZM84.2541 29.9349H87.8545V22.7159H84.2541V29.9349ZM73.4553 37.1604H69.8551V22.7223H73.4553V37.1604ZM77.0549 40.7706H80.6552V26.3328H77.0549V40.7706ZM30.2519 37.1497H26.6517V29.9308H30.2519V37.1497Z" fill="white" fill-opacity="0.5"/>
<path fill-rule="evenodd" clip-rule="evenodd" d="M62.6543 44.3624H66.2546V26.3148H62.6543V44.3624Z" fill="white"/>
<path fill-rule="evenodd" clip-rule="evenodd" d="M48.2536 22.7085H51.8536V15.4893H48.2536V22.7085Z" fill="white"/>
<path fill-rule="evenodd" clip-rule="evenodd" d="M48.2536 44.3624H51.8536V26.3148H48.2536V44.3624Z" fill="white"/>
<path fill-rule="evenodd" clip-rule="evenodd" d="M55.4535 44.3655H59.0534V15.4893H55.4535V44.3655Z" fill="white"/>
<path fill-rule="evenodd" clip-rule="evenodd" d="M62.6543 22.7085H66.2543V15.4893H62.6543V22.7085Z" fill="white"/>
<mask id="mask0" mask-type="alpha" maskUnits="userSpaceOnUse" x="95" y="26" width="40" height="19">
<path fill-rule="evenodd" clip-rule="evenodd" d="M95.0558 44.5189H134.678V35.4169V26.3148H95.0558V44.5189Z" fill="white"/>
</mask>
<g mask="url(#mask0)">
<path fill-rule="evenodd" clip-rule="evenodd" d="M131.289 43.7421V37.1376H130.582V44.3565H134.676V43.7421H131.289ZM127.127 39.7775C127.379 40.3959 127.638 41.0625 127.904 41.778H124.83C125.095 41.0633 125.35 40.3974 125.597 39.7803C125.844 39.163 126.098 38.5545 126.359 37.9548C126.619 38.5517 126.876 39.1594 127.127 39.7775ZM129.618 44.3565C129.328 43.6062 129.063 42.9058 128.822 42.2557C128.581 41.6054 128.343 40.9915 128.109 40.4128C127.874 39.8337 127.643 39.2771 127.415 38.7418C127.186 38.2071 126.946 37.6723 126.692 37.1376H126.069C125.814 37.6747 125.572 38.2099 125.342 38.7442C125.111 39.2781 124.879 39.8344 124.645 40.4139C124.411 40.9928 124.172 41.6067 123.929 42.2557C123.686 42.9047 123.428 43.6052 123.154 44.3565H123.892C124.02 44.0041 124.142 43.6636 124.257 43.3364C124.372 43.0091 124.49 42.6892 124.61 42.3775H128.128C128.233 42.6874 128.343 43.0063 128.459 43.334C128.574 43.661 128.701 44.002 128.838 44.3565H129.618ZM117.728 37.1376V37.7523H120.035V44.3565H120.741V37.7523H123.048V37.1376H117.728ZM115.453 44.3565H116.159V37.1376H115.453V44.3565ZM111.582 37.768C111.852 37.8165 112.092 37.9017 112.304 38.023C112.515 38.1448 112.685 38.3097 112.813 38.518C112.941 38.7263 113.005 38.9904 113.005 39.3096C113.005 39.6431 112.946 39.9173 112.828 40.1326C112.711 40.3479 112.543 40.5165 112.325 40.6378C112.106 40.7593 111.843 40.8424 111.535 40.8879C111.227 40.9331 110.882 40.9554 110.501 40.9554H109.607V37.768C109.739 37.7542 109.896 37.7383 110.08 37.7212C110.264 37.7035 110.487 37.695 110.75 37.695C111.034 37.695 111.311 37.7194 111.582 37.768ZM109.778 37.1277C109.442 37.1589 109.149 37.209 108.9 37.2786V44.362H109.606V41.5703H110.583C111.075 41.5703 111.517 41.5306 111.908 41.4506C112.3 41.3709 112.631 41.242 112.901 41.0652C113.171 40.8881 113.378 40.6556 113.524 40.3671C113.67 40.0791 113.742 39.73 113.742 39.3202C113.742 38.6049 113.493 38.0528 112.994 37.664C112.495 37.275 111.737 37.0807 110.719 37.0807C110.428 37.0807 110.114 37.0963 109.778 37.1277ZM105.148 39.7775C105.4 40.3959 105.659 41.0625 105.925 41.778H102.851C103.116 41.0633 103.372 40.3974 103.618 39.7803C103.865 39.163 104.119 38.5545 104.38 37.9548C104.64 38.5517 104.896 39.1594 105.148 39.7775ZM107.636 44.3565C107.347 43.6062 107.082 42.9058 106.84 42.2557C106.599 41.6054 106.361 40.9915 106.127 40.4128C105.893 39.8337 105.661 39.2771 105.433 38.7418C105.205 38.2071 104.964 37.6723 104.71 37.1376H104.087C103.833 37.6747 103.591 38.2099 103.36 38.7442C103.13 39.2781 102.897 39.8344 102.664 40.4139C102.43 40.9928 102.191 41.6067 101.948 42.2557C101.705 42.9047 101.446 43.6052 101.173 44.3565H101.91C102.039 44.0041 102.161 43.6636 102.276 43.3364C102.391 43.0091 102.508 42.6892 102.628 42.3775H106.146C106.252 42.6874 106.361 43.0063 106.477 43.334C106.593 43.661 106.719 44.002 106.856 44.3565H107.636ZM99.146 44.4703C99.3815 44.4391 99.5895 44.3992 99.7696 44.3506C99.9496 44.302 100.099 44.255 100.216 44.2096C100.334 44.1644 100.417 44.1249 100.466 44.0898L100.268 43.4857C100.109 43.5761 99.875 43.6649 99.567 43.7517C99.2587 43.8382 98.8758 43.8815 98.4186 43.8815C98.0031 43.8815 97.6342 43.8086 97.312 43.6631C96.99 43.5172 96.718 43.3084 96.4962 43.0375C96.2748 42.7669 96.1064 42.4391 95.9924 42.0532C95.8781 41.668 95.8209 41.2356 95.8209 40.7564C95.8209 40.2913 95.8781 39.8674 95.9924 39.4857C96.1064 39.1039 96.2781 38.7738 96.5066 38.4962C96.7351 38.2183 97.0174 38.003 97.3534 37.8503C97.6897 37.6973 98.0826 37.6209 98.5331 37.6209C98.9279 37.6209 99.2587 37.6713 99.5255 37.7721C99.7921 37.8729 100.012 37.9752 100.185 38.0796L100.414 37.4646C100.351 37.423 100.261 37.3763 100.143 37.3238C100.026 37.2719 99.8838 37.22 99.7177 37.168C99.5512 37.1158 99.3574 37.0724 99.1357 37.0374C98.9139 37.0028 98.6681 36.9857 98.3979 36.9857C97.9617 36.9857 97.5425 37.0672 97.1405 37.2303C96.7387 37.3937 96.3856 37.635 96.0807 37.9544C95.7758 38.2739 95.5318 38.6678 95.3481 39.1366C95.1645 39.6057 95.0725 40.142 95.0725 40.7461C95.0725 41.3504 95.1575 41.887 95.3274 42.3557C95.4971 42.8243 95.7292 43.2185 96.0235 43.5377C96.318 43.8574 96.6644 44.1002 97.0625 44.2672C97.4609 44.4334 97.8922 44.5173 98.3562 44.5173C98.6471 44.5173 98.9106 44.5012 99.146 44.4703ZM103.718 33.531H104.726V26.3121H103.718V33.531ZM97.1251 26.3121V27.1873H99.3899V33.5313H100.398V27.1873H102.663V26.3121H97.1251ZM95.0547 33.5316H96.0627V26.3127H95.0547V33.5316Z" fill="white"/>
</g>
</svg>
