<svg width="32" height="29" viewBox="0 0 32 29" fill="none" xmlns="http://www.w3.org/2000/svg">
<path d="M0 0V21.3333H16V28.4444L32 12.4444V0H0ZM8.88889 12.4444C7.90667 12.4444 7.11111 11.648 7.11111 10.6667C7.11111 9.68444 7.90667 8.88889 8.88889 8.88889C9.87111 8.88889 10.6667 9.68444 10.6667 10.6667C10.6667 11.648 9.87111 12.4444 8.88889 12.4444ZM16 12.4444C15.0178 12.4444 14.2222 11.648 14.2222 10.6667C14.2222 9.68444 15.0178 8.88889 16 8.88889C16.9822 8.88889 17.7778 9.68444 17.7778 10.6667C17.7778 11.648 16.9822 12.4444 16 12.4444ZM23.1111 12.4444C22.1289 12.4444 21.3333 11.648 21.3333 10.6667C21.3333 9.68444 22.1289 8.88889 23.1111 8.88889C24.0933 8.88889 24.8889 9.68444 24.8889 10.6667C24.8889 11.648 24.0933 12.4444 23.1111 12.4444Z" fill="#F04F48"/>
</svg>
