<svg width="32" height="32" viewBox="0 0 32 32" fill="none" xmlns="http://www.w3.org/2000/svg">
<path d="M25.2105 0L0 4.44526L2.22263 17.0505L4.57143 16.6363V6.4H26.3388L25.2105 0ZM32 8.22857H6.4V21.0277H18.2857C18.2857 18.0032 20.747 15.5438 23.7714 15.5438C26.7959 15.5438 29.2571 18.0032 29.2571 21.0277H32V8.22857ZM23.7714 17.3724C21.7518 17.3724 20.1143 19.0089 20.1143 21.0286C20.1143 23.0491 21.7518 24.6857 23.7714 24.6857C25.7911 24.6857 27.4286 23.0491 27.4286 21.0286C27.4286 19.0089 25.7911 17.3724 23.7714 17.3724ZM16.4571 24.6866C14.4375 24.6866 12.8 26.3232 12.8 28.3429C12.8 30.3634 14.4375 32 16.4571 32C18.4768 32 20.1143 30.3634 20.1143 28.3429C20.1143 26.3232 18.4768 24.6866 16.4571 24.6866Z" fill="#F04F48"/>
</svg>
