<svg width="56" height="56" viewBox="0 0 56 56" fill="none" xmlns="http://www.w3.org/2000/svg">
<path d="M31.6765 40.9767C31.8111 40.769 31.9827 40.6315 32.0717 40.5631C32.3633 40.3389 32.788 40.1177 33.22 39.9139C34.054 39.5207 35.2124 39.0583 36.3552 38.6022C36.4386 38.5689 36.522 38.5356 36.6051 38.5024C37.8523 38.0042 39.0542 37.5189 39.8895 37.1087C39.9761 37.0662 40.0557 37.026 40.1286 36.988C39.98 36.8042 39.8545 36.6256 39.7549 36.4511C39.5289 36.055 39.3553 35.5318 39.5443 34.9744C39.7225 34.4488 40.1392 34.158 40.4154 34.0007C40.6879 33.8456 41.0145 33.7176 41.282 33.6127C41.2952 33.6075 41.3083 33.6024 41.3212 33.5973C41.9384 33.3552 42.46 33.1379 42.8536 32.7681C43.1955 32.447 43.4996 31.9508 43.4999 31.0003L31.6765 40.9767ZM31.6765 40.9767C29.9829 41.5919 28.1575 41.9334 26.25 41.9334C23.4022 41.9334 20.7392 41.1744 18.4324 39.8682L18.0787 39.6679L17.6857 39.7712L11.0014 41.5263M31.6765 40.9767L11.0014 41.5263M11.0014 41.5263L12.784 35.0041L12.8954 34.5964L12.6808 34.2324C11.3506 31.9768 10.5802 29.3753 10.5802 26.5982C10.5802 18.1655 17.5918 11.2667 26.25 11.2667C28.1768 11.2667 30.021 11.6147 31.7291 12.2425C31.7396 12.2576 31.7494 12.271 31.7579 12.2827C31.9191 12.5005 32.1507 12.6886 32.3416 12.8309C32.7571 13.1405 33.3751 13.5165 34.0899 13.9227C35.4547 14.6984 37.3202 15.6667 39.1919 16.6381C39.2997 16.6941 39.4075 16.75 39.5153 16.806C41.5082 17.8406 43.4765 18.8668 44.8915 19.6865C45.4092 19.9864 45.8317 20.2466 46.1464 20.4607C44.7273 22.0118 44.0197 23.4278 43.7052 25.029C43.4442 26.3586 43.4639 27.8219 43.4864 29.4873C43.493 29.9737 43.4998 30.4773 43.4999 30.9999L11.0014 41.5263ZM40.7142 36.6306C40.7199 36.6244 40.7234 36.6213 40.7238 36.6212C40.7242 36.6212 40.7212 36.6243 40.7142 36.6306Z" stroke="#F04F48" stroke-width="2"/>
<path fill-rule="evenodd" clip-rule="evenodd" d="M52.2664 42.9334L50.0672 34.7404C51.4578 32.3385 52.2664 29.5636 52.2664 26.5982C52.2664 17.594 44.9202 10.2667 35.8942 10.2667C26.8655 10.2667 19.523 17.594 19.5239 26.6001C19.523 35.6061 26.8655 42.9334 35.8942 42.9334C38.8683 42.9334 41.6496 42.1258 44.0562 40.7384L52.2664 42.9334ZM36.6433 31.7591H34.2773V34.125H36.6433V31.7591ZM37.7808 19.0418C37.2197 18.8295 36.5523 18.7233 35.7788 18.7233C35.066 18.7233 34.4214 18.8295 33.8451 19.0418C33.2688 19.2541 32.7607 19.5423 32.3208 19.9063C31.8962 20.2551 31.5398 20.6722 31.2516 21.1575C30.9786 21.6277 30.7814 22.1358 30.6601 22.6818H32.8896C33.0716 22.0751 33.3901 21.5822 33.8451 21.203C34.3153 20.8239 34.9598 20.6343 35.7788 20.6343C36.4917 20.6343 37.0832 20.8011 37.5533 21.1348C38.0235 21.4685 38.2586 21.9386 38.2586 22.5453C38.2586 23.0306 38.1145 23.4553 37.8263 23.8193C37.5382 24.1681 37.159 24.517 36.6888 24.8658C36.2187 25.2146 35.8319 25.5331 35.5286 25.8213C35.2404 26.0943 35.0129 26.3749 34.8461 26.663C34.6944 26.9512 34.5883 27.2621 34.5276 27.5958C34.4669 27.9143 34.4366 28.3011 34.4366 28.7561V29.5978H36.4841V28.7561C36.4841 28.4831 36.4993 28.2555 36.5296 28.0735C36.5599 27.8764 36.6206 27.6944 36.7116 27.5275C36.8026 27.3455 36.9315 27.1711 37.0983 27.0043C37.2652 26.8375 37.4851 26.6479 37.7581 26.4355L38.0766 26.1853C38.4103 25.9123 38.7136 25.6545 38.9866 25.4118C39.2596 25.1691 39.4947 24.9113 39.6918 24.6383C39.889 24.3653 40.0407 24.0544 40.1468 23.7055C40.253 23.3567 40.3061 22.9396 40.3061 22.4543C40.3061 21.9841 40.2151 21.5216 40.0331 21.0665C39.8511 20.6115 39.5705 20.2172 39.1913 19.8835C38.8122 19.5347 38.342 19.2541 37.7808 19.0418Z" fill="#F04F48"/>
</svg>
