<svg width="20" height="20" viewBox="0 0 20 20" fill="none" xmlns="http://www.w3.org/2000/svg">
<circle cx="10" cy="10" r="10" fill="#6AA4DE"/>
<path d="M9.00337 11.4347V11.3239C9.00621 10.8125 9.05451 10.4048 9.14826 10.1009C9.24485 9.79403 9.38121 9.5483 9.55735 9.36364C9.73633 9.17614 9.95082 9.00426 10.2008 8.84801C10.4593 8.68608 10.6752 8.49858 10.8485 8.28551C11.0247 8.07244 11.1127 7.81676 11.1127 7.51847C11.1127 7.18324 10.9977 6.91619 10.7676 6.71733C10.5403 6.51562 10.2633 6.41477 9.93661 6.41477C9.63548 6.41477 9.36133 6.51278 9.11417 6.70881C8.86985 6.90199 8.73775 7.19886 8.71786 7.59943H7.20082C7.21502 7.05966 7.3457 6.60937 7.59286 6.24858C7.84286 5.88494 8.17241 5.61222 8.5815 5.4304C8.99343 5.24574 9.44798 5.15341 9.94513 5.15341C10.4877 5.15341 10.965 5.24858 11.377 5.43892C11.7917 5.62926 12.1142 5.90057 12.3443 6.25284C12.5772 6.60227 12.6937 7.01705 12.6937 7.49716C12.6937 7.9858 12.5787 8.39631 12.3485 8.72869C12.1213 9.06108 11.8116 9.34517 11.4196 9.58097C11.073 9.79403 10.8216 10.0256 10.6653 10.2756C10.5091 10.5227 10.4281 10.8722 10.4224 11.3239V11.4347H9.00337ZM9.74911 14.0938C9.49059 14.0938 9.269 14.0028 9.08434 13.821C8.89968 13.6364 8.80877 13.4148 8.81161 13.1562C8.80877 12.9006 8.89968 12.6818 9.08434 12.5C9.269 12.3182 9.49059 12.2273 9.74911 12.2273C10.002 12.2273 10.2207 12.3182 10.4054 12.5C10.59 12.6818 10.6838 12.9006 10.6866 13.1562C10.6838 13.4148 10.59 13.6364 10.4054 13.821C10.2207 14.0028 10.002 14.0938 9.74911 14.0938Z" fill="white"/>
</svg>
