<svg width="30" height="30" viewBox="0 0 30 30" fill="none" xmlns="http://www.w3.org/2000/svg">
<circle cx="15" cy="15" r="15" fill="#F04F48"/>
<path d="M14.7784 21.679C13.9347 21.679 13.1825 21.5341 12.522 21.2443C11.8658 20.9545 11.3438 20.5518 10.956 20.0362C10.5724 19.5163 10.3636 18.9134 10.3295 18.2273H11.9403C11.9872 18.858 12.277 19.3565 12.8097 19.723C13.3466 20.0895 13.9943 20.2727 14.7528 20.2727C15.5923 20.2727 16.2827 20.0597 16.8239 19.6335C17.3693 19.2031 17.642 18.6406 17.642 17.946C17.642 17.2216 17.3736 16.6314 16.8366 16.1754C16.304 15.7195 15.5412 15.4915 14.5483 15.4915H13.5V14.0852H14.5483C15.3239 14.0852 15.9567 13.8786 16.4467 13.4652C16.9368 13.0518 17.1818 12.5 17.1818 11.8097C17.1818 11.1491 16.9666 10.6186 16.5362 10.218C16.1058 9.81321 15.5284 9.6108 14.804 9.6108C14.3523 9.6108 13.9261 9.69389 13.5256 9.86009C13.1293 10.022 12.8054 10.2585 12.554 10.5696C12.3026 10.8764 12.1662 11.2472 12.1449 11.6818H10.6108C10.6364 10.9957 10.843 10.3949 11.2308 9.87926C11.6186 9.35937 12.1257 8.95454 12.7521 8.66477C13.3828 8.375 14.0753 8.23011 14.8295 8.23011C15.6392 8.23011 16.3338 8.39418 16.9134 8.7223C17.4929 9.04616 17.9382 9.47443 18.2493 10.0071C18.5604 10.5398 18.7159 11.1151 18.7159 11.733C18.7159 12.4702 18.522 13.0987 18.1342 13.6186C17.7507 14.1385 17.2287 14.4986 16.5682 14.6989V14.8011C17.3949 14.9375 18.0405 15.2891 18.505 15.8558C18.9695 16.4183 19.2017 17.1151 19.2017 17.946C19.2017 18.6577 19.0078 19.2969 18.62 19.8636C18.2365 20.4261 17.7124 20.8693 17.0476 21.1932C16.3828 21.517 15.6264 21.679 14.7784 21.679Z" fill="white"/>
</svg>
