<svg width="49" height="40" viewBox="0 0 49 40" fill="none" xmlns="http://www.w3.org/2000/svg">
<path d="M28.6667 10.0006V4.16755C28.6667 1.86935 26.7978 0 24.5 0C22.2022 0 20.3333 1.86935 20.3333 4.16755V10.0006H17V18.3334C17 19.2534 17.7467 20 18.6667 20H30.3333C31.2533 20 32 19.2534 32 18.3334V10.0006H28.6667ZM25.3333 16.6669H23.6667L24.1517 14.9208C23.8655 14.7886 23.6667 14.5014 23.6667 14.1659C23.6667 13.7065 24.04 13.3337 24.5011 13.3337C24.9606 13.3337 25.3333 13.7065 25.3333 14.1659C25.3333 14.5014 25.1345 14.7892 24.8495 14.9214L25.3333 16.6669ZM27 10.0006H22V4.16755C22 2.78874 23.1217 1.66657 24.5 1.66657C25.8783 1.66657 27 2.78874 27 4.16755V10.0006Z" fill="#8EA66C"/>
<path d="M7.85405 27.5085V26.7273H13.3086V27.5085H11.0217V34H10.141V27.5085H7.85405ZM14.6678 34V26.7273H15.5485V33.2188H18.9292V34H14.6678ZM24.2701 28.5455C24.2275 28.1856 24.0546 27.9062 23.7516 27.7074C23.4486 27.5085 23.0769 27.4091 22.6365 27.4091C22.1536 27.4091 21.7653 27.5239 21.4718 27.7536C21.1782 27.9808 21.0314 28.2685 21.0314 28.6165C21.0314 28.8769 21.1107 29.0876 21.2694 29.2486C21.4303 29.4072 21.6197 29.5315 21.8375 29.6214C22.0577 29.709 22.2578 29.7765 22.4377 29.8239L23.1763 30.0227C23.3657 30.0724 23.5764 30.1411 23.8084 30.2287C24.0428 30.3163 24.2665 30.4358 24.4796 30.5874C24.695 30.7365 24.8726 30.9283 25.0123 31.1626C25.1519 31.397 25.2218 31.6847 25.2218 32.0256C25.2218 32.4186 25.1188 32.7737 24.9128 33.0909C24.7092 33.4081 24.4109 33.6603 24.0179 33.8473C23.6273 34.0343 23.1526 34.1278 22.5939 34.1278C21.8127 34.1278 21.1924 33.9432 20.7331 33.5739C20.2739 33.2045 20.0229 32.7216 19.9803 32.125H20.8894C20.9131 32.3996 21.0054 32.6269 21.1664 32.8068C21.3297 32.9844 21.5357 33.117 21.7843 33.2045C22.0352 33.2898 22.3051 33.3324 22.5939 33.3324C22.9301 33.3324 23.2319 33.2779 23.4995 33.169C23.767 33.0578 23.9789 32.9039 24.1351 32.7074C24.2914 32.5085 24.3695 32.2765 24.3695 32.0114C24.3695 31.7699 24.302 31.5734 24.1671 31.4219C24.0321 31.2704 23.8546 31.1473 23.6344 31.0526C23.4142 30.9579 23.1763 30.875 22.9206 30.804L22.0257 30.5483C21.4576 30.3849 21.0078 30.1518 20.6763 29.8487C20.3449 29.5457 20.1792 29.1491 20.1792 28.6591C20.1792 28.2519 20.2892 27.8968 20.5094 27.5938C20.7319 27.2884 21.0302 27.0516 21.4043 26.8835C21.7807 26.7131 22.2009 26.6278 22.665 26.6278C23.1337 26.6278 23.5504 26.7119 23.915 26.88C24.2795 27.0457 24.5684 27.273 24.7814 27.5618C24.9969 27.8506 25.1105 28.1785 25.1223 28.5455H24.2701ZM31.9112 26.7273V34H31.0305V27.6506H30.9879L29.2124 28.8295V27.9347L31.0305 26.7273H31.9112ZM34.1982 34.0568C34.023 34.0568 33.8726 33.9941 33.7472 33.8686C33.6217 33.7431 33.5589 33.5928 33.5589 33.4176C33.5589 33.2424 33.6217 33.0921 33.7472 32.9666C33.8726 32.8411 34.023 32.7784 34.1982 32.7784C34.3733 32.7784 34.5237 32.8411 34.6491 32.9666C34.7746 33.0921 34.8374 33.2424 34.8374 33.4176C34.8374 33.5928 34.7746 33.7431 34.6491 33.8686C34.5237 33.9941 34.3733 34.0568 34.1982 34.0568ZM36.3271 34V33.3608L38.7276 30.733C39.0094 30.4252 39.2414 30.1577 39.4237 29.9304C39.6059 29.7008 39.7409 29.4853 39.8285 29.2841C39.9184 29.0805 39.9634 28.8674 39.9634 28.6449C39.9634 28.2614 39.8297 27.9571 39.5621 27.7322C39.297 27.5073 38.9667 27.3949 38.5714 27.3949C38.15 27.3949 37.815 27.5215 37.5664 27.7749C37.3178 28.0258 37.1935 28.3584 37.1935 28.7727H36.3555C36.3555 28.3466 36.4537 27.9725 36.6502 27.6506C36.8467 27.3286 37.1142 27.0777 37.4528 26.8977C37.7937 26.7178 38.176 26.6278 38.5998 26.6278C39.0259 26.6278 39.4035 26.7178 39.7326 26.8977C40.0617 27.0777 40.3197 27.3203 40.5067 27.6257C40.6938 27.9311 40.7873 28.2708 40.7873 28.6449C40.7873 28.9124 40.7388 29.174 40.6417 29.4297C40.547 29.683 40.3813 29.9659 40.1445 30.2784C39.9102 30.5885 39.5846 30.9673 39.168 31.4148L37.5344 33.1619V33.2188H40.9151V34H36.3271Z" fill="#333333"/>
</svg>
