<svg width="20" height="20" viewBox="0 0 20 20" fill="none" xmlns="http://www.w3.org/2000/svg">
<circle cx="10" cy="10" r="10" fill="#F04F48"/>
<path d="M6.90341 14V13.233L9.78409 10.0795C10.1222 9.71023 10.4006 9.3892 10.6193 9.11648C10.8381 8.84091 11 8.58239 11.1051 8.34091C11.2131 8.09659 11.267 7.84091 11.267 7.57386C11.267 7.11364 11.1065 6.74858 10.7855 6.47869C10.4673 6.20881 10.071 6.07386 9.59659 6.07386C9.09091 6.07386 8.68892 6.22585 8.39062 6.52983C8.09233 6.83097 7.94318 7.23011 7.94318 7.72727H6.9375C6.9375 7.21591 7.0554 6.76705 7.29119 6.38068C7.52699 5.99432 7.84801 5.69318 8.25426 5.47727C8.66335 5.26136 9.12216 5.15341 9.63068 5.15341C10.142 5.15341 10.5952 5.26136 10.9901 5.47727C11.3849 5.69318 11.6946 5.98437 11.919 6.35085C12.1435 6.71733 12.2557 7.125 12.2557 7.57386C12.2557 7.89489 12.1974 8.20881 12.081 8.51562C11.9673 8.8196 11.7685 9.15909 11.4844 9.53409C11.2031 9.90625 10.8125 10.3608 10.3125 10.8977L8.35227 12.9943V13.0625H12.4091V14H6.90341Z" fill="white"/>
</svg>
