<svg width="278" height="66" viewBox="0 0 278 66" fill="none" xmlns="http://www.w3.org/2000/svg">
<mask id="mask0" mask-type="alpha" maskUnits="userSpaceOnUse" x="0" y="0" width="66" height="66">
<path d="M32.6795 65.359C50.7279 65.359 65.359 50.7279 65.359 32.6795C65.359 14.6311 50.7279 0 32.6795 0C14.6311 0 0 14.6311 0 32.6795C0 50.7279 14.6311 65.359 32.6795 65.359Z" fill="#FFF880"/>
</mask>
<g mask="url(#mask0)">
<path d="M32.6795 65.359C50.7279 65.359 65.359 50.7279 65.359 32.6795C65.359 14.6311 50.7279 0 32.6795 0C14.6311 0 0 14.6311 0 32.6795C0 50.7279 14.6311 65.359 32.6795 65.359Z" fill="#FFF880"/>
<path d="M24.6582 65.3589C38.2765 65.3589 49.3163 54.3191 49.3163 40.7008C49.3163 27.0825 38.2765 16.0426 24.6582 16.0426C11.0399 16.0426 0 27.0825 0 40.7008C0 54.3191 11.0399 65.3589 24.6582 65.3589Z" fill="#FFF100"/>
<path d="M16.9339 65.3588C26.2863 65.3588 33.8679 57.7773 33.8679 48.4249C33.8679 39.0725 26.2863 31.491 16.9339 31.491C7.58158 31.491 0 39.0725 0 48.4249C0 57.7773 7.58158 65.3588 16.9339 65.3588Z" fill="#FFE700"/>
<path d="M11.5864 65.359C17.9854 65.359 23.1727 60.1716 23.1727 53.7727C23.1727 47.3737 17.9854 42.1863 11.5864 42.1863C5.1874 42.1863 0 47.3737 0 53.7727C0 60.1716 5.1874 65.359 11.5864 65.359Z" fill="#FFDD00"/>
</g>
<path d="M76.6008 27.124H86.1596C89.87 27.124 92.5321 27.8321 94.1465 29.2482C95.7608 30.636 96.568 32.5761 96.568 35.0684C96.568 36.4279 96.2563 37.6599 95.6334 38.7645C95.0105 39.8407 94.0471 40.7187 92.7445 41.3984C94.3589 42.0499 95.534 42.9845 96.2706 44.2023C97.0353 45.4202 97.4177 46.8505 97.4177 48.4932C97.4177 51.1838 96.6105 53.2513 94.9961 54.6957C93.3818 56.1402 90.7197 56.8624 87.0093 56.8624H76.6008V27.124ZM80.5943 43.3527V53.2088H87.0093C89.3034 53.2088 90.9177 52.7982 91.8524 51.9768C92.787 51.1554 93.2543 49.9234 93.2543 48.2807C93.2543 46.6381 92.787 45.406 91.8524 44.5847C90.9177 43.7633 89.3034 43.3527 87.0093 43.3527H80.5943ZM80.5943 30.7776V39.7841H86.1596C88.4537 39.7841 90.0681 39.4017 91.0027 38.637C91.9373 37.844 92.4046 36.7253 92.4046 35.2808C92.4046 33.8364 91.9373 32.7318 91.0027 31.9671C90.0681 31.1741 88.4537 30.7776 86.1596 30.7776H80.5943Z" fill="#1F1F1F"/>
<path d="M117.178 40.1663L114.841 44.5421L107.661 56.8623H102.733V35.6206H106.557V52.3166L108.893 47.9408L116.073 35.6206H121.001V56.8623H117.178V40.1663Z" fill="#1F1F1F"/>
<path d="M141.821 47.7708H131.2V56.8623H127.377V35.6206H131.2V44.2872H141.821V35.6206H145.645V56.8623H141.821V47.7708Z" fill="#1F1F1F"/>
<path d="M152.021 35.6206H160.092C162.952 35.6206 165.006 36.1587 166.252 37.235C167.527 38.3112 168.164 39.7415 168.164 41.5258C168.164 42.4038 167.952 43.2109 167.527 43.9473C167.102 44.6837 166.436 45.3068 165.53 45.8166C166.72 46.2981 167.598 46.9778 168.164 47.8558C168.73 48.7055 169.014 49.6543 169.014 50.7022C169.014 52.6281 168.377 54.1433 167.102 55.2479C165.856 56.3242 163.802 56.8623 160.942 56.8623H152.021V35.6206ZM155.844 47.6859V53.3786H160.942C162.471 53.3786 163.533 53.1379 164.128 52.6564C164.723 52.1466 165.02 51.4244 165.02 50.4898C165.02 49.5834 164.723 48.8896 164.128 48.4081C163.533 47.9266 162.471 47.6859 160.942 47.6859H155.844ZM155.844 39.1042V44.3722H160.092C161.65 44.3722 162.712 44.1456 163.279 43.6924C163.873 43.2109 164.171 42.5596 164.171 41.7382C164.171 40.9168 163.873 40.2796 163.279 39.8265C162.712 39.345 161.65 39.1042 160.092 39.1042H155.844Z" fill="#1F1F1F"/>
<path d="M182.376 57.2022C180.96 57.2022 179.657 56.9756 178.467 56.5224C177.307 56.0409 176.301 55.3612 175.451 54.4832C174.63 53.6053 173.979 52.5432 173.497 51.297C173.044 50.0508 172.817 48.6347 172.817 47.0487V45.4343C172.817 43.8766 173.044 42.4746 173.497 41.2284C173.979 39.9822 174.644 38.9201 175.494 38.0422C176.343 37.1642 177.349 36.4845 178.51 36.003C179.671 35.5215 180.96 35.2808 182.376 35.2808C183.792 35.2808 185.081 35.5215 186.242 36.003C187.431 36.4561 188.437 37.1217 189.258 37.9997C190.108 38.8777 190.76 39.9539 191.212 41.2284C191.694 42.4746 191.935 43.8766 191.935 45.4343V47.4735H176.811C176.867 49.541 177.405 51.0988 178.425 52.1467C179.445 53.1946 180.762 53.7185 182.376 53.7185C184.047 53.7185 185.265 53.4212 186.029 52.8264C186.794 52.2316 187.389 51.382 187.814 50.2774H191.722C191.297 52.3733 190.349 54.0584 188.876 55.3329C187.403 56.5791 185.237 57.2022 182.376 57.2022ZM182.376 38.7644C180.846 38.7644 179.586 39.2175 178.595 40.1239C177.632 41.0018 177.052 42.3472 176.853 44.1598H187.856C187.686 42.2905 187.134 40.931 186.199 40.0814C185.265 39.2034 183.99 38.7644 182.376 38.7644Z" fill="#1F1F1F"/>
<path d="M205.319 57.2022C202.373 57.2022 200.036 56.3242 198.309 54.5682C196.61 52.8122 195.76 50.3057 195.76 47.0487V45.4343C195.76 43.8199 195.986 42.3897 196.44 41.1435C196.893 39.8973 197.53 38.8352 198.351 37.9572C199.172 37.0792 200.178 36.4136 201.368 35.9605C202.557 35.5074 203.874 35.2808 205.319 35.2808C206.565 35.2808 207.669 35.4507 208.632 35.7906C209.623 36.1304 210.473 36.5977 211.181 37.1925C211.917 37.759 212.512 38.4387 212.966 39.2317C213.447 40.0247 213.801 40.8744 214.028 41.7807H209.949C209.638 41.0443 209.1 40.3929 208.335 39.8265C207.598 39.2317 206.522 38.9343 205.106 38.9343C203.492 38.9343 202.189 39.4724 201.198 40.5487C200.234 41.625 199.753 43.2535 199.753 45.4343V47.0487C199.753 49.2011 200.249 50.8297 201.24 51.9342C202.231 53.0105 203.52 53.5486 205.106 53.5486C206.551 53.5486 207.641 53.2512 208.378 52.6565C209.114 52.0617 209.638 51.2687 209.949 50.2774H214.028C213.603 52.3166 212.668 53.9876 211.224 55.2904C209.78 56.5649 207.811 57.2022 205.319 57.2022Z" fill="#1F1F1F"/>
<path d="M215.317 35.6206H232.736V39.1042H225.938V56.8623H222.115V39.1042H215.317V35.6206Z" fill="#1F1F1F"/>
<path d="M244.447 57.2022C242.945 57.2022 241.586 56.9756 240.368 56.5224C239.179 56.0409 238.159 55.3754 237.31 54.5257C236.46 53.6478 235.808 52.5857 235.355 51.3395C234.902 50.065 234.676 48.6347 234.676 47.0487V45.4343C234.676 43.8766 234.902 42.4746 235.355 41.2284C235.836 39.9539 236.502 38.8777 237.352 37.9997C238.202 37.1217 239.221 36.4561 240.411 36.003C241.628 35.5215 242.974 35.2808 244.447 35.2808C245.919 35.2808 247.251 35.5215 248.44 36.003C249.658 36.4561 250.692 37.1217 251.541 37.9997C252.391 38.8494 253.042 39.9114 253.496 41.1859C253.977 42.4321 254.218 43.8482 254.218 45.4343V47.0487C254.218 48.6347 253.977 50.0508 253.496 51.297C253.042 52.5432 252.391 53.6053 251.541 54.4832C250.692 55.3612 249.658 56.0409 248.44 56.5224C247.251 56.9756 245.919 57.2022 244.447 57.2022ZM244.447 53.5486C246.231 53.5486 247.633 53.0105 248.653 51.9342C249.7 50.8297 250.224 49.2011 250.224 47.0487V45.4343C250.224 43.3101 249.7 41.6957 248.653 40.5912C247.633 39.4866 246.231 38.9343 244.447 38.9343C242.662 38.9343 241.246 39.4866 240.198 40.5912C239.179 41.6674 238.669 43.2818 238.669 45.4343V47.0487C238.669 49.1728 239.179 50.7872 240.198 51.8918C241.246 52.9963 242.662 53.5486 244.447 53.5486Z" fill="#1F1F1F"/>
<path d="M269.588 57.2022C266.784 57.2022 264.632 56.2817 263.131 54.4408V65.359H259.307V35.6206H262.281L262.664 38.6794C263.4 37.5466 264.363 36.6969 265.552 36.1304C266.742 35.564 268.101 35.2808 269.631 35.2808C270.82 35.2808 271.925 35.5074 272.945 35.9605C273.992 36.3853 274.884 37.0368 275.621 37.9147C276.358 38.7644 276.938 39.8265 277.363 41.101C277.788 42.3472 278 43.7916 278 45.4343V47.0487C278 48.6913 277.788 50.1499 277.363 51.4244C276.938 52.6706 276.343 53.7327 275.578 54.6107C274.842 55.4604 273.95 56.1118 272.902 56.5649C271.882 56.9898 270.778 57.2022 269.588 57.2022ZM268.569 53.5486C270.268 53.5486 271.599 53.0246 272.562 51.9767C273.525 50.9288 274.007 49.2861 274.007 47.0487V45.4343C274.007 43.2252 273.525 41.5966 272.562 40.5487C271.599 39.4724 270.268 38.9343 268.569 38.9343C267.039 38.9343 265.765 39.4583 264.745 40.5062C263.726 41.5541 263.188 43.0977 263.131 45.1369V47.0487C263.131 49.1445 263.641 50.7589 264.66 51.8918C265.68 52.9963 266.982 53.5486 268.569 53.5486Z" fill="#1F1F1F"/>
</svg>
