<svg width="228" height="90" viewBox="0 0 228 90" fill="none" xmlns="http://www.w3.org/2000/svg">
<path d="M29.9715 43.3222H25.5076C18.4933 43.3222 11.6913 38.2262 11.6913 25.4832C11.6913 12.2114 18.0687 6.79573 24.5508 6.79573H29.9715V43.3222ZM36.9858 3.71933e-05H24.8707C12.965 3.71933e-05 2.87111 9.02707 2.87111 26.5465C2.87111 37.0582 7.75959 44.8098 16.4751 48.6303L0.213124 77.9369C-0.319054 78.8928 0.213123 79.6366 1.06228 79.6366H8.60875C9.24562 79.6366 9.6731 79.4245 9.88539 78.8928L24.6584 50.1179H29.9715V78.8928C29.9715 79.2124 30.2914 79.6366 30.716 79.6366H37.3057C37.9425 79.6366 38.1548 79.317 38.1548 78.7882V1.06051C38.1548 0.319637 37.7302 3.71933e-05 36.9858 3.71933e-05Z" fill="#ED1E24"/>
<path d="M76.9351 26.3973H70.3454C69.8132 26.3973 69.4962 26.8215 69.4962 27.1411V47.4206H57.2735V27.1411C57.2735 26.6094 57.0613 26.3973 56.5291 26.3973H49.9394C49.4101 26.3973 49.0902 26.7169 49.0902 27.1411V78.7465C49.0902 79.2753 49.3025 79.5948 49.8318 79.5948H56.5291C56.9537 79.5948 57.2735 79.2753 57.2735 78.7465V54.1117H69.4962V78.7465C69.4962 79.2753 69.8132 79.5948 70.3454 79.5948H76.9351C77.4672 79.5948 77.6795 79.1678 77.6795 78.7465V27.1411C77.6795 26.7169 77.3596 26.3973 76.9351 26.3973Z" fill="#231F20"/>
<path d="M227.386 76.1963L226.537 72.5878C226.429 72.2682 226.325 72.1607 226.005 72.1607C225.473 72.1607 222.605 73.3287 218.458 73.3287C210.383 73.3287 206.448 65.5771 206.448 53.2612C206.448 42.4299 209.743 31.7062 215.271 31.7062C216.757 31.7062 218.566 32.1304 221.433 34.7859C221.753 35.1055 221.966 35.2101 222.285 35.2101C222.605 35.2101 222.922 34.998 223.242 34.4663L226.112 29.7944C226.325 29.4777 226.429 29.1581 226.429 28.8386C226.429 28.4144 226.005 28.0977 225.368 27.7781C221.009 25.5468 218.034 25.1226 215.483 25.1226C205.494 25.1226 197.735 37.0143 197.735 55.5971C197.735 71.629 205.174 80.8682 215.803 80.8682C220.267 80.8682 225.048 78.7443 226.962 77.3643C227.386 77.0447 227.494 76.6205 227.386 76.1963Z" fill="#231F20"/>
<path d="M181.195 50.3942L193.95 27.1395C194.162 26.8228 194.054 26.3957 193.63 26.3957H187.36C185.551 26.3957 184.914 27.0349 184.277 28.4149L174.713 48.2703C174.181 49.4383 173.648 50.1821 173.116 50.5017V27.1395C173.116 26.7153 172.904 26.3957 172.479 26.3957H165.57C165.253 26.3957 164.933 26.7153 164.933 27.1395V78.8495C164.933 79.1691 165.145 79.5933 165.57 79.5933H172.479C172.904 79.5933 173.116 79.2737 173.116 78.8495V52.1984C173.436 52.4105 173.648 52.7301 173.861 53.1543L185.976 78.0011C186.616 79.2737 187.572 79.5933 188.954 79.5933H195.756C196.18 79.5933 196.288 79.1691 196.073 78.8495L181.195 50.3942Z" fill="#231F20"/>
<path d="M108.818 72.9044H93.4079C98.8285 63.6681 100.954 53.2611 101.699 40.518C101.911 37.7579 102.016 34.8932 102.016 33.0861H108.818V72.9044ZM120.296 72.9044H119.022C117.426 72.9044 117.001 72.2681 117.001 70.9926V27.1417C117.001 26.61 116.789 26.3979 116.364 26.3979H95.1091C94.5769 26.3979 94.257 26.7146 94.257 27.1417V30.9622C94.257 43.8098 93.5155 60.3763 86.7135 72.9044H84.3725C83.7356 72.9044 83.5233 73.2239 83.5233 73.7527V89.2559C83.5233 89.7875 83.9479 89.9996 84.2678 89.9996H89.3686C90.5376 89.9996 90.9622 89.1513 90.9622 88.4075V79.5926H113.706V89.2559C113.706 89.68 114.026 89.9996 114.451 89.9996H119.871C120.508 89.9996 121.148 89.4679 121.148 88.4075V73.7527C121.148 73.2239 120.828 72.9044 120.296 72.9044Z" fill="#231F20"/>
<path d="M140.809 48.1635C138.366 48.1635 134.539 48.5876 134.539 48.5876C134.539 48.5876 134.539 46.9955 134.751 45.2958C135.708 36.2717 137.938 31.7045 141.661 31.7045C145.06 31.7045 147.186 36.3763 147.718 44.555C147.823 46.2517 147.823 48.1635 147.823 48.1635H140.809ZM141.978 25.1238C130.499 25.1238 125.399 39.5635 125.399 55.2787C125.399 71.3106 132.625 80.8665 143.254 80.8665C148.46 80.8665 153.031 78.8501 155.369 77.3626C155.794 77.1505 155.902 76.8338 155.794 76.4067L154.945 72.7982C154.837 72.374 154.625 72.1619 154.093 72.1619C153.668 72.1619 150.586 73.3299 146.229 73.3299C138.046 73.3299 134.219 66.2146 134.219 56.8709V54.3577C134.219 54.3577 138.366 54.8546 140.809 54.8546H156.326V50.3948C156.326 33.9358 150.481 25.1238 141.978 25.1238Z" fill="#231F20"/>
</svg>
