<svg width="32" height="27" viewBox="0 0 32 27" fill="none" xmlns="http://www.w3.org/2000/svg">
<rect x="8" y="10" width="23" height="15" fill="white"/>
<path d="M5.53033 19.9865L2.85234 20.4593L0 4.279L24.2699 0L25.6391 7.76565H5.53033V19.9865ZM32 9.59025V26.0197H7.35582V9.59025H32ZM30.1745 17.805C30.1745 16.4569 29.4352 15.2931 28.349 14.6606V13.2412H22.8241C22.1916 12.1551 21.027 11.4157 19.6797 11.4157C18.3325 11.4157 17.1679 12.1551 16.5353 13.2412H11.0068V14.6606C9.92064 15.2931 9.18132 16.4578 9.18132 17.805C9.18132 19.1522 9.92064 20.3169 11.0068 20.9494V22.3687H16.5353C17.1679 23.4549 18.3325 24.1942 19.6797 24.1942C21.027 24.1942 22.1916 23.4549 22.8241 22.3687H28.349V20.9494C29.4352 20.3169 30.1745 19.1531 30.1745 17.805Z" fill="#515151"/>
</svg>
