<svg width="139" height="45" viewBox="0 0 139 45" fill="none" xmlns="http://www.w3.org/2000/svg">
<path fill-rule="evenodd" clip-rule="evenodd" d="M47.0587 12.6451H47.9311C48.0813 12.6638 48.2337 12.6512 48.3788 12.6082C48.5239 12.5652 48.6584 12.4926 48.774 12.3951C48.8896 12.2977 48.9836 12.1774 49.0503 12.0418C49.1169 11.9063 49.1547 11.7584 49.1612 11.6076C49.1612 11.0073 48.7085 10.6195 47.9407 10.6195C47.7869 10.5981 47.6303 10.6076 47.4802 10.6476C47.33 10.6875 47.1895 10.757 47.0667 10.8521C46.944 10.9471 46.8416 11.0657 46.7656 11.2008C46.6896 11.336 46.6415 11.485 46.6241 11.639H45.6663C45.6828 11.3594 45.7568 11.0862 45.8837 10.8364C46.0106 10.5866 46.1877 10.3655 46.4039 10.187C46.6202 10.0084 46.871 9.87613 47.1407 9.79844C47.4104 9.72076 47.6933 9.69929 47.9717 9.73538C49.2563 9.73538 50.1607 10.4528 50.1607 11.4856C50.1638 11.8316 50.0477 12.1681 49.832 12.4391C49.6163 12.71 49.314 12.8989 48.9755 12.9743V13.051C49.3768 13.0688 49.7547 13.2443 50.0266 13.5392C50.2985 13.8342 50.4423 14.2245 50.4266 14.6249C50.3969 14.9128 50.3099 15.1918 50.1707 15.4457C50.0315 15.6996 49.8429 15.9232 49.616 16.1034C49.389 16.2837 49.1283 16.4169 48.8491 16.4953C48.5698 16.5737 48.2777 16.5957 47.9899 16.56C47.7014 16.5992 47.408 16.5801 47.1271 16.5038C46.8462 16.4275 46.5835 16.2955 46.3549 16.1158C46.1262 15.9361 45.9361 15.7122 45.796 15.4577C45.6558 15.2031 45.5685 14.923 45.5392 14.634H46.512C46.5707 15.2566 47.1442 15.6583 47.9899 15.6583C48.8356 15.6583 49.3876 15.2071 49.3876 14.5712C49.3876 13.9262 48.8676 13.5288 47.9589 13.5288H47.0587V12.6451ZM51.5318 15.0132C51.5318 14.1291 52.1928 13.6193 53.3631 13.5469L54.6968 13.4702V13.0462C54.6968 12.5274 54.354 12.2345 53.6888 12.2345C53.1463 12.2345 52.7715 12.4332 52.6626 12.7804H51.7219C51.8212 11.9368 52.6178 11.3956 53.7347 11.3956C54.9691 11.3956 55.6653 12.0086 55.6653 13.0462V16.4023H54.7288V15.712H54.6519C54.4959 15.9597 54.2768 16.1615 54.0169 16.297C53.7571 16.4325 53.4659 16.4968 53.173 16.4833C52.9663 16.5047 52.7574 16.4827 52.5598 16.4187C52.3621 16.3546 52.1801 16.25 52.0255 16.1115C51.8708 15.973 51.747 15.8037 51.662 15.6145C51.577 15.4254 51.5326 15.2205 51.5318 15.0132ZM54.6968 14.5935V14.1829L53.4944 14.2596C52.8163 14.3048 52.5088 14.5349 52.5088 14.9679C52.5088 15.41 52.8932 15.6673 53.4218 15.6673C53.5767 15.6829 53.7332 15.6673 53.8819 15.6214C54.0306 15.5755 54.1685 15.5002 54.2875 15.4C54.4064 15.2999 54.504 15.1768 54.5743 15.0383C54.6446 14.8997 54.6863 14.7485 54.6968 14.5935ZM58.2441 16.4023V12.3064L60.5143 12.3063V11.4904H57.2724V16.4023H58.2441ZM66.4032 13.9442C66.4032 15.5048 65.612 16.4833 64.369 16.4833C64.0639 16.5041 63.7592 16.4375 63.4908 16.2913C63.2223 16.1451 63.0013 15.9255 62.8538 15.6582H62.7769V18.0354H61.8052V11.4904H62.7406V12.3022H62.8132C62.9634 12.0256 63.1873 11.7958 63.4601 11.6381C63.733 11.4805 64.0442 11.4012 64.3594 11.4089C65.612 11.4089 66.4032 12.3831 66.4032 13.9442ZM65.4038 13.9442C65.4038 12.9067 64.9115 12.2798 64.0882 12.2798C63.2703 12.2798 62.7588 12.92 62.7588 13.9485C62.7588 14.9722 63.2703 15.613 64.0839 15.613C64.9115 15.613 65.4038 14.986 65.4038 13.9442ZM67.6974 17.327V18.1616C67.7882 18.1749 68.0189 18.184 68.1 18.184C69.1038 18.184 69.5693 17.8005 69.9901 16.6053L71.8256 11.4904H70.7952L69.565 15.3919H69.4882L68.2537 11.4904H67.1955L68.9777 16.4204L68.9051 16.6596C68.8674 16.8632 68.7557 17.0458 68.5913 17.1724C68.427 17.2989 68.2216 17.3604 68.0145 17.3451C67.9086 17.3463 67.8026 17.3403 67.6974 17.327ZM72.5826 15.0084H73.5501C73.6451 15.4415 74.052 15.6673 74.6211 15.6673C75.2682 15.6673 75.6654 15.3829 75.6654 14.9408C75.6654 14.4673 75.3088 14.2414 74.6211 14.2414H73.8843V13.4883H74.6083C75.1956 13.4883 75.4946 13.263 75.4946 12.8524C75.4946 12.4918 75.2052 12.2164 74.6083 12.2164C74.0648 12.2164 73.6675 12.4465 73.6045 12.8343H72.6681C72.7381 12.3887 72.9806 11.9883 73.3434 11.7193C73.7063 11.4503 74.1604 11.334 74.6083 11.3956C75.7786 11.3956 76.4481 11.9235 76.4481 12.7533C76.4536 12.9844 76.3794 13.2103 76.2379 13.3934C76.0964 13.5764 75.8962 13.7055 75.6708 13.7589V13.8356C75.9391 13.8701 76.1855 14.0018 76.363 14.2055C76.5406 14.4092 76.637 14.6709 76.6339 14.9408C76.6339 15.8746 75.8373 16.4924 74.6211 16.4924C73.5458 16.4923 72.6723 16.0007 72.5826 15.0084ZM78.0333 11.4904V16.4023L78.9965 16.4023L81.2698 13.0057H81.3424V16.4023H82.3056V11.4904H81.3424L79.0733 14.8689H78.9965V11.4904H78.0333ZM87.6116 12.3064H86.0611V16.4023H85.0883V12.3064H83.5379V11.4904H87.6116V12.3064ZM92.037 16.1729C92.4272 15.9132 92.7135 15.525 92.8459 15.0761L91.9094 15.076C91.7955 15.2799 91.6234 15.4453 91.4151 15.5514C91.2067 15.6574 90.9714 15.6992 90.7391 15.6715C90.5577 15.6737 90.3779 15.638 90.2112 15.5667C90.0445 15.4954 89.8946 15.3902 89.7711 15.2576C89.6476 15.1251 89.5532 14.9683 89.4941 14.7972C89.435 14.6261 89.4124 14.4446 89.4278 14.2643V14.21H92.9046V13.8717C92.9046 12.3293 92.077 11.3956 90.707 11.3956C90.3817 11.3928 90.0596 11.4598 89.7625 11.592C89.4654 11.7242 89.2003 11.9186 88.985 12.1619C88.7697 12.4053 88.6094 12.6919 88.5148 13.0024C88.4203 13.3129 88.3937 13.6401 88.4369 13.9618C88.3925 14.2825 88.4186 14.6089 88.5134 14.9185C88.6082 15.2281 88.7694 15.5135 88.9858 15.7547C89.2022 15.9959 89.4686 16.1873 89.7666 16.3155C90.0646 16.4437 90.3869 16.5057 90.7113 16.4971C91.1777 16.5474 91.6469 16.4327 92.037 16.1729ZM91.9137 13.4931H89.4278C89.4255 13.3254 89.4568 13.1589 89.5201 13.0035C89.5833 12.8481 89.6771 12.7069 89.7959 12.5883C89.9148 12.4696 90.0563 12.376 90.212 12.3128C90.3678 12.2497 90.5347 12.2183 90.7028 12.2206C90.8683 12.217 91.0329 12.2479 91.1858 12.3114C91.3386 12.3749 91.4765 12.4696 91.5906 12.5894C91.7046 12.7093 91.7923 12.8516 91.8479 13.0072C91.9035 13.1628 91.9259 13.3283 91.9137 13.4931ZM96.9656 11.4904H99.1856C100.149 11.4904 100.714 11.9772 100.714 12.7394C100.715 12.9812 100.633 13.2163 100.482 13.4051C100.33 13.594 100.119 13.7253 99.8818 13.777V13.8537C100.169 13.8718 100.439 13.9994 100.635 14.2101C100.831 14.4209 100.938 14.6986 100.935 14.986C100.935 15.843 100.289 16.4023 99.208 16.4023H96.9656V11.4904ZM97.9288 12.2345V13.5064H98.8919C99.4792 13.5064 99.7601 13.2811 99.7601 12.8656C99.7601 12.4827 99.5155 12.2345 98.9998 12.2345L97.9288 12.2345ZM97.9288 14.2191V15.6582H99.081C99.6555 15.6582 99.963 15.4052 99.963 14.9408C99.963 14.4492 99.6149 14.2191 98.9592 14.2191L97.9288 14.2191ZM85.2987 29.8614C85.4493 31.2046 86.7574 32.0866 88.5449 32.0866C90.2576 32.0866 91.4899 31.2046 91.4899 29.9934C91.4899 28.942 90.7467 28.3124 88.9869 27.881L87.2272 27.4581C84.7339 26.8573 83.5763 25.694 83.5763 23.8063C83.5763 21.4692 85.618 19.8638 88.5171 19.8638C91.3863 19.8638 93.3532 21.4692 93.4194 23.8063H91.3681C91.2453 22.4545 90.1252 21.6385 88.4882 21.6385C86.8513 21.6385 85.7312 22.4641 85.7312 23.6657C85.7312 24.6234 86.4466 25.1869 88.1967 25.6183L89.6927 25.9848C92.4786 26.642 93.6362 27.7585 93.6362 29.7398C93.6362 32.2741 91.6126 33.8613 88.3943 33.8613C85.383 33.8613 83.3499 32.3114 83.2186 29.8612L85.2987 29.8614ZM53.1426 29.9743H47.9669L46.724 33.6356H44.5318L49.4341 20.0897H51.7117L56.614 33.6356H54.3844L53.1426 29.9743ZM48.5029 28.2848H52.6055L50.5831 22.3427H50.5265L48.5029 28.2848ZM67.2014 28.6981C67.2014 31.7671 65.5549 33.7389 63.0701 33.7389C62.4406 33.7718 61.8146 33.6271 61.2638 33.3215C60.7129 33.0159 60.2594 32.5618 59.9553 32.011H59.9082V36.9027H57.8762V23.7595H59.8431V25.4022H59.8805C60.1987 24.8541 60.6598 24.4023 61.2149 24.0948C61.7699 23.7874 62.3981 23.6358 63.0327 23.6562C65.5452 23.6562 67.2014 25.6376 67.2014 28.6981ZM65.1128 28.6981C65.1128 26.6986 64.077 25.3841 62.4966 25.3841C60.944 25.3841 59.8997 26.7263 59.8997 28.6981C59.8997 30.688 60.944 32.0206 62.4966 32.0206C64.077 32.0206 65.1128 30.7157 65.1128 28.6981ZM73.966 33.7389C76.4508 33.7389 78.0974 31.7671 78.0974 28.6981C78.0974 25.6376 76.4412 23.6562 73.9286 23.6562C73.2941 23.6358 72.6658 23.7874 72.1108 24.0948C71.5557 24.4022 71.0946 24.8541 70.7764 25.4022H70.7391V23.7595H68.7721V36.9027H70.8042V32.011H70.8512C71.1554 32.5618 71.6088 33.0159 72.1597 33.3215C72.7106 33.6271 73.3366 33.7717 73.966 33.7389ZM73.3926 25.3841C74.973 25.3841 76.0087 26.6986 76.0087 28.6981C76.0088 30.7157 74.973 32.0206 73.3926 32.0206C71.84 32.0206 70.7957 30.688 70.7957 28.6981C70.7957 26.7263 71.84 25.3841 73.3926 25.3841ZM98.0217 23.7595V21.4224H95.98V23.7595H94.5406V25.3649H95.98V31.0257C95.98 32.941 96.7616 33.692 98.7659 33.692C99.1444 33.699 99.5225 33.6676 99.8946 33.5983V32.0025C99.6728 32.0299 99.4496 32.0455 99.2261 32.0494C98.3986 32.0494 98.0217 31.6553 98.0217 30.8094V25.3649H99.9042V23.7595H98.0217ZM100.994 28.6981C100.994 25.5907 102.829 23.6381 105.69 23.6381C108.56 23.6381 110.386 25.5907 110.386 28.6981C110.386 31.814 108.569 33.7581 105.69 33.7581C102.811 33.7581 100.994 31.814 100.994 28.6981ZM108.315 28.6981C108.315 26.5665 107.336 25.3084 105.69 25.3084C104.043 25.3084 103.065 26.5761 103.065 28.6981C103.065 30.8382 104.043 32.0867 105.69 32.0867C107.336 32.0867 108.315 30.8382 108.315 28.6981ZM113.999 23.7595H112.061V33.6356H114.093V27.7777C114.06 27.4848 114.09 27.1882 114.183 26.9083C114.275 26.6283 114.427 26.3716 114.628 26.1557C114.829 25.9398 115.075 25.7699 115.348 25.6577C115.621 25.5455 115.916 25.4936 116.211 25.5055C116.52 25.4965 116.828 25.5379 117.124 25.628V23.7318C116.895 23.6808 116.662 23.6554 116.428 23.6562C115.886 23.6356 115.353 23.8017 114.919 24.1266C114.486 24.4515 114.177 24.9155 114.046 25.4405H113.999V23.7595ZM126.493 30.7349C126.219 32.5277 124.469 33.7581 122.23 33.7581C119.35 33.7581 117.563 31.8332 117.563 28.745C117.563 25.6472 119.36 23.6381 122.145 23.6381C124.884 23.6381 126.606 25.5151 126.606 28.5095V29.2041H119.614V29.3266C119.582 29.6901 119.627 30.0562 119.748 30.4007C119.868 30.7453 120.061 31.0603 120.313 31.3249C120.564 31.5894 120.87 31.7975 121.209 31.9353C121.547 32.0731 121.911 32.1374 122.277 32.124C122.757 32.1689 123.239 32.0579 123.651 31.8076C124.063 31.5573 124.383 31.1811 124.563 30.7349L126.493 30.7349ZM119.623 27.7873H124.573C124.591 27.4605 124.541 27.1334 124.427 26.8267C124.312 26.5199 124.136 26.2401 123.908 26.0047C123.68 25.7694 123.405 25.5836 123.102 25.459C122.799 25.3344 122.473 25.2737 122.145 25.2807C121.814 25.2788 121.486 25.3422 121.179 25.4674C120.873 25.5925 120.595 25.7769 120.361 26.01C120.126 26.243 119.94 26.5201 119.814 26.8251C119.687 27.1302 119.623 27.4572 119.623 27.7873ZM27.6843 13.276C28.6235 12.1475 29.0861 10.6969 28.9741 9.23242C27.5393 9.38327 26.214 10.0697 25.2622 11.1549C24.7968 11.6851 24.4404 12.3019 24.2133 12.97C23.9862 13.6381 23.8929 14.3445 23.9387 15.0488C24.6563 15.0562 25.3663 14.9005 26.0151 14.5934C26.6639 14.2863 27.2346 13.8359 27.6843 13.276ZM30.8455 22.6472C30.8579 21.6804 31.1145 20.7324 31.5913 19.8914C32.0681 19.0504 32.7497 18.3439 33.5725 17.8375C33.0498 17.0901 32.3601 16.4751 31.5584 16.0412C30.7566 15.6073 29.8649 15.3665 28.9539 15.338C27.7652 15.2131 26.5988 15.6765 25.6455 16.0553C25.0403 16.2957 24.521 16.502 24.1365 16.502C23.699 16.502 23.1649 16.2872 22.5663 16.0465C21.7837 15.7319 20.8909 15.3729 19.9606 15.3921C18.8987 15.4264 17.8637 15.7356 16.9566 16.2893C16.0495 16.8431 15.3011 17.6227 14.7845 18.5521C12.5464 22.4309 14.2158 28.1315 16.3597 31.2668C17.4323 32.8021 18.6859 34.5171 20.3262 34.4563C21.0703 34.4254 21.5983 34.203 22.1436 33.9732C22.7747 33.7074 23.429 33.4317 24.4684 33.4317C25.4484 33.4317 26.0747 33.6987 26.6757 33.955C27.2519 34.2007 27.8048 34.4365 28.624 34.4176C30.3464 34.3896 31.4315 32.8755 32.4665 31.3257C33.2372 30.2317 33.8303 29.0226 34.2237 27.7433C33.223 27.3196 32.3691 26.6105 31.7684 25.7042C31.1676 24.798 30.8466 23.7348 30.8455 22.6472Z" fill="#575762"/>
<rect x="1.14131" y="0.773517" width="136.555" height="42.8251" rx="7.67619" stroke="#575762" stroke-width="0.808021"/>
</svg>
