<svg width="102" height="32" viewBox="0 0 102 32" fill="none" xmlns="http://www.w3.org/2000/svg">
<g clip-path="url(#clip0)">
<path fill-rule="evenodd" clip-rule="evenodd" d="M34.5948 8.71516H35.2426C35.3541 8.72902 35.4673 8.71967 35.575 8.68773C35.6827 8.65578 35.7826 8.60191 35.8684 8.52953C35.9543 8.45715 36.0241 8.36781 36.0736 8.26716C36.1231 8.16651 36.1511 8.05672 36.156 7.94472C36.156 7.49898 35.8198 7.21105 35.2497 7.21105C35.1354 7.19512 35.0192 7.2022 34.9077 7.23185C34.7962 7.2615 34.6918 7.31313 34.6007 7.3837C34.5096 7.45426 34.4335 7.54233 34.3771 7.64269C34.3206 7.74305 34.2849 7.85369 34.272 7.96805H33.5608C33.573 7.76045 33.628 7.55758 33.7222 7.37208C33.8164 7.18659 33.948 7.02242 34.1085 6.88982C34.2691 6.75722 34.4554 6.65902 34.6556 6.60133C34.8559 6.54364 35.066 6.5277 35.2727 6.5545C36.2265 6.5545 36.8982 7.08725 36.8982 7.85414C36.9004 8.11106 36.8143 8.36096 36.6541 8.56215C36.4939 8.76333 36.2694 8.90362 36.018 8.95959V9.01654C36.316 9.02973 36.5966 9.16007 36.7986 9.37907C37.0005 9.59808 37.1073 9.88793 37.0956 10.1853C37.0735 10.399 37.0089 10.6062 36.9056 10.7948C36.8022 10.9833 36.6622 11.1493 36.4936 11.2831C36.3251 11.417 36.1315 11.5159 35.9242 11.5741C35.7168 11.6323 35.4999 11.6486 35.2862 11.6221C35.072 11.6513 34.8541 11.6371 34.6455 11.5804C34.4369 11.5238 34.2419 11.4258 34.0721 11.2923C33.9023 11.1589 33.7611 10.9926 33.6571 10.8036C33.553 10.6146 33.4882 10.4066 33.4664 10.192H34.1888C34.2324 10.6543 34.6582 10.9526 35.2862 10.9526C35.9142 10.9526 36.3241 10.6176 36.3241 10.1454C36.3241 9.66639 35.9379 9.37134 35.2632 9.37134H34.5948V8.71516ZM37.9163 10.4736C37.9163 9.81705 38.4071 9.43855 39.2761 9.38476L40.2664 9.32781V9.01299C40.2664 8.62776 40.0119 8.41023 39.5179 8.41023C39.1151 8.41023 38.8368 8.55776 38.756 8.81563H38.0574C38.1311 8.18915 38.7226 7.78731 39.552 7.78731C40.4686 7.78731 40.9856 8.24253 40.9856 9.01299V11.5051H40.2902V10.9925H40.2331C40.1173 11.1764 39.9545 11.3263 39.7616 11.4269C39.5687 11.5275 39.3524 11.5752 39.135 11.5652C38.9815 11.5811 38.8264 11.5648 38.6796 11.5172C38.5328 11.4697 38.3977 11.392 38.2828 11.2891C38.168 11.1863 38.0761 11.0606 38.0129 10.9201C37.9498 10.7796 37.9169 10.6275 37.9163 10.4736ZM40.2664 10.1619V9.857L39.3736 9.91395C38.8701 9.94757 38.6417 10.1184 38.6417 10.44C38.6417 10.7682 38.9272 10.9593 39.3197 10.9593C39.4347 10.9709 39.5509 10.9593 39.6613 10.9252C39.7718 10.8911 39.8742 10.8352 39.9625 10.7608C40.0508 10.6864 40.1233 10.5951 40.1755 10.4922C40.2277 10.3893 40.2586 10.277 40.2664 10.1619ZM42.9005 11.5051V8.46362L44.5862 8.46358V7.8577H42.1789V11.5051H42.9005ZM48.9591 9.67981C48.9591 10.8386 48.3716 11.5652 47.4486 11.5652C47.2221 11.5806 46.9958 11.5312 46.7965 11.4226C46.5971 11.3141 46.433 11.151 46.3235 10.9526H46.2664V12.7177H45.5448V7.8577H46.2394V8.46048H46.2934C46.4049 8.2551 46.5711 8.08446 46.7737 7.96742C46.9763 7.85037 47.2074 7.79146 47.4415 7.79721C48.3716 7.79719 48.9591 8.52057 48.9591 9.67981ZM48.217 9.67981C48.217 8.90936 47.8514 8.44384 47.2401 8.44384C46.6328 8.44384 46.2529 8.91924 46.2529 9.68297C46.2529 10.4431 46.6327 10.9189 47.2369 10.9189C47.8514 10.9189 48.217 10.4534 48.217 9.67981ZM49.9201 12.1917V12.8114C49.9875 12.8213 50.1588 12.828 50.2191 12.8281C50.9644 12.8281 51.3101 12.5433 51.6225 11.6558L52.9855 7.8577H52.2204L51.3069 10.7548H51.2499L50.3332 7.8577H49.5475L50.8708 11.5185L50.8169 11.6961C50.7889 11.8473 50.7059 11.9829 50.5839 12.0769C50.4619 12.1708 50.3093 12.2165 50.1556 12.2051C50.0769 12.2061 49.9982 12.2016 49.9201 12.1917ZM53.5477 10.47H54.2661C54.3366 10.7916 54.6387 10.9593 55.0613 10.9593C55.5419 10.9593 55.8368 10.7481 55.8368 10.4198C55.8368 10.0682 55.572 9.90051 55.0613 9.90051H54.5142V9.34126H55.0518C55.4879 9.34126 55.7099 9.17396 55.7099 8.86903C55.7099 8.60127 55.4951 8.3968 55.0518 8.3968C54.6482 8.3968 54.3533 8.56766 54.3065 8.85559H53.6111C53.6631 8.52474 53.8432 8.22746 54.1126 8.02768C54.382 7.82791 54.7193 7.7416 55.0518 7.78732C55.9209 7.78732 56.418 8.17927 56.418 8.79547C56.4221 8.96707 56.367 9.13485 56.2619 9.27077C56.1568 9.40669 56.0082 9.5025 55.8408 9.5422V9.59915C56.0401 9.62479 56.223 9.72252 56.3548 9.8738C56.4866 10.0251 56.5582 10.2194 56.556 10.4198C56.556 11.1132 55.9645 11.5719 55.0613 11.5719C54.2629 11.5719 53.6143 11.2069 53.5477 10.47ZM57.5951 7.8577V11.5051L58.3103 11.5051L59.9984 8.98294H60.0523V11.5051H60.7675V7.85771H60.0523L58.3674 10.3664H58.3103V7.8577H57.5951ZM64.7075 8.46362H63.5562V11.5051H62.8339V8.46362H61.6825V7.85774H64.7075V8.46362ZM67.9936 11.3347C68.2833 11.1419 68.4959 10.8536 68.5943 10.5203L67.8989 10.5202C67.8143 10.6716 67.6865 10.7945 67.5318 10.8732C67.377 10.9519 67.2023 10.983 67.0299 10.9624C66.8952 10.964 66.7617 10.9375 66.6379 10.8846C66.5141 10.8317 66.4027 10.7535 66.311 10.6551C66.2193 10.5567 66.1493 10.4402 66.1054 10.3132C66.0615 10.1862 66.0447 10.0514 66.0562 9.91751V9.87717H68.6379V9.62599C68.6379 8.48065 68.0234 7.78729 67.0061 7.78729C66.7645 7.78523 66.5253 7.83498 66.3047 7.93316C66.0841 8.03133 65.8872 8.17565 65.7273 8.35634C65.5675 8.53703 65.4484 8.74987 65.3782 8.98046C65.308 9.21104 65.2883 9.45399 65.3203 9.69284C65.2874 9.93097 65.3068 10.1734 65.3772 10.4033C65.4476 10.6332 65.5673 10.845 65.7279 11.0242C65.8886 11.2033 66.0865 11.3454 66.3077 11.4406C66.529 11.5358 66.7684 11.5818 67.0092 11.5755C67.3555 11.6128 67.7039 11.5276 67.9936 11.3347ZM67.902 9.3448H66.0562C66.0544 9.22027 66.0777 9.09666 66.1246 8.98126C66.1716 8.86586 66.2412 8.76102 66.3295 8.67293C66.4178 8.58485 66.5228 8.51531 66.6385 8.46842C66.7541 8.42153 66.878 8.39824 67.0029 8.39994C67.1258 8.39721 67.248 8.42016 67.3615 8.46733C67.4751 8.51449 67.5775 8.58482 67.6621 8.6738C67.7468 8.76277 67.8119 8.86843 67.8532 8.98399C67.8945 9.09955 67.9111 9.22245 67.902 9.3448ZM71.6534 7.8577H73.3018C74.017 7.8577 74.4365 8.21919 74.4365 8.78515C74.4376 8.96473 74.3768 9.13925 74.2644 9.2795C74.152 9.41975 73.9947 9.51722 73.8188 9.5556V9.61255C74.0323 9.62601 74.2325 9.72076 74.378 9.87725C74.5235 10.0337 74.6032 10.24 74.6006 10.4534C74.6006 11.0898 74.1209 11.5051 73.3185 11.5051H71.6534V7.8577ZM72.3686 8.41023V9.35469H73.0838C73.5199 9.35469 73.7284 9.18739 73.7284 8.87889C73.7284 8.59452 73.5468 8.41022 73.1639 8.41022L72.3686 8.41023ZM72.3686 9.88389V10.9526H73.2242C73.6507 10.9526 73.8791 10.7647 73.8791 10.4198C73.8791 10.0548 73.6206 9.8839 73.1337 9.8839L72.3686 9.88389ZM62.9901 21.4992C63.1019 22.4966 64.0732 23.1516 65.4005 23.1516C66.6723 23.1516 67.5874 22.4966 67.5874 21.5972C67.5874 20.8165 67.0355 20.349 65.7288 20.0286L64.4221 19.7146C62.5706 19.2685 61.7111 18.4047 61.7111 17.003C61.7111 15.2675 63.2271 14.0754 65.3799 14.0754C67.5104 14.0754 68.971 15.2675 69.0201 17.003H67.4969C67.4058 15.9992 66.574 15.3933 65.3585 15.3933C64.1429 15.3933 63.3112 16.0063 63.3112 16.8986C63.3112 17.6097 63.8424 18.0281 65.142 18.3485L66.2529 18.6206C68.3216 19.1086 69.1811 19.9376 69.1811 21.4089C69.1811 23.2907 67.6785 24.4694 65.2887 24.4694C63.0527 24.4694 61.543 23.3184 61.4455 21.4991L62.9901 21.4992ZM39.1124 21.583H35.2691L34.3462 24.3017H32.7183L36.3586 14.2432H38.0499L41.6901 24.3017H40.0345L39.1124 21.583ZM35.6672 20.3285H38.7136L37.2118 15.9162H37.1698L35.6672 20.3285ZM49.5518 20.6354C49.5518 22.9143 48.3292 24.3785 46.4841 24.3785C46.0167 24.4028 45.5518 24.2954 45.1428 24.0685C44.7337 23.8416 44.397 23.5044 44.1712 23.0954H44.1362V26.7278H42.6273V16.9682H44.0879V18.188H44.1156C44.3519 17.781 44.6943 17.4455 45.1065 17.2172C45.5186 16.9889 45.9851 16.8763 46.4563 16.8915C48.322 16.8915 49.5518 18.3628 49.5518 20.6354ZM48.0009 20.6354C48.0009 19.1506 47.2318 18.1745 46.0583 18.1745C44.9054 18.1745 44.1299 19.1712 44.1299 20.6354C44.1299 22.113 44.9054 23.1026 46.0583 23.1026C47.2318 23.1026 48.0009 22.1336 48.0009 20.6354ZM54.5749 24.3785C56.42 24.3785 57.6427 22.9143 57.6427 20.6354C57.6427 18.3628 56.4129 16.8915 54.5471 16.8915C54.076 16.8763 53.6095 16.9889 53.1973 17.2172C52.7851 17.4455 52.4427 17.781 52.2065 18.188H52.1787V16.9682H50.7182V26.7278H52.2271V23.0954H52.262C52.4879 23.5044 52.8246 23.8416 53.2336 24.0685C53.6427 24.2954 54.1075 24.4028 54.5749 24.3785ZM54.1491 18.1745C55.3226 18.1745 56.0918 19.1506 56.0918 20.6354C56.0918 22.1336 55.3226 23.1025 54.1491 23.1025C52.9962 23.1025 52.2208 22.113 52.2208 20.6354C52.2208 19.1712 52.9962 18.1745 54.1491 18.1745ZM72.4376 16.9682V15.2327H70.9215V16.9682H69.8527V18.1603H70.9215V22.3637C70.9215 23.786 71.5019 24.3436 72.9902 24.3436C73.2712 24.3488 73.552 24.3255 73.8283 24.274V23.0891C73.6636 23.1094 73.4979 23.121 73.3319 23.1239C72.7175 23.1239 72.4376 22.8312 72.4376 22.2032V18.1603H73.8354V16.9682H72.4376ZM74.645 20.6354C74.645 18.328 76.0072 16.878 78.1314 16.878C80.2628 16.878 81.6187 18.3279 81.6187 20.6354C81.6187 22.9491 80.2699 24.3927 78.1314 24.3927C75.9937 24.3927 74.645 22.9491 74.645 20.6354ZM80.0812 20.6354C80.0812 19.0525 79.3541 18.1184 78.1314 18.1184C76.9088 18.1184 76.1825 19.0597 76.1825 20.6354C76.1825 22.2245 76.9088 23.1516 78.1314 23.1516C79.3541 23.1516 80.0812 22.2245 80.0812 20.6354ZM84.3019 16.9682H82.8627V24.3017H84.3716V19.9519C84.3468 19.7345 84.3695 19.5142 84.438 19.3063C84.5065 19.0984 84.6194 18.9078 84.7688 18.7475C84.9181 18.5872 85.1005 18.4611 85.3034 18.3777C85.5062 18.2944 85.7248 18.2558 85.944 18.2647C86.1734 18.258 86.4024 18.2887 86.6219 18.3557V16.9477C86.4523 16.9097 86.2789 16.8909 86.105 16.8915C85.7025 16.8762 85.3071 16.9995 84.9851 17.2408C84.6631 17.4821 84.4341 17.8266 84.3368 18.2164H84.3019V16.9682ZM93.5789 22.1478C93.3759 23.4791 92.0763 24.3927 90.4136 24.3927C88.2751 24.3927 86.9478 22.9633 86.9478 20.6702C86.9478 18.3699 88.2823 16.878 90.3502 16.878C92.384 16.878 93.6629 18.2718 93.6629 20.4954V21.0111H88.471V21.1021C88.447 21.372 88.4809 21.6439 88.5703 21.8997C88.6598 22.1555 88.8028 22.3894 88.9898 22.5859C89.1769 22.7824 89.4037 22.9369 89.6552 23.0392C89.9066 23.1415 90.1771 23.1892 90.4485 23.1793C90.8051 23.2126 91.1629 23.1302 91.4688 22.9444C91.7746 22.7585 92.0122 22.4791 92.1461 22.1478L93.5789 22.1478ZM88.4781 19.9591H92.1532C92.1668 19.7164 92.1299 19.4735 92.0449 19.2458C91.9599 19.018 91.8287 18.8102 91.6593 18.6354C91.49 18.4606 91.2863 18.3227 91.0611 18.2302C90.8358 18.1376 90.5937 18.0926 90.3502 18.0978C90.1044 18.0963 89.8609 18.1434 89.6335 18.2364C89.4061 18.3293 89.1994 18.4663 89.0254 18.6393C88.8513 18.8123 88.7134 19.0181 88.6194 19.2446C88.5255 19.4711 88.4775 19.7139 88.4781 19.9591ZM20.2082 9.1836C20.9055 8.3456 21.2491 7.2685 21.1659 6.18103C20.1005 6.29304 19.1164 6.80275 18.4096 7.6086C18.0641 8.00227 17.7994 8.46026 17.6308 8.95639C17.4621 9.45252 17.3928 9.97705 17.4268 10.5C17.9597 10.5055 18.4869 10.3899 18.9687 10.1619C19.4505 9.93383 19.8743 9.59935 20.2082 9.1836ZM22.5555 16.1423C22.5648 15.4243 22.7553 14.7204 23.1093 14.0959C23.4634 13.4715 23.9695 12.9468 24.5805 12.5708C24.1923 12.0158 23.6802 11.5591 23.0849 11.2369C22.4895 10.9147 21.8274 10.7359 21.1509 10.7148C20.2683 10.622 19.4021 10.9661 18.6942 11.2474C18.2448 11.4259 17.8592 11.5791 17.5737 11.5791C17.2489 11.5791 16.8522 11.4196 16.4078 11.2409C15.8266 11.0072 15.1637 10.7407 14.4729 10.7549C13.6844 10.7804 12.9158 11.01 12.2423 11.4212C11.5687 11.8324 11.013 12.4113 10.6293 13.1014C8.96743 15.9816 10.2071 20.2146 11.799 22.5428C12.5955 23.6828 13.5264 24.9563 14.7444 24.9111C15.2969 24.8882 15.689 24.723 16.0939 24.5524C16.5625 24.355 17.0484 24.1503 17.8202 24.1503C18.5479 24.1503 19.0129 24.3486 19.4592 24.5389C19.8871 24.7214 20.2977 24.8965 20.9059 24.8824C22.1849 24.8616 22.9907 23.7373 23.7592 22.5865C24.3315 21.7742 24.7719 20.8764 25.064 19.9264C24.321 19.6118 23.6869 19.0852 23.2408 18.4123C22.7947 17.7394 22.5564 16.9499 22.5555 16.1423Z" fill="#575762"/>
<rect x="0.50058" y="0.5" width="101" height="31" rx="5.5" stroke="#575762"/>
</g>
<defs>
<clipPath id="clip0">
<rect width="102" height="32" fill="white" transform="translate(0.000579834)"/>
</clipPath>
</defs>
</svg>
