<svg width="40" height="40" viewBox="0 0 40 40" fill="none" xmlns="http://www.w3.org/2000/svg">
<g clip-path="url(#clip0)">
<rect width="40" height="40" rx="20" fill="#009FDB"/>
<path d="M12.205 30.1946C14.4522 31.8694 17.2986 32.8889 20.3698 32.8889C23.7405 32.8889 26.8117 31.6509 29.1338 29.6848C28.0851 30.3402 25.0889 31.8694 20.3698 31.8694C16.2499 31.8694 13.6282 30.9956 12.205 30.1946ZM21.2686 30.8499C24.5645 30.8499 28.16 29.9761 30.2574 28.2285C30.8566 27.7916 31.381 27.1362 31.9053 26.3352C32.205 25.8255 32.5046 25.2429 32.7293 24.7332C30.7068 27.5731 24.939 29.3936 18.9465 29.3936C14.7518 29.3936 10.1825 28.0828 8.38474 25.5342C10.0327 29.0295 15.0514 30.8499 21.2686 30.8499ZM17.6731 25.1701C10.8566 25.1701 7.63567 22.1117 7.11133 20C7.11133 20.7282 7.18623 21.602 7.33605 22.2574C7.41095 22.5486 7.63567 22.9855 8.0102 23.4224C9.65814 25.0973 13.778 27.4275 20.8941 27.4275C30.557 27.4275 32.8042 24.2963 33.2536 23.2768C33.5533 22.5486 33.778 21.2379 33.778 20.0728V19.3446C33.1038 21.8204 24.8641 25.1701 17.6731 25.1701ZM8.30983 14.4658C7.9353 15.1939 7.48586 16.5047 7.33605 17.16C7.26114 17.4513 7.33605 17.597 7.41095 17.8154C8.23492 19.4902 12.3548 22.1845 21.9428 22.1845C27.7855 22.1845 32.3548 20.801 33.1038 18.2523C33.2536 17.8154 33.2536 17.3057 33.1038 16.6503C32.8791 15.9221 32.5795 15.0483 32.205 14.3929C32.2799 17.7426 22.6919 19.9272 17.8229 19.9272C12.5795 19.9272 8.16002 17.8882 8.16002 15.3396C8.23492 14.9755 8.30983 14.6842 8.30983 14.4658ZM29.1338 10.3151C29.2087 10.3879 29.2087 10.4607 29.2087 10.6064C29.2087 12.0627 24.7143 14.5386 17.5233 14.5386C12.205 14.5386 11.2312 12.6453 11.2312 11.4074C11.2312 10.9705 11.381 10.5336 11.7555 10.0966C11.0814 10.752 10.4821 11.3346 9.88286 12.0627C9.65814 12.354 9.50833 12.6453 9.50833 12.7909C9.50833 15.3396 16.0252 17.0872 22.0177 17.0872C28.4596 17.0872 31.381 15.0483 31.381 13.2278C31.381 12.5725 31.1563 12.2084 30.4821 11.4802C30.0327 11.0433 29.5832 10.6792 29.1338 10.3151ZM27.1862 8.93155C25.1638 7.76645 22.9166 7.11108 20.3698 7.11108C17.8229 7.11108 15.5008 7.76645 13.4784 9.00437C12.8791 9.29564 12.5046 9.58692 12.5046 9.95101C12.5046 11.0433 15.1263 12.2084 19.7705 12.2084C24.3398 12.2084 27.9353 10.8977 27.9353 9.65973C28.0102 9.44128 27.7106 9.22282 27.1862 8.93155Z" fill="white"/>
</g>
<defs>
<clipPath id="clip0">
<path d="M0 20C0 8.95431 8.95431 0 20 0C31.0457 0 40 8.95431 40 20C40 31.0457 31.0457 40 20 40C8.95431 40 0 31.0457 0 20Z" fill="white"/>
</clipPath>
</defs>
</svg>
