<svg xmlns="http://www.w3.org/2000/svg" width="43" height="46" fill="none" viewBox="0 0 43 46">
    <path fill="#F04F48" fill-rule="evenodd" d="M10.263 6.767V5.434h22.671v1.333c-.79.395-1.383 1.186-1.383 2.124a2.372 2.372 0 0 0 4.741 0c0-.938-.543-1.778-1.383-2.124V5.434h3.151a2.972 2.972 0 0 1 2.964 2.963v5.434H1.976V8.397A2.972 2.972 0 0 1 4.94 5.434h3.347v1.333c-.79.395-1.383 1.186-1.383 2.124a2.372 2.372 0 0 0 4.742 0c0-.938-.544-1.778-1.383-2.124zm-1.976-3.31H4.94A4.954 4.954 0 0 0 0 8.398v32.601a4.954 4.954 0 0 0 4.94 4.94h33.12a4.954 4.954 0 0 0 4.94-4.94v-32.6a4.954 4.954 0 0 0-4.94-4.94h-3.15V.988A.99.99 0 0 0 33.921 0a.99.99 0 0 0-.988.988v2.47H10.263V.988A.99.99 0 0 0 9.275 0a.99.99 0 0 0-.988.988v2.47zM4.94 43.963h33.12a2.972 2.972 0 0 0 2.964-2.964V15.807H1.976v25.191a2.972 2.972 0 0 0 2.964 2.964z" clip-rule="evenodd"/>
    <path fill="#F04F48" d="M21.735 23.364a1.63 1.63 0 1 0 0-3.26 1.63 1.63 0 0 0 0 3.26zM33.382 23.364a1.63 1.63 0 1 0 0-3.26 1.63 1.63 0 0 0 0 3.26zM15.707 23.364a1.63 1.63 0 1 0 0-3.26 1.63 1.63 0 0 0 0 3.26zM27.538 23.364a1.63 1.63 0 1 0 0-3.26 1.63 1.63 0 0 0 0 3.26zM9.683 28.847a1.63 1.63 0 1 0 0-3.26 1.63 1.63 0 0 0 0 3.26zM15.707 28.847a1.63 1.63 0 1 0 0-3.26 1.63 1.63 0 0 0 0 3.26zM21.735 28.847a1.63 1.63 0 1 0 0-3.26 1.63 1.63 0 0 0 0 3.26zM15.707 34.38a1.63 1.63 0 1 0 0-3.26 1.63 1.63 0 0 0 0 3.26zM21.735 34.38a1.63 1.63 0 1 0 0-3.26 1.63 1.63 0 0 0 0 3.26zM27.487 28.847a1.63 1.63 0 1 0 0-3.26 1.63 1.63 0 0 0 0 3.26zM33.31 28.847a1.63 1.63 0 1 0 0-3.26 1.63 1.63 0 0 0 0 3.26zM27.538 34.38a1.63 1.63 0 1 0 0-3.26 1.63 1.63 0 0 0 0 3.26zM33.361 34.38a1.63 1.63 0 1 0 0-3.26 1.63 1.63 0 0 0 0 3.26zM9.683 34.182a1.63 1.63 0 1 0 0-3.26 1.63 1.63 0 0 0 0 3.26zM9.683 39.566a1.63 1.63 0 1 0 0-3.26 1.63 1.63 0 0 0 0 3.26zM15.707 39.566a1.63 1.63 0 1 0 0-3.26 1.63 1.63 0 0 0 0 3.26zM21.735 39.566a1.63 1.63 0 1 0 0-3.26 1.63 1.63 0 0 0 0 3.26zM27.558 39.566a1.63 1.63 0 1 0 0-3.26 1.63 1.63 0 0 0 0 3.26z"/>
</svg>
