<svg width="64" height="64" viewBox="0 0 64 64" fill="none" xmlns="http://www.w3.org/2000/svg">
<path d="M42.836 37.607C42.836 31.563 37.038 30.422 32.804 29.59C27.853 28.616 25.683 27.898 25.683 25.098C25.683 22.685 28.246 20.999 31.917 20.999C35.575 20.999 38.333 22.888 38.333 25.392H42.333C42.333 21.347 39.126 18.152 34.548 17.258V13H30.548V17.07C25.338 17.553 21.683 20.777 21.683 25.098C21.683 31.48 27.664 32.656 32.032 33.515C37.137 34.519 38.836 35.25 38.836 37.607C38.836 39.988 35.668 42 31.918 42C28.168 42 25 39.988 25 37.607H21C21 41.955 25.097 45.426 30.549 45.93V50H34.549V45.754C39.358 44.87 42.836 41.612 42.836 37.607Z" fill="#F04F48"/>
</svg>
