<svg width="50" height="50" fill="none" xmlns="http://www.w3.org/2000/svg"><rect width="50" height="50" rx="25" fill="#2C3036"/><path fill="url(#paint0_linear)" d="M0 0h50v50H0z"/><g clip-path="url(#clip0)"><path fill-rule="evenodd" clip-rule="evenodd" d="M43 25.2v-.398c-7.97-.241-11.615-.44-14.522-3.28-2.839-2.905-3.039-6.55-3.28-14.521h-.397c-.24 7.97-.44 11.615-3.279 14.522-2.907 2.84-6.552 3.038-14.522 3.28v.397c7.97.24 11.615.44 14.522 3.278 2.839 2.907 3.039 6.552 3.279 14.523h.398c.24-7.971.44-11.616 3.279-14.523C31.385 25.64 35.029 25.44 43 25.2z" fill="#fff"/></g><defs><linearGradient id="paint0_linear" x1="50" y1="50" x2="50" y2="0" gradientUnits="userSpaceOnUse"><stop stop-color="#fff" stop-opacity=".01"/><stop offset=".475" stop-color="#fff" stop-opacity=".01"/><stop offset=".76" stop-color="#fff" stop-opacity=".043"/><stop offset=".995" stop-color="#fff" stop-opacity=".099"/><stop offset="1" stop-color="#fff" stop-opacity=".1"/></linearGradient><clipPath id="clip0"><path fill="#fff" transform="translate(7 7)" d="M0 0h36v36H0z"/></clipPath></defs></svg>