<svg width="64" height="64" viewBox="0 0 64 64" fill="none" xmlns="http://www.w3.org/2000/svg">
<path d="M41.171 37C39.745 41.124 36.623 44 33 44C29.091 44 25.765 40.653 24.525 36H33L34.732 33H24.038C24.017 32.67 24 32.338 24 32C24 31.662 24.018 31.33 24.038 31H33L34.732 28H24.524C25.764 23.347 29.09 20 32.999 20C36.622 20 39.744 22.876 41.17 27H45.34C43.629 20.621 38.748 16 32.999 16C26.955 16 21.875 21.11 20.427 28H18V31H20.041C20.024 31.332 20 31.662 20 32C20 32.338 20.024 32.668 20.041 33H18V36H20.428C21.877 42.89 26.956 48 33 48C38.749 48 43.63 43.379 45.341 37H41.171Z" fill="#F04F48"/>
</svg>
