<svg xmlns="http://www.w3.org/2000/svg" width="18" height="12" viewBox="0 0 18 12"><g fill="none" fill-rule="evenodd" opacity=".93"><path d="M0-3h18v18H0z"/><path fill="#000" fill-opacity=".45" fill-rule="nonzero" d="M9 .375C5.25.375 2.047 2.707.75 6c1.297 3.293 4.5 5.625 8.25 5.625S15.953 9.293 17.25 6C15.953 2.707 12.75.375 9 .375zM9 9.75C6.93 9.75 5.25 8.07 5.25 6c0-2.07 1.68-3.75 3.75-3.75 2.07 0 3.75 1.68 3.75 3.75 0 2.07-1.68 3.75-3.75 3.75zm0-6A2.247 2.247 0 0 0 6.75 6 2.247 2.247 0 0 0 9 8.25 2.247 2.247 0 0 0 11.25 6 2.247 2.247 0 0 0 9 3.75z"/></g></svg>