<svg width="24" height="17" viewBox="0 0 24 17" fill="none" xmlns="http://www.w3.org/2000/svg" class="stock-filter__all">
<path d="M17.8292 2.33505C16.3094 0.891518 14.2609 0 12 0C9.73906 0 7.68989 0.891518 6.17083 2.33505L0 8.47059L6.17083 14.6061C7.68989 16.0497 9.73906 16.9412 12 16.9412C14.2609 16.9412 16.3094 16.0497 17.8292 14.6061L24 8.47059L17.8292 2.33505Z" fill="white"/>
<path d="M17.8292 2.33505C16.3094 0.891518 14.2609 0 12 0C9.73906 0 7.68989 0.891518 6.17083 2.33505L0 8.47059L6.17083 14.6061C7.68989 16.0497 9.73906 16.9412 12 16.9412C14.2609 16.9412 16.3094 16.0497 17.8292 14.6061L24 8.47059L17.8292 2.33505ZM12 14.1176C8.88635 14.1176 6.35294 11.5842 6.35294 8.47059C6.35294 5.35694 8.88635 2.82353 12 2.82353C15.1136 2.82353 17.6471 5.35694 17.6471 8.47059C17.6471 11.5842 15.1136 14.1176 12 14.1176ZM13.4118 7.76471C12.6332 7.76471 12 7.13224 12 6.35294C12 6.10235 12.0713 5.87012 12.1863 5.66541C12.1235 5.66188 12.0635 5.64706 12 5.64706C10.4428 5.64706 9.17647 6.91341 9.17647 8.47059C9.17647 10.0278 10.4428 11.2941 12 11.2941C13.5565 11.2941 14.8235 10.0278 14.8235 8.47059C14.8235 8.01882 14.7071 7.59814 14.5179 7.21978C14.2595 7.54873 13.8628 7.76471 13.4118 7.76471Z" fill="#999999"/>
</svg>
