<svg width="24" height="24" viewBox="0 0 24 24" fill="none" xmlns="http://www.w3.org/2000/svg">
<path d="M12 24C18.6274 24 24 18.6274 24 12C24 5.37258 18.6274 0 12 0C5.37258 0 0 5.37258 0 12C0 18.6274 5.37258 24 12 24Z" fill="#999999"/>
<path d="M13.6425 4.5L11.439 6.7035L9.93901 5.2035L6.8925 8.25H17.3925L13.6425 4.5ZM4.5 9.75V11.4645L6.97426 15.75H8.25V14.25H15.75V15.75H17.0257L19.5 11.4645V9.75H4.5ZM9.75 15.75C8.92125 15.75 8.25 16.422 8.25 17.25C8.25 18.078 8.92125 18.75 9.75 18.75C10.5788 18.75 11.25 18.078 11.25 17.25C11.25 16.422 10.5788 15.75 9.75 15.75ZM14.25 15.75C13.4213 15.75 12.75 16.422 12.75 17.25C12.75 18.078 13.4213 18.75 14.25 18.75C15.0787 18.75 15.75 18.078 15.75 17.25C15.75 16.422 15.0787 15.75 14.25 15.75Z" fill="white"/>
</svg>
