<svg width="24" height="24" viewBox="0 0 24 24" fill="none" xmlns="http://www.w3.org/2000/svg">
<path d="M12 24C18.6274 24 24 18.6274 24 12C24 5.37258 18.6274 0 12 0C5.37258 0 0 5.37258 0 12C0 18.6274 5.37258 24 12 24Z" fill="#999999"/>
<path d="M18 7.5V9H16.5V13.5H7.5V9H6V7.5H4.5V10.5H6V18.75H8.25V17.25H15.75V18.75H18V10.5H19.5V7.5H18ZM8.25 16.5C7.83525 16.5 7.5 16.1648 7.5 15.75C7.5 15.3352 7.83525 15 8.25 15C8.66475 15 9 15.3352 9 15.75C9 16.1648 8.66475 16.5 8.25 16.5ZM15.75 16.5C15.3352 16.5 15 16.1648 15 15.75C15 15.3352 15.3352 15 15.75 15C16.1648 15 16.5 15.3352 16.5 15.75C16.5 16.1648 16.1648 16.5 15.75 16.5ZM18 5.25H6V7.5H18V5.25Z" fill="white"/>
</svg>
