<svg width="24" height="24" viewBox="0 0 24 24" fill="none" xmlns="http://www.w3.org/2000/svg">
<path d="M12 24C18.6274 24 24 18.6274 24 12C24 5.37258 18.6274 0 12 0C5.37258 0 0 5.37258 0 12C0 18.6274 5.37258 24 12 24Z" fill="#999999"/>
<path d="M4.5 17.2495H19.5V15.7495H4.5V17.2495ZM12 5.49023L4.5 7.49947V8.99947H6.75V14.9995H7.5C7.91475 14.9995 8.25 14.6642 8.25 14.2495V8.99947H9.75V14.2495C9.75 14.6642 10.0852 14.9995 10.5 14.9995C10.9148 14.9995 11.25 14.6642 11.25 14.2495V8.99947H12.75V14.2495C12.75 14.6642 13.0852 14.9995 13.5 14.9995C13.9148 14.9995 14.25 14.6642 14.25 14.2495V8.99947H15.75V14.2495C15.75 14.6642 16.0852 14.9995 16.5 14.9995H17.25V8.99947H19.5V7.49947L12 5.49023Z" fill="white"/>
</svg>
