<svg width="24" height="24" viewBox="0 0 24 24" fill="none" xmlns="http://www.w3.org/2000/svg">
<path d="M12 24C18.6274 24 24 18.6274 24 12C24 5.37258 18.6274 0 12 0C5.37258 0 0 5.37258 0 12C0 18.6274 5.37258 24 12 24Z" fill="#999999"/>
<path d="M10.134 8.7654L9.37802 7.4566C7.80977 8.36635 6.75 10.0591 6.75 11.9986C6.75 13.9381 7.80977 15.6309 9.37802 16.5406L10.134 15.2319C9.01352 14.5824 8.25 13.3839 8.25 11.9986C8.25 10.6134 9.01352 9.41565 10.134 8.7654ZM4.5 11.9986C4.5 9.22813 6.01424 6.80936 8.25449 5.51111L7.50526 4.21362C4.81651 5.77137 3 8.67313 3 11.9986C3 15.3241 4.81651 18.2259 7.50526 19.7844L8.25449 18.4869C6.01424 17.1879 4.5 14.7691 4.5 11.9986ZM16.4947 4.21289L15.7455 5.51038C17.9858 6.80863 19.5 9.22739 19.5 11.9979C19.5 14.7684 17.9858 17.1871 15.7455 18.4854L16.4947 19.7829C19.1835 18.2244 21 15.3226 21 11.9971C21 8.67162 19.1835 5.77139 16.4947 4.21289ZM14.622 7.4566L13.866 8.7654C14.9865 9.4149 15.75 10.6134 15.75 11.9986C15.75 13.3839 14.9865 14.5816 13.866 15.2319L14.622 16.5406C16.1902 15.6309 17.25 13.9381 17.25 11.9986C17.25 10.0591 16.1902 8.36635 14.622 7.4566ZM12 10.4986C11.172 10.4986 10.5 11.1699 10.5 11.9986C10.5 12.8266 11.172 13.4986 12 13.4986C12.828 13.4986 13.5 12.8266 13.5 11.9986C13.5 11.1699 12.828 10.4986 12 10.4986Z" fill="white"/>
</svg>
