<svg width="24" height="24" viewBox="0 0 24 24" fill="none" xmlns="http://www.w3.org/2000/svg">
<path d="M12 24C18.6274 24 24 18.6274 24 12C24 5.37258 18.6274 0 12 0C5.37258 0 0 5.37258 0 12C0 18.6274 5.37258 24 12 24Z" fill="#999999"/>
<path d="M11.2043 12.001L9.19427 19.501H11.5838V16.501H13.0838V19.501H15.4732L13.4648 12.001H11.2043ZM15.2243 9.70521L14.6423 7.53246L4.5 10.2497L5.2755 13.1477L7.44974 12.5665L7.25551 11.842L15.2243 9.70521ZM16.9477 4.58496L15.5085 4.97195L16.6733 9.31746L17.643 12.94L19.083 12.5537L19.0838 6.72171L16.9477 4.58496Z" fill="white"/>
</svg>
