<svg width="40" height="40" viewBox="0 0 40 40" fill="none" xmlns="http://www.w3.org/2000/svg">
<rect width="40" height="40" rx="20" fill="#0070BA"/>
<path fill-rule="evenodd" clip-rule="evenodd" d="M23.9895 4.19169C24.4573 4.91854 25.9033 7.16485 26.5193 9.8612C27.2068 12.8747 27.1939 14.7271 26.8943 16.8467C26.3561 20.6436 24.63 23.5558 23.879 24.5326C23.3666 23.8691 22.5795 22.5144 22.0542 21.2611C22.0542 21.2611 21.0654 18.8558 20.8037 16.515C20.5401 14.1834 20.6525 11.8057 21.4165 9.12395C22.116 6.72785 23.4919 4.56216 23.8679 4C23.8929 4.04171 23.9344 4.10619 23.9895 4.19169ZM22.9546 20.0538C23.0044 21.9338 23.5297 23.1411 23.8679 23.777C24.2172 23.1319 24.818 21.7034 24.7674 19.8971C24.6927 18.0448 24.0679 16.6901 23.879 16.3675C23.667 16.6901 22.9417 18.2475 22.9546 20.0538ZM25.9811 18.0724C26.1562 17.3444 26.2935 16.1279 26.3193 14.9759C26.3432 13.8332 26.2299 11.8794 25.6687 9.84277C25.1047 7.80609 24.0172 5.86158 23.855 5.61275C23.6928 5.86158 22.8293 7.43747 22.0662 9.89807C21.8662 10.6353 21.5013 12.2481 21.4405 13.8055C21.3677 15.6948 21.6257 17.584 21.7289 18.1093C21.7289 17.4826 21.74 15.3906 22.1289 13.6673C22.516 11.944 23.2551 9.95336 23.855 8.93963C24.5047 9.99944 25.3185 12.3034 25.606 13.6765C25.8935 15.0589 26.0437 16.8191 25.9811 18.0724ZM19.9 25.2248H25.1337H28.0984V32.9015C26.0488 35.0856 23.1348 36.4587 19.9 36.4587C13.696 36.4587 8.66699 31.4269 8.66699 25.2248C8.66699 19.0226 13.696 14 19.9 14V22.4416C18.2854 22.4416 16.6709 23.0498 15.4396 24.2848C15.1466 24.5797 14.8895 24.893 14.6664 25.2248C13.0113 27.6761 13.2684 31.0399 15.4396 33.2056C16.6709 34.4405 18.2854 35.0487 19.9 35.0487C21.5073 35.0487 23.1145 34.4405 24.3448 33.224C24.3503 33.2148 24.3568 33.2056 24.3632 33.2056C24.366 33.201 24.3688 33.1987 24.3715 33.1964C24.3743 33.1941 24.377 33.1918 24.3798 33.1871C25.6129 31.9522 25.6129 29.9524 24.3798 28.7267C23.1458 27.4918 21.146 27.4918 19.9129 28.7267C19.9106 28.7267 19.9086 28.729 19.9065 28.7313C19.9044 28.7336 19.9023 28.7359 19.9 28.7359V25.2248Z" fill="white"/>
</svg>
