<svg xmlns="http://www.w3.org/2000/svg" width="153" height="131" viewBox="0 0 153 131"><g fill="#F5F5F5" fill-rule="evenodd"><path d="M123.633 76.898V77c17.936-26.213 27.013-52.83 27.12-84.344 0-31.31-9.702-58.542-27.12-84.656h-.104c-15.747 24.582-25.757 50.285-26.697 78.945-1.045 32.023 8.344 63.539 26.801 89.953zm-.38-6.898v-.104c-4.928-9.535-7.5-19.893-7.5-30.448 0-10.352 2.572-21.209 7.5-30.347V9c4.728 9.645 7.5 19.69 7.5 30.448 0 11.062-2.772 20.603-7.5 30.552zM103.07-13.966c1.76-23.205 8.911-44.069 19.894-65.034l.103.102c12.64 22.389 19.272 44.374 20.518 69.817.621 11.198-.52 22.087-2.903 33.081.515-11.299-.106-21.883-2.174-32.874-2.802-15.27-8.19-28.91-15.44-42.747l-.104-.102c-6.424 12.517-11.293 24.833-14.297 38.37C105.872-.734 105.246 10.97 105.246 24c-1.864-12.726-3.11-25.141-2.175-37.966z"/><path d="M96.268 108.78c5.172-5.001 10.037-7.553 17.383-6.838 11.791 1.128 19.339 8.068 19.962 19.606 1.14 22.059-28.446 35.44-46.963 34.414-26.794-1.325-44.587-18.377-48.829-42.686C35.236 98.474 40.82 82.233 51.376 71c10.447-11.028 24.617-15.42 39.306-15.728V-11C40.51-11 3.477 24.128.892 72.228c-2.79 53.612 36.619 89.965 86.895 91.7 26.69 1.023 46.653-8.882 64.966-25.937V80.906H96.268v27.874"/></g></svg>