<svg width="110" height="32" viewBox="0 0 110 32" fill="none" xmlns="http://www.w3.org/2000/svg">
<g clip-path="url(#clip0)">
<rect x="0.499329" y="0.5" width="109" height="31" rx="3.7" stroke="#575762"/>
<path fill-rule="evenodd" clip-rule="evenodd" d="M47.3565 5.48364C47.0131 5.47408 46.6713 5.53512 46.3523 5.66299C46.0327 5.79114 45.7428 5.98368 45.5007 6.22863L45.4998 6.22957C45.018 6.73308 44.7491 7.40308 44.7491 8.09997C44.7491 8.79685 45.018 9.46686 45.4998 9.97037L45.5007 9.97133C45.7389 10.2121 46.0234 10.4023 46.3369 10.5303C46.6501 10.6581 46.9859 10.7214 47.3241 10.7163C47.7162 10.7227 48.1047 10.6398 48.46 10.4738L48.4609 10.4733C48.7833 10.3178 49.0686 10.0952 49.2979 9.82046L49.3458 9.7631L48.7909 9.21848L48.7349 9.28885C48.569 9.49753 48.3594 9.66743 48.1209 9.78668C47.8824 9.90591 47.6208 9.97162 47.3543 9.9792C47.1161 9.98525 46.8792 9.94236 46.6583 9.85318C46.4377 9.76418 46.2378 9.63097 46.0708 9.46176C45.7361 9.09353 45.5507 8.61379 45.5507 8.11617C45.5507 7.61855 45.7361 7.13881 46.0708 6.77058C46.2378 6.60137 46.4377 6.46815 46.6583 6.37915C46.8793 6.28995 47.1162 6.24707 47.3545 6.25314L47.3602 6.25308C47.6062 6.24184 47.8513 6.28978 48.0749 6.39289C48.2985 6.49599 48.4941 6.65124 48.6453 6.8456L48.7011 6.91733L49.2483 6.38047L49.201 6.32316C48.9775 6.05184 48.6948 5.83518 48.3748 5.6897C48.0554 5.54453 47.7072 5.47407 47.3565 5.48364ZM40.6891 5.68089C41.0041 5.55019 41.3417 5.48291 41.6827 5.48291C42.0236 5.48291 42.3613 5.55019 42.6762 5.68089C42.9911 5.81159 43.2772 6.00314 43.518 6.24458C43.7596 6.48878 43.9501 6.77906 44.0779 7.0979C44.2055 7.41617 44.2683 7.7567 44.2625 8.09953C44.2721 8.44315 44.2111 8.78509 44.0832 9.10417C43.9551 9.42375 43.7626 9.71356 43.5177 9.9556C43.277 10.1969 42.991 10.3884 42.6762 10.5191C42.3613 10.6498 42.0236 10.717 41.6827 10.717C41.3417 10.717 41.0041 10.6498 40.6891 10.5191C40.3742 10.3884 40.0881 10.1968 39.8474 9.95537L39.8462 9.95421C39.3684 9.45516 39.1016 8.7909 39.1016 8.09998C39.1016 7.40905 39.3684 6.7448 39.8462 6.24576L39.8473 6.24457C40.0881 6.00313 40.3742 5.81159 40.6891 5.68089ZM68.7474 5.68089C69.0624 5.55019 69.4 5.48291 69.741 5.48291C70.082 5.48291 70.4196 5.55019 70.7345 5.68089C71.0494 5.81159 71.3355 6.00314 71.5763 6.24458L71.5778 6.24609C72.0517 6.74698 72.3158 7.41039 72.3158 8.09998C72.3158 8.72855 72.0964 9.33536 71.6986 9.81718H71.7225L71.5843 9.95543C71.3428 10.1971 71.0561 10.3888 70.7405 10.5196C70.4249 10.6504 70.0866 10.7177 69.745 10.7177C69.4034 10.7177 69.0651 10.6504 68.7495 10.5196C68.4339 10.3888 68.1472 10.1971 67.9057 9.95543L67.9045 9.95419C67.4267 9.45515 67.1599 8.7909 67.1599 8.09998C67.1599 7.40905 67.4267 6.7448 67.9045 6.24576L67.9057 6.24458C68.1465 6.00314 68.4325 5.81159 68.7474 5.68089ZM77.5909 5.98183C77.3047 5.72536 76.933 5.58522 76.5487 5.58897H74.7104V10.6124L76.6463 10.5786C77.0502 10.5856 77.4412 10.4359 77.7373 10.1609C77.8867 10.0308 78.0058 9.86938 78.086 9.68813C78.1663 9.50682 78.2057 9.3101 78.2015 9.11189C78.2031 8.84644 78.1178 8.58774 77.9585 8.37536L77.9576 8.37416C77.8321 8.21333 77.6725 8.08357 77.491 7.99376C77.6312 7.90547 77.7525 7.78928 77.847 7.65176L77.8484 7.64975C77.9749 7.45338 78.0414 7.22431 78.0395 6.9907C78.0431 6.80005 78.0048 6.61093 77.9273 6.43667C77.8498 6.26226 77.735 6.107 77.5909 5.98183ZM34.7286 5.58897H38.1306V9.84957H38.6733V11.6316H37.9119V10.611H34.3884V11.6397H33.6351V9.85767H34.1824C34.3886 9.62655 34.5443 9.35471 34.6392 9.05959C34.7296 8.77841 34.729 8.55015 34.7282 8.20675V8.20573C34.7281 8.18659 34.7281 8.16709 34.7281 8.14721C34.728 8.1317 34.728 8.11596 34.728 8.09997L34.7286 5.58897ZM49.7137 5.58897H53.2129V6.35037H51.8602V10.611H51.0745V6.35037H49.7137V5.58897ZM53.4438 5.58897H54.3597L55.5046 8.25024L56.6341 5.58897H57.5499L55.6626 9.79602C55.6146 9.96931 55.53 10.1303 55.4143 10.2681C55.2973 10.4075 55.1514 10.5198 54.9867 10.5972C54.8219 10.6746 54.6424 10.7153 54.4603 10.7164C54.2783 10.7176 54.0982 10.6791 53.9326 10.6037L53.8693 10.5749L54.0781 9.83383L54.1678 9.88426C54.2554 9.93348 54.3537 9.96051 54.4541 9.963L54.4562 9.96307C54.5577 9.96816 54.6582 9.94236 54.7446 9.88915C54.8302 9.81676 54.8958 9.72363 54.9352 9.61863L54.9372 9.61323L55.1002 9.25802L53.4438 5.58897ZM58.0486 5.58897H61.726V10.611H60.9403V6.35037H58.8343V10.611H58.0486V5.58897ZM62.6737 5.58897H63.4594V7.67067H65.7274V5.58897H66.5212V10.611H65.7274V8.41587H63.4594V10.611H62.6737V5.58897ZM42.3656 6.36713C42.1486 6.27663 41.9152 6.2323 41.6802 6.23696L41.6775 6.23701C41.4425 6.23375 41.2094 6.27871 40.9925 6.36918C40.776 6.45949 40.5804 6.59317 40.4176 6.76199C40.0872 7.12931 39.9044 7.6059 39.9044 8.09998C39.9044 8.59406 40.0872 9.07065 40.4176 9.43796C40.5804 9.60678 40.776 9.74047 40.9925 9.83077C41.2094 9.92124 41.4425 9.96624 41.6775 9.96298L41.6802 9.96294C41.9152 9.9676 42.1486 9.92332 42.3656 9.83282C42.5823 9.7424 42.7778 9.60788 42.9398 9.43781C43.2752 9.07304 43.4614 8.59556 43.4614 8.09998C43.4614 7.60439 43.2752 7.12691 42.9398 6.76214C42.7778 6.59207 42.5823 6.45755 42.3656 6.36713ZM69.7434 6.23696C69.5084 6.2323 69.275 6.27663 69.0581 6.36713C68.8413 6.45756 68.6458 6.59209 68.4838 6.76218C68.1484 7.12695 67.9622 7.60442 67.9622 8.09998C67.9622 8.59554 68.1484 9.07301 68.4838 9.43778C68.6458 9.60787 68.8413 9.74239 69.0581 9.83282C69.275 9.92332 69.5084 9.96765 69.7434 9.96299L69.7462 9.96298C69.9811 9.96624 70.2142 9.92124 70.4311 9.83077C70.6476 9.74047 70.8432 9.60678 71.006 9.43796C71.3364 9.07064 71.5193 8.59406 71.5193 8.09998C71.5193 7.6059 71.3364 7.12931 71.006 6.76199C70.8432 6.59317 70.6476 6.45949 70.4311 6.36918C70.2142 6.27871 69.9811 6.23371 69.7462 6.23697L69.7434 6.23696ZM76.8713 6.38044C76.7886 6.34584 76.6991 6.33001 76.6095 6.33409L76.6058 6.33425L75.5191 6.33417L75.4974 7.67067H76.5538C76.6477 7.6761 76.7416 7.66036 76.8285 7.62436C76.9154 7.58835 76.993 7.53316 77.0556 7.46291L77.0593 7.45878C77.1814 7.33914 77.2514 7.17624 77.2538 7.00532L77.2539 7.00326C77.2607 6.83126 77.2013 6.66321 77.0879 6.53372C77.0279 6.4673 76.9539 6.41495 76.8713 6.38044ZM35.5143 6.35037V8.09774C35.5483 8.71664 35.4083 9.33174 35.1116 9.87387H37.3206V6.35037H35.5143ZM76.9457 8.47088C76.8515 8.43196 76.7503 8.41321 76.6484 8.41584L76.6463 8.41587H75.4961V9.84957H76.6814C76.7792 9.85285 76.8765 9.83454 76.9663 9.79585C77.0562 9.75716 77.1364 9.69909 77.2012 9.62581L77.2028 9.62411C77.3284 9.48995 77.3987 9.31332 77.3996 9.12957C77.3949 8.94733 77.3221 8.77343 77.1955 8.64221C77.1252 8.56842 77.0399 8.50981 76.9457 8.47088ZM38.868 18.6786V20.1366H42.3672C42.3123 20.8233 42.0269 21.4713 41.5572 21.9753C41.2062 22.3329 40.784 22.6129 40.318 22.7971C39.8519 22.9812 39.3524 23.0655 38.8518 23.0445C37.8206 23.0445 36.8317 22.6349 36.1025 21.9057C35.3734 21.1766 34.9638 20.1877 34.9638 19.1565C34.9638 18.1253 35.3734 17.1364 36.1025 16.4073C36.8317 15.6781 37.8206 15.2685 38.8518 15.2685C39.8403 15.2538 40.7949 15.6292 41.5086 16.3134L42.5373 15.2847C42.0545 14.8072 41.4813 14.4309 40.8512 14.1777C40.2212 13.9246 39.5469 13.7997 38.868 13.8105C38.1479 13.7825 37.4295 13.9001 36.756 14.1563C36.0825 14.4126 35.4676 14.8021 34.9482 15.3017C34.4288 15.8013 34.0156 16.4005 33.7334 17.0636C33.4511 17.7267 33.3057 18.4399 33.3057 19.1605C33.3057 19.8812 33.4511 20.5944 33.7334 21.2575C34.0156 21.9205 34.4288 22.5198 34.9482 23.0194C35.4676 23.5189 36.0825 23.9085 36.756 24.1647C37.4295 24.421 38.1479 24.5386 38.868 24.5106C39.5609 24.5383 40.2518 24.4191 40.8953 24.1608C41.5389 23.9025 42.1205 23.5111 42.6021 23.0121C43.4527 22.0777 43.9059 20.8487 43.8657 19.5858C43.8686 19.2818 43.8442 18.9782 43.7928 18.6786H38.868ZM75.5691 19.8126C75.3578 19.1911 74.9628 18.6484 74.4363 18.2565C73.9098 17.8645 73.2766 17.6416 72.6207 17.6175C72.1776 17.6166 71.7391 17.7066 71.3322 17.882C70.9253 18.0573 70.5586 18.3143 70.255 18.6369C69.9513 18.9595 69.717 19.341 69.5667 19.7578C69.4163 20.1746 69.353 20.6178 69.3807 21.06C69.3738 21.7994 69.6062 22.5212 70.0434 23.1176C70.4805 23.714 71.0988 24.153 71.806 24.369C72.5132 24.5849 73.2713 24.5663 73.9671 24.316C74.6628 24.0656 75.2589 23.5968 75.6663 22.9797L74.4918 22.1697C74.3167 22.4615 74.0684 22.7025 73.7714 22.8687C73.4744 23.035 73.1392 23.1207 72.7989 23.1174C72.4478 23.1319 72.1006 23.0398 71.8028 22.8534C71.505 22.6669 71.2705 22.3947 71.1303 22.0725L75.7392 20.169L75.5691 19.8126ZM70.8711 20.9628C70.8547 20.7112 70.8886 20.4588 70.9709 20.2205C71.0533 19.9822 71.1823 19.7627 71.3505 19.5749C71.5187 19.387 71.7227 19.2347 71.9506 19.1267C72.1784 19.0187 72.4255 18.9572 72.6774 18.9459C72.9384 18.93 73.1983 18.9914 73.4245 19.1225C73.6507 19.2536 73.8332 19.4486 73.9491 19.683L70.8711 20.9628ZM67.1289 24.3H68.6436V14.175H67.1289V24.3ZM64.6503 18.387H64.5936C64.3673 18.1293 64.088 17.9235 63.7749 17.7837C63.4617 17.6439 63.1221 17.5734 62.7792 17.577C61.894 17.6199 61.0593 18.0018 60.448 18.6434C59.8367 19.2851 59.4957 20.1373 59.4957 21.0235C59.4957 21.9098 59.8367 22.762 60.448 23.4037C61.0593 24.0453 61.894 24.4272 62.7792 24.4701C63.1226 24.477 63.4633 24.4079 63.7769 24.2679C64.0906 24.1279 64.3694 23.9204 64.5936 23.6601H64.6503V24.1542C64.6503 25.4745 63.9456 26.1792 62.8116 26.1792C62.4328 26.1709 62.065 26.0502 61.7549 25.8324C61.4448 25.6146 61.2065 25.3096 61.0701 24.9561L59.7579 25.4988C60.0005 26.1081 60.4223 26.6295 60.9675 26.9939C61.5128 27.3584 62.1558 27.5488 62.8116 27.54C64.5855 27.54 66.0516 26.4951 66.0516 23.9517V17.82H64.6503V18.387ZM62.9088 23.1498C62.3781 23.1167 61.8799 22.8826 61.5158 22.495C61.1517 22.1075 60.949 21.5958 60.949 21.064C60.949 20.5323 61.1517 20.0206 61.5158 19.633C61.8799 19.2455 62.3781 19.0114 62.9088 18.9783C63.1682 18.9895 63.4227 19.0527 63.6571 19.1643C63.8916 19.2759 64.1012 19.4334 64.2735 19.6276C64.4458 19.8219 64.5772 20.0488 64.6601 20.2948C64.7429 20.5409 64.7754 20.8011 64.7556 21.06C64.7777 21.3197 64.7469 21.5813 64.665 21.8288C64.5831 22.0763 64.4519 22.3046 64.2793 22.5C64.1066 22.6953 63.8962 22.8537 63.6606 22.9653C63.4251 23.077 63.1693 23.1398 62.9088 23.1498ZM82.6647 14.175H79.0359V24.3H80.5506V20.4606H82.6647C83.0964 20.4916 83.5298 20.4334 83.938 20.2895C84.3462 20.1456 84.7204 19.9191 85.0372 19.6243C85.354 19.3294 85.6067 18.9724 85.7794 18.5756C85.9522 18.1788 86.0414 17.7506 86.0414 17.3178C86.0414 16.885 85.9522 16.4568 85.7794 16.06C85.6067 15.6632 85.354 15.3062 85.0372 15.0113C84.7204 14.7164 84.3462 14.49 83.938 14.3461C83.5298 14.2022 83.0964 14.144 82.6647 14.175ZM82.6647 19.035H80.5506V15.5844H82.6971C82.9247 15.5844 83.1501 15.6292 83.3604 15.7163C83.5707 15.8034 83.7618 15.9311 83.9228 16.0921C84.0837 16.253 84.2114 16.4441 84.2985 16.6544C84.3856 16.8648 84.4305 17.0902 84.4305 17.3178C84.4305 17.5454 84.3856 17.7708 84.2985 17.9811C84.2114 18.1914 84.0837 18.3825 83.9228 18.5435C83.7618 18.7044 83.5707 18.8321 83.3604 18.9192C83.1501 19.0064 82.9247 19.0512 82.6971 19.0512L82.6647 19.035ZM92.0121 17.5851C91.4605 17.5511 90.911 17.6795 90.4316 17.9545C89.9522 18.2294 89.5639 18.6389 89.3148 19.1322L90.6513 19.6911C90.7863 19.4476 90.989 19.2484 91.2348 19.1176C91.4806 18.9868 91.759 18.93 92.0364 18.954C92.2287 18.9315 92.4235 18.9476 92.6095 19.0012C92.7955 19.0549 92.969 19.145 93.1198 19.2664C93.2706 19.3878 93.3957 19.538 93.4878 19.7083C93.58 19.8785 93.6373 20.0654 93.6564 20.2581V20.3553C93.1693 20.0993 92.6272 19.9658 92.0769 19.9665C90.6351 19.9665 89.1609 20.7765 89.1609 22.2507C89.1751 22.564 89.2522 22.8713 89.3876 23.1543C89.5229 23.4373 89.7137 23.6901 89.9487 23.8979C90.1837 24.1057 90.458 24.2641 90.7554 24.3638C91.0528 24.4635 91.3673 24.5024 91.68 24.4782C92.0601 24.4992 92.4389 24.4188 92.7777 24.2451C93.1165 24.0715 93.4029 23.8109 93.6078 23.49H93.6564V24.3H95.1144V20.4039C95.1144 18.63 93.7698 17.6013 92.0445 17.6013L92.0121 17.5851ZM91.8258 23.1336C91.3317 23.1336 90.6432 22.8825 90.6432 22.275C90.6432 21.465 91.5018 21.1896 92.2632 21.1896C92.7444 21.1777 93.2199 21.2952 93.6402 21.5298C93.5893 21.9697 93.3808 22.3762 93.0531 22.6741C92.7254 22.972 92.3009 23.141 91.8582 23.1498L91.8258 23.1336ZM100.428 17.82L98.6946 22.2102H98.646L96.8478 17.82H95.2278L97.9251 23.9598L96.3861 27.3699H97.9656L102.113 17.82H100.428ZM86.82 24.3H88.3266V14.175H86.82V24.3ZM45.9273 18.2036C46.4938 17.8231 47.1605 17.6191 47.843 17.6175C48.2982 17.6088 48.7505 17.6917 49.173 17.8614C49.5956 18.0311 49.9796 18.2841 50.3023 18.6053C50.625 18.9265 50.8798 19.3094 51.0515 19.7311C51.2232 20.1528 51.3083 20.6048 51.3017 21.06C51.3033 21.7425 51.1024 22.4101 50.7246 22.9784C50.3468 23.5468 49.8089 23.9903 49.179 24.253C48.5491 24.5156 47.8555 24.5856 47.1858 24.454C46.5162 24.3224 45.9006 23.9952 45.4169 23.5138C44.9331 23.0323 44.6031 22.4183 44.4684 21.7492C44.3336 21.0802 44.4003 20.3863 44.66 19.7551C44.9197 19.124 45.3607 18.5841 45.9273 18.2036ZM46.7986 22.8734C47.1609 23.0846 47.5783 23.1818 47.9966 23.1526C48.2625 23.1464 48.5246 23.0871 48.7672 22.978C49.0098 22.869 49.2282 22.7125 49.4094 22.5177C49.5905 22.3229 49.7309 22.0938 49.8221 21.844C49.9134 21.5941 49.9536 21.3285 49.9406 21.0628C49.9396 20.6435 49.8124 20.2341 49.5757 19.888C49.339 19.5419 49.0036 19.2751 48.6132 19.1221C48.2227 18.9691 47.7953 18.9371 47.3865 19.0303C46.9776 19.1235 46.6063 19.3375 46.3207 19.6445C46.0351 19.9515 45.8485 20.3374 45.785 20.7519C45.7216 21.1664 45.7844 21.5904 45.9651 21.9687C46.1459 22.3471 46.4363 22.6623 46.7986 22.8734ZM55.3902 17.6175C54.7078 17.6191 54.0411 17.8231 53.4746 18.2036C52.908 18.5841 52.467 19.124 52.2073 19.7551C51.9476 20.3863 51.8809 21.0802 52.0156 21.7492C52.1503 22.4183 52.4804 23.0323 52.9641 23.5138C53.4478 23.9952 54.0634 24.3224 54.7331 24.454C55.4028 24.5856 56.0964 24.5156 56.7263 24.253C57.3562 23.9903 57.8941 23.5468 58.2719 22.9784C58.6497 22.4101 58.8505 21.7425 58.8489 21.06C58.8555 20.6048 58.7705 20.1528 58.5988 19.7311C58.4271 19.3094 58.1723 18.9265 57.8496 18.6053C57.5269 18.2841 57.1428 18.0311 56.7203 17.8614C56.2978 17.6917 55.8455 17.6088 55.3902 17.6175ZM55.5439 23.1526C55.1256 23.1818 54.7082 23.0846 54.3459 22.8734C53.9836 22.6623 53.6932 22.3471 53.5124 21.9687C53.3317 21.5904 53.2689 21.1664 53.3323 20.7519C53.3957 20.3374 53.5824 19.9515 53.868 19.6445C54.1536 19.3375 54.5249 19.1235 54.9338 19.0303C55.3426 18.9371 55.77 18.9691 56.1604 19.1221C56.5509 19.2751 56.8862 19.5419 57.123 19.888C57.3597 20.2341 57.4869 20.6435 57.4879 21.0628C57.5009 21.3285 57.4606 21.5941 57.3694 21.844C57.2782 22.0938 57.1378 22.3229 56.9566 22.5177C56.7755 22.7125 56.5571 22.869 56.3145 22.978C56.0718 23.0871 55.8098 23.1464 55.5439 23.1526Z" fill="#575762"/>
<path d="M8.68259 6.10693C8.41567 6.42253 8.27947 6.82821 8.30188 7.24093V25.1581C8.27432 25.5715 8.41115 25.9791 8.68259 26.2921L8.73929 26.3569L18.7752 16.321V16.078L8.73929 6.05023L8.68259 6.10693Z" fill="url(#paint0_linear)"/>
<path d="M22.0956 19.6666L18.7746 16.3213V16.0783L22.0956 12.733L22.1685 12.7816L26.1456 15.0334C27.2796 15.6733 27.2796 16.7263 26.1456 17.3743L22.1847 19.6261L22.0956 19.6666Z" fill="url(#paint1_linear)"/>
<path d="M22.1943 19.6181L18.7761 16.1999L8.68353 26.2925C8.91242 26.4962 9.20539 26.6134 9.51164 26.6238C9.81789 26.6341 10.1181 26.537 10.3602 26.3492L22.1943 19.6181Z" fill="url(#paint2_linear)"/>
<path d="M22.1943 12.7816L10.3602 6.05863C10.1197 5.86821 9.8197 5.7687 9.51303 5.77759C9.20636 5.78648 8.91265 5.9032 8.68353 6.10723L18.7761 16.1998L22.1943 12.7816Z" fill="url(#paint3_linear)"/>
</g>
<defs>
<linearGradient id="paint0_linear" x1="17.8842" y1="7.05463" x2="4.29238" y2="20.6464" gradientUnits="userSpaceOnUse">
<stop stop-color="#00A0FF"/>
<stop offset="0.01" stop-color="#00A1FF"/>
<stop offset="0.26" stop-color="#00BEFF"/>
<stop offset="0.51" stop-color="#00D2FF"/>
<stop offset="0.76" stop-color="#00DFFF"/>
<stop offset="1" stop-color="#00E3FF"/>
</linearGradient>
<linearGradient id="paint1_linear" x1="27.6279" y1="16.1998" x2="8.03397" y2="16.1998" gradientUnits="userSpaceOnUse">
<stop stop-color="#FFE000"/>
<stop offset="0.41" stop-color="#FFBD00"/>
<stop offset="0.78" stop-color="#FFA500"/>
<stop offset="1" stop-color="#FF9C00"/>
</linearGradient>
<linearGradient id="paint2_linear" x1="20.3394" y1="18.0629" x2="1.90383" y2="36.4904" gradientUnits="userSpaceOnUse">
<stop stop-color="#FF3A44"/>
<stop offset="1" stop-color="#C31162"/>
</linearGradient>
<linearGradient id="paint3_linear" x1="6.14013" y1="0.145631" x2="14.3697" y2="8.37523" gradientUnits="userSpaceOnUse">
<stop stop-color="#32A071"/>
<stop offset="0.07" stop-color="#2DA771"/>
<stop offset="0.48" stop-color="#15CF74"/>
<stop offset="0.8" stop-color="#06E775"/>
<stop offset="1" stop-color="#00F076"/>
</linearGradient>
<clipPath id="clip0">
<rect width="110" height="32" fill="white" transform="translate(-0.000671387)"/>
</clipPath>
</defs>
</svg>
