<svg width="148" height="44" viewBox="0 0 148 44" fill="none" xmlns="http://www.w3.org/2000/svg">
<g clip-path="url(#clip0)">
<rect x="1.14131" y="0.40401" width="146.252" height="42.8251" rx="5.25213" stroke="#575762" stroke-width="0.808021"/>
<path fill-rule="evenodd" clip-rule="evenodd" d="M64.2446 7.38473C63.7821 7.37186 63.3218 7.45406 62.8922 7.62626C62.4617 7.79884 62.0714 8.05813 61.7454 8.38802L61.7441 8.38928C61.0953 9.06735 60.7331 9.96965 60.7331 10.9081C60.7331 11.8466 61.0953 12.7489 61.7441 13.427L61.7454 13.4283C62.0661 13.7526 62.4492 14.0087 62.8715 14.1811C63.2932 14.3532 63.7454 14.4384 64.2009 14.4315C64.729 14.4402 65.2521 14.3285 65.7306 14.1049L65.7319 14.1043C66.166 13.895 66.5503 13.5952 66.8591 13.2251L66.9235 13.1479L66.1763 12.4145L66.1009 12.5092C65.8774 12.7902 65.5951 13.0191 65.274 13.1796C64.9528 13.3402 64.6005 13.4287 64.2416 13.4389C63.9208 13.4471 63.6018 13.3893 63.3042 13.2692C63.0072 13.1493 62.738 12.9699 62.513 12.7421C62.0623 12.2462 61.8126 11.6001 61.8126 10.93C61.8126 10.2598 62.0623 9.61375 62.513 9.11786C62.738 8.88998 63.0072 8.71058 63.3042 8.59072C63.6018 8.4706 63.9209 8.41284 64.2418 8.42102L64.2496 8.42095C64.5808 8.40581 64.9109 8.47037 65.212 8.60922C65.5131 8.74806 65.7766 8.95714 65.9802 9.21888L66.0553 9.31549L66.7922 8.5925L66.7286 8.51531C66.4275 8.14993 66.0469 7.85815 65.6159 7.66223C65.1858 7.46674 64.7168 7.37184 64.2446 7.38473ZM55.2656 7.65037C55.6897 7.47436 56.1444 7.38376 56.6036 7.38376C57.0628 7.38376 57.5174 7.47436 57.9416 7.65037C58.3657 7.82639 58.7509 8.08435 59.0752 8.40949C59.4005 8.73835 59.6571 9.12927 59.8293 9.55866C60.0011 9.98727 60.0856 10.4459 60.0779 10.9076C60.0908 11.3703 60.0086 11.8308 59.8364 12.2605C59.6638 12.6909 59.4046 13.0812 59.0749 13.4071C58.7507 13.7321 58.3655 13.99 57.9416 14.1659C57.5174 14.342 57.0628 14.4326 56.6036 14.4326C56.1444 14.4326 55.6897 14.342 55.2656 14.1659C54.8414 13.9899 54.4562 13.732 54.132 13.4068L54.1304 13.4052C53.4869 12.7332 53.1277 11.8386 53.1277 10.9082C53.1277 9.97769 53.4869 9.08315 54.1304 8.41108L54.1319 8.40947C54.4562 8.08434 54.8414 7.82639 55.2656 7.65037ZM93.0517 7.65037C93.4758 7.47436 93.9305 7.38376 94.3897 7.38376C94.8489 7.38376 95.3036 7.47436 95.7277 7.65037C96.1518 7.82639 96.5371 8.08435 96.8613 8.40949L96.8634 8.41152C97.5016 9.08607 97.8573 9.97949 97.8573 10.9082C97.8573 11.7547 97.5617 12.5719 97.026 13.2207H97.0582L96.8722 13.4069C96.547 13.7323 96.1608 13.9905 95.7358 14.1667C95.3108 14.3428 94.8552 14.4335 94.3952 14.4335C93.9351 14.4335 93.4795 14.3428 93.0545 14.1667C92.6295 13.9905 92.2434 13.7323 91.9182 13.4069L91.9166 13.4052C91.2731 12.7332 90.9139 11.8386 90.9139 10.9082C90.9139 9.97769 91.2731 9.08315 91.9166 8.41108L91.9181 8.40949C92.2424 8.08435 92.6276 7.82639 93.0517 7.65037ZM104.961 8.05565C104.576 7.71025 104.075 7.52153 103.558 7.52658H101.082V14.2916L103.689 14.2461C104.233 14.2555 104.76 14.0539 105.158 13.6836C105.36 13.5084 105.52 13.291 105.628 13.0469C105.736 12.8028 105.789 12.5378 105.784 12.2709C105.786 11.9134 105.671 11.565 105.456 11.279L105.455 11.2774C105.286 11.0608 105.071 10.8861 104.827 10.7651C105.015 10.6462 105.179 10.4897 105.306 10.3045L105.308 10.3018C105.478 10.0374 105.568 9.72889 105.565 9.41429C105.57 9.15754 105.519 8.90286 105.414 8.66818C105.31 8.43331 105.155 8.22421 104.961 8.05565ZM47.2386 7.52658H51.82V13.2643H52.5509V15.6642H51.5255V14.2897H46.7804V15.6751H45.7659V13.2752H46.503C46.7807 12.964 46.9903 12.5979 47.1181 12.2005C47.2399 11.8218 47.2391 11.5144 47.238 11.052V11.0506C47.2379 11.0248 47.2378 10.9985 47.2378 10.9718C47.2378 10.9509 47.2377 10.9297 47.2377 10.9081L47.2386 7.52658ZM67.419 7.52658H72.1314V8.55196H70.3097V14.2897H69.2516V8.55196H67.419V7.52658ZM72.4423 7.52658H73.6757L75.2176 11.1105L76.7387 7.52658H77.9721L75.4304 13.1922C75.3657 13.4256 75.2517 13.6424 75.096 13.8279C74.9384 14.0157 74.7419 14.1669 74.5201 14.2712C74.2983 14.3755 74.0564 14.4302 73.8113 14.4318C73.5662 14.4333 73.3237 14.3815 73.1005 14.2799L73.0154 14.2411L73.2965 13.2431L73.4173 13.311C73.5353 13.3773 73.6677 13.4137 73.8029 13.4171L73.8057 13.4172C73.9423 13.424 74.0778 13.3893 74.1942 13.3176C74.3094 13.2201 74.3977 13.0947 74.4508 12.9533L74.4535 12.9461L74.673 12.4677L72.4423 7.52658ZM78.6436 7.52658H83.596V14.2897H82.5379V8.55196H79.7017V14.2897H78.6436V7.52658ZM84.8722 7.52658H85.9303V10.33H88.9846V7.52658H90.0537V14.2897H88.9846V11.3336H85.9303V14.2897H84.8722V7.52658ZM57.5232 8.57454C57.2311 8.45266 56.9168 8.39296 56.6003 8.39923L56.5966 8.3993C56.2802 8.39491 55.9662 8.45545 55.6741 8.5773C55.3826 8.69891 55.1191 8.87894 54.8999 9.1063C54.4549 9.60096 54.2087 10.2428 54.2087 10.9082C54.2087 11.5735 54.4549 12.2154 54.8999 12.71C55.1191 12.9374 55.3826 13.1174 55.6741 13.239C55.9662 13.3609 56.2802 13.4215 56.5966 13.4171L56.6003 13.417C56.9168 13.4233 57.2311 13.3637 57.5232 13.2418C57.8151 13.12 58.0784 12.9389 58.2965 12.7098C58.7483 12.2186 58.999 11.5756 58.999 10.9082C58.999 10.2408 58.7483 9.59773 58.2965 9.10649C58.0785 8.87746 57.8151 8.6963 57.5232 8.57454ZM94.393 8.39923C94.0765 8.39296 93.7622 8.45266 93.4701 8.57454C93.1782 8.69631 92.9148 8.87749 92.6967 9.10655C92.245 9.59778 91.9943 10.2408 91.9943 10.9082C91.9943 11.5755 92.245 12.2185 92.6967 12.7098C92.9148 12.9388 93.1782 13.12 93.4701 13.2418C93.7622 13.3637 94.0765 13.4234 94.393 13.4171L94.3967 13.4171C94.7131 13.4215 95.0271 13.3609 95.3191 13.239C95.6106 13.1174 95.8741 12.9374 96.0934 12.71C96.5383 12.2154 96.7845 11.5735 96.7845 10.9082C96.7845 10.2428 96.5383 9.60096 96.0934 9.10629C95.8741 8.87894 95.6107 8.69891 95.3191 8.5773C95.0271 8.45545 94.7131 8.39485 94.3967 8.39924L94.393 8.39923ZM103.992 8.59245C103.881 8.54585 103.76 8.52454 103.64 8.53003L103.635 8.53026L102.171 8.53014L102.142 10.33H103.565C103.691 10.3373 103.817 10.3161 103.935 10.2676C104.052 10.2192 104.156 10.1448 104.24 10.0502L104.245 10.0447C104.41 9.88354 104.504 9.66416 104.507 9.43398L104.507 9.43121C104.517 9.19958 104.437 8.97326 104.284 8.79887C104.203 8.70943 104.103 8.63894 103.992 8.59245ZM48.2967 8.55196V10.9051C48.3424 11.7386 48.1539 12.567 47.7544 13.2971H50.7292V8.55196H48.2967ZM104.092 11.4077C103.966 11.3552 103.829 11.33 103.692 11.3335L103.689 11.3336H102.14V13.2643H103.736C103.868 13.2688 103.999 13.2441 104.12 13.192C104.241 13.1399 104.349 13.0617 104.436 12.963L104.439 12.9607C104.608 12.78 104.702 12.5422 104.704 12.2947C104.697 12.0493 104.599 11.8151 104.429 11.6384C104.334 11.539 104.219 11.4601 104.092 11.4077ZM52.813 25.1544V27.1179H57.5254C57.4515 28.0427 57.0671 28.9153 56.4346 29.594C55.9619 30.0757 55.3933 30.4527 54.7657 30.7007C54.1381 30.9488 53.4655 31.0623 52.7912 31.0339C51.4026 31.0339 50.0708 30.4823 49.0888 29.5004C48.1069 28.5184 47.5552 27.1866 47.5552 25.798C47.5552 24.4093 48.1069 23.0775 49.0888 22.0956C50.0708 21.1136 51.4026 20.562 52.7912 20.562C54.1225 20.5422 55.408 21.0478 56.3691 21.9692L57.7545 20.5838C57.1043 19.9408 56.3324 19.434 55.4839 19.0931C54.6354 18.7522 53.7274 18.584 52.813 18.5985C51.8433 18.5608 50.8759 18.7192 49.9688 19.0643C49.0618 19.4093 48.2337 19.934 47.5343 20.6067C46.8348 21.2795 46.2784 22.0865 45.8983 22.9795C45.5182 23.8724 45.3223 24.8329 45.3223 25.8034C45.3223 26.7739 45.5182 27.7344 45.8983 28.6274C46.2784 29.5203 46.8348 30.3274 47.5343 31.0001C48.2337 31.6729 49.0618 32.1975 49.9688 32.5426C50.8759 32.8877 51.8433 33.0461 52.813 33.0083C53.7462 33.0456 54.6766 32.8851 55.5433 32.5373C56.41 32.1895 57.1933 31.6623 57.8417 30.9903C58.9872 29.7319 59.5976 28.0769 59.5434 26.3761C59.5473 25.9668 59.5145 25.5579 59.4453 25.1544H52.813ZM102.238 26.6815C101.954 25.8446 101.422 25.1138 100.713 24.5859C100.004 24.058 99.1512 23.7579 98.2678 23.7254C97.6711 23.7242 97.0805 23.8455 96.5326 24.0816C95.9846 24.3177 95.4909 24.6637 95.0819 25.0982C94.673 25.5327 94.3575 26.0465 94.155 26.6078C93.9525 27.1691 93.8672 27.7659 93.9045 28.3614C93.8952 29.3572 94.2083 30.3292 94.7969 31.1324C95.3856 31.9356 96.2184 32.5267 97.1707 32.8176C98.1231 33.1085 99.144 33.0834 100.081 32.7462C101.018 32.409 101.821 31.7777 102.369 30.9467L100.788 29.8559C100.552 30.2489 100.217 30.5734 99.8175 30.7973C99.4176 31.0211 98.9661 31.1366 98.5078 31.1321C98.035 31.1516 97.5674 31.0277 97.1663 30.7765C96.7653 30.5254 96.4496 30.1588 96.2607 29.7249L102.468 27.1615L102.238 26.6815ZM95.9116 28.2305C95.8895 27.8917 95.9352 27.5518 96.0461 27.2309C96.157 26.91 96.3308 26.6144 96.5573 26.3614C96.7838 26.1085 97.0586 25.9033 97.3654 25.7578C97.6722 25.6124 98.005 25.5296 98.3442 25.5144C98.6957 25.4929 99.0456 25.5756 99.3503 25.7522C99.6549 25.9288 99.9007 26.1914 100.057 26.507L95.9116 28.2305ZM90.872 32.7247H92.9119V19.0894H90.872V32.7247ZM87.5341 24.7617H87.4577C87.153 24.4146 86.7769 24.1375 86.3552 23.9492C85.9335 23.761 85.4761 23.666 85.0143 23.6709C83.8222 23.7287 82.6981 24.2429 81.8748 25.107C81.0516 25.9711 80.5924 27.1189 80.5924 28.3123C80.5924 29.5058 81.0516 30.6535 81.8748 31.5176C82.6981 32.3817 83.8222 32.896 85.0143 32.9538C85.4767 32.9631 85.9356 32.8701 86.3579 32.6815C86.7803 32.493 87.1559 32.2135 87.4577 31.863H87.5341V32.5284C87.5341 34.3064 86.5851 35.2554 85.0579 35.2554C84.5478 35.2442 84.0524 35.0817 83.6349 34.7884C83.2173 34.4951 82.8963 34.0844 82.7126 33.6083L80.9455 34.3392C81.2722 35.1597 81.8402 35.8618 82.5745 36.3526C83.3088 36.8435 84.1748 37.0999 85.0579 37.088C87.4468 37.088 89.4212 35.6809 89.4212 32.2557V23.9981H87.5341V24.7617ZM85.1888 31.1758C84.4741 31.1312 83.8033 30.8159 83.3129 30.294C82.8226 29.7721 82.5496 29.083 82.5496 28.3669C82.5496 27.6508 82.8226 26.9616 83.3129 26.4397C83.8033 25.9179 84.4741 25.6025 85.1888 25.558C85.5381 25.5731 85.8808 25.6583 86.1966 25.8085C86.5123 25.9587 86.7946 26.1709 87.0266 26.4325C87.2587 26.694 87.4357 26.9996 87.5473 27.331C87.6588 27.6624 87.7025 28.0128 87.6759 28.3614C87.7056 28.7112 87.6641 29.0635 87.5539 29.3968C87.4436 29.7301 87.2669 30.0376 87.0344 30.3007C86.802 30.5637 86.5185 30.7769 86.2013 30.9274C85.8841 31.0778 85.5396 31.1623 85.1888 31.1758ZM111.794 19.0894H106.907V32.7247H108.947V27.5542H111.794C112.375 27.596 112.959 27.5175 113.509 27.3237C114.059 27.13 114.562 26.825 114.989 26.4279C115.416 26.0308 115.756 25.5501 115.989 25.0157C116.221 24.4813 116.341 23.9046 116.341 23.3218C116.341 22.7389 116.221 22.1623 115.989 21.6279C115.756 21.0935 115.416 20.6128 114.989 20.2157C114.562 19.8186 114.059 19.5136 113.509 19.3198C112.959 19.1261 112.375 19.0476 111.794 19.0894ZM111.794 25.6343H108.947V20.9874H111.838C112.144 20.9874 112.448 21.0478 112.731 21.1651C113.014 21.2824 113.272 21.4544 113.488 21.6711C113.705 21.8879 113.877 22.1452 113.994 22.4285C114.112 22.7117 114.172 23.0152 114.172 23.3218C114.172 23.6283 114.112 23.9319 113.994 24.2151C113.877 24.4983 113.705 24.7557 113.488 24.9724C113.272 25.1892 113.014 25.3612 112.731 25.4785C112.448 25.5958 112.144 25.6562 111.838 25.6562L111.794 25.6343ZM124.382 23.6818C123.639 23.636 122.899 23.8089 122.254 24.1792C121.608 24.5495 121.085 25.1009 120.75 25.7652L122.55 26.5179C122.732 26.19 123.004 25.9218 123.335 25.7456C123.666 25.5695 124.041 25.4929 124.415 25.5253C124.674 25.495 124.936 25.5166 125.187 25.5889C125.437 25.6611 125.671 25.7825 125.874 25.946C126.077 26.1095 126.246 26.3118 126.37 26.5411C126.494 26.7704 126.571 27.0221 126.597 27.2815V27.4124C125.941 27.0676 125.211 26.8879 124.47 26.8888C122.528 26.8888 120.543 27.9796 120.543 29.9649C120.562 30.3869 120.666 30.8007 120.848 31.1818C121.03 31.5629 121.287 31.9034 121.603 32.1833C121.92 32.4631 122.289 32.6764 122.69 32.8107C123.09 32.9449 123.514 32.9973 123.935 32.9647C124.447 32.993 124.957 32.8847 125.413 32.6508C125.87 32.417 126.255 32.066 126.531 31.6339H126.597V32.7247H128.56V27.4778C128.56 25.0889 126.749 23.7036 124.426 23.7036L124.382 23.6818ZM124.131 31.1539C123.466 31.1539 122.539 30.8158 122.539 29.9977C122.539 28.9068 123.695 28.5359 124.72 28.5359C125.368 28.52 126.009 28.6782 126.575 28.9941C126.506 29.5865 126.225 30.134 125.784 30.5351C125.343 30.9363 124.771 31.1639 124.175 31.1758L124.131 31.1539ZM135.716 23.9981L133.382 29.9104H133.316L130.894 23.9981H128.713L132.345 32.2666L130.273 36.859H132.4L137.985 23.9981H135.716ZM117.39 32.7247H119.419V19.0894H117.39V32.7247ZM62.3198 24.5147C63.0828 24.0023 63.9806 23.7276 64.8996 23.7255C65.5127 23.7137 66.1219 23.8254 66.6909 24.0539C67.2599 24.2825 67.7771 24.6232 68.2117 25.0557C68.6463 25.4883 68.9894 26.0039 69.2206 26.5718C69.4518 27.1397 69.5664 27.7484 69.5575 28.3615C69.5596 29.2805 69.2892 30.1796 68.7804 30.945C68.2716 31.7104 67.5472 32.3077 66.6989 32.6614C65.8507 33.0151 64.9165 33.1093 64.0147 32.9321C63.1129 32.7549 62.2838 32.3143 61.6324 31.6659C60.981 31.0176 60.5365 30.1906 60.3551 29.2896C60.1737 28.3886 60.2635 27.4541 60.6132 26.6042C60.9629 25.7542 61.5568 25.0271 62.3198 24.5147ZM63.4932 30.8036C63.9811 31.0879 64.5432 31.2189 65.1066 31.1795C65.4647 31.1712 65.8176 31.0913 66.1443 30.9444C66.4711 30.7976 66.7651 30.5868 67.0091 30.3245C67.2531 30.0622 67.4421 29.7537 67.565 29.4172C67.6879 29.0807 67.7421 28.723 67.7245 28.3652C67.7232 27.8005 67.552 27.2493 67.2331 26.7832C66.9143 26.3171 66.4627 25.9576 65.9369 25.7516C65.4111 25.5456 64.8355 25.5026 64.2849 25.628C63.7343 25.7535 63.2342 26.0417 62.8496 26.4552C62.465 26.8686 62.2136 27.3883 62.1283 27.9465C62.0429 28.5047 62.1274 29.0757 62.3708 29.5852C62.6142 30.0947 63.0053 30.5193 63.4932 30.8036ZM75.0636 23.7255C74.1445 23.7276 73.2467 24.0023 72.4837 24.5147C71.7207 25.0271 71.1268 25.7542 70.7771 26.6042C70.4274 27.4541 70.3376 28.3886 70.519 29.2896C70.7004 30.1906 71.1449 31.0176 71.7963 31.6659C72.4477 32.3143 73.2768 32.7549 74.1786 32.9321C75.0805 33.1093 76.0146 33.0151 76.8629 32.6614C77.7112 32.3077 78.4355 31.7104 78.9443 30.945C79.4531 30.1796 79.7236 29.2805 79.7214 28.3615C79.7303 27.7484 79.6157 27.1397 79.3845 26.5718C79.1533 26.0039 78.8102 25.4883 78.3756 25.0557C77.941 24.6232 77.4238 24.2825 76.8548 24.0539C76.2858 23.8254 75.6766 23.7137 75.0636 23.7255ZM75.2705 31.1795C74.7072 31.2189 74.145 31.0879 73.6571 30.8036C73.1692 30.5193 72.7781 30.0947 72.5347 29.5852C72.2913 29.0757 72.2068 28.5047 72.2922 27.9465C72.3776 27.3883 72.6289 26.8686 73.0135 26.4552C73.3982 26.0417 73.8983 25.7535 74.4488 25.628C74.9994 25.5026 75.575 25.5456 76.1008 25.7516C76.6266 25.9576 77.0783 26.3171 77.3971 26.7832C77.7159 27.2493 77.8871 27.8005 77.8885 28.3652C77.906 28.723 77.8518 29.0807 77.7289 29.4172C77.606 29.7537 77.417 30.0622 77.173 30.3245C76.9291 30.5868 76.635 30.7976 76.3083 30.9444C75.9815 31.0913 75.6286 31.1712 75.2705 31.1795Z" fill="#575762"/>
<path d="M12.1619 8.22504C11.8025 8.65005 11.619 9.19638 11.6492 9.7522V33.8813C11.6121 34.438 11.7964 34.9869 12.1619 35.4085L12.2383 35.4957L25.7536 21.9804V21.6531L12.2383 8.14868L12.1619 8.22504Z" fill="url(#paint0_linear)"/>
<path d="M30.2253 26.4851L25.7529 21.98V21.6527L30.2253 17.1476L30.3235 17.213L35.6795 20.2455C37.2066 21.1073 37.2066 22.5254 35.6795 23.398L30.3453 26.4305L30.2253 26.4851Z" fill="url(#paint1_linear)"/>
<path d="M30.3581 26.4195L25.7548 21.8162L12.1631 35.4079C12.4713 35.6822 12.8659 35.8401 13.2783 35.854C13.6907 35.868 14.095 35.7372 14.4211 35.4842L30.3581 26.4195Z" fill="url(#paint2_linear)"/>
<path d="M30.3581 17.2129L14.4211 8.159C14.0972 7.90257 13.6932 7.76855 13.2802 7.78052C12.8672 7.79249 12.4716 7.94968 12.1631 8.22446L25.7548 21.8162L30.3581 17.2129Z" fill="url(#paint3_linear)"/>
</g>
<defs>
<linearGradient id="paint0_linear" x1="24.5537" y1="9.50131" x2="6.24962" y2="27.8054" gradientUnits="userSpaceOnUse">
<stop stop-color="#00A0FF"/>
<stop offset="0.01" stop-color="#00A1FF"/>
<stop offset="0.26" stop-color="#00BEFF"/>
<stop offset="0.51" stop-color="#00D2FF"/>
<stop offset="0.76" stop-color="#00DFFF"/>
<stop offset="1" stop-color="#00E3FF"/>
</linearGradient>
<linearGradient id="paint1_linear" x1="37.6757" y1="21.8163" x2="11.2886" y2="21.8163" gradientUnits="userSpaceOnUse">
<stop stop-color="#FFE000"/>
<stop offset="0.41" stop-color="#FFBD00"/>
<stop offset="0.78" stop-color="#FFA500"/>
<stop offset="1" stop-color="#FF9C00"/>
</linearGradient>
<linearGradient id="paint2_linear" x1="27.8601" y1="24.3251" x2="3.03285" y2="49.1414" gradientUnits="userSpaceOnUse">
<stop stop-color="#FF3A44"/>
<stop offset="1" stop-color="#C31162"/>
</linearGradient>
<linearGradient id="paint3_linear" x1="8.73789" y1="0.195965" x2="19.8207" y2="11.2788" gradientUnits="userSpaceOnUse">
<stop stop-color="#32A071"/>
<stop offset="0.07" stop-color="#2DA771"/>
<stop offset="0.48" stop-color="#15CF74"/>
<stop offset="0.8" stop-color="#06E775"/>
<stop offset="1" stop-color="#00F076"/>
</linearGradient>
<clipPath id="clip0">
<rect width="147.262" height="43.6331" fill="white" transform="translate(0.738281)"/>
</clipPath>
</defs>
</svg>
