<svg width="50" height="50" fill="none" xmlns="http://www.w3.org/2000/svg"><rect width="50" height="50" rx="25" fill="#E30674"/><path d="M37.922 19.64c-.063-1.384-.283-2.329-.605-3.155a6.373 6.373 0 00-1.499-2.303 6.374 6.374 0 00-2.303-1.5c-.827-.321-1.771-.54-3.155-.603C28.973 12.015 28.53 12 25 12c-3.53 0-3.973.015-5.36.078-1.384.063-2.328.283-3.155.605a6.373 6.373 0 00-2.303 1.499 6.374 6.374 0 00-1.5 2.302c-.321.827-.54 1.772-.603 3.156C12.015 21.027 12 21.47 12 25c0 3.53.015 3.973.079 5.36.063 1.383.282 2.328.604 3.155a6.372 6.372 0 001.5 2.303 6.37 6.37 0 002.302 1.5c.827.32 1.772.54 3.155.604 1.387.063 1.83.078 5.36.078 3.53 0 3.974-.015 5.36-.078 1.384-.064 2.329-.283 3.156-.605a6.646 6.646 0 003.801-3.802c.322-.827.542-1.772.605-3.155.063-1.387.078-1.83.078-5.36 0-3.53-.015-3.973-.078-5.36zm-2.34 10.613c-.058 1.268-.27 1.956-.448 2.414a4.305 4.305 0 01-2.467 2.467c-.458.178-1.146.39-2.414.448-1.37.063-1.782.076-5.253.076-3.472 0-3.883-.013-5.253-.076-1.268-.058-1.956-.27-2.414-.448a4.028 4.028 0 01-1.495-.972 4.026 4.026 0 01-.972-1.495c-.178-.458-.39-1.146-.448-2.414-.062-1.37-.076-1.782-.076-5.253s.014-3.882.076-5.253c.058-1.268.27-1.956.448-2.414a4.03 4.03 0 01.972-1.495c.42-.432.93-.764 1.495-.972.458-.178 1.146-.39 2.414-.448 1.37-.062 1.782-.076 5.253-.076s3.882.014 5.253.076c1.268.058 1.956.27 2.414.448a4.03 4.03 0 011.495.972c.431.42.764.93.972 1.495.178.458.39 1.146.448 2.414.062 1.37.075 1.782.075 5.253s-.013 3.882-.075 5.253z" fill="#fff"/><path d="M25 18.324a6.676 6.676 0 100 13.352 6.676 6.676 0 000-13.352zm0 11.01a4.333 4.333 0 110-8.667 4.333 4.333 0 010 8.666zM33.5 18.06a1.56 1.56 0 11-3.12 0 1.56 1.56 0 013.12 0z" fill="#fff"/></svg>