<?xml version="1.0" encoding="UTF-8"?>
<svg width="512px" height="512px" viewBox="0 0 512 512" version="1.1" xmlns="http://www.w3.org/2000/svg" xmlns:xlink="http://www.w3.org/1999/xlink">
    <!-- Generator: Sketch 46.2 (44496) - http://www.bohemiancoding.com/sketch -->
    <title>loader</title>
    <desc>Created with Sketch.</desc>
    <defs></defs>
    <g id="Page-1" stroke="none" stroke-width="1" fill="none" fill-rule="evenodd">
        <g id="loader" fill-rule="nonzero" fill="#FFFFFF">
            <path d="M305.081,4.767 L282.482,90.306 C265.171,87.596 247.534,87.596 230.223,90.306 L207.272,4.767 C239.687,-1.589 273.02,-1.589 305.435,4.767 C305.434,4.767 305.081,4.767 305.081,4.767 Z" id="Shape"></path>
            <path d="M195.796,99.487 C179.412,105.843 164.158,114.785 150.599,125.97 L88.276,62.941 C113.117,41.207 141.965,24.532 173.197,13.86 L195.796,99.487 Z" id="Shape"></path>
            <path d="M125.617,150.599 C114.432,164.158 105.49,179.412 99.134,195.796 L13.506,172.844 C24.329,141.709 41.119,112.984 62.94,88.276 L125.617,150.599 Z" id="Shape"></path>
            <path d="M88.276,256 C88.258,264.863 88.938,273.726 90.306,282.483 L4.767,305.435 C-1.589,273.02 -1.589,239.687 4.767,207.272 L90.306,229.518 C88.938,238.283 88.258,247.137 88.276,256 Z" id="Shape"></path>
            <path d="M125.617,361.402 L62.941,423.725 C41.207,398.884 24.532,370.036 13.86,338.804 L99.488,315.852 C105.702,332.332 114.529,347.719 125.617,361.402 Z" id="Shape"></path>
            <path d="M195.796,412.513 L172.844,498.141 C141.736,487.424 113.011,470.749 88.276,449.06 L150.952,386.384 C164.423,397.409 179.562,406.228 195.796,412.513 Z" id="Shape"></path>
            <path d="M305.081,507.233 C272.666,513.589 239.333,513.589 206.918,507.233 L229.517,421.694 C246.828,424.404 264.465,424.404 281.776,421.694 L305.081,507.233 Z" id="Shape"></path>
            <path d="M423.724,449.06 C398.883,470.794 370.035,487.469 338.803,498.141 L315.851,412.513 C332.235,406.157 347.489,397.215 361.048,386.03 L423.724,449.06 Z" id="Shape"></path>
            <path d="M498.141,339.156 C487.424,370.264 470.749,398.989 449.06,423.724 L386.384,361.048 C397.569,347.489 406.511,332.235 412.867,315.851 L498.141,339.156 Z" id="Shape"></path>
            <path d="M512,256 C512.035,272.481 510.438,288.918 507.233,305.081 L421.694,282.482 C424.404,265.171 424.404,247.534 421.694,230.223 L507.233,207.271 C510.411,223.321 512.009,239.643 512,256 Z" id="Shape"></path>
            <path d="M498.141,172.844 L412.513,195.796 C406.157,179.412 397.215,164.158 386.03,150.599 L448.706,87.923 C470.563,112.737 487.362,141.586 498.141,172.844 Z" id="Shape"></path>
            <path d="M423.724,62.941 L361.048,125.617 C347.489,114.432 332.235,105.49 315.851,99.134 L338.803,13.506 C370.061,24.294 398.91,41.084 423.724,62.941 Z" id="Shape"></path>
        </g>
    </g>
</svg>