<svg width="278" height="100" viewBox="0 0 278 100" fill="none" xmlns="http://www.w3.org/2000/svg">
<rect width="277.171" height="100" fill="#FF342B"/>
<path fill-rule="evenodd" clip-rule="evenodd" d="M62.4192 49.8891H56.4193V31.8418H62.4192V49.8891ZM74.4195 61.9119H68.4191V37.8596H74.4195V61.9119ZM140.423 49.8911H146.424V37.8596H140.423V49.8911ZM122.425 61.9338H116.425V37.8702H122.425V61.9338ZM128.425 67.9508H134.425V43.8877H128.425V67.9508ZM50.4198 61.916H44.4194V49.8844H50.4198V61.916Z" fill="white" fill-opacity="0.5"/>
<path fill-rule="evenodd" clip-rule="evenodd" d="M104.424 73.9372H110.424V43.8579H104.424V73.9372Z" fill="white"/>
<path fill-rule="evenodd" clip-rule="evenodd" d="M80.4224 37.8474H86.4223V25.8154H80.4224V37.8474Z" fill="white"/>
<path fill-rule="evenodd" clip-rule="evenodd" d="M80.4224 73.9372H86.4223V43.8579H80.4224V73.9372Z" fill="white"/>
<path fill-rule="evenodd" clip-rule="evenodd" d="M92.4224 73.9425H98.4223V25.8154H92.4224V73.9425Z" fill="white"/>
<path fill-rule="evenodd" clip-rule="evenodd" d="M104.424 37.8474H110.424V25.8154H104.424V37.8474Z" fill="white"/>
<mask id="mask0" mask-type="alpha" maskUnits="userSpaceOnUse" x="158" y="43" width="67" height="32">
<path fill-rule="evenodd" clip-rule="evenodd" d="M158.426 74.1981H224.463V59.028V43.8579H158.426V74.1981Z" fill="white"/>
</mask>
<g mask="url(#mask0)">
<path fill-rule="evenodd" clip-rule="evenodd" d="M218.814 72.9035V61.8961H217.637V73.9277H224.46V72.9035H218.814ZM211.879 66.2959C212.298 67.3265 212.73 68.4376 213.174 69.6301H208.05C208.491 68.4389 208.917 67.3291 209.328 66.3006C209.74 65.2717 210.163 64.2576 210.598 63.2581C211.032 64.2528 211.459 65.2657 211.879 66.2959ZM216.029 73.9277C215.547 72.6772 215.105 71.5098 214.703 70.4263C214.302 69.3425 213.905 68.3192 213.514 67.3548C213.124 66.3896 212.738 65.462 212.358 64.5698C211.977 63.6786 211.576 62.7874 211.153 61.8961H210.114C209.69 62.7913 209.287 63.6834 208.903 64.5737C208.518 65.4637 208.131 66.3909 207.742 67.3565C207.351 68.3214 206.954 69.3446 206.549 70.4263C206.143 71.508 205.713 72.6754 205.257 73.9277H206.487C206.701 73.3403 206.904 72.7728 207.095 72.2274C207.287 71.682 207.483 71.1488 207.683 70.6293H213.546C213.722 71.1457 213.906 71.6773 214.098 72.2235C214.291 72.7685 214.501 73.3368 214.73 73.9277H216.029ZM196.213 61.8961V62.9207H200.058V73.9277H201.235V62.9207H205.08V61.8961H196.213ZM192.422 73.9277H193.599V61.8961H192.422V73.9277ZM185.969 62.9467C186.42 63.0276 186.821 63.1696 187.173 63.3718C187.525 63.5748 187.808 63.8496 188.021 64.1968C188.235 64.5439 188.342 64.9841 188.342 65.5161C188.342 66.0719 188.244 66.529 188.047 66.8878C187.851 67.2467 187.571 67.5276 187.207 67.7297C186.844 67.9323 186.405 68.0708 185.891 68.1466C185.378 68.2219 184.803 68.2591 184.168 68.2591H182.678V62.9467C182.898 62.9238 183.161 62.8974 183.467 62.8688C183.773 62.8394 184.145 62.8251 184.584 62.8251C185.057 62.8251 185.519 62.8658 185.969 62.9467ZM182.963 61.8796C182.403 61.9315 181.915 62.015 181.5 62.131V73.9366H182.677V69.2839H184.305C185.125 69.2839 185.861 69.2177 186.513 69.0844C187.166 68.9515 187.717 68.7368 188.168 68.442C188.618 68.1468 188.964 67.7594 189.207 67.2785C189.449 66.7985 189.57 66.2167 189.57 65.5337C189.57 64.3416 189.155 63.4214 188.324 62.7734C187.492 62.125 186.227 61.8012 184.531 61.8012C184.046 61.8012 183.523 61.8272 182.963 61.8796ZM175.247 66.2959C175.667 67.3265 176.099 68.4376 176.542 69.6301H171.419C171.859 68.4389 172.286 67.3291 172.697 66.3006C173.109 65.2717 173.532 64.2576 173.966 63.2581C174.401 64.2528 174.827 65.2657 175.247 66.2959ZM179.393 73.9277C178.911 72.6772 178.469 71.5098 178.067 70.4263C177.666 69.3425 177.269 68.3192 176.878 67.3548C176.488 66.3896 176.102 65.462 175.722 64.5698C175.342 63.6786 174.94 62.7874 174.517 61.8961H173.478C173.055 62.7913 172.651 63.6834 172.267 64.5737C171.883 65.4637 171.495 66.3909 171.106 67.3565C170.716 68.3214 170.318 69.3446 169.913 70.4263C169.508 71.508 169.077 72.6754 168.621 73.9277H169.851C170.065 73.3403 170.268 72.7728 170.46 72.2274C170.651 71.682 170.847 71.1488 171.047 70.6293H176.91C177.086 71.1457 177.269 71.6773 177.462 72.2235C177.655 72.7685 177.865 73.3368 178.094 73.9277H179.393ZM165.243 74.1172C165.636 74.0652 165.983 73.9986 166.283 73.9176C166.583 73.8367 166.831 73.7584 167.027 73.6826C167.224 73.6073 167.362 73.5415 167.443 73.4831L167.114 72.4762C166.849 72.6269 166.458 72.7749 165.945 72.9195C165.431 73.0636 164.793 73.1359 164.031 73.1359C163.339 73.1359 162.724 73.0143 162.187 72.7719C161.65 72.5286 161.197 72.1806 160.827 71.7291C160.458 71.2781 160.177 70.7318 159.987 70.0886C159.797 69.4467 159.702 68.726 159.702 67.9274C159.702 67.1522 159.797 66.4457 159.987 65.8095C160.177 65.1732 160.464 64.623 160.844 64.1603C161.225 63.6971 161.696 63.3383 162.256 63.0838C162.816 62.8288 163.471 62.7016 164.222 62.7016C164.88 62.7016 165.431 62.7856 165.876 62.9535C166.32 63.1214 166.687 63.292 166.976 63.466L167.356 62.441C167.252 62.3717 167.102 62.2938 166.906 62.2064C166.71 62.1198 166.473 62.0333 166.196 61.9467C165.919 61.8597 165.596 61.7874 165.226 61.729C164.857 61.6714 164.447 61.6428 163.997 61.6428C163.269 61.6428 162.571 61.7787 161.901 62.0506C161.231 62.3228 160.643 62.725 160.135 63.2574C159.626 63.7898 159.22 64.4464 158.914 65.2277C158.607 66.0094 158.454 66.9033 158.454 67.9101C158.454 68.9173 158.596 69.8116 158.879 70.5929C159.162 71.3738 159.549 72.0308 160.039 72.5628C160.53 73.0957 161.107 73.5004 161.771 73.7787C162.435 74.0557 163.154 74.1955 163.927 74.1955C164.412 74.1955 164.851 74.1687 165.243 74.1172ZM172.862 55.8851H174.543V43.8535H172.862V55.8851ZM161.875 43.8535V45.3122H165.65V55.8855H167.33V45.3122H171.106V43.8535H161.875ZM158.424 55.8857H160.104V43.8541H158.424V55.8857Z" fill="white"/>
</g>
</svg>
