<svg width="40" height="40" viewBox="0 0 40 40" fill="none" xmlns="http://www.w3.org/2000/svg">
<rect width="40" height="40" rx="20" fill="#FC2C38"/>
<path d="M24.2821 20.0461C24.2821 22.3798 22.3887 24.2732 20.055 24.2732C17.7213 24.2732 15.828 22.3798 15.828 20.0461C15.828 17.7124 17.7213 15.819 20.055 15.819C22.3887 15.819 24.2821 17.7212 24.2821 20.0461ZM20.055 5.99988C12.3054 5.99988 6 12.3053 6 20.0549C6 27.8046 12.3054 34.1011 20.055 34.1011C22.8907 34.1011 25.6295 33.2557 27.972 31.653L28.016 31.6265L26.1227 29.4249L26.0874 29.4426C24.2821 30.5962 22.2038 31.2126 20.055 31.2126C13.8994 31.2126 8.8885 26.2018 8.8885 20.0461C8.8885 13.8904 13.8994 8.87958 20.055 8.87958C26.2107 8.87958 31.2216 13.8904 31.2216 20.0461C31.2216 20.8475 31.1335 21.6489 30.9574 22.4503C30.6051 23.9033 29.5924 24.3436 28.8262 24.282C28.0601 24.2204 27.1618 23.6744 27.153 22.3358V20.0461C27.153 16.1273 23.9651 12.9393 20.0462 12.9393C16.1274 12.9393 12.9395 16.1273 12.9395 20.0461C12.9395 23.965 16.1274 27.1529 20.0462 27.1529C21.9484 27.1529 23.7361 26.4043 25.0835 25.057C25.8673 26.2722 27.1442 27.0384 28.5973 27.1529C28.7205 27.1617 28.8526 27.1705 28.9759 27.1705C29.9975 27.1705 31.0102 26.827 31.8292 26.2106C32.6746 25.5677 33.2999 24.6431 33.6433 23.5334C33.6962 23.3573 33.8018 22.9434 33.8018 22.9434V22.9258C34.0044 22.0364 34.1013 21.1469 34.1013 20.0461C34.1101 12.3053 27.8047 5.99988 20.055 5.99988Z" fill="white"/>
</svg>
