<svg width="133" height="59" viewBox="0 0 133 59" fill="none" xmlns="http://www.w3.org/2000/svg">
<g clip-path="url(#clip0)">
<rect width="133" height="58.7208" fill="#88B3A6"/>
<g clip-path="url(#clip1)">
<rect width="133" height="58.6624" fill="#9FCDC0"/>
<path d="M133 0H0V58.6624H133V0Z" fill="#F1F6F9"/>
<path d="M106.084 58.6624H53.3464L53.1211 0H105.858L106.084 58.6624Z" fill="#DDECEF"/>
<path d="M53.3466 58.6624H26.7468L26.5215 0H53.1213L53.3466 58.6624Z" fill="#B8DED3"/>
<path d="M17.6366 7.30322H8.80469V16.1351H17.6366V7.30322Z" fill="#92BBB3"/>
<path d="M16.7474 15.2462C18.6952 13.2984 18.6952 10.1404 16.7474 8.19256C14.7996 6.24476 11.6416 6.24476 9.69379 8.19256C7.746 10.1404 7.746 13.2984 9.6938 15.2462C11.6416 17.194 14.7996 17.194 16.7474 15.2462Z" fill="#92BBB3"/>
<path d="M81.7622 24.2447H83.8203C83.8203 24.2447 85.2849 21.8701 87.9371 24.2447H89.1641V17.4365L88.2932 17.0145C88.2932 17.0145 92.5682 14.053 92.4497 11.4999C92.4497 11.4999 92.9244 13.499 94.3484 14.3302L94.388 17.0019C94.388 17.0019 96.169 16.4082 96.169 18.5061V24.997L99.3369 26.5818L99.6141 32.7965L102.782 33.6956V38.8216L77.0576 39.2604L77.6061 23.8886L81.7622 24.2447Z" fill="#F1F6F9"/>
<path d="M69.5706 38.7718L87.5027 38.376V37.5052C87.5027 37.5052 92.1735 35.8031 95.5379 37.8613L101.199 37.9009L102.783 38.7718V44.2443L68.6719 44.3928V38.6912L69.5706 38.7718Z" fill="#C3DED9"/>
<path d="M68.3535 42.7248L96.7744 42.5269L97.4073 40.7455C97.4073 40.7455 100.851 39.3206 103.146 41.3396C103.114 41.5252 102.789 42.548 102.789 42.548L104.092 43.0172L105.362 40.2573C105.362 40.2573 110.211 40.4797 106.946 43.0172C106.471 43.4771 104.353 45.5353 104.372 49.6322C104.194 49.731 100.908 51.7102 97.6212 48.9571C97.9588 48.6799 99.1056 47.5913 99.1056 47.5913L97.1461 47.4133L96.3546 50.1444L68.3535 50.2854V42.7248Z" fill="#92BBB3"/>
<path d="M69.3962 44.8598C68.5465 44.1564 69.2498 43.4826 69.5135 43.2775C72.678 41.2476 70.7764 39.8561 69.581 39.1932C69.3121 39.0442 69.0952 38.8166 68.9591 38.5409C68.3338 37.2654 68.4292 36.0701 68.4292 36.0701L68.3709 28.5112C68.3709 28.5112 73.0291 26.8998 73.0291 22.562C73.0291 17.3271 68.4975 16.0575 68.4975 16.0575L68.4916 11.985H65.4997C65.4997 11.985 64.9136 5.32227 58.5269 5.32227C52.1401 5.32227 51.6118 11.985 51.6118 11.985H48.6136V16.0575C48.6136 16.0575 44.082 17.3271 44.082 22.562C44.082 26.8982 48.7406 28.5112 48.7406 28.5112L48.6819 36.0701C48.6819 36.0701 48.7777 37.2654 48.1524 38.5409C48.0163 38.8166 47.7994 39.0442 47.5305 39.1932C46.3351 39.8561 44.4343 41.2476 47.598 43.2775C47.8617 43.4826 48.5651 44.1564 47.7153 44.8598C46.8655 45.5631 43.1162 47.7897 45.5765 49.577C45.8238 49.8238 47.1258 50.3284 47.1436 53.2609C47.1474 53.8482 47.3836 54.4208 47.8271 54.8056C48.606 55.4806 50.1578 56.041 53.1063 54.5575C54.9518 53.4149 57.7501 55.4958 58.5556 55.4958C59.361 55.4958 62.1593 53.4166 64.0069 54.5558C66.9554 56.0393 68.5072 55.4806 69.2861 54.8039C69.7291 54.4191 69.9658 53.8465 69.9692 53.2592C69.9874 50.3268 71.2894 49.8221 71.5367 49.5753C73.9961 47.7897 70.246 45.5627 69.3962 44.8598Z" fill="#F1F6F9"/>
<path d="M66.9334 45.1392C66.2769 44.5957 66.8204 44.0751 67.0241 43.9156C69.4713 42.3464 68.0001 41.2713 67.076 40.7591C66.8684 40.6438 66.7009 40.4679 66.5959 40.2549C66.3525 39.7521 66.2132 39.2053 66.1862 38.6473C66.1731 38.3731 66.0967 38.0988 65.9305 37.8815C64.6647 36.2208 63.3394 38.7073 58.5551 38.7073C53.7709 38.7073 52.446 36.2225 51.1802 37.8828C51.014 38.1014 50.9376 38.3744 50.9245 38.6486C50.8973 39.2065 50.758 39.7533 50.5148 40.2562C50.4097 40.4686 50.2424 40.6439 50.0351 40.7587C49.1115 41.2709 47.6423 42.3464 50.0874 43.9152C50.2912 44.0738 50.8346 44.5945 50.1781 45.1388C49.5216 45.6831 46.6229 47.4028 48.525 48.7842C48.7161 48.9754 49.7228 49.3652 49.7363 51.6327C49.7348 51.8575 49.781 52.08 49.8719 52.2856C49.9629 52.4911 50.0964 52.675 50.2638 52.8251C50.8659 53.3483 52.065 53.7808 54.3447 52.6339C55.7712 51.7504 57.9336 53.3588 58.5564 53.3588C59.1804 53.3588 61.3412 51.7513 62.7669 52.6339C65.0453 53.7808 66.2457 53.3487 66.8478 52.8251C67.0151 52.675 67.1486 52.4911 67.2395 52.2855C67.3304 52.08 67.3767 51.8575 67.3752 51.6327C67.3887 49.3657 68.3954 48.9745 68.5866 48.7847C70.4886 47.4037 67.5904 45.6826 66.9334 45.1392Z" fill="#DDECEF"/>
<path d="M83.4549 31.4786V27.5897C83.4549 27.5897 83.4849 26.9366 82.9486 26.1053V23.7894C82.9486 23.7894 82.9089 23.3046 82.5233 23.3046L80.4558 13.7267V11.677C81.1672 11.5082 80.1132 10.901 80.1145 10.7226L79.9364 9.64453L79.7579 10.7226C79.7579 10.901 78.7031 11.5082 79.417 11.677V13.7255L77.3496 23.3033C76.9635 23.3033 76.9238 23.7881 76.9238 23.7881L76.8943 26.6678C76.3597 27.4994 76.4192 27.5884 76.4192 27.5884V31.4774L73.8809 39.8949H76.1521L77.0567 39.262L79.9373 39.2089L81.0107 39.2287L81.9389 39.6443L85.7587 39.5456L83.4549 31.4786Z" fill="#C3DED9"/>
<path d="M83.4546 31.4786V27.5897C83.4546 27.5897 83.4846 26.9366 82.9483 26.1053V23.7894C82.9483 23.7894 82.9086 23.3046 82.523 23.3046L80.4555 13.7267V11.677C81.1669 11.5082 80.1129 10.901 80.1142 10.7226L79.9361 9.64453L79.9783 13.5474L80.6395 23.4927L80.6315 25.7488L80.7867 25.8754L82.8306 26.2011C82.5103 26.5387 82.4508 27.5412 82.469 28.5023C82.0833 26.6956 80.8323 26.2176 79.6252 26.2239H79.6117C79.5779 26.2239 79.5442 26.2239 79.5104 26.2239C79.4387 26.2239 79.3686 26.2277 79.3024 26.2319C79.3024 26.2319 77.2391 26.3062 77.232 28.0724L77.1294 31.8495L76.7417 32.2778L76.2168 39.8506L77.0564 39.2599L78.4066 39.235L78.4214 28.9546L79.0893 29.8901L79.1041 39.2224L79.9357 39.2067L80.8707 39.224V28.1534L80.3222 27.4855L81.48 27.5007L81.5471 31.2635L82.2221 30.0399L84.1516 39.5865L85.76 39.5443L83.4546 31.4786Z" fill="#92BBB3"/>
<path d="M80.1142 23.6561C80.1142 23.6561 79.513 22.7059 78.6484 23.6561V25.3632L80.1142 25.378V23.6561Z" fill="#92BBB3"/>
<path d="M59.1305 12.6899C59.1305 12.6899 61.0503 12.8085 59.922 11.1263C59.922 10.8887 59.6646 10.0773 59.8824 9.12714C59.9714 9.07778 60.595 7.89046 58.4773 7.26685C58.3507 7.26685 55.7559 7.26685 55.9833 8.8204C55.8846 8.87989 55.0732 9.76088 56.1318 10.7701C56.1318 10.9284 56.3006 13.1203 54.9504 13.6545C53.6002 14.1886 53.1382 15.2738 52.9901 17.2021C52.842 19.1303 51.7581 42.6741 51.7581 42.6741C51.7581 42.6741 51.669 43.8319 54.0141 44.2179C53.5808 44.2479 51.3138 44.5555 51.3138 44.5555V45.763L49.6514 45.8618V48.3356L49.7007 49.4009L66.4447 48.7085L67.0928 47.9153L67.0333 46.52L65.2274 46.02L65.2076 44.7732L61.8232 44.12L61.992 42.042L62.8924 42.1112L62.5165 36.6586C62.5165 36.6586 63.3279 36.3025 63.3873 35.4911C63.3279 35.016 62.2097 22.3395 64.5548 21.1817C64.832 21.2214 65.5839 21.2016 65.5839 21.2016L64.0797 18.9847L64.1097 17.0552L62.8017 14.7097L61.3768 17.0848C61.3768 17.0848 60.3672 15.0068 59.3874 14.4131C59.3284 13.9958 59.1305 12.6899 59.1305 12.6899Z" fill="#C3DED9"/>
<path d="M55.951 12.4471C56.0865 13.4542 59.3687 14.2778 59.3687 14.2778C59.2944 13.7715 59.1311 12.6901 59.1311 12.6901C59.258 12.6945 59.3851 12.6879 59.5108 12.6703C57.7117 11.5256 57.9737 7.42187 57.9737 7.42187C57.9737 7.42187 57.9948 7.38896 57.9556 7.29529C57.1742 7.37546 55.8177 7.67503 55.9848 8.81931C55.886 8.8788 55.0747 9.75979 56.1333 10.7691C56.1333 10.8636 56.1911 11.683 55.9514 12.442C55.9506 12.4445 55.951 12.4471 55.951 12.4471Z" fill="#92BBB3"/>
<path d="M51.4864 49.326L52.2914 49.2927L62.6709 46.7826V45.5801L60.5613 45.6299V44.1953H61.4748C59.7925 43.8578 59.9309 42.216 59.9309 42.216L61.3359 42.335V25.1434L62.2414 25.2805L61.9693 39.0195L63.1469 25.9434C63.184 25.3641 63.2355 24.808 63.3055 24.2915V24.2704C57.5959 23.4941 55.4209 15.3031 55.1344 14.115C61.098 14.4196 59.3043 20.2726 59.3043 20.2726L59.7904 20.8211C61.3516 13.8745 55.2964 13.8074 55.2964 13.8074L54.95 14.058L54.9276 14.0745L54.8893 14.1019H54.893C54.1294 14.6926 53.5361 16.2491 53.5361 16.2491C53.4243 15.1306 54.2353 14.1065 54.3315 13.9892C53.4543 14.596 53.1079 15.6065 52.9872 17.2022C52.8517 18.9587 51.9425 38.6148 51.78 42.1342C51.7919 42.4717 51.8003 42.7198 51.8045 42.8493L51.7788 42.865C51.8657 43.2101 52.2585 43.9295 54.0112 44.2181C53.5779 44.248 51.3108 44.5556 51.3108 44.5556V45.7632L49.6484 45.8619V48.3357L49.6725 48.8534L51.4864 49.326ZM58.4482 44.1734L58.117 44.1776C58.0862 43.9143 58.0149 43.8147 57.3576 43.6405C56.6825 43.4624 56.3871 42.2156 56.3871 42.2156H56.763C56.9014 42.9877 57.5149 43.3637 57.6537 43.5236C58.4833 43.5038 58.4605 44.0696 58.4495 44.1734H58.4482ZM59.8524 24.9194L60.8849 41.7312C60.7469 41.6489 60.6174 41.5625 60.5634 41.4987C60.4722 41.3916 59.9208 41.4367 59.5132 41.5076L59.2276 24.8249L59.8524 24.9194ZM57.2681 33.1707L57.6837 24.5911L59.0558 24.7987L57.6537 41.6025L57.6694 41.6097C57.293 41.5038 56.8643 41.4831 56.439 41.5127L56.3491 31.0644L57.2681 33.1707ZM53.3142 42.6396H53.3176C53.3176 42.6396 53.6167 35.5166 53.5285 34.9229C53.1125 33.3791 54.3302 24.2354 54.3302 24.2354C54.3302 24.2354 54.3897 23.9088 54.6568 25.3932C54.9239 26.8775 54.7163 30.2619 54.5677 31.6277C53.796 34.982 54.2766 42.1662 54.2766 42.1662L54.2905 42.6118C54.0488 42.5848 53.6889 42.6038 53.3154 42.6396H53.3142Z" fill="#92BBB3"/>
<path d="M62.6729 44.2834V45.58L65.226 46.0189L65.2061 44.772L62.6729 44.2834Z" fill="#92BBB3"/>
<path d="M62.5345 22.7903L63.5218 23.0856L63.5265 23.0776C63.7547 22.1122 64.0838 21.4131 64.5535 21.1814C64.7446 21.2089 65.1577 21.2076 65.3973 21.2042L64.4244 19.8418L61.04 20.0498C61.9607 20.1975 62.5345 22.7903 62.5345 22.7903Z" fill="#92BBB3"/>
<path d="M61.3369 17.496H63.5272L64.0816 18.7673L64.1044 17.2939L61.3369 17.288V17.496Z" fill="#92BBB3"/>
<path d="M51.9372 50.6563C51.6672 50.7056 50.8191 50.8482 49.9993 50.8482C49.8058 50.8489 49.6124 50.8393 49.42 50.8196L49.3651 50.8132L47.4609 47.9736L47.8137 48.1108C47.8192 48.1108 48.358 48.3217 49.1727 48.3217C50.1482 48.3217 51.0883 48.0399 51.9672 47.485L52.0794 47.4141L52.6958 48.6774C53.4346 48.3546 57.8995 46.4922 62.4425 46.4922C63.456 46.4858 64.4673 46.5895 65.4584 46.8015L65.5821 46.8289L65.547 46.9504C65.5015 47.1087 65.3935 47.5268 65.3753 47.7804C65.8397 47.8438 66.3078 47.8759 66.7765 47.8766C67.2988 47.8824 67.8201 47.8306 68.3309 47.7222L68.5212 47.68L68.4719 47.869C68.2314 48.7972 68.0077 49.8457 68.0537 49.9968L68.0866 50.1082L67.9778 50.1504C67.2611 50.3621 66.5184 50.4728 65.7711 50.4791C65.0804 50.4791 64.4757 50.3668 63.9745 50.1457L63.8863 50.1069L64.0437 49.3765C63.5416 49.3067 63.035 49.2741 62.5281 49.2791C60.4497 49.2791 57.0502 49.7111 52.6549 51.7685L52.5532 51.8166L51.9372 50.6563Z" fill="#F1F6F9"/>
<path d="M62.4434 46.6095C63.4485 46.6029 64.4513 46.7057 65.4341 46.9163C65.4341 46.9163 65.2412 47.5842 65.256 47.8808C65.7597 47.9568 66.2685 47.9946 66.7779 47.9939C67.3089 47.9993 67.8389 47.9465 68.3585 47.8365C68.3585 47.8365 67.8521 49.7808 67.9429 50.0335C67.2377 50.2406 66.5073 50.3494 65.7724 50.3567C65.1919 50.3567 64.5733 50.2757 64.024 50.0335L64.1873 49.274C64.1873 49.274 63.6041 49.155 62.5303 49.155C60.6139 49.155 57.1347 49.5348 52.6078 51.6567L52.001 50.5217C52.001 50.5217 50.9702 50.728 49.9994 50.728C49.8103 50.729 49.6213 50.7197 49.4331 50.7002L47.7707 48.2213C47.7707 48.2213 48.3226 48.4378 49.1728 48.4378C49.9433 48.4378 50.9584 48.2601 52.0306 47.5829L52.6394 48.8297C52.6394 48.8297 57.4629 46.6083 62.4438 46.6083L62.4434 46.6095ZM62.4438 46.3707C58.0557 46.3707 53.7461 48.0964 52.7529 48.5226L52.2441 47.4804L52.128 47.242L51.904 47.3838C51.0441 47.9268 50.1255 48.2019 49.1728 48.2019C48.3838 48.2019 47.8619 48.0036 47.8568 48.0015L47.1543 47.7293L47.5733 48.3551L49.2357 50.8339L49.2973 50.9259L49.407 50.9377C49.6032 50.9583 49.8004 50.9682 49.9977 50.9672C50.7534 50.9672 51.5327 50.8478 51.8719 50.7888L52.3968 51.7706L52.5031 51.9693L52.7069 51.8736C57.0811 49.8242 60.4624 49.3943 62.5286 49.3943C62.9872 49.3913 63.4455 49.4175 63.9008 49.4728L63.7906 49.9837L63.7484 50.1727L63.9257 50.2508C64.4421 50.4791 65.0623 50.5947 65.7699 50.5947C66.5295 50.588 67.2844 50.4754 68.0129 50.2601L68.2454 50.1854L68.1644 49.9546C68.1408 49.7901 68.3635 48.7534 68.5863 47.8964L68.6842 47.5167L68.3045 47.6011C67.8023 47.7078 67.29 47.7588 66.7766 47.753C66.3518 47.7521 65.9274 47.7254 65.5058 47.6728C65.5432 47.4383 65.595 47.2064 65.6611 46.9783L65.7311 46.7353L65.4843 46.6804C64.4845 46.4666 63.4645 46.3619 62.4421 46.3682L62.4438 46.3707Z" fill="#DDECEF"/>
<path d="M118.591 53.8727C124.254 53.8727 128.844 51.8701 128.844 49.3998C128.844 46.9295 124.254 44.9269 118.591 44.9269C112.929 44.9269 108.339 46.9295 108.339 49.3998C108.339 51.8701 112.929 53.8727 118.591 53.8727Z" fill="#C3DED9"/>
<path d="M128.844 52.5664H85.3018V55.1638H128.844V52.5664Z" fill="#92BBB3"/>
<path d="M128.844 3.60461H88.9443V5.97967H128.844V3.60461Z" fill="#92BBB3"/>
<path d="M128.845 8.35474H111.843V10.7298H128.845V8.35474Z" fill="#92BBB3"/>
<path d="M107.123 21.7337H99.2061C98.7704 21.7337 98.3526 21.5606 98.0446 21.2526C97.7365 20.9446 97.5635 20.5268 97.5635 20.0911V8.35425H108.766V20.0911C108.766 20.3069 108.723 20.5205 108.641 20.7198C108.558 20.9191 108.437 21.1002 108.285 21.2527C108.132 21.4053 107.951 21.5263 107.751 21.6088C107.552 21.6913 107.338 21.7338 107.123 21.7337Z" fill="#B9C5C1"/>
<path d="M22.3672 41.3894H4.0752V55.1642H22.3672V41.3894Z" fill="#C3DED9"/>
<path d="M20.8806 52.5149H17.041V53.7022H20.8806V52.5149Z" fill="#92BBB3"/>
<path d="M20.8806 49.9817H17.041V51.169H20.8806V49.9817Z" fill="#92BBB3"/>
<path d="M20.8806 47.4484H17.041V48.6357H20.8806V47.4484Z" fill="#92BBB3"/>
<path d="M19.8062 45.5133C19.8066 45.6807 19.7574 45.8445 19.6647 45.9839C19.572 46.1233 19.44 46.232 19.2854 46.2964C19.1309 46.3607 18.9607 46.3778 18.7965 46.3454C18.6322 46.313 18.4813 46.2326 18.3628 46.1144C18.2443 45.9961 18.1635 45.8454 18.1307 45.6812C18.0979 45.5171 18.1145 45.3469 18.1785 45.1922C18.2424 45.0375 18.3508 44.9052 18.49 44.8122C18.6292 44.7191 18.7928 44.6694 18.9602 44.6694C19.0712 44.6692 19.1812 44.6908 19.2838 44.7331C19.3864 44.7753 19.4797 44.8375 19.5583 44.9159C19.6369 44.9942 19.6992 45.0874 19.7418 45.1899C19.7843 45.2924 19.8062 45.4023 19.8062 45.5133Z" fill="#92BBB3"/>
<path d="M25.1218 16.4411V10.1615C24.9815 10.2058 24.8385 10.2406 24.6935 10.2657L24.0657 10.375L23.8066 7.83114L24.3286 7.72144C24.4552 7.69443 24.6805 7.60414 25.021 7.32567C25.2893 7.10584 25.4665 6.89192 25.5471 6.69277L25.6961 6.31641H27.9433V16.4428L25.1218 16.4411Z" fill="white"/>
<path d="M27.3502 6.91052V15.8474H25.7156V9.22312C25.3775 9.45334 24.9946 9.60989 24.592 9.68261L24.4515 8.30331C24.7328 8.24368 25.0479 8.07139 25.3967 7.78645C25.7455 7.5015 25.9795 7.21009 26.0988 6.9122H27.3502V6.91052ZM28.5375 5.72447H25.295L24.9962 6.47086C24.9811 6.50884 24.9119 6.64976 24.6448 6.86748C24.3494 7.10924 24.2072 7.14131 24.206 7.14173L23.1621 7.3624L23.2701 8.42356L23.4106 9.80286L23.5397 11.0712L24.5283 10.899V17.0348H28.5367V5.72278L28.5375 5.72447Z" fill="#92BBB3"/>
<path d="M31.8813 16.6196C31.0134 16.6196 30.2358 16.3867 29.5712 15.9272C28.916 15.4736 28.4025 14.8302 28.0443 14.0184C27.6974 13.2306 27.5215 12.3171 27.5215 11.3024C27.5215 10.3273 27.6983 9.44335 28.0472 8.67544C28.4067 7.88305 28.924 7.25606 29.5843 6.81303C30.251 6.36494 31.0239 6.13794 31.8813 6.13794C32.7479 6.13794 33.5268 6.36789 34.1939 6.82147C34.8534 7.26956 35.3677 7.89571 35.723 8.68345C36.0673 9.44799 36.2415 10.329 36.2415 11.3024C36.2415 12.315 36.0681 13.2277 35.7268 14.015C35.3715 14.831 34.8568 15.4744 34.1964 15.928C33.5273 16.3871 32.7488 16.6196 31.8813 16.6196ZM31.8813 8.76784C31.4341 8.76784 31.094 8.94505 30.8147 9.32479C30.5016 9.7501 30.3429 10.4155 30.3429 11.3028C30.3429 12.2606 30.5012 12.9669 30.8126 13.4015C31.0877 13.7854 31.4273 13.9643 31.8813 13.9643C32.3353 13.9643 32.6766 13.7867 32.9513 13.4061C33.2623 12.9758 33.4197 12.2669 33.4197 11.3028C33.4197 10.4167 33.261 9.7501 32.9479 9.32437C32.6686 8.94505 32.3298 8.76784 31.8813 8.76784Z" fill="white"/>
<path d="M31.8816 6.73162C32.6307 6.73162 33.2905 6.92528 33.8609 7.31262C34.4314 7.69995 34.8719 8.23833 35.1824 8.92777C35.4918 9.61664 35.6465 10.4082 35.6465 11.3024C35.6465 12.2385 35.4918 13.0641 35.1824 13.7791C34.873 14.4942 34.4325 15.0475 33.8609 15.439C33.2902 15.83 32.6304 16.0256 31.8816 16.0259C31.1328 16.0262 30.4753 15.8306 29.9091 15.439C29.3434 15.0477 28.9031 14.4945 28.588 13.7791C28.273 13.0638 28.1155 12.2382 28.1155 11.3024C28.1155 10.4085 28.273 9.61482 28.588 8.92144C28.9031 8.22807 29.3455 7.68968 29.9154 7.30629C30.4853 6.92317 31.1407 6.73162 31.8816 6.73162ZM31.8816 14.5576C32.5286 14.5576 33.0457 14.2895 33.4331 13.7534C33.8204 13.2173 34.0139 12.4003 34.0137 11.3024C34.0137 10.2805 33.818 9.50385 33.4267 8.97249C33.0355 8.44114 32.5204 8.17504 31.8816 8.1742C31.2437 8.1742 30.7288 8.4403 30.3369 8.97249C29.9451 9.50469 29.7493 10.2813 29.7496 11.3024C29.7496 12.3918 29.9433 13.2067 30.3306 13.7471C30.7179 14.2874 31.235 14.5573 31.8816 14.5568V14.5576ZM31.8816 5.54346C30.9044 5.54346 30.0201 5.80463 29.2534 6.31939C28.5003 6.82571 27.9125 7.53497 27.5066 8.42905C27.1227 9.27291 26.9277 10.2404 26.9277 11.3007C26.9277 12.3977 27.121 13.3922 27.5016 14.2563C27.9041 15.1711 28.4868 15.8968 29.2336 16.4137C29.9998 16.9453 30.8905 17.2149 31.8816 17.2149C32.8727 17.2149 33.763 16.9474 34.5322 16.4196C35.2866 15.901 35.871 15.1728 36.271 14.2542C36.6461 13.3901 36.8355 12.3977 36.8355 11.3037C36.8355 10.2455 36.6436 9.28261 36.2651 8.4417C35.8647 7.5527 35.2794 6.8409 34.528 6.32909C33.7597 5.80885 32.869 5.5443 31.8816 5.5443V5.54346ZM31.8816 13.3694C31.6188 13.3694 31.4597 13.2851 31.2956 13.0547C31.1618 12.8678 30.9373 12.3914 30.9373 11.3016C30.9373 10.3573 31.1306 9.8961 31.293 9.67543C31.4859 9.41341 31.6614 9.36067 31.8837 9.36067C32.1061 9.36067 32.2795 9.41341 32.4723 9.67543C32.6348 9.8961 32.8284 10.3573 32.8284 11.3016C32.8284 12.3986 32.6052 12.8733 32.4723 13.0576C32.3082 13.2846 32.1487 13.3694 31.8837 13.3694H31.8816Z" fill="#92BBB3"/>
<path d="M39.9501 16.6196C39.0822 16.6196 38.3046 16.3867 37.64 15.9272C36.9848 15.474 36.4713 14.8302 36.113 14.0184C35.7662 13.2306 35.5898 12.3171 35.5898 11.3024C35.5898 10.3273 35.7671 9.44335 36.1156 8.67544C36.4755 7.88305 36.9928 7.25606 37.6531 6.81303C38.3197 6.36494 39.0923 6.13794 39.9501 6.13794C40.8167 6.13794 41.5956 6.36789 42.2623 6.82147C42.9217 7.26914 43.4361 7.89571 43.7918 8.68345C44.1356 9.44799 44.3103 10.329 44.3103 11.3024C44.3103 12.315 44.1369 13.2277 43.7951 14.0154C43.4399 14.8314 42.9251 15.4744 42.2652 15.928C41.596 16.3871 40.8172 16.6196 39.9501 16.6196ZM39.9501 8.76784C39.5016 8.76784 39.1628 8.94463 38.883 9.32437C38.5704 9.74967 38.4117 10.4151 38.4117 11.3024C38.4117 12.2602 38.5695 12.9665 38.8813 13.4011C39.1556 13.785 39.4961 13.966 39.9501 13.966C40.4041 13.966 40.745 13.7884 41.0201 13.4078C41.3306 12.9774 41.4884 12.2686 41.4884 11.3045C41.4884 10.4184 41.3298 9.75178 41.0167 9.32605C40.7374 8.94505 40.3986 8.76784 39.9501 8.76784Z" fill="white"/>
<path d="M39.95 6.73162C40.6985 6.73162 41.3581 6.92528 41.9289 7.31262C42.4996 7.69995 42.9401 8.23833 43.2503 8.92777C43.5598 9.61664 43.7145 10.4082 43.7145 11.3024C43.7145 12.2385 43.5598 13.0641 43.2503 13.7791C42.9409 14.4942 42.5004 15.0475 41.9289 15.439C41.3584 15.83 40.6988 16.0256 39.95 16.0259C39.2012 16.0262 38.5437 15.8306 37.9775 15.439C37.4126 15.0477 36.9723 14.4945 36.6564 13.7791C36.3405 13.0638 36.1828 12.2382 36.1834 11.3024C36.1834 10.4085 36.3411 9.61482 36.6564 8.92144C36.9717 8.22807 37.4142 7.68968 37.9838 7.30629C38.5537 6.92317 39.2091 6.73162 39.95 6.73162ZM39.95 14.5576C40.597 14.5576 41.1141 14.2895 41.5014 13.7534C41.8888 13.2173 42.0823 12.4003 42.082 11.3024C42.082 10.2805 41.8864 9.50385 41.4951 8.97249C41.1038 8.44114 40.5888 8.17504 39.95 8.1742C39.3115 8.1742 38.7964 8.4403 38.4049 8.97249C38.0133 9.50469 37.8177 10.2813 37.818 11.3024C37.818 12.3918 38.0115 13.2067 38.3986 13.7471C38.7856 14.2874 39.3028 14.5573 39.95 14.5568V14.5576ZM39.95 5.54346C38.9724 5.54346 38.088 5.80463 37.3214 6.31939C36.5686 6.82571 35.9809 7.53497 35.575 8.42905C35.191 9.27291 34.9961 10.2404 34.9961 11.3007C34.9961 12.3977 35.1889 13.3922 35.5695 14.2563C35.9724 15.1711 36.5551 15.8968 37.2994 16.4137C38.0682 16.9453 38.9589 17.2149 39.95 17.2149C40.9411 17.2149 41.831 16.9474 42.6006 16.4196C43.3546 15.901 43.9394 15.1728 44.3393 14.2542C44.714 13.3901 44.9039 12.3977 44.9039 11.3037C44.9039 10.2455 44.7119 9.28261 44.3334 8.4417C43.9318 7.55185 43.3474 6.84216 42.5963 6.33205C41.828 5.81012 40.9377 5.54599 39.95 5.54599V5.54346ZM39.95 13.3694C39.6871 13.3694 39.5281 13.2851 39.3639 13.0547C39.2302 12.8678 39.0053 12.3914 39.0053 11.3016C39.0053 10.3573 39.199 9.8961 39.3614 9.67543C39.5542 9.41341 39.7297 9.36067 39.9521 9.36067C40.1745 9.36067 40.3479 9.41341 40.5407 9.67543C40.7031 9.8961 40.8968 10.3573 40.8968 11.3016C40.8968 12.3986 40.6736 12.8733 40.5403 13.0576C40.3766 13.2846 40.2171 13.3694 39.9521 13.3694H39.95Z" fill="#92BBB3"/>
<path d="M48.0487 16.6196C47.1804 16.6196 46.4032 16.3867 45.7382 15.9272C45.0834 15.474 44.5695 14.8302 44.2112 14.0184C43.8644 13.2306 43.6885 12.3171 43.6885 11.3024C43.6885 10.3273 43.8653 9.44335 44.2142 8.67544C44.5737 7.88305 45.091 7.25648 45.7513 6.81303C46.4179 6.36494 47.1909 6.13794 48.0487 6.13794C48.9154 6.13794 49.6942 6.36789 50.3609 6.82147C51.0204 7.26914 51.5347 7.89571 51.89 8.68345C52.2343 9.44799 52.4085 10.329 52.4085 11.3024C52.4085 12.315 52.2355 13.2277 51.8938 14.0154C51.5385 14.8314 51.0238 15.4744 50.3639 15.928C49.6947 16.3871 48.9158 16.6196 48.0487 16.6196ZM48.0487 8.76784C47.6002 8.76784 47.261 8.94463 46.9816 9.32437C46.669 9.74967 46.5104 10.4151 46.5104 11.3024C46.5104 12.2602 46.6682 12.9665 46.98 13.4011C47.2567 13.785 47.5943 13.966 48.0487 13.966C48.5031 13.966 48.8432 13.7884 49.1187 13.4078C49.4293 12.977 49.5871 12.2686 49.5871 11.3045C49.5871 10.4184 49.4284 9.75178 49.1154 9.32605C48.836 8.94505 48.4968 8.76784 48.0487 8.76784Z" fill="white"/>
<path d="M48.0481 6.73155C48.7966 6.73155 49.4562 6.92522 50.0269 7.31255C50.5977 7.69988 51.0383 8.23827 51.3488 8.9277C51.6583 9.61658 51.813 10.4081 51.813 11.3023C51.813 12.2385 51.6583 13.064 51.3488 13.7791C51.0394 14.4941 50.5989 15.0474 50.0274 15.439C49.4569 15.8299 48.7973 16.0256 48.0485 16.0259C47.2997 16.0261 46.6418 15.8305 46.0747 15.439C45.5085 15.0468 45.068 14.4935 44.7532 13.7791C44.4384 13.0646 44.2809 12.239 44.2806 11.3023C44.2806 10.4084 44.4382 9.61475 44.7532 8.92137C45.0683 8.228 45.5109 7.68962 46.081 7.30622C46.6509 6.92311 47.3063 6.73155 48.0472 6.73155H48.0481ZM48.0472 14.5575C48.6942 14.5575 49.2112 14.2895 49.5982 13.7533C49.9853 13.2172 50.179 12.4002 50.1792 11.3023C50.1792 10.2804 49.9835 9.50378 49.5919 8.97243C49.2004 8.44108 48.6855 8.17498 48.0472 8.17413C47.409 8.17413 46.8939 8.44023 46.5021 8.97243C46.1103 9.50462 45.9145 10.2813 45.9148 11.3023C45.9148 12.3918 46.1085 13.2067 46.4958 13.747C46.8831 14.2874 47.4005 14.5573 48.0481 14.5567L48.0472 14.5575ZM48.0481 5.54339C47.0705 5.54339 46.1861 5.80457 45.4194 6.31932C44.6663 6.82564 44.0785 7.53491 43.6726 8.42898C43.2887 9.27284 43.0938 10.2403 43.0938 11.3006C43.0938 12.3977 43.287 13.3922 43.6676 14.2563C44.0701 15.171 44.6532 15.8967 45.3975 16.4136C46.1637 16.9436 47.0548 17.2119 48.046 17.2119C49.0371 17.2119 49.9269 16.9444 50.6965 16.4166C51.4505 15.898 52.0349 15.1698 52.4349 14.2512C52.81 13.3871 52.9999 12.3947 52.9999 11.3006C52.9999 10.2424 52.8079 9.27959 52.429 8.43868C52.0277 7.54883 51.4434 6.83914 50.6923 6.32903C49.924 5.80752 49.0337 5.54297 48.046 5.54297L48.0481 5.54339ZM48.0481 13.3694C47.7852 13.3694 47.6261 13.285 47.4616 13.0546C47.3278 12.8677 47.1034 12.3913 47.1034 11.3015C47.1034 10.3572 47.297 9.89604 47.4595 9.67537C47.6523 9.41335 47.8274 9.36061 48.0502 9.36061C48.273 9.36061 48.4455 9.41335 48.6409 9.67537C48.8029 9.89604 48.9966 10.3572 48.9966 11.3015C48.9966 12.3985 48.7734 12.8732 48.6405 13.0576C48.4763 13.2846 48.3168 13.3694 48.0523 13.3694H48.0481Z" fill="#92BBB3"/>
<path d="M25.7153 9.22132C25.3771 9.45154 24.9943 9.60809 24.5917 9.6808L24.4512 8.30151C24.7325 8.24188 25.0475 8.06959 25.3963 7.78464C25.7451 7.4997 25.9791 7.20828 26.0984 6.9104H27.3498V15.8473H25.7153V9.22132Z" fill="white"/>
<path d="M29.9089 15.4388C29.3432 15.0476 28.9028 14.4943 28.5878 13.779C28.2728 13.0637 28.1152 12.2381 28.1152 11.3022C28.1152 10.4083 28.2728 9.61464 28.5878 8.92127C28.9028 8.2279 29.3453 7.68951 29.9152 7.30612C30.4851 6.923 31.1405 6.73145 31.8814 6.73145C32.6305 6.73145 33.2902 6.92511 33.8607 7.31245C34.4311 7.69978 34.8716 8.23816 35.1822 8.9276C35.4916 9.61647 35.6463 10.408 35.6463 11.3022C35.6463 12.2384 35.4916 13.0639 35.1822 13.779C34.8727 14.494 34.4323 15.0473 33.8607 15.4388C33.2899 15.8298 32.6302 16.0255 31.8814 16.0258C31.1326 16.026 30.4751 15.8304 29.9089 15.4388ZM33.4328 13.7511C33.8196 13.2153 34.0131 12.3983 34.0134 11.3001C34.0134 10.2782 33.8178 9.50157 33.4265 8.97021C33.0352 8.43886 32.5202 8.17347 31.8814 8.17403C31.2434 8.17403 30.7285 8.44013 30.3367 8.97232C29.9449 9.50452 29.7491 10.2812 29.7494 11.3022C29.7494 12.3917 29.943 13.2065 30.3304 13.7469C30.7177 14.2873 31.2347 14.5572 31.8814 14.5566C32.5281 14.5566 33.0452 14.2894 33.4328 13.7549V13.7511Z" fill="white"/>
<path d="M37.9776 15.4388C37.4128 15.0476 36.9725 14.4943 36.6566 13.779C36.3407 13.0637 36.183 12.2381 36.1836 11.3022C36.1836 10.4083 36.3413 9.61464 36.6566 8.92127C36.9719 8.2279 37.4144 7.68951 37.984 7.30612C38.5539 6.923 39.2093 6.73145 39.9502 6.73145C40.6987 6.73145 41.3583 6.92511 41.929 7.31245C42.4998 7.69978 42.9403 8.23816 43.2505 8.9276C43.5599 9.61647 43.7147 10.408 43.7147 11.3022C43.7147 12.2384 43.5599 13.0639 43.2505 13.779C42.9411 14.494 42.5006 15.0473 41.929 15.4388C41.3586 15.8298 40.699 16.0255 39.9502 16.0258C39.2014 16.026 38.5439 15.8304 37.9776 15.4388ZM41.5016 13.7511C41.8884 13.2153 42.0819 12.3983 42.0822 11.3001C42.0822 10.2782 41.8866 9.50157 41.4953 8.97021C41.104 8.43886 40.589 8.17276 39.9502 8.17192C39.3117 8.17192 38.7966 8.43802 38.4051 8.97021C38.0135 9.50241 37.8179 10.2797 37.8182 11.3022C37.8182 12.3917 38.0117 13.2065 38.3987 13.7469C38.7858 14.2873 39.3029 14.5572 39.9502 14.5566C40.5966 14.5566 41.1137 14.2894 41.5016 13.7549V13.7511Z" fill="white"/>
<path d="M46.0753 15.4388C45.5091 15.0467 45.0686 14.4934 44.7538 13.779C44.4391 13.0645 44.2815 12.2389 44.2812 11.3022C44.2812 10.4083 44.4388 9.61464 44.7538 8.92127C45.0689 8.2279 45.5115 7.68951 46.0816 7.30612C46.6515 6.923 47.3069 6.73145 48.0478 6.73145C48.7963 6.73145 49.456 6.92511 50.0267 7.31245C50.5974 7.69978 51.0383 8.23816 51.3494 8.9276C51.6589 9.61647 51.8136 10.408 51.8136 11.3022C51.8136 12.2384 51.6589 13.0639 51.3494 13.779C51.04 14.494 50.5995 15.0473 50.028 15.4388C49.4575 15.8298 48.7979 16.0255 48.0491 16.0258C47.3003 16.026 46.6424 15.8304 46.0753 15.4388ZM49.5989 13.7511C49.9859 13.2153 50.1796 12.3983 50.1799 11.3001C50.1799 10.2782 49.9841 9.50157 49.5925 8.97021C49.201 8.43886 48.6861 8.17276 48.0478 8.17192C47.4096 8.17192 46.8946 8.43802 46.5027 8.97021C46.1109 9.50241 45.9151 10.279 45.9154 11.3001C45.9154 12.3895 46.1091 13.2044 46.4964 13.7448C46.8837 14.2851 47.4012 14.5557 48.0487 14.5566C48.6951 14.5566 49.2121 14.2894 49.5997 13.7549L49.5989 13.7511Z" fill="white"/>
</g>
</g>
<defs>
<clipPath id="clip0">
<rect width="133" height="58.7208" fill="white"/>
</clipPath>
<clipPath id="clip1">
<rect width="133" height="58.6624" fill="white"/>
</clipPath>
</defs>
</svg>
