<svg xmlns="http://www.w3.org/2000/svg" xmlns:xlink="http://www.w3.org/1999/xlink" width="49" height="49" viewBox="0 0 49 49"><defs><path id="a" d="M.134 4.353l3.978 3.978 2.872-2.873L3.01 1.48z"/><path id="c" d="M1.102 3.664l3.976 3.978L7.952 4.77 3.973.792z"/></defs><g fill="none" fill-rule="evenodd"><path fill="#DC092C" d="M0 48.748h48.748V0H0z"/><path fill="#FFF" d="M16.25 29.688V19.219l5.313 5.313-5.313 5.156zm11.094-5.313l5.312-5.312V29.53l-5.312-5.155zm-15.313-8.75V32.97l4.063 2.656 8.125-8.125 8.125 8.125 4.062-2.656V15.625l-3.75-2.343-8.281 8.281-8.125-8.125-4.219 2.187z"/><g transform="translate(18.75 17.5)"><mask id="b" fill="#fff"><use xlink:href="#a"/></mask><path d="M.134 4.353l3.978 3.978 2.872-2.873L3.01 1.48z" mask="url(#b)"/></g><g transform="translate(21.875 22.188)"><mask id="d" fill="#fff"><use xlink:href="#c"/></mask><path d="M1.102 3.664l3.976 3.978L7.952 4.77 3.973.792z" mask="url(#d)"/></g><path fill="#FFF" d="M19.484 26.372l6.988-6.934 2.86 2.883-6.985 6.934z"/></g></svg>