<svg width="40" height="40" viewBox="0 0 40 40" fill="none" xmlns="http://www.w3.org/2000/svg">
<rect width="40" height="40" rx="20" fill="#F1F1F1"/>
<path fill-rule="evenodd" clip-rule="evenodd" d="M35.1045 16.5037L31.7745 20.7637L31.7845 23.3937L28.8745 23.3737L28.9045 20.7037L25.6345 16.5037H28.7445L30.3845 18.6537L31.8545 16.5037H35.1045ZM24.7245 16.6437L22.1845 19.9937L24.7245 23.3937H21.2545L19.9945 21.7137L18.6945 23.3937H15.2645L17.8245 19.9937L15.2645 16.5437H18.5545L20.0445 18.6337L21.4145 16.6437H24.7245ZM14.1245 22.2037C14.1245 22.2037 14.1045 19.4837 14.1245 18.0037C14.1445 16.5337 12.9545 16.6537 12.9545 16.6537C12.9545 16.6537 7.91453 16.6737 6.46453 16.6537C5.01453 16.6337 4.89453 18.0037 4.89453 18.0037V21.1337V22.2037C4.89453 23.2737 6.34453 23.5037 6.34453 23.5037C6.34453 23.5037 11.2645 23.5437 12.8845 23.5037C14.5045 23.4637 14.1245 22.2037 14.1245 22.2037ZM11.4045 20.8837C11.4045 20.8837 11.5045 21.5037 11.0245 21.5237C10.5445 21.5437 8.20453 21.5137 8.20453 21.5137C8.20453 21.5137 7.70453 21.3737 7.82453 20.8737V19.1137C7.82453 19.1137 7.77453 18.6637 8.20453 18.6637H10.8545C10.8545 18.6637 11.4245 18.5237 11.4045 19.1637C11.3845 19.8137 11.4045 20.8837 11.4045 20.8837Z" fill="#D14C49"/>
<path fill-rule="evenodd" clip-rule="evenodd" d="M25.7648 14.1436H34.3148C31.9748 8.54357 26.6048 3.77357 18.6448 4.35357C11.8548 4.85357 7.91484 9.12357 5.46484 14.1436C7.47484 11.2436 10.3448 8.59357 14.5348 8.27357C19.4648 7.89357 23.7848 10.7636 25.7648 14.1436ZM34.4249 25.9436C32.4049 28.8336 29.5249 31.4736 25.3249 31.7636C20.3849 32.1136 16.0849 29.2136 14.1149 25.8236C12.6899 25.8136 11.2649 25.8061 9.83994 25.7986C8.41494 25.7911 6.98994 25.7836 5.56494 25.7736C7.87494 31.3836 13.2149 36.1936 21.1749 35.6536C27.9749 35.1936 31.9449 30.9536 34.4249 25.9436Z" fill="#526BAF"/>
</svg>
