<svg width="64" height="64" viewBox="0 0 64 64" fill="none" xmlns="http://www.w3.org/2000/svg">
<path d="M20.0585 39.897L17.1245 40.415L13.9995 22.688L40.5895 18L42.0895 26.508H20.0585V39.897ZM49.0585 28.507V46.507H22.0585V28.507H49.0585ZM47.0585 37.507C47.0585 36.03 46.2485 34.755 45.0585 34.062V32.507H39.0055C38.3125 31.317 37.0365 30.507 35.5605 30.507C34.0845 30.507 32.8085 31.317 32.1155 32.507H26.0585V34.062C24.8685 34.755 24.0585 36.031 24.0585 37.507C24.0585 38.983 24.8685 40.259 26.0585 40.952V42.507H32.1155C32.8085 43.697 34.0845 44.507 35.5605 44.507C37.0365 44.507 38.3125 43.697 39.0055 42.507H45.0585V40.952C46.2485 40.259 47.0585 38.984 47.0585 37.507Z" fill="#F04F48"/>
</svg>
