<svg xmlns="http://www.w3.org/2000/svg" width="32" height="32" viewBox="0 0 32 32"><g fill="none"><path fill="#989999" d="M2.286 16c0 7.574 6.14 13.714 13.714 13.714 7.573 0 13.715-6.14 13.715-13.714 0-7.573-6.141-13.714-13.715-13.714S2.286 8.426 2.286 16zM0 16C0 7.163 7.163 0 16 0c8.836 0 16 7.164 16 16s-7.164 16-16 16S0 24.836 0 16z"/><path fill="#9B9C9E" d="M6.633 26.996l-1.668-1.563a15.954 15.954 0 0 1 11.673-5.057c4.3 0 8.333 1.706 11.313 4.686l-1.616 1.616a13.665 13.665 0 0 0-9.697-4.017 13.668 13.668 0 0 0-10.005 4.335zM26.31 4.022l1.667 1.564a15.957 15.957 0 0 1-11.672 5.057c-4.3 0-8.334-1.706-11.314-4.686L6.607 4.34a13.666 13.666 0 0 0 9.698 4.017A13.67 13.67 0 0 0 26.31 4.022z"/><path fill="#9B9C9E" d="M17.143 30.857h-2.285V1.143h2.285z"/><path fill="#989999" d="M30.858 14.857v2.286H1.143v-2.286z"/></g></svg>