<svg width="39" height="39" viewBox="0 0 39 39" fill="none" xmlns="http://www.w3.org/2000/svg">
<g clip-path="url(#clip0)">
<path fill-rule="evenodd" clip-rule="evenodd" d="M0.193848 38.9604H38.1938V0.960449H0.193848V38.9604ZM1.46077 37.6935H36.9262V2.22965H1.46077V37.6943V37.6935Z" fill="black"/>
<path fill-rule="evenodd" clip-rule="evenodd" d="M1.19385 37.9644H37.1938V1.96045H1.19385V37.9644Z" fill="#FFED00"/>
<path fill-rule="evenodd" clip-rule="evenodd" d="M19.1935 24.3118L8.2791 35.1623L3.94861 30.8622L14.8637 20.0079L12.5868 17.7424V13.2698L11.006 11.6958V15.5961L9.62962 16.9656L4.09529 11.4617L2.72729 12.8229C2.73641 11.7961 2.94237 8.82527 5.47622 6.34995C8.2107 3.73479 11.1633 4.91279 12.1733 5.91827L17.7046 11.4192L16.2933 12.8198L19.1935 15.704L22.0929 12.8198L20.6823 11.4192L26.2121 5.91827C27.2229 4.91279 30.1747 3.73479 32.9092 6.34995C35.4438 8.82603 35.6497 11.7961 35.6604 12.8229L34.2916 11.4625L28.7573 16.9656L27.3817 15.5961V11.6958L25.7986 13.269V17.7424L23.5217 20.0072L34.4375 30.8622L30.1078 35.1623L19.1935 24.3118Z" fill="black"/>
</g>
<defs>
<clipPath id="clip0">
<rect width="38" height="38" fill="white" transform="translate(0.193848 0.960449)"/>
</clipPath>
</defs>
</svg>
