<svg xmlns="http://www.w3.org/2000/svg" width="50" height="50" viewBox="0 0 50 50"><g fill="none" fill-rule="evenodd"><path d="M0 0h50v50H0z"/><path stroke="#F04F48" stroke-width="2" d="M44 20a2 2 0 0 0-4 0v15a2 2 0 0 0 4 0V20zM28 47a2 2 0 0 0 0-4h-5a2 2 0 0 0 0 4h5z"/><path stroke="#F04F48" stroke-width="2" d="M8 19C8 9.611 15.611 2 25 2s17 7.611 17 17m2 1c2.762 0 5 3.357 5 7.5 0 4.141-2.238 7.5-5 7.5"/><path stroke="#F04F48" stroke-width="2" d="M6 20a2 2 0 0 1 4 0v15a2 2 0 0 1-4 0V20zm0 0c-2.761 0-5 3.357-5 7.5C1 31.641 3.239 35 6 35m36 2c0 5-3 8-8 8h-4"/></g></svg>