<svg xmlns="http://www.w3.org/2000/svg" fill="none" height="97" viewBox="0 0 216 97" width="216"><path d="m216 0h-216v97h216z" fill="#e1372f"/><path d="m98 57h-5v-21h5z" fill="#f1a4a0"/><path d="m108 62h-5v-20h5z" fill="#f1a4a0"/><path d="m118 46h-5v-11h5z" fill="#f1a4a0"/><path d="m48 46h-5v-15h5z" fill="#f1a4a0"/><path d="m58 57h-5v-20h5z" fill="#f1a4a0"/><path d="m38 57h-5v-11h5z" fill="#f1a4a0"/><g fill="#fff"><path clip-rule="evenodd" d="m63 36h5v-11h-5z" fill-rule="evenodd"/><path clip-rule="evenodd" d="m63 67h5v-26h-5z" fill-rule="evenodd"/><path clip-rule="evenodd" d="m73 67h5v-42h-5z" fill-rule="evenodd"/><path clip-rule="evenodd" d="m83 36h5v-11h-5z" fill-rule="evenodd"/><path clip-rule="evenodd" d="m83 67h5v-26h-5z" fill-rule="evenodd"/><path d="m133.255 40.0909v10.9091h-2.307v-10.9091z"/><path d="m134.887 41.9925v-1.9016h8.959v1.9016h-3.339v9.0075h-2.28v-9.0075z"/><path d="m147.778 40.0909v10.9091h-2.306v-10.9091z"/><path d="m140.099 59.5c-.405-2.2372-2.194-3.5582-4.389-3.5582-2.791 0-4.815 2.152-4.815 5.6037s2.024 5.6037 4.815 5.6037c2.195 0 3.984-1.3211 4.389-3.5583h-1.321c-.319 1.5128-1.619 2.3225-3.068 2.3225-1.981 0-3.537-1.5341-3.537-4.3679s1.556-4.3679 3.537-4.3679c1.449 0 2.749.8096 3.068 2.3224z"/><path d="m142.831 67 1.098-3.0895h4.41l1.098 3.0895h1.384l-4.005-10.9091h-1.364l-4.006 10.9091zm1.513-4.2614 1.747-4.9218h.086l1.747 4.9218z"/><path d="m152.671 67h1.321v-3.9844h2.386c2.541 0 3.686-1.5447 3.686-3.473 0-1.9282-1.145-3.4517-3.707-3.4517h-3.686zm1.321-5.1562v-4.581h2.322c1.774 0 2.45.9695 2.45 2.2798 0 1.3104-.676 2.3012-2.429 2.3012z"/><path d="m163.663 56.0909h-1.321v10.9091h1.321z"/><path d="m165.865 57.2628h3.431v9.7372h1.321v-9.7372h3.43v-1.1719h-8.182z"/><path d="m174.658 67 1.098-3.0895h4.41l1.098 3.0895h1.384l-4.005-10.9091h-1.364l-4.006 10.9091zm1.513-4.2614 1.747-4.9218h.086l1.747 4.9218z"/><path d="m184.273 67h6.392v-1.1719h-5.071v-9.7372h-1.321z"/></g></svg>