<svg width="111" height="61" viewBox="0 0 111 61" fill="none" xmlns="http://www.w3.org/2000/svg">
<g clip-path="url(#clip0)">
<path d="M79.311 22.335V38.583C79.3124 38.6425 79.3017 38.7016 79.2795 38.7568C79.2574 38.812 79.2243 38.8622 79.1822 38.9042C79.1402 38.9463 79.09 38.9794 79.0348 39.0015C78.9796 39.0237 78.9205 39.0344 78.861 39.033H75.547C75.4875 39.0344 75.4284 39.0237 75.3732 39.0015C75.318 38.9794 75.2678 38.9463 75.2258 38.9042C75.1837 38.8622 75.1506 38.812 75.1285 38.7568C75.1063 38.7016 75.0956 38.6425 75.097 38.583V22.335C75.0956 22.2755 75.1063 22.2164 75.1285 22.1612C75.1506 22.106 75.1837 22.0558 75.2258 22.0138C75.2678 21.9717 75.318 21.9386 75.3732 21.9165C75.4284 21.8943 75.4875 21.8836 75.547 21.885H78.861C78.9205 21.8836 78.9796 21.8943 79.0348 21.9165C79.09 21.9386 79.1402 21.9717 79.1822 22.0138C79.2243 22.0558 79.2574 22.106 79.2795 22.1612C79.3017 22.2164 79.3124 22.2755 79.311 22.335ZM105.179 21.885C105.308 21.885 105.469 21.949 105.629 22.078C105.726 22.174 105.726 22.335 105.694 22.464L100.224 38.744C100.191 38.8282 100.133 38.9008 100.059 38.9524C99.9846 39.004 99.8965 39.0324 99.806 39.034H96.846C96.653 39.034 96.492 38.937 96.428 38.744L93.241 29.253L90.056 38.743C90.0228 38.8272 89.9654 38.8998 89.891 38.9514C89.8166 39.003 89.7285 39.0314 89.638 39.033H86.678C86.485 39.033 86.324 38.937 86.26 38.743L80.79 22.463C80.758 22.335 80.758 22.206 80.854 22.078C80.919 21.949 81.08 21.885 81.208 21.885H84.908C85.101 21.885 85.262 22.013 85.327 22.206L88.254 31.826L91.472 22.206C91.5052 22.1218 91.5626 22.0492 91.637 21.9976C91.7114 21.946 91.7995 21.9176 91.89 21.916H94.496C94.689 21.916 94.85 22.013 94.914 22.206L98.132 31.826L101.06 22.206C101.086 22.1149 101.141 22.0345 101.216 21.9768C101.291 21.919 101.383 21.8868 101.478 21.885H105.179ZM110.777 21.885C111.002 21.885 111.195 22.078 111.227 22.335V38.583C111.228 38.6425 111.218 38.7016 111.196 38.7568C111.173 38.812 111.14 38.8622 111.098 38.9042C111.056 38.9463 111.006 38.9794 110.951 39.0015C110.896 39.0237 110.836 39.0344 110.777 39.033H107.463C107.404 39.0344 107.344 39.0237 107.289 39.0015C107.234 38.9794 107.184 38.9463 107.142 38.9042C107.1 38.8622 107.067 38.812 107.044 38.7568C107.022 38.7016 107.012 38.6425 107.013 38.583V22.335C107.012 22.2755 107.022 22.2164 107.044 22.1612C107.067 22.106 107.1 22.0558 107.142 22.0138C107.184 21.9717 107.234 21.9386 107.289 21.9165C107.344 21.8943 107.404 21.8836 107.463 21.885H110.777ZM73.166 38.455C73.359 38.68 73.198 39.001 72.908 39.001H68.854C68.7742 39.0032 68.6949 38.9869 68.6224 38.9534C68.5499 38.9199 68.4861 38.8702 68.436 38.808L67.761 37.972C66.345 38.872 64.671 39.42 62.902 39.42C57.948 39.42 53.926 35.398 53.926 30.443C53.926 25.488 57.948 21.466 62.902 21.466C67.857 21.466 71.879 25.488 71.879 30.443C71.879 32.213 71.364 33.886 70.463 35.301L73.166 38.455ZM39.286 40.337C40.123 40.659 40.445 41.913 40.509 42.46C40.638 43.458 40.349 43.844 40.027 43.844C39.705 43.844 39.254 43.458 38.772 42.686C38.289 41.913 38.096 41.045 38.354 40.594C38.514 40.304 38.867 40.176 39.286 40.337ZM34.396 43.973C34.911 43.973 35.49 44.198 36.005 44.648C37.002 45.485 37.292 46.45 36.777 47.158C36.487 47.512 36.005 47.737 35.458 47.737C34.911 47.737 34.332 47.544 33.946 47.19C33.045 46.418 32.788 45.13 33.366 44.423C33.592 44.133 33.946 43.973 34.396 43.973ZM23.136 53.271C10.909 53.271 1 43.361 1 31.135C1 18.909 10.91 9 23.135 9C35.361 9 45.271 18.91 45.271 31.135C45.271 35.285 44.113 39.179 42.151 42.493C42.086 42.589 41.925 42.557 41.893 42.428C41.121 36.991 37.807 33.998 32.981 33.098C32.562 33.033 32.498 32.776 33.045 32.712C34.525 32.583 36.616 32.615 37.71 32.808C37.774 32.261 37.807 31.682 37.807 31.103C37.807 23.027 31.243 16.463 23.167 16.463C15.092 16.463 8.528 23.027 8.528 31.103C8.528 39.179 15.092 45.743 23.168 45.743H23.843C23.6137 44.4368 23.5165 43.1107 23.553 41.785C23.586 40.884 23.779 40.755 24.165 41.463C26.192 44.97 29.088 48.123 34.75 49.378C39.383 50.408 44.016 51.598 49.003 57.936C49.453 58.483 48.778 59.062 48.263 58.612C43.18 54.107 38.547 52.627 34.332 52.627C29.602 52.66 26.386 53.271 23.136 53.271ZM65.122 34.851L63.352 32.695C63.16 32.47 63.321 32.116 63.61 32.116H67.342C67.535 31.601 67.632 31.022 67.632 30.443C67.632 27.773 65.637 25.456 62.902 25.456C60.168 25.456 58.172 27.773 58.172 30.443C58.172 33.113 60.168 35.398 62.902 35.398C63.674 35.43 64.447 35.205 65.122 34.851Z" fill="#FF8C00"/>
</g>
<defs>
<clipPath id="clip0">
<rect width="111" height="61" fill="white"/>
</clipPath>
</defs>
</svg>
