<svg width="75" height="75" viewBox="0 0 75 75" fill="none" xmlns="http://www.w3.org/2000/svg">
<path fill-rule="evenodd" clip-rule="evenodd" d="M0 0V21H21V0H0ZM3 3V18H18V3H3ZM15 6H6V15H15V6ZM0 54V75H21V54H0ZM3 57V72H18V57H3ZM15 60H6V69H15V60ZM54 21V0H75V21H54ZM57 18V3H72V18H57ZM60 6H69V15H60V6ZM24 0H27V3H24V0ZM27 9V12H30V9V8V6H33V11V12V12.5V15V18H30V15H27H26H24V21H27V18H30V21H33V24H27V30H30V33H33V39H36V45H33V42H30V45H27V48H30V54H27V51H24V57H25.5H27V60H30V63H27V66H24V69H27V72H24V75H27V72H28.5H30H36V75H37.5H39H48H49H51V69H54V72H57V75H63V72H66V69H75V66H72V63H75V51H72V45H75V36H72V39H66V36H63V30H60V24H57V27H54V30H51V28.5V27V24H48V21H51V15H48V21H45V18H42V24H43.5H45H48V27H39V24H36V21H39V18H36V15H39V12H42V15H45V12H48V6H51V3H48V6H42V3V2V0H33V3H30V6H24V9H27ZM39 6V3H33V6H39ZM36 18V21H33V18H36ZM36 27V24H33V27H36ZM42 39V36H39V33H36V27H39V30H42V33H48V30H51V36H54V42H57V45H54V48H48V45V42V36H45V39H42ZM42 39H39V42H42V39ZM54 36H57V30H54V36ZM63 36H60V37.5V39V42V45H63V36ZM66 57H63V51H64.5H66V42H72V45H69V51H72V57H69V54H66V57ZM66 57H69V60H72V63H69V66H63V63V62V61.5V60H66V57ZM57 69V72H63V69H57ZM57 69V66H60V63H54V65V66V69H57ZM51 69V66H48H45V69H39V72H48V69H51ZM30 63V69H36V66V64.5V63H30ZM30 60H39V63H42V60H45V57H48V51H45.5H45V45H39V48H37.5H36H33V54H36V57H33H30V60ZM0 24H3V27H0V24ZM3 42V39H6V36H0V37.5V39V42H3ZM12 39H9V36V34.5V33H15V36H12V39ZM18 48H15V42H12V39H15V36H16.5H18H21H22H24V39H27V42H24V48H21V45H18V48ZM18 48V51H21V48H18ZM27 36H24V33H27V36ZM27 36V39H30V36H27ZM24 33H15V30H21V27H18V24H21H22H24V30V31V33ZM21 42V39H18V42H21ZM51 51H54H60V60H51V51ZM66 24H69V33H66V24ZM75 24H72V33H75V24ZM39 51H42V57H39V51ZM57 54H54V57H57V54ZM75 72H72V75H75V72ZM0 30V33H6V30H9V24H6V30H0ZM9 48H6V45H9V48ZM6 45H0V48H6V51H12V49.5V48V45H9V42H6V45Z" fill="#575762"/>
</svg>
