<svg width="102" height="102" viewBox="0 0 102 102" fill="none" xmlns="http://www.w3.org/2000/svg">
<path fill-rule="evenodd" clip-rule="evenodd" d="M0 0V28.2807H28.2807V0H0ZM4.0401 4.0401V24.2406H24.2406V4.0401H4.0401ZM20.2005 8.0802H8.0802V20.2005H20.2005V8.0802ZM0 72.7218V101.003H28.2807V72.7218H0ZM4.0401 76.7619V96.9625H24.2406V76.7619H4.0401ZM20.2005 80.802H8.0802V92.9224H20.2005V80.802ZM72.7218 28.2807V0H101.003V28.2807H72.7218ZM76.7619 24.2406V4.0401H96.9625V24.2406H76.7619ZM80.802 8.0802H92.9224V20.2005H80.802V8.0802ZM32.3208 0H36.3609V4.0401H32.3208V0ZM36.3609 12.1203V16.1604H40.401V12.1203V10.7736V8.0802H44.4411V14.8137V16.1604V16.8338V20.2005V24.2406H40.401V20.2005H36.3609H35.0142H32.3208V28.2807H36.3609V24.2406H40.401V28.2807H44.4411V32.3208H36.3609V40.401H40.401V44.4411H44.4411V52.5213H48.4812V60.6015H44.4411V56.5614H40.401V60.6015H36.3609V64.6416H40.401V72.7218H36.3609V68.6817H32.3208V76.7619H34.3409H36.3609V80.802H40.401V84.8421H36.3609V88.8823H32.3208V92.9224H36.3609V96.9625H32.3208V101.003H36.3609V96.9625H38.381H40.401H48.4812V101.003H50.5013H52.5213H64.6416H65.9883H68.6817V92.9224H72.7218V96.9625H76.7619V101.003H84.8421V96.9625H88.8823V92.9224H101.003V88.8823H96.9625V84.8421H101.003V68.6817H96.9625V60.6015H101.003V48.4812H96.9625V52.5213H88.8823V48.4812H84.8421V40.401H80.802V32.3208H76.7619V36.3609H72.7218V40.401H68.6817V38.381V36.3609V32.3208H64.6416V28.2807H68.6817V20.2005H64.6416V28.2807H60.6015V24.2406H56.5614V32.3208H58.5815H60.6015H64.6416V36.3609H52.5213V32.3208H48.4812V28.2807H52.5213V24.2406H48.4812V20.2005H52.5213V16.1604H56.5614V20.2005H60.6015V16.1604H64.6416V8.0802H68.6817V4.0401H64.6416V8.0802H56.5614V4.0401V2.6934V0H44.4411V4.0401H40.401V8.0802H32.3208V12.1203H36.3609ZM52.5213 8.0802V4.0401H44.4411V8.0802H52.5213ZM48.4812 24.2406V28.2807H44.4411V24.2406H48.4812ZM48.4812 36.3609V32.3208H44.4411V36.3609H48.4812ZM56.5614 52.5213V48.4812H52.5213V44.4411H48.4812V36.3609H52.5213V40.401H56.5614V44.4411H64.6416V40.401H68.6817V48.4812H72.7218V56.5614H76.7619V60.6015H72.7218V64.6416H64.6416V60.6015V56.5614V48.4812H60.6015V52.5213H56.5614ZM56.5614 52.5213H52.5213V56.5614H56.5614V52.5213ZM72.7218 48.4812H76.7619V40.401H72.7218V48.4812ZM84.8421 48.4812H80.802V50.5013V52.5213V56.5614V60.6015H84.8421V48.4812ZM88.8823 76.7619H84.8421V68.6817H86.8622H88.8823V56.5614H96.9625V60.6015H92.9224V68.6817H96.9625V76.7619H92.9224V72.7218H88.8823V76.7619ZM88.8823 76.7619H92.9224V80.802H96.9625V84.8421H92.9224V88.8823H84.8421V84.8421V83.4954V82.8221V80.802H88.8823V76.7619ZM76.7619 92.9224V96.9625H84.8421V92.9224H76.7619ZM76.7619 92.9224V88.8823H80.802V84.8421H72.7218V87.5356V88.8823V92.9224H76.7619ZM68.6817 92.9224V88.8823H64.6416H60.6015V92.9224H52.5213V96.9625H64.6416V92.9224H68.6817ZM40.401 84.8421V92.9224H48.4812V88.8823V86.8622V84.8421H40.401ZM40.401 80.802H52.5213V84.8421H56.5614V80.802H60.6015V76.7619H64.6416V68.6817H61.2749H60.6015V60.6015H52.5213V64.6416H50.5013H48.4812H44.4411V72.7218H48.4812V76.7619H44.4411H40.401V80.802ZM0 32.3208H4.0401V36.3609H0V32.3208ZM4.0401 56.5614V52.5213H8.0802V48.4812H0V50.5013V52.5213V56.5614H4.0401ZM16.1604 52.5213H12.1203V48.4812V46.4612V44.4411H20.2005V48.4812H16.1604V52.5213ZM24.2406 64.6416H20.2005V56.5614H16.1604V52.5213H20.2005V48.4812H22.2206H24.2406H28.2807H29.6274H32.3208V52.5213H36.3609V56.5614H32.3208V64.6416H28.2807V60.6015H24.2406V64.6416ZM24.2406 64.6416V68.6817H28.2807V64.6416H24.2406ZM36.3609 48.4812H32.3208V44.4411H36.3609V48.4812ZM36.3609 48.4812V52.5213H40.401V48.4812H36.3609ZM32.3208 44.4411H20.2005V40.401H28.2807V36.3609H24.2406V32.3208H28.2807H29.6274H32.3208V40.401V41.7477V44.4411ZM28.2807 56.5614V52.5213H24.2406V56.5614H28.2807ZM68.6817 68.6817H72.7218H80.802V80.802H68.6817V68.6817ZM88.8823 32.3208H92.9224V44.4411H88.8823V32.3208ZM101.003 32.3208H96.9625V44.4411H101.003V32.3208ZM52.5213 68.6817H56.5614V76.7619H52.5213V68.6817ZM76.7619 72.7218H72.7218V76.7619H76.7619V72.7218ZM101.003 96.9625H96.9625V101.003H101.003V96.9625ZM0 40.401V44.4411H8.0802V40.401H12.1203V32.3208H8.0802V40.401H0ZM12.1203 64.6416H8.0802V60.6015H12.1203V64.6416ZM8.0802 60.6015H0V64.6416H8.0802V68.6817H16.1604V66.6617V64.6416V60.6015H12.1203V56.5614H8.0802V60.6015Z" fill="#575762"/>
</svg>
