<svg width="32" height="32" viewBox="0 0 32 32" fill="none" xmlns="http://www.w3.org/2000/svg" class="svg-russian-emblem">
<circle cx="16" cy="16" r="16" fill="#515151"/>
<path d="M13.9833 5.81135L14.6599 6.96814H17.3409L18.0175 5.81135H18.0032C18.1613 5.61966 18.2591 5.37968 18.2591 5.11444C18.2591 4.49927 17.7533 4 17.1301 4C16.9976 4 16.872 4.02675 16.7538 4.06835V4.74296H15.2485V4.06835C15.1303 4.02675 15.0046 4 14.8721 4C14.2489 4 13.7432 4.49927 13.7432 5.11444C13.7432 5.37968 13.841 5.61966 13.9976 5.81135H13.9833ZM28 12.2974C28.0007 11.8241 27.863 11.3873 27.6402 11.0032C27.6402 11.0032 24.0531 13.0537 23.7046 13.2469C23.1506 13.5545 22.7848 12.9497 22.7848 12.9497L25.3755 11.4683C26.941 10.5737 27.4761 8.5982 26.5722 7.05432C26.2742 6.54316 25.8489 6.15682 25.3672 5.88044L21.1568 13.1043C21.2283 13.2744 21.2697 13.4616 21.2697 13.6585C21.2697 14.4788 20.5954 15.1444 19.7644 15.1444C18.9335 15.1444 18.2591 14.4788 18.2591 13.6585V10.6867H21.2697C21.2697 9.45484 20.2589 8.45778 19.0103 8.45778H17.2874L17.7736 9.28916C16.7816 10.2223 16.1389 11.5047 16.0312 12.9386C16.0237 12.8762 16.0109 12.816 16.0019 12.7543C15.9928 12.816 15.9801 12.8762 15.9725 12.9386C15.8641 11.5047 15.2221 10.2223 14.2301 9.28916L14.7148 8.45778H12.992C11.7433 8.45778 10.7325 9.45484 10.7325 10.6867H13.7432V13.6585C13.7432 14.4788 13.0688 15.1444 12.2378 15.1444C11.4069 15.1444 10.7325 14.4788 10.7325 13.6585C10.7325 13.4616 10.7739 13.2744 10.8432 13.1028L6.6328 5.87895C6.1511 6.15534 5.7266 6.54242 5.4278 7.05284C4.52386 8.59671 5.05899 10.5723 6.62452 11.4668L9.21517 12.9482C9.21517 12.9482 8.85013 13.553 8.29542 13.2454C7.94694 13.0523 4.35977 11.0017 4.35977 11.0017C4.13698 11.3865 3.99925 11.8227 4 12.2959C3.99775 13.7291 5.17415 14.8904 6.62753 14.8911C6.62753 14.8911 8.49713 14.8948 8.50842 14.8948C8.51444 15.1043 8.34284 15.6541 7.76705 15.6541L5.22082 15.6534C5.22157 15.9877 5.29909 16.325 5.48124 16.6341C6.02842 17.5724 7.24095 17.8934 8.19306 17.3525L8.94496 16.9253C9.06238 17.097 9.26108 17.6037 8.71841 17.9179L7.62781 18.5398C7.75802 18.7619 7.93941 18.9573 8.18026 19.0933C8.90959 19.5094 9.83987 19.2627 10.2629 18.5428L10.3682 18.3645C10.573 18.4514 10.9546 18.9388 10.6655 19.441C10.4555 19.8051 10.3427 19.9923 10.3427 19.9923C10.5248 20.0956 10.7333 20.1609 10.9598 20.1609C11.644 20.1609 12.1987 19.6141 12.1987 18.9365C12.1987 18.9365 12.204 18.6884 12.2363 18.6854C12.9416 18.6854 13.6152 19.3504 13.6152 20.2033L10.7325 21.8311V23.317L8.56788 23.8899L5.89143 19.2471L5.00179 19.7545L8.76508 26.1886L9.65472 25.6812L9.14216 24.803H10.7325C11.5635 24.803 12.2378 24.1373 12.2378 23.317H14.3822L15.1694 24.6625L10.9034 27.0935L12.8919 28.2265L14.2971 26.8394L15.0234 27.0319L14.4567 29.1196L16.0011 30L17.5456 29.1196L16.9788 27.0319L17.7059 26.8394L19.1111 28.2265L21.0996 27.0935L16.8343 24.6625L17.6208 23.317H19.7644C19.7644 24.1373 20.4388 24.803 21.2697 24.803H24.2804C25.1113 24.803 25.7857 24.1373 25.7857 23.317C25.7857 22.4968 25.1113 21.8311 24.2804 21.8311C23.4494 21.8311 22.775 22.4968 22.775 23.317C22.775 23.4634 22.8029 23.6016 22.8428 23.7346L21.2697 23.317V21.8311L18.3855 20.2048C18.3855 19.3518 19.0599 18.6869 19.7644 18.6869C19.7968 18.6899 19.8021 18.938 19.8021 18.938C19.8021 19.6156 20.3568 20.1624 21.0409 20.1624C21.2682 20.1624 21.476 20.097 21.6581 19.9938C21.6581 19.9938 21.546 19.8065 21.3352 19.4425C21.0454 18.9402 21.427 18.4529 21.6325 18.3659L21.7379 18.5442C22.1609 19.2642 23.0912 19.5108 23.8205 19.0948C24.0613 18.9588 24.2435 18.7634 24.3729 18.5413L23.2823 17.9194C22.7397 17.6051 22.9384 17.0992 23.0558 16.9268L23.8077 17.354C24.7598 17.8956 25.9723 17.5739 26.5195 16.6356C26.7017 16.3265 26.7792 15.9892 26.7799 15.6549L24.2337 15.6556C23.6572 15.6556 23.4863 15.1058 23.4923 14.8963C23.5036 14.8963 25.3732 14.8926 25.3732 14.8926C26.8266 14.8918 28.0023 13.7306 28 12.2974Z" fill="white"/>
</svg>
