<svg xmlns="http://www.w3.org/2000/svg" xmlns:xlink="http://www.w3.org/1999/xlink" width="50" height="48" viewBox="0 0 50 48"><defs><path id="a" d="M.957 0h32.326v14.149H.957z"/></defs><g fill="none" fill-rule="evenodd"><path fill="#1A9F29" d="M45.441 9.192l-1.549-2.17-28.607 16.422-13.84-7.952c-.309.929-.516 1.756-.619 2.685l14.562 8.366L45.441 9.192z"/><path fill="#1A9F29" d="M15.285 29.64L.413 21.068C.31 21.585.31 22.204.31 22.721c0 13.529 10.947 24.58 24.58 24.58 13.53 0 24.58-10.948 24.58-24.58 0-4.028-.93-7.849-2.686-11.154L15.285 29.64z"/><path fill="#1A9F29" d="M41.93 4.957c-.723-.723-1.445-1.239-2.168-1.859l-24.477 14.15-11.773-6.714c-.414.723-.827 1.55-1.24 2.375l12.91 7.436L41.93 4.957z"/><g transform="translate(4)"><mask id="b" fill="#fff"><use xlink:href="#a"/></mask><path fill="#1A9F29" d="M33.283 1.446C32.353.93 31.424.413 30.391 0L11.285 11.05 2.713 6.198c-.62.62-1.136 1.343-1.756 2.065l10.224 5.887L33.283 1.446z" mask="url(#b)"/></g></g></svg>