<svg width="107" height="61" viewBox="0 0 107 61" fill="none" xmlns="http://www.w3.org/2000/svg">
<g clip-path="url(#clip0)">
<path fill-rule="evenodd" clip-rule="evenodd" d="M79.7755 40.913C84.4841 40.913 87.9807 37.99 87.9807 33.5589C87.9807 29.2701 85.4009 26.4854 81.0895 26.4854C79.0997 26.4854 77.4578 27.1946 76.2212 28.4181C76.5164 25.8892 78.6287 24.0429 80.9544 24.0429C81.4912 24.0429 85.532 24.0343 85.532 24.0343L87.817 19.6072C87.817 19.6072 82.7439 19.7241 80.3855 19.7241C74.9971 19.8192 71.3574 24.7779 71.3574 30.8007C71.3574 37.8172 74.9072 40.913 79.7755 40.913ZM79.8041 30.4067C81.5524 30.4067 82.7645 31.5698 82.7645 33.5584C82.7645 35.3482 81.6875 36.8229 79.8041 36.827C78.0026 36.827 76.7906 35.4606 76.7906 33.5889C76.7906 31.5998 78.0026 30.4067 79.8041 30.4067ZM106.162 25.4661V40.3796H100.902V29.9181H95.8371V40.3796H90.5771V25.4651H106.162V25.4661ZM63.9783 36.249C65.8335 36.1118 67.0757 35.3869 67.0757 35.3869L69.0223 39.0327C67.7756 39.8435 65.7301 40.3706 64.2474 40.4265C58.9428 40.5251 55.2529 37.2571 55.2529 32.496C55.2529 27.7949 59.1788 24.4491 64.2474 24.4491C66.2558 24.4491 67.9825 24.9945 69.2789 25.9893C68.5709 27.2592 67.2042 29.7983 67.2042 29.7983C67.2042 29.7983 65.3365 28.8075 63.9246 28.8075C61.622 28.8075 59.945 30.1623 59.945 32.526C59.945 34.9492 61.8454 36.3131 63.9783 36.249Z" fill="#1C1C1C"/>
<path d="M0 13.2776L7.2964 26.4815V34.5356L0.00853557 47.7136L0 13.2776Z" fill="#5B57A2"/>
<path d="M28.0151 21.6769L34.8521 17.4344L48.8444 17.4211L28.0151 30.3399V21.6769Z" fill="#D90751"/>
<path d="M27.9766 13.1999L28.0153 30.6815L20.7018 26.1319V0L27.9771 13.1999H27.9766Z" fill="#FAB718"/>
<path d="M48.8445 17.4211L34.8517 17.4343L27.9766 13.1999L20.7018 0L48.844 17.4211H48.8445Z" fill="#ED6F26"/>
<path d="M28.0153 47.7869V39.3054L20.7018 34.8422L20.7058 61L28.0153 47.7869Z" fill="#63B22F"/>
<path d="M34.8351 43.5829L7.2959 26.4815L0 13.2776L48.8149 43.5656L34.8346 43.5829H34.8351Z" fill="#1487C9"/>
<path d="M20.7063 61L28.0148 47.7869L34.8347 43.583L48.8144 43.5657L20.7063 61Z" fill="#017F36"/>
<path d="M0.00854492 47.7137L20.7615 34.8427L13.7844 30.5087L7.29641 34.5357L0.00854492 47.7137Z" fill="#984995"/>
</g>
<defs>
<clipPath id="clip0">
<rect width="107" height="61" fill="white"/>
</clipPath>
</defs>
</svg>
