<svg width="107" height="61" viewBox="0 0 107 61" fill="none" xmlns="http://www.w3.org/2000/svg">
<g clip-path="url(#clip0)">
<path d="M106.162 25.4662V40.3796H100.902V29.9181H95.8374V40.3796H90.5775V25.4651H106.162V25.4662Z" fill="#1C1C1C"/>
<path fill-rule="evenodd" clip-rule="evenodd" d="M79.775 40.913C84.4836 40.913 87.9802 37.99 87.9802 33.5589C87.9802 29.2701 85.4005 26.4854 81.089 26.4854C79.0992 26.4854 77.4574 27.1946 76.2207 28.4181C76.5159 25.8892 78.6282 24.0429 80.9539 24.0429C81.4907 24.0429 85.5315 24.0343 85.5315 24.0343L87.8165 19.6072C87.8165 19.6072 82.7434 19.7241 80.3851 19.7241C74.9966 19.8192 71.3569 24.7779 71.3569 30.8007C71.3569 37.8172 74.9067 40.913 79.775 40.913ZM79.8036 30.4067C81.5519 30.4067 82.764 31.5698 82.764 33.5584C82.764 35.3482 81.687 36.8229 79.8036 36.827C78.0021 36.827 76.7901 35.4606 76.7901 33.5889C76.7901 31.5998 78.0021 30.4067 79.8036 30.4067Z" fill="#1C1C1C"/>
<path d="M67.0757 35.3869C67.0757 35.3869 65.8335 36.1118 63.9783 36.249C61.8454 36.3131 59.945 34.9492 59.945 32.526C59.945 30.1622 61.622 28.8075 63.9246 28.8075C65.3365 28.8075 67.2042 29.7983 67.2042 29.7983C67.2042 29.7983 68.5709 27.2591 69.2789 25.9893C67.9825 24.9945 66.2558 24.4491 64.2474 24.4491C59.1788 24.4491 55.2529 27.7949 55.2529 32.496C55.2529 37.257 58.9428 40.5251 64.2474 40.4265C65.7301 40.3706 67.7756 39.8434 69.0223 39.0326L67.0757 35.3869Z" fill="#1C1C1C"/>
<path d="M0 13.2776L7.2964 26.4815V34.5356L0.00853557 47.7136L0 13.2776Z" fill="#5B57A2"/>
<path d="M28.0151 21.6769L34.8521 17.4343L48.8444 17.4211L28.0151 30.3399V21.6769Z" fill="#D90751"/>
<path d="M27.9766 13.1999L28.0153 30.6815L20.7018 26.1319V0L27.9771 13.1999H27.9766Z" fill="#FAB718"/>
<path d="M48.8445 17.4211L34.8517 17.4343L27.9766 13.1999L20.7018 0L48.844 17.4211H48.8445Z" fill="#ED6F26"/>
<path d="M28.0153 47.7869V39.3054L20.7018 34.8422L20.7058 61L28.0153 47.7869Z" fill="#63B22F"/>
<path d="M34.8351 43.5829L7.2959 26.4815L0 13.2776L48.8149 43.5656L34.8346 43.5829H34.8351Z" fill="#1487C9"/>
<path d="M20.7063 61L28.0148 47.7869L34.8347 43.583L48.8144 43.5657L20.7063 61Z" fill="#017F36"/>
<path d="M0.00854492 47.7137L20.7615 34.8427L13.7844 30.5086L7.29641 34.5357L0.00854492 47.7137Z" fill="#984995"/>
</g>
<defs>
<clipPath id="clip0">
<rect width="107" height="61" fill="white"/>
</clipPath>
</defs>
</svg>
