<svg xmlns="http://www.w3.org/2000/svg" width="214" height="38" viewBox="0 0 214 38"><g fill="none"><path fill="#231F20" d="M58.39 31.36c-3.622 0-5.933-.999-8.176-3.238l1.31-1.31c2.209 2.206 4.037 2.895 6.97 2.895 3.898 0 6.313-1.86 6.313-5.064 0-1.482-.414-2.653-1.345-3.445-.932-.723-1.518-1.034-3.554-1.309l-2.863-.448c-1.863-.275-3.312-.861-4.381-1.791-1.277-1.068-1.933-2.584-1.933-4.513 0-4.134 2.899-6.718 7.625-6.718 3.035 0 4.967.827 7.072 2.653l-1.208 1.205c-1.448-1.377-3.07-2.273-5.968-2.273-3.588 0-5.692 1.929-5.692 5.064 0 1.412.414 2.48 1.277 3.204.862.723 2.277 1.274 3.656 1.515l2.657.414c2.31.31 3.38.758 4.381 1.62 1.345 1.101 2.139 2.79 2.139 4.753 0 4.168-3.14 6.786-8.28 6.786m30.808-20.428l-7.451 16.777h-1.863l-7.59-16.777v20.222h-1.863V6.626h1.863l8.556 18.913 8.348-18.913h1.863v24.528h-1.863zm10.905 12.608h10.28l-5.14-14.434-5.14 14.434zm10.866 1.654H99.516l-2.139 5.96h-2l9.038-24.528h1.656l9.039 24.528h-2.002l-2.139-5.96zM127.841 8.28h-7.244v9.92h7.244c3.174 0 5.416-1.55 5.416-4.96s-2.242-4.96-5.416-4.96zm-.482 11.574h-6.762v11.3h-1.863V6.626h9.349c4.002 0 7.037 2.308 7.037 6.58 0 3.686-2.207 6.029-5.658 6.614l5.934 11.334h-2.173l-5.864-11.3zm19.078 11.3h-1.863V8.279h-7.313V6.626h16.525v1.653h-7.349z"/><path fill="#EC1C24" d="M163.136 31.36c-4.554 0-7.313-3.238-7.313-8.509 0-5.27 2.759-8.508 7.313-8.508 2.276 0 3.726.585 5.485 2.548l-1.207 1.103c-1.415-1.584-2.518-2.101-4.278-2.101-1.898 0-3.416.723-4.416 2.205-.828 1.205-1.139 2.515-1.139 4.753 0 2.24.311 3.549 1.139 4.754 1 1.482 2.518 2.205 4.416 2.205 1.76 0 2.863-.551 4.278-2.101l1.207 1.102c-1.76 1.964-3.209 2.55-5.485 2.55m19.217-14.056c-.931-.93-2.104-1.412-3.45-1.412-1.345 0-2.518.482-3.45 1.412-1.38 1.378-1.483 3.618-1.483 5.547 0 1.929.103 4.168 1.483 5.546.932.93 2.105 1.412 3.45 1.412 1.346 0 2.519-.482 3.45-1.412 1.38-1.378 1.484-3.617 1.484-5.546 0-1.93-.104-4.169-1.484-5.547m1.174 12.23c-1.209 1.206-2.726 1.825-4.623 1.825-1.863 0-3.416-.62-4.623-1.825-1.76-1.757-2.07-4.306-2.07-6.683 0-2.378.31-4.927 2.07-6.683 1.207-1.206 2.76-1.827 4.623-1.827 1.897 0 3.414.62 4.623 1.827 1.759 1.756 2.07 4.305 2.07 6.683 0 2.377-.311 4.926-2.07 6.683m28.495-8.681c0-3.204-1.587-4.961-4.587-4.961-2.899 0-4.693 1.791-4.693 4.65v10.61h-1.76v-10.3c0-3.203-1.586-4.96-4.587-4.96-3.001 0-4.693 1.791-4.693 4.96v10.3h-1.758V14.55h1.758v1.963c1.243-1.447 2.899-2.17 4.934-2.17 2.484 0 4.347 1.068 5.348 3.03 1.241-1.962 3.173-3.03 5.657-3.03 1.828 0 3.312.585 4.381 1.585 1.139 1.102 1.725 2.652 1.725 4.615v10.61h-1.725v-10.3z"/><path fill="#F1F1F2" d="M37.673 37.837H7.588l-7.541-7.53V.263h30.128l7.498 7.489v30.084z"/><path fill="#EC1C24" d="M32.117 25.828H6.712v-2.04h25.405z"/><path fill="#231F20" d="M9.988 21.78c-1.106 0-2.051-.385-2.81-1.141a3.045 3.045 0 0 1-.854-1.576c-.115-.574-.173-1.427-.173-2.537 0-1.11.058-1.964.173-2.538a2.986 2.986 0 0 1 .855-1.576c.757-.756 1.702-1.14 2.809-1.14 2.061 0 3.495 1.23 3.836 3.288l.02.124h-2.217l-.02-.081c-.22-.9-.76-1.356-1.605-1.356-.514 0-.913.165-1.185.489-.395.42-.474.89-.474 2.79s.08 2.369.47 2.785c.276.328.675.492 1.19.492.843 0 1.383-.456 1.604-1.355l.02-.08h2.217l-.02.123c-.341 2.06-1.775 3.288-3.836 3.288m7.586-5.915c-.33 0-.577.094-.78.296-.365.365-.395 1.02-.395 1.717 0 .703.03 1.365.396 1.73.202.203.45.296.78.296.334 0 .594-.097.792-.296.366-.365.397-1.027.397-1.73 0-.697-.03-1.352-.397-1.717-.198-.199-.458-.296-.793-.296m0 5.915c-1.224 0-1.965-.513-2.37-.943-.727-.758-.87-1.659-.87-2.96 0-1.258.147-2.19.87-2.946.406-.429 1.147-.942 2.37-.942 1.3 0 2.052.59 2.384.944.723.753.869 1.685.869 2.945 0 1.301-.142 2.202-.87 2.96-.331.351-1.082.942-2.383.942m12.48-.085v-4.585c0-1.155-.856-1.245-1.12-1.245-.546 0-1.131.316-1.131 1.202v4.628h-2.064v-4.585c0-1.155-.856-1.245-1.118-1.245-.266 0-1.132.09-1.132 1.245v4.585h-2.064v-7.621h2.02v.545c.478-.403 1.1-.63 1.745-.63.836 0 1.5.297 1.975.884.627-.618 1.295-.884 2.212-.884.77 0 1.461.25 1.898.685.574.575.842 1.267.842 2.18v4.84h-2.063z"/></g></svg>