<svg xmlns="http://www.w3.org/2000/svg" width="234" height="38" viewBox="0 0 234 38"><g fill="none"><path fill="#231F20" d="M58.426 31.082c-3.62 0-5.93-.999-8.171-3.238l1.31-1.31c2.206 2.206 4.034 2.895 6.964 2.895 3.896 0 6.31-1.86 6.31-5.064 0-1.482-.414-2.653-1.345-3.446-.931-.723-1.517-1.033-3.552-1.308l-2.86-.448c-1.863-.275-3.31-.861-4.38-1.792-1.275-1.067-1.93-2.583-1.93-4.512 0-4.134 2.896-6.718 7.619-6.718 3.034 0 4.965.827 7.068 2.653l-1.207 1.205c-1.448-1.378-3.068-2.273-5.964-2.273-3.586 0-5.689 1.929-5.689 5.064 0 1.412.414 2.48 1.276 3.203.862.724 2.276 1.275 3.654 1.517l2.655.412c2.31.31 3.379.759 4.379 1.62 1.344 1.102 2.137 2.79 2.137 4.753 0 4.169-3.137 6.787-8.274 6.787m30.789-20.428l-7.447 16.777h-1.862l-7.585-16.777v20.222h-1.862V6.348h1.862l8.55 18.913 8.344-18.913h1.861v24.528h-1.861zm10.897 12.609h10.274L105.25 8.828l-5.137 14.435zm10.86 1.653H99.526l-2.138 5.96h-2l9.034-24.528h1.655l9.032 24.527h-2l-2.137-5.959zm16.861-16.915h-7.24v9.922h7.24c3.172 0 5.413-1.55 5.413-4.961 0-3.41-2.24-4.96-5.413-4.96zm-.483 11.575h-6.757v11.3h-1.862V6.348h9.344c3.999 0 7.033 2.308 7.033 6.58 0 3.685-2.206 6.028-5.655 6.614l5.93 11.334h-2.172l-5.86-11.3zm19.068 11.299h-1.862V8.001h-7.309V6.348h16.514v1.653h-7.343z"/><path fill="#EC1C24" d="M159.245 26.535V15.58h-2.276v-1.309h2.276V8.966h1.758v5.305h3.758v1.309h-3.758v10.99c0 1.756.793 2.755 2.551 2.755h1.207v1.55h-1.517c-2.62 0-4-1.825-4-4.34m19.86-9.508c-.93-.93-2.103-1.412-3.447-1.412-1.345 0-2.517.482-3.448 1.412-1.38 1.378-1.482 3.617-1.482 5.546 0 1.93.103 4.169 1.482 5.547.93.93 2.103 1.412 3.448 1.412 1.344 0 2.516-.482 3.447-1.412 1.38-1.378 1.483-3.618 1.483-5.547 0-1.929-.104-4.168-1.483-5.546m1.173 12.23c-1.208 1.205-2.724 1.825-4.62 1.825-1.862 0-3.414-.62-4.62-1.826-1.758-1.757-2.069-4.305-2.069-6.683 0-2.377.31-4.926 2.068-6.683 1.207-1.206 2.759-1.826 4.62-1.826 1.897 0 3.413.62 4.62 1.826 1.759 1.757 2.069 4.306 2.069 6.683 0 2.378-.31 4.926-2.068 6.683m17.239-.344c-1.241 1.447-2.862 2.17-4.896 2.17-1.827 0-3.31-.517-4.413-1.585-1.137-1.102-1.724-2.652-1.724-4.616v-10.61h1.759v10.3c0 3.204 1.586 4.96 4.585 4.96 3 0 4.689-1.79 4.689-4.96v-10.3h1.759v16.605h-1.76v-1.964zm13.413 2.17c-4.55 0-7.309-3.238-7.309-8.509 0-5.27 2.758-8.509 7.309-8.509 2.275 0 3.724.586 5.482 2.55l-1.206 1.102c-1.415-1.585-2.518-2.101-4.276-2.101-1.896 0-3.413.723-4.413 2.205-.827 1.205-1.138 2.514-1.138 4.753 0 2.24.31 3.549 1.138 4.754 1 1.482 2.517 2.205 4.413 2.205 1.758 0 2.861-.552 4.276-2.101l1.206 1.102c-1.758 1.964-3.207 2.55-5.482 2.55m20.998-10.508c0-3.203-1.586-4.96-4.585-4.96-3 0-4.69 1.79-4.69 4.96v10.3h-1.758V6.349h1.758v9.886c1.242-1.446 2.862-2.17 4.896-2.17 3.827 0 6.137 2.343 6.137 6.201v10.61h-1.758v-10.3z"/><path fill="#F1F1F2" d="M37.65 37.648H7.583l-7.536-7.53V.074h30.109l7.494 7.489v30.084z"/><path fill="#000" d="M25.39 13.832v2.097h2.421v2.61h-2.423v-.054 3.376c0 .14.012.276.085.397.108.178.286.227.477.231.285.005 2.627.002 2.627.002v2.705s-2.435.008-2.895.004c-.447-.005-.886-.056-1.304-.231a2.634 2.634 0 0 1-1.333-1.182 3.036 3.036 0 0 1-.365-1.493v-3.791.043h-1.545v-2.613h1.542v-2.101h2.713z"/><path fill="#EC1C24" d="M30.284 8.679a1.963 1.963 0 1 1-3.926-.003 1.963 1.963 0 0 1 3.926.003"/><path fill="#231F20" d="M14.647 25.67c-2.48 0-4.127-.596-5.507-1.995l-.08-.08 2.036-2.049.081.08c.834.816 1.983 1.213 3.512 1.213 1.14 0 2.5-.297 2.5-1.708 0-.502-.145-.902-.419-1.157-.285-.265-.612-.393-1.246-.489l-1.79-.249c-1.305-.193-2.268-.607-2.946-1.263-.74-.74-1.1-1.721-1.1-3.004 0-2.809 2.077-4.623 5.293-4.623 2.113 0 3.618.543 4.88 1.762l.083.081-1.994 1.99-.08-.077c-.927-.87-2.022-.987-2.973-.987-1.316 0-2.166.688-2.166 1.749 0 .386.141.732.398.971.299.276.775.477 1.307.552l1.75.248c1.33.185 2.226.548 2.903 1.177.786.746 1.185 1.835 1.185 3.236 0 2.765-2.261 4.622-5.627 4.622"/></g></svg>