<svg xmlns="http://www.w3.org/2000/svg" width="383" height="85" viewBox="0 0 383 85"><g fill="none"><path fill="#231F20" d="M132.736 70.26c-8.09 0-13.253-2.236-18.262-7.245l2.927-2.928c4.933 4.932 9.017 6.473 15.567 6.473 8.707 0 14.1-4.16 14.1-11.327 0-3.314-.923-5.934-3.004-7.706-2.081-1.618-3.39-2.312-7.938-2.928l-6.395-1.002c-4.16-.617-7.397-1.927-9.786-4.007-2.851-2.388-4.316-5.78-4.316-10.095 0-9.246 6.474-15.026 17.03-15.026 6.781 0 11.096 1.85 15.797 5.934l-2.697 2.696c-3.236-3.081-6.858-5.085-13.331-5.085-8.014 0-12.714 4.315-12.714 11.328 0 3.158.925 5.548 2.851 7.166 1.926 1.617 5.086 2.851 8.168 3.39l5.933.925c5.163.694 7.552 1.696 9.787 3.622 3.005 2.465 4.777 6.242 4.777 10.633 0 9.324-7.012 15.181-18.494 15.181m68.815-45.695L184.907 62.09h-4.161l-16.953-37.526v45.233h-4.16V14.932h4.16l19.11 42.305 18.648-42.305h4.161v54.865h-4.161zm24.356 28.203h22.964L237.388 20.48l-11.48 32.287zm24.273 3.699h-25.583l-4.777 13.331h-4.47l20.19-54.865h3.698l20.19 54.865h-4.47l-4.778-13.331zm37.685-37.836h-16.182v22.193h16.182c7.09 0 12.098-3.467 12.098-11.096s-5.008-11.096-12.099-11.096zm-1.08 25.892h-15.102v25.275h-4.161V14.932h20.883c8.938 0 15.72 5.162 15.72 14.718 0 8.245-4.932 13.486-12.64 14.795l13.256 25.352h-4.855l-13.1-25.275zm42.617 25.274h-4.161V18.63h-16.335v-3.699h36.91v3.7h-16.414z"/><path fill="#EC1C24" d="M367.472 54.154l-9.94 15.642h-4.778l12.56-18.956-12.02-18.185h4.777l9.401 14.949 9.246-14.949h4.779L369.476 50.84l12.56 18.956h-4.778z"/><path fill="#F1F1F2" d="M85.563 84.406l-67.198.54c-6.63-6.527-10.348-10.185-16.98-16.71L.848 1.037 68.14.499l16.884 16.616.539 67.291z"/><path fill="#EC1C24" d="M68.052 30.343l-4.509.037-.077-9.787 4.507-.036zm-8.642.072l-4.508.036-.044-5.396 4.509-.036z"/><path fill="#231F20" d="M33.315 58.37c-5.539.045-9.226-1.26-12.33-4.358l-.185-.185 4.525-4.598.187.184c1.843 1.815 4.41 2.683 7.845 2.655 2.558-.02 5.6-.71 5.574-3.878-.009-1.13-.342-2.027-.962-2.596-.644-.587-1.377-.87-2.802-1.075l-4.006-.524c-2.912-.408-5.069-1.312-6.596-2.767-1.665-1.64-2.485-3.826-2.508-6.689-.05-6.27 4.554-10.358 11.728-10.415 4.719-.038 8.089 1.15 10.925 3.853l.195.184-4.435 4.456-.186-.176c-2.052-1.93-4.507-2.173-6.635-2.157-3.583.03-4.843 2.07-4.828 3.97.008.868.33 1.642.911 2.174.673.615 1.744 1.056 2.94 1.212l3.918.527c2.975.389 4.977 1.184 6.497 2.578 1.768 1.648 2.677 4.072 2.702 7.202.05 6.174-4.963 10.362-12.474 10.422m27.094-1.019l-3.229-5.352-3.147 5.353H46.28l7.36-10.824-7.085-10.349h7.753l2.872 5.117 2.953-5.117h7.752l-7.082 10.35 7.359 10.823z"/></g></svg>