<svg xmlns="http://www.w3.org/2000/svg" xmlns:xlink="http://www.w3.org/1999/xlink" width="173" height="39" viewBox="0 0 173 39"><defs><path id="a" d="M0 .252h38.444v38.395H0z"/><path id="c" d="M38.444 38.403l-30.494.244L.244 31.05 0 .497 30.537.252 38.2 7.807l.245 30.596z"/></defs><g fill="none" fill-rule="evenodd"><path fill="#231F20" d="M59.851 32.287c-3.672 0-6.014-1.016-8.287-3.294l1.328-1.331c2.238 2.242 4.092 2.943 7.064 2.943 3.952 0 6.4-1.892 6.4-5.15 0-1.507-.42-2.698-1.364-3.504-.945-.735-1.539-1.05-3.602-1.331l-2.903-.456c-1.888-.28-3.357-.876-4.44-1.821-1.294-1.087-1.96-2.628-1.96-4.59 0-4.204 2.939-6.832 7.729-6.832 3.077 0 5.035.84 7.169 2.698l-1.224 1.225c-1.469-1.4-3.112-2.312-6.05-2.312-3.637 0-5.77 1.962-5.77 5.15 0 1.437.42 2.524 1.294 3.26.875.734 2.309 1.295 3.707 1.54l2.693.421c2.342.315 3.426.771 4.44 1.647 1.364 1.12 2.169 2.838 2.169 4.834 0 4.24-3.183 6.903-8.393 6.903M91.08 11.51l-7.554 17.063h-1.888L73.945 11.51v20.567h-1.888V7.13h1.888l8.672 19.235L91.079 7.13h1.889v24.946h-1.889zm11.052 12.824h10.421l-5.21-14.68-5.21 14.68zm11.015 1.681h-11.61l-2.167 6.062h-2.028l9.161-24.946h1.679l9.161 24.946h-2.027l-2.17-6.062zm17.101-17.202h-7.343v10.09h7.343c3.218 0 5.49-1.576 5.49-5.045s-2.272-5.045-5.49-5.045zm-.49 11.772h-6.853v11.492h-1.888V7.13h9.476c4.057 0 7.134 2.347 7.134 6.692 0 3.749-2.238 6.132-5.735 6.727l6.015 11.527h-2.203l-5.945-11.492zm19.34 11.492h-1.888V8.813h-7.413V7.13h16.75v1.682h-7.449z"/><path fill="#EC1D24" d="M166.375 24.964l-4.511 7.112h-2.168l5.699-8.618-5.455-8.269h2.168l4.267 6.797 4.195-6.797h2.17l-5.456 8.269 5.7 8.618h-2.168z"/><g transform="translate(0 .317)"><mask id="b" fill="#fff"><use xlink:href="#a"/></mask><g mask="url(#b)"><use fill="#FFF" xlink:href="#c"/><path stroke="#292929" stroke-width="1.5" d="M37.688 37.659l-.236-29.536-3.611-3.56-3.609-3.559-29.476.237.236 29.493a87307.092 87307.092 0 0 0 7.263 7.161l29.433-.236z"/></g></g><path fill="#EC1D24" d="M30.497 14.138l-2.045.016-.036-4.45 2.046-.016zm-3.921.032l-2.047.017-.019-2.454 2.046-.016z"/><path fill="#231F20" d="M14.734 26.88c-2.514.021-4.187-.572-5.596-1.98l-.084-.085 2.054-2.09.085.084c.837.825 2 1.22 3.56 1.207 1.16-.01 2.541-.323 2.53-1.764-.005-.513-.156-.921-.437-1.18-.293-.267-.625-.395-1.272-.489l-1.818-.238c-1.321-.186-2.3-.596-2.993-1.258-.755-.746-1.127-1.74-1.138-3.041-.023-2.851 2.066-4.71 5.322-4.736 2.141-.017 3.67.523 4.958 1.752l.088.084-2.012 2.026-.085-.08c-.93-.878-2.045-.988-3.01-.98-1.627.012-2.198.94-2.192 1.804.004.395.15.746.414.989.305.28.791.48 1.334.55l1.778.24c1.35.177 2.26.538 2.948 1.172.803.75 1.215 1.852 1.226 3.275.023 2.807-2.252 4.711-5.66 4.739m12.295-.463l-1.465-2.434-1.429 2.434h-3.518l3.34-4.922-3.215-4.705h3.519l1.303 2.326 1.34-2.326h3.518l-3.214 4.705 3.34 4.922z"/></g></svg>