<svg xmlns="http://www.w3.org/2000/svg" xmlns:xlink="http://www.w3.org/1999/xlink" width="64" height="64" viewBox="0 0 64 64"><defs><path id="a" d="M0 64h64V0H0z"/></defs><g fill="none" fill-rule="evenodd"><path fill="#EC231A" d="M60.773 0H50a3 3 0 0 0-3 3v10.773c0 1.658 1.342 3 3 3h10.773a3 3 0 0 0 3-3V3a3 3 0 0 0-3-3zM51 12.773h8.773V4H51v8.773z"/><path stroke="#EC231A" stroke-width="4" d="M0 62h64"/><mask id="b" fill="#fff"><use xlink:href="#a"/></mask><path fill="#EC231A" d="M15 42.353h23.906V15H15v27.353zm4-4h15.906V19H19v19.353z" mask="url(#b)"/><path fill="#FFF" d="M27 50.353h19.906V27H27z" mask="url(#b)"/><path fill="#EC231A" d="M25 52.353h23.906V25H25v27.353zm4-4h15.906V29H29v19.353z" mask="url(#b)"/></g></svg>