<svg xmlns="http://www.w3.org/2000/svg" xmlns:xlink="http://www.w3.org/1999/xlink" width="64" height="64" viewBox="0 0 64 64"><defs><path id="a" d="M0 64h64V0H0z"/></defs><g fill="none" fill-rule="evenodd"><path fill="#EC231A" d="M61 0H50.227a3 3 0 0 0-3 3v10.773c0 1.658 1.342 3 3 3H61a3 3 0 0 0 3-3V3a3 3 0 0 0-3-3zm-9.773 12.773H60V4h-8.773v8.773z"/><path stroke="#EC231A" stroke-width="4" d="M0 62h64"/><mask id="b" fill="#fff"><use xlink:href="#a"/></mask><path fill="#FFF" d="M18.552 50.221H45.51V18.528H18.552z" mask="url(#b)"/><path fill="#EC231A" d="M16.552 52.221H47.51V16.528H16.552v35.693zm4-4H43.51V20.528H20.552v27.693z" mask="url(#b)"/><path stroke="#EC231A" stroke-width="4" d="M20.143 40.116h4" mask="url(#b)"/><path stroke="#EC231A" stroke-dasharray="7.888,3.944" stroke-width="4" d="M28.087 40.116h9.86" mask="url(#b)"/><path stroke="#EC231A" stroke-width="4" d="M39.92 40.116h4" mask="url(#b)"/></g></svg>