<svg xmlns="http://www.w3.org/2000/svg" xmlns:xlink="http://www.w3.org/1999/xlink" width="145" height="39" viewBox="0 0 145 39"><defs><path id="a" d="M0 .488h23.825V39H0z"/><path id="c" d="M0 39.512h34.64V1H0z"/></defs><g fill="none" fill-rule="evenodd"><g transform="translate(0 -1)"><g transform="translate(0 .512)"><mask id="b" fill="#fff"><use xlink:href="#a"/></mask><path fill="#292929" d="M5 2.488c-1.654 0-3 1.346-3 3V34c0 1.654 1.346 3 3 3h13.825c1.654 0 3-1.346 3-3V5.488c0-1.654-1.346-3-3-3H5zM18.825 39H5c-2.757 0-5-2.243-5-5V5.488c0-2.757 2.243-5 5-5h13.825c2.757 0 5 2.243 5 5V34c0 2.757-2.243 5-5 5z" mask="url(#b)"/></g><mask id="d" fill="#fff"><use xlink:href="#c"/></mask><path fill="#292929" d="M1 7.006h21.825v-2H1zm0 24.748h21.825v-2H1zm12.057 3.691h-2.29a1 1 0 1 1 0-2h2.29a1 1 0 1 1 0 2" mask="url(#d)"/><path fill="#EC231A" d="M8.525 21.96l-2.54-2.54-1.93 1.932-1.415-1.414 3.345-3.346 2.54 2.54 6.015-6.015 2.33 2.33 2.456-2.456 1.414 1.414-3.87 3.87-2.33-2.33z" mask="url(#d)"/><path fill="#292929" d="M26.427 15.454h8v-2h-8zm0 4.934h5.417v-2h-5.417zm0 4.935h2.594v-2h-2.594z" mask="url(#d)"/></g><text fill="#292929" font-family="Lato-Semibold, Lato" font-size="18" font-weight="500" transform="translate(0 -1)"><tspan x="45" y="19">Мобильные</tspan> <tspan x="45" y="37">терминалы</tspan></text></g></svg>