<svg xmlns="http://www.w3.org/2000/svg" width="64" height="64" viewBox="0 0 64 64"><g fill="none" fill-rule="evenodd"><path fill="#E42C22" fill-rule="nonzero" d="M33.529 4c2.206 0 4 1.794 4 4v48c0 2.206-1.794 4-4 4H8c-2.206 0-4-1.794-4-4V8c0-2.206 1.794-4 4-4h25.529zm0-4H8C3.6 0 0 3.6 0 8v48c0 4.4 3.6 8 8 8h25.529c4.4 0 8-3.6 8-8V8c0-4.4-3.6-8-8-8z"/><path stroke="#E42C22" stroke-width="4" d="M40.312 53.859H1.218m39.26-43.914H1.051M46.324 22.24h17.625m-17.625 9.87h12.035m-12.035 9.869h6.388"/><path d="M37.503 22.012v.178l.09-.089zm-3.095-2.383l-5.023 5.023-3.98-3.981-10.276 10.276-4.339-4.339-3.673 3.673v5.657l3.673-3.673 4.339 4.339 10.276-10.276 3.98 3.981 5.023-5.023z" fill="#E42C22" fill-rule="nonzero"/></g></svg>