<svg xmlns="http://www.w3.org/2000/svg" width="64" height="64" viewBox="0 0 64 64"><g fill="none" fill-rule="evenodd"><path fill="#EC231A" d="M61 0H50.226a3 3 0 0 0-3 3v10.773a3 3 0 0 0 3 3H61a3 3 0 0 0 3-3V3a3 3 0 0 0-3-3zm-9.774 12.773H60V4h-8.774v8.773z"/><path stroke="#EC231A" stroke-width="4" d="M0 62h64"/><path fill="#E2231A" d="M32 13.071c-10.454 0-18.93 8.475-18.93 18.93 0 10.453 8.476 18.927 18.93 18.927 10.454 0 18.929-8.474 18.929-18.928s-8.475-18.929-18.93-18.929m0 4c8.233 0 14.93 6.696 14.93 14.93 0 8.23-6.697 14.927-14.93 14.927-8.23 0-14.928-6.697-14.928-14.928 0-8.233 6.698-14.929 14.929-14.929"/><path stroke="#E2231A" stroke-width="2" d="M32 32l-8.423-8.322m6.774-2.57L32 32"/><path fill="#FFF" d="M32 27.542c-2.458 0-4.458 2-4.458 4.458s2 4.458 4.458 4.458 4.458-2 4.458-4.458-2-4.458-4.458-4.458m0 2.659a1.799 1.799 0 1 1-.002 3.598A1.799 1.799 0 0 1 32 30.2"/><path fill="#E2231A" d="M32 34.667A2.67 2.67 0 0 1 29.333 32 2.67 2.67 0 0 1 32 29.332 2.67 2.67 0 0 1 34.667 32 2.67 2.67 0 0 1 32 34.667"/></g></svg>