<svg xmlns="http://www.w3.org/2000/svg" xmlns:xlink="http://www.w3.org/1999/xlink" width="217" height="40" viewBox="0 0 217 40"><defs><path id="a" d="M0 .189h37.82v37.88H0z"/><path id="c" d="M37.82 38.068H7.58L0 30.476V.189h30.282l7.538 7.55v30.33z"/><path id="d" d="M0 39.811h215.985V.563H0z"/></defs><g fill="none" fill-rule="evenodd" transform="translate(.9)"><g transform="translate(0 .375)"><mask id="b" fill="#fff"><use xlink:href="#a"/></mask><g mask="url(#b)"><use fill="#FFF" xlink:href="#c"/><path stroke="#292929" stroke-width="1.5" d="M37.07 37.318V8.048l-3.55-3.555L29.972.94H.751v29.227L4.32 33.74v.001l3.571 3.576h29.18z"/></g></g><path fill="#231F20" d="M58.684 31.824c-3.641 0-5.965-1.008-8.219-3.265l1.318-1.32c2.22 2.223 4.057 2.918 7.005 2.918 3.918 0 6.345-1.876 6.345-5.106 0-1.493-.415-2.674-1.352-3.473-.937-.729-1.526-1.042-3.572-1.32l-2.878-.451c-1.872-.278-3.329-.868-4.403-1.806-1.284-1.076-1.943-2.605-1.943-4.55 0-4.167 2.913-6.772 7.664-6.772 3.051 0 4.993.834 7.109 2.674l-1.214 1.215c-1.457-1.388-3.086-2.291-6-2.291-3.606 0-5.72 1.944-5.72 5.105 0 1.424.416 2.5 1.283 3.23.866.729 2.288 1.285 3.675 1.528l2.67.417c2.323.312 3.398.764 4.404 1.632 1.352 1.111 2.15 2.813 2.15 4.792 0 4.203-3.156 6.843-8.322 6.843M89.65 11.229l-7.49 16.913h-1.872l-7.629-16.913v20.386h-1.872V6.887h1.872l8.6 19.067L89.65 6.887h1.873v24.728H89.65zm10.96 12.711h10.334l-5.167-14.552-5.167 14.552zm10.923 1.667h-11.512l-2.15 6.008h-2.01l9.084-24.728h1.665l9.084 24.728h-2.01l-2.15-6.008zm16.958-17.053h-7.281v10.003h7.281c3.19 0 5.445-1.563 5.445-5.001 0-3.439-2.254-5.002-5.445-5.002zm-.485 11.67h-6.796v11.391h-1.873V6.887h9.397c4.023 0 7.074 2.327 7.074 6.634 0 3.716-2.219 6.078-5.687 6.668l5.965 11.426H133.9l-5.895-11.391zm19.177 11.391h-1.872V8.555h-7.35V6.886h16.609v1.667h-7.387z"/><path fill="#EC1D24" d="M163.795 16.23c-4.092 0-4.716 3.542-4.716 7.016 0 3.472.624 7.015 4.716 7.015 4.091 0 4.716-3.543 4.716-7.015 0-3.474-.625-7.016-4.716-7.016m-.347 23.581c-2.497 0-3.78-.66-5.513-2.222l1.179-1.181c1.318 1.216 2.219 1.84 4.334 1.84 3.502 0 5.063-2.465 5.063-5.8v-2.986c-1.491 1.945-3.052 2.362-4.96 2.362-1.767 0-3.224-.59-4.09-1.459-1.7-1.702-2.15-4.48-2.15-7.12 0-2.639.45-5.418 2.15-7.12.866-.868 2.323-1.458 4.09-1.458 1.908 0 3.469.417 4.96 2.362v-2.154h1.768v17.678c0 4.202-2.497 7.258-6.83 7.258m17.477-16.184c-2.844 0-4.266 1.112-4.266 3.37 0 2.222 1.318 3.263 4.37 3.263 1.525 0 2.947-.138 4.16-1.284.624-.59.937-1.667.937-3.196v-2.153h-5.201zm5.201 6.321c-1.422 1.424-2.74 1.876-5.097 1.876-2.497 0-3.85-.417-4.924-1.529-.798-.799-1.214-2.014-1.214-3.264 0-3.056 2.185-4.828 5.826-4.828h5.41v-1.875c0-2.674-1.284-4.098-4.717-4.098-2.358 0-3.537.59-4.612 2.118l-1.283-1.111c1.422-1.98 3.156-2.57 5.895-2.57 4.438 0 6.485 1.98 6.485 5.487v11.461h-1.769v-1.667zm8.081-2.709V16.195h-2.29v-1.32h2.29V9.528h1.768v5.349h3.78v1.32h-3.78v11.078c0 1.771.798 2.779 2.566 2.779h1.214v1.562h-1.526c-2.635 0-4.022-1.84-4.022-4.376m19.419-8.197c-.728-1.771-2.393-2.813-4.335-2.813-1.941 0-3.606 1.042-4.334 2.813-.382 1.077-.486 1.528-.59 3.16h9.848c-.104-1.597-.138-2.153-.59-3.16m-3.813 11.183c1.976 0 3.19-.59 4.611-2.015l1.318 1.043c-1.7 1.701-3.26 2.57-6.034 2.57-4.611 0-7.108-2.987-7.108-8.579 0-5.418 2.497-8.578 6.692-8.578 4.196 0 6.693 3.022 6.693 8.161v.8h-11.617c0 4.27 1.873 6.598 5.445 6.598"/><mask id="e" fill="#fff"><use xlink:href="#d"/></mask><path fill="#EC1D24" d="M21.592 14.425h7.48v-2.403h-7.48z" mask="url(#e)"/><path fill="#231F20" d="M14.333 26.296c-2.493 0-4.148-.6-5.534-2.007l-.08-.082 2.049-2.05.08.08c.824.826 1.978 1.228 3.527 1.228 1.153 0 2.529-.302 2.529-1.735 0-.511-.147-.918-.426-1.178-.288-.268-.618-.398-1.26-.496l-1.802-.251c-1.309-.193-2.276-.61-2.958-1.27-.743-.746-1.105-1.734-1.105-3.023 0-2.826 2.086-4.65 5.316-4.65 2.123 0 3.635.546 4.902 1.773l.084.081-2.007 1.99-.08-.077c-.918-.88-2.023-.998-2.983-.998-1.617 0-2.193.917-2.193 1.775 0 .395.143.746.404.989.302.28.784.484 1.322.559l1.762.252c1.337.185 2.236.55 2.914 1.184.79.75 1.19 1.845 1.19 3.255 0 2.783-2.272 4.651-5.651 4.651m10.707-7.623c-1.277 0-1.533.958-1.533 2.502 0 1.557.256 2.521 1.534 2.521 1.289 0 1.553-1.008 1.553-2.52 0-1.502-.264-2.503-1.553-2.503m-.25 11.718c-1.673 0-2.715-.375-3.716-1.34l-.077-.074 1.71-1.733.073.072c.553.535 1.084.743 1.894.743 1.78 0 1.919-1.515 1.919-1.98v-.762c-.603.585-1.319.847-2.286.847-.997 0-1.872-.326-2.464-.918-.976-.978-1.052-2.304-1.052-4.07 0-1.756.076-3.073 1.052-4.051.584-.584 1.488-.918 2.483-.918 1.015 0 1.694.256 2.344.904v-.789h2.637v9.795c0 2.557-1.815 4.274-4.518 4.274" mask="url(#e)"/></g></svg>