<svg width="44" height="36" viewBox="0 0 44 36" fill="none" xmlns="http://www.w3.org/2000/svg">
<path d="M7.6042 27.6526L3.92196 28.3068L0 5.92029L33.3712 0L35.2537 10.7443H7.6042V27.6526ZM44 13.2688V36H10.1143V13.2688H44ZM41.4899 24.6344C41.4899 22.7692 40.4734 21.159 38.9799 20.2839V18.3201H31.3832C30.5135 16.8174 28.9121 15.7944 27.0597 15.7944C25.2072 15.7944 23.6058 16.8174 22.7361 18.3201H15.1344V20.2839C13.6409 21.159 12.6243 22.7704 12.6243 24.6344C12.6243 26.4983 13.6409 28.1097 15.1344 28.9849V30.9486H22.7361C23.6058 32.4514 25.2072 33.4743 27.0597 33.4743C28.9121 33.4743 30.5135 32.4514 31.3832 30.9486H38.9799V28.9849C40.4734 28.1097 41.4899 26.4996 41.4899 24.6344Z" fill="#F04F48"/>
</svg>
