<svg xmlns="http://www.w3.org/2000/svg" width="64" height="64" viewBox="0 0 64 64"><path fill="#EC231A" fill-rule="evenodd" d="M26.447 26.447a7.853 7.853 0 1 0 11.106 11.106 7.853 7.853 0 0 0 0-11.106 7.853 7.853 0 0 0-11.106 0m9.555 33.049c-8.26 1.14-16.254-1.284-22.332-6.566l6.186-6.185A19.22 19.22 0 0 0 32 51.05c4.933 0 9.867-1.882 13.632-5.646a19.199 19.199 0 0 0 5.536-11.632h8.74c-.55 7.76-4.302 15.335-11.279 20.537a27.48 27.48 0 0 1-12.627 5.186m6.801-16.693A15.177 15.177 0 0 1 32 47.278a15.175 15.175 0 0 1-10.803-4.475c-5.957-5.957-5.957-15.65 0-21.606A15.175 15.175 0 0 1 32 16.722c4.081 0 7.917 1.589 10.803 4.475 5.957 5.957 5.957 15.649 0 21.606m-30.602-30.83C18.635 5.54 27.648 2.622 36.91 4.188a26.992 26.992 0 0 1 10.598 4.25c7.698 5.207 11.821 13.167 12.401 21.335l-8.74-.001a19.196 19.196 0 0 0-5.536-11.631A19.223 19.223 0 0 0 32 12.494a19.221 19.221 0 0 0-13.632 5.647c-7.05 7.05-7.497 18.204-1.34 25.776L10.843 50.1c-9.53-10.987-9.083-27.686 1.358-38.128m42.426-2.6C48.38 3.123 40.19 0 32 0S15.621 3.124 9.372 9.373c-12.496 12.496-12.496 32.758 0 45.255C15.622 60.876 23.81 64 32 64s16.38-3.124 22.627-9.372c12.497-12.497 12.497-32.76 0-45.255"/></svg>