<svg width="50" height="50" fill="none" xmlns="http://www.w3.org/2000/svg"><path d="M25.013 50.026c13.814 0 25.013-11.199 25.013-25.013C50.026 11.199 38.827 0 25.013 0 11.199 0 0 11.199 0 25.013c0 13.814 11.199 25.013 25.013 25.013z" fill="url(#paint0_linear)"/><path d="M34.555 14.82s2.603-1.012 2.386 1.445c-.073 1.013-.723 4.555-1.23 8.386l-1.734 11.35s-.145 1.663-1.446 1.952c-1.301.29-3.253-1.012-3.615-1.301-.289-.217-5.422-3.47-7.229-5.06-.506-.434-1.084-1.302.072-2.314l7.591-7.23c.868-.867 1.735-2.89-1.88-.433l-10.12 6.868s-1.157.723-3.326.072L9.325 27.11s-1.735-1.084 1.23-2.169c7.228-3.397 16.12-6.867 24-10.12z" fill="#fff"/><defs><linearGradient id="paint0_linear" x1="33.254" y1="7.952" x2="20.965" y2="37.592" gradientUnits="userSpaceOnUse"><stop stop-color="#2AABEE"/><stop offset="1" stop-color="#229ED9"/></linearGradient></defs></svg>