<svg width="50" height="50" viewBox="0 0 50 50" fill="none" xmlns="http://www.w3.org/2000/svg">
<rect width="50" height="50" rx="25" fill="#2787F5"/>
<g clip-path="url(#clip0)">
<path d="M7 24.25C7 16.1183 7 12.0524 9.5262 9.5262C12.0524 7 16.1183 7 24.25 7H25.75C33.8817 7 37.9476 7 40.4738 9.5262C43 12.0524 43 16.1183 43 24.25V25.75C43 33.8817 43 37.9476 40.4738 40.4738C37.9476 43 33.8817 43 25.75 43H24.25C16.1183 43 12.0524 43 9.5262 40.4738C7 37.9476 7 33.8817 7 25.75L7 24.25Z" fill="#2787F5"/>
<path fill-rule="evenodd" clip-rule="evenodd" d="M14.7905 16.6022H11.5576C10.634 16.6022 10.4492 17.0369 10.4492 17.5162C10.4492 18.3724 11.5452 22.6183 15.5524 28.234C18.2239 32.069 21.9878 34.1479 25.4128 34.1479C27.4678 34.1479 27.722 33.6862 27.722 32.8909V29.9924C27.722 29.0689 27.9167 28.8846 28.5673 28.8846C29.0469 28.8846 29.8689 29.1243 31.7869 30.9734C33.9789 33.1648 34.3403 34.1479 35.5732 34.1479H38.806C39.7298 34.1479 40.1916 33.6862 39.9252 32.775C39.6336 31.8669 38.5871 30.5492 37.1984 28.9874C36.4448 28.097 35.3146 27.1383 34.9721 26.6588C34.4926 26.0425 34.6296 25.7685 34.9721 25.2207C34.9721 25.2207 38.9108 19.6735 39.3219 17.7903C39.5273 17.1054 39.3219 16.6022 38.3442 16.6022H35.1114C34.2894 16.6022 33.9104 17.0369 33.7048 17.5162C33.7048 17.5162 32.0609 21.5226 29.7319 24.125C28.9784 24.8782 28.6359 25.118 28.2248 25.118C28.0194 25.118 27.7219 24.8782 27.7219 24.1935V17.7903C27.7219 16.9684 27.4834 16.6022 26.7983 16.6022H21.718C21.2044 16.6022 20.8954 16.9836 20.8954 17.3451C20.8954 18.1241 22.0599 18.3038 22.1799 20.4953V25.255C22.1799 26.2985 21.9914 26.4877 21.5804 26.4877C20.4845 26.4877 17.8185 22.4635 16.2374 17.8587C15.9276 16.9637 15.6167 16.6022 14.7905 16.6022Z" fill="white"/>
</g>
<defs>
<clipPath id="clip0">
<rect width="36" height="36" fill="white" transform="translate(7 7)"/>
</clipPath>
</defs>
</svg>
