<svg width="32" height="32" viewBox="0 0 32 32" fill="none" xmlns="http://www.w3.org/2000/svg">
<circle cx="16" cy="16" r="16" fill="white"/>
<path d="M16 0C7.164 0 0 7.164 0 16C0 24.836 7.164 32 16 32C24.836 32 32 24.836 32 16C32 7.164 24.836 0 16 0ZM25.5333 21.6479L16.516 30.6667L18.588 22.9333L14.7093 19.056L16.216 17.5506L13.3333 14.6667V14.7067L6.52133 7.84408L9.508 2.66667H16V5.33333H21.72L19.3187 9.51074C18.952 10.1494 18.0573 10.6667 17.32 10.6667H13.3333V14.6667H22.3227L25.5347 17.8773C26.5747 18.9186 26.5747 20.6066 25.5333 21.6479Z" fill="#515151"/>
</svg>
