<svg xmlns="http://www.w3.org/2000/svg" width="18" height="13" viewBox="0 0 18 13"><path fill-opacity=".3" d="M17.578 10.464c-.22.952-.997 1.653-1.934 1.758-2.218.248-4.464.249-6.7.248-2.235.001-4.48 0-6.699-.248-.937-.105-1.715-.806-1.933-1.758C0 9.11 0 7.63 0 6.235s.004-2.874.315-4.23c.219-.95.997-1.653 1.933-1.757C4.467 0 6.712-.002 8.948 0c2.236-.001 4.481 0 6.7.248.936.104 1.715.806 1.933 1.758.312 1.355.31 2.834.31 4.23 0 1.394-.002 2.873-.313 4.228zM7.112 3.301v5.717l4.951-2.859-4.951-2.858z"/></svg>