<svg width="50" height="50" fill="none" xmlns="http://www.w3.org/2000/svg"><rect width="50" height="50" rx="25" fill="red"/><g clip-path="url(#clip0)"><path d="M38.794 18.123a3.567 3.567 0 00-2.51-2.526C34.064 15 25.194 15 25.194 15s-8.871 0-11.09.597a3.566 3.566 0 00-2.51 2.526C11 20.352 11 25 11 25s0 4.648.594 6.877a3.568 3.568 0 002.51 2.526c2.219.597 11.09.597 11.09.597s8.87 0 11.09-.597a3.567 3.567 0 002.51-2.526c.593-2.229.593-6.877.593-6.877s0-4.648-.593-6.877zM22.29 29.22v-8.442L29.71 25l-7.42 4.221z" fill="#fff"/></g><defs><clipPath id="clip0"><path fill="#fff" transform="translate(11 15)" d="M0 0h28.387v20H0z"/></clipPath></defs></svg>