<svg width="56" height="56" viewBox="0 0 56 56" fill="none" xmlns="http://www.w3.org/2000/svg">
<path d="M28 0.00390625C20.832 0.00390625 15 5.83591 15 13.0039C15 20.1719 20.832 26.0039 28 26.0039C35.168 26.0039 41 20.1719 41 13.0039C41 5.83591 35.168 0.00390625 28 0.00390625ZM29.315 20.1309V22.2539H27.315V20.2199C24.589 19.9679 22.541 18.2319 22.541 16.0579H24.541C24.541 17.2479 26.125 18.2539 28 18.2539C29.875 18.2539 31.459 17.2479 31.459 16.0579C31.459 14.8799 30.609 14.5139 28.058 14.0119C25.874 13.5819 22.883 12.9939 22.883 9.80389C22.883 7.64289 24.711 6.03088 27.316 5.78888V3.75391H29.316V5.88391C31.605 6.32991 33.209 7.92789 33.209 9.94989H31.209C31.209 8.69789 29.83 7.75391 28.001 7.75391C26.165 7.75391 24.884 8.59689 24.884 9.80389C24.884 11.2029 25.969 11.5629 28.445 12.0499C30.561 12.4659 33.461 13.0359 33.461 16.0579C33.459 18.0599 31.72 19.6889 29.315 20.1309ZM27 47.7149V55.0039H0V47.7149L0.0120239 47.6949C0.0330239 46.6799 0.557 45.6989 1.5 45.1539L8.82703 40.9119L13.5 49.0019L18.172 40.9119L25.5 45.1539C26.443 45.6989 26.968 46.6799 26.988 47.6949L27 47.7149ZM13.5 26.5019C10.187 26.5019 7.5 29.1879 7.5 32.5019C7.5 35.8179 10.187 38.5039 13.5 38.5039C16.814 38.5039 19.5 35.8179 19.5 32.5019C19.5 29.1879 16.814 26.5019 13.5 26.5019ZM56 47.7149V55.0039H29V47.7149L29.012 47.6949C29.033 46.6799 29.557 45.6989 30.5 45.1539L37.827 40.9119L42.5 49.0019L47.172 40.9119L54.5 45.1539C55.443 45.6989 55.968 46.6799 55.988 47.6949L56 47.7149ZM42.5 26.5019C39.187 26.5019 36.5 29.1879 36.5 32.5019C36.5 35.8179 39.187 38.5039 42.5 38.5039C45.814 38.5039 48.5 35.8179 48.5 32.5019C48.5 29.1879 45.814 26.5019 42.5 26.5019Z" fill="#6387AB"/>
</svg>
