<svg width="61" height="45" viewBox="0 0 61 45" fill="none" xmlns="http://www.w3.org/2000/svg">
<path d="M60.6897 39.4522C60.6897 41.9663 58.6505 44.0039 56.1379 44.0039H4.55172C2.03917 44.0039 0 41.9663 0 39.4522H23.4004L24.2759 40.9694H36.4138L37.2892 39.4522H60.6897ZM56.1379 0.00390625V31.866C56.1379 34.3785 54.0988 36.4177 51.5862 36.4177H9.10345C6.5909 36.4177 4.55172 34.3785 4.55172 31.866V0.00390625H56.1379ZM18.2069 13.6591H15.1724V25.797H18.2069V13.6591ZM27.3103 10.6246H24.2759V22.7625H27.3103V10.6246ZM36.4138 13.6591H33.3793V25.797H36.4138V13.6591ZM45.5172 7.59011H42.4828V19.728H45.5172V7.59011Z" fill="#6387AB"/>
</svg>
