<svg width="56" height="57" viewBox="0 0 56 57" fill="none" xmlns="http://www.w3.org/2000/svg">
<path d="M34.2023 37.181C26.5914 35.413 20.5909 29.4125 18.8229 21.8016C18.2697 21.7479 17.7097 21.7182 17.1429 21.7182C7.67543 21.7182 0 29.3936 0 38.861C0 48.3285 7.67543 56.0039 17.1429 56.0039C26.6103 56.0039 34.2857 48.3285 34.2857 38.861C34.2857 38.2942 34.2566 37.7336 34.2023 37.181ZM18.6463 47.0062V49.4325H16.3606V47.1073C13.2451 46.8193 10.904 44.8353 10.904 42.3513H13.1897C13.1897 43.7119 15 44.8616 17.1429 44.8616C19.2857 44.8616 21.096 43.7119 21.096 42.3513C21.096 41.0051 20.1251 40.5868 17.208 40.0131C14.7126 39.5222 11.2943 38.8502 11.2943 35.2033C11.2943 32.7342 13.3829 30.8919 16.36 30.6159V28.2902H18.6457V30.7239C21.2617 31.2348 23.0943 33.0605 23.0943 35.3719H20.8086C20.8086 33.941 19.2326 32.8616 17.1423 32.8616C15.0446 32.8616 13.58 33.8251 13.58 35.2039C13.58 36.8039 14.82 37.2148 17.6491 37.7708C20.068 38.2462 23.3817 38.8982 23.3817 42.3519C23.3817 44.6393 21.3937 46.501 18.6463 47.0062ZM38.8571 0.00390625C29.3897 0.00390625 21.7143 7.67933 21.7143 17.1468C21.7143 26.6142 29.3897 34.2896 38.8571 34.2896C48.3246 34.2896 56 26.6142 56 17.1468C56 7.67933 48.3246 0.00390625 38.8571 0.00390625ZM40.8474 15.7182V17.7171H36.8297V21.0085C36.8297 21.7839 36.6274 22.5125 36.276 23.1468H44.8474V25.4325H32.4606V25.4319C32.4594 25.4319 32.4583 25.4325 32.276 25.4325V23.1468C33.636 23.1468 34.5954 22.1873 34.5954 21.0085V17.7171H32.276V15.7182H34.5954V13.1468C34.5954 10.1536 37.0309 7.71819 40.024 7.71819C42.9206 7.71819 45.2886 10.001 45.4383 12.861H43.1526C43.0074 11.2616 41.6606 10.0039 40.024 10.0039C38.2914 10.0039 36.8297 11.4142 36.8297 13.1468V15.7182H40.8474Z" fill="#6387AB"/>
</svg>
