<svg xmlns="http://www.w3.org/2000/svg" width="44" height="44" viewBox="0 0 44 44"><path fill="#7DB7B7" d="M16.133 27.867a.735.735 0 0 0 0-1.467.735.735 0 0 0 0 1.467m11-.734a.734.734 0 1 0 1.468-.001.734.734 0 0 0-1.468.001m-11 2.2c-1.213 0-2.2-.987-2.2-2.2s.987-2.2 2.2-2.2c.955 0 1.761.615 2.065 1.467h7.604a2.195 2.195 0 0 1 2.065-1.467c1.213 0 2.2.987 2.2 2.2s-.987 2.2-2.2 2.2a2.196 2.196 0 0 1-2.065-1.466h-7.604a2.197 2.197 0 0 1-2.065 1.466M27.867 5.867a.734.734 0 1 0 .001 1.468.734.734 0 0 0-.001-1.468m-11 .733a.735.735 0 0 0-1.467 0 .735.735 0 0 0 1.467 0m11-2.2c1.213 0 2.2.987 2.2 2.2s-.987 2.2-2.2 2.2a2.197 2.197 0 0 1-2.065-1.467h-7.604A2.197 2.197 0 0 1 16.133 8.8c-1.213 0-2.2-.987-2.2-2.2s.987-2.2 2.2-2.2c.955 0 1.761.615 2.065 1.467h7.604A2.195 2.195 0 0 1 27.867 4.4m14.666 13.933V3.667c0-1.213-.987-2.2-2.2-2.2H3.667c-1.213 0-2.2.987-2.2 2.2v37.4h41.066V22H3.667a.734.734 0 0 1 0-1.467h39.6c.405 0 .733.329.733.734V41.8a.733.733 0 0 1-.733.733h-2.2v.734a.733.733 0 1 1-1.467 0v-.734H4.4v.734a.734.734 0 0 1-1.467 0v-.734h-2.2A.734.734 0 0 1 0 41.8V3.667A3.67 3.67 0 0 1 3.667 0h36.666A3.67 3.67 0 0 1 44 3.667v14.666a.733.733 0 1 1-1.467 0"/></svg>