<svg xmlns="http://www.w3.org/2000/svg" width="44" height="44" viewBox="0 0 44 44"><path fill="#7DB7B7" d="M6.815 36.452a.731.731 0 0 0 1.037 0L11 33.304l3.148 3.148a.731.731 0 0 0 1.037 0 .733.733 0 0 0 0-1.037l-3.148-3.148 3.148-3.149a.733.733 0 1 0-1.037-1.036L11 31.23l-3.148-3.148a.733.733 0 1 0-1.037 1.036l3.148 3.149-3.148 3.148a.733.733 0 0 0 0 1.037zM28.6 35.2h8.8a.734.734 0 0 0 0-1.467h-8.8a.734.734 0 0 0 0 1.467zm0-4.4h8.8a.734.734 0 0 0 0-1.467h-8.8a.734.734 0 0 0 0 1.467zm0-20.533a.734.734 0 0 0 0 1.466h8.8a.734.734 0 0 0 0-1.466h-8.8zM11 16.133a.734.734 0 0 0 .733-.733v-3.667H15.4a.734.734 0 0 0 0-1.466h-3.667V6.6a.734.734 0 0 0-1.466 0v3.667H6.6a.734.734 0 0 0 0 1.466h3.667V15.4c0 .405.328.733.733.733zM44 3.667v36.666C44 42.218 42.218 44 40.333 44H3.667C1.782 44 0 42.218 0 40.333V3.667C0 1.782 1.782 0 3.667 0h14.666a.734.734 0 0 1 0 1.467H3.667c-1.07 0-2.2 1.13-2.2 2.2v36.666c0 1.07 1.13 2.2 2.2 2.2h36.666c1.07 0 2.2-1.13 2.2-2.2V3.667c0-1.07-1.13-2.2-2.2-2.2h-17.6v19.066h17.6a.734.734 0 0 1 0 1.467h-17.6v18.333a.734.734 0 0 1-1.466 0V22h-17.6a.734.734 0 0 1 0-1.467h17.6V.733C21.267.33 21.595 0 22 0h18.333C42.218 0 44 1.782 44 3.667z"/></svg>