<svg xmlns="http://www.w3.org/2000/svg" width="25" height="16" viewBox="0 0 25 16"><path fill-opacity=".3" d="M.005 7.818C-.148 3.792 3.379.072 7.408.024c2.054-.175 4.051.623 5.607 1.923-.638.7-1.287 1.395-1.98 2.043-1.369-.831-3.015-1.466-4.616-.902C3.84 3.82 2.278 6.867 3.234 9.39c.789 2.637 3.995 4.083 6.508 2.975 1.3-.465 2.157-1.665 2.535-2.955-1.492-.03-2.983-.012-4.473-.053A285.03 285.03 0 0 1 7.799 6.7c2.487-.005 4.977-.011 7.468.01.151 2.174-.169 4.5-1.583 6.245-1.933 2.49-5.508 3.221-8.417 2.243-3.085-1.013-5.33-4.122-5.262-7.38zm20.107-3.356h2.218c.004.744.01 1.489.015 2.23.742.007 1.487.012 2.229.015V8.93c-.742.003-1.487.006-2.229.011-.008.745-.011 1.487-.015 2.232-.741-.003-1.484 0-2.221 0-.008-.745-.008-1.487-.015-2.228-.742-.009-1.488-.012-2.23-.015V6.707c.742-.005 1.483-.008 2.23-.015.003-.741.01-1.486.018-2.23z"/></svg>