<svg xmlns="http://www.w3.org/2000/svg" xmlns:xlink="http://www.w3.org/1999/xlink" width="152" height="41" viewBox="0 0 152 41"><defs><path id="a" d="M.023 25.995h55.419V.332H.022z"/></defs><g fill="none" fill-rule="evenodd"><path fill="#A8A8A8" d="M10.118 19.995h5.058V5h-5.058v14.995zm10.117 9.988h5.059V9.998h-5.06v19.985zm60.706-9.988H86V9.998h-5.06v9.997zM60.705 30.002h5.06V10.007h-5.06v19.995zM70.824 35h5.058V15.006h-5.058V35zM0 29.992h5.059v-9.997H0v9.997z"/><path fill="#EC231A" d="M51 41h5V16h-5zM30 10h5V0h-5zm0 31h5V16h-5zm11 0h5V0h-5zm10-31h5V0h-5z"/><g transform="translate(96 15)"><mask id="b" fill="#fff"><use xlink:href="#a"/></mask><path fill="#EC231A" d="M50.703 24.908v-9.31h-.988v10.176h5.727v-.866h-4.739zm-5.821-5.595c.352.871.714 1.811 1.086 2.82h-4.3c.37-1.008.728-1.946 1.073-2.816a96.77 96.77 0 0 1 1.066-2.574c.364.842.722 1.698 1.075 2.57zm3.481 6.461a242.828 242.828 0 0 1-1.113-2.961 94.042 94.042 0 0 0-.997-2.598c-.328-.817-.652-1.601-.971-2.356a61.855 61.855 0 0 0-1.011-2.261h-.872a71.449 71.449 0 0 0-1.017 2.264 107.316 107.316 0 0 0-1.975 4.95c-.34.916-.702 1.903-1.084 2.962h1.032c.18-.496.35-.976.51-1.438.162-.461.326-.912.494-1.351h4.92c.148.436.302.886.463 1.348.162.461.339.942.53 1.441h1.091zM31.736 15.598v.866h3.227v9.31h.988v-9.31h3.226v-.866h-7.441zm-3.183 10.176h.988V15.598h-.988v10.176zM23.14 16.48c.378.068.714.188 1.01.36.295.171.533.404.712.697.18.294.269.666.269 1.116 0 .47-.083.857-.247 1.16-.165.304-.4.542-.705.713a3.203 3.203 0 0 1-1.105.352 9.9 9.9 0 0 1-1.446.095h-1.25V16.48c.185-.02.405-.042.662-.066a9.94 9.94 0 0 1 .937-.037c.397 0 .785.034 1.163.103zm-2.522-.903c-.47.044-.88.115-1.228.213v9.985h.988V21.84h1.366c.688 0 1.306-.056 1.853-.169.548-.112 1.01-.294 1.389-.543.377-.25.668-.578.872-.984.203-.406.305-.898.305-1.476 0-1.009-.349-1.787-1.046-2.335-.698-.548-1.76-.822-3.183-.822-.407 0-.846.022-1.316.066zm-6.479 3.737c.353.871.715 1.811 1.087 2.82h-4.3c.37-1.008.728-1.946 1.073-2.816.346-.87.7-1.728 1.065-2.574.365.842.723 1.698 1.075 2.57zm3.481 6.461a255.458 255.458 0 0 1-1.112-2.961 92.897 92.897 0 0 0-.998-2.598c-.328-.817-.652-1.601-.97-2.356a60.643 60.643 0 0 0-1.012-2.261h-.871a73.115 73.115 0 0 0-1.017 2.264 105.563 105.563 0 0 0-1.975 4.95c-.34.916-.702 1.903-1.084 2.962h1.031c.18-.496.35-.976.511-1.438.161-.461.325-.912.493-1.351h4.92c.148.436.302.886.464 1.348.161.461.338.942.53 1.441h1.09zm-11.873.155a6.759 6.759 0 0 0 1.497-.368c.165-.063.281-.119.35-.168l-.277-.852c-.223.127-.55.253-.981.375-.431.122-.967.183-1.606.183-.581 0-1.097-.103-1.548-.308-.45-.206-.83-.5-1.141-.882a3.921 3.921 0 0 1-.705-1.388 6.47 6.47 0 0 1-.24-1.828c0-.655.08-1.253.24-1.791.16-.538.4-1.004.72-1.395a3.243 3.243 0 0 1 1.184-.91c.47-.216 1.02-.324 1.65-.324.552 0 1.015.071 1.388.213.373.142.68.286.923.434l.32-.867a2.65 2.65 0 0 0-.379-.199 5.694 5.694 0 0 0-1.41-.404 6.682 6.682 0 0 0-1.031-.072c-.61 0-1.197.114-1.759.344-.562.23-1.056.57-1.482 1.021-.427.45-.768 1.006-1.025 1.667-.257.661-.385 1.417-.385 2.269 0 .852.118 1.608.356 2.269.237.66.562 1.216.974 1.666.412.45.896.793 1.453 1.029.557.234 1.16.352 1.81.352a8.47 8.47 0 0 0 1.104-.066zm6.392-15.42h1.41V.332h-1.41V10.51zM2.917.332v1.234h3.168v8.943h1.41V1.566h3.169V.332H2.917zM.023 10.509h1.41V.332H.023v10.177z" mask="url(#b)"/></g></g></svg>