<svg xmlns="http://www.w3.org/2000/svg" xmlns:xlink="http://www.w3.org/1999/xlink" width="211" height="50" viewBox="0 0 211 50"><defs><path id="a" d="M0 49.275h210.673V.165H0z"/></defs><g fill="none" fill-rule="evenodd"><path fill="#231F20" d="M92.286 12.885L82.637 34.64h-2.413l-9.827-21.755v26.222h-2.412V7.301h2.412l11.079 24.525L92.286 7.3h2.412v31.806h-2.412zm13.226 16.35h13.312l-6.657-18.717-6.655 18.717zm14.07 2.144h-14.83l-2.77 7.728h-2.59l11.704-31.805h2.144l11.703 31.805h-2.59l-2.77-7.728zm16.576 7.728h-2.412V9.446h-9.47V7.3h21.397v2.145h-9.515z"/><g transform="translate(0 .56)"><path fill="#231F20" d="M163.721 8.886h-9.38v12.865h9.38c4.11 0 7.014-2.01 7.014-6.432 0-4.423-2.903-6.433-7.014-6.433zm-.625 15.01h-8.755v14.652h-2.412V6.742h12.105c5.182 0 9.113 2.993 9.113 8.532 0 4.78-2.858 7.818-7.326 8.577l7.684 14.697h-2.815l-7.594-14.653z"/><mask id="b" fill="#fff"><use xlink:href="#a"/></mask><path fill="#231F20" d="M180.387 38.548h2.412V6.742h-2.412z" mask="url(#b)"/><path fill="#EC1D24" d="M199.55 24.387l-8.308 14.16h-2.725l9.739-16.304-9.113-15.501h2.814l7.594 13.356 7.638-13.356h2.77l-9.113 15.5 9.828 16.306h-2.815z" mask="url(#b)"/><path fill="#E5E6E7" d="M0 32.905h16.37v-16.37H0z" mask="url(#b)"/><path fill="#EC1D24" d="M0 16.535h16.37V.165H0z" mask="url(#b)"/><path fill="#D0D2D3" d="M16.37 49.275h16.37v-16.37H16.37z" mask="url(#b)"/><path fill="#9C9EA1" d="M16.37 32.905h16.37v-16.37H16.37z" mask="url(#b)"/><path fill="#E5E6E7" d="M16.37 16.535h16.37V.165H16.37zm16.37 32.74h16.37v-16.37H32.74z" mask="url(#b)"/><path fill="#D0D2D3" d="M32.74 32.905h16.37v-16.37H32.74z" mask="url(#b)"/></g></g></svg>