<svg xmlns="http://www.w3.org/2000/svg" width="33" height="34" viewBox="0 0 33 34"><path fill="#999" fill-rule="evenodd" d="M27.455 23.48c-.291-1.327-.915-2.325-1.788-3.08-.302-.312-.666-.533-1.08-.769a3.824 3.824 0 0 0-.633-.292c-.453-.17-1.048-.367-1.788-.293.37-.185.923-.193 1.49-.184.471.05.861.178 1.265.293.339.18.674.364 1.007.55.816-2.402.503-5.688-.41-7.806-.883-2.221-2.166-4.05-3.835-5.496-1.642-1.476-3.614-2.627-6.22-3.152-1.29-.274-2.913-.23-4.097.037A9.234 9.234 0 0 0 8.201 4.79c-.836.729-1.647 1.483-2.198 2.492-.198.196-.283.503-.447.733a13.33 13.33 0 0 1-.372.806c-.192.58-.413 1.133-.522 1.796-.297 1.2-.351 2.848-.148 4.141.153 1.389.567 2.52 1.006 3.628.27.515.518 1.053.818 1.538.286.49.639.911.97 1.357.75.8 1.556 1.546 2.494 2.162 1.902 1.22 4.086 2.16 7.076 2.308.059-.12-.08-.359-.112-.513-.044-.176-.062-.378-.112-.549a5.316 5.316 0 0 1 0-1.246c.119.03.115.18.187.257.063.071.087.182.186.22.075.206.238.327.335.512.281.286.5.632.857.843.284.283.663.47 1.005.696.37.187.685.426 1.118.55.74.383 1.732.518 2.719.66.994.132 1.954.299 2.867.513.84.284 1.697.552 2.383.988.362.206.72.417 1.043.66.158.125.357.21.484.367.196.076.282.26.484.33.578.542 1.15 1.092 1.64 1.721.202.363.478.653.632 1.064.136.147.176.388.298.549.008.208.213.458.037.623-.277.04-.22-.247-.335-.366-.09-.144-.201-.268-.262-.44-.435-.45-.825-.945-1.303-1.355-.471-.403-.936-.815-1.49-1.136-1.04-.724-2.245-1.283-3.65-1.65-1.381-.394-2.931-.552-4.728-.44-.79.103-1.542.243-2.198.476-.705.173-1.491.268-2.271.367-3.048.185-6.443-.531-8.715-1.612-1.213-.552-2.329-1.202-3.277-2.015-.518-.37-.942-.833-1.378-1.283-.398-.475-.818-.93-1.117-1.503-.398-.487-.634-1.135-.969-1.685-.217-.653-.526-1.217-.67-1.942C.338 18.757.2 18.015.12 17.213c-.013-.22-.114-.645-.113-.99 0-.03.04-.057.038-.11-.017-.312-.092-.793 0-1.062-.017-.726.116-1.62.26-2.309.134-.735.333-1.407.56-2.052.221-.66.515-1.252.781-1.869.18-.264.315-.569.484-.842.142-.288.356-.505.485-.807.143-.079.169-.273.297-.366.058-.163.213-.231.261-.403.122-.1.219-.225.298-.367.113-.109.232-.212.298-.367.444-.43.84-.907 1.303-1.319.461-.425.977-.797 1.453-1.209.303-.142.52-.367.82-.513.226-.204.556-.307.781-.513.621-.268 1.15-.627 1.825-.843.582-.295 1.279-.476 1.937-.696 1.43-.361 2.872-.61 4.654-.55.064.008.097-.062.112 0 3.375.1 5.834 1.1 7.933 2.456 2.079 1.362 3.688 3.186 4.841 5.46 1.128 2.252 1.762 5.313 1.23 8.538a17.073 17.073 0 0 1-1.23 3.92c-.304.557-.576 1.144-.931 1.65a4.886 4.886 0 0 1-.521.77 1.547 1.547 0 0 1-.26.366c-.044.067-.099.124-.15.184-.016.032-.032.065-.074.073.01.065-.035.075-.037.036zm-1.506.684c-.555-.219-.648-.898-.9-1.42-.045-.192-.084-.48 0-.663.038-.01.047-.048.095-.048.14-.09.273.024.473.095.272.312.445.723.568 1.183.01.373.038.764-.236.853zm-3.977-1.133c.009-.054.048-.026.048 0 .839.107 1.224.668 1.277 1.562-.074.494-.351.785-.805.9-1.13.018-1.773-1.022-1.372-2.083.225-.185.385-.435.852-.379z"/></svg>