<svg xmlns="http://www.w3.org/2000/svg" width="215" height="96" viewBox="0 0 215 96"><g fill="none" fill-rule="evenodd"><path fill="#EC231A" d="M0 96h215V0H0z"/><path fill="#FFF" fill-opacity=".5" d="M38.49 45.358h5.244v-15.73H38.49v15.73zm10.488 10.479h5.243V34.872h-5.243v20.965zm41.948.02h5.243V34.881h-5.243v20.974zm20.974-10.5h5.243V34.872H111.9v10.486zM101.414 61.1h5.243V40.126h-5.243V61.1zm-73.41-5.255h5.242V45.358h-5.243v10.488z"/><path fill="#FFF" d="M80.439 66.333h5.243V40.115h-5.243zM59.464 34.872h5.243V24.385h-5.243zm0 31.461h5.243V40.115h-5.243zm10.487 0h5.243V24.385h-5.243zm10.488-31.461h5.243V24.385h-5.243zm47.192 15.73h1.468V40.115h-1.468zm11.079-10.486v1.27h-3.298v9.216h-1.469v-9.215h-3.298v-1.27zm1.537 10.486h1.467V40.115h-1.467zm-7.834 15.958a4.837 4.837 0 0 1-1.884-.364 4.258 4.258 0 0 1-1.513-1.06c-.43-.463-.767-1.035-1.014-1.717-.248-.68-.37-1.46-.37-2.338 0-.877.132-1.656.4-2.338.267-.68.623-1.252 1.067-1.716a4.418 4.418 0 0 1 1.543-1.053 4.856 4.856 0 0 1 1.831-.355c.394 0 .752.025 1.075.076a5.86 5.86 0 0 1 1.468.415c.172.076.302.144.393.205l-.333.893a5.99 5.99 0 0 0-.96-.447c-.39-.146-.87-.22-1.446-.22-.656 0-1.228.112-1.718.333-.49.223-.9.536-1.233.94a4.049 4.049 0 0 0-.75 1.437 6.385 6.385 0 0 0-.248 1.846c0 .696.082 1.324.249 1.884.167.56.41 1.036.734 1.43.323.394.72.696 1.188.908.468.211 1.006.318 1.611.318.666 0 1.224-.064 1.673-.19.449-.125.789-.254 1.02-.386l.289.879a1.76 1.76 0 0 1-.362.173 7.143 7.143 0 0 1-1.56.38 9.008 9.008 0 0 1-1.15.067m8.77-9.534c-.38.87-.75 1.756-1.11 2.652a119.44 119.44 0 0 0-1.116 2.901h4.477a98.357 98.357 0 0 0-1.133-2.905 116.47 116.47 0 0 0-1.118-2.648zm3.609 9.307a45.773 45.773 0 0 1-.552-1.486 78.89 78.89 0 0 1-.482-1.39h-5.124c-.175.453-.347.918-.514 1.394-.168.476-.345.97-.532 1.482h-1.075c.399-1.092.774-2.11 1.129-3.053a105.72 105.72 0 0 1 2.058-5.101c.335-.775.688-1.553 1.058-2.334h.908c.37.777.72 1.554 1.052 2.332.332.777.669 1.586 1.011 2.427.342.84.689 1.733 1.04 2.676.351.945.737 1.962 1.158 3.053h-1.135zm5.991-9.685c-.383 0-.708.013-.976.038a45 45 0 0 0-.688.068v4.63h1.302c.554 0 1.055-.032 1.505-.098.45-.066.833-.186 1.15-.363.317-.176.562-.421.734-.734.172-.313.258-.712.258-1.196 0-.464-.095-.848-.28-1.15a2.079 2.079 0 0 0-.743-.72 3.255 3.255 0 0 0-1.051-.37 6.858 6.858 0 0 0-1.211-.105m-.046-.894c1.485 0 2.589.283 3.316.848.726.565 1.088 1.368 1.088 2.406 0 .596-.105 1.103-.317 1.521a2.58 2.58 0 0 1-.908 1.014c-.394.257-.876.444-1.445.56a9.733 9.733 0 0 1-1.93.174h-1.422v4.056h-1.03v-10.29c.364-.101.79-.174 1.28-.22.489-.046.945-.069 1.368-.069m6.791 10.579h1.03V55.846h-1.03zm11.062-10.487v.892h-3.358v9.595h-1.03v-9.595h-3.36v-.892zm5.576 1.18a102.451 102.451 0 0 0-2.226 5.553h4.477a94.856 94.856 0 0 0-1.133-2.905 116.47 116.47 0 0 0-1.118-2.648zm3.61 9.307a46.177 46.177 0 0 1-.553-1.486c-.169-.476-.33-.938-.482-1.39h-5.124c-.175.453-.347.918-.514 1.394-.168.476-.344.97-.531 1.482h-1.076c.4-1.092.776-2.11 1.129-3.053a117.348 117.348 0 0 1 2.057-5.101 79.61 79.61 0 0 1 1.06-2.334h.906c.37.777.722 1.554 1.055 2.332.332.777.668 1.586 1.01 2.427.341.84.688 1.733 1.038 2.676.352.945.738 1.962 1.16 3.053h-1.135zm9.26-.893v.893h-5.963V55.845h1.029v9.595z"/></g></svg>