<svg xmlns="http://www.w3.org/2000/svg" width="50" height="52" viewBox="0 0 50 52"><path fill="#FF8C00" fill-rule="evenodd" d="M41.598 35.575c-.44-2.01-1.386-3.522-2.71-4.664-.456-.475-1.008-.81-1.635-1.166a5.794 5.794 0 0 0-.959-.444c-.687-.257-1.588-.555-2.71-.444.563-.28 1.399-.291 2.259-.278.713.075 1.305.27 1.917.444.512.274 1.02.552 1.524.833 1.237-3.639.763-8.618-.62-11.827-1.338-3.366-3.282-6.136-5.811-8.328-2.487-2.236-5.475-3.98-9.424-4.775-1.954-.415-4.413-.349-6.208.056a13.99 13.99 0 0 0-4.795 2.276c-1.266 1.104-2.495 2.247-3.33 3.775-.3.297-.43.763-.678 1.111-.173.421-.367.822-.563 1.221-.291.88-.626 1.716-.79 2.721-.452 1.818-.533 4.315-.226 6.275.232 2.103.859 3.818 1.525 5.496.41.78.784 1.597 1.24 2.332.432.741.967 1.38 1.468 2.055 1.137 1.213 2.358 2.342 3.78 3.276 2.882 1.847 6.19 3.273 10.72 3.497.09-.181-.122-.544-.168-.777-.068-.267-.095-.574-.17-.832-.065-.598-.085-1.296 0-1.888.179.046.174.272.283.388.096.11.132.277.282.333.113.313.36.497.507.778.426.432.758.957 1.298 1.276.43.43 1.005.713 1.524 1.056.559.283 1.038.644 1.693.832 1.12.58 2.624.785 4.12 1 1.506.2 2.96.453 4.343.777 1.274.43 2.572.836 3.612 1.498.549.312 1.09.631 1.58 1 .239.19.541.318.733.555.297.117.427.394.733.5.876.822 1.742 1.655 2.485 2.609.306.55.724.989.958 1.611.206.223.267.588.451.832.012.316.323.694.056.944-.419.061-.334-.374-.507-.555-.136-.217-.305-.405-.397-.665-.66-.683-1.25-1.433-1.974-2.054-.715-.611-1.418-1.235-2.257-1.722-1.576-1.097-3.402-1.944-5.53-2.5-2.094-.596-4.443-.835-7.165-.665-1.196.154-2.337.367-3.33.72-1.07.262-2.26.406-3.442.556-4.618.28-9.76-.804-13.204-2.442-1.837-.837-3.528-1.82-4.964-3.054-.786-.558-1.428-1.261-2.088-1.943-.604-.72-1.24-1.41-1.693-2.277-.604-.739-.96-1.72-1.468-2.554-.33-.988-.797-1.843-1.015-2.942C.513 28.42.3 27.295.18 26.08c-.02-.334-.172-.977-.17-1.499 0-.047.061-.088.057-.166-.025-.474-.14-1.204 0-1.61-.025-1.1.176-2.454.396-3.499.202-1.114.503-2.132.846-3.11.336-1 .78-1.895 1.184-2.83.272-.4.478-.863.733-1.277.216-.436.54-.765.735-1.222.217-.12.256-.414.45-.555.088-.248.322-.35.396-.611.185-.151.331-.34.451-.556.172-.164.352-.32.451-.555.673-.652 1.274-1.375 1.975-1.998.699-.646 1.48-1.209 2.202-1.832.458-.215.788-.557 1.24-.778.344-.31.845-.466 1.186-.778.94-.406 1.742-.95 2.765-1.277.881-.446 1.937-.722 2.934-1.054C20.178.326 22.364-.05 25.064.04c.097.011.147-.095.17 0 5.113.151 8.84 1.667 12.019 3.72 3.15 2.064 5.589 4.828 7.335 8.273 1.709 3.413 2.67 8.05 1.863 12.937a25.868 25.868 0 0 1-1.863 5.94c-.461.843-.873 1.733-1.41 2.5a7.403 7.403 0 0 1-.79 1.165 2.344 2.344 0 0 1-.394.556c-.067.101-.15.187-.227.278-.025.049-.049.099-.113.11.016.1-.052.114-.056.056zm-2.28 1.036c-.842-.33-.984-1.36-1.364-2.151-.068-.29-.128-.727 0-1.004.057-.014.07-.072.143-.072.212-.137.413.036.716.143.413.473.675 1.095.862 1.793.015.565.057 1.158-.358 1.291zm-6.027-1.716c.013-.082.072-.04.072 0 1.271.162 1.855 1.013 1.936 2.367-.113.749-.533 1.19-1.22 1.363-1.712.029-2.687-1.547-2.08-3.156.342-.279.584-.658 1.292-.574z"/></svg>