<svg xmlns="http://www.w3.org/2000/svg" width="50" height="50" viewBox="0 0 50 50"><g fill="none" fill-rule="evenodd"><path fill="#000" d="M0 50h50V0H0v50zm1.667-1.667h46.665V1.67H1.667v46.664z"/><path fill="#FFED00" d="M1.667 48.333h46.666V1.667H1.667z"/><path fill="#000" d="M25 30.723L10.639 45l-5.698-5.658L19.303 25.06l-2.996-2.981v-5.885l-2.08-2.071v5.132l-1.811 1.802-7.282-7.242-1.8 1.791c.012-1.351.283-5.26 3.617-8.517 3.598-3.441 7.483-1.891 8.812-.568l7.278 7.238-1.857 1.843L25 19.397l3.815-3.795-1.856-1.843 7.276-7.238c1.33-1.323 5.214-2.873 8.812.568 3.335 3.258 3.606 7.166 3.62 8.517l-1.801-1.79-7.282 7.241-1.81-1.802v-5.132l-2.083 2.07v5.886l-2.996 2.98 14.363 14.283L39.361 45 25 30.723z"/></g></svg>