<svg xmlns="http://www.w3.org/2000/svg" width="210" height="38" viewBox="0 0 210 38"><g fill="none"><path fill="#231F20" d="M57.696 31.34c-3.554 0-5.822-.999-8.023-3.238l1.286-1.31c2.167 2.206 3.961 2.895 6.839 2.895 3.826 0 6.195-1.86 6.195-5.064 0-1.482-.406-2.653-1.32-3.445-.914-.724-1.49-1.034-3.487-1.31l-2.81-.447c-1.828-.275-3.25-.86-4.3-1.791-1.252-1.068-1.895-2.584-1.895-4.513 0-4.134 2.844-6.718 7.481-6.718 2.98 0 4.875.827 6.94 2.653l-1.184 1.205c-1.422-1.377-3.013-2.273-5.857-2.273-3.52 0-5.586 1.929-5.586 5.064 0 1.413.407 2.48 1.253 3.204.846.723 2.234 1.274 3.588 1.516l2.607.413c2.268.31 3.317.758 4.3 1.62 1.32 1.101 2.098 2.79 2.098 4.752 0 4.169-3.08 6.787-8.125 6.787m30.233-20.428l-7.312 16.777h-1.828l-7.448-16.777v20.222h-1.828V6.606h1.828l8.395 18.913 8.193-18.913h1.828v24.528h-1.828zM98.63 23.52h10.088l-5.045-14.434-5.044 14.435zm10.663 1.654h-11.24l-2.098 5.96h-1.963l8.869-24.528h1.625l8.87 24.528h-1.964l-2.1-5.96zM125.849 8.26h-7.109v9.922h7.109c3.115 0 5.315-1.55 5.315-4.96 0-3.411-2.2-4.962-5.315-4.962zm-.473 11.575h-6.636v11.3h-1.828V6.606h9.174c3.927 0 6.906 2.308 6.906 6.58 0 3.685-2.166 6.029-5.552 6.614l5.823 11.334h-2.133l-5.754-11.3zm18.722 11.299h-1.829V8.259h-7.176V6.606h16.216v1.653h-7.211z"/><path fill="#EC1C24" d="M169.659 31.134l-4.605-13.849-4.603 13.849h-1.761l-5.213-16.605h1.895l4.164 14.538 4.672-14.538h1.693l4.672 14.538 4.164-14.538h1.895l-5.213 16.605zm20.28-12.471c-.71-1.757-2.336-2.79-4.231-2.79-1.896 0-3.521 1.033-4.232 2.79-.373 1.068-.474 1.516-.576 3.135h9.614c-.101-1.585-.135-2.136-.575-3.135m-3.723 11.093c1.929 0 3.114-.586 4.502-1.999l1.286 1.034c-1.659 1.689-3.182 2.55-5.89 2.55-4.503 0-6.94-2.963-6.94-8.51 0-5.373 2.437-8.509 6.534-8.509 4.096 0 6.533 2.998 6.533 8.096v.792H180.9c0 4.238 1.827 6.546 5.315 6.546m17.266-13.883c-3.994 0-4.604 3.514-4.604 6.958 0 3.445.61 6.959 4.604 6.959s4.605-3.514 4.605-6.959c0-3.444-.61-6.958-4.605-6.958m4.232 14.02c-.847.862-2.268 1.448-3.995 1.448-1.862 0-3.385-.415-4.84-2.344v2.137h-1.727V6.606h1.726v10.06c1.456-1.93 2.979-2.343 4.841-2.343 1.727 0 3.148.585 3.995 1.446 1.659 1.689 2.099 4.445 2.099 7.062 0 2.619-.44 5.375-2.1 7.063"/><path fill="#F1F1F2" d="M37.296 37.906H7.773l-7.4-7.53V.334h29.564l7.359 7.488v30.084z"/><path fill="#231F20" d="M28.938 25.455h-2.265l-1.677-5.191-1.677 5.191h-2.265l-2.802-9.466h2.992l1.158 4.909 1.608-4.909h1.971l1.608 4.909 1.159-4.909h2.991z"/><path fill="#EC1C24" d="M23.131 8.26l-1.468 5.004h2.305l1.467-5.004zm4.828 0l-1.468 5.004h2.304l1.468-5.004z"/><path fill="#231F20" d="M12.847 25.812c-2.418 0-4.023-.593-5.367-1.98l-.077-.08 1.983-2.033.08.078c.812.81 1.931 1.205 3.421 1.205 1.111 0 2.437-.295 2.437-1.695 0-.498-.142-.895-.408-1.149-.279-.262-.597-.389-1.215-.484l-1.744-.248c-1.272-.191-2.21-.602-2.87-1.253-.723-.733-1.073-1.709-1.073-2.981 0-2.787 2.024-4.588 5.157-4.588 2.06 0 3.526.54 4.756 1.749l.08.08-1.943 1.974-.078-.075c-.902-.863-1.97-.98-2.896-.98-1.282 0-2.11.682-2.11 1.736 0 .383.137.725.387.964.291.273.756.473 1.274.547l1.705.247c1.297.183 2.17.543 2.829 1.167.766.74 1.154 1.821 1.154 3.212 0 2.744-2.202 4.587-5.482 4.587"/></g></svg>