<svg xmlns="http://www.w3.org/2000/svg" xmlns:xlink="http://www.w3.org/1999/xlink" width="64" height="64" viewBox="0 0 64 64"><defs><path id="a" d="M0 .003h64v23.999H0z"/><path id="c" d="M.001.001H24V24H.001z"/><path id="e" d="M.999.001h23.999V24H.999z"/></defs><g fill="none" fill-rule="evenodd"><mask id="b" fill="#fff"><use xlink:href="#a"/></mask><path fill="#EC231A" d="M55.978.003H8.022C3.592.003-.001 3.62-.001 8.08V24h64V8.082C64 3.62 60.41.003 55.98.003m0 4c2.218 0 4.02 1.83 4.02 4.078V20H4V8.082c0-2.248 1.804-4.078 4.022-4.078h47.957" mask="url(#b)"/><g transform="translate(0 40)"><mask id="d" fill="#fff"><use xlink:href="#c"/></mask><path fill="#EC231A" d="M24 .001H.001v20.022A3.977 3.977 0 0 0 3.978 24H24V.001zm-4 4v16.003l-15.999.02V4H20z" mask="url(#d)"/></g><g transform="translate(39 40)"><mask id="f" fill="#fff"><use xlink:href="#e"/></mask><path fill="#EC231A" d="M24.998.001H.999v24h16.937c3.9 0 7.062-3.163 7.062-7.063V.001zm-4 4v12.937A3.066 3.066 0 0 1 17.936 20H4.999V4.001h15.999z" mask="url(#f)"/></g><path stroke="#EC231A" stroke-width="4" d="M12 42.168v-19.52m39.998 19.52v-19.52M41.759 51.14h-19.52"/></g></svg>