<svg xmlns="http://www.w3.org/2000/svg" width="64" height="64" viewBox="0 0 64 64"><g fill="none" fill-rule="evenodd"><path fill="#EC231A" d="M61 0H50.226a3 3 0 0 0-3 3v10.773a3 3 0 0 0 3 3H61a3 3 0 0 0 3-3V3a3 3 0 0 0-3-3zm-9.774 12.773H60V4h-8.774v8.773z"/><path stroke="#EC231A" stroke-width="4" d="M0 62h64M10 8v24c0 1.1.9 2 2 2h7.907c1.101 0 2-.9 2-2V20c0-1.1.901-2 2-2H32c1.1 0 2 .9 2 2v23.849c0 1.099.9 2.006 2 2.014l9.937.074"/><path fill="#EC231A" d="M55.74 46a2.971 2.971 0 1 1-5.943.002A2.971 2.971 0 0 1 55.739 46"/></g></svg>