<svg xmlns="http://www.w3.org/2000/svg" xmlns:xlink="http://www.w3.org/1999/xlink" width="217" height="39" viewBox="0 0 217 39"><defs><path id="a" d="M0 .434h38.213v38.213H0z"/><path id="c" d="M38.213 38.647H7.66L0 30.988V.434h30.597l7.616 7.616v30.597z"/></defs><g fill="none" fill-rule="evenodd"><path fill="#231F20" d="M59.327 32.104c-3.68 0-6.027-1.016-8.304-3.293l1.331-1.332c2.243 2.243 4.1 2.943 7.078 2.943 3.959 0 6.411-1.892 6.411-5.15 0-1.507-.42-2.698-1.366-3.504-.946-.735-1.542-1.05-3.61-1.33l-2.907-.457c-1.892-.28-3.363-.875-4.45-1.821-1.296-1.086-1.962-2.628-1.962-4.59 0-4.204 2.944-6.832 7.743-6.832 3.084 0 5.045.841 7.183 2.698l-1.226 1.226C63.776 9.26 62.13 8.35 59.186 8.35c-3.644 0-5.78 1.962-5.78 5.15 0 1.436.42 2.523 1.296 3.258.876.736 2.312 1.297 3.713 1.542l2.698.42c2.348.316 3.434.771 4.45 1.647 1.366 1.121 2.172 2.838 2.172 4.835 0 4.239-3.188 6.902-8.408 6.902m31.288-20.776L83.047 28.39h-1.892l-7.708-17.062v20.566h-1.892V6.948h1.892l8.69 19.235 8.478-19.235h1.892v24.946h-1.892zm11.074 12.823h10.44l-5.22-14.68-5.22 14.68zm11.036 1.682h-11.632l-2.172 6.061H96.89l9.18-24.946h1.681l9.18 24.946h-2.032l-2.173-6.061zM129.86 8.63h-7.358v10.09h7.357c3.224 0 5.501-1.576 5.501-5.045 0-3.468-2.277-5.045-5.5-5.045zm-.49 11.772h-6.868v11.492h-1.892V6.948h9.495c4.064 0 7.147 2.348 7.147 6.692 0 3.749-2.242 6.132-5.746 6.727l6.027 11.527h-2.208l-5.956-11.492zm19.376 11.492h-1.892V8.63h-7.427V6.948h16.782V8.63h-7.463z"/><path fill="#EC1D24" d="M175.2 31.894l-4.766-14.084-4.764 14.084h-1.822l-5.396-16.887h1.962l4.31 14.784 4.834-14.784h1.753l4.834 14.784 4.31-14.784h1.962l-5.396 16.887zm20.988-12.683c-.736-1.787-2.417-2.838-4.38-2.838-1.961 0-3.643 1.051-4.379 2.838-.385 1.086-.49 1.541-.595 3.188h9.95c-.106-1.611-.14-2.172-.596-3.188m-3.853 11.282c1.996 0 3.223-.596 4.659-2.033l1.331 1.052c-1.717 1.716-3.293 2.592-6.096 2.592-4.66 0-7.182-3.013-7.182-8.654 0-5.466 2.523-8.654 6.762-8.654 4.24 0 6.761 3.049 6.761 8.234v.806h-11.736c0 4.309 1.892 6.657 5.5 6.657m17.87-14.12c-4.134 0-4.766 3.574-4.766 7.077 0 3.504.632 7.077 4.766 7.077 4.133 0 4.764-3.573 4.764-7.077 0-3.503-.63-7.077-4.764-7.077m4.379 14.26c-.876.875-2.347 1.471-4.134 1.471-1.927 0-3.503-.42-5.01-2.382v2.172h-1.787V6.948h1.786v10.23c1.508-1.961 3.084-2.382 5.01-2.382 1.788 0 3.26.596 4.135 1.472 1.717 1.717 2.172 4.52 2.172 7.182 0 2.663-.455 5.466-2.172 7.183"/><g transform="translate(0 .134)"><mask id="b" fill="#fff"><use xlink:href="#a"/></mask><g mask="url(#b)"><use fill="#FFF" xlink:href="#c"/><path stroke="#292929" stroke-width="1.5" d="M37.463 37.897V8.361l-3.588-3.588-3.589-3.589H.75v29.494l7.22 7.22h29.493z"/></g></g><path fill="#231F20" d="M29.563 26.118H27.22l-1.736-5.28-1.735 5.28h-2.344l-2.9-9.628H21.6l1.199 4.993 1.665-4.993h2.04l1.664 4.993 1.198-4.993h3.097z"/><path fill="#EC1D24" d="M23.554 8.63l-1.52 5.09h2.385l1.52-5.09zm4.996 0l-1.52 5.09h2.385l1.52-5.09z"/><path fill="#231F20" d="M12.91 26.48c-2.502 0-4.162-.602-5.554-2.013l-.08-.081 2.053-2.068.081.08c.841.824 2 1.225 3.542 1.225 1.15 0 2.521-.3 2.521-1.723 0-.507-.146-.912-.422-1.169-.288-.267-.617-.395-1.256-.493l-1.806-.251c-1.316-.195-2.288-.613-2.97-1.275-.748-.745-1.11-1.738-1.11-3.032 0-2.835 2.095-4.666 5.337-4.666 2.131 0 3.65.548 4.921 1.779l.084.082-2.01 2.007-.082-.077c-.933-.878-2.039-.996-2.996-.996-1.328 0-2.186.694-2.186 1.765 0 .39.143.739.402.98.3.279.782.481 1.318.557l1.765.25c1.342.188 2.245.553 2.927 1.188.793.754 1.195 1.852 1.195 3.267 0 2.79-2.28 4.665-5.674 4.665"/></g></svg>