<svg xmlns="http://www.w3.org/2000/svg" xmlns:xlink="http://www.w3.org/1999/xlink" width="64" height="64" viewBox="0 0 64 64"><defs><path id="a" d="M.226 0H17v16.774H.226z"/></defs><g fill="none" fill-rule="evenodd"><path stroke="#EC231A" stroke-width="4" d="M23.342 25.42h17.316M23.342 42.09h17.316m-17.316-8.235h17.316"/><path fill="#EC231A" d="M41.087 14.93H14.928v38.9h34.038V23.95l-7.879-9.02zm-1.817 4l5.696 6.521v24.38H18.928v-30.9H39.27z"/><g transform="translate(47)"><mask id="b" fill="#fff"><use xlink:href="#a"/></mask><path fill="#EC231A" d="M14 0H3.226a3 3 0 0 0-3 3v10.774a3 3 0 0 0 3 3H14a3 3 0 0 0 3-3V3a3 3 0 0 0-3-3zM4.226 12.774H13V4H4.226v8.774z" mask="url(#b)"/></g><path stroke="#EC231A" stroke-width="4" d="M0 62h64"/></g></svg>