<svg xmlns="http://www.w3.org/2000/svg" xmlns:xlink="http://www.w3.org/1999/xlink" width="221" height="40" viewBox="0 0 221 40"><defs><path id="a" d="M0 .443h38.898V39.42H0z"/><path id="c" d="M38.898 39.42H7.796L0 31.609V.443h31.146l7.752 7.768v31.21z"/><path id="d" d="M0 39.557h220.922V.58H0z"/></defs><g fill="none" fill-rule="evenodd"><path fill="#231F20" d="M60.315 32.84c-3.745 0-6.134-1.037-8.452-3.36l1.355-1.359c2.283 2.288 4.173 3.003 7.204 3.003 4.03 0 6.527-1.93 6.527-5.254 0-1.536-.428-2.751-1.391-3.573-.963-.75-1.57-1.072-3.674-1.358l-2.96-.465c-1.925-.285-3.423-.893-4.529-1.858-1.32-1.108-1.998-2.68-1.998-4.681 0-4.289 2.997-6.97 7.882-6.97 3.139 0 5.136.858 7.312 2.752l-1.249 1.25C64.845 9.54 63.17 8.61 60.172 8.61c-3.709 0-5.884 2-5.884 5.253 0 1.465.428 2.573 1.32 3.323.891.751 2.354 1.323 3.78 1.573l2.746.429c2.39.321 3.495.786 4.53 1.68 1.39 1.143 2.21 2.894 2.21 4.93 0 4.325-3.245 7.041-8.559 7.041m31.85-21.192L84.46 29.051h-1.926L74.69 11.647v20.978h-1.926V7.18h1.926l8.845 19.62 8.63-19.62h1.927v25.445h-1.926zm11.272 13.08h10.628l-5.314-14.974-5.314 14.974zm11.234 1.715h-11.84l-2.211 6.183h-2.07l9.344-25.445h1.712l9.344 25.445h-2.068l-2.212-6.183zm17.442-17.547h-7.49v10.293h7.49c3.281 0 5.6-1.609 5.6-5.146 0-3.538-2.319-5.147-5.6-5.147zm-.499 12.008h-6.99v11.722h-1.926V7.18h9.665c4.137 0 7.275 2.394 7.275 6.826 0 3.823-2.282 6.254-5.85 6.861l6.136 11.758h-2.247l-6.063-11.722zm19.724 11.722h-1.926V8.895h-7.56V7.18h17.082v1.715h-7.596z"/><path fill="#EC1D24" d="M168.6 32.84c-4.707 0-7.56-3.36-7.56-8.828 0-5.467 2.853-8.827 7.56-8.827 2.354 0 3.852.608 5.671 2.644l-1.248 1.144c-1.462-1.643-2.603-2.18-4.422-2.18-1.962 0-3.531.75-4.566 2.288-.855 1.25-1.176 2.609-1.176 4.93 0 2.324.32 3.682 1.176 4.932 1.035 1.538 2.604 2.288 4.566 2.288 1.819 0 2.96-.572 4.422-2.18l1.248 1.143c-1.819 2.038-3.317 2.645-5.67 2.645m19.866-14.58c-.963-.966-2.176-1.465-3.566-1.465-1.391 0-2.604.5-3.567 1.465-1.427 1.43-1.533 3.752-1.533 5.753 0 2.001.106 4.324 1.533 5.754.963.964 2.176 1.465 3.567 1.465 1.39 0 2.603-.5 3.566-1.465 1.426-1.43 1.533-3.753 1.533-5.754 0-2-.107-4.324-1.533-5.753m1.213 12.686c-1.25 1.251-2.817 1.894-4.78 1.894-1.925 0-3.53-.643-4.779-1.894-1.818-1.823-2.139-4.467-2.139-6.933s.321-5.11 2.14-6.933c1.248-1.25 2.853-1.894 4.779-1.894 1.962 0 3.53.643 4.779 1.894 1.818 1.823 2.14 4.467 2.14 6.933s-.322 5.11-2.14 6.933m29.46-9.005c0-3.324-1.642-5.147-4.744-5.147-2.996 0-4.85 1.858-4.85 4.824v11.008h-1.82V21.94c0-3.324-1.64-5.147-4.742-5.147-3.103 0-4.851 1.858-4.851 5.147v10.685h-1.819V15.4h1.819v2.036c1.284-1.5 2.996-2.25 5.1-2.25 2.568 0 4.493 1.107 5.528 3.144 1.284-2.037 3.28-3.145 5.849-3.145 1.89 0 3.424.607 4.53 1.644 1.176 1.144 1.782 2.752 1.782 4.788v11.008h-1.783V21.94z"/><g transform="translate(0 .137)"><mask id="b" fill="#fff"><use xlink:href="#a"/></mask><g mask="url(#b)"><use fill="#FFF" xlink:href="#c"/><path stroke="#292929" stroke-width="1.5" d="M38.148 38.67V8.522a31513.045 31513.045 0 0 0-7.313-7.328H.75v30.105c3.62 3.628 4.911 4.92 7.357 7.373h30.041z"/></g></g><mask id="e" fill="#fff"><use xlink:href="#d"/></mask><path fill="#EC1D24" d="M6.89 27.1h26.265v-2.117H6.89z" mask="url(#e)"/><path fill="#231F20" d="M10.277 22.9c-1.143 0-2.12-.399-2.904-1.184a3.16 3.16 0 0 1-.884-1.634c-.118-.596-.178-1.481-.178-2.633s.06-2.037.178-2.632c.123-.625.412-1.16.884-1.635.783-.784 1.76-1.183 2.904-1.183 2.13 0 3.613 1.276 3.965 3.411l.021.129h-2.29l-.022-.085c-.228-.932-.786-1.405-1.659-1.405-.532 0-.944.17-1.226.506-.408.437-.49.923-.49 2.894 0 1.972.082 2.458.486 2.89.286.34.698.51 1.23.51.873 0 1.43-.473 1.66-1.406l.02-.083h2.291l-.02.128c-.353 2.136-1.835 3.412-3.966 3.412m7.843-6.137c-.341 0-.597.097-.806.307-.378.379-.41 1.059-.41 1.781 0 .73.032 1.416.41 1.795.209.21.465.307.806.307.346 0 .614-.1.82-.307.378-.379.41-1.065.41-1.795 0-.723-.032-1.402-.41-1.78-.206-.207-.474-.308-.82-.308m0 6.137c-1.266 0-2.031-.533-2.45-.98-.752-.785-.9-1.72-.9-3.069 0-1.307.152-2.273.9-3.057.42-.445 1.185-.977 2.45-.977 1.343 0 2.12.613 2.464.978.748.782.898 1.749.898 3.056 0 1.35-.146 2.285-.899 3.07-.342.365-1.119.979-2.463.979m12.9-.09v-4.756c0-1.197-.884-1.29-1.156-1.29-.566 0-1.17.327-1.17 1.246v4.8H26.56v-4.756c0-1.197-.885-1.29-1.157-1.29-.274 0-1.17.093-1.17 1.29v4.757H22.1v-7.906h2.09v.565a2.8 2.8 0 0 1 1.803-.653c.865 0 1.551.308 2.042.916.647-.641 1.339-.916 2.286-.916.796 0 1.51.259 1.962.71.594.597.871 1.315.871 2.262v5.022h-2.133z" mask="url(#e)"/></g></svg>