<svg xmlns="http://www.w3.org/2000/svg" xmlns:xlink="http://www.w3.org/1999/xlink" width="64" height="64" viewBox="0 0 64 64"><defs><path id="a" d="M.226 0H17v16.773H.226z"/></defs><g fill="none" fill-rule="evenodd"><g transform="translate(47)"><mask id="b" fill="#fff"><use xlink:href="#a"/></mask><path fill="#EC231A" d="M14 0H3.226a3 3 0 0 0-3 3v10.773a3 3 0 0 0 3 3H14a3 3 0 0 0 3-3V3a3 3 0 0 0-3-3zM4.226 12.773H13V4H4.226v8.773z" mask="url(#b)"/></g><path stroke="#EC231A" stroke-width="4" d="M0 62h64M8 62V8m12 54V32m12 30V20m12 42V41.442M56 62V32"/></g></svg>