<svg xmlns="http://www.w3.org/2000/svg" xmlns:xlink="http://www.w3.org/1999/xlink" width="64" height="64" viewBox="0 0 64 64"><defs><path id="a" d="M.227 0H17v16.774H.227z"/></defs><g fill="none" fill-rule="evenodd"><path stroke="#EC231A" stroke-width="4" d="M20 31.9h24M20 48.569h24m-24-8.234h24M20 15.431h17.561M20 23.866h24"/><g transform="translate(47)"><mask id="b" fill="#fff"><use xlink:href="#a"/></mask><path fill="#EC231A" d="M14 0H3.227a3 3 0 0 0-3 3v10.774c0 1.658 1.342 3 3 3H14a3 3 0 0 0 3-3V3a3 3 0 0 0-3-3zM4.227 12.774H13V4H4.227v8.774z" mask="url(#b)"/></g><path stroke="#EC231A" stroke-width="4" d="M0 62h64"/></g></svg>