<svg xmlns="http://www.w3.org/2000/svg" width="50" height="50" viewBox="0 0 50 50"><g fill-rule="evenodd"><path d="M41.541 16.397l-6.206 6.207-4.438-4.44-11.46 11.46-4.839-4.839-6.891 6.89c.355.959.781 1.882 1.284 2.757l5.607-5.607 4.839 4.839 11.46-11.46 4.438 4.44 7.425-7.425a18.488 18.488 0 0 0-1.219-2.822"/><path d="M25.147 46.642c-11.815 0-21.428-9.613-21.428-21.428 0-11.816 9.613-21.429 21.428-21.429 11.816 0 21.429 9.613 21.429 21.429 0 11.815-9.613 21.428-21.429 21.428m0-45.714C11.756.928.862 11.822.862 25.214c0 13.391 10.894 24.285 24.285 24.285 13.392 0 24.286-10.894 24.286-24.285C49.433 11.822 38.539.928 25.147.928"/></g></svg>