<svg xmlns="http://www.w3.org/2000/svg" width="18" height="14" viewBox="0 0 18 14"><path fill-opacity=".3" d="M17.226 1.658a7.064 7.064 0 0 1-2.03.556A3.554 3.554 0 0 0 16.753.259a7.105 7.105 0 0 1-2.245.857A3.534 3.534 0 0 0 8.484 4.34 10.034 10.034 0 0 1 1.199.646a3.534 3.534 0 0 0 1.093 4.72 3.52 3.52 0 0 1-1.6-.443v.045a3.536 3.536 0 0 0 2.834 3.464 3.522 3.522 0 0 1-1.595.062 3.539 3.539 0 0 0 3.302 2.455 7.088 7.088 0 0 1-4.39 1.512c-.286 0-.568-.016-.843-.05A10.002 10.002 0 0 0 5.417 14c6.5 0 10.057-5.386 10.057-10.056 0-.154-.004-.306-.01-.457a7.174 7.174 0 0 0 1.762-1.83z"/></svg>