<svg xmlns="http://www.w3.org/2000/svg" width="20" height="11" viewBox="0 0 20 11"><path fill-opacity=".3" fill-rule="evenodd" d="M10.587 10.954s.347-.038.525-.23c.163-.176.159-.506.159-.506s-.023-1.547.695-1.774c.708-.225 1.615 1.494 2.58 2.155.728.5 1.281.39 1.281.39l2.574-.035s1.348-.083.708-1.142c-.052-.088-.371-.784-1.914-2.216-1.614-1.498-1.399-1.256.547-3.848 1.185-1.579 1.658-2.542 1.51-2.955-.141-.394-1.012-.29-1.012-.29l-2.9.019s-.215-.03-.374.065c-.156.093-.256.312-.256.312s-.459 1.222-1.071 2.26c-1.291 2.193-1.807 2.308-2.018 2.172-.491-.318-.368-1.275-.368-1.955 0-2.125.322-3.01-.628-3.239C10.311.06 10.078.01 9.273.003 8.237-.01 7.362.005 6.866.248c-.33.161-.584.522-.43.542.192.026.627.118.857.431.296.404.286 1.311.286 1.311s.171 2.502-.399 2.812c-.39.214-.926-.222-2.078-2.211C4.512 2.114 4.068.988 4.068.988S3.982.778 3.83.666c-.187-.137-.446-.18-.446-.18L.628.504S.214.515.062.695c-.134.16-.01.491-.01.491s2.156 5.047 4.599 7.589c2.24 2.332 4.783 2.179 4.783 2.179h1.153z"/></svg>